<svg width="110" height="110" viewBox="0 0 110 110" fill="none" xmlns="http://www.w3.org/2000/svg">
<path d="M70.032 33.6063L54.7444 50.3765L37.9742 35.0889C36.6565 33.8877 34.5957 33.983 33.3945 35.3007C32.1933 36.6183 32.2886 38.6792 33.6063 39.8804L50.3765 55.168L35.0889 71.9382C33.8877 73.2558 33.9831 75.3167 35.3007 76.5179C36.6184 77.719 38.6792 77.6237 39.8804 76.3061L55.168 59.5358L71.9382 74.8235C73.2559 76.0246 75.3167 75.9293 76.5179 74.6116C77.7191 73.294 77.6238 71.2331 76.3061 70.032L59.5359 54.7444L74.8235 37.9741C76.0247 36.6565 75.9294 34.5956 74.6117 33.3945C73.294 32.1933 71.2332 32.2886 70.032 33.6063Z" fill="white"/>
<path d="M70.032 33.6063L54.7444 50.3765L37.9742 35.0889C36.6565 33.8877 34.5957 33.983 33.3945 35.3007C32.1933 36.6183 32.2886 38.6792 33.6063 39.8804L50.3765 55.168L35.0889 71.9382C33.8877 73.2558 33.9831 75.3167 35.3007 76.5179C36.6184 77.719 38.6792 77.6237 39.8804 76.3061L55.168 59.5358L71.9382 74.8235C73.2559 76.0246 75.3167 75.9293 76.5179 74.6116C77.7191 73.294 77.6238 71.2331 76.3061 70.032L59.5359 54.7444L74.8235 37.9741C76.0247 36.6565 75.9294 34.5956 74.6117 33.3945C73.294 32.1933 71.2332 32.2886 70.032 33.6063Z" fill="white"/>
</svg>
