<svg xmlns="http://www.w3.org/2000/svg" width="105" height="56" viewBox="0 0 105 56" fill="none">
<rect x="0.5" y="0.5" width="104" height="55" rx="7.5" stroke="#DADADA"/>
<g clip-path="url(#clip0_10_7062)">
<path d="M47.6683 40.5133C47.1557 40.1723 46.7014 39.7509 46.3228 39.2653C45.9064 38.7642 45.5205 38.2383 45.1674 37.6907C44.3387 36.4767 43.6889 35.1498 43.2377 33.7509C42.6958 32.1259 42.4333 30.5683 42.4333 29.0449C42.4333 27.3435 42.8014 25.8583 43.5213 24.6103C44.0549 23.6348 44.8395 22.8197 45.7938 22.2491C46.7187 21.6747 47.7814 21.3603 48.87 21.3391C49.251 21.3391 49.6613 21.3944 50.0968 21.5C50.4097 21.5886 50.7907 21.7283 51.2563 21.9022C51.8486 22.1305 52.1744 22.2703 52.2849 22.3044C52.6318 22.4311 52.9235 22.4864 53.1527 22.4864C53.3265 22.4864 53.5719 22.4311 53.8506 22.3466C54.0074 22.2914 54.3032 22.1939 54.7265 22.0127C55.1457 21.86 55.4756 21.7291 55.738 21.6316C56.1402 21.513 56.5294 21.4033 56.8763 21.3481C57.2876 21.2832 57.705 21.2661 58.1203 21.2969C58.8398 21.3439 59.5486 21.4964 60.2238 21.7495C61.328 22.1939 62.221 22.8878 62.8856 23.8741C62.6047 24.0473 62.341 24.247 62.0983 24.4705C61.5698 24.939 61.1197 25.489 60.765 26.0996C60.3013 26.9341 60.0609 27.8741 60.067 28.8288C60.0841 30.0012 60.3847 31.0339 60.977 31.9268C61.4125 32.5886 61.9784 33.1546 62.6402 33.59C62.979 33.8183 63.2707 33.9751 63.5502 34.0808C63.4194 34.487 63.2797 34.8803 63.1147 35.2703C62.7406 36.1448 62.2873 36.9833 61.7603 37.7752C61.2907 38.4569 60.9226 38.9647 60.6431 39.3027C60.2076 39.8186 59.7883 40.2127 59.365 40.4873C58.8995 40.7961 58.3494 40.961 57.7904 40.961C57.4118 40.9756 57.0333 40.9298 56.6692 40.8253C56.3563 40.7197 56.0468 40.6051 55.7421 40.4743C55.4253 40.3288 55.0987 40.2058 54.7647 40.1063C53.9389 39.8942 53.0731 39.8928 52.2467 40.1022C51.9079 40.1997 51.5821 40.3135 51.2603 40.4532C50.8078 40.6433 50.5072 40.7709 50.3333 40.8253C49.9863 40.9269 49.6264 40.9903 49.2624 41.0114C48.6993 41.0114 48.1745 40.8505 47.6545 40.5247L47.6683 40.5133ZM55.0945 20.5136C54.3584 20.8817 53.6556 21.0385 52.9577 20.9873C52.848 20.2845 52.9577 19.5655 53.2493 18.7781C53.4977 18.1111 53.8646 17.4945 54.3324 16.9581C54.8264 16.3935 55.4259 15.9306 56.0972 15.5956C56.8122 15.2275 57.4938 15.0285 58.1455 14.9992C58.23 15.7353 58.1455 16.4593 57.8749 17.2417C57.6245 17.9334 57.2583 18.5774 56.7918 19.1462C56.3158 19.7116 55.7315 20.1763 55.0734 20.5128L55.0945 20.5136Z" fill="black"/>
</g>
<defs>
<clipPath id="clip0_10_7062">
<rect width="26" height="26" fill="white" transform="translate(40 15)"/>
</clipPath>
</defs>
</svg>