<svg xmlns="http://www.w3.org/2000/svg" width="1400" height="920" viewBox="0 0 1400 920">
  <defs>
    <style>
      .title { font-family: Inter, Arial, sans-serif; font-size: 34px; font-weight: 780; fill: #0B1B3A; letter-spacing: 0; }
      .sub { font-family: Inter, Arial, sans-serif; font-size: 18px; font-weight: 430; fill: #475569; letter-spacing: 0; }
      .label { font-family: Inter, Arial, sans-serif; font-size: 16px; font-weight: 760; fill: #0B1B3A; letter-spacing: 0; }
      .body { font-family: Inter, Arial, sans-serif; font-size: 15px; font-weight: 430; fill: #475569; letter-spacing: 0; }
    </style>
    <symbol id="app-icon" viewBox="0 0 1024 1024">
      <rect width="1024" height="1024" rx="224" fill="#2F6BFF"/>
      <path d="M329.6 284.8H584C710.4 284.8 795.2 363.2 795.2 476.8C795.2 592 710.4 668.8 584 668.8H464V800H329.6V284.8ZM464 400V555.2H574.4C630.4 555.2 662.4 526.4 662.4 476.8C662.4 428.8 630.4 400 574.4 400H464Z" fill="#FFFFFF"/>
      <path d="M494.4 662.4H633.6L761.6 800H612.8L494.4 662.4Z" fill="#FFFFFF" opacity=".96"/>
    </symbol>
  </defs>

  <rect width="1400" height="920" fill="#F8FAFC"/>
  <text x="72" y="82" class="title">PAYVORA Mobile App Icon</text>
  <text x="72" y="118" class="sub">1024x1024 flat app icon based entirely on the approved logo symbol. No text, no new motif.</text>

  <g transform="translate(72 168)">
    <rect width="610" height="610" rx="8" fill="#FFFFFF" stroke="#D9E2EF"/>
    <text x="32" y="48" class="label">1024x1024 Master Design</text>
    <use href="#app-icon" x="105" y="92" width="400" height="400"/>
    <text x="32" y="558" class="body">Large, centered protected-P geometry with mobile-safe padding and flat brand-blue field.</text>
  </g>

  <g transform="translate(742 168)">
    <rect width="586" height="292" rx="8" fill="#FFFFFF" stroke="#D9E2EF"/>
    <text x="32" y="48" class="label">Small-Size Recognition</text>
    <use href="#app-icon" x="42" y="96" width="128" height="128"/>
    <use href="#app-icon" x="216" y="112" width="96" height="96"/>
    <use href="#app-icon" x="358" y="128" width="64" height="64"/>
    <use href="#app-icon" x="466" y="144" width="32" height="32"/>
    <text x="74" y="250" class="body">128</text>
    <text x="248" y="250" class="body">96</text>
    <text x="380" y="250" class="body">64</text>
    <text x="472" y="250" class="body">32</text>
  </g>

  <g transform="translate(742 500)">
    <rect width="586" height="278" rx="8" fill="#0B1B3A"/>
    <text x="32" y="48" font-family="Inter, Arial, sans-serif" font-size="16" font-weight="760" fill="#FFFFFF">Dark UI Context</text>
    <use href="#app-icon" x="218" y="78" width="150" height="150"/>
    <text x="32" y="254" font-family="Inter, Arial, sans-serif" font-size="15" fill="#D9E8FF">High contrast on dark launchers and settings surfaces.</text>
  </g>

  <g transform="translate(72 820)">
    <rect width="1256" height="58" rx="8" fill="#0B1B3A"/>
    <text x="28" y="36" font-family="Inter, Arial, sans-serif" font-size="17" fill="#D9E8FF">Recommendation: approve this as the mobile app icon master. Export platform-specific PNGs from this 1024x1024 SVG when needed.</text>
  </g>
</svg>
