<svg xmlns="http://www.w3.org/2000/svg" width="1400" height="920" viewBox="0 0 1400 920">
  <rect width="1400" height="920" fill="#F8FAFC"/>
  <text x="70" y="82" font-family="Inter, Arial, sans-serif" font-size="34" font-weight="760" fill="#0B1B3A">PAYVORA Primary Logo Concepts</text>
  <text x="70" y="118" font-family="Inter, Arial, sans-serif" font-size="18" fill="#475569">Symbol + wordmark only. Flat, geometric, SVG-ready, and shown on light and dark backgrounds.</text>

  <g transform="translate(70 165)">
    <rect width="390" height="570" rx="8" fill="#FFFFFF" stroke="#D9E2EF"/>
    <rect x="1" y="1" width="388" height="160" rx="7" fill="#FFFFFF"/>
    <g transform="translate(66 61)">
      <path d="M0 8.5C0 4.9 2.9 2 6.5 2H29.5C33.1 2 36 4.9 36 8.5V33.5C36 37.1 33.1 40 29.5 40H6.5C2.9 40 0 37.1 0 33.5V8.5Z" fill="#2F6BFF"/>
      <path d="M9 10H20.5C26.2 10 30 13.4 30 18.4C30 23.5 26.2 27 20.5 27H15V33H9V10ZM15 15.2V21.8H20.2C22.6 21.8 24 20.5 24 18.5C24 16.5 22.6 15.2 20.2 15.2H15Z" fill="#FFFFFF"/>
      <path d="M18.2 25.7L25 33H17.8L11.4 25.7H18.2Z" fill="#FFFFFF" opacity="0.92"/>
      <text x="53" y="31" font-family="Inter, Arial, sans-serif" font-size="31" font-weight="760" fill="#0B1B3A">PAYVORA</text>
    </g>
    <rect x="1" y="161" width="388" height="160" fill="#0B1B3A"/>
    <g transform="translate(66 221)">
      <path d="M0 8.5C0 4.9 2.9 2 6.5 2H29.5C33.1 2 36 4.9 36 8.5V33.5C36 37.1 33.1 40 29.5 40H6.5C2.9 40 0 37.1 0 33.5V8.5Z" fill="#2F6BFF"/>
      <path d="M9 10H20.5C26.2 10 30 13.4 30 18.4C30 23.5 26.2 27 20.5 27H15V33H9V10ZM15 15.2V21.8H20.2C22.6 21.8 24 20.5 24 18.5C24 16.5 22.6 15.2 20.2 15.2H15Z" fill="#FFFFFF"/>
      <path d="M18.2 25.7L25 33H17.8L11.4 25.7H18.2Z" fill="#FFFFFF" opacity="0.92"/>
      <text x="53" y="31" font-family="Inter, Arial, sans-serif" font-size="31" font-weight="760" fill="#FFFFFF">PAYVORA</text>
    </g>
    <text x="24" y="372" font-family="Inter, Arial, sans-serif" font-size="22" font-weight="760" fill="#0B1B3A">Concept A: Vora Flow</text>
    <text x="24" y="410" font-family="Inter, Arial, sans-serif" font-size="16" fill="#475569">A contained geometric P with a subtle</text>
    <text x="24" y="434" font-family="Inter, Arial, sans-serif" font-size="16" fill="#475569">forward-flow cut. It reads as protected</text>
    <text x="24" y="458" font-family="Inter, Arial, sans-serif" font-size="16" fill="#475569">movement: wallet, exchange, payments,</text>
    <text x="24" y="482" font-family="Inter, Arial, sans-serif" font-size="16" fill="#475569">and speed in one simple form.</text>
    <rect x="24" y="520" width="145" height="32" rx="4" fill="#EAF0FF"/>
    <text x="40" y="542" font-family="Inter, Arial, sans-serif" font-size="13" font-weight="700" fill="#2F6BFF">Recommended</text>
  </g>

  <g transform="translate(505 165)">
    <rect width="390" height="570" rx="8" fill="#FFFFFF" stroke="#D9E2EF"/>
    <rect x="1" y="1" width="388" height="160" rx="7" fill="#FFFFFF"/>
    <g transform="translate(63 58)">
      <path d="M20 0L38 10V30L20 42L2 30V10L20 0Z" fill="#0B1B3A"/>
      <path d="M12 11H25.5C30.2 11 33.5 14 33.5 18.3C33.5 22.6 30.2 25.6 25.5 25.6H18V33H12V11ZM18 16V20.8H25C26.6 20.8 27.7 19.8 27.7 18.4C27.7 17 26.6 16 25 16H18Z" fill="#FFFFFF"/>
      <path d="M6 25.6H18L25.2 33H17.6L6 21.2V25.6Z" fill="#2F6BFF"/>
      <text x="58" y="32" font-family="Inter, Arial, sans-serif" font-size="31" font-weight="760" fill="#0B1B3A">PAYVORA</text>
    </g>
    <rect x="1" y="161" width="388" height="160" fill="#0B1B3A"/>
    <g transform="translate(63 218)">
      <path d="M20 0L38 10V30L20 42L2 30V10L20 0Z" fill="#FFFFFF"/>
      <path d="M12 11H25.5C30.2 11 33.5 14 33.5 18.3C33.5 22.6 30.2 25.6 25.5 25.6H18V33H12V11ZM18 16V20.8H25C26.6 20.8 27.7 19.8 27.7 18.4C27.7 17 26.6 16 25 16H18Z" fill="#0B1B3A"/>
      <path d="M6 25.6H18L25.2 33H17.6L6 21.2V25.6Z" fill="#2F6BFF"/>
      <text x="58" y="32" font-family="Inter, Arial, sans-serif" font-size="31" font-weight="760" fill="#FFFFFF">PAYVORA</text>
    </g>
    <text x="24" y="372" font-family="Inter, Arial, sans-serif" font-size="22" font-weight="760" fill="#0B1B3A">Concept B: Secure Rails</text>
    <text x="24" y="410" font-family="Inter, Arial, sans-serif" font-size="16" fill="#475569">A shield-like hexagon with a routed rail</text>
    <text x="24" y="434" font-family="Inter, Arial, sans-serif" font-size="16" fill="#475569">shape. It strongly communicates security,</text>
    <text x="24" y="458" font-family="Inter, Arial, sans-serif" font-size="16" fill="#475569">infrastructure, and control, but feels more</text>
    <text x="24" y="482" font-family="Inter, Arial, sans-serif" font-size="16" fill="#475569">institutional than effortless.</text>
  </g>

  <g transform="translate(940 165)">
    <rect width="390" height="570" rx="8" fill="#FFFFFF" stroke="#D9E2EF"/>
    <rect x="1" y="1" width="388" height="160" rx="7" fill="#FFFFFF"/>
    <g transform="translate(58 58)">
      <path d="M0 4H20.8C31.2 4 38 10.6 38 20.3C38 30 31.2 36 20.8 36H15.8L6.2 25.6H20.4C26.2 25.6 29.8 23.5 29.8 20.1C29.8 16.4 26.2 14.2 20.4 14.2H9V36H0V4Z" fill="#2F6BFF"/>
      <path d="M15.6 25.6L24.7 36H35.5L26.2 25.6H15.6Z" fill="#0B1B3A"/>
      <text x="58" y="32" font-family="Inter, Arial, sans-serif" font-size="31" font-weight="760" fill="#0B1B3A">PAYVORA</text>
    </g>
    <rect x="1" y="161" width="388" height="160" fill="#0B1B3A"/>
    <g transform="translate(58 218)">
      <path d="M0 4H20.8C31.2 4 38 10.6 38 20.3C38 30 31.2 36 20.8 36H15.8L6.2 25.6H20.4C26.2 25.6 29.8 23.5 29.8 20.1C29.8 16.4 26.2 14.2 20.4 14.2H9V36H0V4Z" fill="#FFFFFF"/>
      <path d="M15.6 25.6L24.7 36H35.5L26.2 25.6H15.6Z" fill="#2DD4FF"/>
      <text x="58" y="32" font-family="Inter, Arial, sans-serif" font-size="31" font-weight="760" fill="#FFFFFF">PAYVORA</text>
    </g>
    <text x="24" y="372" font-family="Inter, Arial, sans-serif" font-size="22" font-weight="760" fill="#0B1B3A">Concept C: Nexus V</text>
    <text x="24" y="410" font-family="Inter, Arial, sans-serif" font-size="16" fill="#475569">A sharper P/V monogram built from</text>
    <text x="24" y="434" font-family="Inter, Arial, sans-serif" font-size="16" fill="#475569">connected paths. It emphasizes speed,</text>
    <text x="24" y="458" font-family="Inter, Arial, sans-serif" font-size="16" fill="#475569">exchange, and modernity, but has a more</text>
    <text x="24" y="482" font-family="Inter, Arial, sans-serif" font-size="16" fill="#475569">aggressive tech-trading personality.</text>
  </g>

  <rect x="70" y="790" width="1260" height="78" rx="8" fill="#0B1B3A"/>
  <text x="96" y="824" font-family="Inter, Arial, sans-serif" font-size="19" font-weight="760" fill="#FFFFFF">Recommendation</text>
  <text x="96" y="852" font-family="Inter, Arial, sans-serif" font-size="17" fill="#D9E8FF">Concept A is the strongest primary logo foundation: it balances trust, speed, simplicity, and fintech innovation while staying distinctive and SVG-clean.</text>
</svg>
