<?xml version="1.0" standalone="no"?>
<!DOCTYPE svg PUBLIC "-//W3C//DTD SVG 20010904//EN"
 "http://www.w3.org/TR/2001/REC-SVG-20010904/DTD/svg10.dtd">
<svg version="1.0" xmlns="http://www.w3.org/2000/svg"
 width="1460" height="148" viewBox="150 335 1460 148"
 preserveAspectRatio="xMidYMid meet">

<g transform="translate(0.000000,887.000000) scale(0.100000,-0.100000)"
fill="#000000" stroke="none">
<path d="M2250 5460 c-66 -132 -120 -242 -120 -245 0 -2 415 -6 923 -7 l922
-3 54 -23 c122 -52 195 -128 231 -241 47 -149 8 -311 -104 -430 -83 -88 -194
-134 -363 -151 -59 -6 -308 -35 -553 -65 -643 -79 -683 -84 -685 -87 -1 -2
-62 -120 -135 -263 -73 -143 -189 -369 -257 -502 l-125 -243 300 0 300 0 50
93 c27 50 107 203 178 339 l129 246 500 4 c474 4 504 5 577 25 319 89 555 323
654 649 26 83 28 102 28 269 0 169 -2 186 -28 270 -50 165 -149 317 -271 417
-73 60 -212 130 -320 160 -80 23 -83 23 -922 26 l-843 3 -120 -241z"/>
<path d="M7372 4734 c-93 -187 -205 -409 -249 -494 -70 -134 -251 -491 -261
-512 -2 -5 62 -8 143 -8 l146 0 34 74 c18 40 78 167 133 282 55 115 128 268
162 339 l62 130 63 -130 c35 -71 124 -256 199 -410 l136 -280 145 -3 c80 -1
145 0 145 4 0 4 -32 68 -72 143 -40 75 -194 376 -344 670 l-272 533 -170 -338z"/>
<path d="M15240 4402 c-184 -366 -336 -670 -338 -674 -2 -5 61 -8 140 -8 l143
0 104 218 c112 234 244 516 268 572 l15 34 194 -392 c106 -216 196 -402 199
-412 6 -19 16 -20 157 -20 l150 0 -100 193 c-55 105 -209 406 -342 667 -134
261 -246 478 -249 482 -3 4 -157 -293 -341 -660z"/>
<path d="M12066 5043 c-215 -45 -387 -177 -482 -368 -58 -117 -78 -210 -71
-335 9 -156 64 -296 163 -417 79 -97 239 -190 372 -219 88 -18 243 -18 334 1
244 52 451 246 515 485 21 80 24 271 4 350 -20 82 -83 207 -141 277 -154 189
-438 282 -694 226z m259 -238 c124 -32 231 -124 289 -245 26 -55 31 -79 34
-162 5 -118 -18 -206 -75 -288 -158 -225 -506 -242 -681 -32 -153 183 -149
430 10 598 119 126 263 170 423 129z"/>
<path d="M5688 5023 l-48 -4 0 -650 0 -649 125 0 125 0 2 213 3 212 235 6
c245 5 278 11 376 62 83 43 162 141 188 231 38 130 30 233 -29 353 -39 79 -89
129 -170 170 -100 52 -128 55 -455 58 -168 1 -326 1 -352 -2z m667 -268 c133
-83 121 -282 -20 -346 -34 -16 -68 -19 -242 -19 l-203 0 0 193 c0 107 3 197 7
201 4 4 98 6 209 4 l201 -3 48 -30z"/>
<path d="M8260 5023 c0 -9 414 -666 483 -768 l27 -40 0 -247 0 -248 130 0 130
0 0 247 0 246 203 316 c112 174 229 355 260 403 31 48 53 89 49 91 -4 2 -72 3
-152 2 l-145 -2 -43 -64 c-24 -35 -100 -157 -170 -271 -69 -115 -129 -208
-132 -208 -3 0 -79 122 -170 271 l-165 271 -152 5 c-95 3 -153 2 -153 -4z"/>
<path d="M9890 5018 c0 -15 670 -1348 678 -1348 7 0 682 1338 682 1353 0 9
-236 8 -269 -2 -20 -5 -50 -60 -173 -316 -82 -171 -167 -353 -190 -405 -23
-52 -44 -98 -47 -102 -4 -4 -91 179 -195 407 -171 376 -191 414 -215 419 -42
8 -271 3 -271 -6z"/>
<path d="M13380 4374 l0 -654 125 0 125 0 0 230 0 230 139 0 140 0 53 -77 c30
-43 101 -147 159 -230 l104 -153 154 0 c130 0 152 2 148 15 -4 8 -81 121 -172
251 -91 130 -165 238 -163 239 2 1 29 15 62 31 84 41 148 106 188 189 30 65
33 78 33 170 0 91 -3 106 -31 166 -55 116 -128 179 -257 222 -58 19 -88 21
-434 23 l-373 2 0 -654z m694 405 c21 -6 57 -28 79 -49 39 -36 41 -41 45 -107
5 -81 -10 -118 -60 -157 -53 -39 -100 -46 -310 -46 l-198 0 0 185 0 185 203 0
c113 0 219 -5 241 -11z"/>
<path d="M1830 4860 c-8 -6 -200 -297 -200 -305 0 -2 106 -6 235 -7 l235 -3
-51 -88 c-28 -48 -48 -91 -45 -94 13 -14 63 37 107 108 l46 74 601 3 600 2 33
53 c18 28 61 98 95 155 l62 102 -486 1 c-268 0 -653 1 -855 2 -203 1 -372 0
-377 -3z"/>
<path d="M1576 4110 l-77 -100 328 1 328 0 72 100 73 99 -324 0 -323 0 -77
-100z"/>
</g>
</svg>
