<?xml version="1.0" standalone="no"?>
<!DOCTYPE svg PUBLIC "-//W3C//DTD SVG 20010904//EN"
 "http://www.w3.org/TR/2001/REC-SVG-20010904/DTD/svg10.dtd">
<svg version="1.0" xmlns="http://www.w3.org/2000/svg"
 width="1254.000000pt" height="1254.000000pt" viewBox="0 0 1254.000000 1254.000000"
 preserveAspectRatio="xMidYMid meet">

<g transform="translate(0.000000,1254.000000) scale(0.100000,-0.100000)"
fill="#000000" stroke="none">
<path d="M0 6270 l0 -6270 6270 0 6270 0 0 6270 0 6270 -6270 0 -6270 0 0
-6270z m8423 2875 c351 -46 682 -185 938 -392 612 -497 846 -1424 567 -2243
-119 -349 -335 -676 -597 -905 -255 -222 -590 -392 -894 -455 -183 -38 -263
-40 -1305 -40 l-1019 0 -113 -217 c-259 -498 -670 -1275 -682 -1290 -8 -10
-153 -13 -663 -13 -358 0 -655 3 -658 7 -4 3 -3 11 2 17 4 6 68 128 141 271
73 143 213 415 310 605 98 190 262 509 365 710 183 357 325 632 331 638 3 4
36 9 569 72 231 28 670 82 975 120 988 123 1133 140 1265 150 167 14 257 33
376 79 322 126 558 417 625 768 22 119 15 326 -16 433 -91 314 -312 525 -650
619 l-95 26 -1995 5 -1995 5 263 523 263 522 1789 0 c1533 0 1805 -2 1903 -15z
m-1099 -1847 c-4 -7 -19 -31 -33 -53 -13 -22 -103 -168 -199 -325 -96 -157
-176 -287 -179 -290 -3 -3 -601 -5 -1331 -6 l-1325 0 -58 -100 c-32 -54 -79
-135 -104 -180 -44 -76 -51 -83 -122 -123 -41 -23 -77 -41 -79 -39 -1 2 15 35
38 73 80 138 198 358 194 362 -2 2 -236 6 -521 8 -284 2 -519 5 -521 7 -2 2
98 156 221 341 l225 337 1901 0 c1517 0 1899 -3 1893 -12z m-2786 -1446 c9 -6
-33 -71 -145 -230 l-158 -221 -718 0 c-572 -1 -717 2 -711 12 12 19 200 274
271 365 l64 82 692 0 c381 0 698 -4 705 -8z"/>
</g>
</svg>
