<svg xmlns="http://www.w3.org/2000/svg" width="58" height="14" viewBox="0 0 58 14" fill="none">
<path d="M11.3033 2.16505e-05L19.847 13.3259H16.0666L14.1575 10.3205H5.68946L3.76146 13.3259H-3.26366e-05L8.52475 2.16505e-05H11.3033ZM7.73087 7.14497H12.1161L9.9235 3.72371L7.73087 7.14497ZM36.1631 13.0802V13.3259H21.0415V10.1126L31.3053 3.04324H21.2117V0.0567279H36.1631V3.40238L26.0506 10.3394H36.1631V13.0802ZM48.7196 2.16505e-05L57.2633 13.3259H53.4829L51.5738 10.3205H43.1058L41.1778 13.3259H37.4163L45.941 2.16505e-05H48.7196ZM45.1472 7.14497H49.5324L47.3398 3.72371L45.1472 7.14497Z" fill="black"/>
</svg>