<svg xmlns="http://www.w3.org/2000/svg" xmlns:xlink="http://www.w3.org/1999/xlink" width="552" height="401" viewBox="0 0 552 401" fill="none">
<g>
<rect x="100" y="75" width="351.997" height="201" rx="30" fill="#1D1D1D"/>
<mask id="mask0_92_3212" maskUnits="userSpaceOnUse" x="100" y="75" width="352" height="201">
<rect x="100.003" y="75" width="351.997" height="201" rx="30" fill="url(#paint0_linear_92_3212)"/>
</mask>
<g mask="url(#mask0_92_3212)">
<path d="M451.029 55.6075C426.794 84.9437 366.611 129.204 364.357 110.65C360.189 76.3314 603.562 11.7813 591.931 75.966C580.3 140.151 361.838 195.115 256.63 153.721C151.423 112.327 340.355 -22.8821 471.064 157.975C601.773 338.832 343.279 239.11 312.256 207.357C281.232 175.604 246.62 132.603 258.09 95.997C269.561 59.3906 397.821 136.902 378.286 389.372" stroke="#C3BCC9" stroke-opacity="0.43" stroke-width="5"/>
</g>
<g clip-path="url(#clip0_92_3212)">
<path d="M155.635 115.201L152.884 130.785H157.284L160.038 115.201H155.635Z" fill="white"/>
<path d="M149.197 115.218L144.887 125.846L144.427 124.241C143.577 122.308 141.164 119.531 138.331 117.781L142.272 130.777L146.928 130.77L153.859 115.215L149.197 115.218Z" fill="white"/>
<path d="M142.754 116.328C142.498 115.379 141.757 115.096 140.837 115.062H134.014L133.958 115.372C139.267 116.616 142.78 119.611 144.238 123.212L142.754 116.328Z" fill="white"/>
<path d="M168.954 118.186C170.394 118.164 171.437 118.468 172.248 118.782L172.645 118.962L173.24 115.585C172.369 115.269 171.003 114.93 169.298 114.93C164.95 114.93 161.885 117.044 161.861 120.073C161.832 122.312 164.044 123.561 165.715 124.307C167.429 125.072 168.004 125.558 167.996 126.241C167.983 127.284 166.629 127.763 165.365 127.763C163.603 127.763 162.667 127.528 161.221 126.947L160.654 126.698L160.035 130.186C161.065 130.621 162.965 130.996 164.938 131.016C169.564 131.016 172.57 128.927 172.602 125.69C172.621 123.92 171.447 122.568 168.904 121.46C167.365 120.736 166.423 120.256 166.432 119.526C166.432 118.878 167.231 118.186 168.954 118.186Z" fill="white"/>
<path d="M184.536 115.218H181.136C180.08 115.218 179.295 115.496 178.831 116.511L172.297 130.793H176.918C176.918 130.793 177.672 128.873 177.843 128.452C178.349 128.452 182.839 128.459 183.478 128.459C183.609 129.003 184.015 130.793 184.015 130.793H188.097L184.536 115.218ZM179.109 125.263C179.472 124.368 180.863 120.907 180.863 120.907C180.839 120.95 181.221 120.006 181.449 119.419L181.745 120.763C181.745 120.763 182.589 124.484 182.765 125.263H179.109Z" fill="white"/>
</g>
<rect x="134.734" y="191.104" width="19.1956" height="28.9994" rx="9.59782" transform="rotate(-90 134.734 191.104)" fill="url(#pattern0_92_3212)" stroke="#94A2AD" stroke-width="1.55978"/>
<g clip-path="url(#clip1_92_3212)">
<path d="M400.408 120.791C400.663 121.098 400.854 121.466 400.981 121.835C401.109 122.204 401.172 122.634 401.172 123.064C401.172 123.494 401.109 123.924 400.981 124.293C400.854 124.662 400.663 125.03 400.408 125.338C400.09 125.768 400.154 126.382 400.599 126.689C401.045 126.997 401.682 126.935 402 126.505C402.382 126.013 402.637 125.522 402.891 124.907C403.146 124.293 403.21 123.679 403.21 123.064C403.21 122.45 403.082 121.835 402.891 121.221C402.7 120.668 402.382 120.115 402 119.623C401.682 119.193 401.045 119.131 400.599 119.439C400.154 119.746 400.09 120.36 400.408 120.791Z" fill="white"/>
<path d="M403.91 119.009C404.674 120.176 405.12 121.589 405.12 123.064C405.12 124.539 404.674 125.952 403.91 127.12C403.592 127.55 403.783 128.164 404.228 128.471C404.738 128.779 405.311 128.594 405.629 128.164C406.584 126.689 407.157 124.969 407.157 123.064C407.157 121.221 406.584 119.439 405.629 117.964C405.311 117.534 404.674 117.349 404.228 117.657C403.783 117.964 403.592 118.517 403.91 119.009Z" fill="white"/>
<path d="M407.603 117.165C408.685 118.886 409.258 120.913 409.258 123.064C409.258 125.215 408.621 127.242 407.603 128.963C407.348 129.455 407.475 130.008 407.985 130.315C408.494 130.561 409.067 130.438 409.385 129.946C410.658 127.918 411.359 125.583 411.359 123.064C411.359 120.545 410.658 118.21 409.385 116.182C409.131 115.69 408.494 115.568 407.985 115.813C407.475 116.121 407.348 116.674 407.603 117.165Z" fill="white"/>
<path d="M411.295 115.322C412.632 117.595 413.46 120.237 413.46 123.064C413.46 125.891 412.696 128.533 411.295 130.806C411.04 131.298 411.168 131.851 411.677 132.158C412.186 132.404 412.759 132.281 413.078 131.79C414.606 129.209 415.497 126.259 415.497 123.064C415.497 119.869 414.606 116.919 413.078 114.339C412.823 113.847 412.186 113.724 411.677 113.97C411.168 114.216 411.04 114.83 411.295 115.322Z" fill="white"/>
</g>
</g>
<defs>











<linearGradient id="paint0_linear_92_3212" x1="276.001" y1="75" x2="276.001" y2="276" gradientUnits="userSpaceOnUse">
<stop stop-color="#EDFC74"/>
<stop offset="1" stop-color="#F5FFA8"/>
</linearGradient>
<clipPath id="clip0_92_3212">
<rect x="133.955" y="96.8476" width="54.1396" height="52.2534" rx="26.1267" fill="white"/>
</clipPath>
<clipPath id="clip1_92_3212">
<rect x="397.672" y="113.232" width="20.3728" height="19.663" rx="9.83152" fill="white"/>
</clipPath>

</defs>
</svg>