<svg xmlns="http://www.w3.org/2000/svg" width="41" height="41" viewBox="0 0 41 41" fill="none">
<rect x="0.5" y="0.5" width="40" height="40" rx="11.5" fill="white" stroke="#E8ECF4"/>
<path d="M23.1573 13.3671C23.0654 13.2749 22.9562 13.2018 22.836 13.1519C22.7157 13.102 22.5869 13.0764 22.4567 13.0764C22.3265 13.0764 22.1976 13.102 22.0774 13.1519C21.9572 13.2018 21.848 13.2749 21.7561 13.3671L15.1773 19.9458C15.1039 20.0191 15.0457 20.1061 15.006 20.2018C14.9662 20.2976 14.9458 20.4003 14.9458 20.504C14.9458 20.6076 14.9662 20.7103 15.006 20.8061C15.0457 20.9018 15.1039 20.9888 15.1773 21.0621L21.7561 27.6408C22.144 28.0287 22.7694 28.0287 23.1573 27.6408C23.5452 27.2529 23.5452 26.6275 23.1573 26.2396L17.4257 20.5L23.1652 14.7604C23.5452 14.3804 23.5452 13.7471 23.1573 13.3671Z" fill="#1E232C" stroke="#1E232C" stroke-width="0.2"/>
</svg>