<svg xmlns="http://www.w3.org/2000/svg" width="310" height="40" viewBox="0 0 310 40" fill="none">
<path d="M0.48002 12V0.799999H4.18402C4.95735 0.799999 5.68269 0.946666 6.36002 1.24C7.03735 1.528 7.63202 1.93067 8.14402 2.448C8.65602 2.96 9.05602 3.55467 9.34402 4.232C9.63735 4.904 9.78402 5.62667 9.78402 6.4C9.78402 7.17333 9.63735 7.89867 9.34402 8.576C9.05602 9.248 8.65602 9.84267 8.14402 10.36C7.63202 10.872 7.03735 11.2747 6.36002 11.568C5.68269 11.856 4.95735 12 4.18402 12H0.48002ZM1.82402 10.656H4.18402C4.77069 10.656 5.32002 10.5467 5.83202 10.328C6.34935 10.104 6.80269 9.79733 7.19202 9.408C7.58135 9.01867 7.88535 8.568 8.10402 8.056C8.32802 7.53867 8.44002 6.98667 8.44002 6.4C8.44002 5.81333 8.32802 5.264 8.10402 4.752C7.88535 4.23467 7.57869 3.78133 7.18402 3.392C6.79469 3.00267 6.34402 2.69867 5.83202 2.48C5.32002 2.256 4.77069 2.144 4.18402 2.144H1.82402V10.656ZM14.6094 12.208C13.8734 12.208 13.2014 12.0187 12.5934 11.64C11.9907 11.2613 11.5081 10.7547 11.1454 10.12C10.7881 9.48 10.6094 8.77333 10.6094 8C10.6094 7.41333 10.7134 6.86667 10.9214 6.36C11.1294 5.848 11.4147 5.4 11.7774 5.016C12.1454 4.62667 12.5721 4.32267 13.0574 4.104C13.5427 3.88533 14.0601 3.776 14.6094 3.776C15.3454 3.776 16.0147 3.96533 16.6174 4.344C17.2254 4.72267 17.7081 5.232 18.0654 5.872C18.4281 6.512 18.6094 7.22133 18.6094 8C18.6094 8.58133 18.5054 9.12533 18.2974 9.632C18.0894 10.1387 17.8014 10.5867 17.4334 10.976C17.0707 11.36 16.6467 11.6613 16.1614 11.88C15.6814 12.0987 15.1641 12.208 14.6094 12.208ZM14.6094 10.864C15.1107 10.864 15.5614 10.7333 15.9614 10.472C16.3667 10.2053 16.6841 9.856 16.9134 9.424C17.1481 8.98667 17.2654 8.512 17.2654 8C17.2654 7.47733 17.1454 6.99733 16.9054 6.56C16.6707 6.12267 16.3534 5.77333 15.9534 5.512C15.5534 5.25067 15.1054 5.12 14.6094 5.12C14.1081 5.12 13.6574 5.25333 13.2574 5.52C12.8574 5.78133 12.5401 6.13067 12.3054 6.568C12.0707 7.00533 11.9534 7.48267 11.9534 8C11.9534 8.53333 12.0734 9.01867 12.3134 9.456C12.5534 9.888 12.8761 10.232 13.2814 10.488C13.6867 10.7387 14.1294 10.864 14.6094 10.864ZM27.0051 7.024V12H25.6611V7.32C25.6611 6.91467 25.5625 6.54667 25.3651 6.216C25.1678 5.88533 24.9038 5.624 24.5731 5.432C24.2425 5.23467 23.8745 5.136 23.4691 5.136C23.0691 5.136 22.7011 5.23467 22.3651 5.432C22.0345 5.624 21.7705 5.88533 21.5731 6.216C21.3758 6.54667 21.2771 6.91467 21.2771 7.32V12H19.9331V4H21.2771V5C21.5598 4.62667 21.9171 4.33067 22.3491 4.112C22.7811 3.888 23.2505 3.776 23.7571 3.776C24.3545 3.776 24.8985 3.92267 25.3891 4.216C25.8851 4.504 26.2771 4.89333 26.5651 5.384C26.8585 5.87467 27.0051 6.42133 27.0051 7.024ZM28.213 4.976V0.799999H29.197V4.976H28.213ZM34.874 5.344H33.058L33.05 12H31.706L31.714 5.344H30.338V4H31.714L31.706 1.488H33.05L33.058 4H34.874V5.344ZM43.7119 12H42.3519L39.6719 4H40.9839L43.0479 10.104L45.0879 4H46.4719L48.5199 10.104L50.5599 4H51.8879L49.2079 12H47.8399L45.7679 5.84L43.7119 12ZM56.3906 12.208C55.6546 12.208 54.9826 12.0187 54.3746 11.64C53.772 11.2613 53.2893 10.7547 52.9266 10.12C52.5693 9.48 52.3906 8.77333 52.3906 8C52.3906 7.41333 52.4946 6.86667 52.7026 6.36C52.9106 5.848 53.196 5.4 53.5586 5.016C53.9266 4.62667 54.3533 4.32267 54.8386 4.104C55.324 3.88533 55.8413 3.776 56.3906 3.776C57.1266 3.776 57.796 3.96533 58.3986 4.344C59.0066 4.72267 59.4893 5.232 59.8466 5.872C60.2093 6.512 60.3906 7.22133 60.3906 8C60.3906 8.58133 60.2866 9.12533 60.0786 9.632C59.8706 10.1387 59.5826 10.5867 59.2146 10.976C58.852 11.36 58.428 11.6613 57.9426 11.88C57.4626 12.0987 56.9453 12.208 56.3906 12.208ZM56.3906 10.864C56.892 10.864 57.3426 10.7333 57.7426 10.472C58.148 10.2053 58.4653 9.856 58.6946 9.424C58.9293 8.98667 59.0466 8.512 59.0466 8C59.0466 7.47733 58.9266 6.99733 58.6866 6.56C58.452 6.12267 58.1346 5.77333 57.7346 5.512C57.3346 5.25067 56.8866 5.12 56.3906 5.12C55.8893 5.12 55.4386 5.25333 55.0386 5.52C54.6386 5.78133 54.3213 6.13067 54.0866 6.568C53.852 7.00533 53.7346 7.48267 53.7346 8C53.7346 8.53333 53.8546 9.01867 54.0946 9.456C54.3346 9.888 54.6573 10.232 55.0626 10.488C55.468 10.7387 55.9106 10.864 56.3906 10.864ZM61.7144 12V4H63.0584V5C63.3411 4.62667 63.6984 4.33067 64.1304 4.112C64.5624 3.888 65.0317 3.776 65.5384 3.776C65.8477 3.776 66.1464 3.816 66.4344 3.896L65.8904 5.24C65.6717 5.17067 65.4584 5.136 65.2504 5.136C64.8504 5.136 64.4824 5.23467 64.1464 5.432C63.8157 5.624 63.5517 5.88533 63.3544 6.216C63.1571 6.54667 63.0584 6.91467 63.0584 7.32V12H61.7144ZM67.4488 12V4H68.7928V5C69.0754 4.62667 69.4328 4.33067 69.8648 4.112C70.2968 3.888 70.7661 3.776 71.2728 3.776C71.5821 3.776 71.8808 3.816 72.1688 3.896L71.6248 5.24C71.4061 5.17067 71.1928 5.136 70.9848 5.136C70.5848 5.136 70.2168 5.23467 69.8808 5.432C69.5501 5.624 69.2861 5.88533 69.0888 6.216C68.8914 6.54667 68.7928 6.91467 68.7928 7.32V12H67.4488ZM78.6319 4H80.0559L75.6799 16H74.2559L75.7039 12L72.8319 4H74.3039L76.3759 10.152L78.6319 4ZM81.4919 8.64V0.799999H82.6519V8.64H81.4919ZM82.0759 12.208C81.8679 12.208 81.6919 12.136 81.5479 11.992C81.4039 11.848 81.3319 11.672 81.3319 11.464C81.3319 11.2613 81.4039 11.0907 81.5479 10.952C81.6919 10.808 81.8679 10.736 82.0759 10.736C82.2732 10.736 82.4412 10.808 82.5799 10.952C82.7239 11.0907 82.7959 11.2613 82.7959 11.464C82.7959 11.672 82.7239 11.848 82.5799 11.992C82.4412 12.136 82.2732 12.208 82.0759 12.208ZM88.7981 12V0.799999H90.1421V12H88.7981ZM96.4521 5.344H94.6361L94.6281 12H93.2841L93.2921 5.344H91.9161V4H93.2921L93.2841 1.488H94.6281L94.6361 4H96.4521V5.344ZM105.25 12.208C104.514 12.208 103.842 12.0187 103.234 11.64C102.631 11.2613 102.149 10.7547 101.786 10.12C101.429 9.48 101.25 8.77333 101.25 8C101.25 7.41333 101.354 6.86667 101.562 6.36C101.77 5.848 102.055 5.4 102.418 5.016C102.786 4.62667 103.213 4.32267 103.698 4.104C104.183 3.88533 104.701 3.776 105.25 3.776C105.986 3.776 106.655 3.96533 107.258 4.344C107.866 4.72267 108.349 5.232 108.706 5.872C109.069 6.512 109.25 7.22133 109.25 8C109.25 8.58133 109.146 9.12533 108.938 9.632C108.73 10.1387 108.442 10.5867 108.074 10.976C107.711 11.36 107.287 11.6613 106.802 11.88C106.322 12.0987 105.805 12.208 105.25 12.208ZM105.25 10.864C105.751 10.864 106.202 10.7333 106.602 10.472C107.007 10.2053 107.325 9.856 107.554 9.424C107.789 8.98667 107.906 8.512 107.906 8C107.906 7.47733 107.786 6.99733 107.546 6.56C107.311 6.12267 106.994 5.77333 106.594 5.512C106.194 5.25067 105.746 5.12 105.25 5.12C104.749 5.12 104.298 5.25333 103.898 5.52C103.498 5.78133 103.181 6.13067 102.946 6.568C102.711 7.00533 102.594 7.48267 102.594 8C102.594 8.53333 102.714 9.01867 102.954 9.456C103.194 9.888 103.517 10.232 103.922 10.488C104.327 10.7387 104.77 10.864 105.25 10.864ZM116.039 9.888L117.239 10.536C116.876 11.0427 116.415 11.448 115.855 11.752C115.3 12.056 114.698 12.208 114.047 12.208C113.311 12.208 112.639 12.0187 112.031 11.64C111.428 11.2613 110.946 10.7547 110.583 10.12C110.226 9.48 110.047 8.77333 110.047 8C110.047 7.41333 110.151 6.86667 110.359 6.36C110.567 5.848 110.852 5.4 111.215 5.016C111.583 4.62667 112.01 4.32267 112.495 4.104C112.98 3.88533 113.498 3.776 114.047 3.776C114.698 3.776 115.3 3.928 115.855 4.232C116.415 4.536 116.876 4.944 117.239 5.456L116.039 6.104C115.783 5.78933 115.479 5.54667 115.127 5.376C114.775 5.20533 114.415 5.12 114.047 5.12C113.551 5.12 113.1 5.25333 112.695 5.52C112.295 5.78133 111.978 6.13067 111.743 6.568C111.508 7.00533 111.391 7.48267 111.391 8C111.391 8.51733 111.508 8.99467 111.743 9.432C111.983 9.864 112.303 10.2107 112.703 10.472C113.108 10.7333 113.556 10.864 114.047 10.864C114.442 10.864 114.812 10.7733 115.159 10.592C115.506 10.4107 115.799 10.176 116.039 9.888ZM124.055 9.888L125.255 10.536C124.892 11.0427 124.431 11.448 123.871 11.752C123.316 12.056 122.713 12.208 122.063 12.208C121.327 12.208 120.655 12.0187 120.047 11.64C119.444 11.2613 118.961 10.7547 118.599 10.12C118.241 9.48 118.063 8.77333 118.063 8C118.063 7.41333 118.167 6.86667 118.375 6.36C118.583 5.848 118.868 5.4 119.231 5.016C119.599 4.62667 120.025 4.32267 120.511 4.104C120.996 3.88533 121.513 3.776 122.063 3.776C122.713 3.776 123.316 3.928 123.871 4.232C124.431 4.536 124.892 4.944 125.255 5.456L124.055 6.104C123.799 5.78933 123.495 5.54667 123.143 5.376C122.791 5.20533 122.431 5.12 122.063 5.12C121.567 5.12 121.116 5.25333 120.711 5.52C120.311 5.78133 119.993 6.13067 119.759 6.568C119.524 7.00533 119.407 7.48267 119.407 8C119.407 8.51733 119.524 8.99467 119.759 9.432C119.999 9.864 120.319 10.2107 120.719 10.472C121.124 10.7333 121.572 10.864 122.063 10.864C122.457 10.864 122.828 10.7733 123.175 10.592C123.521 10.4107 123.815 10.176 124.055 9.888ZM126.269 8.96V4H127.613V8.664C127.613 9.06933 127.712 9.43733 127.909 9.768C128.107 10.0987 128.371 10.3627 128.701 10.56C129.037 10.752 129.405 10.848 129.805 10.848C130.211 10.848 130.576 10.752 130.901 10.56C131.232 10.3627 131.496 10.0987 131.693 9.768C131.891 9.43733 131.989 9.06933 131.989 8.664V4H133.333L133.341 12H131.997L131.989 10.984C131.707 11.3573 131.349 11.656 130.917 11.88C130.485 12.0987 130.019 12.208 129.517 12.208C128.92 12.208 128.373 12.064 127.877 11.776C127.387 11.4827 126.995 11.0907 126.701 10.6C126.413 10.1093 126.269 9.56267 126.269 8.96ZM134.949 12V4H136.293V5C136.575 4.62667 136.933 4.33067 137.365 4.112C137.797 3.888 138.266 3.776 138.773 3.776C139.082 3.776 139.381 3.816 139.669 3.896L139.125 5.24C138.906 5.17067 138.693 5.136 138.485 5.136C138.085 5.136 137.717 5.23467 137.381 5.432C137.05 5.624 136.786 5.88533 136.589 6.216C136.391 6.54667 136.293 6.91467 136.293 7.32V12H134.949ZM143.092 12.152C142.66 12.136 142.239 12.056 141.828 11.912C141.423 11.7627 141.065 11.5627 140.756 11.312C140.452 11.056 140.231 10.7627 140.092 10.432L141.244 9.936C141.324 10.1173 141.468 10.288 141.676 10.448C141.884 10.608 142.124 10.736 142.396 10.832C142.668 10.928 142.943 10.976 143.22 10.976C143.513 10.976 143.788 10.9307 144.044 10.84C144.3 10.7493 144.508 10.616 144.668 10.44C144.833 10.2587 144.916 10.0427 144.916 9.792C144.916 9.52533 144.825 9.31733 144.644 9.168C144.468 9.01333 144.244 8.89333 143.972 8.808C143.705 8.71733 143.433 8.632 143.156 8.552C142.607 8.41333 142.116 8.248 141.684 8.056C141.252 7.85867 140.911 7.61067 140.66 7.312C140.415 7.008 140.292 6.62133 140.292 6.152C140.292 5.656 140.428 5.22667 140.7 4.864C140.977 4.50133 141.34 4.22133 141.788 4.024C142.236 3.82667 142.716 3.728 143.228 3.728C143.873 3.728 144.463 3.86667 144.996 4.144C145.529 4.42133 145.927 4.79733 146.188 5.272L145.108 5.904C145.017 5.712 144.879 5.544 144.692 5.4C144.505 5.25067 144.292 5.13333 144.052 5.048C143.812 4.96267 143.567 4.91733 143.316 4.912C143.007 4.90133 142.716 4.94133 142.444 5.032C142.177 5.12267 141.961 5.26133 141.796 5.448C141.636 5.62933 141.556 5.856 141.556 6.128C141.556 6.39467 141.641 6.59733 141.812 6.736C141.988 6.87467 142.215 6.98667 142.492 7.072C142.775 7.152 143.081 7.24533 143.412 7.352C143.897 7.50667 144.351 7.68533 144.772 7.888C145.193 8.09067 145.532 8.344 145.788 8.648C146.049 8.952 146.177 9.328 146.172 9.776C146.172 10.2667 146.025 10.696 145.732 11.064C145.439 11.4267 145.057 11.704 144.588 11.896C144.124 12.088 143.625 12.1733 143.092 12.152ZM147.904 12.208C147.701 12.208 147.528 12.136 147.384 11.992C147.245 11.848 147.176 11.672 147.176 11.464C147.176 11.2667 147.245 11.096 147.384 10.952C147.528 10.808 147.701 10.736 147.904 10.736C148.112 10.736 148.288 10.808 148.432 10.952C148.576 11.096 148.648 11.2667 148.648 11.464C148.648 11.672 148.576 11.848 148.432 11.992C148.288 12.136 148.112 12.208 147.904 12.208ZM154.418 12V0.799999H158.114C158.716 0.799999 159.258 0.946666 159.738 1.24C160.223 1.53333 160.607 1.93067 160.89 2.432C161.178 2.928 161.322 3.48267 161.322 4.096C161.322 4.72 161.175 5.28267 160.882 5.784C160.594 6.28 160.204 6.67467 159.714 6.968C159.228 7.256 158.695 7.4 158.114 7.4H155.762V12H154.418ZM155.762 6.056H157.994C158.356 6.056 158.687 5.968 158.986 5.792C159.29 5.61067 159.53 5.368 159.706 5.064C159.887 4.75467 159.978 4.408 159.978 4.024C159.978 3.63467 159.887 3.288 159.706 2.984C159.53 2.67467 159.29 2.432 158.986 2.256C158.687 2.07467 158.356 1.984 157.994 1.984H155.762V6.056ZM162.902 12V-9.53674e-07H164.246V12H162.902ZM169.609 12.208C168.873 12.208 168.201 12.0187 167.593 11.64C166.991 11.2613 166.508 10.7547 166.145 10.12C165.788 9.48 165.609 8.77333 165.609 8C165.609 7.41333 165.713 6.86667 165.921 6.36C166.129 5.848 166.415 5.4 166.777 5.016C167.145 4.62667 167.572 4.32267 168.057 4.104C168.543 3.88533 169.06 3.776 169.609 3.776C170.212 3.776 170.764 3.89867 171.265 4.144C171.772 4.384 172.204 4.72 172.561 5.152C172.924 5.584 173.193 6.08533 173.369 6.656C173.551 7.22667 173.617 7.83733 173.569 8.488H167.041C167.105 8.94133 167.255 9.34667 167.489 9.704C167.724 10.056 168.023 10.336 168.385 10.544C168.753 10.752 169.161 10.8587 169.609 10.864C170.089 10.864 170.524 10.7413 170.913 10.496C171.303 10.2453 171.617 9.904 171.857 9.472L173.225 9.792C172.905 10.5013 172.423 11.0827 171.777 11.536C171.132 11.984 170.409 12.208 169.609 12.208ZM167.001 7.432H172.217C172.175 6.984 172.031 6.576 171.785 6.208C171.54 5.83467 171.228 5.536 170.849 5.312C170.471 5.088 170.057 4.976 169.609 4.976C169.161 4.976 168.751 5.08533 168.377 5.304C168.004 5.52267 167.695 5.81867 167.449 6.192C167.209 6.56 167.06 6.97333 167.001 7.432ZM181.303 4H182.647V12H181.303L181.247 10.648C180.996 11.112 180.649 11.488 180.207 11.776C179.769 12.064 179.247 12.208 178.639 12.208C178.052 12.208 177.503 12.0987 176.991 11.88C176.479 11.656 176.025 11.3493 175.631 10.96C175.241 10.5653 174.937 10.112 174.719 9.6C174.5 9.088 174.391 8.536 174.391 7.944C174.391 7.37333 174.497 6.83467 174.711 6.328C174.924 5.82133 175.22 5.37867 175.599 5C175.983 4.616 176.425 4.31733 176.927 4.104C177.428 3.88533 177.967 3.776 178.543 3.776C179.172 3.776 179.724 3.92533 180.199 4.224C180.673 4.51733 181.057 4.89867 181.351 5.368L181.303 4ZM178.615 10.904C179.143 10.904 179.599 10.776 179.983 10.52C180.372 10.2587 180.671 9.90667 180.879 9.464C181.092 9.02133 181.199 8.53333 181.199 8C181.199 7.456 181.092 6.96533 180.879 6.528C180.665 6.08533 180.364 5.736 179.975 5.48C179.591 5.21867 179.137 5.088 178.615 5.088C178.087 5.088 177.607 5.21867 177.175 5.48C176.743 5.74133 176.399 6.09333 176.143 6.536C175.892 6.97333 175.767 7.46133 175.767 8C175.767 8.53867 175.897 9.02933 176.159 9.472C176.42 9.90933 176.767 10.2587 177.199 10.52C177.631 10.776 178.103 10.904 178.615 10.904ZM186.686 12.152C186.254 12.136 185.832 12.056 185.422 11.912C185.016 11.7627 184.659 11.5627 184.35 11.312C184.046 11.056 183.824 10.7627 183.686 10.432L184.838 9.936C184.918 10.1173 185.062 10.288 185.27 10.448C185.478 10.608 185.718 10.736 185.99 10.832C186.262 10.928 186.536 10.976 186.814 10.976C187.107 10.976 187.382 10.9307 187.638 10.84C187.894 10.7493 188.102 10.616 188.262 10.44C188.427 10.2587 188.51 10.0427 188.51 9.792C188.51 9.52533 188.419 9.31733 188.238 9.168C188.062 9.01333 187.838 8.89333 187.566 8.808C187.299 8.71733 187.027 8.632 186.75 8.552C186.2 8.41333 185.71 8.248 185.278 8.056C184.846 7.85867 184.504 7.61067 184.254 7.312C184.008 7.008 183.886 6.62133 183.886 6.152C183.886 5.656 184.022 5.22667 184.294 4.864C184.571 4.50133 184.934 4.22133 185.382 4.024C185.83 3.82667 186.31 3.728 186.822 3.728C187.467 3.728 188.056 3.86667 188.59 4.144C189.123 4.42133 189.52 4.79733 189.782 5.272L188.702 5.904C188.611 5.712 188.472 5.544 188.286 5.4C188.099 5.25067 187.886 5.13333 187.646 5.048C187.406 4.96267 187.16 4.91733 186.91 4.912C186.6 4.90133 186.31 4.94133 186.038 5.032C185.771 5.12267 185.555 5.26133 185.39 5.448C185.23 5.62933 185.15 5.856 185.15 6.128C185.15 6.39467 185.235 6.59733 185.406 6.736C185.582 6.87467 185.808 6.98667 186.086 7.072C186.368 7.152 186.675 7.24533 187.006 7.352C187.491 7.50667 187.944 7.68533 188.366 7.888C188.787 8.09067 189.126 8.344 189.382 8.648C189.643 8.952 189.771 9.328 189.766 9.776C189.766 10.2667 189.619 10.696 189.326 11.064C189.032 11.4267 188.651 11.704 188.182 11.896C187.718 12.088 187.219 12.1733 186.686 12.152ZM194.578 12.208C193.842 12.208 193.17 12.0187 192.562 11.64C191.959 11.2613 191.477 10.7547 191.114 10.12C190.757 9.48 190.578 8.77333 190.578 8C190.578 7.41333 190.682 6.86667 190.89 6.36C191.098 5.848 191.383 5.4 191.746 5.016C192.114 4.62667 192.541 4.32267 193.026 4.104C193.511 3.88533 194.029 3.776 194.578 3.776C195.181 3.776 195.733 3.89867 196.234 4.144C196.741 4.384 197.173 4.72 197.53 5.152C197.893 5.584 198.162 6.08533 198.338 6.656C198.519 7.22667 198.586 7.83733 198.538 8.488H192.01C192.074 8.94133 192.223 9.34667 192.458 9.704C192.693 10.056 192.991 10.336 193.354 10.544C193.722 10.752 194.13 10.8587 194.578 10.864C195.058 10.864 195.493 10.7413 195.882 10.496C196.271 10.2453 196.586 9.904 196.826 9.472L198.194 9.792C197.874 10.5013 197.391 11.0827 196.746 11.536C196.101 11.984 195.378 12.208 194.578 12.208ZM191.97 7.432H197.186C197.143 6.984 196.999 6.576 196.754 6.208C196.509 5.83467 196.197 5.536 195.818 5.312C195.439 5.088 195.026 4.976 194.578 4.976C194.13 4.976 193.719 5.08533 193.346 5.304C192.973 5.52267 192.663 5.81867 192.418 6.192C192.178 6.56 192.029 6.97333 191.97 7.432ZM207.359 12.208C206.623 12.208 205.951 12.0187 205.343 11.64C204.741 11.2613 204.258 10.7547 203.895 10.12C203.538 9.48 203.359 8.77333 203.359 8C203.359 7.41333 203.463 6.86667 203.671 6.36C203.879 5.848 204.165 5.4 204.527 5.016C204.895 4.62667 205.322 4.32267 205.807 4.104C206.293 3.88533 206.81 3.776 207.359 3.776C207.962 3.776 208.514 3.89867 209.015 4.144C209.522 4.384 209.954 4.72 210.311 5.152C210.674 5.584 210.943 6.08533 211.119 6.656C211.301 7.22667 211.367 7.83733 211.319 8.488H204.791C204.855 8.94133 205.005 9.34667 205.239 9.704C205.474 10.056 205.773 10.336 206.135 10.544C206.503 10.752 206.911 10.8587 207.359 10.864C207.839 10.864 208.274 10.7413 208.663 10.496C209.053 10.2453 209.367 9.904 209.607 9.472L210.975 9.792C210.655 10.5013 210.173 11.0827 209.527 11.536C208.882 11.984 208.159 12.208 207.359 12.208ZM204.751 7.432H209.967C209.925 6.984 209.781 6.576 209.535 6.208C209.29 5.83467 208.978 5.536 208.599 5.312C208.221 5.088 207.807 4.976 207.359 4.976C206.911 4.976 206.501 5.08533 206.127 5.304C205.754 5.52267 205.445 5.81867 205.199 6.192C204.959 6.56 204.81 6.97333 204.751 7.432ZM219.74 7.024V12H218.396V7.32C218.396 6.91467 218.297 6.54667 218.1 6.216C217.902 5.88533 217.638 5.624 217.308 5.432C216.977 5.23467 216.609 5.136 216.204 5.136C215.804 5.136 215.436 5.23467 215.1 5.432C214.769 5.624 214.505 5.88533 214.308 6.216C214.11 6.54667 214.012 6.91467 214.012 7.32V12H212.668V4H214.012V5C214.294 4.62667 214.652 4.33067 215.084 4.112C215.516 3.888 215.985 3.776 216.492 3.776C217.089 3.776 217.633 3.92267 218.124 4.216C218.62 4.504 219.012 4.89333 219.3 5.384C219.593 5.87467 219.74 6.42133 219.74 7.024ZM225.483 5.344H223.667L223.659 12H222.315L222.323 5.344H220.947V4H222.323L222.315 1.488H223.659L223.667 4H225.483V5.344ZM230.234 12.208C229.498 12.208 228.826 12.0187 228.218 11.64C227.616 11.2613 227.133 10.7547 226.77 10.12C226.413 9.48 226.234 8.77333 226.234 8C226.234 7.41333 226.338 6.86667 226.546 6.36C226.754 5.848 227.04 5.4 227.402 5.016C227.77 4.62667 228.197 4.32267 228.682 4.104C229.168 3.88533 229.685 3.776 230.234 3.776C230.837 3.776 231.389 3.89867 231.89 4.144C232.397 4.384 232.829 4.72 233.186 5.152C233.549 5.584 233.818 6.08533 233.994 6.656C234.176 7.22667 234.242 7.83733 234.194 8.488H227.666C227.73 8.94133 227.88 9.34667 228.114 9.704C228.349 10.056 228.648 10.336 229.01 10.544C229.378 10.752 229.786 10.8587 230.234 10.864C230.714 10.864 231.149 10.7413 231.538 10.496C231.928 10.2453 232.242 9.904 232.482 9.472L233.85 9.792C233.53 10.5013 233.048 11.0827 232.402 11.536C231.757 11.984 231.034 12.208 230.234 12.208ZM227.626 7.432H232.842C232.8 6.984 232.656 6.576 232.41 6.208C232.165 5.83467 231.853 5.536 231.474 5.312C231.096 5.088 230.682 4.976 230.234 4.976C229.786 4.976 229.376 5.08533 229.002 5.304C228.629 5.52267 228.32 5.81867 228.074 6.192C227.834 6.56 227.685 6.97333 227.626 7.432ZM235.543 12V4H236.887V5C237.169 4.62667 237.527 4.33067 237.959 4.112C238.391 3.888 238.86 3.776 239.367 3.776C239.676 3.776 239.975 3.816 240.263 3.896L239.719 5.24C239.5 5.17067 239.287 5.136 239.079 5.136C238.679 5.136 238.311 5.23467 237.975 5.432C237.644 5.624 237.38 5.88533 237.183 6.216C236.985 6.54667 236.887 6.91467 236.887 7.32V12H235.543ZM249.374 5.344H247.558L247.55 12H246.206L246.214 5.344H244.838V4H246.214L246.206 1.488H247.55L247.558 4H249.374V5.344ZM257.88 7.024V12H256.536V7.32C256.536 6.91467 256.437 6.54667 256.24 6.216C256.043 5.88533 255.779 5.624 255.448 5.432C255.117 5.23467 254.749 5.136 254.344 5.136C253.944 5.136 253.576 5.23467 253.24 5.432C252.909 5.624 252.645 5.88533 252.448 6.216C252.251 6.54667 252.152 6.91467 252.152 7.32V12H250.808V-9.53674e-07H252.152V5C252.435 4.62667 252.792 4.33067 253.224 4.112C253.656 3.888 254.125 3.776 254.632 3.776C255.229 3.776 255.773 3.92267 256.264 4.216C256.76 4.504 257.152 4.89333 257.44 5.384C257.733 5.87467 257.88 6.42133 257.88 7.024ZM262.844 12.208C262.108 12.208 261.436 12.0187 260.828 11.64C260.225 11.2613 259.742 10.7547 259.38 10.12C259.022 9.48 258.844 8.77333 258.844 8C258.844 7.41333 258.948 6.86667 259.156 6.36C259.364 5.848 259.649 5.4 260.012 5.016C260.38 4.62667 260.806 4.32267 261.292 4.104C261.777 3.88533 262.294 3.776 262.844 3.776C263.446 3.776 263.998 3.89867 264.5 4.144C265.006 4.384 265.438 4.72 265.796 5.152C266.158 5.584 266.428 6.08533 266.604 6.656C266.785 7.22667 266.852 7.83733 266.804 8.488H260.276C260.34 8.94133 260.489 9.34667 260.724 9.704C260.958 10.056 261.257 10.336 261.62 10.544C261.988 10.752 262.396 10.8587 262.844 10.864C263.324 10.864 263.758 10.7413 264.148 10.496C264.537 10.2453 264.852 9.904 265.092 9.472L266.46 9.792C266.14 10.5013 265.657 11.0827 265.012 11.536C264.366 11.984 263.644 12.208 262.844 12.208ZM260.236 7.432H265.452C265.409 6.984 265.265 6.576 265.02 6.208C264.774 5.83467 264.462 5.536 264.084 5.312C263.705 5.088 263.292 4.976 262.844 4.976C262.396 4.976 261.985 5.08533 261.612 5.304C261.238 5.52267 260.929 5.81867 260.684 6.192C260.444 6.56 260.294 6.97333 260.236 7.432ZM275.625 12.208C274.889 12.208 274.217 12.0187 273.609 11.64C273.006 11.2613 272.524 10.7547 272.161 10.12C271.804 9.48 271.625 8.77333 271.625 8C271.625 7.41333 271.729 6.86667 271.937 6.36C272.145 5.848 272.43 5.4 272.793 5.016C273.161 4.62667 273.588 4.32267 274.073 4.104C274.558 3.88533 275.076 3.776 275.625 3.776C276.228 3.776 276.78 3.89867 277.281 4.144C277.788 4.384 278.22 4.72 278.577 5.152C278.94 5.584 279.209 6.08533 279.385 6.656C279.566 7.22667 279.633 7.83733 279.585 8.488H273.057C273.121 8.94133 273.27 9.34667 273.505 9.704C273.74 10.056 274.038 10.336 274.401 10.544C274.769 10.752 275.177 10.8587 275.625 10.864C276.105 10.864 276.54 10.7413 276.929 10.496C277.318 10.2453 277.633 9.904 277.873 9.472L279.241 9.792C278.921 10.5013 278.438 11.0827 277.793 11.536C277.148 11.984 276.425 12.208 275.625 12.208ZM273.017 7.432H278.233C278.19 6.984 278.046 6.576 277.801 6.208C277.556 5.83467 277.244 5.536 276.865 5.312C276.486 5.088 276.073 4.976 275.625 4.976C275.177 4.976 274.766 5.08533 274.393 5.304C274.02 5.52267 273.71 5.81867 273.465 6.192C273.225 6.56 273.076 6.97333 273.017 7.432ZM280.933 12V4H282.277V5C282.56 4.62667 282.914 4.33067 283.341 4.112C283.773 3.888 284.242 3.776 284.749 3.776C285.341 3.776 285.882 3.92 286.373 4.208C286.864 4.496 287.25 4.87733 287.533 5.352C287.816 4.87733 288.2 4.496 288.685 4.208C289.176 3.92 289.714 3.776 290.301 3.776C290.904 3.776 291.45 3.92267 291.941 4.216C292.432 4.504 292.821 4.89333 293.109 5.384C293.402 5.87467 293.549 6.42133 293.549 7.024V12H292.205V7.344C292.205 6.94933 292.109 6.584 291.917 6.248C291.725 5.912 291.466 5.64267 291.141 5.44C290.816 5.23733 290.456 5.136 290.061 5.136C289.666 5.136 289.306 5.232 288.981 5.424C288.656 5.61067 288.397 5.872 288.205 6.208C288.013 6.53867 287.917 6.91733 287.917 7.344V12H286.573V7.344C286.573 6.91733 286.477 6.53867 286.285 6.208C286.093 5.872 285.832 5.61067 285.501 5.424C285.176 5.232 284.816 5.136 284.421 5.136C284.032 5.136 283.672 5.23733 283.341 5.44C283.016 5.64267 282.757 5.912 282.565 6.248C282.373 6.584 282.277 6.94933 282.277 7.344V12H280.933ZM301.428 4H302.772V12H301.428L301.372 10.648C301.121 11.112 300.774 11.488 300.332 11.776C299.894 12.064 299.372 12.208 298.764 12.208C298.177 12.208 297.628 12.0987 297.116 11.88C296.604 11.656 296.15 11.3493 295.756 10.96C295.366 10.5653 295.062 10.112 294.844 9.6C294.625 9.088 294.516 8.536 294.516 7.944C294.516 7.37333 294.622 6.83467 294.836 6.328C295.049 5.82133 295.345 5.37867 295.724 5C296.108 4.616 296.55 4.31733 297.052 4.104C297.553 3.88533 298.092 3.776 298.668 3.776C299.297 3.776 299.849 3.92533 300.324 4.224C300.798 4.51733 301.182 4.89867 301.476 5.368L301.428 4ZM298.74 10.904C299.268 10.904 299.724 10.776 300.108 10.52C300.497 10.2587 300.796 9.90667 301.004 9.464C301.217 9.02133 301.324 8.53333 301.324 8C301.324 7.456 301.217 6.96533 301.004 6.528C300.79 6.08533 300.489 5.736 300.1 5.48C299.716 5.21867 299.262 5.088 298.74 5.088C298.212 5.088 297.732 5.21867 297.3 5.48C296.868 5.74133 296.524 6.09333 296.268 6.536C296.017 6.97333 295.892 7.46133 295.892 8C295.892 8.53867 296.022 9.02933 296.284 9.472C296.545 9.90933 296.892 10.2587 297.324 10.52C297.756 10.776 298.228 10.904 298.74 10.904ZM304.371 4H305.715V12H304.371V4ZM305.059 2.696C304.845 2.696 304.667 2.62667 304.523 2.488C304.379 2.34933 304.307 2.176 304.307 1.968C304.307 1.76 304.379 1.58667 304.523 1.448C304.667 1.30933 304.843 1.24 305.051 1.24C305.259 1.24 305.435 1.30933 305.579 1.448C305.723 1.58667 305.795 1.76 305.795 1.968C305.795 2.176 305.723 2.34933 305.579 2.488C305.44 2.62667 305.267 2.696 305.059 2.696ZM307.683 12V-9.53674e-07H309.027V12H307.683ZM6.91202 28H8.25602V36H6.91202L6.85602 34.648C6.60535 35.112 6.25869 35.488 5.81602 35.776C5.37869 36.064 4.85602 36.208 4.24802 36.208C3.66135 36.208 3.11202 36.0987 2.60002 35.88C2.08802 35.656 1.63469 35.3493 1.24002 34.96C0.850686 34.5653 0.546686 34.112 0.32802 33.6C0.109353 33.088 1.95503e-05 32.536 1.95503e-05 31.944C1.95503e-05 31.3733 0.106686 30.8347 0.32002 30.328C0.533353 29.8213 0.829353 29.3787 1.20802 29C1.59202 28.616 2.03469 28.3173 2.53602 28.104C3.03735 27.8853 3.57602 27.776 4.15202 27.776C4.78135 27.776 5.33335 27.9253 5.80802 28.224C6.28269 28.5173 6.66669 28.8987 6.96002 29.368L6.91202 28ZM4.22402 34.904C4.75202 34.904 5.20802 34.776 5.59202 34.52C5.98135 34.2587 6.28002 33.9067 6.48802 33.464C6.70135 33.0213 6.80802 32.5333 6.80802 32C6.80802 31.456 6.70135 30.9653 6.48802 30.528C6.27469 30.0853 5.97335 29.736 5.58402 29.48C5.20002 29.2187 4.74669 29.088 4.22402 29.088C3.69602 29.088 3.21602 29.2187 2.78402 29.48C2.35202 29.7413 2.00802 30.0933 1.75202 30.536C1.50135 30.9733 1.37602 31.4613 1.37602 32C1.37602 32.5387 1.50669 33.0293 1.76802 33.472C2.02935 33.9093 2.37602 34.2587 2.80802 34.52C3.24002 34.776 3.71202 34.904 4.22402 34.904ZM16.1388 24H17.4828V36H16.1388V34.64C15.8668 35.1093 15.5014 35.488 15.0428 35.776C14.5841 36.064 14.0454 36.208 13.4268 36.208C12.8454 36.208 12.3014 36.0987 11.7948 35.88C11.2881 35.6613 10.8401 35.36 10.4508 34.976C10.0668 34.5867 9.76544 34.1387 9.54677 33.632C9.3281 33.1253 9.21877 32.5813 9.21877 32C9.21877 31.4187 9.3281 30.8747 9.54677 30.368C9.76544 29.856 10.0668 29.408 10.4508 29.024C10.8401 28.6347 11.2881 28.3307 11.7948 28.112C12.3014 27.8933 12.8454 27.784 13.4268 27.784C14.0454 27.784 14.5841 27.928 15.0428 28.216C15.5014 28.504 15.8668 28.8827 16.1388 29.352V24ZM13.4428 34.904C13.9708 34.904 14.4268 34.776 14.8108 34.52C15.2001 34.2587 15.4988 33.9067 15.7068 33.464C15.9201 33.0213 16.0268 32.5333 16.0268 32C16.0268 31.456 15.9201 30.9653 15.7068 30.528C15.4934 30.0853 15.1921 29.736 14.8028 29.48C14.4188 29.2187 13.9654 29.088 13.4428 29.088C12.9148 29.088 12.4348 29.2187 12.0028 29.48C11.5761 29.7413 11.2348 30.0933 10.9788 30.536C10.7228 30.9733 10.5948 31.4613 10.5948 32C10.5948 32.5387 10.7254 33.0293 10.9868 33.472C11.2481 33.9093 11.5948 34.2587 12.0268 34.52C12.4588 34.776 12.9308 34.904 13.4428 34.904ZM25.7638 24H27.1078V36H25.7638V34.64C25.4918 35.1093 25.1264 35.488 24.6678 35.776C24.2091 36.064 23.6704 36.208 23.0518 36.208C22.4704 36.208 21.9264 36.0987 21.4198 35.88C20.9131 35.6613 20.4651 35.36 20.0758 34.976C19.6918 34.5867 19.3904 34.1387 19.1718 33.632C18.9531 33.1253 18.8438 32.5813 18.8438 32C18.8438 31.4187 18.9531 30.8747 19.1718 30.368C19.3904 29.856 19.6918 29.408 20.0758 29.024C20.4651 28.6347 20.9131 28.3307 21.4198 28.112C21.9264 27.8933 22.4704 27.784 23.0518 27.784C23.6704 27.784 24.2091 27.928 24.6678 28.216C25.1264 28.504 25.4918 28.8827 25.7638 29.352V24ZM23.0678 34.904C23.5958 34.904 24.0518 34.776 24.4358 34.52C24.8251 34.2587 25.1238 33.9067 25.3318 33.464C25.5451 33.0213 25.6518 32.5333 25.6518 32C25.6518 31.456 25.5451 30.9653 25.3318 30.528C25.1184 30.0853 24.8171 29.736 24.4278 29.48C24.0438 29.2187 23.5904 29.088 23.0678 29.088C22.5398 29.088 22.0598 29.2187 21.6278 29.48C21.2011 29.7413 20.8598 30.0933 20.6038 30.536C20.3478 30.9733 20.2198 31.4613 20.2198 32C20.2198 32.5387 20.3504 33.0293 20.6118 33.472C20.8731 33.9093 21.2198 34.2587 21.6518 34.52C22.0838 34.776 22.5558 34.904 23.0678 34.904ZM29.0269 36V28H30.3709V29C30.6536 28.6267 31.0109 28.3307 31.4429 28.112C31.8749 27.888 32.3442 27.776 32.8509 27.776C33.1602 27.776 33.4589 27.816 33.7469 27.896L33.2029 29.24C32.9842 29.1707 32.7709 29.136 32.5629 29.136C32.1629 29.136 31.7949 29.2347 31.4589 29.432C31.1282 29.624 30.8642 29.8853 30.6669 30.216C30.4696 30.5467 30.3709 30.9147 30.3709 31.32V36H29.0269ZM37.8438 36.208C37.1078 36.208 36.4358 36.0187 35.8278 35.64C35.2251 35.2613 34.7424 34.7547 34.3798 34.12C34.0224 33.48 33.8438 32.7733 33.8438 32C33.8438 31.4133 33.9478 30.8667 34.1558 30.36C34.3638 29.848 34.6491 29.4 35.0118 29.016C35.3798 28.6267 35.8064 28.3227 36.2918 28.104C36.7771 27.8853 37.2944 27.776 37.8438 27.776C38.4464 27.776 38.9984 27.8987 39.4998 28.144C40.0064 28.384 40.4384 28.72 40.7958 29.152C41.1584 29.584 41.4278 30.0853 41.6038 30.656C41.7851 31.2267 41.8518 31.8373 41.8038 32.488H35.2758C35.3398 32.9413 35.4891 33.3467 35.7238 33.704C35.9584 34.056 36.2571 34.336 36.6198 34.544C36.9878 34.752 37.3958 34.8587 37.8438 34.864C38.3238 34.864 38.7584 34.7413 39.1478 34.496C39.5371 34.2453 39.8518 33.904 40.0918 33.472L41.4598 33.792C41.1398 34.5013 40.6571 35.0827 40.0118 35.536C39.3664 35.984 38.6438 36.208 37.8438 36.208ZM35.2358 31.432H40.4518C40.4091 30.984 40.2651 30.576 40.0198 30.208C39.7744 29.8347 39.4624 29.536 39.0838 29.312C38.7051 29.088 38.2918 28.976 37.8438 28.976C37.3958 28.976 36.9851 29.0853 36.6118 29.304C36.2384 29.5227 35.9291 29.8187 35.6838 30.192C35.4438 30.56 35.2944 30.9733 35.2358 31.432ZM45.6231 36.152C45.1911 36.136 44.7698 36.056 44.3591 35.912C43.9538 35.7627 43.5965 35.5627 43.2871 35.312C42.9831 35.056 42.7618 34.7627 42.6231 34.432L43.7751 33.936C43.8551 34.1173 43.9991 34.288 44.2071 34.448C44.4151 34.608 44.6551 34.736 44.9271 34.832C45.1991 34.928 45.4738 34.976 45.7511 34.976C46.0445 34.976 46.3191 34.9307 46.5751 34.84C46.8311 34.7493 47.0391 34.616 47.1991 34.44C47.3645 34.2587 47.4471 34.0427 47.4471 33.792C47.4471 33.5253 47.3565 33.3173 47.1751 33.168C46.9991 33.0133 46.7751 32.8933 46.5031 32.808C46.2365 32.7173 45.9645 32.632 45.6871 32.552C45.1378 32.4133 44.6471 32.248 44.2151 32.056C43.7831 31.8587 43.4418 31.6107 43.1911 31.312C42.9458 31.008 42.8231 30.6213 42.8231 30.152C42.8231 29.656 42.9591 29.2267 43.2311 28.864C43.5085 28.5013 43.8711 28.2213 44.3191 28.024C44.7671 27.8267 45.2471 27.728 45.7591 27.728C46.4045 27.728 46.9938 27.8667 47.5271 28.144C48.0605 28.4213 48.4578 28.7973 48.7191 29.272L47.6391 29.904C47.5485 29.712 47.4098 29.544 47.2231 29.4C47.0365 29.2507 46.8231 29.1333 46.5831 29.048C46.3431 28.9627 46.0978 28.9173 45.8471 28.912C45.5378 28.9013 45.2471 28.9413 44.9751 29.032C44.7085 29.1227 44.4925 29.2613 44.3271 29.448C44.1671 29.6293 44.0871 29.856 44.0871 30.128C44.0871 30.3947 44.1725 30.5973 44.3431 30.736C44.5191 30.8747 44.7458 30.9867 45.0231 31.072C45.3058 31.152 45.6125 31.2453 45.9431 31.352C46.4285 31.5067 46.8818 31.6853 47.3031 31.888C47.7245 32.0907 48.0631 32.344 48.3191 32.648C48.5805 32.952 48.7085 33.328 48.7031 33.776C48.7031 34.2667 48.5565 34.696 48.2631 35.064C47.9698 35.4267 47.5885 35.704 47.1191 35.896C46.6551 36.088 46.1565 36.1733 45.6231 36.152ZM52.5138 36.152C52.0818 36.136 51.6604 36.056 51.2498 35.912C50.8444 35.7627 50.4871 35.5627 50.1778 35.312C49.8738 35.056 49.6524 34.7627 49.5138 34.432L50.6658 33.936C50.7458 34.1173 50.8898 34.288 51.0978 34.448C51.3058 34.608 51.5458 34.736 51.8178 34.832C52.0898 34.928 52.3644 34.976 52.6418 34.976C52.9351 34.976 53.2098 34.9307 53.4658 34.84C53.7218 34.7493 53.9298 34.616 54.0898 34.44C54.2551 34.2587 54.3378 34.0427 54.3378 33.792C54.3378 33.5253 54.2471 33.3173 54.0658 33.168C53.8898 33.0133 53.6658 32.8933 53.3938 32.808C53.1271 32.7173 52.8551 32.632 52.5778 32.552C52.0284 32.4133 51.5378 32.248 51.1058 32.056C50.6738 31.8587 50.3324 31.6107 50.0818 31.312C49.8364 31.008 49.7138 30.6213 49.7138 30.152C49.7138 29.656 49.8498 29.2267 50.1218 28.864C50.3991 28.5013 50.7618 28.2213 51.2098 28.024C51.6578 27.8267 52.1378 27.728 52.6498 27.728C53.2951 27.728 53.8844 27.8667 54.4178 28.144C54.9511 28.4213 55.3484 28.7973 55.6098 29.272L54.5298 29.904C54.4391 29.712 54.3004 29.544 54.1138 29.4C53.9271 29.2507 53.7138 29.1333 53.4738 29.048C53.2338 28.9627 52.9884 28.9173 52.7378 28.912C52.4284 28.9013 52.1378 28.9413 51.8658 29.032C51.5991 29.1227 51.3831 29.2613 51.2178 29.448C51.0578 29.6293 50.9778 29.856 50.9778 30.128C50.9778 30.3947 51.0631 30.5973 51.2338 30.736C51.4098 30.8747 51.6364 30.9867 51.9138 31.072C52.1964 31.152 52.5031 31.2453 52.8338 31.352C53.3191 31.5067 53.7724 31.6853 54.1938 31.888C54.6151 32.0907 54.9538 32.344 55.2098 32.648C55.4711 32.952 55.5991 33.328 55.5938 33.776C55.5938 34.2667 55.4471 34.696 55.1538 35.064C54.8604 35.4267 54.4791 35.704 54.0098 35.896C53.5458 36.088 53.0471 36.1733 52.5138 36.152ZM60.8081 36V24H62.1521V36H60.8081ZM64.0738 28H65.4178V36H64.0738V28ZM64.7618 26.696C64.5484 26.696 64.3698 26.6267 64.2258 26.488C64.0818 26.3493 64.0098 26.176 64.0098 25.968C64.0098 25.76 64.0818 25.5867 64.2258 25.448C64.3698 25.3093 64.5458 25.24 64.7538 25.24C64.9618 25.24 65.1378 25.3093 65.2818 25.448C65.4258 25.5867 65.4978 25.76 65.4978 25.968C65.4978 26.176 65.4258 26.3493 65.2818 26.488C65.1431 26.6267 64.9698 26.696 64.7618 26.696ZM74.3645 31.024V36H73.0205V31.32C73.0205 30.9147 72.9219 30.5467 72.7245 30.216C72.5272 29.8853 72.2632 29.624 71.9325 29.432C71.6019 29.2347 71.2339 29.136 70.8285 29.136C70.4285 29.136 70.0605 29.2347 69.7245 29.432C69.3939 29.624 69.1299 29.8853 68.9325 30.216C68.7352 30.5467 68.6365 30.9147 68.6365 31.32V36H67.2925V28H68.6365V29C68.9192 28.6267 69.2765 28.3307 69.7085 28.112C70.1405 27.888 70.6099 27.776 71.1165 27.776C71.7139 27.776 72.2579 27.9227 72.7485 28.216C73.2445 28.504 73.6365 28.8933 73.9245 29.384C74.2179 29.8747 74.3645 30.4213 74.3645 31.024ZM82.5461 36H81.0021L78.8741 32.328L77.4021 34.088V36H76.0581V24H77.4021V32L80.7541 28H82.5061L79.7861 31.24L82.5461 36ZM87 36.208C86.264 36.208 85.592 36.0187 84.984 35.64C84.3814 35.2613 83.8987 34.7547 83.536 34.12C83.1787 33.48 83 32.7733 83 32C83 31.4133 83.104 30.8667 83.312 30.36C83.52 29.848 83.8054 29.4 84.168 29.016C84.536 28.6267 84.9627 28.3227 85.448 28.104C85.9334 27.8853 86.4507 27.776 87 27.776C87.6027 27.776 88.1547 27.8987 88.656 28.144C89.1627 28.384 89.5947 28.72 89.952 29.152C90.3147 29.584 90.584 30.0853 90.76 30.656C90.9414 31.2267 91.008 31.8373 90.96 32.488H84.432C84.496 32.9413 84.6454 33.3467 84.88 33.704C85.1147 34.056 85.4134 34.336 85.776 34.544C86.144 34.752 86.552 34.8587 87 34.864C87.48 34.864 87.9147 34.7413 88.304 34.496C88.6934 34.2453 89.008 33.904 89.248 33.472L90.616 33.792C90.296 34.5013 89.8134 35.0827 89.168 35.536C88.5227 35.984 87.8 36.208 87 36.208ZM84.392 31.432H89.608C89.5654 30.984 89.4214 30.576 89.176 30.208C88.9307 29.8347 88.6187 29.536 88.24 29.312C87.8614 29.088 87.448 28.976 87 28.976C86.552 28.976 86.1414 29.0853 85.768 29.304C85.3947 29.5227 85.0854 29.8187 84.84 30.192C84.6 30.56 84.4507 30.9733 84.392 31.432ZM98.7013 24H100.045V36H98.7013V34.64C98.4293 35.1093 98.0639 35.488 97.6053 35.776C97.1466 36.064 96.6079 36.208 95.9893 36.208C95.4079 36.208 94.8639 36.0987 94.3573 35.88C93.8506 35.6613 93.4026 35.36 93.0133 34.976C92.6293 34.5867 92.3279 34.1387 92.1093 33.632C91.8906 33.1253 91.7813 32.5813 91.7813 32C91.7813 31.4187 91.8906 30.8747 92.1093 30.368C92.3279 29.856 92.6293 29.408 93.0133 29.024C93.4026 28.6347 93.8506 28.3307 94.3573 28.112C94.8639 27.8933 95.4079 27.784 95.9893 27.784C96.6079 27.784 97.1466 27.928 97.6053 28.216C98.0639 28.504 98.4293 28.8827 98.7013 29.352V24ZM96.0053 34.904C96.5333 34.904 96.9893 34.776 97.3733 34.52C97.7626 34.2587 98.0613 33.9067 98.2693 33.464C98.4826 33.0213 98.5893 32.5333 98.5893 32C98.5893 31.456 98.4826 30.9653 98.2693 30.528C98.0559 30.0853 97.7546 29.736 97.3653 29.48C96.9813 29.2187 96.5279 29.088 96.0053 29.088C95.4773 29.088 94.9973 29.2187 94.5653 29.48C94.1386 29.7413 93.7973 30.0933 93.5413 30.536C93.2853 30.9733 93.1573 31.4613 93.1573 32C93.1573 32.5387 93.2879 33.0293 93.5493 33.472C93.8106 33.9093 94.1573 34.2587 94.5893 34.52C95.0213 34.776 95.4933 34.904 96.0053 34.904ZM109.368 36H108.008L105.328 28H106.64L108.704 34.104L110.744 28H112.128L114.176 34.104L116.216 28H117.544L114.864 36H113.496L111.424 29.84L109.368 36ZM118.839 28H120.183V36H118.839V28ZM119.527 26.696C119.314 26.696 119.135 26.6267 118.991 26.488C118.847 26.3493 118.775 26.176 118.775 25.968C118.775 25.76 118.847 25.5867 118.991 25.448C119.135 25.3093 119.311 25.24 119.519 25.24C119.727 25.24 119.903 25.3093 120.047 25.448C120.191 25.5867 120.263 25.76 120.263 25.968C120.263 26.176 120.191 26.3493 120.047 26.488C119.909 26.6267 119.735 26.696 119.527 26.696ZM126.249 29.344H124.433L124.425 36H123.081L123.089 29.344H121.713V28H123.089L123.081 25.488H124.425L124.433 28H126.249V29.344ZM134.755 31.024V36H133.411V31.32C133.411 30.9147 133.312 30.5467 133.115 30.216C132.918 29.8853 132.654 29.624 132.323 29.432C131.992 29.2347 131.624 29.136 131.219 29.136C130.819 29.136 130.451 29.2347 130.115 29.432C129.784 29.624 129.52 29.8853 129.323 30.216C129.126 30.5467 129.027 30.9147 129.027 31.32V36H127.683V24H129.027V29C129.31 28.6267 129.667 28.3307 130.099 28.112C130.531 27.888 131 27.776 131.507 27.776C132.104 27.776 132.648 27.9227 133.139 28.216C133.635 28.504 134.027 28.8933 134.315 29.384C134.608 29.8747 134.755 30.4213 134.755 31.024ZM145.679 28H147.103L142.727 40H141.303L142.751 36L139.879 28H141.351L143.423 34.152L145.679 28ZM151.656 36.208C150.92 36.208 150.248 36.0187 149.64 35.64C149.038 35.2613 148.555 34.7547 148.192 34.12C147.835 33.48 147.656 32.7733 147.656 32C147.656 31.4133 147.76 30.8667 147.968 30.36C148.176 29.848 148.462 29.4 148.824 29.016C149.192 28.6267 149.619 28.3227 150.104 28.104C150.59 27.8853 151.107 27.776 151.656 27.776C152.392 27.776 153.062 27.9653 153.664 28.344C154.272 28.7227 154.755 29.232 155.112 29.872C155.475 30.512 155.656 31.2213 155.656 32C155.656 32.5813 155.552 33.1253 155.344 33.632C155.136 34.1387 154.848 34.5867 154.48 34.976C154.118 35.36 153.694 35.6613 153.208 35.88C152.728 36.0987 152.211 36.208 151.656 36.208ZM151.656 34.864C152.158 34.864 152.608 34.7333 153.008 34.472C153.414 34.2053 153.731 33.856 153.96 33.424C154.195 32.9867 154.312 32.512 154.312 32C154.312 31.4773 154.192 30.9973 153.952 30.56C153.718 30.1227 153.4 29.7733 153 29.512C152.6 29.2507 152.152 29.12 151.656 29.12C151.155 29.12 150.704 29.2533 150.304 29.52C149.904 29.7813 149.587 30.1307 149.352 30.568C149.118 31.0053 149 31.4827 149 32C149 32.5333 149.12 33.0187 149.36 33.456C149.6 33.888 149.923 34.232 150.328 34.488C150.734 34.7387 151.176 34.864 151.656 34.864ZM156.551 32.96V28H157.895V32.664C157.895 33.0693 157.993 33.4373 158.191 33.768C158.388 34.0987 158.652 34.3627 158.983 34.56C159.319 34.752 159.687 34.848 160.087 34.848C160.492 34.848 160.857 34.752 161.183 34.56C161.513 34.3627 161.777 34.0987 161.975 33.768C162.172 33.4373 162.271 33.0693 162.271 32.664V28H163.615L163.623 36H162.279L162.271 34.984C161.988 35.3573 161.631 35.656 161.199 35.88C160.767 36.0987 160.3 36.208 159.799 36.208C159.201 36.208 158.655 36.064 158.159 35.776C157.668 35.4827 157.276 35.0907 156.983 34.6C156.695 34.1093 156.551 33.5627 156.551 32.96ZM165.23 36V28H166.574V29C166.857 28.6267 167.214 28.3307 167.646 28.112C168.078 27.888 168.547 27.776 169.054 27.776C169.363 27.776 169.662 27.816 169.95 27.896L169.406 29.24C169.187 29.1707 168.974 29.136 168.766 29.136C168.366 29.136 167.998 29.2347 167.662 29.432C167.331 29.624 167.067 29.8853 166.87 30.216C166.673 30.5467 166.574 30.9147 166.574 31.32V36H165.23ZM181.35 28H182.694V36H181.35L181.294 34.648C181.043 35.112 180.696 35.488 180.254 35.776C179.816 36.064 179.294 36.208 178.686 36.208C178.099 36.208 177.55 36.0987 177.038 35.88C176.526 35.656 176.072 35.3493 175.678 34.96C175.288 34.5653 174.984 34.112 174.766 33.6C174.547 33.088 174.438 32.536 174.438 31.944C174.438 31.3733 174.544 30.8347 174.758 30.328C174.971 29.8213 175.267 29.3787 175.646 29C176.03 28.616 176.472 28.3173 176.974 28.104C177.475 27.8853 178.014 27.776 178.59 27.776C179.219 27.776 179.771 27.9253 180.246 28.224C180.72 28.5173 181.104 28.8987 181.398 29.368L181.35 28ZM178.662 34.904C179.19 34.904 179.646 34.776 180.03 34.52C180.419 34.2587 180.718 33.9067 180.926 33.464C181.139 33.0213 181.246 32.5333 181.246 32C181.246 31.456 181.139 30.9653 180.926 30.528C180.712 30.0853 180.411 29.736 180.022 29.48C179.638 29.2187 179.184 29.088 178.662 29.088C178.134 29.088 177.654 29.2187 177.222 29.48C176.79 29.7413 176.446 30.0933 176.19 30.536C175.939 30.9733 175.814 31.4613 175.814 32C175.814 32.5387 175.944 33.0293 176.206 33.472C176.467 33.9093 176.814 34.2587 177.246 34.52C177.678 34.776 178.15 34.904 178.662 34.904ZM189.648 33.888L190.848 34.536C190.486 35.0427 190.024 35.448 189.464 35.752C188.91 36.056 188.307 36.208 187.656 36.208C186.92 36.208 186.248 36.0187 185.64 35.64C185.038 35.2613 184.555 34.7547 184.192 34.12C183.835 33.48 183.656 32.7733 183.656 32C183.656 31.4133 183.76 30.8667 183.968 30.36C184.176 29.848 184.462 29.4 184.824 29.016C185.192 28.6267 185.619 28.3227 186.104 28.104C186.59 27.8853 187.107 27.776 187.656 27.776C188.307 27.776 188.91 27.928 189.464 28.232C190.024 28.536 190.486 28.944 190.848 29.456L189.648 30.104C189.392 29.7893 189.088 29.5467 188.736 29.376C188.384 29.2053 188.024 29.12 187.656 29.12C187.16 29.12 186.71 29.2533 186.304 29.52C185.904 29.7813 185.587 30.1307 185.352 30.568C185.118 31.0053 185 31.4827 185 32C185 32.5173 185.118 32.9947 185.352 33.432C185.592 33.864 185.912 34.2107 186.312 34.472C186.718 34.7333 187.166 34.864 187.656 34.864C188.051 34.864 188.422 34.7733 188.768 34.592C189.115 34.4107 189.408 34.176 189.648 33.888ZM197.664 33.888L198.864 34.536C198.501 35.0427 198.04 35.448 197.48 35.752C196.925 36.056 196.323 36.208 195.672 36.208C194.936 36.208 194.264 36.0187 193.656 35.64C193.053 35.2613 192.571 34.7547 192.208 34.12C191.851 33.48 191.672 32.7733 191.672 32C191.672 31.4133 191.776 30.8667 191.984 30.36C192.192 29.848 192.477 29.4 192.84 29.016C193.208 28.6267 193.635 28.3227 194.12 28.104C194.605 27.8853 195.123 27.776 195.672 27.776C196.323 27.776 196.925 27.928 197.48 28.232C198.04 28.536 198.501 28.944 198.864 29.456L197.664 30.104C197.408 29.7893 197.104 29.5467 196.752 29.376C196.4 29.2053 196.04 29.12 195.672 29.12C195.176 29.12 194.725 29.2533 194.32 29.52C193.92 29.7813 193.603 30.1307 193.368 30.568C193.133 31.0053 193.016 31.4827 193.016 32C193.016 32.5173 193.133 32.9947 193.368 33.432C193.608 33.864 193.928 34.2107 194.328 34.472C194.733 34.7333 195.181 34.864 195.672 34.864C196.067 34.864 196.437 34.7733 196.784 34.592C197.131 34.4107 197.424 34.176 197.664 33.888ZM203.688 36.208C202.952 36.208 202.28 36.0187 201.672 35.64C201.069 35.2613 200.586 34.7547 200.224 34.12C199.866 33.48 199.688 32.7733 199.688 32C199.688 31.4133 199.792 30.8667 200 30.36C200.208 29.848 200.493 29.4 200.856 29.016C201.224 28.6267 201.65 28.3227 202.136 28.104C202.621 27.8853 203.138 27.776 203.688 27.776C204.424 27.776 205.093 27.9653 205.696 28.344C206.304 28.7227 206.786 29.232 207.144 29.872C207.506 30.512 207.688 31.2213 207.688 32C207.688 32.5813 207.584 33.1253 207.376 33.632C207.168 34.1387 206.88 34.5867 206.512 34.976C206.149 35.36 205.725 35.6613 205.24 35.88C204.76 36.0987 204.242 36.208 203.688 36.208ZM203.688 34.864C204.189 34.864 204.64 34.7333 205.04 34.472C205.445 34.2053 205.762 33.856 205.992 33.424C206.226 32.9867 206.344 32.512 206.344 32C206.344 31.4773 206.224 30.9973 205.984 30.56C205.749 30.1227 205.432 29.7733 205.032 29.512C204.632 29.2507 204.184 29.12 203.688 29.12C203.186 29.12 202.736 29.2533 202.336 29.52C201.936 29.7813 201.618 30.1307 201.384 30.568C201.149 31.0053 201.032 31.4827 201.032 32C201.032 32.5333 201.152 33.0187 201.392 33.456C201.632 33.888 201.954 34.232 202.36 34.488C202.765 34.7387 203.208 34.864 203.688 34.864ZM208.582 32.96V28H209.926V32.664C209.926 33.0693 210.025 33.4373 210.222 33.768C210.419 34.0987 210.683 34.3627 211.014 34.56C211.35 34.752 211.718 34.848 212.118 34.848C212.523 34.848 212.889 34.752 213.214 34.56C213.545 34.3627 213.809 34.0987 214.006 33.768C214.203 33.4373 214.302 33.0693 214.302 32.664V28H215.646L215.654 36H214.31L214.302 34.984C214.019 35.3573 213.662 35.656 213.23 35.88C212.798 36.0987 212.331 36.208 211.83 36.208C211.233 36.208 210.686 36.064 210.19 35.776C209.699 35.4827 209.307 35.0907 209.014 34.6C208.726 34.1093 208.582 33.5627 208.582 32.96ZM224.333 31.024V36H222.989V31.32C222.989 30.9147 222.891 30.5467 222.693 30.216C222.496 29.8853 222.232 29.624 221.901 29.432C221.571 29.2347 221.203 29.136 220.797 29.136C220.397 29.136 220.029 29.2347 219.693 29.432C219.363 29.624 219.099 29.8853 218.901 30.216C218.704 30.5467 218.605 30.9147 218.605 31.32V36H217.261V28H218.605V29C218.888 28.6267 219.245 28.3307 219.677 28.112C220.109 27.888 220.579 27.776 221.085 27.776C221.683 27.776 222.227 27.9227 222.717 28.216C223.213 28.504 223.605 28.8933 223.893 29.384C224.187 29.8747 224.333 30.4213 224.333 31.024ZM230.077 29.344H228.261L228.253 36H226.909L226.917 29.344H225.541V28H226.917L226.909 25.488H228.253L228.261 28H230.077V29.344ZM231.763 36.208C231.56 36.208 231.387 36.136 231.243 35.992C231.104 35.848 231.035 35.672 231.035 35.464C231.035 35.2667 231.104 35.096 231.243 34.952C231.387 34.808 231.56 34.736 231.763 34.736C231.971 34.736 232.147 34.808 232.291 34.952C232.435 35.096 232.507 35.2667 232.507 35.464C232.507 35.672 232.435 35.848 232.291 35.992C232.147 36.136 231.971 36.208 231.763 36.208Z" fill="#8391A1"/>
</svg>