<svg xmlns="http://www.w3.org/2000/svg" xmlns:xlink="http://www.w3.org/1999/xlink" width="387" height="205" viewBox="0 0 387 205" fill="none">
<g clip-path="url(#clip0_1_2)">
<g>
<mask id="mask0_1_2" maskUnits="userSpaceOnUse" x="17" y="0" width="351" height="205">
<path d="M344.136 0H40.864C27.6843 0 17 12.8816 17 28.7719V176.228C17 192.118 27.6843 205 40.864 205H344.136C357.316 205 368 192.118 368 176.228V28.7719C368 12.8816 357.316 0 344.136 0Z" fill="white"/>
</mask>
<g mask="url(#mask0_1_2)">
<path d="M344.136 0H40.864C27.6843 0 17 12.8816 17 28.7719V176.228C17 192.118 27.6843 205 40.864 205H344.136C357.316 205 368 192.118 368 176.228V28.7719C368 12.8816 357.316 0 344.136 0Z" fill="url(#pattern0_1_2)"/>
</g>
</g>
<mask id="mask1_1_2" maskUnits="userSpaceOnUse" x="41" y="9" width="55" height="53">
<path d="M69.0129 9H67.1267C52.6973 9 41 20.6973 41 35.1267C41 49.5561 52.6973 61.2534 67.1267 61.2534H69.0129C83.4423 61.2534 95.1396 49.5561 95.1396 35.1267C95.1396 20.6973 83.4423 9 69.0129 9Z" fill="white"/>
</mask>
<g mask="url(#mask1_1_2)">
<path d="M62.6807 27.3534L59.9292 42.9374H64.3297L67.0834 27.3534H62.6807Z" fill="white"/>
<path d="M56.242 27.3704L51.932 37.9984L51.4725 36.3934C50.6225 34.4604 48.2094 31.6834 45.3765 29.9334L49.3175 42.9294L53.9738 42.9224L60.9039 27.3674L56.242 27.3704Z" fill="white"/>
<path d="M49.7994 28.4804C49.5437 27.5314 48.8023 27.2484 47.8821 27.2144H41.0595L41.0029 27.5244C46.3123 28.7684 49.8255 31.7634 51.2833 35.3644L49.7994 28.4804Z" fill="white"/>
<path d="M75.9993 30.3384C77.439 30.3164 78.4825 30.6204 79.2929 30.9344L79.6902 31.1144L80.2855 27.7374C79.414 27.4214 78.0479 27.0824 76.3434 27.0824C71.9949 27.0824 68.93 29.1964 68.9062 32.2254C68.8779 34.4644 71.0895 35.7134 72.76 36.4594C74.4748 37.2244 75.0497 37.7104 75.0418 38.3934C75.0282 39.4364 73.6746 39.9154 72.4103 39.9154C70.6481 39.9154 69.712 39.6804 68.2667 39.0994L67.6997 38.8504L67.0806 42.3384C68.1105 42.7734 70.0108 43.1484 71.9836 43.1684C76.6094 43.1684 79.6155 41.0794 79.6472 37.8424C79.6664 36.0724 78.4927 34.7204 75.9495 33.6124C74.4102 32.8884 73.4686 32.4084 73.4776 31.6784C73.4776 31.0304 74.2767 30.3384 75.9993 30.3384Z" fill="white"/>
<path d="M91.5814 27.3704H88.1814C87.1254 27.3704 86.3403 27.6484 85.8763 28.6634L79.3423 42.9454H83.9635C83.9635 42.9454 84.7173 41.0254 84.8882 40.6044C85.3941 40.6044 89.8844 40.6114 90.5234 40.6114C90.6544 41.1554 91.0604 42.9454 91.0604 42.9454H95.1424L91.5814 27.3704ZM86.1547 37.4154C86.5169 36.5204 87.9084 33.0594 87.9084 33.0594C87.8844 33.1024 88.2664 32.1584 88.4944 31.5714L88.7904 32.9154C88.7904 32.9154 89.6344 36.6364 89.8104 37.4154H86.1547Z" fill="white"/>
</g>
<path d="M50.5978 84C45.2971 84 41 88.2971 41 93.5978C41 98.8985 45.2971 103.196 50.5978 103.196H60.4016C65.7023 103.196 69.9994 98.8985 69.9994 93.5978C69.9994 88.2971 65.7023 84 60.4016 84H50.5978Z" fill="url(#pattern1_1_2)" stroke="#94A2AD" stroke-width="1.55978"/>
<path d="M41.7 180V169.92H46.488C47.2347 169.92 47.874 170.051 48.406 170.312C48.9473 170.573 49.3627 170.937 49.652 171.404C49.9507 171.871 50.1 172.417 50.1 173.042C50.1 173.667 49.9507 174.218 49.652 174.694C49.3533 175.17 48.9333 175.543 48.392 175.814C47.86 176.075 47.2253 176.206 46.488 176.206H43.408V174.554H46.376C46.8707 174.554 47.2533 174.419 47.524 174.148C47.804 173.868 47.944 173.504 47.944 173.056C47.944 172.608 47.804 172.249 47.524 171.978C47.2533 171.707 46.8707 171.572 46.376 171.572H43.856V180H41.7ZM49.5801 180L53.1921 169.92H55.0401L51.7221 180H49.5801ZM56.9721 180L53.6681 169.92H55.6001L59.2121 180H56.9721ZM51.4841 176.094H57.1401V177.774H51.4841V176.094ZM61.6677 180V175.926L57.9157 169.92H60.5057L63.4737 175.254H62.2557L65.2097 169.92H67.5757L63.8237 175.926V180H61.6677ZM71.6765 180L68.0645 169.92H70.3045L73.0625 178.32H72.7965L75.5685 169.92H77.6965L74.0845 180H71.6765ZM82.9532 180.14C82.2065 180.14 81.5159 180.014 80.8812 179.762C80.2559 179.51 79.7099 179.155 79.2432 178.698C78.7859 178.231 78.4265 177.681 78.1652 177.046C77.9132 176.402 77.7872 175.693 77.7872 174.918C77.7872 173.891 78.0065 172.995 78.4452 172.23C78.8839 171.455 79.4905 170.853 80.2652 170.424C81.0492 169.995 81.9405 169.78 82.9392 169.78C83.9565 169.78 84.8525 169.995 85.6272 170.424C86.4019 170.853 87.0085 171.455 87.4472 172.23C87.8952 173.005 88.1192 173.905 88.1192 174.932C88.1192 175.697 87.9885 176.402 87.7272 177.046C87.4752 177.681 87.1159 178.231 86.6492 178.698C86.1919 179.155 85.6459 179.51 85.0112 179.762C84.3859 180.014 83.6999 180.14 82.9532 180.14ZM82.9392 178.432C83.5272 178.432 84.0452 178.283 84.4932 177.984C84.9412 177.685 85.2912 177.275 85.5432 176.752C85.8045 176.22 85.9352 175.604 85.9352 174.904C85.9352 174.213 85.8092 173.611 85.5572 173.098C85.3052 172.585 84.9552 172.188 84.5072 171.908C84.0592 171.628 83.5365 171.488 82.9392 171.488C82.3512 171.488 81.8332 171.628 81.3852 171.908C80.9372 172.188 80.5872 172.585 80.3352 173.098C80.0925 173.602 79.9712 174.204 79.9712 174.904C79.9712 175.613 80.0972 176.234 80.3492 176.766C80.6012 177.289 80.9512 177.699 81.3992 177.998C81.8472 178.287 82.3605 178.432 82.9392 178.432ZM89.1811 180V169.92H93.6891C94.4171 169.92 95.0518 170.046 95.5931 170.298C96.1344 170.541 96.5544 170.886 96.8531 171.334C97.1518 171.782 97.3011 172.305 97.3011 172.902C97.3011 173.49 97.1518 174.008 96.8531 174.456C96.5544 174.895 96.1344 175.24 95.5931 175.492C95.0518 175.735 94.4171 175.856 93.6891 175.856H90.8891V174.274H93.6331C94.1464 174.274 94.5384 174.157 94.8091 173.924C95.0891 173.681 95.2291 173.345 95.2291 172.916C95.2291 172.477 95.0938 172.146 94.8231 171.922C94.5524 171.689 94.1558 171.572 93.6331 171.572H91.3371V180H89.1811ZM94.8651 180L90.8191 174.764H93.1011L97.7771 180H94.8651ZM98.2247 180L101.837 169.92H103.685L100.367 180H98.2247ZM105.617 180L102.313 169.92H104.245L107.857 180H105.617ZM100.129 176.094H105.785V177.774H100.129V176.094Z" fill="white"/>
<mask id="mask2_1_2" maskUnits="userSpaceOnUse" x="316" y="25" width="21" height="20">
<path d="M326.541 25H325.832C320.402 25 316 29.4017 316 34.8315C316 40.2613 320.402 44.663 325.832 44.663H326.541C331.971 44.663 336.373 40.2613 336.373 34.8315C336.373 29.4017 331.971 25 326.541 25Z" fill="white"/>
</mask>
<g mask="url(#mask2_1_2)">
<path d="M318.736 32.559C318.991 32.866 319.182 33.234 319.309 33.603C319.437 33.972 319.5 34.402 319.5 34.832C319.5 35.262 319.437 35.692 319.309 36.061C319.182 36.43 318.991 36.798 318.736 37.106C318.418 37.536 318.482 38.15 318.927 38.457C319.373 38.765 320.01 38.703 320.328 38.273C320.71 37.781 320.965 37.29 321.219 36.675C321.474 36.061 321.538 35.447 321.538 34.832C321.538 34.218 321.41 33.603 321.219 32.989C321.028 32.436 320.71 31.883 320.328 31.391C320.01 30.961 319.373 30.899 318.927 31.207C318.482 31.514 318.418 32.128 318.736 32.559Z" fill="white"/>
<path d="M322.238 30.777C323.002 31.944 323.448 33.357 323.448 34.832C323.448 36.307 323.002 37.72 322.238 38.888C321.92 39.318 322.111 39.932 322.556 40.239C323.066 40.547 323.639 40.362 323.957 39.932C324.912 38.457 325.485 36.737 325.485 34.832C325.485 32.989 324.912 31.207 323.957 29.732C323.639 29.302 323.002 29.117 322.556 29.425C322.111 29.732 321.92 30.285 322.238 30.777Z" fill="white"/>
<path d="M325.931 28.933C327.013 30.654 327.586 32.681 327.586 34.832C327.586 36.983 326.949 39.01 325.931 40.731C325.676 41.223 325.803 41.776 326.313 42.083C326.822 42.329 327.395 42.206 327.713 41.714C328.986 39.686 329.687 37.351 329.687 34.832C329.687 32.313 328.986 29.978 327.713 27.95C327.459 27.458 326.822 27.336 326.313 27.581C325.803 27.889 325.676 28.442 325.931 28.933Z" fill="white"/>
<path d="M329.623 27.09C330.96 29.363 331.788 32.005 331.788 34.832C331.788 37.659 331.024 40.301 329.623 42.574C329.368 43.066 329.496 43.619 330.005 43.926C330.514 44.172 331.087 44.049 331.406 43.558C332.934 40.977 333.825 38.027 333.825 34.832C333.825 31.637 332.934 28.687 331.406 26.107C331.151 25.615 330.514 25.492 330.005 25.738C329.496 25.984 329.368 26.598 329.623 27.09Z" fill="white"/>
</g>
</g>
<defs>












<clipPath id="clip0_1_2">
<rect width="387" height="205" fill="white"/>
</clipPath>


</defs>
</svg>