<svg xmlns="http://www.w3.org/2000/svg" width="105" height="56" viewBox="0 0 105 56" fill="none">
<rect x="0.5" y="0.5" width="104" height="55" rx="7.5" stroke="#DADADA"/>
<path d="M46.4202 30.4656L45.5975 33.537L42.5903 33.6006C41.6916 31.9338 41.1819 30.0266 41.1819 28C41.1819 26.0403 41.6585 24.1922 42.5033 22.5649H42.504L45.1811 23.0558L46.3539 25.7169C46.1085 26.4325 45.9747 27.2007 45.9747 28C45.9748 28.8675 46.1319 29.6987 46.4202 30.4656Z" fill="black"/>
<path d="M64.6119 25.7922C64.7476 26.5071 64.8184 27.2454 64.8184 28C64.8184 28.8461 64.7294 29.6714 64.5599 30.4675C63.9846 33.1766 62.4814 35.5422 60.3989 37.2162L60.3983 37.2156L57.0262 37.0435L56.549 34.0643C57.9308 33.2539 59.0107 31.9857 59.5795 30.4675H53.26V25.7922H59.6717H64.6119Z" fill="black"/>
<path d="M60.3981 37.2156L60.3988 37.2163C58.3735 38.8442 55.8007 39.8182 53.0001 39.8182C48.4994 39.8182 44.5865 37.3026 42.5903 33.6007L46.4202 30.4656C47.4182 33.1293 49.9877 35.0254 53.0001 35.0254C54.2949 35.0254 55.5079 34.6754 56.5488 34.0643L60.3981 37.2156Z" fill="#040404"/>
<path d="M60.5437 18.9026L56.7151 22.037C55.6379 21.3636 54.3644 20.9747 53.0002 20.9747C49.9197 20.9747 47.3021 22.9578 46.3541 25.7169L42.5041 22.5649H42.5034C44.4703 18.7727 48.4326 16.1818 53.0002 16.1818C55.8677 16.1818 58.4969 17.2033 60.5437 18.9026Z" fill="black"/>
</svg>