<svg xmlns="http://www.w3.org/2000/svg" xmlns:xlink="http://www.w3.org/1999/xlink" width="381" height="205" viewBox="0 0 381 205" fill="none">
<g>
<mask id="mask0_1_3" maskUnits="userSpaceOnUse" x="15" y="0" width="351" height="205">
<path d="M342.136 0H38.864C25.6843 0 15 12.8816 15 28.7719V176.228C15 192.118 25.6843 205 38.864 205H342.136C355.316 205 366 192.118 366 176.228V28.7719C366 12.8816 355.316 0 342.136 0Z" fill="white"/>
</mask>
<g mask="url(#mask0_1_3)">
<path d="M342.136 0H38.864C25.6843 0 15 12.8816 15 28.7719V176.228C15 192.118 25.6843 205 38.864 205H342.136C355.316 205 366 192.118 366 176.228V28.7719C366 12.8816 355.316 0 342.136 0Z" fill="url(#pattern0_1_3)"/>
</g>
</g>
<defs>












</defs>
</svg>