<svg xmlns="http://www.w3.org/2000/svg" width="330" height="56" viewBox="0 0 330 56" fill="none">
<rect width="330" height="56" rx="8" fill="#1E232C"/>
<path d="M121.993 33V22.5H125.721C126.261 22.5 126.748 22.61 127.183 22.83C127.623 23.05 127.971 23.3675 128.226 23.7825C128.486 24.1925 128.616 24.685 128.616 25.26C128.616 25.54 128.571 25.815 128.481 26.085C128.391 26.355 128.263 26.5925 128.098 26.7975C127.933 27.0025 127.733 27.1475 127.498 27.2325C127.818 27.3125 128.083 27.4575 128.293 27.6675C128.508 27.8725 128.678 28.1125 128.803 28.3875C128.928 28.6625 129.016 28.9475 129.066 29.2425C129.121 29.5375 129.148 29.8175 129.148 30.0825C129.148 30.6425 129.013 31.1425 128.743 31.5825C128.473 32.0225 128.111 32.37 127.656 32.625C127.206 32.875 126.708 33 126.163 33H121.993ZM123.553 31.65H126.013C126.333 31.65 126.623 31.57 126.883 31.41C127.148 31.25 127.358 31.03 127.513 30.75C127.668 30.465 127.746 30.145 127.746 29.79C127.746 29.48 127.668 29.1875 127.513 28.9125C127.358 28.6325 127.148 28.4075 126.883 28.2375C126.623 28.0675 126.333 27.9825 126.013 27.9825H123.553V31.65ZM123.553 26.655H125.556C125.966 26.655 126.318 26.53 126.613 26.28C126.908 26.03 127.056 25.6875 127.056 25.2525C127.056 24.7875 126.908 24.44 126.613 24.21C126.318 23.975 125.966 23.8575 125.556 23.8575H123.553V26.655ZM136.134 25.5H137.694V33H136.126L136.066 31.9125C135.846 32.2975 135.549 32.6075 135.174 32.8425C134.799 33.0775 134.356 33.195 133.846 33.195C133.296 33.195 132.779 33.0925 132.294 32.8875C131.809 32.6775 131.381 32.3875 131.011 32.0175C130.646 31.6475 130.361 31.2225 130.156 30.7425C129.951 30.2575 129.849 29.7375 129.849 29.1825C129.849 28.6475 129.949 28.145 130.149 27.675C130.349 27.2 130.626 26.785 130.981 26.43C131.336 26.075 131.746 25.7975 132.211 25.5975C132.681 25.3925 133.184 25.29 133.719 25.29C134.264 25.29 134.744 25.415 135.159 25.665C135.579 25.91 135.926 26.225 136.201 26.61L136.134 25.5ZM133.809 31.6875C134.249 31.6875 134.634 31.58 134.964 31.365C135.294 31.145 135.549 30.85 135.729 30.48C135.914 30.11 136.006 29.7 136.006 29.25C136.006 28.795 135.914 28.3825 135.729 28.0125C135.544 27.6425 135.286 27.35 134.956 27.135C134.631 26.915 134.249 26.805 133.809 26.805C133.374 26.805 132.976 26.915 132.616 27.135C132.256 27.355 131.971 27.65 131.761 28.02C131.551 28.39 131.446 28.8 131.446 29.25C131.446 29.705 131.554 30.1175 131.769 30.4875C131.989 30.8525 132.276 31.145 132.631 31.365C132.991 31.58 133.384 31.6875 133.809 31.6875ZM143.942 30.87L145.337 31.6275C144.997 32.1025 144.564 32.4825 144.039 32.7675C143.519 33.0525 142.954 33.195 142.344 33.195C141.654 33.195 141.024 33.0175 140.454 32.6625C139.889 32.3075 139.437 31.8325 139.097 31.2375C138.762 30.6375 138.594 29.975 138.594 29.25C138.594 28.7 138.692 28.1875 138.887 27.7125C139.082 27.2325 139.349 26.8125 139.689 26.4525C140.034 26.0875 140.434 25.8025 140.889 25.5975C141.344 25.3925 141.829 25.29 142.344 25.29C142.954 25.29 143.519 25.4325 144.039 25.7175C144.564 26.0025 144.997 26.385 145.337 26.865L143.942 27.6225C143.732 27.3725 143.487 27.1825 143.207 27.0525C142.927 26.9175 142.639 26.85 142.344 26.85C141.934 26.85 141.562 26.9625 141.227 27.1875C140.897 27.4075 140.634 27.7 140.439 28.065C140.249 28.425 140.154 28.82 140.154 29.25C140.154 29.675 140.252 30.07 140.447 30.435C140.642 30.795 140.904 31.085 141.234 31.305C141.569 31.525 141.939 31.635 142.344 31.635C142.654 31.635 142.949 31.565 143.229 31.425C143.509 31.285 143.747 31.1 143.942 30.87ZM152.913 33H151.113L149.268 29.82L148.06 31.26V33H146.5V21.75H148.06V28.8375L150.85 25.5H152.89L150.333 28.5525L152.913 33ZM161.857 27.06H160.282L160.274 33H158.714L158.722 27.06H157.529V25.5H158.722L158.714 23.145H160.274L160.282 25.5H161.857V27.06ZM166.324 33.195C165.634 33.195 165.004 33.0175 164.434 32.6625C163.869 32.3075 163.416 31.8325 163.076 31.2375C162.741 30.6375 162.574 29.975 162.574 29.25C162.574 28.7 162.671 28.1875 162.866 27.7125C163.061 27.2325 163.329 26.8125 163.669 26.4525C164.014 26.0875 164.414 25.8025 164.869 25.5975C165.324 25.3925 165.809 25.29 166.324 25.29C167.014 25.29 167.641 25.4675 168.206 25.8225C168.776 26.1775 169.229 26.655 169.564 27.255C169.904 27.855 170.074 28.52 170.074 29.25C170.074 29.795 169.976 30.305 169.781 30.78C169.586 31.255 169.316 31.675 168.971 32.04C168.631 32.4 168.234 32.6825 167.779 32.8875C167.329 33.0925 166.844 33.195 166.324 33.195ZM166.324 31.635C166.739 31.635 167.111 31.525 167.441 31.305C167.771 31.085 168.031 30.795 168.221 30.435C168.416 30.07 168.514 29.675 168.514 29.25C168.514 28.815 168.414 28.415 168.214 28.05C168.019 27.685 167.756 27.395 167.426 27.18C167.096 26.96 166.729 26.85 166.324 26.85C165.914 26.85 165.541 26.96 165.206 27.18C164.876 27.4 164.614 27.6925 164.419 28.0575C164.229 28.4225 164.134 28.82 164.134 29.25C164.134 29.695 164.234 30.0975 164.434 30.4575C164.634 30.8175 164.899 31.105 165.229 31.32C165.564 31.53 165.929 31.635 166.324 31.635ZM175.021 33V22.5H176.581V31.44H181.103V33H175.021ZM185.381 33.195C184.691 33.195 184.061 33.0175 183.491 32.6625C182.926 32.3075 182.474 31.8325 182.134 31.2375C181.799 30.6375 181.631 29.975 181.631 29.25C181.631 28.7 181.729 28.1875 181.924 27.7125C182.119 27.2325 182.386 26.8125 182.726 26.4525C183.071 26.0875 183.471 25.8025 183.926 25.5975C184.381 25.3925 184.866 25.29 185.381 25.29C186.071 25.29 186.699 25.4675 187.264 25.8225C187.834 26.1775 188.286 26.655 188.621 27.255C188.961 27.855 189.131 28.52 189.131 29.25C189.131 29.795 189.034 30.305 188.839 30.78C188.644 31.255 188.374 31.675 188.029 32.04C187.689 32.4 187.291 32.6825 186.836 32.8875C186.386 33.0925 185.901 33.195 185.381 33.195ZM185.381 31.635C185.796 31.635 186.169 31.525 186.499 31.305C186.829 31.085 187.089 30.795 187.279 30.435C187.474 30.07 187.571 29.675 187.571 29.25C187.571 28.815 187.471 28.415 187.271 28.05C187.076 27.685 186.814 27.395 186.484 27.18C186.154 26.96 185.786 26.85 185.381 26.85C184.971 26.85 184.599 26.96 184.264 27.18C183.934 27.4 183.671 27.6925 183.476 28.0575C183.286 28.4225 183.191 28.82 183.191 29.25C183.191 29.695 183.291 30.0975 183.491 30.4575C183.691 30.8175 183.956 31.105 184.286 31.32C184.621 31.53 184.986 31.635 185.381 31.635ZM196.036 25.5H197.596V33.195C197.596 33.71 197.486 34.185 197.266 34.62C197.051 35.055 196.758 35.43 196.388 35.745C196.018 36.065 195.593 36.3125 195.113 36.4875C194.638 36.6625 194.141 36.75 193.621 36.75C193.096 36.75 192.591 36.6375 192.106 36.4125C191.621 36.1925 191.193 35.8925 190.823 35.5125C190.458 35.1325 190.186 34.7025 190.006 34.2225L191.438 33.5775C191.538 33.8875 191.698 34.1625 191.918 34.4025C192.143 34.6425 192.403 34.8325 192.698 34.9725C192.998 35.1125 193.306 35.1825 193.621 35.1825C193.931 35.1825 194.228 35.1325 194.513 35.0325C194.803 34.9375 195.061 34.8025 195.286 34.6275C195.516 34.4525 195.698 34.2425 195.833 33.9975C195.968 33.7525 196.036 33.485 196.036 33.195V31.9275C195.791 32.3075 195.476 32.615 195.091 32.85C194.706 33.08 194.258 33.195 193.748 33.195C193.218 33.195 192.718 33.0925 192.248 32.8875C191.778 32.6825 191.366 32.4 191.011 32.04C190.656 31.675 190.378 31.255 190.178 30.78C189.978 30.305 189.878 29.795 189.878 29.25C189.878 28.705 189.978 28.195 190.178 27.72C190.378 27.24 190.656 26.82 191.011 26.46C191.366 26.095 191.778 25.81 192.248 25.605C192.718 25.4 193.218 25.2975 193.748 25.2975C194.258 25.2975 194.706 25.415 195.091 25.65C195.476 25.88 195.791 26.1875 196.036 26.5725V25.5ZM193.763 31.6875C194.198 31.6875 194.578 31.5775 194.903 31.3575C195.228 31.1325 195.481 30.835 195.661 30.465C195.841 30.095 195.931 29.69 195.931 29.25C195.931 28.8 195.838 28.3925 195.653 28.0275C195.473 27.6575 195.221 27.3625 194.896 27.1425C194.571 26.9175 194.193 26.805 193.763 26.805C193.343 26.805 192.958 26.915 192.608 27.135C192.263 27.355 191.988 27.65 191.783 28.02C191.578 28.39 191.476 28.8 191.476 29.25C191.476 29.7 191.578 30.11 191.783 30.48C191.993 30.85 192.271 31.145 192.616 31.365C192.966 31.58 193.348 31.6875 193.763 31.6875ZM199.264 25.5H200.824V33H199.264V25.5ZM200.059 24.4125C199.819 24.4125 199.619 24.335 199.459 24.18C199.299 24.025 199.219 23.83 199.219 23.595C199.219 23.365 199.299 23.1725 199.459 23.0175C199.619 22.8575 199.816 22.7775 200.051 22.7775C200.281 22.7775 200.476 22.8575 200.636 23.0175C200.796 23.1725 200.876 23.365 200.876 23.595C200.876 23.83 200.796 24.025 200.636 24.18C200.481 24.335 200.289 24.4125 200.059 24.4125ZM209.31 28.2975V33H207.75V28.68C207.75 28.345 207.667 28.04 207.502 27.765C207.342 27.49 207.125 27.2725 206.85 27.1125C206.58 26.9475 206.275 26.865 205.935 26.865C205.605 26.865 205.302 26.9475 205.027 27.1125C204.752 27.2725 204.532 27.49 204.367 27.765C204.202 28.04 204.12 28.345 204.12 28.68V33H202.56V25.5H204.12V26.295C204.38 25.985 204.7 25.74 205.08 25.56C205.46 25.38 205.87 25.29 206.31 25.29C206.865 25.29 207.37 25.425 207.825 25.695C208.28 25.965 208.64 26.3275 208.905 26.7825C209.175 27.2375 209.31 27.7425 209.31 28.2975Z" fill="white"/>
</svg>