<svg xmlns="http://www.w3.org/2000/svg" width="330" height="56" viewBox="0 0 330 56" fill="none">
<rect width="330" height="56" rx="8" fill="#1E232C"/>
<path d="M133.133 33.195C132.558 33.195 132.006 33.105 131.476 32.925C130.946 32.745 130.483 32.4875 130.088 32.1525C129.693 31.8125 129.411 31.41 129.241 30.945L130.703 30.3975C130.788 30.6375 130.951 30.8525 131.191 31.0425C131.436 31.2275 131.726 31.3725 132.061 31.4775C132.401 31.5825 132.758 31.635 133.133 31.635C133.533 31.635 133.908 31.57 134.258 31.44C134.613 31.31 134.898 31.13 135.113 30.9C135.333 30.67 135.443 30.4 135.443 30.09C135.443 29.77 135.328 29.5075 135.098 29.3025C134.873 29.0975 134.583 28.935 134.228 28.815C133.878 28.695 133.513 28.605 133.133 28.545C132.398 28.425 131.738 28.25 131.153 28.02C130.573 27.79 130.113 27.4675 129.773 27.0525C129.438 26.6375 129.271 26.0975 129.271 25.4325C129.271 24.8075 129.448 24.2625 129.803 23.7975C130.163 23.3325 130.636 22.9725 131.221 22.7175C131.811 22.4575 132.448 22.3275 133.133 22.3275C133.698 22.3275 134.243 22.4175 134.768 22.5975C135.298 22.7725 135.763 23.03 136.163 23.37C136.568 23.705 136.858 24.1125 137.033 24.5925L135.556 25.125C135.471 24.88 135.308 24.6675 135.068 24.4875C134.828 24.3025 134.538 24.1575 134.198 24.0525C133.863 23.9475 133.508 23.895 133.133 23.895C132.733 23.89 132.358 23.955 132.008 24.09C131.663 24.22 131.381 24.4 131.161 24.63C130.941 24.86 130.831 25.1275 130.831 25.4325C130.831 25.8075 130.933 26.0925 131.138 26.2875C131.343 26.4825 131.618 26.6275 131.963 26.7225C132.313 26.8125 132.703 26.895 133.133 26.97C133.823 27.08 134.461 27.2625 135.046 27.5175C135.636 27.7725 136.108 28.1125 136.463 28.5375C136.823 28.9575 137.003 29.475 137.003 30.09C137.003 30.71 136.823 31.255 136.463 31.725C136.108 32.19 135.636 32.5525 135.046 32.8125C134.461 33.0675 133.823 33.195 133.133 33.195ZM141.787 33.195C141.097 33.195 140.467 33.0175 139.897 32.6625C139.332 32.3075 138.88 31.8325 138.54 31.2375C138.205 30.6375 138.037 29.975 138.037 29.25C138.037 28.7 138.135 28.1875 138.33 27.7125C138.525 27.2325 138.792 26.8125 139.132 26.4525C139.477 26.0875 139.877 25.8025 140.332 25.5975C140.787 25.3925 141.272 25.29 141.787 25.29C142.362 25.29 142.89 25.41 143.37 25.65C143.85 25.885 144.26 26.2125 144.6 26.6325C144.94 27.0475 145.19 27.5275 145.35 28.0725C145.51 28.6125 145.557 29.1875 145.492 29.7975H139.71C139.775 30.1425 139.9 30.455 140.085 30.735C140.275 31.01 140.515 31.2275 140.805 31.3875C141.1 31.5475 141.427 31.63 141.787 31.635C142.167 31.635 142.512 31.54 142.822 31.35C143.137 31.16 143.395 30.8975 143.595 30.5625L145.177 30.93C144.877 31.595 144.425 32.14 143.82 32.565C143.215 32.985 142.537 33.195 141.787 33.195ZM139.657 28.605H143.917C143.867 28.245 143.74 27.92 143.535 27.63C143.335 27.335 143.082 27.1025 142.777 26.9325C142.477 26.7575 142.147 26.67 141.787 26.67C141.432 26.67 141.102 26.755 140.797 26.925C140.497 27.095 140.247 27.3275 140.047 27.6225C139.852 27.9125 139.722 28.24 139.657 28.605ZM153.484 28.2975V33H151.924V28.68C151.924 28.345 151.842 28.04 151.677 27.765C151.517 27.49 151.299 27.2725 151.024 27.1125C150.754 26.9475 150.449 26.865 150.109 26.865C149.779 26.865 149.477 26.9475 149.202 27.1125C148.927 27.2725 148.707 27.49 148.542 27.765C148.377 28.04 148.294 28.345 148.294 28.68V33H146.734V25.5H148.294V26.295C148.554 25.985 148.874 25.74 149.254 25.56C149.634 25.38 150.044 25.29 150.484 25.29C151.039 25.29 151.544 25.425 151.999 25.695C152.454 25.965 152.814 26.3275 153.079 26.7825C153.349 27.2375 153.484 27.7425 153.484 28.2975ZM160.678 21.75H162.238V33H160.678V31.8975C160.433 32.2875 160.113 32.6025 159.718 32.8425C159.323 33.0775 158.86 33.195 158.33 33.195C157.785 33.195 157.275 33.0925 156.8 32.8875C156.325 32.6825 155.905 32.4 155.54 32.04C155.18 31.675 154.898 31.255 154.693 30.78C154.488 30.305 154.385 29.795 154.385 29.25C154.385 28.705 154.488 28.195 154.693 27.72C154.898 27.24 155.18 26.82 155.54 26.46C155.905 26.095 156.325 25.81 156.8 25.605C157.275 25.4 157.785 25.2975 158.33 25.2975C158.86 25.2975 159.323 25.4175 159.718 25.6575C160.113 25.8925 160.433 26.2025 160.678 26.5875V21.75ZM158.345 31.6875C158.785 31.6875 159.17 31.58 159.5 31.365C159.83 31.145 160.085 30.85 160.265 30.48C160.45 30.11 160.543 29.7 160.543 29.25C160.543 28.795 160.45 28.3825 160.265 28.0125C160.08 27.6425 159.823 27.35 159.493 27.135C159.168 26.915 158.785 26.805 158.345 26.805C157.91 26.805 157.513 26.915 157.153 27.135C156.798 27.355 156.513 27.65 156.298 28.02C156.088 28.39 155.983 28.8 155.983 29.25C155.983 29.705 156.09 30.1175 156.305 30.4875C156.525 30.8525 156.813 31.145 157.168 31.365C157.528 31.58 157.92 31.6875 158.345 31.6875ZM172.498 33.195C171.788 33.195 171.12 33.055 170.495 32.775C169.87 32.49 169.32 32.1 168.845 31.605C168.375 31.105 168.005 30.525 167.735 29.865C167.47 29.205 167.338 28.5 167.338 27.75C167.338 27 167.47 26.295 167.735 25.635C168.005 24.975 168.375 24.3975 168.845 23.9025C169.32 23.4025 169.87 23.0125 170.495 22.7325C171.12 22.4475 171.788 22.305 172.498 22.305C173.348 22.305 174.13 22.5025 174.845 22.8975C175.56 23.2925 176.153 23.8175 176.623 24.4725L175.235 25.215C174.91 24.805 174.508 24.4775 174.028 24.2325C173.548 23.9875 173.038 23.865 172.498 23.865C171.998 23.865 171.53 23.9675 171.095 24.1725C170.66 24.3775 170.278 24.6575 169.948 25.0125C169.618 25.3675 169.36 25.78 169.175 26.25C168.99 26.72 168.898 27.22 168.898 27.75C168.898 28.285 168.99 28.7875 169.175 29.2575C169.36 29.7225 169.618 30.135 169.948 30.495C170.283 30.85 170.668 31.13 171.103 31.335C171.538 31.535 172.003 31.635 172.498 31.635C173.048 31.635 173.56 31.5125 174.035 31.2675C174.515 31.0175 174.915 30.6875 175.235 30.2775L176.623 31.035C176.153 31.69 175.56 32.215 174.845 32.61C174.13 33 173.348 33.195 172.498 33.195ZM180.987 33.195C180.297 33.195 179.667 33.0175 179.097 32.6625C178.532 32.3075 178.079 31.8325 177.739 31.2375C177.404 30.6375 177.237 29.975 177.237 29.25C177.237 28.7 177.334 28.1875 177.529 27.7125C177.724 27.2325 177.992 26.8125 178.332 26.4525C178.677 26.0875 179.077 25.8025 179.532 25.5975C179.987 25.3925 180.472 25.29 180.987 25.29C181.677 25.29 182.304 25.4675 182.869 25.8225C183.439 26.1775 183.892 26.655 184.227 27.255C184.567 27.855 184.737 28.52 184.737 29.25C184.737 29.795 184.639 30.305 184.444 30.78C184.249 31.255 183.979 31.675 183.634 32.04C183.294 32.4 182.897 32.6825 182.442 32.8875C181.992 33.0925 181.507 33.195 180.987 33.195ZM180.987 31.635C181.402 31.635 181.774 31.525 182.104 31.305C182.434 31.085 182.694 30.795 182.884 30.435C183.079 30.07 183.177 29.675 183.177 29.25C183.177 28.815 183.077 28.415 182.877 28.05C182.682 27.685 182.419 27.395 182.089 27.18C181.759 26.96 181.392 26.85 180.987 26.85C180.577 26.85 180.204 26.96 179.869 27.18C179.539 27.4 179.277 27.6925 179.082 28.0575C178.892 28.4225 178.797 28.82 178.797 29.25C178.797 29.695 178.897 30.0975 179.097 30.4575C179.297 30.8175 179.562 31.105 179.892 31.32C180.227 31.53 180.592 31.635 180.987 31.635ZM191.776 21.75H193.336V33H191.776V31.8975C191.531 32.2875 191.211 32.6025 190.816 32.8425C190.421 33.0775 189.959 33.195 189.429 33.195C188.884 33.195 188.374 33.0925 187.899 32.8875C187.424 32.6825 187.004 32.4 186.639 32.04C186.279 31.675 185.996 31.255 185.791 30.78C185.586 30.305 185.484 29.795 185.484 29.25C185.484 28.705 185.586 28.195 185.791 27.72C185.996 27.24 186.279 26.82 186.639 26.46C187.004 26.095 187.424 25.81 187.899 25.605C188.374 25.4 188.884 25.2975 189.429 25.2975C189.959 25.2975 190.421 25.4175 190.816 25.6575C191.211 25.8925 191.531 26.2025 191.776 26.5875V21.75ZM189.444 31.6875C189.884 31.6875 190.269 31.58 190.599 31.365C190.929 31.145 191.184 30.85 191.364 30.48C191.549 30.11 191.641 29.7 191.641 29.25C191.641 28.795 191.549 28.3825 191.364 28.0125C191.179 27.6425 190.921 27.35 190.591 27.135C190.266 26.915 189.884 26.805 189.444 26.805C189.009 26.805 188.611 26.915 188.251 27.135C187.896 27.355 187.611 27.65 187.396 28.02C187.186 28.39 187.081 28.8 187.081 29.25C187.081 29.705 187.189 30.1175 187.404 30.4875C187.624 30.8525 187.911 31.145 188.266 31.365C188.626 31.58 189.019 31.6875 189.444 31.6875ZM198.33 33.195C197.64 33.195 197.01 33.0175 196.44 32.6625C195.875 32.3075 195.423 31.8325 195.083 31.2375C194.748 30.6375 194.58 29.975 194.58 29.25C194.58 28.7 194.678 28.1875 194.873 27.7125C195.068 27.2325 195.335 26.8125 195.675 26.4525C196.02 26.0875 196.42 25.8025 196.875 25.5975C197.33 25.3925 197.815 25.29 198.33 25.29C198.905 25.29 199.433 25.41 199.913 25.65C200.393 25.885 200.803 26.2125 201.143 26.6325C201.483 27.0475 201.733 27.5275 201.893 28.0725C202.053 28.6125 202.1 29.1875 202.035 29.7975H196.253C196.318 30.1425 196.443 30.455 196.628 30.735C196.818 31.01 197.058 31.2275 197.348 31.3875C197.643 31.5475 197.97 31.63 198.33 31.635C198.71 31.635 199.055 31.54 199.365 31.35C199.68 31.16 199.938 30.8975 200.138 30.5625L201.72 30.93C201.42 31.595 200.968 32.14 200.363 32.565C199.758 32.985 199.08 33.195 198.33 33.195ZM196.2 28.605H200.46C200.41 28.245 200.283 27.92 200.078 27.63C199.878 27.335 199.625 27.1025 199.32 26.9325C199.02 26.7575 198.69 26.67 198.33 26.67C197.975 26.67 197.645 26.755 197.34 26.925C197.04 27.095 196.79 27.3275 196.59 27.6225C196.395 27.9125 196.265 28.24 196.2 28.605Z" fill="white"/>
</svg>