<svg xmlns="http://www.w3.org/2000/svg" width="346" height="154" viewBox="0 0 346 154" fill="none">
<path fill-rule="evenodd" clip-rule="evenodd" d="M40.9543 34.9478L33.9543 46.9478H47.9543L40.9543 34.9478ZM40.9543 38.917L37.4364 44.9478H44.4722L40.9543 38.917Z" fill="#1C1B1F"/>
<path d="M27.9684 62.5862V65.2489C27.8638 65.375 27.7023 65.512 27.4839 65.6596C27.2654 65.8042 26.9839 65.9288 26.6394 66.0334C26.2948 66.138 25.8779 66.1903 25.3888 66.1903C24.955 66.1903 24.5597 66.1196 24.2028 65.978C23.8459 65.8334 23.5383 65.6227 23.2798 65.3458C23.0245 65.0689 22.8276 64.7305 22.6892 64.3306C22.5507 63.9276 22.4815 63.4676 22.4815 62.9508V62.5308C22.4815 62.014 22.5476 61.554 22.6799 61.151C22.8153 60.748 23.0076 60.4081 23.2568 60.1312C23.506 59.8543 23.8028 59.6435 24.1474 59.4989C24.492 59.3544 24.875 59.2821 25.2965 59.2821C25.881 59.2821 26.3609 59.3774 26.7363 59.5682C27.1116 59.7558 27.3977 60.0173 27.5946 60.3527C27.7946 60.6849 27.9177 61.0664 27.9638 61.4971H26.6209C26.5871 61.2695 26.5225 61.071 26.4271 60.9018C26.3317 60.7326 26.1948 60.6003 26.0164 60.505C25.841 60.4096 25.6134 60.3619 25.3334 60.3619C25.1027 60.3619 24.8965 60.4096 24.715 60.505C24.5366 60.5973 24.3858 60.7342 24.2628 60.9157C24.1397 61.0972 24.0459 61.3218 23.9813 61.5894C23.9167 61.8571 23.8844 62.1678 23.8844 62.5216V62.9508C23.8844 63.3015 23.9182 63.6122 23.9859 63.8829C24.0536 64.1506 24.1536 64.3767 24.2859 64.5613C24.4212 64.7428 24.5873 64.8797 24.7842 64.972C24.9811 65.0643 25.2103 65.1105 25.4718 65.1105C25.6903 65.1105 25.8718 65.092 26.0164 65.0551C26.164 65.0182 26.2825 64.9736 26.3717 64.9213C26.464 64.8659 26.5348 64.8136 26.584 64.7644V63.5738H25.3196V62.5862H27.9684ZM30.405 61.1049V66.098H29.0713V61.1049H30.405ZM28.9883 59.8035C28.9883 59.6097 29.056 59.4497 29.1913 59.3236C29.3267 59.1975 29.5082 59.1344 29.7359 59.1344C29.9604 59.1344 30.1404 59.1975 30.2758 59.3236C30.4142 59.4497 30.4834 59.6097 30.4834 59.8035C30.4834 59.9973 30.4142 60.1573 30.2758 60.2835C30.1404 60.4096 29.9604 60.4727 29.7359 60.4727C29.5082 60.4727 29.3267 60.4096 29.1913 60.2835C29.056 60.1573 28.9883 59.9973 28.9883 59.8035ZM33.1969 66.098H31.8586V60.6619C31.8586 60.2835 31.9325 59.965 32.0801 59.7066C32.2309 59.4451 32.4416 59.2482 32.7124 59.1159C32.9862 58.9806 33.3107 58.9129 33.6861 58.9129C33.8091 58.9129 33.9276 58.9221 34.0414 58.9406C34.1552 58.9559 34.266 58.9759 34.3737 59.0006L34.3598 60.002C34.3014 59.9866 34.2398 59.9758 34.1752 59.9697C34.1106 59.9635 34.0353 59.9604 33.9491 59.9604C33.7891 59.9604 33.6522 59.9881 33.5384 60.0435C33.4276 60.0958 33.343 60.1742 33.2846 60.2788C33.2261 60.3834 33.1969 60.5111 33.1969 60.6619V66.098ZM34.1937 61.1049V62.0463H31.1157V61.1049H34.1937ZM37.3363 61.1049V62.0463H34.429V61.1049H37.3363ZM35.1489 59.8727H36.478V64.5936C36.478 64.7382 36.4964 64.849 36.5334 64.9259C36.5734 65.0028 36.6318 65.0566 36.7087 65.0874C36.7856 65.1151 36.8825 65.1289 36.9995 65.1289C37.0825 65.1289 37.1564 65.1259 37.221 65.1197C37.2886 65.1105 37.3456 65.1012 37.3917 65.092L37.3963 66.0703C37.2825 66.1073 37.1594 66.1365 37.0271 66.158C36.8949 66.1795 36.7487 66.1903 36.5887 66.1903C36.2965 66.1903 36.0411 66.1426 35.8227 66.0473C35.6073 65.9488 35.4412 65.7919 35.3243 65.5766C35.2074 65.3612 35.1489 65.0782 35.1489 64.7274V59.8727ZM44.4246 63.8691H45.8044C45.7767 64.3213 45.6521 64.7228 45.4306 65.0736C45.2121 65.4243 44.906 65.6981 44.5122 65.895C44.1215 66.0919 43.6508 66.1903 43.1001 66.1903C42.6694 66.1903 42.2833 66.1165 41.9418 65.9688C41.6003 65.8181 41.3081 65.6027 41.065 65.3227C40.8251 65.0428 40.642 64.7044 40.5159 64.3075C40.3897 63.9106 40.3267 63.4661 40.3267 62.9738V62.5078C40.3267 62.0155 40.3913 61.571 40.5205 61.1741C40.6528 60.7742 40.8405 60.4342 41.0835 60.1542C41.3296 59.8743 41.6234 59.6589 41.9649 59.5082C42.3064 59.3574 42.6879 59.2821 43.1094 59.2821C43.6693 59.2821 44.1415 59.3836 44.5261 59.5866C44.9137 59.7897 45.2137 60.0696 45.426 60.4265C45.6413 60.7834 45.7705 61.1895 45.8136 61.6448H44.4292C44.4138 61.3741 44.36 61.1449 44.2677 60.9572C44.1754 60.7665 44.0354 60.6234 43.8477 60.528C43.6631 60.4296 43.417 60.3804 43.1094 60.3804C42.8786 60.3804 42.6771 60.4234 42.5048 60.5096C42.3326 60.5957 42.188 60.7265 42.0711 60.9018C41.9541 61.0772 41.8665 61.2987 41.808 61.5663C41.7526 61.8309 41.7249 62.1417 41.7249 62.4985V62.9738C41.7249 63.3215 41.7511 63.6276 41.8034 63.8922C41.8557 64.1537 41.9357 64.3752 42.0434 64.5567C42.1541 64.7351 42.2956 64.8705 42.4679 64.9628C42.6433 65.052 42.854 65.0966 43.1001 65.0966C43.3893 65.0966 43.6278 65.0505 43.8154 64.9582C44.0031 64.8659 44.1461 64.729 44.2446 64.5475C44.3461 64.366 44.4061 64.1398 44.4246 63.8691ZM49.3254 64.972V62.7477C49.3254 62.5877 49.2993 62.4508 49.247 62.337C49.1947 62.2201 49.1131 62.1293 49.0024 62.0647C48.8947 62.0001 48.7547 61.9678 48.5824 61.9678C48.4348 61.9678 48.3071 61.994 48.1994 62.0463C48.0917 62.0955 48.0087 62.1678 47.9502 62.2632C47.8918 62.3555 47.8625 62.4647 47.8625 62.5908H46.5335C46.5335 62.3785 46.5827 62.177 46.6812 61.9863C46.7796 61.7955 46.9227 61.6279 47.1103 61.4833C47.298 61.3356 47.5211 61.2202 47.7795 61.1372C48.041 61.0541 48.3333 61.0126 48.6563 61.0126C49.0439 61.0126 49.3885 61.0772 49.69 61.2064C49.9915 61.3356 50.2284 61.5294 50.4007 61.7879C50.576 62.0463 50.6637 62.3693 50.6637 62.757V64.8936C50.6637 65.1674 50.6806 65.392 50.7145 65.5673C50.7483 65.7396 50.7975 65.8904 50.8621 66.0196V66.098H49.5192C49.4546 65.9627 49.4054 65.7934 49.3716 65.5904C49.3408 65.3843 49.3254 65.1782 49.3254 64.972ZM49.5008 63.0569L49.51 63.8091H48.767C48.5917 63.8091 48.4394 63.8291 48.3102 63.8691C48.181 63.9091 48.0748 63.966 47.9918 64.0398C47.9087 64.1106 47.8472 64.1937 47.8072 64.289C47.7703 64.3844 47.7518 64.489 47.7518 64.6028C47.7518 64.7167 47.7779 64.8197 47.8302 64.912C47.8825 65.0013 47.9579 65.072 48.0564 65.1243C48.1548 65.1735 48.2702 65.1981 48.4025 65.1981C48.6024 65.1981 48.7763 65.1582 48.9239 65.0782C49.0716 64.9982 49.1854 64.8997 49.2654 64.7828C49.3485 64.6659 49.3916 64.5552 49.3946 64.4506L49.7454 65.0136C49.6961 65.1397 49.6285 65.2704 49.5423 65.4058C49.4592 65.5412 49.3531 65.6689 49.2239 65.7888C49.0947 65.9057 48.9393 66.0027 48.7578 66.0796C48.5763 66.1534 48.3609 66.1903 48.1117 66.1903C47.7949 66.1903 47.5072 66.1272 47.2488 66.0011C46.9934 65.8719 46.7904 65.695 46.6396 65.4704C46.492 65.2428 46.4181 64.9843 46.4181 64.6951C46.4181 64.4336 46.4674 64.2014 46.5658 63.9983C46.6643 63.7953 46.8088 63.6245 46.9996 63.4861C47.1934 63.3446 47.4349 63.2384 47.7241 63.1677C48.0133 63.0938 48.3486 63.0569 48.7301 63.0569H49.5008ZM53.0172 62.194V66.098H51.6882V61.1049H52.9388L53.0172 62.194ZM54.5216 61.0726L54.4985 62.3047C54.4339 62.2955 54.3555 62.2878 54.2632 62.2816C54.174 62.2724 54.0924 62.2678 54.0186 62.2678C53.8309 62.2678 53.6679 62.2924 53.5294 62.3416C53.3941 62.3878 53.2802 62.457 53.188 62.5493C53.0987 62.6416 53.0311 62.7539 52.9849 62.8862C52.9418 63.0185 52.9172 63.1692 52.9111 63.3384L52.6434 63.2553C52.6434 62.9323 52.6757 62.6354 52.7403 62.3647C52.8049 62.0909 52.8988 61.8525 53.0218 61.6494C53.148 61.4464 53.3018 61.2895 53.4833 61.1787C53.6648 61.068 53.8725 61.0126 54.1063 61.0126C54.1801 61.0126 54.2555 61.0187 54.3324 61.031C54.4093 61.0403 54.4724 61.0541 54.5216 61.0726ZM58.0057 65.0089V59.0098H59.344V66.098H58.1396L58.0057 65.0089ZM54.8493 63.6614V63.5645C54.8493 63.183 54.8923 62.8369 54.9785 62.5262C55.0646 62.2124 55.1907 61.9432 55.3569 61.7186C55.523 61.4941 55.7276 61.3202 55.9706 61.1972C56.2137 61.0741 56.4906 61.0126 56.8013 61.0126C57.0936 61.0126 57.3489 61.0741 57.5673 61.1972C57.7888 61.3202 57.9765 61.4956 58.1303 61.7233C58.2872 61.9478 58.4134 62.214 58.5087 62.5216C58.6041 62.8262 58.6733 63.16 58.7164 63.523V63.7353C58.6733 64.0829 58.6041 64.406 58.5087 64.7044C58.4134 65.0028 58.2872 65.2643 58.1303 65.4889C57.9765 65.7104 57.7888 65.8827 57.5673 66.0057C57.3458 66.1288 57.0874 66.1903 56.7921 66.1903C56.4813 66.1903 56.2045 66.1272 55.9614 66.0011C55.7214 65.875 55.5184 65.6981 55.3523 65.4704C55.1892 65.2428 55.0646 64.9751 54.9785 64.6675C54.8923 64.3598 54.8493 64.0245 54.8493 63.6614ZM56.1783 63.5645V63.6614C56.1783 63.8676 56.1937 64.0598 56.2244 64.2383C56.2583 64.4167 56.3121 64.5752 56.386 64.7136C56.4629 64.849 56.5613 64.9551 56.6813 65.032C56.8044 65.1059 56.9536 65.1428 57.1289 65.1428C57.3566 65.1428 57.5443 65.092 57.6919 64.9905C57.8396 64.8859 57.9519 64.7428 58.0288 64.5613C58.1088 64.3798 58.1549 64.1706 58.1673 63.9337V63.3292C58.158 63.1354 58.1303 62.9615 58.0842 62.8077C58.0411 62.6508 57.9765 62.517 57.8904 62.4062C57.8073 62.2955 57.7027 62.2093 57.5766 62.1478C57.4535 62.0863 57.3074 62.0555 57.1382 62.0555C56.9659 62.0555 56.8182 62.0955 56.6952 62.1755C56.5721 62.2524 56.4721 62.3585 56.3952 62.4939C56.3214 62.6293 56.266 62.7893 56.2291 62.9738C56.1952 63.1554 56.1783 63.3523 56.1783 63.5645Z" fill="#595F67"/>
<circle cx="128.731" cy="38.3466" r="6.30066" fill="#BCE2FE"/>
<g clip-path="url(#clip0_4_3164)">
<path fill-rule="evenodd" clip-rule="evenodd" d="M125.737 33.3804C125.254 33.3804 124.862 33.7721 124.862 34.2553C124.862 34.7385 125.254 35.1303 125.737 35.1303C126.22 35.1303 126.612 34.7385 126.612 34.2553C126.612 33.7721 126.22 33.3804 125.737 33.3804ZM123.261 33.3804C123.622 32.361 124.594 31.6306 125.737 31.6306C126.88 31.6306 127.852 32.361 128.212 33.3804H134.486C134.969 33.3804 135.361 33.7721 135.361 34.2553C135.361 34.7385 134.969 35.1303 134.486 35.1303H128.212C127.852 36.1497 126.88 36.8801 125.737 36.8801C124.594 36.8801 123.622 36.1497 123.261 35.1303H122.237C121.754 35.1303 121.362 34.7385 121.362 34.2553C121.362 33.7721 121.754 33.3804 122.237 33.3804H123.261ZM130.986 38.6299C130.503 38.6299 130.111 39.0216 130.111 39.5048C130.111 39.988 130.503 40.3797 130.986 40.3797C131.469 40.3797 131.861 39.988 131.861 39.5048C131.861 39.0216 131.469 38.6299 130.986 38.6299ZM128.511 38.6299C128.871 37.6105 129.843 36.8801 130.986 36.8801C132.129 36.8801 133.101 37.6105 133.462 38.6299H134.486C134.969 38.6299 135.361 39.0216 135.361 39.5048C135.361 39.988 134.969 40.3797 134.486 40.3797H133.462C133.101 41.3991 132.129 42.1295 130.986 42.1295C129.843 42.1295 128.871 41.3991 128.511 40.3797H122.237C121.754 40.3797 121.362 39.988 121.362 39.5048C121.362 39.0216 121.754 38.6299 122.237 38.6299H128.511ZM125.737 43.8793C125.254 43.8793 124.862 44.2711 124.862 44.7543C124.862 45.2375 125.254 45.6292 125.737 45.6292C126.22 45.6292 126.612 45.2375 126.612 44.7543C126.612 44.2711 126.22 43.8793 125.737 43.8793ZM123.261 43.8793C123.622 42.8599 124.594 42.1295 125.737 42.1295C126.88 42.1295 127.852 42.8599 128.212 43.8793H134.486C134.969 43.8793 135.361 44.2711 135.361 44.7543C135.361 45.2375 134.969 45.6292 134.486 45.6292H128.212C127.852 46.6486 126.88 47.379 125.737 47.379C124.594 47.379 123.622 46.6486 123.261 45.6292H122.237C121.754 45.6292 121.362 45.2375 121.362 44.7543C121.362 44.2711 121.754 43.8793 122.237 43.8793H123.261Z" fill="#020202"/>
</g>
<path d="M115.652 61.3398C115.652 61.2198 115.634 61.1121 115.597 61.0168C115.563 60.9183 115.498 60.8291 115.403 60.7491C115.308 60.6661 115.174 60.5845 115.001 60.5045C114.829 60.4246 114.606 60.3415 114.332 60.2553C114.028 60.1569 113.739 60.0461 113.465 59.9231C113.194 59.8 112.954 59.657 112.745 59.4939C112.539 59.3278 112.376 59.1355 112.256 58.9171C112.139 58.6986 112.08 58.4448 112.08 58.1556C112.08 57.8757 112.142 57.6219 112.265 57.3942C112.388 57.1635 112.56 56.9666 112.782 56.8035C113.003 56.6374 113.265 56.5097 113.566 56.4205C113.871 56.3313 114.205 56.2867 114.568 56.2867C115.063 56.2867 115.495 56.3759 115.864 56.5543C116.234 56.7328 116.52 56.9773 116.723 57.2881C116.929 57.5988 117.032 57.9541 117.032 58.3541H115.657C115.657 58.1572 115.615 57.9849 115.532 57.8372C115.452 57.6865 115.329 57.568 115.163 57.4819C115 57.3957 114.794 57.3527 114.545 57.3527C114.305 57.3527 114.105 57.3896 113.945 57.4634C113.785 57.5342 113.665 57.6311 113.585 57.7542C113.505 57.8741 113.465 58.0095 113.465 58.1603C113.465 58.2741 113.492 58.3771 113.548 58.4694C113.606 58.5617 113.692 58.6479 113.806 58.7279C113.92 58.8079 114.06 58.8832 114.226 58.954C114.392 59.0247 114.585 59.094 114.803 59.1617C115.169 59.2724 115.491 59.397 115.768 59.5354C116.048 59.6739 116.281 59.8292 116.469 60.0015C116.657 60.1738 116.798 60.3692 116.894 60.5876C116.989 60.806 117.037 61.0537 117.037 61.3306C117.037 61.6228 116.98 61.8843 116.866 62.1151C116.752 62.3458 116.587 62.5412 116.372 62.7012C116.157 62.8611 115.9 62.9827 115.601 63.0657C115.303 63.1488 114.969 63.1903 114.6 63.1903C114.268 63.1903 113.94 63.1472 113.617 63.0611C113.294 62.9719 113 62.8381 112.736 62.6596C112.474 62.4812 112.265 62.2535 112.108 61.9766C111.951 61.6998 111.873 61.3721 111.873 60.9937H113.262C113.262 61.2029 113.294 61.3798 113.359 61.5244C113.423 61.669 113.514 61.7859 113.631 61.8751C113.751 61.9643 113.892 62.0289 114.055 62.0689C114.222 62.1089 114.403 62.1289 114.6 62.1289C114.84 62.1289 115.037 62.0951 115.191 62.0274C115.348 61.9597 115.463 61.8659 115.537 61.7459C115.614 61.6259 115.652 61.4906 115.652 61.3398ZM120.193 63.1903C119.805 63.1903 119.458 63.1288 119.15 63.0057C118.842 62.8796 118.581 62.7058 118.366 62.4843C118.153 62.2628 117.99 62.0059 117.876 61.7136C117.763 61.4183 117.706 61.1045 117.706 60.7722V60.5876C117.706 60.2092 117.76 59.8631 117.867 59.5493C117.975 59.2355 118.129 58.9632 118.329 58.7325C118.532 58.5017 118.778 58.3248 119.067 58.2018C119.356 58.0756 119.682 58.0126 120.045 58.0126C120.399 58.0126 120.713 58.071 120.987 58.1879C121.261 58.3048 121.49 58.471 121.674 58.6863C121.862 58.9017 122.004 59.1601 122.099 59.4616C122.194 59.76 122.242 60.0923 122.242 60.4584V61.0122H118.273V60.1261H120.936V60.0246C120.936 59.84 120.902 59.6754 120.835 59.5308C120.77 59.3832 120.671 59.2663 120.539 59.1801C120.407 59.094 120.238 59.0509 120.032 59.0509C119.856 59.0509 119.705 59.0894 119.579 59.1663C119.453 59.2432 119.35 59.3509 119.27 59.4893C119.193 59.6277 119.135 59.7908 119.095 59.9785C119.058 60.163 119.039 60.3661 119.039 60.5876V60.7722C119.039 60.9722 119.067 61.1568 119.122 61.326C119.181 61.4952 119.262 61.6413 119.367 61.7644C119.475 61.8874 119.604 61.9828 119.755 62.0505C119.909 62.1182 120.082 62.152 120.276 62.152C120.516 62.152 120.739 62.1059 120.945 62.0136C121.154 61.9182 121.334 61.7751 121.485 61.5844L122.131 62.2858C122.027 62.4366 121.884 62.5812 121.702 62.7196C121.524 62.8581 121.308 62.9719 121.056 63.0611C120.804 63.1472 120.516 63.1903 120.193 63.1903ZM125.445 58.1049V59.0463H122.537V58.1049H125.445ZM123.257 56.8727H124.586V61.5936C124.586 61.7382 124.605 61.849 124.642 61.9259C124.682 62.0028 124.74 62.0566 124.817 62.0874C124.894 62.1151 124.991 62.1289 125.108 62.1289C125.191 62.1289 125.265 62.1259 125.329 62.1197C125.397 62.1105 125.454 62.1012 125.5 62.092L125.505 63.0703C125.391 63.1073 125.268 63.1365 125.135 63.158C125.003 63.1795 124.857 63.1903 124.697 63.1903C124.405 63.1903 124.149 63.1426 123.931 63.0473C123.716 62.9488 123.55 62.7919 123.433 62.5766C123.316 62.3612 123.257 62.0782 123.257 61.7274V56.8727ZM128.647 58.1049V59.0463H125.74V58.1049H128.647ZM126.46 56.8727H127.789V61.5936C127.789 61.7382 127.807 61.849 127.844 61.9259C127.884 62.0028 127.943 62.0566 128.02 62.0874C128.097 62.1151 128.193 62.1289 128.31 62.1289C128.393 62.1289 128.467 62.1259 128.532 62.1197C128.6 62.1105 128.657 62.1012 128.703 62.092L128.707 63.0703C128.593 63.1073 128.47 63.1365 128.338 63.158C128.206 63.1795 128.06 63.1903 127.9 63.1903C127.607 63.1903 127.352 63.1426 127.134 63.0473C126.918 62.9488 126.752 62.7919 126.635 62.5766C126.518 62.3612 126.46 62.0782 126.46 61.7274V56.8727ZM130.807 58.1049V63.098H129.473V58.1049H130.807ZM129.39 56.8035C129.39 56.6097 129.458 56.4497 129.593 56.3236C129.729 56.1975 129.91 56.1344 130.138 56.1344C130.362 56.1344 130.542 56.1975 130.678 56.3236C130.816 56.4497 130.885 56.6097 130.885 56.8035C130.885 56.9973 130.816 57.1573 130.678 57.2835C130.542 57.4096 130.362 57.4727 130.138 57.4727C129.91 57.4727 129.729 57.4096 129.593 57.2835C129.458 57.1573 129.39 56.9973 129.39 56.8035ZM133.207 59.1709V63.098H131.878V58.1049H133.124L133.207 59.1709ZM133.013 60.4261H132.653C132.653 60.0569 132.701 59.7246 132.796 59.4293C132.891 59.1309 133.025 58.8771 133.197 58.6679C133.37 58.4556 133.574 58.2941 133.811 58.1833C134.051 58.0695 134.319 58.0126 134.614 58.0126C134.848 58.0126 135.062 58.0464 135.256 58.1141C135.449 58.1818 135.616 58.2895 135.754 58.4371C135.895 58.5848 136.003 58.7802 136.077 59.0232C136.154 59.2663 136.192 59.5631 136.192 59.9139V63.098H134.854V59.9092C134.854 59.6877 134.823 59.5154 134.762 59.3924C134.7 59.2693 134.61 59.1832 134.49 59.134C134.373 59.0817 134.228 59.0555 134.056 59.0555C133.877 59.0555 133.722 59.0909 133.59 59.1617C133.46 59.2324 133.353 59.3309 133.267 59.457C133.184 59.5801 133.12 59.7246 133.077 59.8908C133.034 60.0569 133.013 60.2353 133.013 60.4261ZM140.364 58.1049H141.569V62.9319C141.569 63.3872 141.467 63.7733 141.264 64.0902C141.064 64.4101 140.784 64.6517 140.424 64.8147C140.064 64.9808 139.646 65.0639 139.169 65.0639C138.96 65.0639 138.738 65.0362 138.504 64.9808C138.274 64.9255 138.052 64.8393 137.84 64.7224C137.631 64.6055 137.455 64.4578 137.314 64.2794L137.9 63.4949C138.054 63.6733 138.232 63.8118 138.435 63.9102C138.638 64.0117 138.863 64.0625 139.109 64.0625C139.349 64.0625 139.552 64.0179 139.718 63.9287C139.884 63.8425 140.012 63.7149 140.101 63.5457C140.19 63.3795 140.235 63.178 140.235 62.9411V59.2586L140.364 58.1049ZM137.005 60.6614V60.5645C137.005 60.183 137.051 59.8369 137.143 59.5262C137.238 59.2124 137.372 58.9432 137.544 58.7186C137.72 58.4941 137.932 58.3202 138.181 58.1972C138.431 58.0741 138.712 58.0126 139.026 58.0126C139.358 58.0126 139.637 58.0741 139.861 58.1972C140.086 58.3202 140.27 58.4956 140.415 58.7233C140.559 58.9478 140.672 59.214 140.752 59.5216C140.835 59.8262 140.899 60.16 140.946 60.523V60.7353C140.899 61.0829 140.83 61.406 140.738 61.7044C140.646 62.0028 140.524 62.2643 140.373 62.4889C140.223 62.7104 140.035 62.8827 139.81 63.0057C139.589 63.1288 139.324 63.1903 139.017 63.1903C138.709 63.1903 138.431 63.1272 138.181 63.0011C137.935 62.875 137.724 62.6981 137.549 62.4704C137.374 62.2428 137.238 61.9751 137.143 61.6675C137.051 61.3598 137.005 61.0245 137.005 60.6614ZM138.334 60.5645V60.6614C138.334 60.8676 138.354 61.0598 138.394 61.2383C138.434 61.4167 138.495 61.5752 138.578 61.7136C138.664 61.849 138.77 61.9551 138.897 62.032C139.026 62.1059 139.178 62.1428 139.353 62.1428C139.597 62.1428 139.795 62.092 139.949 61.9905C140.103 61.8859 140.218 61.7428 140.295 61.5613C140.372 61.3798 140.416 61.1706 140.429 60.9337V60.3292C140.423 60.1354 140.396 59.9615 140.35 59.8077C140.304 59.6508 140.239 59.517 140.156 59.4062C140.073 59.2955 139.966 59.2093 139.833 59.1478C139.701 59.0863 139.544 59.0555 139.363 59.0555C139.187 59.0555 139.035 59.0955 138.906 59.1755C138.78 59.2524 138.674 59.3585 138.587 59.4939C138.504 59.6293 138.441 59.7893 138.398 59.9738C138.355 60.1554 138.334 60.3523 138.334 60.5645ZM145.302 61.7182C145.302 61.6228 145.274 61.5367 145.219 61.4598C145.163 61.3829 145.06 61.3121 144.91 61.2475C144.762 61.1798 144.548 61.1183 144.268 61.0629C144.016 61.0075 143.781 60.9383 143.562 60.8553C143.347 60.7691 143.159 60.6661 142.999 60.5461C142.842 60.4261 142.719 60.2846 142.63 60.1215C142.541 59.9554 142.496 59.7662 142.496 59.5539C142.496 59.3447 142.541 59.1478 142.63 58.9632C142.722 58.7786 142.853 58.6156 143.022 58.4741C143.194 58.3295 143.404 58.2172 143.65 58.1372C143.899 58.0541 144.179 58.0126 144.49 58.0126C144.923 58.0126 145.296 58.0818 145.606 58.2202C145.92 58.3587 146.16 58.5494 146.326 58.7925C146.496 59.0324 146.58 59.3062 146.58 59.6139H145.251C145.251 59.4847 145.223 59.3693 145.168 59.2678C145.116 59.1632 145.033 59.0817 144.919 59.0232C144.808 58.9617 144.663 58.9309 144.485 58.9309C144.337 58.9309 144.21 58.9571 144.102 59.0094C143.994 59.0586 143.911 59.1263 143.853 59.2124C143.797 59.2955 143.77 59.3878 143.77 59.4893C143.77 59.5662 143.785 59.6354 143.816 59.697C143.85 59.7554 143.904 59.8093 143.977 59.8585C144.051 59.9077 144.147 59.9538 144.264 59.9969C144.384 60.0369 144.531 60.0738 144.707 60.1077C145.067 60.1815 145.388 60.2784 145.671 60.3984C145.954 60.5153 146.179 60.6753 146.345 60.8783C146.511 61.0783 146.594 61.3413 146.594 61.6675C146.594 61.889 146.545 62.092 146.446 62.2766C146.348 62.4612 146.206 62.6227 146.022 62.7611C145.837 62.8965 145.616 63.0027 145.357 63.0796C145.102 63.1534 144.814 63.1903 144.494 63.1903C144.03 63.1903 143.636 63.1073 143.313 62.9411C142.993 62.775 142.75 62.5643 142.584 62.3089C142.421 62.0505 142.339 61.7859 142.339 61.5152H143.599C143.605 61.6967 143.651 61.8428 143.737 61.9536C143.827 62.0643 143.939 62.1443 144.074 62.1935C144.213 62.2428 144.362 62.2674 144.522 62.2674C144.694 62.2674 144.837 62.2443 144.951 62.1981C145.065 62.1489 145.151 62.0843 145.21 62.0043C145.271 61.9213 145.302 61.8259 145.302 61.7182Z" fill="#595F67"/>
<g clip-path="url(#clip1_4_3164)">
<path d="M208.352 36.429L220.757 29.2673V43.5907L208.352 36.429Z" fill="#FFF2CF"/>
<path d="M223.344 35.7206C223.286 35.5857 223.19 35.4699 223.069 35.3864C222.948 35.3029 222.806 35.255 222.659 35.248H219.052L220.052 31.5149C220.084 31.3981 220.089 31.2755 220.066 31.1567C220.042 31.0378 219.992 30.9259 219.918 30.8297C219.845 30.7344 219.751 30.6572 219.643 30.6039C219.535 30.5507 219.417 30.5228 219.296 30.5226H213.783C213.605 30.5165 213.431 30.5708 213.288 30.6766C213.145 30.7824 213.042 30.9335 212.996 31.1054L210.885 38.9812C210.853 39.098 210.849 39.2206 210.872 39.3394C210.895 39.4583 210.945 39.5701 211.019 39.6664C211.093 39.7627 211.188 39.8406 211.298 39.8939C211.407 39.9472 211.527 39.9745 211.649 39.9735H214.697L213.271 45.2818C213.225 45.453 213.237 45.6349 213.307 45.7981C213.376 45.9613 213.499 46.0963 213.655 46.181C213.811 46.2658 213.991 46.2955 214.165 46.2652C214.34 46.2349 214.5 46.1465 214.618 46.0143L223.203 36.5633C223.305 36.4514 223.373 36.3123 223.398 36.1629C223.423 36.0134 223.404 35.8598 223.344 35.7206ZM215.634 42.5568L216.477 39.4065C216.509 39.2897 216.513 39.1671 216.49 39.0482C216.467 38.9294 216.416 38.8175 216.343 38.7213C216.269 38.626 216.175 38.5487 216.067 38.4955C215.96 38.4423 215.841 38.4144 215.721 38.4141H212.696L214.382 32.0977H218.265L217.264 35.8309C217.232 35.9498 217.228 36.0747 217.253 36.1954C217.278 36.316 217.331 36.4292 217.408 36.5257C217.484 36.6222 217.583 36.6994 217.694 36.7511C217.806 36.8028 217.929 36.8275 218.052 36.8232H220.864L215.634 42.5568Z" fill="#0B0A0A"/>
</g>
<path d="M201.05 59.9202V61H197.474V59.9202H201.05ZM197.926 54.2809V61H196.542V54.2809H197.926ZM200.584 57.0175V58.0696H197.474V57.0175H200.584ZM201.046 54.2809V55.3654H197.474V54.2809H201.046ZM203.178 53.9118V61H201.844V53.9118H203.178ZM206.574 61.0923C206.186 61.0923 205.839 61.0308 205.531 60.9077C205.224 60.7816 204.962 60.6077 204.747 60.3862C204.534 60.1647 204.371 59.9078 204.258 59.6156C204.144 59.3202 204.087 59.0064 204.087 58.6742V58.4896C204.087 58.1112 204.141 57.7651 204.248 57.4513C204.356 57.1375 204.51 56.8652 204.71 56.6345C204.913 56.4037 205.159 56.2268 205.448 56.1038C205.737 55.9776 206.063 55.9146 206.426 55.9146C206.78 55.9146 207.094 55.973 207.368 56.0899C207.642 56.2068 207.871 56.373 208.055 56.5883C208.243 56.8037 208.385 57.0621 208.48 57.3636C208.575 57.662 208.623 57.9943 208.623 58.3604V58.9141H204.654V58.0281H207.317V57.9266C207.317 57.742 207.283 57.5774 207.216 57.4328C207.151 57.2851 207.053 57.1682 206.92 57.0821C206.788 56.9959 206.619 56.9529 206.413 56.9529C206.237 56.9529 206.086 56.9913 205.96 57.0682C205.834 57.1452 205.731 57.2528 205.651 57.3913C205.574 57.5297 205.516 57.6928 205.476 57.8804C205.439 58.065 205.42 58.2681 205.42 58.4896V58.6742C205.42 58.8741 205.448 59.0587 205.504 59.2279C205.562 59.3971 205.643 59.5433 205.748 59.6663C205.856 59.7894 205.985 59.8848 206.136 59.9525C206.29 60.0201 206.463 60.054 206.657 60.054C206.897 60.054 207.12 60.0078 207.326 59.9155C207.536 59.8202 207.715 59.6771 207.866 59.4864L208.512 60.1878C208.408 60.3386 208.265 60.4831 208.083 60.6216C207.905 60.76 207.689 60.8739 207.437 60.9631C207.185 61.0492 206.897 61.0923 206.574 61.0923ZM211.443 60.054C211.606 60.054 211.75 60.0232 211.876 59.9617C212.003 59.8971 212.101 59.8079 212.172 59.694C212.246 59.5771 212.284 59.4402 212.287 59.2833H213.538C213.535 59.634 213.441 59.9463 213.256 60.2201C213.072 60.4908 212.824 60.7047 212.513 60.8616C212.203 61.0154 211.855 61.0923 211.47 61.0923C211.083 61.0923 210.744 61.0277 210.455 60.8985C210.169 60.7693 209.931 60.5908 209.74 60.3632C209.549 60.1324 209.406 59.8648 209.311 59.5602C209.215 59.2526 209.168 58.9234 209.168 58.5726V58.4388C209.168 58.085 209.215 57.7558 209.311 57.4513C209.406 57.1436 209.549 56.876 209.74 56.6483C209.931 56.4176 210.169 56.2376 210.455 56.1084C210.741 55.9792 211.077 55.9146 211.461 55.9146C211.87 55.9146 212.229 55.993 212.536 56.1499C212.847 56.3068 213.09 56.5314 213.265 56.8237C213.444 57.1129 213.535 57.4559 213.538 57.8527H212.287C212.284 57.6866 212.249 57.5359 212.181 57.4005C212.116 57.2651 212.021 57.1575 211.895 57.0775C211.772 56.9944 211.62 56.9529 211.438 56.9529C211.244 56.9529 211.086 56.9944 210.963 57.0775C210.84 57.1575 210.744 57.2682 210.677 57.4097C210.609 57.5482 210.561 57.7066 210.534 57.8851C210.509 58.0604 210.497 58.245 210.497 58.4388V58.5726C210.497 58.7665 210.509 58.9526 210.534 59.131C210.558 59.3095 210.604 59.4679 210.672 59.6063C210.743 59.7448 210.84 59.854 210.963 59.934C211.086 60.014 211.246 60.054 211.443 60.054ZM216.754 56.0069V56.9483H213.847V56.0069H216.754ZM214.567 54.7747H215.896V59.4956C215.896 59.6402 215.914 59.7509 215.951 59.8279C215.991 59.9048 216.05 59.9586 216.127 59.9894C216.204 60.0171 216.3 60.0309 216.417 60.0309C216.5 60.0309 216.574 60.0278 216.639 60.0217C216.707 60.0124 216.763 60.0032 216.81 59.994L216.814 60.9723C216.7 61.0092 216.577 61.0385 216.445 61.06C216.313 61.0815 216.167 61.0923 216.007 61.0923C215.714 61.0923 215.459 61.0446 215.241 60.9492C215.025 60.8508 214.859 60.6939 214.742 60.4785C214.625 60.2632 214.567 59.9801 214.567 59.6294V54.7747ZM218.84 57.0959V61H217.511V56.0069H218.762L218.84 57.0959ZM220.344 55.9746L220.321 57.2067C220.257 57.1975 220.178 57.1898 220.086 57.1836C219.997 57.1744 219.915 57.1698 219.841 57.1698C219.654 57.1698 219.491 57.1944 219.352 57.2436C219.217 57.2898 219.103 57.359 219.011 57.4513C218.922 57.5436 218.854 57.6559 218.808 57.7881C218.765 57.9204 218.74 58.0712 218.734 58.2404L218.466 58.1573C218.466 57.8343 218.499 57.5374 218.563 57.2667C218.628 56.9929 218.722 56.7544 218.845 56.5514C218.971 56.3483 219.125 56.1914 219.306 56.0807C219.488 55.9699 219.695 55.9146 219.929 55.9146C220.003 55.9146 220.078 55.9207 220.155 55.933C220.232 55.9422 220.295 55.9561 220.344 55.9746ZM222.375 56.0069V61H221.041V56.0069H222.375ZM220.958 54.7055C220.958 54.5117 221.026 54.3517 221.161 54.2256C221.297 54.0994 221.478 54.0364 221.706 54.0364C221.93 54.0364 222.11 54.0994 222.246 54.2256C222.384 54.3517 222.453 54.5117 222.453 54.7055C222.453 54.8993 222.384 55.0593 222.246 55.1854C222.11 55.3116 221.93 55.3746 221.706 55.3746C221.478 55.3746 221.297 55.3116 221.161 55.1854C221.026 55.0593 220.958 54.8993 220.958 54.7055ZM225.536 60.054C225.699 60.054 225.844 60.0232 225.97 59.9617C226.096 59.8971 226.194 59.8079 226.265 59.694C226.339 59.5771 226.377 59.4402 226.381 59.2833H227.631C227.628 59.634 227.534 59.9463 227.35 60.2201C227.165 60.4908 226.917 60.7047 226.607 60.8616C226.296 61.0154 225.948 61.0923 225.564 61.0923C225.176 61.0923 224.838 61.0277 224.549 60.8985C224.262 60.7693 224.024 60.5908 223.833 60.3632C223.642 60.1324 223.499 59.8648 223.404 59.5602C223.309 59.2526 223.261 58.9234 223.261 58.5726V58.4388C223.261 58.085 223.309 57.7558 223.404 57.4513C223.499 57.1436 223.642 56.876 223.833 56.6483C224.024 56.4176 224.262 56.2376 224.549 56.1084C224.835 55.9792 225.17 55.9146 225.555 55.9146C225.964 55.9146 226.322 55.993 226.63 56.1499C226.94 56.3068 227.184 56.5314 227.359 56.8237C227.537 57.1129 227.628 57.4559 227.631 57.8527H226.381C226.377 57.6866 226.342 57.5359 226.274 57.4005C226.21 57.2651 226.114 57.1575 225.988 57.0775C225.865 56.9944 225.713 56.9529 225.531 56.9529C225.338 56.9529 225.179 56.9944 225.056 57.0775C224.933 57.1575 224.838 57.2682 224.77 57.4097C224.702 57.5482 224.655 57.7066 224.627 57.8851C224.602 58.0604 224.59 58.245 224.59 58.4388V58.5726C224.59 58.7665 224.602 58.9526 224.627 59.131C224.652 59.3095 224.698 59.4679 224.765 59.6063C224.836 59.7448 224.933 59.854 225.056 59.934C225.179 60.014 225.339 60.054 225.536 60.054ZM229.805 56.0069V61H228.471V56.0069H229.805ZM228.388 54.7055C228.388 54.5117 228.456 54.3517 228.591 54.2256C228.726 54.0994 228.908 54.0364 229.136 54.0364C229.36 54.0364 229.54 54.0994 229.675 54.2256C229.814 54.3517 229.883 54.5117 229.883 54.7055C229.883 54.8993 229.814 55.0593 229.675 55.1854C229.54 55.3116 229.36 55.3746 229.136 55.3746C228.908 55.3746 228.726 55.3116 228.591 55.1854C228.456 55.0593 228.388 54.8993 228.388 54.7055ZM233.349 56.0069V56.9483H230.442V56.0069H233.349ZM231.161 54.7747H232.49V59.4956C232.49 59.6402 232.509 59.7509 232.546 59.8279C232.586 59.9048 232.644 59.9586 232.721 59.9894C232.798 60.0171 232.895 60.0309 233.012 60.0309C233.095 60.0309 233.169 60.0278 233.233 60.0217C233.301 60.0124 233.358 60.0032 233.404 59.994L233.409 60.9723C233.295 61.0092 233.172 61.0385 233.04 61.06C232.907 61.0815 232.761 61.0923 232.601 61.0923C232.309 61.0923 232.054 61.0446 231.835 60.9492C231.62 60.8508 231.454 60.6939 231.337 60.4785C231.22 60.2632 231.161 59.9801 231.161 59.6294V54.7747ZM235.587 60.437L236.911 56.0069H238.337L236.33 61.7522C236.287 61.8783 236.228 62.0137 236.155 62.1583C236.084 62.3029 235.987 62.4398 235.864 62.569C235.744 62.7013 235.592 62.809 235.407 62.892C235.225 62.9751 235.002 63.0166 234.738 63.0166C234.612 63.0166 234.509 63.0089 234.429 62.9936C234.349 62.9782 234.253 62.9566 234.143 62.929V61.9553C234.176 61.9553 234.212 61.9553 234.249 61.9553C234.286 61.9583 234.321 61.9599 234.355 61.9599C234.53 61.9599 234.673 61.9399 234.784 61.8999C234.895 61.8599 234.984 61.7983 235.052 61.7153C235.119 61.6353 235.173 61.5307 235.213 61.4015L235.587 60.437ZM235.033 56.0069L236.118 59.6248L236.307 61.0323L235.402 61.1292L233.607 56.0069H235.033Z" fill="#595F67"/>
<rect x="297.958" y="35.2482" width="14.1765" height="8.6634" fill="#FCB3C5"/>
<path d="M309.772 33.6731H306.944L308.756 31.8695C308.829 31.7961 308.888 31.7089 308.927 31.613C308.967 31.517 308.988 31.4142 308.988 31.3103C308.988 31.2065 308.967 31.1037 308.927 31.0077C308.888 30.9118 308.829 30.8246 308.756 30.7512C308.682 30.6777 308.595 30.6195 308.499 30.5797C308.403 30.54 308.301 30.5195 308.197 30.5195C307.987 30.5195 307.786 30.6028 307.638 30.7512L305.046 33.3108L304.125 31.7356C304.073 31.6456 304.004 31.5667 303.922 31.5034C303.84 31.4401 303.746 31.3935 303.646 31.3665C303.546 31.3394 303.441 31.3323 303.338 31.3457C303.235 31.359 303.136 31.3925 303.046 31.4442C302.956 31.4959 302.877 31.5649 302.814 31.6471C302.75 31.7293 302.704 31.8232 302.677 31.9234C302.65 32.0236 302.643 32.1281 302.656 32.231C302.669 32.3339 302.703 32.4332 302.755 32.5232L303.471 33.6731H300.321C299.694 33.6731 299.093 33.922 298.65 34.3651C298.207 34.8082 297.958 35.4092 297.958 36.0358V42.3365C297.958 42.9631 298.207 43.5641 298.65 44.0072C299.093 44.4503 299.694 44.6992 300.321 44.6992V45.4868C300.321 45.6957 300.404 45.896 300.552 46.0437C300.699 46.1914 300.9 46.2744 301.108 46.2744C301.317 46.2744 301.518 46.1914 301.665 46.0437C301.813 45.896 301.896 45.6957 301.896 45.4868V44.6992H308.197V45.4868C308.197 45.6957 308.28 45.896 308.427 46.0437C308.575 46.1914 308.775 46.2744 308.984 46.2744C309.193 46.2744 309.393 46.1914 309.541 46.0437C309.689 45.896 309.772 45.6957 309.772 45.4868V44.6992C310.398 44.6992 310.999 44.4503 311.443 44.0072C311.886 43.5641 312.135 42.9631 312.135 42.3365V36.0358C312.135 35.4092 311.886 34.8082 311.443 34.3651C310.999 33.922 310.398 33.6731 309.772 33.6731ZM310.559 42.3365C310.559 42.5454 310.476 42.7457 310.329 42.8934C310.181 43.0411 309.981 43.1241 309.772 43.1241H300.321C300.112 43.1241 299.912 43.0411 299.764 42.8934C299.616 42.7457 299.533 42.5454 299.533 42.3365V36.0358C299.533 35.8269 299.616 35.6266 299.764 35.4789C299.912 35.3312 300.112 35.2482 300.321 35.2482H309.772C309.981 35.2482 310.181 35.3312 310.329 35.4789C310.476 35.6266 310.559 35.8269 310.559 36.0358V42.3365Z" fill="black"/>
<path d="M290.352 58.7711H291.732C291.705 59.2233 291.58 59.6248 291.358 59.9755C291.14 60.3262 290.834 60.6001 290.44 60.797C290.049 60.9938 289.579 61.0923 289.028 61.0923C288.597 61.0923 288.211 61.0185 287.87 60.8708C287.528 60.72 287.236 60.5047 286.993 60.2247C286.753 59.9448 286.57 59.6063 286.444 59.2095C286.318 58.8126 286.255 58.3681 286.255 57.8758V57.4097C286.255 56.9175 286.319 56.4729 286.448 56.0761C286.581 55.6761 286.768 55.3362 287.011 55.0562C287.258 54.7763 287.551 54.5609 287.893 54.4102C288.234 54.2594 288.616 54.184 289.037 54.184C289.597 54.184 290.069 54.2856 290.454 54.4886C290.842 54.6917 291.142 54.9716 291.354 55.3285C291.569 55.6854 291.698 56.0915 291.741 56.5468H290.357C290.342 56.276 290.288 56.0468 290.196 55.8592C290.103 55.6684 289.963 55.5254 289.776 55.43C289.591 55.3316 289.345 55.2823 289.037 55.2823C288.807 55.2823 288.605 55.3254 288.433 55.4116C288.26 55.4977 288.116 55.6284 287.999 55.8038C287.882 55.9792 287.794 56.2007 287.736 56.4683C287.681 56.7329 287.653 57.0436 287.653 57.4005V57.8758C287.653 58.2235 287.679 58.5296 287.731 58.7942C287.784 59.0557 287.864 59.2772 287.971 59.4587C288.082 59.6371 288.224 59.7725 288.396 59.8648C288.571 59.954 288.782 59.9986 289.028 59.9986C289.317 59.9986 289.556 59.9525 289.743 59.8602C289.931 59.7679 290.074 59.631 290.172 59.4494C290.274 59.2679 290.334 59.0418 290.352 58.7711ZM295.253 59.874V57.6497C295.253 57.4897 295.227 57.3528 295.175 57.239C295.123 57.1221 295.041 57.0313 294.93 56.9667C294.823 56.9021 294.683 56.8698 294.51 56.8698C294.363 56.8698 294.235 56.896 294.127 56.9483C294.02 56.9975 293.937 57.0698 293.878 57.1652C293.82 57.2574 293.79 57.3667 293.79 57.4928H292.461C292.461 57.2805 292.511 57.079 292.609 56.8883C292.708 56.6975 292.851 56.5299 293.038 56.3853C293.226 56.2376 293.449 56.1222 293.707 56.0392C293.969 55.9561 294.261 55.9146 294.584 55.9146C294.972 55.9146 295.316 55.9792 295.618 56.1084C295.919 56.2376 296.156 56.4314 296.329 56.6898C296.504 56.9483 296.592 57.2713 296.592 57.6589V59.7956C296.592 60.0694 296.608 60.2939 296.642 60.4693C296.676 60.6416 296.725 60.7923 296.79 60.9215V61H295.447C295.383 60.8646 295.333 60.6954 295.299 60.4924C295.269 60.2863 295.253 60.0801 295.253 59.874ZM295.429 57.9589L295.438 58.7111H294.695C294.52 58.7111 294.367 58.7311 294.238 58.7711C294.109 58.8111 294.003 58.868 293.92 58.9418C293.837 59.0126 293.775 59.0957 293.735 59.191C293.698 59.2864 293.68 59.391 293.68 59.5048C293.68 59.6187 293.706 59.7217 293.758 59.814C293.81 59.9032 293.886 59.974 293.984 60.0263C294.083 60.0755 294.198 60.1001 294.33 60.1001C294.53 60.1001 294.704 60.0601 294.852 59.9801C294.999 59.9002 295.113 59.8017 295.193 59.6848C295.276 59.5679 295.319 59.4571 295.323 59.3525L295.673 59.9155C295.624 60.0417 295.556 60.1724 295.47 60.3078C295.387 60.4432 295.281 60.5708 295.152 60.6908C295.023 60.8077 294.867 60.9046 294.686 60.9815C294.504 61.0554 294.289 61.0923 294.04 61.0923C293.723 61.0923 293.435 61.0292 293.177 60.9031C292.921 60.7739 292.718 60.597 292.568 60.3724C292.42 60.1447 292.346 59.8863 292.346 59.5971C292.346 59.3356 292.395 59.1033 292.494 58.9003C292.592 58.6972 292.737 58.5265 292.927 58.3881C293.121 58.2465 293.363 58.1404 293.652 58.0696C293.941 57.9958 294.277 57.9589 294.658 57.9589H295.429ZM297.616 53.9118H298.945V59.8555L298.811 61H297.616V53.9118ZM302.106 58.4527V58.5496C302.106 58.9218 302.066 59.2633 301.986 59.574C301.909 59.8848 301.789 60.154 301.626 60.3816C301.463 60.6062 301.26 60.7816 301.017 60.9077C300.777 61.0308 300.494 61.0923 300.168 61.0923C299.863 61.0923 299.599 61.0308 299.374 60.9077C299.153 60.7846 298.967 60.6108 298.816 60.3862C298.665 60.1617 298.544 59.8986 298.451 59.5971C298.359 59.2956 298.29 58.9664 298.244 58.6096V58.3973C298.29 58.0404 298.359 57.7112 298.451 57.4097C298.544 57.1082 298.665 56.8452 298.816 56.6206C298.967 56.396 299.153 56.2222 299.374 56.0991C299.596 55.9761 299.857 55.9146 300.159 55.9146C300.488 55.9146 300.774 55.9776 301.017 56.1038C301.263 56.2268 301.466 56.4022 301.626 56.6298C301.789 56.8544 301.909 57.1221 301.986 57.4328C302.066 57.7405 302.106 58.0804 302.106 58.4527ZM300.777 58.5496V58.4527C300.777 58.2496 300.762 58.0589 300.731 57.8804C300.703 57.6989 300.654 57.5405 300.583 57.4051C300.513 57.2667 300.416 57.1575 300.293 57.0775C300.173 56.9975 300.017 56.9575 299.827 56.9575C299.645 56.9575 299.491 56.9883 299.365 57.0498C299.239 57.1113 299.134 57.1975 299.051 57.3082C298.971 57.419 298.911 57.5513 298.871 57.7051C298.831 57.8558 298.807 58.022 298.797 58.2035V58.808C298.807 59.051 298.847 59.2664 298.917 59.4541C298.991 59.6387 299.102 59.7848 299.25 59.8925C299.4 59.9971 299.596 60.0494 299.836 60.0494C300.023 60.0494 300.179 60.0124 300.302 59.9386C300.425 59.8648 300.52 59.7602 300.588 59.6248C300.659 59.4894 300.708 59.331 300.736 59.1495C300.763 58.9649 300.777 58.7649 300.777 58.5496ZM304.335 53.9118V61H303.001V53.9118H304.335ZM307.732 61.0923C307.344 61.0923 306.996 61.0308 306.689 60.9077C306.381 60.7816 306.119 60.6077 305.904 60.3862C305.692 60.1647 305.529 59.9078 305.415 59.6156C305.301 59.3202 305.244 59.0064 305.244 58.6742V58.4896C305.244 58.1112 305.298 57.7651 305.406 57.4513C305.513 57.1375 305.667 56.8652 305.867 56.6345C306.07 56.4037 306.316 56.2268 306.606 56.1038C306.895 55.9776 307.221 55.9146 307.584 55.9146C307.938 55.9146 308.251 55.973 308.525 56.0899C308.799 56.2068 309.028 56.373 309.213 56.5883C309.401 56.8037 309.542 57.0621 309.637 57.3636C309.733 57.662 309.78 57.9943 309.78 58.3604V58.9141H305.812V58.0281H308.475V57.9266C308.475 57.742 308.441 57.5774 308.373 57.4328C308.308 57.2851 308.21 57.1682 308.078 57.0821C307.945 56.9959 307.776 56.9529 307.57 56.9529C307.395 56.9529 307.244 56.9913 307.118 57.0682C306.992 57.1452 306.889 57.2528 306.809 57.3913C306.732 57.5297 306.673 57.6928 306.633 57.8804C306.596 58.065 306.578 58.2681 306.578 58.4896V58.6742C306.578 58.8741 306.606 59.0587 306.661 59.2279C306.719 59.3971 306.801 59.5433 306.906 59.6663C307.013 59.7894 307.142 59.8848 307.293 59.9525C307.447 60.0201 307.621 60.054 307.815 60.054C308.055 60.054 308.278 60.0078 308.484 59.9155C308.693 59.8202 308.873 59.6771 309.024 59.4864L309.67 60.1878C309.565 60.3386 309.422 60.4831 309.241 60.6216C309.062 60.76 308.847 60.8739 308.595 60.9631C308.342 61.0492 308.055 61.0923 307.732 61.0923ZM315.729 54.2809V61H314.349V54.2809H315.729ZM317.796 54.2809V55.3654H312.314V54.2809H317.796ZM321.082 59.5971L322.665 54.2809H324.206L321.866 61H320.851L321.082 59.5971ZM319.624 54.2809L321.202 59.5971L321.442 61H320.417L318.092 54.2809H319.624Z" fill="#595F67"/>
<path fill-rule="evenodd" clip-rule="evenodd" d="M33.8668 92.9375C33.8668 92.0677 34.5719 91.3625 35.4418 91.3625H46.4668C47.3366 91.3625 48.0418 92.0677 48.0418 92.9375V103.963C48.0418 104.832 47.3366 105.538 46.4668 105.538H35.4418C34.5719 105.538 33.8668 104.832 33.8668 103.963V92.9375ZM46.4668 92.9375H35.4418V103.963H46.4668V92.9375ZM40.9543 94.5125C41.3892 94.5125 41.7418 94.8651 41.7418 95.3V101.6C41.7418 102.035 41.3892 102.388 40.9543 102.388C40.5193 102.388 40.1668 102.035 40.1668 101.6V95.3C40.1668 94.8651 40.5193 94.5125 40.9543 94.5125ZM44.1043 96.0875C44.5392 96.0875 44.8918 96.4401 44.8918 96.875V101.6C44.8918 102.035 44.5392 102.388 44.1043 102.388C43.6693 102.388 43.3168 102.035 43.3168 101.6V96.875C43.3168 96.4401 43.6693 96.0875 44.1043 96.0875ZM37.8043 97.6625C38.2392 97.6625 38.5918 98.0151 38.5918 98.45V101.6C38.5918 102.035 38.2392 102.388 37.8043 102.388C37.3693 102.388 37.0168 102.035 37.0168 101.6V98.45C37.0168 98.0151 37.3693 97.6625 37.8043 97.6625Z" fill="#0C0C0C"/>
<path d="M29.4174 114.331H31.9232C32.437 114.331 32.8785 114.408 33.2477 114.562C33.6199 114.716 33.906 114.943 34.106 115.245C34.306 115.546 34.406 115.917 34.406 116.357C34.406 116.717 34.3444 117.026 34.2214 117.285C34.1014 117.54 33.9307 117.754 33.7091 117.926C33.4907 118.095 33.2338 118.231 32.9385 118.332L32.5001 118.563H30.3219L30.3127 117.483H31.9325C32.1755 117.483 32.377 117.44 32.537 117.354C32.697 117.268 32.817 117.148 32.897 116.994C32.98 116.84 33.0216 116.662 33.0216 116.459C33.0216 116.243 32.9816 116.057 32.9016 115.9C32.8216 115.743 32.7001 115.623 32.537 115.54C32.3739 115.457 32.1694 115.416 31.9232 115.416H30.8019V121.05H29.4174V114.331ZM33.1738 121.05L31.6417 118.055L33.1046 118.046L34.6552 120.986V121.05H33.1738ZM38.0839 119.924V117.7C38.0839 117.54 38.0578 117.403 38.0055 117.289C37.9532 117.172 37.8716 117.082 37.7609 117.017C37.6532 116.952 37.5132 116.92 37.3409 116.92C37.1933 116.92 37.0656 116.946 36.9579 116.999C36.8502 117.048 36.7672 117.12 36.7087 117.215C36.6503 117.308 36.621 117.417 36.621 117.543H35.292C35.292 117.331 35.3412 117.129 35.4397 116.939C35.5381 116.748 35.6812 116.58 35.8688 116.436C36.0565 116.288 36.2796 116.173 36.538 116.089C36.7995 116.006 37.0917 115.965 37.4148 115.965C37.8024 115.965 38.147 116.029 38.4485 116.159C38.75 116.288 38.9869 116.482 39.1592 116.74C39.3345 116.999 39.4222 117.322 39.4222 117.709V119.846C39.4222 120.12 39.4391 120.344 39.473 120.52C39.5068 120.692 39.556 120.843 39.6206 120.972V121.05H38.2777C38.2131 120.915 38.1639 120.746 38.1301 120.543C38.0993 120.337 38.0839 120.13 38.0839 119.924ZM38.2593 118.009L38.2685 118.761H37.5255C37.3502 118.761 37.1979 118.781 37.0687 118.821C36.9395 118.861 36.8333 118.918 36.7503 118.992C36.6672 119.063 36.6057 119.146 36.5657 119.241C36.5288 119.337 36.5103 119.441 36.5103 119.555C36.5103 119.669 36.5364 119.772 36.5887 119.864C36.641 119.954 36.7164 120.024 36.8149 120.077C36.9133 120.126 37.0287 120.15 37.161 120.15C37.3609 120.15 37.5348 120.11 37.6824 120.03C37.8301 119.95 37.9439 119.852 38.0239 119.735C38.107 119.618 38.1501 119.507 38.1531 119.403L38.5039 119.966C38.4546 120.092 38.387 120.223 38.3008 120.358C38.2177 120.493 38.1116 120.621 37.9824 120.741C37.8532 120.858 37.6978 120.955 37.5163 121.032C37.3348 121.106 37.1194 121.143 36.8702 121.143C36.5534 121.143 36.2657 121.08 36.0073 120.953C35.7519 120.824 35.5489 120.647 35.3981 120.423C35.2505 120.195 35.1766 119.937 35.1766 119.647C35.1766 119.386 35.2259 119.154 35.3243 118.951C35.4228 118.748 35.5673 118.577 35.7581 118.438C35.9519 118.297 36.1934 118.191 36.4826 118.12C36.7718 118.046 37.1071 118.009 37.4886 118.009H38.2593ZM42.8925 116.057V116.999H39.9852V116.057H42.8925ZM40.7051 114.825H42.0341V119.546C42.0341 119.69 42.0526 119.801 42.0895 119.878C42.1295 119.955 42.188 120.009 42.2649 120.04C42.3418 120.067 42.4387 120.081 42.5556 120.081C42.6387 120.081 42.7125 120.078 42.7771 120.072C42.8448 120.063 42.9017 120.054 42.9479 120.044L42.9525 121.023C42.8386 121.06 42.7156 121.089 42.5833 121.11C42.451 121.132 42.3049 121.143 42.1449 121.143C41.8526 121.143 41.5973 121.095 41.3788 121C41.1635 120.901 40.9974 120.744 40.8804 120.529C40.7635 120.313 40.7051 120.03 40.7051 119.68V114.825ZM45.9474 121.143C45.5598 121.143 45.2121 121.081 44.9045 120.958C44.5969 120.832 44.3353 120.658 44.12 120.437C43.9077 120.215 43.7447 119.958 43.6308 119.666C43.517 119.371 43.4601 119.057 43.4601 118.724V118.54C43.4601 118.161 43.5139 117.815 43.6216 117.502C43.7293 117.188 43.8831 116.915 44.0831 116.685C44.2861 116.454 44.5322 116.277 44.8214 116.154C45.1106 116.028 45.4367 115.965 45.7998 115.965C46.1536 115.965 46.4674 116.023 46.7412 116.14C47.015 116.257 47.2442 116.423 47.4288 116.639C47.6164 116.854 47.7579 117.112 47.8533 117.414C47.9487 117.712 47.9964 118.045 47.9964 118.411V118.964H44.0277V118.078H46.6904V117.977C46.6904 117.792 46.6566 117.628 46.5889 117.483C46.5243 117.335 46.4258 117.219 46.2935 117.132C46.1612 117.046 45.992 117.003 45.7859 117.003C45.6106 117.003 45.4598 117.042 45.3337 117.119C45.2075 117.195 45.1045 117.303 45.0245 117.442C44.9476 117.58 44.8891 117.743 44.8491 117.931C44.8122 118.115 44.7937 118.318 44.7937 118.54V118.724C44.7937 118.924 44.8214 119.109 44.8768 119.278C44.9353 119.447 45.0168 119.594 45.1214 119.717C45.2291 119.84 45.3583 119.935 45.509 120.003C45.6629 120.07 45.8367 120.104 46.0305 120.104C46.2705 120.104 46.4935 120.058 46.6996 119.966C46.9088 119.87 47.0888 119.727 47.2396 119.537L47.8856 120.238C47.781 120.389 47.638 120.533 47.4564 120.672C47.278 120.81 47.0627 120.924 46.8104 121.013C46.5581 121.1 46.2705 121.143 45.9474 121.143ZM51.4528 119.67C51.4528 119.575 51.4251 119.489 51.3697 119.412C51.3144 119.335 51.2113 119.264 51.0606 119.2C50.9129 119.132 50.6991 119.071 50.4191 119.015C50.1668 118.96 49.9315 118.891 49.7131 118.808C49.4977 118.721 49.31 118.618 49.1501 118.498C48.9932 118.378 48.8701 118.237 48.7809 118.074C48.6917 117.908 48.6471 117.718 48.6471 117.506C48.6471 117.297 48.6917 117.1 48.7809 116.915C48.8732 116.731 49.0039 116.568 49.1731 116.426C49.3454 116.282 49.5546 116.169 49.8007 116.089C50.0499 116.006 50.3299 115.965 50.6406 115.965C51.0744 115.965 51.4467 116.034 51.7574 116.173C52.0712 116.311 52.3112 116.502 52.4773 116.745C52.6465 116.985 52.7311 117.259 52.7311 117.566H51.402C51.402 117.437 51.3744 117.322 51.319 117.22C51.2667 117.115 51.1836 117.034 51.0698 116.975C50.959 116.914 50.8144 116.883 50.636 116.883C50.4883 116.883 50.3607 116.909 50.253 116.962C50.1453 117.011 50.0622 117.079 50.0038 117.165C49.9484 117.248 49.9207 117.34 49.9207 117.442C49.9207 117.518 49.9361 117.588 49.9669 117.649C50.0007 117.708 50.0545 117.762 50.1284 117.811C50.2022 117.86 50.2976 117.906 50.4145 117.949C50.5345 117.989 50.6822 118.026 50.8575 118.06C51.2175 118.134 51.539 118.231 51.822 118.351C52.105 118.468 52.3296 118.628 52.4957 118.831C52.6619 119.031 52.7449 119.294 52.7449 119.62C52.7449 119.841 52.6957 120.044 52.5973 120.229C52.4988 120.413 52.3573 120.575 52.1727 120.713C51.9881 120.849 51.7666 120.955 51.5082 121.032C51.2528 121.106 50.9652 121.143 50.6452 121.143C50.1807 121.143 49.7869 121.06 49.4639 120.893C49.1439 120.727 48.9009 120.517 48.7347 120.261C48.5717 120.003 48.4902 119.738 48.4902 119.467H49.75C49.7561 119.649 49.8023 119.795 49.8884 119.906C49.9776 120.017 50.0899 120.097 50.2253 120.146C50.3637 120.195 50.5129 120.22 50.6729 120.22C50.8452 120.22 50.9883 120.197 51.1021 120.15C51.2159 120.101 51.3021 120.037 51.3605 119.957C51.422 119.874 51.4528 119.778 51.4528 119.67Z" fill="#595F67"/>
<path fill-rule="evenodd" clip-rule="evenodd" d="M122.947 94.5125C122.947 94.0776 123.3 93.725 123.735 93.725H124.522C124.957 93.725 125.31 94.0776 125.31 94.5125C125.31 94.9474 124.957 95.3 124.522 95.3H123.735C123.3 95.3 122.947 94.9474 122.947 94.5125ZM126.885 94.5125C126.885 94.0776 127.237 93.725 127.672 93.725H134.76C135.195 93.725 135.547 94.0776 135.547 94.5125C135.547 94.9474 135.195 95.3 134.76 95.3H127.672C127.237 95.3 126.885 94.9474 126.885 94.5125ZM122.947 98.45C122.947 98.0151 123.3 97.6625 123.735 97.6625H124.522C124.957 97.6625 125.31 98.0151 125.31 98.45C125.31 98.8849 124.957 99.2375 124.522 99.2375H123.735C123.3 99.2375 122.947 98.8849 122.947 98.45ZM126.885 98.45C126.885 98.0151 127.237 97.6625 127.672 97.6625H134.76C135.195 97.6625 135.547 98.0151 135.547 98.45C135.547 98.8849 135.195 99.2375 134.76 99.2375H127.672C127.237 99.2375 126.885 98.8849 126.885 98.45ZM122.947 102.387C122.947 101.953 123.3 101.6 123.735 101.6H124.522C124.957 101.6 125.31 101.953 125.31 102.387C125.31 102.822 124.957 103.175 124.522 103.175H123.735C123.3 103.175 122.947 102.822 122.947 102.387ZM126.885 102.387C126.885 101.953 127.237 101.6 127.672 101.6H134.76C135.195 101.6 135.547 101.953 135.547 102.387C135.547 102.822 135.195 103.175 134.76 103.175H127.672C127.237 103.175 126.885 102.822 126.885 102.387Z" fill="#0B0A0A"/>
<path d="M107.664 114.331V121.05H106.284V114.331H107.664ZM109.731 114.331V115.416H104.249V114.331H109.731ZM111.444 117.146V121.05H110.114V116.057H111.365L111.444 117.146ZM112.948 116.025L112.925 117.257C112.86 117.248 112.782 117.24 112.69 117.234C112.6 117.225 112.519 117.22 112.445 117.22C112.257 117.22 112.094 117.245 111.956 117.294C111.82 117.34 111.707 117.409 111.614 117.502C111.525 117.594 111.457 117.706 111.411 117.838C111.368 117.971 111.344 118.121 111.337 118.291L111.07 118.208C111.07 117.885 111.102 117.588 111.167 117.317C111.231 117.043 111.325 116.805 111.448 116.602C111.574 116.399 111.728 116.242 111.91 116.131C112.091 116.02 112.299 115.965 112.533 115.965C112.606 115.965 112.682 115.971 112.759 115.983C112.836 115.993 112.899 116.006 112.948 116.025ZM116.114 119.924V117.7C116.114 117.54 116.087 117.403 116.035 117.289C115.983 117.172 115.901 117.082 115.791 117.017C115.683 116.952 115.543 116.92 115.371 116.92C115.223 116.92 115.095 116.946 114.988 116.999C114.88 117.048 114.797 117.12 114.738 117.215C114.68 117.308 114.651 117.417 114.651 117.543H113.322C113.322 117.331 113.371 117.129 113.469 116.939C113.568 116.748 113.711 116.58 113.899 116.436C114.086 116.288 114.309 116.173 114.568 116.089C114.829 116.006 115.121 115.965 115.445 115.965C115.832 115.965 116.177 116.029 116.478 116.159C116.78 116.288 117.017 116.482 117.189 116.74C117.364 116.999 117.452 117.322 117.452 117.709V119.846C117.452 120.12 117.469 120.344 117.503 120.52C117.537 120.692 117.586 120.843 117.65 120.972V121.05H116.307C116.243 120.915 116.194 120.746 116.16 120.543C116.129 120.337 116.114 120.13 116.114 119.924ZM116.289 118.009L116.298 118.761H115.555C115.38 118.761 115.228 118.781 115.098 118.821C114.969 118.861 114.863 118.918 114.78 118.992C114.697 119.063 114.635 119.146 114.595 119.241C114.558 119.337 114.54 119.441 114.54 119.555C114.54 119.669 114.566 119.772 114.618 119.864C114.671 119.954 114.746 120.024 114.845 120.077C114.943 120.126 115.058 120.15 115.191 120.15C115.391 120.15 115.564 120.11 115.712 120.03C115.86 119.95 115.974 119.852 116.054 119.735C116.137 119.618 116.18 119.507 116.183 119.403L116.534 119.966C116.484 120.092 116.417 120.223 116.331 120.358C116.247 120.493 116.141 120.621 116.012 120.741C115.883 120.858 115.728 120.955 115.546 121.032C115.365 121.106 115.149 121.143 114.9 121.143C114.583 121.143 114.295 121.08 114.037 120.953C113.782 120.824 113.579 120.647 113.428 120.423C113.28 120.195 113.206 119.937 113.206 119.647C113.206 119.386 113.256 119.154 113.354 118.951C113.452 118.748 113.597 118.577 113.788 118.438C113.982 118.297 114.223 118.191 114.512 118.12C114.802 118.046 115.137 118.009 115.518 118.009H116.289ZM119.778 117.123V121.05H118.449V116.057H119.695L119.778 117.123ZM119.584 118.378H119.224C119.224 118.009 119.272 117.677 119.367 117.382C119.462 117.083 119.596 116.829 119.769 116.62C119.941 116.408 120.145 116.246 120.382 116.136C120.622 116.022 120.89 115.965 121.185 115.965C121.419 115.965 121.633 115.999 121.827 116.066C122.021 116.134 122.187 116.242 122.325 116.389C122.467 116.537 122.574 116.732 122.648 116.975C122.725 117.219 122.763 117.515 122.763 117.866V121.05H121.425V117.862C121.425 117.64 121.394 117.468 121.333 117.345C121.271 117.222 121.181 117.135 121.061 117.086C120.944 117.034 120.799 117.008 120.627 117.008C120.448 117.008 120.293 117.043 120.161 117.114C120.032 117.185 119.924 117.283 119.838 117.409C119.755 117.532 119.692 117.677 119.649 117.843C119.605 118.009 119.584 118.188 119.584 118.378ZM126.474 119.67C126.474 119.575 126.446 119.489 126.391 119.412C126.335 119.335 126.232 119.264 126.081 119.2C125.934 119.132 125.72 119.071 125.44 119.015C125.188 118.96 124.952 118.891 124.734 118.808C124.519 118.721 124.331 118.618 124.171 118.498C124.014 118.378 123.891 118.237 123.802 118.074C123.713 117.908 123.668 117.718 123.668 117.506C123.668 117.297 123.713 117.1 123.802 116.915C123.894 116.731 124.025 116.568 124.194 116.426C124.366 116.282 124.576 116.169 124.822 116.089C125.071 116.006 125.351 115.965 125.662 115.965C126.095 115.965 126.468 116.034 126.778 116.173C127.092 116.311 127.332 116.502 127.498 116.745C127.667 116.985 127.752 117.259 127.752 117.566H126.423C126.423 117.437 126.395 117.322 126.34 117.22C126.288 117.115 126.205 117.034 126.091 116.975C125.98 116.914 125.835 116.883 125.657 116.883C125.509 116.883 125.382 116.909 125.274 116.962C125.166 117.011 125.083 117.079 125.025 117.165C124.969 117.248 124.942 117.34 124.942 117.442C124.942 117.518 124.957 117.588 124.988 117.649C125.022 117.708 125.075 117.762 125.149 117.811C125.223 117.86 125.319 117.906 125.435 117.949C125.555 117.989 125.703 118.026 125.878 118.06C126.238 118.134 126.56 118.231 126.843 118.351C127.126 118.468 127.351 118.628 127.517 118.831C127.683 119.031 127.766 119.294 127.766 119.62C127.766 119.841 127.717 120.044 127.618 120.229C127.52 120.413 127.378 120.575 127.194 120.713C127.009 120.849 126.788 120.955 126.529 121.032C126.274 121.106 125.986 121.143 125.666 121.143C125.202 121.143 124.808 121.06 124.485 120.893C124.165 120.727 123.922 120.517 123.756 120.261C123.593 120.003 123.511 119.738 123.511 119.467H124.771C124.777 119.649 124.823 119.795 124.909 119.906C124.999 120.017 125.111 120.097 125.246 120.146C125.385 120.195 125.534 120.22 125.694 120.22C125.866 120.22 126.009 120.197 126.123 120.15C126.237 120.101 126.323 120.037 126.381 119.957C126.443 119.874 126.474 119.778 126.474 119.67ZM131.324 119.924V117.7C131.324 117.54 131.298 117.403 131.245 117.289C131.193 117.172 131.112 117.082 131.001 117.017C130.893 116.952 130.753 116.92 130.581 116.92C130.433 116.92 130.306 116.946 130.198 116.999C130.09 117.048 130.007 117.12 129.949 117.215C129.89 117.308 129.861 117.417 129.861 117.543H128.532C128.532 117.331 128.581 117.129 128.68 116.939C128.778 116.748 128.921 116.58 129.109 116.436C129.296 116.288 129.519 116.173 129.778 116.089C130.039 116.006 130.332 115.965 130.655 115.965C131.042 115.965 131.387 116.029 131.688 116.159C131.99 116.288 132.227 116.482 132.399 116.74C132.574 116.999 132.662 117.322 132.662 117.709V119.846C132.662 120.12 132.679 120.344 132.713 120.52C132.747 120.692 132.796 120.843 132.861 120.972V121.05H131.518C131.453 120.915 131.404 120.746 131.37 120.543C131.339 120.337 131.324 120.13 131.324 119.924ZM131.499 118.009L131.508 118.761H130.765C130.59 118.761 130.438 118.781 130.309 118.821C130.179 118.861 130.073 118.918 129.99 118.992C129.907 119.063 129.846 119.146 129.806 119.241C129.769 119.337 129.75 119.441 129.75 119.555C129.75 119.669 129.776 119.772 129.829 119.864C129.881 119.954 129.956 120.024 130.055 120.077C130.153 120.126 130.269 120.15 130.401 120.15C130.601 120.15 130.775 120.11 130.922 120.03C131.07 119.95 131.184 119.852 131.264 119.735C131.347 119.618 131.39 119.507 131.393 119.403L131.744 119.966C131.695 120.092 131.627 120.223 131.541 120.358C131.458 120.493 131.352 120.621 131.222 120.741C131.093 120.858 130.938 120.955 130.756 121.032C130.575 121.106 130.359 121.143 130.11 121.143C129.793 121.143 129.506 121.08 129.247 120.953C128.992 120.824 128.789 120.647 128.638 120.423C128.49 120.195 128.417 119.937 128.417 119.647C128.417 119.386 128.466 119.154 128.564 118.951C128.663 118.748 128.807 118.577 128.998 118.438C129.192 118.297 129.433 118.191 129.723 118.12C130.012 118.046 130.347 118.009 130.729 118.009H131.499ZM135.749 120.104C135.912 120.104 136.057 120.074 136.183 120.012C136.309 119.947 136.408 119.858 136.478 119.744C136.552 119.627 136.591 119.491 136.594 119.334H137.844C137.841 119.684 137.748 119.997 137.563 120.27C137.378 120.541 137.131 120.755 136.82 120.912C136.509 121.066 136.162 121.143 135.777 121.143C135.389 121.143 135.051 121.078 134.762 120.949C134.476 120.82 134.237 120.641 134.047 120.413C133.856 120.183 133.713 119.915 133.617 119.61C133.522 119.303 133.474 118.974 133.474 118.623V118.489C133.474 118.135 133.522 117.806 133.617 117.502C133.713 117.194 133.856 116.926 134.047 116.699C134.237 116.468 134.476 116.288 134.762 116.159C135.048 116.029 135.383 115.965 135.768 115.965C136.177 115.965 136.535 116.043 136.843 116.2C137.154 116.357 137.397 116.582 137.572 116.874C137.751 117.163 137.841 117.506 137.844 117.903H136.594C136.591 117.737 136.555 117.586 136.488 117.451C136.423 117.315 136.328 117.208 136.202 117.128C136.079 117.045 135.926 117.003 135.745 117.003C135.551 117.003 135.392 117.045 135.269 117.128C135.146 117.208 135.051 117.319 134.983 117.46C134.916 117.598 134.868 117.757 134.84 117.935C134.816 118.111 134.803 118.295 134.803 118.489V118.623C134.803 118.817 134.816 119.003 134.84 119.181C134.865 119.36 134.911 119.518 134.979 119.657C135.049 119.795 135.146 119.904 135.269 119.984C135.392 120.064 135.552 120.104 135.749 120.104ZM141.061 116.057V116.999H138.154V116.057H141.061ZM138.874 114.825H140.203V119.546C140.203 119.69 140.221 119.801 140.258 119.878C140.298 119.955 140.356 120.009 140.433 120.04C140.51 120.067 140.607 120.081 140.724 120.081C140.807 120.081 140.881 120.078 140.946 120.072C141.013 120.063 141.07 120.054 141.116 120.044L141.121 121.023C141.007 121.06 140.884 121.089 140.752 121.11C140.619 121.132 140.473 121.143 140.313 121.143C140.021 121.143 139.766 121.095 139.547 121C139.332 120.901 139.166 120.744 139.049 120.529C138.932 120.313 138.874 120.03 138.874 119.68V114.825ZM143.221 116.057V121.05H141.887V116.057H143.221ZM141.804 114.756C141.804 114.562 141.872 114.402 142.007 114.276C142.142 114.15 142.324 114.087 142.551 114.087C142.776 114.087 142.956 114.15 143.091 114.276C143.23 114.402 143.299 114.562 143.299 114.756C143.299 114.95 143.23 115.11 143.091 115.236C142.956 115.362 142.776 115.425 142.551 115.425C142.324 115.425 142.142 115.362 142.007 115.236C141.872 115.11 141.804 114.95 141.804 114.756ZM144.107 118.604V118.508C144.107 118.141 144.159 117.805 144.264 117.497C144.368 117.186 144.52 116.917 144.72 116.689C144.92 116.462 145.167 116.285 145.459 116.159C145.751 116.029 146.086 115.965 146.465 115.965C146.843 115.965 147.18 116.029 147.475 116.159C147.771 116.285 148.018 116.462 148.218 116.689C148.421 116.917 148.575 117.186 148.68 117.497C148.784 117.805 148.837 118.141 148.837 118.508V118.604C148.837 118.968 148.784 119.304 148.68 119.615C148.575 119.923 148.421 120.192 148.218 120.423C148.018 120.65 147.772 120.827 147.48 120.953C147.188 121.08 146.852 121.143 146.474 121.143C146.096 121.143 145.759 121.08 145.463 120.953C145.171 120.827 144.923 120.65 144.72 120.423C144.52 120.192 144.368 119.923 144.264 119.615C144.159 119.304 144.107 118.968 144.107 118.604ZM145.436 118.508V118.604C145.436 118.814 145.454 119.009 145.491 119.191C145.528 119.372 145.586 119.532 145.666 119.67C145.749 119.806 145.857 119.912 145.989 119.989C146.122 120.066 146.283 120.104 146.474 120.104C146.659 120.104 146.817 120.066 146.949 119.989C147.082 119.912 147.188 119.806 147.268 119.67C147.348 119.532 147.406 119.372 147.443 119.191C147.483 119.009 147.503 118.814 147.503 118.604V118.508C147.503 118.305 147.483 118.114 147.443 117.935C147.406 117.754 147.346 117.594 147.263 117.455C147.183 117.314 147.077 117.203 146.945 117.123C146.812 117.043 146.652 117.003 146.465 117.003C146.277 117.003 146.117 117.043 145.985 117.123C145.856 117.203 145.749 117.314 145.666 117.455C145.586 117.594 145.528 117.754 145.491 117.935C145.454 118.114 145.436 118.305 145.436 118.508ZM150.955 117.123V121.05H149.626V116.057H150.872L150.955 117.123ZM150.761 118.378H150.401C150.401 118.009 150.449 117.677 150.544 117.382C150.64 117.083 150.773 116.829 150.946 116.62C151.118 116.408 151.323 116.246 151.559 116.136C151.799 116.022 152.067 115.965 152.362 115.965C152.596 115.965 152.81 115.999 153.004 116.066C153.198 116.134 153.364 116.242 153.502 116.389C153.644 116.537 153.751 116.732 153.825 116.975C153.902 117.219 153.941 117.515 153.941 117.866V121.05H152.602V117.862C152.602 117.64 152.572 117.468 152.51 117.345C152.449 117.222 152.358 117.135 152.238 117.086C152.121 117.034 151.976 117.008 151.804 117.008C151.626 117.008 151.47 117.043 151.338 117.114C151.209 117.185 151.101 117.283 151.015 117.409C150.932 117.532 150.869 117.677 150.826 117.843C150.783 118.009 150.761 118.188 150.761 118.378Z" fill="#595F67"/>
<rect x="210.715" y="92.9363" width="13.3889" height="13.3889" fill="#BCE2FE"/>
<path d="M224.408 98.4498C224.8 98.0185 225.019 97.4575 225.022 96.8746C225.022 96.248 224.773 95.647 224.33 95.2039C223.887 94.7608 223.286 94.5119 222.659 94.5119H218.58C218.705 94.1561 218.744 93.7752 218.693 93.4014C218.641 93.0275 218.501 92.6714 218.283 92.3629C218.066 92.0544 217.777 91.8025 217.443 91.6283C217.108 91.4541 216.736 91.3626 216.359 91.3616H211.633C211.006 91.3616 210.406 91.6105 209.962 92.0536C209.519 92.4967 209.27 93.0977 209.27 93.7243C209.274 94.3072 209.493 94.8682 209.885 95.2995C209.497 95.7327 209.283 96.2935 209.283 96.8746C209.283 97.4558 209.497 98.0166 209.885 98.4498C209.497 98.883 209.283 99.4438 209.283 100.025C209.283 100.606 209.497 101.167 209.885 101.6C209.493 102.031 209.274 102.592 209.27 103.175C209.27 103.802 209.519 104.403 209.962 104.846C210.406 105.289 211.006 105.538 211.633 105.538H222.659C223.114 105.536 223.559 105.402 223.94 105.153C224.321 104.904 224.621 104.55 224.806 104.134C224.991 103.718 225.051 103.258 224.981 102.808C224.91 102.359 224.711 101.939 224.408 101.6C224.795 101.167 225.009 100.606 225.009 100.025C225.009 99.4438 224.795 98.883 224.408 98.4498ZM216.359 103.963H211.633C211.424 103.963 211.224 103.88 211.076 103.732C210.929 103.585 210.846 103.384 210.846 103.175C210.846 102.966 210.929 102.766 211.076 102.618C211.224 102.471 211.424 102.388 211.633 102.388H216.359C216.568 102.388 216.768 102.471 216.916 102.618C217.063 102.766 217.146 102.966 217.146 103.175C217.146 103.384 217.063 103.585 216.916 103.732C216.768 103.88 216.568 103.963 216.359 103.963ZM216.359 100.813H211.633C211.424 100.813 211.224 100.73 211.076 100.582C210.929 100.434 210.846 100.234 210.846 100.025C210.846 99.8161 210.929 99.6158 211.076 99.4681C211.224 99.3204 211.424 99.2374 211.633 99.2374H216.359C216.568 99.2374 216.768 99.3204 216.916 99.4681C217.063 99.6158 217.146 99.8161 217.146 100.025C217.146 100.234 217.063 100.434 216.916 100.582C216.768 100.73 216.568 100.813 216.359 100.813ZM216.359 97.6622H211.633C211.424 97.6622 211.224 97.5793 211.076 97.4316C210.929 97.2839 210.846 97.0835 210.846 96.8746C210.846 96.6658 210.929 96.4654 211.076 96.3177C211.224 96.17 211.424 96.0871 211.633 96.0871H216.359C216.568 96.0871 216.768 96.17 216.916 96.3177C217.063 96.4654 217.146 96.6658 217.146 96.8746C217.146 97.0835 217.063 97.2839 216.916 97.4316C216.768 97.5793 216.568 97.6622 216.359 97.6622ZM216.359 94.5119H211.633C211.424 94.5119 211.224 94.4289 211.076 94.2812C210.929 94.1335 210.846 93.9332 210.846 93.7243C210.846 93.5154 210.929 93.3151 211.076 93.1674C211.224 93.0197 211.424 92.9367 211.633 92.9367H216.359C216.568 92.9367 216.768 93.0197 216.916 93.1674C217.063 93.3151 217.146 93.5154 217.146 93.7243C217.146 93.9332 217.063 94.1335 216.916 94.2812C216.768 94.4289 216.568 94.5119 216.359 94.5119ZM223.203 103.734C223.133 103.808 223.049 103.866 222.955 103.906C222.861 103.945 222.761 103.965 222.659 103.963H218.58C218.768 103.455 218.768 102.896 218.58 102.388H222.659C222.868 102.388 223.068 102.471 223.216 102.618C223.364 102.766 223.447 102.966 223.447 103.175C223.445 103.28 223.423 103.383 223.381 103.479C223.339 103.576 223.279 103.662 223.203 103.734ZM223.203 100.584C223.133 100.658 223.049 100.716 222.955 100.755C222.861 100.795 222.761 100.814 222.659 100.813H218.58C218.768 100.304 218.768 99.7455 218.58 99.2374H222.659C222.868 99.2374 223.068 99.3204 223.216 99.4681C223.364 99.6158 223.447 99.8161 223.447 100.025C223.445 100.13 223.423 100.233 223.381 100.329C223.339 100.425 223.279 100.512 223.203 100.584ZM223.203 97.4338C223.133 97.5075 223.049 97.5658 222.955 97.6051C222.861 97.6444 222.761 97.6639 222.659 97.6622H218.58C218.768 97.1542 218.768 96.5951 218.58 96.0871H222.659C222.868 96.0871 223.068 96.17 223.216 96.3177C223.364 96.4654 223.447 96.6658 223.447 96.8746C223.445 96.9794 223.423 97.0828 223.381 97.1788C223.339 97.2749 223.279 97.3615 223.203 97.4338Z" fill="black"/>
<path d="M194.927 118.103H193.201L193.191 117.153H194.64C194.896 117.153 195.105 117.12 195.268 117.056C195.431 116.988 195.553 116.891 195.633 116.765C195.716 116.636 195.757 116.479 195.757 116.294C195.757 116.085 195.717 115.916 195.637 115.787C195.56 115.658 195.439 115.564 195.273 115.505C195.11 115.447 194.899 115.418 194.64 115.418H193.681V121.052H192.296V114.333H194.64C195.031 114.333 195.38 114.37 195.688 114.444C195.999 114.518 196.262 114.63 196.477 114.781C196.692 114.932 196.857 115.122 196.971 115.353C197.085 115.581 197.142 115.851 197.142 116.165C197.142 116.442 197.079 116.697 196.952 116.931C196.829 117.165 196.634 117.356 196.366 117.504C196.102 117.651 195.756 117.733 195.328 117.748L194.927 118.103ZM194.867 121.052H192.822L193.362 119.972H194.867C195.11 119.972 195.308 119.934 195.462 119.857C195.616 119.777 195.729 119.669 195.803 119.534C195.877 119.399 195.914 119.243 195.914 119.068C195.914 118.871 195.88 118.7 195.813 118.556C195.748 118.411 195.643 118.3 195.499 118.223C195.354 118.143 195.163 118.103 194.927 118.103H193.593L193.602 117.153H195.263L195.582 117.527C195.991 117.52 196.32 117.593 196.569 117.743C196.822 117.891 197.005 118.083 197.119 118.32C197.235 118.557 197.294 118.811 197.294 119.082C197.294 119.512 197.2 119.875 197.012 120.171C196.825 120.463 196.549 120.683 196.186 120.831C195.826 120.978 195.386 121.052 194.867 121.052ZM200.547 121.145C200.16 121.145 199.812 121.083 199.504 120.96C199.197 120.834 198.935 120.66 198.72 120.438C198.508 120.217 198.345 119.96 198.231 119.668C198.117 119.372 198.06 119.059 198.06 118.726V118.542C198.06 118.163 198.114 117.817 198.221 117.504C198.329 117.19 198.483 116.917 198.683 116.687C198.886 116.456 199.132 116.279 199.421 116.156C199.71 116.03 200.037 115.967 200.4 115.967C200.753 115.967 201.067 116.025 201.341 116.142C201.615 116.259 201.844 116.425 202.029 116.641C202.216 116.856 202.358 117.114 202.453 117.416C202.549 117.714 202.596 118.047 202.596 118.413V118.966H198.628V118.08H201.29V117.979C201.29 117.794 201.256 117.63 201.189 117.485C201.124 117.337 201.026 117.22 200.893 117.134C200.761 117.048 200.592 117.005 200.386 117.005C200.21 117.005 200.06 117.044 199.934 117.12C199.807 117.197 199.704 117.305 199.624 117.444C199.547 117.582 199.489 117.745 199.449 117.933C199.412 118.117 199.394 118.32 199.394 118.542V118.726C199.394 118.926 199.421 119.111 199.477 119.28C199.535 119.449 199.617 119.596 199.721 119.719C199.829 119.842 199.958 119.937 200.109 120.005C200.263 120.072 200.437 120.106 200.63 120.106C200.87 120.106 201.093 120.06 201.299 119.968C201.509 119.872 201.689 119.729 201.839 119.539L202.485 120.24C202.381 120.391 202.238 120.535 202.056 120.674C201.878 120.812 201.663 120.926 201.41 121.015C201.158 121.101 200.87 121.145 200.547 121.145ZM205.799 116.059V117.001H202.892V116.059H205.799ZM203.611 114.827H204.941V119.548C204.941 119.692 204.959 119.803 204.996 119.88C205.036 119.957 205.094 120.011 205.171 120.042C205.248 120.069 205.345 120.083 205.462 120.083C205.545 120.083 205.619 120.08 205.683 120.074C205.751 120.065 205.808 120.055 205.854 120.046L205.859 121.025C205.745 121.061 205.622 121.091 205.49 121.112C205.357 121.134 205.211 121.145 205.051 121.145C204.759 121.145 204.504 121.097 204.285 121.001C204.07 120.903 203.904 120.746 203.787 120.531C203.67 120.315 203.611 120.032 203.611 119.682V114.827ZM210.377 114.333V121.052H208.992V114.333H210.377ZM213.053 117.204V118.283H209.998V117.204H213.053ZM213.376 114.333V115.418H209.998V114.333H213.376ZM216.948 119.857V116.059H218.277V121.052H217.027L216.948 119.857ZM217.096 118.833L217.488 118.823C217.488 119.156 217.45 119.465 217.373 119.751C217.296 120.034 217.18 120.28 217.027 120.489C216.873 120.695 216.679 120.857 216.445 120.974C216.211 121.088 215.936 121.145 215.619 121.145C215.376 121.145 215.151 121.111 214.945 121.043C214.742 120.972 214.567 120.863 214.419 120.715C214.275 120.565 214.161 120.372 214.078 120.139C213.998 119.902 213.958 119.617 213.958 119.285V116.059H215.287V119.294C215.287 119.442 215.304 119.566 215.338 119.668C215.374 119.769 215.425 119.852 215.49 119.917C215.554 119.982 215.63 120.028 215.716 120.055C215.805 120.083 215.904 120.097 216.011 120.097C216.285 120.097 216.5 120.042 216.657 119.931C216.817 119.82 216.93 119.669 216.994 119.479C217.062 119.285 217.096 119.069 217.096 118.833ZM220.594 117.125V121.052H219.265V116.059H220.511L220.594 117.125ZM220.4 118.38H220.04C220.04 118.011 220.088 117.679 220.183 117.384C220.278 117.085 220.412 116.831 220.584 116.622C220.757 116.41 220.961 116.248 221.198 116.138C221.438 116.024 221.706 115.967 222.001 115.967C222.235 115.967 222.449 116.001 222.643 116.068C222.836 116.136 223.003 116.244 223.141 116.391C223.283 116.539 223.39 116.734 223.464 116.977C223.541 117.22 223.579 117.517 223.579 117.868V121.052H222.241V117.863C222.241 117.642 222.21 117.47 222.149 117.347C222.087 117.224 221.997 117.137 221.877 117.088C221.76 117.036 221.615 117.01 221.443 117.01C221.264 117.01 221.109 117.045 220.977 117.116C220.848 117.187 220.74 117.285 220.654 117.411C220.571 117.534 220.508 117.679 220.464 117.845C220.421 118.011 220.4 118.19 220.4 118.38ZM227.539 119.963V113.964H228.877V121.052H227.673L227.539 119.963ZM224.382 118.616V118.519C224.382 118.137 224.425 117.791 224.512 117.48C224.598 117.167 224.724 116.897 224.89 116.673C225.056 116.448 225.261 116.274 225.504 116.151C225.747 116.028 226.024 115.967 226.334 115.967C226.627 115.967 226.882 116.028 227.1 116.151C227.322 116.274 227.51 116.45 227.663 116.677C227.82 116.902 227.947 117.168 228.042 117.476C228.137 117.78 228.206 118.114 228.25 118.477V118.69C228.206 119.037 228.137 119.36 228.042 119.659C227.947 119.957 227.82 120.219 227.663 120.443C227.51 120.665 227.322 120.837 227.1 120.96C226.879 121.083 226.621 121.145 226.325 121.145C226.014 121.145 225.738 121.081 225.495 120.955C225.255 120.829 225.052 120.652 224.885 120.425C224.722 120.197 224.598 119.929 224.512 119.622C224.425 119.314 224.382 118.979 224.382 118.616ZM225.711 118.519V118.616C225.711 118.822 225.727 119.014 225.758 119.193C225.791 119.371 225.845 119.529 225.919 119.668C225.996 119.803 226.094 119.909 226.214 119.986C226.338 120.06 226.487 120.097 226.662 120.097C226.89 120.097 227.077 120.046 227.225 119.945C227.373 119.84 227.485 119.697 227.562 119.516C227.642 119.334 227.688 119.125 227.7 118.888V118.283C227.691 118.09 227.663 117.916 227.617 117.762C227.574 117.605 227.51 117.471 227.424 117.36C227.34 117.25 227.236 117.164 227.11 117.102C226.987 117.041 226.841 117.01 226.671 117.01C226.499 117.01 226.351 117.05 226.228 117.13C226.105 117.207 226.005 117.313 225.928 117.448C225.854 117.584 225.799 117.743 225.762 117.928C225.728 118.11 225.711 118.306 225.711 118.519ZM231.318 116.059V121.052H229.985V116.059H231.318ZM229.902 114.758C229.902 114.564 229.969 114.404 230.105 114.278C230.24 114.152 230.422 114.089 230.649 114.089C230.874 114.089 231.054 114.152 231.189 114.278C231.328 114.404 231.397 114.564 231.397 114.758C231.397 114.952 231.328 115.112 231.189 115.238C231.054 115.364 230.874 115.427 230.649 115.427C230.422 115.427 230.24 115.364 230.105 115.238C229.969 115.112 229.902 114.952 229.902 114.758ZM233.718 117.125V121.052H232.389V116.059H233.635L233.718 117.125ZM233.524 118.38H233.164C233.164 118.011 233.212 117.679 233.307 117.384C233.403 117.085 233.536 116.831 233.709 116.622C233.881 116.41 234.086 116.248 234.323 116.138C234.563 116.024 234.83 115.967 235.126 115.967C235.359 115.967 235.573 116.001 235.767 116.068C235.961 116.136 236.127 116.244 236.265 116.391C236.407 116.539 236.515 116.734 236.588 116.977C236.665 117.22 236.704 117.517 236.704 117.868V121.052H235.365V117.863C235.365 117.642 235.335 117.47 235.273 117.347C235.212 117.224 235.121 117.137 235.001 117.088C234.884 117.036 234.739 117.01 234.567 117.01C234.389 117.01 234.233 117.045 234.101 117.116C233.972 117.187 233.864 117.285 233.778 117.411C233.695 117.534 233.632 117.679 233.589 117.845C233.546 118.011 233.524 118.19 233.524 118.38ZM240.875 116.059H242.08V120.886C242.08 121.341 241.978 121.728 241.775 122.044C241.575 122.364 241.295 122.606 240.935 122.769C240.576 122.935 240.157 123.018 239.68 123.018C239.471 123.018 239.25 122.99 239.016 122.935C238.785 122.88 238.563 122.794 238.351 122.677C238.142 122.56 237.967 122.412 237.825 122.234L238.411 121.449C238.565 121.628 238.743 121.766 238.947 121.864C239.15 121.966 239.374 122.017 239.62 122.017C239.86 122.017 240.063 121.972 240.229 121.883C240.396 121.797 240.523 121.669 240.612 121.5C240.702 121.334 240.746 121.132 240.746 120.895V117.213L240.875 116.059ZM237.516 118.616V118.519C237.516 118.137 237.562 117.791 237.654 117.48C237.75 117.167 237.884 116.897 238.056 116.673C238.231 116.448 238.444 116.274 238.693 116.151C238.942 116.028 239.223 115.967 239.537 115.967C239.869 115.967 240.148 116.028 240.372 116.151C240.597 116.274 240.782 116.45 240.926 116.677C241.071 116.902 241.183 117.168 241.263 117.476C241.346 117.78 241.411 118.114 241.457 118.477V118.69C241.411 119.037 241.342 119.36 241.249 119.659C241.157 119.957 241.035 120.219 240.885 120.443C240.734 120.665 240.546 120.837 240.322 120.96C240.1 121.083 239.836 121.145 239.528 121.145C239.22 121.145 238.942 121.081 238.693 120.955C238.447 120.829 238.236 120.652 238.06 120.425C237.885 120.197 237.75 119.929 237.654 119.622C237.562 119.314 237.516 118.979 237.516 118.616ZM238.845 118.519V118.616C238.845 118.822 238.865 119.014 238.905 119.193C238.945 119.371 239.006 119.529 239.09 119.668C239.176 119.803 239.282 119.909 239.408 119.986C239.537 120.06 239.689 120.097 239.865 120.097C240.108 120.097 240.306 120.046 240.46 119.945C240.614 119.84 240.729 119.697 240.806 119.516C240.883 119.334 240.928 119.125 240.94 118.888V118.283C240.934 118.09 240.908 117.916 240.862 117.762C240.815 117.605 240.751 117.471 240.668 117.36C240.585 117.25 240.477 117.164 240.345 117.102C240.212 117.041 240.056 117.01 239.874 117.01C239.699 117.01 239.546 117.05 239.417 117.13C239.291 117.207 239.185 117.313 239.099 117.448C239.016 117.584 238.953 117.743 238.91 117.928C238.867 118.11 238.845 118.306 238.845 118.519Z" fill="#595F67"/>
<rect x="298.746" y="92.9363" width="13.3889" height="13.3889" fill="#D6E1FF"/>
<path d="M303.471 99.2388H297.958C297.749 99.2388 297.549 99.3218 297.401 99.4695C297.253 99.6172 297.17 99.8175 297.17 100.026V105.539C297.17 105.748 297.253 105.949 297.401 106.096C297.549 106.244 297.749 106.327 297.958 106.327H303.471C303.68 106.327 303.88 106.244 304.028 106.096C304.176 105.949 304.259 105.748 304.259 105.539V100.026C304.259 99.8175 304.176 99.6172 304.028 99.4695C303.88 99.3218 303.68 99.2388 303.471 99.2388ZM302.683 104.752H298.746V100.814H302.683V104.752ZM312.134 90.5754H306.621C306.413 90.5754 306.212 90.6584 306.064 90.8061C305.917 90.9538 305.834 91.1541 305.834 91.363V96.8761C305.834 97.085 305.917 97.2853 306.064 97.433C306.212 97.5807 306.413 97.6637 306.621 97.6637H312.134C312.343 97.6637 312.544 97.5807 312.691 97.433C312.839 97.2853 312.922 97.085 312.922 96.8761V91.363C312.922 91.1541 312.839 90.9538 312.691 90.8061C312.544 90.6584 312.343 90.5754 312.134 90.5754ZM311.347 96.0885H307.409V92.1506H311.347V96.0885ZM312.134 99.2388H306.621C306.413 99.2388 306.212 99.3218 306.064 99.4695C305.917 99.6172 305.834 99.8175 305.834 100.026V105.539C305.834 105.748 305.917 105.949 306.064 106.096C306.212 106.244 306.413 106.327 306.621 106.327H312.134C312.343 106.327 312.544 106.244 312.691 106.096C312.839 105.949 312.922 105.748 312.922 105.539V100.026C312.922 99.8175 312.839 99.6172 312.691 99.4695C312.544 99.3218 312.343 99.2388 312.134 99.2388ZM311.347 104.752H307.409V100.814H311.347V104.752ZM303.471 90.5754H297.958C297.749 90.5754 297.549 90.6584 297.401 90.8061C297.253 90.9538 297.17 91.1541 297.17 91.363V96.8761C297.17 97.085 297.253 97.2853 297.401 97.433C297.549 97.5807 297.749 97.6637 297.958 97.6637H303.471C303.68 97.6637 303.88 97.5807 304.028 97.433C304.176 97.2853 304.259 97.085 304.259 96.8761V91.363C304.259 91.1541 304.176 90.9538 304.028 90.8061C303.88 90.6584 303.68 90.5754 303.471 90.5754ZM302.683 96.0885H298.746V92.1506H302.683V96.0885Z" fill="black"/>
<path d="M295.235 114.333H296.407L298.133 119.266L299.859 114.333H301.031L298.604 121.052H297.662L295.235 114.333ZM294.603 114.333H295.77L295.982 119.142V121.052H294.603V114.333ZM300.496 114.333H301.668V121.052H300.283V119.142L300.496 114.333ZM302.586 118.606V118.51C302.586 118.143 302.638 117.807 302.743 117.499C302.848 117.188 303 116.919 303.2 116.691C303.4 116.464 303.646 116.287 303.938 116.161C304.231 116.031 304.566 115.967 304.944 115.967C305.323 115.967 305.66 116.031 305.955 116.161C306.25 116.287 306.498 116.464 306.698 116.691C306.901 116.919 307.055 117.188 307.159 117.499C307.264 117.807 307.316 118.143 307.316 118.51V118.606C307.316 118.969 307.264 119.306 307.159 119.617C307.055 119.925 306.901 120.194 306.698 120.425C306.498 120.652 306.252 120.829 305.959 120.955C305.667 121.081 305.332 121.145 304.953 121.145C304.575 121.145 304.238 121.081 303.943 120.955C303.651 120.829 303.403 120.652 303.2 120.425C303 120.194 302.848 119.925 302.743 119.617C302.638 119.306 302.586 118.969 302.586 118.606ZM303.915 118.51V118.606C303.915 118.816 303.934 119.011 303.971 119.193C304.007 119.374 304.066 119.534 304.146 119.672C304.229 119.808 304.337 119.914 304.469 119.991C304.601 120.068 304.763 120.106 304.953 120.106C305.138 120.106 305.297 120.068 305.429 119.991C305.561 119.914 305.667 119.808 305.747 119.672C305.827 119.534 305.886 119.374 305.923 119.193C305.963 119.011 305.983 118.816 305.983 118.606V118.51C305.983 118.306 305.963 118.116 305.923 117.937C305.886 117.756 305.826 117.596 305.743 117.457C305.663 117.316 305.556 117.205 305.424 117.125C305.292 117.045 305.132 117.005 304.944 117.005C304.757 117.005 304.597 117.045 304.464 117.125C304.335 117.205 304.229 117.316 304.146 117.457C304.066 117.596 304.007 117.756 303.971 117.937C303.934 118.116 303.915 118.306 303.915 118.51ZM309.462 117.148V121.052H308.133V116.059H309.384L309.462 117.148ZM310.966 116.027L310.943 117.259C310.879 117.25 310.8 117.242 310.708 117.236C310.619 117.227 310.537 117.222 310.463 117.222C310.276 117.222 310.113 117.247 309.974 117.296C309.839 117.342 309.725 117.411 309.633 117.504C309.544 117.596 309.476 117.708 309.43 117.84C309.387 117.973 309.362 118.123 309.356 118.293L309.088 118.21C309.088 117.887 309.121 117.59 309.185 117.319C309.25 117.045 309.344 116.807 309.467 116.604C309.593 116.401 309.747 116.244 309.928 116.133C310.11 116.022 310.317 115.967 310.551 115.967C310.625 115.967 310.7 115.973 310.777 115.985C310.854 115.994 310.917 116.008 310.966 116.027ZM313.8 121.145C313.412 121.145 313.065 121.083 312.757 120.96C312.449 120.834 312.188 120.66 311.972 120.438C311.76 120.217 311.597 119.96 311.483 119.668C311.37 119.372 311.313 119.059 311.313 118.726V118.542C311.313 118.163 311.366 117.817 311.474 117.504C311.582 117.19 311.736 116.917 311.936 116.687C312.139 116.456 312.385 116.279 312.674 116.156C312.963 116.03 313.289 115.967 313.652 115.967C314.006 115.967 314.32 116.025 314.594 116.142C314.867 116.259 315.097 116.425 315.281 116.641C315.469 116.856 315.61 117.114 315.706 117.416C315.801 117.714 315.849 118.047 315.849 118.413V118.966H311.88V118.08H314.543V117.979C314.543 117.794 314.509 117.63 314.441 117.485C314.377 117.337 314.278 117.22 314.146 117.134C314.014 117.048 313.845 117.005 313.638 117.005C313.463 117.005 313.312 117.044 313.186 117.12C313.06 117.197 312.957 117.305 312.877 117.444C312.8 117.582 312.742 117.745 312.702 117.933C312.665 118.117 312.646 118.32 312.646 118.542V118.726C312.646 118.926 312.674 119.111 312.729 119.28C312.788 119.449 312.869 119.596 312.974 119.719C313.082 119.842 313.211 119.937 313.362 120.005C313.515 120.072 313.689 120.106 313.883 120.106C314.123 120.106 314.346 120.06 314.552 119.968C314.761 119.872 314.941 119.729 315.092 119.539L315.738 120.24C315.634 120.391 315.49 120.535 315.309 120.674C315.131 120.812 314.915 120.926 314.663 121.015C314.411 121.101 314.123 121.145 313.8 121.145Z" fill="#595F67"/>
<defs>
<clipPath id="clip0_4_3164">
<rect width="21" height="21" fill="white" transform="translate(118.747 28.9478)"/>
</clipPath>
<clipPath id="clip1_4_3164">
<rect width="18.902" height="18.902" fill="white" transform="translate(207.696 28.9478)"/>
</clipPath>
</defs>
</svg>