<svg xmlns="http://www.w3.org/2000/svg" width="229" height="26" viewBox="0 0 229 26" fill="none">
<path d="M-5.85318e-05 19.5V1.3H6.49994C7.48794 1.3 8.38061 1.547 9.17794 2.041C9.98394 2.535 10.6209 3.198 11.0889 4.03C11.5569 4.862 11.7909 5.77633 11.7909 6.773C11.7909 7.79567 11.5483 8.723 11.0629 9.555C10.5863 10.3783 9.94494 11.037 9.13894 11.531C8.33294 12.0163 7.45327 12.259 6.49994 12.259H3.17194V19.5H-5.85318e-05ZM3.17194 9.087H6.16194C6.61261 9.087 7.02428 8.97433 7.39694 8.749C7.76961 8.52367 8.06428 8.22033 8.28094 7.839C8.50628 7.45767 8.61894 7.033 8.61894 6.565C8.61894 6.08833 8.50628 5.65933 8.28094 5.278C8.06428 4.89667 7.76961 4.59333 7.39694 4.368C7.02428 4.14267 6.61261 4.03 6.16194 4.03H3.17194V9.087ZM23.0812 6.5H26.2532V19.5H23.0812L22.9382 17.888C22.5829 18.4687 22.1106 18.941 21.5212 19.305C20.9406 19.6603 20.2516 19.838 19.4542 19.838C18.4922 19.838 17.5909 19.656 16.7502 19.292C15.9096 18.928 15.1686 18.4253 14.5272 17.784C13.8946 17.1427 13.3962 16.4017 13.0322 15.561C12.6769 14.7203 12.4992 13.819 12.4992 12.857C12.4992 11.9297 12.6682 11.0587 13.0062 10.244C13.3529 9.42933 13.8339 8.71433 14.4492 8.099C15.0646 7.48367 15.7752 7.00267 16.5812 6.656C17.3872 6.30933 18.2539 6.136 19.1812 6.136C20.0392 6.136 20.8062 6.32667 21.4822 6.708C22.1669 7.08933 22.7476 7.57467 23.2242 8.164L23.0812 6.5ZM19.3762 16.783C20.0522 16.783 20.6502 16.614 21.1702 16.276C21.6902 15.938 22.0976 15.483 22.3922 14.911C22.6869 14.3303 22.8342 13.6933 22.8342 13C22.8342 12.298 22.6869 11.661 22.3922 11.089C22.0976 10.5083 21.6859 10.049 21.1572 9.711C20.6372 9.373 20.0436 9.204 19.3762 9.204C18.7089 9.204 18.0979 9.37733 17.5432 9.724C16.9972 10.062 16.5596 10.517 16.2302 11.089C15.9096 11.661 15.7492 12.298 15.7492 13C15.7492 13.702 15.9139 14.339 16.2432 14.911C16.5726 15.483 17.0102 15.938 17.5562 16.276C18.1109 16.614 18.7176 16.783 19.3762 16.783ZM32.6787 19.734C32.0027 19.6907 31.3484 19.5563 30.7157 19.331C30.0917 19.097 29.537 18.7807 29.0517 18.382C28.5664 17.9833 28.1937 17.5067 27.9337 16.952L30.6117 15.808C30.7157 15.9813 30.8847 16.1677 31.1187 16.367C31.3527 16.5577 31.63 16.718 31.9507 16.848C32.28 16.978 32.6397 17.043 33.0297 17.043C33.359 17.043 33.671 16.9997 33.9657 16.913C34.269 16.8177 34.5117 16.6747 34.6937 16.484C34.8844 16.2933 34.9797 16.0463 34.9797 15.743C34.9797 15.4223 34.867 15.1753 34.6417 15.002C34.425 14.82 34.1477 14.6857 33.8097 14.599C33.4804 14.5037 33.1597 14.417 32.8477 14.339C32.0244 14.1743 31.2574 13.9187 30.5467 13.572C29.8447 13.2253 29.277 12.779 28.8437 12.233C28.419 11.6783 28.2067 11.011 28.2067 10.231C28.2067 9.373 28.432 8.632 28.8827 8.008C29.342 7.384 29.9357 6.903 30.6637 6.565C31.4004 6.227 32.1934 6.058 33.0427 6.058C34.074 6.058 35.0187 6.27467 35.8767 6.708C36.7434 7.13267 37.428 7.735 37.9307 8.515L35.4217 9.997C35.3004 9.789 35.1314 9.59833 34.9147 9.425C34.698 9.243 34.451 9.09567 34.1737 8.983C33.8964 8.86167 33.606 8.79233 33.3027 8.775C32.9127 8.75767 32.5574 8.79233 32.2367 8.879C31.916 8.96567 31.656 9.113 31.4567 9.321C31.266 9.529 31.1707 9.80633 31.1707 10.153C31.1707 10.4823 31.3007 10.7293 31.5607 10.894C31.8207 11.05 32.1327 11.1713 32.4967 11.258C32.8694 11.3447 33.2247 11.44 33.5627 11.544C34.3254 11.7953 35.0404 12.103 35.7077 12.467C36.3837 12.831 36.9254 13.2773 37.3327 13.806C37.74 14.3347 37.935 14.9673 37.9177 15.704C37.9177 16.5447 37.6664 17.2813 37.1637 17.914C36.661 18.538 36.011 19.0147 35.2137 19.344C34.425 19.6733 33.58 19.8033 32.6787 19.734ZM43.9775 19.734C43.3015 19.6907 42.6472 19.5563 42.0145 19.331C41.3905 19.097 40.8359 18.7807 40.3505 18.382C39.8652 17.9833 39.4925 17.5067 39.2325 16.952L41.9105 15.808C42.0145 15.9813 42.1835 16.1677 42.4175 16.367C42.6515 16.5577 42.9289 16.718 43.2495 16.848C43.5789 16.978 43.9385 17.043 44.3285 17.043C44.6579 17.043 44.9699 16.9997 45.2645 16.913C45.5679 16.8177 45.8105 16.6747 45.9925 16.484C46.1832 16.2933 46.2785 16.0463 46.2785 15.743C46.2785 15.4223 46.1659 15.1753 45.9405 15.002C45.7239 14.82 45.4465 14.6857 45.1085 14.599C44.7792 14.5037 44.4585 14.417 44.1465 14.339C43.3232 14.1743 42.5562 13.9187 41.8455 13.572C41.1435 13.2253 40.5759 12.779 40.1425 12.233C39.7179 11.6783 39.5055 11.011 39.5055 10.231C39.5055 9.373 39.7309 8.632 40.1815 8.008C40.6409 7.384 41.2345 6.903 41.9625 6.565C42.6992 6.227 43.4922 6.058 44.3415 6.058C45.3729 6.058 46.3175 6.27467 47.1755 6.708C48.0422 7.13267 48.7269 7.735 49.2295 8.515L46.7205 9.997C46.5992 9.789 46.4302 9.59833 46.2135 9.425C45.9969 9.243 45.7499 9.09567 45.4725 8.983C45.1952 8.86167 44.9049 8.79233 44.6015 8.775C44.2115 8.75767 43.8562 8.79233 43.5355 8.879C43.2149 8.96567 42.9549 9.113 42.7555 9.321C42.5649 9.529 42.4695 9.80633 42.4695 10.153C42.4695 10.4823 42.5995 10.7293 42.8595 10.894C43.1195 11.05 43.4315 11.1713 43.7955 11.258C44.1682 11.3447 44.5235 11.44 44.8615 11.544C45.6242 11.7953 46.3392 12.103 47.0065 12.467C47.6825 12.831 48.2242 13.2773 48.6315 13.806C49.0389 14.3347 49.2339 14.9673 49.2165 15.704C49.2165 16.5447 48.9652 17.2813 48.4625 17.914C47.9599 18.538 47.3099 19.0147 46.5125 19.344C45.7239 19.6733 44.8789 19.8033 43.9775 19.734ZM57.6415 19.5H54.4955L50.1535 6.5H53.2605L56.0815 14.911L58.8895 6.5H62.0225L64.8305 14.911L67.6515 6.5H70.7585L66.4165 19.5H63.2705L60.4495 11.05L57.6415 19.5ZM77.9055 19.838C76.7095 19.838 75.6175 19.5303 74.6295 18.915C73.6502 18.2997 72.8658 17.4763 72.2765 16.445C71.6958 15.405 71.4055 14.2567 71.4055 13C71.4055 12.0467 71.5745 11.1583 71.9125 10.335C72.2505 9.503 72.7142 8.775 73.3035 8.151C73.9015 7.51833 74.5948 7.02433 75.3835 6.669C76.1722 6.31367 77.0128 6.136 77.9055 6.136C79.1015 6.136 80.1892 6.44367 81.1685 7.059C82.1565 7.67433 82.9408 8.502 83.5215 9.542C84.1108 10.582 84.4055 11.7347 84.4055 13C84.4055 13.9447 84.2365 14.8287 83.8985 15.652C83.5605 16.4753 83.0925 17.2033 82.4945 17.836C81.9052 18.46 81.2162 18.9497 80.4275 19.305C79.6475 19.6603 78.8068 19.838 77.9055 19.838ZM77.9055 16.666C78.5382 16.666 79.1058 16.497 79.6085 16.159C80.1112 15.821 80.5055 15.3747 80.7915 14.82C81.0862 14.2653 81.2335 13.6587 81.2335 13C81.2335 12.324 81.0818 11.7087 80.7785 11.154C80.4838 10.5907 80.0808 10.1443 79.5695 9.815C79.0668 9.477 78.5122 9.308 77.9055 9.308C77.2815 9.308 76.7182 9.477 76.2155 9.815C75.7128 10.153 75.3142 10.6037 75.0195 11.167C74.7248 11.7303 74.5775 12.3413 74.5775 13C74.5775 13.6847 74.7292 14.3043 75.0325 14.859C75.3358 15.4137 75.7388 15.8557 76.2415 16.185C76.7528 16.5057 77.3075 16.666 77.9055 16.666ZM86.4426 19.5L86.4296 6.5H89.6016L89.6146 7.657C90.0566 7.189 90.5853 6.82067 91.2006 6.552C91.816 6.27467 92.479 6.136 93.1896 6.136C93.6663 6.136 94.143 6.20533 94.6196 6.344L93.3716 9.542C93.0423 9.412 92.713 9.347 92.3836 9.347C91.8723 9.347 91.4043 9.47267 90.9796 9.724C90.5636 9.96667 90.23 10.3003 89.9786 10.725C89.736 11.141 89.6146 11.6047 89.6146 12.116V19.5H86.4426ZM105.297 -1.54972e-06H108.469V19.5H105.297V17.875C104.881 18.4557 104.356 18.928 103.724 19.292C103.091 19.656 102.359 19.838 101.527 19.838C100.582 19.838 99.698 19.6603 98.8747 19.305C98.0514 18.9497 97.3234 18.46 96.6907 17.836C96.0667 17.2033 95.577 16.4753 95.2217 15.652C94.8664 14.8287 94.6887 13.9447 94.6887 13C94.6887 12.0553 94.8664 11.1713 95.2217 10.348C95.577 9.52467 96.0667 8.801 96.6907 8.177C97.3234 7.54433 98.0514 7.05033 98.8747 6.695C99.698 6.33967 100.582 6.162 101.527 6.162C102.359 6.162 103.091 6.344 103.724 6.708C104.356 7.06333 104.881 7.53567 105.297 8.125V-1.54972e-06ZM101.566 16.783C102.242 16.783 102.84 16.614 103.36 16.276C103.88 15.938 104.287 15.483 104.582 14.911C104.876 14.3303 105.024 13.6933 105.024 13C105.024 12.298 104.876 11.661 104.582 11.089C104.287 10.5083 103.875 10.049 103.347 9.711C102.827 9.373 102.233 9.204 101.566 9.204C100.898 9.204 100.287 9.37733 99.7327 9.724C99.1867 10.062 98.749 10.517 98.4197 11.089C98.099 11.661 97.9387 12.298 97.9387 13C97.9387 13.702 98.1034 14.339 98.4327 14.911C98.762 15.483 99.1997 15.938 99.7457 16.276C100.3 16.614 100.907 16.783 101.566 16.783ZM126.262 19.838C125.031 19.838 123.874 19.5953 122.791 19.11C121.707 18.616 120.754 17.9357 119.931 17.069C119.116 16.2023 118.475 15.2013 118.007 14.066C117.547 12.922 117.318 11.7 117.318 10.4C117.318 9.09133 117.547 7.86933 118.007 6.734C118.475 5.59 119.116 4.589 119.931 3.731C120.754 2.86433 121.707 2.18833 122.791 1.703C123.874 1.209 125.031 0.961998 126.262 0.961998C127.735 0.961998 129.091 1.30433 130.331 1.989C131.57 2.665 132.597 3.57067 133.412 4.706L130.578 6.227C130.066 5.59433 129.429 5.08733 128.667 4.706C127.913 4.32467 127.111 4.134 126.262 4.134C125.464 4.134 124.715 4.29867 124.013 4.628C123.311 4.94867 122.695 5.39933 122.167 5.98C121.638 6.552 121.226 7.21933 120.932 7.982C120.637 8.736 120.49 9.542 120.49 10.4C120.49 11.2667 120.637 12.077 120.932 12.831C121.235 13.585 121.651 14.2523 122.18 14.833C122.708 15.405 123.319 15.8557 124.013 16.185C124.715 16.5057 125.464 16.666 126.262 16.666C127.128 16.666 127.934 16.4753 128.68 16.094C129.434 15.704 130.066 15.1927 130.578 14.56L133.412 16.094C132.597 17.2207 131.57 18.1263 130.331 18.811C129.091 19.4957 127.735 19.838 126.262 19.838ZM147.773 11.284V19.5H144.601V12.116C144.601 11.6047 144.476 11.141 144.224 10.725C143.973 10.3003 143.635 9.96667 143.21 9.724C142.794 9.47267 142.331 9.347 141.819 9.347C141.308 9.347 140.84 9.47267 140.415 9.724C139.999 9.96667 139.666 10.3003 139.414 10.725C139.172 11.141 139.05 11.6047 139.05 12.116V19.5H135.878L135.865 -1.54972e-06H139.037L139.05 7.657C139.492 7.189 140.021 6.82067 140.636 6.552C141.252 6.27467 141.915 6.136 142.625 6.136C143.57 6.136 144.432 6.37 145.212 6.838C145.992 7.29733 146.612 7.917 147.071 8.697C147.539 9.46833 147.773 10.3307 147.773 11.284ZM159.911 6.5H163.083V19.5H159.911L159.768 17.888C159.413 18.4687 158.941 18.941 158.351 19.305C157.771 19.6603 157.082 19.838 156.284 19.838C155.322 19.838 154.421 19.656 153.58 19.292C152.74 18.928 151.999 18.4253 151.357 17.784C150.725 17.1427 150.226 16.4017 149.862 15.561C149.507 14.7203 149.329 13.819 149.329 12.857C149.329 11.9297 149.498 11.0587 149.836 10.244C150.183 9.42933 150.664 8.71433 151.279 8.099C151.895 7.48367 152.605 7.00267 153.411 6.656C154.217 6.30933 155.084 6.136 156.011 6.136C156.869 6.136 157.636 6.32667 158.312 6.708C158.997 7.08933 159.578 7.57467 160.054 8.164L159.911 6.5ZM156.206 16.783C156.882 16.783 157.48 16.614 158 16.276C158.52 15.938 158.928 15.483 159.222 14.911C159.517 14.3303 159.664 13.6933 159.664 13C159.664 12.298 159.517 11.661 159.222 11.089C158.928 10.5083 158.516 10.049 157.987 9.711C157.467 9.373 156.874 9.204 156.206 9.204C155.539 9.204 154.928 9.37733 154.373 9.724C153.827 10.062 153.39 10.517 153.06 11.089C152.74 11.661 152.579 12.298 152.579 13C152.579 13.702 152.744 14.339 153.073 14.911C153.403 15.483 153.84 15.938 154.386 16.276C154.941 16.614 155.548 16.783 156.206 16.783ZM177.582 11.284V19.5H174.41V12.116C174.41 11.6047 174.284 11.141 174.033 10.725C173.781 10.3003 173.443 9.96667 173.019 9.724C172.603 9.47267 172.139 9.347 171.628 9.347C171.116 9.347 170.648 9.47267 170.224 9.724C169.808 9.96667 169.474 10.3003 169.223 10.725C168.98 11.141 168.859 11.6047 168.859 12.116V19.5H165.687L165.674 6.5H168.846L168.859 7.657C169.301 7.189 169.829 6.82067 170.445 6.552C171.06 6.27467 171.723 6.136 172.434 6.136C173.378 6.136 174.241 6.37 175.021 6.838C175.801 7.29733 176.42 7.917 176.88 8.697C177.348 9.46833 177.582 10.3307 177.582 11.284ZM189.564 6.5H192.736V19.747C192.736 20.683 192.545 21.5323 192.164 22.295C191.783 23.0663 191.263 23.725 190.604 24.271C189.945 24.8257 189.191 25.2503 188.342 25.545C187.493 25.8483 186.6 26 185.664 26C184.754 26 183.879 25.8137 183.038 25.441C182.197 25.0683 181.452 24.557 180.802 23.907C180.161 23.2657 179.671 22.5333 179.333 21.71L182.232 20.397C182.405 20.8737 182.665 21.2897 183.012 21.645C183.367 22.009 183.775 22.2907 184.234 22.49C184.693 22.698 185.17 22.802 185.664 22.802C186.167 22.802 186.648 22.7327 187.107 22.594C187.575 22.4553 187.995 22.2517 188.368 21.983C188.741 21.723 189.031 21.4023 189.239 21.021C189.456 20.6483 189.564 20.2237 189.564 19.747V17.914C189.157 18.486 188.645 18.9497 188.03 19.305C187.415 19.6603 186.704 19.838 185.898 19.838C184.962 19.838 184.087 19.6603 183.272 19.305C182.457 18.9497 181.738 18.46 181.114 17.836C180.499 17.2033 180.013 16.4753 179.658 15.652C179.311 14.8287 179.138 13.9447 179.138 13C179.138 12.0553 179.311 11.1713 179.658 10.348C180.013 9.52467 180.499 8.801 181.114 8.177C181.738 7.54433 182.457 7.05033 183.272 6.695C184.087 6.33967 184.962 6.162 185.898 6.162C186.704 6.162 187.415 6.33967 188.03 6.695C188.645 7.04167 189.157 7.501 189.564 8.073V6.5ZM185.937 16.783C186.604 16.783 187.194 16.614 187.705 16.276C188.225 15.9293 188.632 15.47 188.927 14.898C189.222 14.3173 189.369 13.6847 189.369 13C189.369 12.3067 189.217 11.674 188.914 11.102C188.619 10.53 188.212 10.0707 187.692 9.724C187.181 9.37733 186.596 9.204 185.937 9.204C185.287 9.204 184.693 9.37733 184.156 9.724C183.619 10.062 183.19 10.517 182.869 11.089C182.548 11.661 182.388 12.298 182.388 13C182.388 13.702 182.548 14.339 182.869 14.911C183.19 15.483 183.619 15.938 184.156 16.276C184.693 16.614 185.287 16.783 185.937 16.783ZM201.279 19.838C200.083 19.838 198.991 19.5303 198.003 18.915C197.023 18.2997 196.239 17.472 195.65 16.432C195.069 15.392 194.779 14.2437 194.779 12.987C194.779 12.0423 194.948 11.1583 195.286 10.335C195.624 9.503 196.087 8.775 196.677 8.151C197.275 7.51833 197.968 7.02433 198.757 6.669C199.545 6.31367 200.386 6.136 201.279 6.136C202.293 6.136 203.22 6.35267 204.061 6.786C204.91 7.21067 205.629 7.79567 206.219 8.541C206.808 9.28633 207.237 10.1357 207.506 11.089C207.774 12.0423 207.835 13.039 207.688 14.079H198.185C198.306 14.5643 198.505 15.002 198.783 15.392C199.06 15.7733 199.411 16.081 199.836 16.315C200.26 16.5403 200.741 16.6573 201.279 16.666C201.833 16.6747 202.336 16.5447 202.787 16.276C203.246 15.9987 203.627 15.626 203.931 15.158L207.168 15.912C206.639 17.0647 205.85 18.0093 204.802 18.746C203.753 19.474 202.579 19.838 201.279 19.838ZM198.081 11.7H204.477C204.381 11.18 204.178 10.712 203.866 10.296C203.562 9.87133 203.185 9.53333 202.735 9.282C202.284 9.03067 201.799 8.905 201.279 8.905C200.759 8.905 200.278 9.03067 199.836 9.282C199.394 9.52467 199.017 9.85833 198.705 10.283C198.401 10.699 198.193 11.1713 198.081 11.7ZM219.681 -1.54972e-06H222.853V19.5H219.681V17.875C219.265 18.4557 218.741 18.928 218.108 19.292C217.476 19.656 216.743 19.838 215.911 19.838C214.967 19.838 214.083 19.6603 213.259 19.305C212.436 18.9497 211.708 18.46 211.075 17.836C210.451 17.2033 209.962 16.4753 209.606 15.652C209.251 14.8287 209.073 13.9447 209.073 13C209.073 12.0553 209.251 11.1713 209.606 10.348C209.962 9.52467 210.451 8.801 211.075 8.177C211.708 7.54433 212.436 7.05033 213.259 6.695C214.083 6.33967 214.967 6.162 215.911 6.162C216.743 6.162 217.476 6.344 218.108 6.708C218.741 7.06333 219.265 7.53567 219.681 8.125V-1.54972e-06ZM215.95 16.783C216.626 16.783 217.224 16.614 217.744 16.276C218.264 15.938 218.672 15.483 218.966 14.911C219.261 14.3303 219.408 13.6933 219.408 13C219.408 12.298 219.261 11.661 218.966 11.089C218.672 10.5083 218.26 10.049 217.731 9.711C217.211 9.373 216.618 9.204 215.95 9.204C215.283 9.204 214.672 9.37733 214.117 9.724C213.571 10.062 213.134 10.517 212.804 11.089C212.484 11.661 212.323 12.298 212.323 13C212.323 13.702 212.488 14.339 212.817 14.911C213.147 15.483 213.584 15.938 214.13 16.276C214.685 16.614 215.292 16.783 215.95 16.783ZM225.743 14.04V1.3H228.421V14.04H225.743ZM227.095 19.838C226.635 19.838 226.245 19.6777 225.925 19.357C225.613 19.0363 225.457 18.6463 225.457 18.187C225.457 17.7363 225.613 17.355 225.925 17.043C226.245 16.731 226.635 16.575 227.095 16.575C227.537 16.575 227.914 16.731 228.226 17.043C228.538 17.355 228.694 17.7363 228.694 18.187C228.694 18.6463 228.538 19.0363 228.226 19.357C227.914 19.6777 227.537 19.838 227.095 19.838Z" fill="#1E232C"/>
</svg>