<svg xmlns="http://www.w3.org/2000/svg" width="210" height="332" viewBox="0 0 210 332" fill="none">
<g clip-path="url(#clip0_1_316)">
<rect x="1.45122e-05" y="332" width="332" height="210" rx="12" transform="rotate(-90 1.45122e-05 332)" fill="#283C3A"/>
<g clip-path="url(#clip1_1_316)">
<circle cx="171.5" cy="275" r="18" fill="#F79E1C"/>
<circle cx="149" cy="275" r="18" fill="#EF1B22"/>
<path opacity="0.5" fill-rule="evenodd" clip-rule="evenodd" d="M160.25 289.052C164.365 285.753 167 280.684 167 275C167 269.316 164.365 264.247 160.25 260.948C156.135 264.247 153.5 269.316 153.5 275C153.5 280.684 156.135 285.753 160.25 289.052Z" fill="#F79E1C"/>
<path d="M130.785 306V300H131.906V300.977H131.98C132.105 300.646 132.31 300.388 132.594 300.203C132.878 300.016 133.217 299.922 133.613 299.922C134.014 299.922 134.35 300.016 134.621 300.203C134.895 300.391 135.096 300.648 135.227 300.977H135.289C135.432 300.656 135.66 300.401 135.973 300.211C136.285 300.018 136.658 299.922 137.09 299.922C137.634 299.922 138.078 300.092 138.422 300.434C138.768 300.775 138.941 301.289 138.941 301.977V306H137.773V302.086C137.773 301.68 137.663 301.385 137.441 301.203C137.22 301.021 136.956 300.93 136.648 300.93C136.268 300.93 135.973 301.047 135.762 301.281C135.551 301.513 135.445 301.811 135.445 302.176V306H134.281V302.012C134.281 301.686 134.18 301.424 133.977 301.227C133.773 301.029 133.509 300.93 133.184 300.93C132.962 300.93 132.758 300.988 132.57 301.105C132.385 301.22 132.236 301.38 132.121 301.586C132.009 301.792 131.953 302.03 131.953 302.301V306H130.785ZM142.253 306.133C141.873 306.133 141.529 306.063 141.222 305.922C140.914 305.779 140.671 305.572 140.491 305.301C140.314 305.03 140.226 304.698 140.226 304.305C140.226 303.966 140.291 303.688 140.421 303.469C140.551 303.25 140.727 303.077 140.948 302.949C141.17 302.822 141.417 302.725 141.69 302.66C141.964 302.595 142.243 302.546 142.526 302.512C142.886 302.47 143.177 302.436 143.401 302.41C143.625 302.382 143.788 302.336 143.89 302.273C143.991 302.211 144.042 302.109 144.042 301.969V301.941C144.042 301.6 143.946 301.336 143.753 301.148C143.563 300.961 143.279 300.867 142.901 300.867C142.508 300.867 142.198 300.954 141.972 301.129C141.748 301.301 141.593 301.492 141.507 301.703L140.409 301.453C140.539 301.089 140.73 300.794 140.98 300.57C141.232 300.344 141.522 300.18 141.851 300.078C142.179 299.974 142.524 299.922 142.886 299.922C143.125 299.922 143.379 299.951 143.647 300.008C143.918 300.063 144.171 300.164 144.405 300.313C144.642 300.461 144.836 300.673 144.987 300.949C145.138 301.223 145.214 301.578 145.214 302.016V306H144.073V305.18H144.026C143.951 305.331 143.838 305.479 143.687 305.625C143.535 305.771 143.341 305.892 143.105 305.988C142.868 306.085 142.584 306.133 142.253 306.133ZM142.507 305.195C142.83 305.195 143.106 305.132 143.335 305.004C143.567 304.876 143.743 304.71 143.862 304.504C143.985 304.296 144.046 304.073 144.046 303.836V303.063C144.004 303.104 143.924 303.143 143.804 303.18C143.687 303.214 143.552 303.243 143.401 303.27C143.25 303.293 143.103 303.315 142.96 303.336C142.817 303.354 142.697 303.37 142.601 303.383C142.374 303.411 142.167 303.46 141.98 303.527C141.795 303.595 141.646 303.693 141.534 303.82C141.425 303.945 141.37 304.112 141.37 304.32C141.37 304.609 141.477 304.828 141.69 304.977C141.904 305.122 142.176 305.195 142.507 305.195ZM151.266 301.465L150.207 301.652C150.163 301.517 150.092 301.388 149.996 301.266C149.902 301.143 149.775 301.043 149.613 300.965C149.452 300.887 149.25 300.848 149.008 300.848C148.677 300.848 148.401 300.922 148.18 301.07C147.958 301.216 147.848 301.405 147.848 301.637C147.848 301.837 147.922 301.999 148.07 302.121C148.219 302.243 148.458 302.344 148.789 302.422L149.742 302.641C150.294 302.768 150.706 302.965 150.977 303.23C151.247 303.496 151.383 303.841 151.383 304.266C151.383 304.625 151.279 304.945 151.07 305.227C150.865 305.505 150.577 305.724 150.207 305.883C149.84 306.042 149.414 306.121 148.93 306.121C148.258 306.121 147.71 305.978 147.285 305.691C146.861 305.402 146.6 304.992 146.504 304.461L147.633 304.289C147.703 304.583 147.848 304.806 148.066 304.957C148.285 305.105 148.57 305.18 148.922 305.18C149.305 305.18 149.611 305.1 149.84 304.941C150.069 304.78 150.184 304.583 150.184 304.352C150.184 304.164 150.113 304.007 149.973 303.879C149.835 303.751 149.622 303.655 149.336 303.59L148.32 303.367C147.76 303.24 147.346 303.036 147.078 302.758C146.813 302.479 146.68 302.126 146.68 301.699C146.68 301.345 146.779 301.035 146.977 300.77C147.174 300.504 147.448 300.297 147.797 300.148C148.146 299.997 148.546 299.922 148.996 299.922C149.645 299.922 150.155 300.063 150.527 300.344C150.9 300.622 151.146 300.996 151.266 301.465ZM155.468 300V300.938H152.19V300H155.468ZM153.069 298.563H154.237V304.238C154.237 304.465 154.271 304.635 154.339 304.75C154.407 304.862 154.494 304.939 154.601 304.98C154.71 305.02 154.828 305.039 154.956 305.039C155.05 305.039 155.132 305.033 155.202 305.02C155.272 305.007 155.327 304.996 155.366 304.988L155.577 305.953C155.509 305.979 155.413 306.005 155.288 306.031C155.163 306.06 155.007 306.076 154.819 306.078C154.512 306.083 154.226 306.029 153.96 305.914C153.694 305.799 153.48 305.622 153.315 305.383C153.151 305.143 153.069 304.842 153.069 304.48V298.563ZM159.281 306.121C158.69 306.121 158.181 305.995 157.754 305.742C157.329 305.487 157.001 305.129 156.77 304.668C156.54 304.204 156.426 303.661 156.426 303.039C156.426 302.424 156.54 301.883 156.77 301.414C157.001 300.945 157.324 300.579 157.738 300.316C158.155 300.053 158.642 299.922 159.199 299.922C159.538 299.922 159.866 299.978 160.184 300.09C160.501 300.202 160.786 300.378 161.039 300.617C161.292 300.857 161.491 301.168 161.637 301.551C161.783 301.931 161.855 302.393 161.855 302.938V303.352H157.086V302.477H160.711C160.711 302.169 160.648 301.897 160.523 301.66C160.398 301.421 160.223 301.232 159.996 301.094C159.772 300.956 159.509 300.887 159.207 300.887C158.879 300.887 158.592 300.967 158.348 301.129C158.105 301.288 157.918 301.496 157.785 301.754C157.655 302.009 157.59 302.286 157.59 302.586V303.27C157.59 303.671 157.66 304.012 157.801 304.293C157.944 304.574 158.143 304.789 158.398 304.938C158.654 305.083 158.952 305.156 159.293 305.156C159.514 305.156 159.716 305.125 159.898 305.063C160.081 304.997 160.238 304.901 160.371 304.773C160.504 304.646 160.605 304.488 160.676 304.301L161.781 304.5C161.693 304.826 161.534 305.111 161.305 305.355C161.078 305.598 160.793 305.786 160.449 305.922C160.108 306.055 159.719 306.121 159.281 306.121ZM163.151 306V300H164.28V300.953H164.343C164.452 300.63 164.645 300.376 164.921 300.191C165.2 300.004 165.515 299.91 165.866 299.91C165.939 299.91 166.025 299.913 166.124 299.918C166.226 299.923 166.305 299.93 166.362 299.938V301.055C166.315 301.042 166.232 301.027 166.112 301.012C165.993 300.993 165.873 300.984 165.753 300.984C165.477 300.984 165.231 301.043 165.015 301.16C164.801 301.275 164.632 301.435 164.507 301.641C164.382 301.844 164.319 302.076 164.319 302.336V306H163.151ZM169.686 306.121C169.105 306.121 168.605 305.99 168.186 305.727C167.769 305.461 167.449 305.095 167.225 304.629C167.001 304.163 166.889 303.629 166.889 303.027C166.889 302.418 167.003 301.88 167.232 301.414C167.462 300.945 167.785 300.579 168.201 300.316C168.618 300.053 169.109 299.922 169.674 299.922C170.13 299.922 170.536 300.007 170.893 300.176C171.249 300.342 171.537 300.577 171.756 300.879C171.977 301.181 172.109 301.534 172.15 301.938H171.014C170.951 301.656 170.808 301.414 170.584 301.211C170.363 301.008 170.066 300.906 169.693 300.906C169.368 300.906 169.083 300.992 168.838 301.164C168.596 301.333 168.407 301.576 168.271 301.891C168.136 302.203 168.068 302.573 168.068 303C168.068 303.438 168.135 303.815 168.268 304.133C168.4 304.451 168.588 304.697 168.83 304.871C169.075 305.046 169.363 305.133 169.693 305.133C169.915 305.133 170.115 305.092 170.295 305.012C170.477 304.928 170.63 304.81 170.752 304.656C170.877 304.503 170.964 304.318 171.014 304.102H172.15C172.109 304.49 171.982 304.836 171.771 305.141C171.561 305.445 171.278 305.685 170.924 305.859C170.572 306.034 170.16 306.121 169.686 306.121ZM175.146 306.133C174.765 306.133 174.422 306.063 174.114 305.922C173.807 305.779 173.563 305.572 173.384 305.301C173.207 305.03 173.118 304.698 173.118 304.305C173.118 303.966 173.183 303.688 173.313 303.469C173.444 303.25 173.619 303.077 173.841 302.949C174.062 302.822 174.31 302.725 174.583 302.66C174.856 302.595 175.135 302.546 175.419 302.512C175.778 302.47 176.07 302.436 176.294 302.41C176.518 302.382 176.681 302.336 176.782 302.273C176.884 302.211 176.935 302.109 176.935 301.969V301.941C176.935 301.6 176.838 301.336 176.646 301.148C176.455 300.961 176.172 300.867 175.794 300.867C175.401 300.867 175.091 300.954 174.864 301.129C174.64 301.301 174.485 301.492 174.399 301.703L173.302 301.453C173.432 301.089 173.622 300.794 173.872 300.57C174.125 300.344 174.415 300.18 174.743 300.078C175.071 299.974 175.416 299.922 175.778 299.922C176.018 299.922 176.272 299.951 176.54 300.008C176.811 300.063 177.063 300.164 177.298 300.313C177.535 300.461 177.729 300.673 177.88 300.949C178.031 301.223 178.106 301.578 178.106 302.016V306H176.966V305.18H176.919C176.843 305.331 176.73 305.479 176.579 305.625C176.428 305.771 176.234 305.892 175.997 305.988C175.76 306.085 175.476 306.133 175.146 306.133ZM175.399 305.195C175.722 305.195 175.998 305.132 176.228 305.004C176.459 304.876 176.635 304.71 176.755 304.504C176.877 304.296 176.938 304.073 176.938 303.836V303.063C176.897 303.104 176.816 303.143 176.696 303.18C176.579 303.214 176.445 303.243 176.294 303.27C176.143 303.293 175.996 303.315 175.853 303.336C175.709 303.354 175.59 303.37 175.493 303.383C175.267 303.411 175.06 303.46 174.872 303.527C174.687 303.595 174.539 303.693 174.427 303.82C174.317 303.945 174.263 304.112 174.263 304.32C174.263 304.609 174.369 304.828 174.583 304.977C174.797 305.122 175.069 305.195 175.399 305.195ZM179.662 306V300H180.791V300.953H180.854C180.963 300.63 181.156 300.376 181.432 300.191C181.71 300.004 182.025 299.91 182.377 299.91C182.45 299.91 182.536 299.913 182.635 299.918C182.736 299.923 182.816 299.93 182.873 299.938V301.055C182.826 301.042 182.743 301.027 182.623 301.012C182.503 300.993 182.383 300.984 182.264 300.984C181.988 300.984 181.742 301.043 181.525 301.16C181.312 301.275 181.143 301.435 181.018 301.641C180.893 301.844 180.83 302.076 180.83 302.336V306H179.662ZM185.915 306.117C185.431 306.117 184.998 305.993 184.618 305.746C184.241 305.496 183.944 305.141 183.728 304.68C183.514 304.216 183.407 303.66 183.407 303.012C183.407 302.363 183.515 301.809 183.731 301.348C183.95 300.887 184.25 300.534 184.63 300.289C185.01 300.044 185.441 299.922 185.923 299.922C186.295 299.922 186.595 299.984 186.821 300.109C187.05 300.232 187.228 300.375 187.353 300.539C187.48 300.703 187.579 300.848 187.649 300.973H187.72V298H188.888V306H187.747V305.066H187.649C187.579 305.194 187.478 305.34 187.345 305.504C187.215 305.668 187.035 305.811 186.806 305.934C186.577 306.056 186.28 306.117 185.915 306.117ZM186.173 305.121C186.509 305.121 186.793 305.033 187.024 304.855C187.259 304.676 187.436 304.427 187.556 304.109C187.678 303.792 187.739 303.422 187.739 303C187.739 302.583 187.679 302.219 187.56 301.906C187.44 301.594 187.264 301.35 187.032 301.176C186.8 301.001 186.514 300.914 186.173 300.914C185.821 300.914 185.528 301.005 185.294 301.188C185.06 301.37 184.883 301.618 184.763 301.934C184.646 302.249 184.587 302.604 184.587 303C184.587 303.401 184.647 303.762 184.767 304.082C184.886 304.402 185.063 304.656 185.298 304.844C185.535 305.029 185.827 305.121 186.173 305.121Z" fill="white"/>
</g>
<g clip-path="url(#clip2_1_316)">
<rect x="69.7621" y="293" width="40" height="30.4762" rx="4.66667" transform="rotate(-90 69.7621 293)" fill="#E9DCA5"/>
<path d="M79.1371 292.375V281.583C79.1371 280.295 80.1818 279.25 81.4704 279.25H86.4808M99.6371 279.25H93.8246M93.8246 279.25H86.4808M93.8246 279.25V292.375M86.4808 279.25V292.375" stroke="#262626" stroke-width="0.583333"/>
<path d="M79.1371 253.625V266.125M79.1371 266.125H86.4808M79.1371 266.125H70.3871M99.6371 266.125H93.8246M93.8246 266.125H86.4808M93.8246 266.125V253.625M86.4808 266.125V253.625" stroke="#262626" stroke-width="0.583333"/>
</g>
<path d="M15.752 27.296C15.5707 27.296 15.4267 27.2267 15.32 27.088C15.224 26.9387 15.176 26.7413 15.176 26.496C15.176 25.952 15.4 25.68 15.848 25.68H17.544C17.9387 25.68 18.216 25.568 18.376 25.344C18.5467 25.12 18.632 24.8747 18.632 24.608V21.984C18.632 21.7173 18.5467 21.472 18.376 21.248C18.216 21.024 17.9387 20.912 17.544 20.912H14.184V31.36C14.184 31.872 13.864 32.128 13.224 32.128C12.6053 32.128 12.296 31.872 12.296 31.36V20.256C12.296 19.872 12.392 19.616 12.584 19.488C12.776 19.36 13.0107 19.296 13.288 19.296H17.96C18.2267 19.296 18.5093 19.3547 18.808 19.472C19.1067 19.5893 19.3947 19.7387 19.672 19.92H19.656C19.9333 20.1227 20.1467 20.3893 20.296 20.72C20.4453 21.04 20.52 21.4133 20.52 21.84V24.736C20.52 25.6 20.232 26.2453 19.656 26.672C19.3787 26.8747 19.096 27.0293 18.808 27.136C18.52 27.2427 18.2373 27.296 17.96 27.296H15.752ZM26.8399 20.864L23.3359 31.616V31.6C23.2719 31.76 23.1812 31.8933 23.0639 32C22.9572 32.096 22.8239 32.144 22.6639 32.144C22.5786 32.144 22.4932 32.1333 22.4079 32.112C22.3332 32.1013 22.2532 32.0853 22.1679 32.064H22.1839C21.5759 31.872 21.3519 31.5307 21.5119 31.04L25.1599 19.952C25.2132 19.7813 25.3039 19.6373 25.4319 19.52C25.5706 19.4027 25.7306 19.3333 25.9119 19.312C26.0932 19.28 26.2692 19.2587 26.4399 19.248C26.6106 19.2267 26.7439 19.216 26.8399 19.216C26.9359 19.216 27.0692 19.2267 27.2399 19.248C27.4106 19.2587 27.5866 19.2747 27.7679 19.296C27.9172 19.3173 28.0612 19.3973 28.1999 19.536C28.3492 19.6747 28.4612 19.8133 28.5359 19.952C29.1332 21.7867 29.7359 23.6373 30.3439 25.504C30.9626 27.36 31.5706 29.2053 32.1679 31.04C32.3172 31.5307 32.0932 31.872 31.4959 32.064C31.4106 32.0853 31.3306 32.1013 31.2559 32.112C31.1919 32.1333 31.1172 32.144 31.0319 32.144C30.8826 32.144 30.7439 32.096 30.6159 32C30.4986 31.8933 30.4132 31.76 30.3599 31.6V31.616L26.8399 20.864ZM28.0399 28.16C28.0399 28.5013 27.9172 28.7947 27.6719 29.04C27.4372 29.2747 27.1492 29.392 26.8079 29.392C26.4666 29.392 26.1786 29.2747 25.9439 29.04C25.7092 28.7947 25.5919 28.5013 25.5919 28.16C25.5919 27.8187 25.7092 27.5307 25.9439 27.296C26.1786 27.0507 26.4666 26.928 26.8079 26.928C27.1492 26.928 27.4372 27.0507 27.6719 27.296C27.9172 27.5307 28.0399 27.8187 28.0399 28.16ZM37.9526 31.36C37.9526 31.872 37.638 32.128 37.0086 32.128C36.3793 32.128 36.0646 31.872 36.0646 31.36V27.104L32.4806 20.288C32.4166 20.1493 32.3846 20.0053 32.3846 19.856C32.3846 19.5467 32.566 19.3173 32.9286 19.168H32.9126C33.1473 19.0827 33.334 19.04 33.4726 19.04C33.75 19.04 33.9633 19.1787 34.1126 19.456L37.0246 24.928C37.238 24.5227 37.4673 24.0907 37.7126 23.632C37.958 23.1627 38.2033 22.688 38.4486 22.208C38.7046 21.728 38.9553 21.2533 39.2006 20.784C39.446 20.3147 39.6806 19.872 39.9046 19.456C39.99 19.328 40.0806 19.2267 40.1766 19.152C40.2833 19.0773 40.4113 19.04 40.5606 19.04C40.71 19.04 40.886 19.0827 41.0886 19.168H41.0726C41.446 19.328 41.6326 19.5627 41.6326 19.872C41.6326 19.936 41.6273 20.0053 41.6166 20.08C41.606 20.144 41.5793 20.2133 41.5366 20.288C41.4406 20.48 41.318 20.7147 41.1686 20.992C41.03 21.2693 40.8273 21.6587 40.5606 22.16C40.3046 22.6507 39.9686 23.296 39.5526 24.096C39.1366 24.8853 38.6033 25.904 37.9526 27.152V31.36ZM46.6738 32.08C46.4604 32.08 46.2311 32.048 45.9858 31.984C45.7511 31.9093 45.5804 31.776 45.4738 31.584C45.2284 30.752 44.9724 29.8987 44.7058 29.024C44.4391 28.1493 44.1724 27.2907 43.9058 26.448C43.6071 25.456 43.2871 24.4267 42.9458 23.36C42.6044 22.2827 42.2844 21.2533 41.9858 20.272C41.9218 20.0373 41.9591 19.8347 42.0978 19.664C42.2364 19.4827 42.4338 19.3493 42.6898 19.264C42.8498 19.2213 42.9884 19.2 43.1058 19.2C43.4684 19.2 43.7031 19.3813 43.8098 19.744L44.9938 23.536C45.1004 23.92 45.2231 24.3413 45.3618 24.8C45.5111 25.2587 45.6604 25.728 45.8098 26.208C45.9591 26.688 46.1084 27.168 46.2578 27.648C46.4071 28.1173 46.5458 28.5547 46.6738 28.96C46.8764 28.288 47.0951 27.5627 47.3298 26.784C47.5751 25.9947 47.8204 25.1947 48.0658 24.384C48.3218 23.5733 48.5724 22.7733 48.8178 21.984C49.0631 21.184 49.2924 20.4373 49.5058 19.744C49.6231 19.3813 49.8524 19.2 50.1938 19.2C50.3218 19.2 50.4711 19.2213 50.6418 19.264C51.2284 19.424 51.4578 19.76 51.3298 20.272C50.7538 22.1387 50.1724 24.0213 49.5858 25.92C48.9991 27.8187 48.4178 29.7067 47.8418 31.584C47.7564 31.7973 47.5964 31.936 47.3618 32C47.1378 32.0533 46.9084 32.08 46.6738 32.08ZM58.5793 19.296C58.8566 19.296 59.1446 19.3547 59.4433 19.472C59.7419 19.5893 60.0299 19.7387 60.3073 19.92H60.2913C60.5686 20.1227 60.7819 20.3893 60.9313 20.72C61.0806 21.04 61.1553 21.4133 61.1553 21.84V29.44C61.1553 30.304 60.8673 30.9493 60.2913 31.376C60.0139 31.5787 59.7259 31.7387 59.4273 31.856C59.1393 31.9627 58.8566 32.016 58.5793 32.016H55.0913C54.8139 32.016 54.5259 31.9627 54.2273 31.856C53.9393 31.7387 53.6566 31.5787 53.3793 31.376C53.1019 31.1627 52.8886 30.9013 52.7393 30.592C52.5899 30.272 52.5153 29.888 52.5153 29.44V21.84C52.5153 21.4133 52.5899 21.04 52.7393 20.72C52.8886 20.3893 53.1019 20.1227 53.3793 19.92H53.3633C53.6406 19.7387 53.9286 19.5893 54.2273 19.472C54.5259 19.3547 54.8139 19.296 55.0913 19.296H58.5793ZM58.1793 30.4C58.5739 30.4 58.8513 30.288 59.0113 30.064C59.1713 29.84 59.2513 29.5893 59.2513 29.312V21.984C59.2513 21.7173 59.1713 21.472 59.0113 21.248C58.8513 21.024 58.5739 20.912 58.1793 20.912H55.4913C55.0966 20.912 54.8193 21.024 54.6593 21.248C54.4993 21.472 54.4193 21.7173 54.4193 21.984V29.312C54.4193 29.5893 54.4993 29.84 54.6593 30.064C54.8193 30.288 55.0966 30.4 55.4913 30.4H58.1793ZM67.7861 26.736H66.5541C66.3728 26.736 66.2288 26.6667 66.1221 26.528C66.0261 26.3787 65.9781 26.1813 65.9781 25.936C65.9781 25.392 66.2021 25.12 66.6501 25.12H68.5221C68.9168 25.12 69.1941 25.008 69.3541 24.784C69.5141 24.56 69.5941 24.3147 69.5941 24.048V21.984C69.5941 21.7173 69.5141 21.472 69.3541 21.248C69.1941 21.024 68.9168 20.912 68.5221 20.912H65.1461V31.344C65.1461 31.856 64.8315 32.112 64.2021 32.112C63.5728 32.112 63.2581 31.856 63.2581 31.344V20.256C63.2581 19.872 63.3541 19.616 63.5461 19.488C63.7488 19.36 63.9888 19.296 64.2661 19.296H68.9221C69.1995 19.296 69.4875 19.3547 69.7861 19.472C70.0848 19.5893 70.3728 19.7387 70.6501 19.92H70.6341C70.9115 20.1227 71.1248 20.3893 71.2741 20.72C71.4235 21.04 71.4981 21.4133 71.4981 21.84V24.176C71.4981 25.04 71.2101 25.6853 70.6341 26.112C70.5168 26.1973 70.3888 26.2773 70.2501 26.352C70.1221 26.4267 69.9888 26.5013 69.8501 26.576L72.4101 30.8C72.4421 30.8533 72.4741 30.9227 72.5061 31.008C72.5381 31.0933 72.5541 31.1627 72.5541 31.216C72.5541 31.472 72.3728 31.7173 72.0101 31.952V31.936C71.7648 32.0853 71.5568 32.16 71.3861 32.16C71.1408 32.16 70.9435 32.0373 70.7941 31.792L70.8101 31.808L67.7861 26.736ZM77.9274 20.864L74.4234 31.616V31.6C74.3594 31.76 74.2687 31.8933 74.1514 32C74.0447 32.096 73.9114 32.144 73.7514 32.144C73.6661 32.144 73.5807 32.1333 73.4954 32.112C73.4207 32.1013 73.3407 32.0853 73.2554 32.064H73.2714C72.6634 31.872 72.4394 31.5307 72.5994 31.04L76.2474 19.952C76.3007 19.7813 76.3914 19.6373 76.5194 19.52C76.6581 19.4027 76.8181 19.3333 76.9994 19.312C77.1807 19.28 77.3567 19.2587 77.5274 19.248C77.6981 19.2267 77.8314 19.216 77.9274 19.216C78.0234 19.216 78.1567 19.2267 78.3274 19.248C78.4981 19.2587 78.6741 19.2747 78.8554 19.296C79.0047 19.3173 79.1487 19.3973 79.2874 19.536C79.4367 19.6747 79.5487 19.8133 79.6234 19.952C80.2207 21.7867 80.8234 23.6373 81.4314 25.504C82.0501 27.36 82.6581 29.2053 83.2554 31.04C83.4047 31.5307 83.1807 31.872 82.5834 32.064C82.4981 32.0853 82.4181 32.1013 82.3434 32.112C82.2794 32.1333 82.2047 32.144 82.1194 32.144C81.9701 32.144 81.8314 32.096 81.7034 32C81.5861 31.8933 81.5007 31.76 81.4474 31.6V31.616L77.9274 20.864ZM79.1274 28.16C79.1274 28.5013 79.0047 28.7947 78.7594 29.04C78.5247 29.2747 78.2367 29.392 77.8954 29.392C77.5541 29.392 77.2661 29.2747 77.0314 29.04C76.7967 28.7947 76.6794 28.5013 76.6794 28.16C76.6794 27.8187 76.7967 27.5307 77.0314 27.296C77.2661 27.0507 77.5541 26.928 77.8954 26.928C78.2367 26.928 78.5247 27.0507 78.7594 27.296C79.0047 27.5307 79.1274 27.8187 79.1274 28.16Z" fill="white"/>
<path d="M179.184 174.839C183.006 179.788 183.006 186.223 179.184 191.172M183.19 171.49C188.577 178.465 188.577 187.535 183.19 194.51M174.983 177.003C177.791 180.629 177.791 185.36 174.983 188.985M170.77 180.007C172.174 181.826 172.174 184.185 170.77 186.004" stroke="#424242" stroke-width="2" stroke-linecap="round" stroke-linejoin="round"/>
</g>
<defs>
<clipPath id="clip0_1_316">
<rect x="1.45122e-05" y="332" width="332" height="210" rx="12" transform="rotate(-90 1.45122e-05 332)" fill="white"/>
</clipPath>
<clipPath id="clip1_1_316">
<rect width="51" height="60" fill="white" transform="translate(130 308) rotate(-90)"/>
</clipPath>
<clipPath id="clip2_1_316">
<rect width="40" height="30.4762" fill="white" transform="matrix(0 -1 1 0 69.7621 293)"/>
</clipPath>
</defs>
</svg>