<svg xmlns="http://www.w3.org/2000/svg" xmlns:xlink="http://www.w3.org/1999/xlink" width="352" height="201" viewBox="0 0 352 201" fill="none">
<g clip-path="url(#clip0_1_28)">
<g>
<path d="M321.997 0H30C13.4315 0 0 13.4315 0 30V171C0 187.569 13.4315 201 30 201H321.997C338.566 201 351.997 187.569 351.997 171V30C351.997 13.4315 338.566 0 321.997 0Z" fill="#1D1D1D"/>
<mask id="mask0_1_28" maskUnits="userSpaceOnUse" x="0" y="0" width="352" height="201">
<path d="M322 0H30.0029C13.4344 0 0.00289917 13.4315 0.00289917 30V171C0.00289917 187.569 13.4344 201 30.0029 201H322C338.568 201 352 187.569 352 171V30C352 13.4315 338.568 0 322 0Z" fill="url(#paint0_linear_1_28)"/>
</mask>
<g mask="url(#mask0_1_28)">
<path d="M351.029 -19.3925C326.794 9.94369 266.611 54.204 264.357 35.65C260.189 1.33139 503.562 -63.2187 491.931 0.965996C480.3 65.151 261.838 120.115 156.63 78.721C51.4226 37.327 240.355 -97.8821 371.064 82.975C501.773 263.832 243.279 164.11 212.256 132.357C181.232 100.604 146.62 57.603 158.09 20.997C169.561 -15.6094 297.821 61.902 278.286 314.372" stroke="#C3BCC9" stroke-opacity="0.43" stroke-width="5"/>
</g>
<mask id="mask1_1_28" maskUnits="userSpaceOnUse" x="33" y="21" width="56" height="54">
<path d="M61.9675 21.8476H60.0813C45.6519 21.8476 33.9546 33.5449 33.9546 47.9743C33.9546 62.4037 45.6519 74.101 60.0813 74.101H61.9675C76.3969 74.101 88.0942 62.4037 88.0942 47.9743C88.0942 33.5449 76.3969 21.8476 61.9675 21.8476Z" fill="white"/>
</mask>
<g mask="url(#mask1_1_28)">
<path d="M55.6353 40.201L52.8838 55.785H57.2843L60.038 40.201H55.6353Z" fill="white"/>
<path d="M49.1966 40.218L44.8866 50.846L44.4271 49.241C43.5771 47.308 41.164 44.531 38.3311 42.781L42.2721 55.777L46.9284 55.77L53.8585 40.215L49.1966 40.218Z" fill="white"/>
<path d="M42.754 41.328C42.4983 40.379 41.7569 40.096 40.8367 40.062H34.0141L33.9575 40.372C39.2669 41.616 42.7801 44.611 44.2379 48.212L42.754 41.328Z" fill="white"/>
<path d="M68.9539 43.186C70.3936 43.164 71.4371 43.468 72.2475 43.782L72.6448 43.962L73.2401 40.585C72.3686 40.269 71.0025 39.93 69.298 39.93C64.9495 39.93 61.8846 42.044 61.8608 45.073C61.8325 47.312 64.0441 48.561 65.7146 49.307C67.4294 50.072 68.0043 50.558 67.9964 51.241C67.9828 52.284 66.6292 52.763 65.3649 52.763C63.6027 52.763 62.6666 52.528 61.2213 51.947L60.6543 51.698L60.0352 55.186C61.0651 55.621 62.9654 55.996 64.9382 56.016C69.564 56.016 72.5701 53.927 72.6018 50.69C72.621 48.92 71.4473 47.568 68.9041 46.46C67.3648 45.736 66.4232 45.256 66.4322 44.526C66.4322 43.878 67.2313 43.186 68.9539 43.186Z" fill="white"/>
<path d="M84.536 40.218H81.136C80.08 40.218 79.2949 40.496 78.8309 41.511L72.2969 55.793H76.9181C76.9181 55.793 77.6719 53.873 77.8428 53.452C78.3487 53.452 82.839 53.459 83.478 53.459C83.609 54.003 84.015 55.793 84.015 55.793H88.097L84.536 40.218ZM79.1093 50.263C79.4715 49.368 80.863 45.907 80.863 45.907C80.839 45.95 81.221 45.006 81.449 44.419L81.745 45.763C81.745 45.763 82.589 49.484 82.765 50.263H79.1093Z" fill="white"/>
</g>
<path d="M44.3323 96.9084C39.0316 96.9084 34.7345 101.205 34.7345 106.506C34.7345 111.807 39.0316 116.104 44.3323 116.104H54.1361C59.4368 116.104 63.7339 111.807 63.7339 106.506C63.7339 101.205 59.4368 96.9084 54.1361 96.9084H44.3323Z" fill="url(#pattern0_1_28)" stroke="#94A2AD" stroke-width="1.55978"/>
<mask id="mask2_1_28" maskUnits="userSpaceOnUse" x="297" y="38" width="22" height="20">
<path d="M308.213 38.232H307.504C302.074 38.232 297.672 42.6337 297.672 48.0635C297.672 53.4933 302.074 57.895 307.504 57.895H308.213C313.643 57.895 318.045 53.4933 318.045 48.0635C318.045 42.6337 313.643 38.232 308.213 38.232Z" fill="white"/>
</mask>
<g mask="url(#mask2_1_28)">
<path d="M300.408 45.791C300.663 46.098 300.854 46.466 300.981 46.835C301.109 47.204 301.172 47.634 301.172 48.064C301.172 48.494 301.109 48.924 300.981 49.293C300.854 49.662 300.663 50.03 300.408 50.338C300.09 50.768 300.154 51.382 300.599 51.689C301.045 51.997 301.682 51.935 302 51.505C302.382 51.013 302.637 50.522 302.891 49.907C303.146 49.293 303.21 48.679 303.21 48.064C303.21 47.45 303.082 46.835 302.891 46.221C302.7 45.668 302.382 45.115 302 44.623C301.682 44.193 301.045 44.131 300.599 44.439C300.154 44.746 300.09 45.36 300.408 45.791Z" fill="white"/>
<path d="M303.91 44.009C304.674 45.176 305.12 46.589 305.12 48.064C305.12 49.539 304.674 50.952 303.91 52.12C303.592 52.55 303.783 53.164 304.228 53.471C304.738 53.779 305.311 53.594 305.629 53.164C306.584 51.689 307.157 49.969 307.157 48.064C307.157 46.221 306.584 44.439 305.629 42.964C305.311 42.534 304.674 42.349 304.228 42.657C303.783 42.964 303.592 43.517 303.91 44.009Z" fill="white"/>
<path d="M307.603 42.165C308.685 43.886 309.258 45.913 309.258 48.064C309.258 50.215 308.621 52.242 307.603 53.963C307.348 54.455 307.475 55.008 307.985 55.315C308.494 55.561 309.067 55.438 309.385 54.946C310.658 52.918 311.359 50.583 311.359 48.064C311.359 45.545 310.658 43.21 309.385 41.182C309.131 40.69 308.494 40.568 307.985 40.813C307.475 41.121 307.348 41.674 307.603 42.165Z" fill="white"/>
<path d="M311.295 40.322C312.632 42.595 313.46 45.237 313.46 48.064C313.46 50.891 312.696 53.533 311.295 55.806C311.04 56.298 311.168 56.851 311.677 57.158C312.186 57.404 312.759 57.281 313.078 56.79C314.606 54.209 315.497 51.259 315.497 48.064C315.497 44.869 314.606 41.919 313.078 39.339C312.823 38.847 312.186 38.724 311.677 38.97C311.168 39.216 311.04 39.83 311.295 40.322Z" fill="white"/>
</g>
</g>
<path d="M35.7 187V176.92H40.488C41.2347 176.92 41.874 177.051 42.406 177.312C42.9473 177.573 43.3627 177.937 43.652 178.404C43.9507 178.871 44.1 179.417 44.1 180.042C44.1 180.667 43.9507 181.218 43.652 181.694C43.3533 182.17 42.9333 182.543 42.392 182.814C41.86 183.075 41.2253 183.206 40.488 183.206H37.408V181.554H40.376C40.8707 181.554 41.2533 181.419 41.524 181.148C41.804 180.868 41.944 180.504 41.944 180.056C41.944 179.608 41.804 179.249 41.524 178.978C41.2533 178.707 40.8707 178.572 40.376 178.572H37.856V187H35.7ZM43.5801 187L47.1921 176.92H49.0401L45.7221 187H43.5801ZM50.9721 187L47.6681 176.92H49.6001L53.2121 187H50.9721ZM45.4841 183.094H51.1401V184.774H45.4841V183.094ZM55.6677 187V182.926L51.9157 176.92H54.5057L57.4737 182.254H56.2557L59.2097 176.92H61.5757L57.8237 182.926V187H55.6677ZM65.6765 187L62.0645 176.92H64.3045L67.0625 185.32H66.7965L69.5685 176.92H71.6965L68.0845 187H65.6765ZM76.9532 187.14C76.2065 187.14 75.5159 187.014 74.8812 186.762C74.2559 186.51 73.7099 186.155 73.2432 185.698C72.7859 185.231 72.4265 184.681 72.1652 184.046C71.9132 183.402 71.7872 182.693 71.7872 181.918C71.7872 180.891 72.0065 179.995 72.4452 179.23C72.8839 178.455 73.4905 177.853 74.2652 177.424C75.0492 176.995 75.9405 176.78 76.9392 176.78C77.9565 176.78 78.8525 176.995 79.6272 177.424C80.4019 177.853 81.0085 178.455 81.4472 179.23C81.8952 180.005 82.1192 180.905 82.1192 181.932C82.1192 182.697 81.9885 183.402 81.7272 184.046C81.4752 184.681 81.1159 185.231 80.6492 185.698C80.1919 186.155 79.6459 186.51 79.0112 186.762C78.3859 187.014 77.6999 187.14 76.9532 187.14ZM76.9392 185.432C77.5272 185.432 78.0452 185.283 78.4932 184.984C78.9412 184.685 79.2912 184.275 79.5432 183.752C79.8045 183.22 79.9352 182.604 79.9352 181.904C79.9352 181.213 79.8092 180.611 79.5572 180.098C79.3052 179.585 78.9552 179.188 78.5072 178.908C78.0592 178.628 77.5365 178.488 76.9392 178.488C76.3512 178.488 75.8332 178.628 75.3852 178.908C74.9372 179.188 74.5872 179.585 74.3352 180.098C74.0925 180.602 73.9712 181.204 73.9712 181.904C73.9712 182.613 74.0972 183.234 74.3492 183.766C74.6012 184.289 74.9512 184.699 75.3992 184.998C75.8472 185.287 76.3605 185.432 76.9392 185.432ZM83.1811 187V176.92H87.6891C88.4171 176.92 89.0518 177.046 89.5931 177.298C90.1344 177.541 90.5544 177.886 90.8531 178.334C91.1518 178.782 91.3011 179.305 91.3011 179.902C91.3011 180.49 91.1518 181.008 90.8531 181.456C90.5544 181.895 90.1344 182.24 89.5931 182.492C89.0518 182.735 88.4171 182.856 87.6891 182.856H84.8891V181.274H87.6331C88.1464 181.274 88.5384 181.157 88.8091 180.924C89.0891 180.681 89.2291 180.345 89.2291 179.916C89.2291 179.477 89.0938 179.146 88.8231 178.922C88.5524 178.689 88.1558 178.572 87.6331 178.572H85.3371V187H83.1811ZM88.8651 187L84.8191 181.764H87.1011L91.7771 187H88.8651ZM92.2247 187L95.8367 176.92H97.6847L94.3667 187H92.2247ZM99.6167 187L96.3127 176.92H98.2447L101.857 187H99.6167ZM94.1287 183.094H99.7847V184.774H94.1287V183.094Z" fill="white"/>
</g>
<defs>











<linearGradient id="paint0_linear_1_28" x1="176.001" y1="0" x2="176.001" y2="201" gradientUnits="userSpaceOnUse">
<stop stop-color="#EDFC74"/>
<stop offset="1" stop-color="#F5FFA8"/>
</linearGradient>
<clipPath id="clip0_1_28">
<rect width="352" height="201" fill="white"/>
</clipPath>

</defs>
</svg>