<svg xmlns="http://www.w3.org/2000/svg" xmlns:xlink="http://www.w3.org/1999/xlink" width="210" height="332" viewBox="0 0 210 332" fill="none">
<g clip-path="url(#clip0_1_449)">
<rect x="1.52588e-05" y="332" width="332" height="210" rx="12" transform="rotate(-90 1.52588e-05 332)" fill="white"/>
<path d="M208 262V316C208 323.732 201.732 330 194 330H16C8.26803 330 2.00002 323.732 2.00002 316V262H208Z" fill="#2C2C2E" stroke="white" stroke-width="4"/>
<g clip-path="url(#clip1_1_449)">
<path opacity="0.8" d="M67.696 292H66.2983L69.4389 283.273H70.9602L74.1009 292H72.7031L70.2358 284.858H70.1676L67.696 292ZM67.9304 288.582H72.4645V289.69H67.9304V288.582ZM75.2412 292V283.273H76.5579V290.866H80.5125V292H75.2412ZM81.8946 292V283.273H87.3662V284.406H83.2114V287.065H87.0807V288.195H83.2114V290.866H87.4173V292H81.8946ZM89.9213 283.273L92.0093 286.686H92.0775L94.1656 283.273H95.6911L92.9724 287.636L95.7082 292H94.1741L92.0775 288.634H92.0093L89.9127 292H88.3786L91.1613 287.636L88.3957 283.273H89.9213ZM97.6145 292H96.2167L99.3574 283.273H100.879L104.019 292H102.622L100.154 284.858H100.086L97.6145 292ZM97.8488 288.582H102.383V289.69H97.8488V288.582ZM112.204 283.273V292H110.993L106.557 285.599H106.476V292H105.16V283.273H106.378L110.819 289.682H110.9V283.273H112.204ZM116.83 292H114.004V283.273H116.919C117.774 283.273 118.509 283.447 119.122 283.797C119.736 284.143 120.206 284.642 120.533 285.293C120.862 285.94 121.027 286.717 121.027 287.624C121.027 288.533 120.861 289.314 120.529 289.967C120.199 290.621 119.722 291.124 119.097 291.476C118.472 291.825 117.716 292 116.83 292ZM115.321 290.849H116.757C117.422 290.849 117.975 290.724 118.415 290.474C118.855 290.222 119.185 289.857 119.404 289.379C119.622 288.899 119.732 288.314 119.732 287.624C119.732 286.939 119.622 286.358 119.404 285.881C119.188 285.403 118.865 285.041 118.436 284.794C118.007 284.547 117.475 284.423 116.838 284.423H115.321V290.849ZM122.545 292V283.273H128.016V284.406H123.861V287.065H127.731V288.195H123.861V290.866H128.067V292H122.545ZM129.655 292V283.273H132.766C133.442 283.273 134.003 283.389 134.449 283.622C134.898 283.855 135.233 284.178 135.455 284.589C135.676 284.999 135.787 285.472 135.787 286.009C135.787 286.543 135.675 287.013 135.451 287.419C135.229 287.822 134.894 288.136 134.445 288.361C133.999 288.585 133.438 288.697 132.762 288.697H130.405V287.564H132.642C133.068 287.564 133.415 287.503 133.682 287.381C133.952 287.259 134.149 287.081 134.274 286.848C134.399 286.615 134.462 286.335 134.462 286.009C134.462 285.679 134.398 285.393 134.27 285.152C134.145 284.911 133.948 284.726 133.678 284.598C133.411 284.467 133.06 284.402 132.625 284.402H130.972V292H129.655ZM133.963 288.063L136.12 292H134.62L132.506 288.063H133.963ZM146.231 286.03C146.149 285.771 146.038 285.54 145.899 285.335C145.763 285.128 145.599 284.952 145.409 284.807C145.219 284.659 145.001 284.547 144.757 284.47C144.516 284.393 144.25 284.355 143.96 284.355C143.469 284.355 143.026 284.482 142.631 284.734C142.236 284.987 141.923 285.358 141.693 285.847C141.466 286.332 141.352 286.928 141.352 287.632C141.352 288.339 141.467 288.938 141.697 289.426C141.927 289.915 142.243 290.286 142.643 290.538C143.044 290.791 143.5 290.918 144.011 290.918C144.486 290.918 144.899 290.821 145.251 290.628C145.606 290.435 145.881 290.162 146.074 289.81C146.27 289.455 146.368 289.037 146.368 288.557L146.709 288.621H144.212V287.534H147.642V288.527C147.642 289.26 147.486 289.896 147.173 290.436C146.864 290.973 146.435 291.388 145.886 291.68C145.341 291.973 144.716 292.119 144.011 292.119C143.222 292.119 142.528 291.938 141.932 291.574C141.338 291.21 140.875 290.695 140.543 290.027C140.21 289.357 140.044 288.561 140.044 287.641C140.044 286.945 140.141 286.32 140.334 285.766C140.527 285.212 140.798 284.741 141.148 284.355C141.5 283.966 141.913 283.669 142.388 283.464C142.865 283.257 143.386 283.153 143.952 283.153C144.423 283.153 144.862 283.223 145.268 283.362C145.677 283.501 146.041 283.699 146.359 283.955C146.68 284.21 146.946 284.514 147.156 284.866C147.366 285.216 147.508 285.604 147.582 286.03H146.231ZM149.194 292V283.273H150.51V290.866H154.465V292H149.194ZM163.088 287.636C163.088 288.568 162.918 289.369 162.577 290.04C162.236 290.707 161.768 291.222 161.175 291.582C160.584 291.94 159.912 292.119 159.159 292.119C158.403 292.119 157.729 291.94 157.135 291.582C156.544 291.222 156.078 290.706 155.737 290.036C155.396 289.365 155.226 288.565 155.226 287.636C155.226 286.705 155.396 285.905 155.737 285.237C156.078 284.567 156.544 284.053 157.135 283.695C157.729 283.334 158.403 283.153 159.159 283.153C159.912 283.153 160.584 283.334 161.175 283.695C161.768 284.053 162.236 284.567 162.577 285.237C162.918 285.905 163.088 286.705 163.088 287.636ZM161.784 287.636C161.784 286.926 161.669 286.328 161.439 285.842C161.212 285.354 160.899 284.984 160.501 284.734C160.107 284.482 159.659 284.355 159.159 284.355C158.656 284.355 158.207 284.482 157.812 284.734C157.418 284.984 157.105 285.354 156.875 285.842C156.648 286.328 156.534 286.926 156.534 287.636C156.534 288.347 156.648 288.946 156.875 289.435C157.105 289.92 157.418 290.29 157.812 290.543C158.207 290.793 158.656 290.918 159.159 290.918C159.659 290.918 160.107 290.793 160.501 290.543C160.899 290.29 161.212 289.92 161.439 289.435C161.669 288.946 161.784 288.347 161.784 287.636ZM166.213 292L163.793 283.273H165.178L166.878 290.031H166.959L168.727 283.273H170.099L171.868 290.036H171.949L173.645 283.273H175.034L172.609 292H171.284L169.447 285.463H169.379L167.543 292H166.213Z" fill="white"/>
<path opacity="0.5" d="M67.4134 309H66.2486L68.8658 301.727H70.1335L72.7507 309H71.5859L69.5298 303.048H69.473L67.4134 309ZM67.6087 306.152H71.3871V307.075H67.6087V306.152ZM73.6157 309V303.545H74.6349V304.433H74.7024C74.816 304.133 75.0019 303.898 75.2599 303.73C75.518 303.56 75.8269 303.474 76.1868 303.474C76.5513 303.474 76.8567 303.56 77.103 303.73C77.3515 303.901 77.535 304.135 77.6534 304.433H77.7102C77.8404 304.142 78.0476 303.91 78.3316 303.737C78.6157 303.562 78.9543 303.474 79.3473 303.474C79.8421 303.474 80.2457 303.63 80.5582 303.94C80.8731 304.25 81.0305 304.717 81.0305 305.342V309H79.9687V305.442C79.9687 305.072 79.8681 304.805 79.6669 304.639C79.4656 304.473 79.2254 304.391 78.946 304.391C78.6004 304.391 78.3316 304.497 78.1399 304.71C77.9481 304.921 77.8522 305.192 77.8522 305.523V309H76.794V305.374C76.794 305.078 76.7017 304.84 76.517 304.661C76.3324 304.481 76.0921 304.391 75.7961 304.391C75.5949 304.391 75.4091 304.444 75.2386 304.55C75.0705 304.655 74.9344 304.8 74.8302 304.987C74.7284 305.174 74.6775 305.391 74.6775 305.637V309H73.6157ZM82.3536 311.045V303.545H83.3906V304.43H83.4793C83.5409 304.316 83.6297 304.185 83.7457 304.036C83.8617 303.886 84.0227 303.756 84.2286 303.645C84.4346 303.531 84.7068 303.474 85.0454 303.474C85.4857 303.474 85.8787 303.586 86.2244 303.808C86.57 304.031 86.8411 304.352 87.0376 304.771C87.2364 305.19 87.3359 305.694 87.3359 306.283C87.3359 306.873 87.2376 307.378 87.0411 307.8C86.8446 308.219 86.5747 308.542 86.2315 308.769C85.8882 308.994 85.4964 309.107 85.056 309.107C84.7246 309.107 84.4535 309.051 84.2428 308.94C84.0345 308.828 83.8711 308.698 83.7528 308.549C83.6344 308.4 83.5433 308.267 83.4793 308.151H83.4154V311.045H82.3536ZM83.3941 306.273C83.3941 306.656 83.4497 306.992 83.561 307.281C83.6723 307.57 83.8333 307.796 84.044 307.96C84.2547 308.121 84.5127 308.201 84.8181 308.201C85.1354 308.201 85.4005 308.117 85.6136 307.949C85.8266 307.778 85.9876 307.548 86.0965 307.256C86.2078 306.965 86.2634 306.637 86.2634 306.273C86.2634 305.913 86.209 305.59 86.1001 305.303C85.9935 305.017 85.8326 304.791 85.6171 304.625C85.4041 304.459 85.1377 304.376 84.8181 304.376C84.5104 304.376 84.2499 304.456 84.0369 304.614C83.8262 304.773 83.6664 304.994 83.5575 305.278C83.4486 305.563 83.3941 305.894 83.3941 306.273ZM90.0129 309.121C89.6672 309.121 89.3547 309.057 89.0754 308.929C88.796 308.799 88.5747 308.611 88.4113 308.364C88.2503 308.118 88.1698 307.816 88.1698 307.459C88.1698 307.151 88.229 306.898 88.3474 306.699C88.4658 306.5 88.6256 306.343 88.8268 306.227C89.028 306.111 89.2529 306.023 89.5015 305.964C89.7501 305.905 90.0034 305.86 90.2614 305.829C90.5881 305.791 90.8533 305.76 91.0569 305.737C91.2605 305.71 91.4085 305.669 91.5008 305.612C91.5931 305.555 91.6393 305.463 91.6393 305.335V305.31C91.6393 305 91.5517 304.76 91.3765 304.589C91.2037 304.419 90.9456 304.334 90.6024 304.334C90.2449 304.334 89.9631 304.413 89.7572 304.572C89.5536 304.728 89.4127 304.902 89.3346 305.094L88.3367 304.866C88.4551 304.535 88.6279 304.268 88.8552 304.064C89.0848 303.858 89.3488 303.709 89.6471 303.616C89.9454 303.522 90.2591 303.474 90.5881 303.474C90.806 303.474 91.0368 303.5 91.2806 303.553C91.5268 303.602 91.7565 303.695 91.9695 303.83C92.185 303.964 92.3613 304.157 92.4987 304.408C92.636 304.657 92.7046 304.98 92.7046 305.378V309H91.6677V308.254H91.6251C91.5564 308.392 91.4534 308.527 91.3161 308.659C91.1788 308.792 91.0024 308.902 90.787 308.989C90.5716 309.077 90.3135 309.121 90.0129 309.121ZM90.2437 308.268C90.5372 308.268 90.7882 308.21 90.9965 308.094C91.2072 307.978 91.367 307.827 91.4759 307.64C91.5872 307.451 91.6428 307.248 91.6428 307.033V306.33C91.605 306.367 91.5316 306.403 91.4227 306.436C91.3161 306.467 91.1942 306.494 91.0569 306.518C90.9196 306.539 90.7858 306.559 90.6556 306.578C90.5254 306.595 90.4165 306.609 90.3289 306.621C90.1229 306.647 89.9347 306.691 89.7643 306.752C89.5962 306.814 89.4613 306.902 89.3595 307.018C89.26 307.132 89.2103 307.284 89.2103 307.473C89.2103 307.736 89.3074 307.935 89.5015 308.07C89.6956 308.202 89.943 308.268 90.2437 308.268ZM94.0189 309V303.545H95.0451V304.412H95.102C95.2014 304.118 95.3766 303.888 95.6275 303.719C95.8808 303.549 96.1673 303.464 96.4869 303.464C96.5532 303.464 96.6313 303.466 96.7213 303.471C96.8136 303.476 96.8858 303.482 96.9379 303.489V304.504C96.8953 304.492 96.8195 304.479 96.7106 304.465C96.6017 304.449 96.4928 304.44 96.3839 304.44C96.133 304.44 95.9093 304.494 95.7128 304.6C95.5186 304.704 95.3647 304.85 95.2511 305.037C95.1375 305.222 95.0807 305.432 95.0807 305.669V309H94.0189ZM99.2953 309.121C98.9496 309.121 98.6371 309.057 98.3578 308.929C98.0784 308.799 97.8571 308.611 97.6937 308.364C97.5327 308.118 97.4522 307.816 97.4522 307.459C97.4522 307.151 97.5114 306.898 97.6298 306.699C97.7482 306.5 97.908 306.343 98.1092 306.227C98.3104 306.111 98.5353 306.023 98.7839 305.964C99.0325 305.905 99.2858 305.86 99.5439 305.829C99.8706 305.791 100.136 305.76 100.339 305.737C100.543 305.71 100.691 305.669 100.783 305.612C100.876 305.555 100.922 305.463 100.922 305.335V305.31C100.922 305 100.834 304.76 100.659 304.589C100.486 304.419 100.228 304.334 99.8848 304.334C99.5273 304.334 99.2456 304.413 99.0396 304.572C98.836 304.728 98.6951 304.902 98.617 305.094L97.6191 304.866C97.7375 304.535 97.9103 304.268 98.1376 304.064C98.3673 303.858 98.6312 303.709 98.9295 303.616C99.2278 303.522 99.5415 303.474 99.8706 303.474C100.088 303.474 100.319 303.5 100.563 303.553C100.809 303.602 101.039 303.695 101.252 303.83C101.467 303.964 101.644 304.157 101.781 304.408C101.918 304.657 101.987 304.98 101.987 305.378V309H100.95V308.254H100.908C100.839 308.392 100.736 308.527 100.599 308.659C100.461 308.792 100.285 308.902 100.069 308.989C99.854 309.077 99.5959 309.121 99.2953 309.121ZM99.5261 308.268C99.8197 308.268 100.071 308.21 100.279 308.094C100.49 307.978 100.649 307.827 100.758 307.64C100.87 307.451 100.925 307.248 100.925 307.033V306.33C100.887 306.367 100.814 306.403 100.705 306.436C100.599 306.467 100.477 306.494 100.339 306.518C100.202 306.539 100.068 306.559 99.938 306.578C99.8078 306.595 99.6989 306.609 99.6113 306.621C99.4054 306.647 99.2172 306.691 99.0467 306.752C98.8786 306.814 98.7437 306.902 98.6419 307.018C98.5424 307.132 98.4927 307.284 98.4927 307.473C98.4927 307.736 98.5898 307.935 98.7839 308.07C98.978 308.202 99.2254 308.268 99.5261 308.268ZM104.363 301.727V309H103.301V301.727H104.363ZM107.279 309.121C106.933 309.121 106.621 309.057 106.341 308.929C106.062 308.799 105.841 308.611 105.677 308.364C105.516 308.118 105.436 307.816 105.436 307.459C105.436 307.151 105.495 306.898 105.613 306.699C105.732 306.5 105.892 306.343 106.093 306.227C106.294 306.111 106.519 306.023 106.768 305.964C107.016 305.905 107.269 305.86 107.527 305.829C107.854 305.791 108.119 305.76 108.323 305.737C108.527 305.71 108.674 305.669 108.767 305.612C108.859 305.555 108.905 305.463 108.905 305.335V305.31C108.905 305 108.818 304.76 108.643 304.589C108.47 304.419 108.212 304.334 107.868 304.334C107.511 304.334 107.229 304.413 107.023 304.572C106.82 304.728 106.679 304.902 106.601 305.094L105.603 304.866C105.721 304.535 105.894 304.268 106.121 304.064C106.351 303.858 106.615 303.709 106.913 303.616C107.211 303.522 107.525 303.474 107.854 303.474C108.072 303.474 108.303 303.5 108.547 303.553C108.793 303.602 109.022 303.695 109.236 303.83C109.451 303.964 109.627 304.157 109.765 304.408C109.902 304.657 109.971 304.98 109.971 305.378V309H108.934V308.254H108.891C108.822 308.392 108.719 308.527 108.582 308.659C108.445 308.792 108.268 308.902 108.053 308.989C107.838 309.077 107.58 309.121 107.279 309.121ZM107.51 308.268C107.803 308.268 108.054 308.21 108.263 308.094C108.473 307.978 108.633 307.827 108.742 307.64C108.853 307.451 108.909 307.248 108.909 307.033V306.33C108.871 306.367 108.798 306.403 108.689 306.436C108.582 306.467 108.46 306.494 108.323 306.518C108.186 306.539 108.052 306.559 107.922 306.578C107.791 306.595 107.683 306.609 107.595 306.621C107.389 306.647 107.201 306.691 107.03 306.752C106.862 306.814 106.727 306.902 106.625 307.018C106.526 307.132 106.476 307.284 106.476 307.473C106.476 307.736 106.573 307.935 106.768 308.07C106.962 308.202 107.209 308.268 107.51 308.268ZM111.984 309.067C111.79 309.067 111.623 308.999 111.484 308.862C111.344 308.722 111.274 308.554 111.274 308.357C111.274 308.163 111.344 307.997 111.484 307.86C111.623 307.72 111.79 307.651 111.984 307.651C112.179 307.651 112.345 307.72 112.485 307.86C112.625 307.997 112.695 308.163 112.695 308.357C112.695 308.487 112.662 308.607 112.595 308.716C112.531 308.822 112.446 308.908 112.34 308.972C112.233 309.036 112.115 309.067 111.984 309.067ZM114.017 309V303.545H115.079V309H114.017ZM114.553 302.704C114.368 302.704 114.21 302.642 114.077 302.519C113.947 302.394 113.882 302.245 113.882 302.072C113.882 301.897 113.947 301.747 114.077 301.624C114.21 301.499 114.368 301.436 114.553 301.436C114.738 301.436 114.895 301.499 115.025 301.624C115.158 301.747 115.224 301.897 115.224 302.072C115.224 302.245 115.158 302.394 115.025 302.519C114.895 302.642 114.738 302.704 114.553 302.704ZM117.469 305.761V309H116.407V303.545H117.426V304.433H117.494C117.619 304.144 117.816 303.912 118.083 303.737C118.353 303.562 118.693 303.474 119.102 303.474C119.474 303.474 119.8 303.553 120.079 303.709C120.358 303.863 120.575 304.092 120.729 304.398C120.883 304.703 120.96 305.081 120.96 305.531V309H119.898V305.658C119.898 305.263 119.795 304.954 119.589 304.732C119.383 304.507 119.1 304.394 118.74 304.394C118.494 304.394 118.275 304.447 118.083 304.554C117.894 304.661 117.744 304.817 117.632 305.023C117.523 305.226 117.469 305.473 117.469 305.761ZM124.581 309.11C124.053 309.11 123.599 308.991 123.218 308.751C122.839 308.51 122.548 308.177 122.344 307.754C122.14 307.33 122.039 306.844 122.039 306.298C122.039 305.744 122.143 305.255 122.351 304.831C122.56 304.405 122.853 304.072 123.232 303.833C123.611 303.594 124.057 303.474 124.571 303.474C124.985 303.474 125.354 303.551 125.679 303.705C126.003 303.857 126.265 304.07 126.463 304.344C126.665 304.619 126.784 304.94 126.822 305.307H125.789C125.732 305.051 125.602 304.831 125.398 304.646C125.197 304.462 124.927 304.369 124.588 304.369C124.292 304.369 124.033 304.447 123.811 304.604C123.591 304.758 123.419 304.978 123.296 305.264C123.173 305.548 123.111 305.884 123.111 306.273C123.111 306.67 123.171 307.014 123.292 307.303C123.413 307.591 123.583 307.815 123.804 307.974C124.026 308.132 124.288 308.212 124.588 308.212C124.79 308.212 124.972 308.175 125.135 308.102C125.301 308.026 125.439 307.918 125.551 307.778C125.664 307.639 125.744 307.471 125.789 307.274H126.822C126.784 307.627 126.669 307.942 126.478 308.219C126.286 308.496 126.029 308.714 125.707 308.872C125.387 309.031 125.012 309.11 124.581 309.11Z" fill="white"/>
</g>
<circle cx="37" cy="296" r="16" fill="url(#pattern0_1_449)"/>
<path fill-rule="evenodd" clip-rule="evenodd" d="M29.4225 243.017H25.0683L21.8031 230.38C21.6481 229.799 21.3191 229.285 20.835 229.043C19.6271 228.434 18.296 227.949 16.8438 227.705V227.219H23.8582C24.8262 227.219 25.5523 227.949 25.6733 228.798L27.3675 237.914L31.7196 227.219H35.9528L29.4225 243.017ZM38.3732 243.017H34.2609L37.6471 227.219H41.7593L38.3732 243.017ZM47.0792 231.595C47.2002 230.744 47.9263 230.258 48.7734 230.258C50.1045 230.136 51.5545 230.38 52.7646 230.987L53.4906 227.585C52.2805 227.099 50.9494 226.854 49.7414 226.854C45.7502 226.854 42.846 229.043 42.846 232.08C42.846 234.39 44.9032 235.603 46.3553 236.334C47.9263 237.063 48.5314 237.55 48.4103 238.278C48.4103 239.371 47.2002 239.858 45.9923 239.858C44.5401 239.858 43.088 239.494 41.759 238.885L41.033 242.289C42.4851 242.895 44.0561 243.139 45.5082 243.139C49.9835 243.26 52.7646 241.073 52.7646 237.792C52.7646 233.659 47.0792 233.417 47.0792 231.595ZM67.1562 243.017L63.891 227.219H60.3839C59.6578 227.219 58.9318 227.705 58.6897 228.434L52.6435 243.017H56.8767L57.7217 240.709H62.923L63.407 243.017H67.1562ZM60.9893 231.473L62.1972 237.427H58.8111L60.9893 231.473Z" fill="#1F332C"/>
<g clip-path="url(#clip2_1_449)">
<rect x="185.339" y="24.375" width="35.25" height="26.6786" rx="4.29167" transform="rotate(90 185.339 24.375)" fill="white" stroke="#1F332C" stroke-width="0.75"/>
<path d="M177.277 24.5625L177.277 34.0417C177.277 35.3303 176.232 36.375 174.943 36.375L170.667 36.375M158.827 36.375L164.058 36.375M164.058 36.375L170.667 36.375M164.058 36.375L164.058 24.5625M170.667 36.375L170.667 24.5625" stroke="#1F332C" stroke-width="0.75"/>
<path d="M177.277 59.4375L177.277 48.1875M177.277 48.1875L170.667 48.1875M177.277 48.1875L185.152 48.1875M158.827 48.1875L164.058 48.1875M164.058 48.1875L170.667 48.1875M164.058 48.1875L164.058 59.4375M170.667 48.1875L170.667 59.4375" stroke="#1F332C" stroke-width="0.75"/>
</g>
<g opacity="0.8">
<path d="M177.761 83.1301C174.267 85.8276 169.725 85.8276 166.231 83.1301M180.125 85.9576C175.201 89.7601 168.799 89.7601 163.875 85.9576M176.233 80.1644C173.674 82.1469 170.334 82.1469 167.775 80.1644M174.113 77.1906C172.829 78.1818 171.163 78.1818 169.88 77.1906" stroke="#1F332C" stroke-width="1.5" stroke-linecap="round" stroke-linejoin="round"/>
</g>
<path d="M97 135C97 124.494 94.9308 114.091 90.9104 104.385C86.89 94.6793 80.9972 85.8601 73.5686 78.4315C66.1399 71.0028 57.3207 65.11 47.6147 61.0896C37.9086 57.0693 27.5058 55 17 55C6.49426 55 -3.90862 57.0693 -13.6147 61.0897C-23.3207 65.11 -32.1398 71.0028 -39.5685 78.4315C-46.9972 85.8602 -52.89 94.6793 -56.9103 104.385C-60.9307 114.091 -63 124.494 -63 135H-31C-31 128.697 -29.7584 122.455 -27.3462 116.631C-24.934 110.808 -21.3983 105.516 -16.9411 101.059C-12.4839 96.6017 -7.19242 93.066 -1.36879 90.6538C4.45483 88.2416 10.6966 87 17 87C23.3035 87 29.5452 88.2416 35.3688 90.6538C41.1924 93.066 46.4839 96.6017 50.9411 101.059C55.3984 105.516 58.934 110.808 61.3462 116.631C63.7585 122.455 65 128.697 65 135H97Z" fill="#F3F4F4"/>
<path d="M257 135C257 145.506 254.931 155.909 250.91 165.615C246.89 175.321 240.997 184.14 233.569 191.569C226.14 198.997 217.321 204.89 207.615 208.91C197.909 212.931 187.506 215 177 215C166.494 215 156.091 212.931 146.385 208.91C136.679 204.89 127.86 198.997 120.431 191.569C113.003 184.14 107.11 175.321 103.09 165.615C99.0693 155.909 97 145.506 97 135H129C129 141.303 130.242 147.545 132.654 153.369C135.066 159.192 138.602 164.484 143.059 168.941C147.516 173.398 152.808 176.934 158.631 179.346C164.455 181.758 170.697 183 177 183C183.303 183 189.545 181.758 195.369 179.346C201.192 176.934 206.484 173.398 210.941 168.941C215.398 164.484 218.934 159.192 221.346 153.369C223.758 147.545 225 141.303 225 135H257Z" fill="#F3F4F4"/>
<path d="M21.752 24.296C21.5706 24.296 21.4266 24.2267 21.32 24.088C21.224 23.9387 21.176 23.7413 21.176 23.496C21.176 22.952 21.4 22.68 21.848 22.68H23.544C23.9386 22.68 24.216 22.568 24.376 22.344C24.5466 22.12 24.632 21.8747 24.632 21.608V18.984C24.632 18.7173 24.5466 18.472 24.376 18.248C24.216 18.024 23.9386 17.912 23.544 17.912H20.184V28.36C20.184 28.872 19.864 29.128 19.224 29.128C18.6053 29.128 18.296 28.872 18.296 28.36V17.256C18.296 16.872 18.392 16.616 18.584 16.488C18.776 16.36 19.0106 16.296 19.288 16.296H23.96C24.2266 16.296 24.5093 16.3547 24.808 16.472C25.1066 16.5893 25.3946 16.7387 25.672 16.92H25.656C25.9333 17.1227 26.1466 17.3893 26.296 17.72C26.4453 18.04 26.52 18.4133 26.52 18.84V21.736C26.52 22.6 26.232 23.2453 25.656 23.672C25.3786 23.8747 25.096 24.0293 24.808 24.136C24.52 24.2427 24.2373 24.296 23.96 24.296H21.752ZM33.1598 17.864L29.6558 28.616V28.6C29.5918 28.76 29.5012 28.8933 29.3838 29C29.2772 29.096 29.1438 29.144 28.9838 29.144C28.8985 29.144 28.8132 29.1333 28.7278 29.112C28.6532 29.1013 28.5732 29.0853 28.4878 29.064H28.5038C27.8958 28.872 27.6718 28.5307 27.8318 28.04L31.4798 16.952C31.5332 16.7813 31.6238 16.6373 31.7518 16.52C31.8905 16.4027 32.0505 16.3333 32.2318 16.312C32.4132 16.28 32.5892 16.2587 32.7598 16.248C32.9305 16.2267 33.0638 16.216 33.1598 16.216C33.2558 16.216 33.3892 16.2267 33.5598 16.248C33.7305 16.2587 33.9065 16.2747 34.0878 16.296C34.2372 16.3173 34.3812 16.3973 34.5198 16.536C34.6692 16.6747 34.7812 16.8133 34.8558 16.952C35.4532 18.7867 36.0558 20.6373 36.6638 22.504C37.2825 24.36 37.8905 26.2053 38.4878 28.04C38.6372 28.5307 38.4132 28.872 37.8158 29.064C37.7305 29.0853 37.6505 29.1013 37.5758 29.112C37.5118 29.1333 37.4372 29.144 37.3518 29.144C37.2025 29.144 37.0638 29.096 36.9358 29C36.8185 28.8933 36.7332 28.76 36.6798 28.6V28.616L33.1598 17.864ZM34.3598 25.16C34.3598 25.5013 34.2372 25.7947 33.9918 26.04C33.7572 26.2747 33.4692 26.392 33.1278 26.392C32.7865 26.392 32.4985 26.2747 32.2638 26.04C32.0292 25.7947 31.9118 25.5013 31.9118 25.16C31.9118 24.8187 32.0292 24.5307 32.2638 24.296C32.4985 24.0507 32.7865 23.928 33.1278 23.928C33.4692 23.928 33.7572 24.0507 33.9918 24.296C34.2372 24.5307 34.3598 24.8187 34.3598 25.16ZM44.5926 28.36C44.5926 28.872 44.2779 29.128 43.6486 29.128C43.0192 29.128 42.7046 28.872 42.7046 28.36V24.104L39.1206 17.288C39.0566 17.1493 39.0246 17.0053 39.0246 16.856C39.0246 16.5467 39.2059 16.3173 39.5686 16.168H39.5526C39.7872 16.0827 39.9739 16.04 40.1126 16.04C40.3899 16.04 40.6032 16.1787 40.7526 16.456L43.6646 21.928C43.8779 21.5227 44.1072 21.0907 44.3526 20.632C44.5979 20.1627 44.8432 19.688 45.0886 19.208C45.3446 18.728 45.5952 18.2533 45.8406 17.784C46.0859 17.3147 46.3206 16.872 46.5446 16.456C46.6299 16.328 46.7206 16.2267 46.8166 16.152C46.9232 16.0773 47.0512 16.04 47.2006 16.04C47.3499 16.04 47.5259 16.0827 47.7286 16.168H47.7126C48.0859 16.328 48.2726 16.5627 48.2726 16.872C48.2726 16.936 48.2672 17.0053 48.2566 17.08C48.2459 17.144 48.2192 17.2133 48.1766 17.288C48.0806 17.48 47.9579 17.7147 47.8086 17.992C47.6699 18.2693 47.4672 18.6587 47.2006 19.16C46.9446 19.6507 46.6086 20.296 46.1926 21.096C45.7766 21.8853 45.2432 22.904 44.5926 24.152V28.36ZM53.6337 29.08C53.4204 29.08 53.191 29.048 52.9457 28.984C52.711 28.9093 52.5404 28.776 52.4337 28.584C52.1884 27.752 51.9324 26.8987 51.6657 26.024C51.399 25.1493 51.1324 24.2907 50.8657 23.448C50.567 22.456 50.247 21.4267 49.9057 20.36C49.5644 19.2827 49.2444 18.2533 48.9457 17.272C48.8817 17.0373 48.919 16.8347 49.0577 16.664C49.1964 16.4827 49.3937 16.3493 49.6497 16.264C49.8097 16.2213 49.9484 16.2 50.0657 16.2C50.4284 16.2 50.663 16.3813 50.7697 16.744L51.9537 20.536C52.0604 20.92 52.183 21.3413 52.3217 21.8C52.471 22.2587 52.6204 22.728 52.7697 23.208C52.919 23.688 53.0684 24.168 53.2177 24.648C53.367 25.1173 53.5057 25.5547 53.6337 25.96C53.8364 25.288 54.055 24.5627 54.2897 23.784C54.535 22.9947 54.7804 22.1947 55.0257 21.384C55.2817 20.5733 55.5324 19.7733 55.7777 18.984C56.023 18.184 56.2524 17.4373 56.4657 16.744C56.583 16.3813 56.8124 16.2 57.1537 16.2C57.2817 16.2 57.431 16.2213 57.6017 16.264C58.1884 16.424 58.4177 16.76 58.2897 17.272C57.7137 19.1387 57.1324 21.0213 56.5457 22.92C55.959 24.8187 55.3777 26.7067 54.8017 28.584C54.7164 28.7973 54.5564 28.936 54.3217 29C54.0977 29.0533 53.8684 29.08 53.6337 29.08ZM65.8592 16.296C66.1365 16.296 66.4245 16.3547 66.7232 16.472C67.0219 16.5893 67.3099 16.7387 67.5872 16.92H67.5712C67.8485 17.1227 68.0619 17.3893 68.2112 17.72C68.3605 18.04 68.4352 18.4133 68.4352 18.84V26.44C68.4352 27.304 68.1472 27.9493 67.5712 28.376C67.2939 28.5787 67.0059 28.7387 66.7072 28.856C66.4192 28.9627 66.1365 29.016 65.8592 29.016H62.3712C62.0939 29.016 61.8059 28.9627 61.5072 28.856C61.2192 28.7387 60.9365 28.5787 60.6592 28.376C60.3819 28.1627 60.1685 27.9013 60.0192 27.592C59.8699 27.272 59.7952 26.888 59.7952 26.44V18.84C59.7952 18.4133 59.8699 18.04 60.0192 17.72C60.1685 17.3893 60.3819 17.1227 60.6592 16.92H60.6432C60.9205 16.7387 61.2085 16.5893 61.5072 16.472C61.8059 16.3547 62.0939 16.296 62.3712 16.296H65.8592ZM65.4592 27.4C65.8539 27.4 66.1312 27.288 66.2912 27.064C66.4512 26.84 66.5312 26.5893 66.5312 26.312V18.984C66.5312 18.7173 66.4512 18.472 66.2912 18.248C66.1312 18.024 65.8539 17.912 65.4592 17.912H62.7712C62.3765 17.912 62.0992 18.024 61.9392 18.248C61.7792 18.472 61.6992 18.7173 61.6992 18.984V26.312C61.6992 26.5893 61.7792 26.84 61.9392 27.064C62.0992 27.288 62.3765 27.4 62.7712 27.4H65.4592ZM75.3861 23.736H74.1541C73.9727 23.736 73.8287 23.6667 73.7221 23.528C73.6261 23.3787 73.5781 23.1813 73.5781 22.936C73.5781 22.392 73.8021 22.12 74.2501 22.12H76.1221C76.5167 22.12 76.7941 22.008 76.9541 21.784C77.1141 21.56 77.1941 21.3147 77.1941 21.048V18.984C77.1941 18.7173 77.1141 18.472 76.9541 18.248C76.7941 18.024 76.5167 17.912 76.1221 17.912H72.7461V28.344C72.7461 28.856 72.4314 29.112 71.8021 29.112C71.1727 29.112 70.8581 28.856 70.8581 28.344V17.256C70.8581 16.872 70.9541 16.616 71.1461 16.488C71.3487 16.36 71.5887 16.296 71.8661 16.296H76.5221C76.7994 16.296 77.0874 16.3547 77.3861 16.472C77.6847 16.5893 77.9727 16.7387 78.2501 16.92H78.2341C78.5114 17.1227 78.7247 17.3893 78.8741 17.72C79.0234 18.04 79.0981 18.4133 79.0981 18.84V21.176C79.0981 22.04 78.8101 22.6853 78.2341 23.112C78.1167 23.1973 77.9887 23.2773 77.8501 23.352C77.7221 23.4267 77.5887 23.5013 77.4501 23.576L80.0101 27.8C80.0421 27.8533 80.0741 27.9227 80.1061 28.008C80.1381 28.0933 80.1541 28.1627 80.1541 28.216C80.1541 28.472 79.9727 28.7173 79.6101 28.952V28.936C79.3647 29.0853 79.1567 29.16 78.9861 29.16C78.7407 29.16 78.5434 29.0373 78.3941 28.792L78.4101 28.808L75.3861 23.736ZM85.8473 17.864L82.3433 28.616V28.6C82.2793 28.76 82.1887 28.8933 82.0713 29C81.9647 29.096 81.8313 29.144 81.6713 29.144C81.586 29.144 81.5007 29.1333 81.4153 29.112C81.3407 29.1013 81.2607 29.0853 81.1753 29.064H81.1913C80.5833 28.872 80.3593 28.5307 80.5193 28.04L84.1673 16.952C84.2207 16.7813 84.3113 16.6373 84.4393 16.52C84.578 16.4027 84.738 16.3333 84.9193 16.312C85.1007 16.28 85.2767 16.2587 85.4473 16.248C85.618 16.2267 85.7513 16.216 85.8473 16.216C85.9433 16.216 86.0767 16.2267 86.2473 16.248C86.418 16.2587 86.594 16.2747 86.7753 16.296C86.9247 16.3173 87.0687 16.3973 87.2073 16.536C87.3567 16.6747 87.4687 16.8133 87.5433 16.952C88.1407 18.7867 88.7433 20.6373 89.3513 22.504C89.97 24.36 90.578 26.2053 91.1753 28.04C91.3247 28.5307 91.1007 28.872 90.5033 29.064C90.418 29.0853 90.338 29.1013 90.2633 29.112C90.1993 29.1333 90.1247 29.144 90.0393 29.144C89.89 29.144 89.7513 29.096 89.6233 29C89.506 28.8933 89.4207 28.76 89.3673 28.6V28.616L85.8473 17.864ZM87.0473 25.16C87.0473 25.5013 86.9247 25.7947 86.6793 26.04C86.4447 26.2747 86.1567 26.392 85.8153 26.392C85.474 26.392 85.186 26.2747 84.9513 26.04C84.7167 25.7947 84.5993 25.5013 84.5993 25.16C84.5993 24.8187 84.7167 24.5307 84.9513 24.296C85.186 24.0507 85.474 23.928 85.8153 23.928C86.1567 23.928 86.4447 24.0507 86.6793 24.296C86.9247 24.5307 87.0473 24.8187 87.0473 25.16Z" fill="#42524C"/>
</g>
<defs>

<clipPath id="clip0_1_449">
<rect x="1.52588e-05" y="332" width="332" height="210" rx="12" transform="rotate(-90 1.52588e-05 332)" fill="white"/>
</clipPath>
<clipPath id="clip1_1_449">
<rect width="31" height="111" fill="white" transform="translate(66 311) rotate(-90)"/>
</clipPath>
<clipPath id="clip2_1_449">
<rect width="36" height="27.4286" fill="white" transform="translate(185.714 24) rotate(90)"/>
</clipPath>

</defs>
</svg>