<svg xmlns="http://www.w3.org/2000/svg" width="210" height="332" viewBox="0 0 210 332" fill="none">
<g clip-path="url(#clip0_1_316)">
<rect x="1.45122e-05" y="332" width="332" height="210" rx="12" transform="rotate(-90 1.45122e-05 332)" fill="#F9F9F9"/>
<g clip-path="url(#clip1_1_316)">
<circle cx="171.5" cy="275" r="18" fill="#F79E1C"/>
<circle cx="149" cy="275" r="18" fill="#EF1B22"/>
<path opacity="0.5" fill-rule="evenodd" clip-rule="evenodd" d="M160.25 289.052C164.365 285.753 167 280.684 167 275C167 269.316 164.365 264.247 160.25 260.948C156.135 264.247 153.5 269.316 153.5 275C153.5 280.684 156.135 285.753 160.25 289.052Z" fill="#F79E1C"/>
<path d="M130.785 306V300H131.906V300.977H131.98C132.105 300.646 132.31 300.388 132.594 300.203C132.878 300.016 133.217 299.922 133.613 299.922C134.014 299.922 134.35 300.016 134.621 300.203C134.895 300.391 135.096 300.648 135.227 300.977H135.289C135.432 300.656 135.66 300.401 135.973 300.211C136.285 300.018 136.658 299.922 137.09 299.922C137.634 299.922 138.078 300.092 138.422 300.434C138.768 300.775 138.941 301.289 138.941 301.977V306H137.773V302.086C137.773 301.68 137.663 301.385 137.441 301.203C137.22 301.021 136.956 300.93 136.648 300.93C136.268 300.93 135.973 301.047 135.762 301.281C135.551 301.513 135.445 301.811 135.445 302.176V306H134.281V302.012C134.281 301.686 134.18 301.424 133.977 301.227C133.773 301.029 133.509 300.93 133.184 300.93C132.962 300.93 132.758 300.988 132.57 301.105C132.385 301.22 132.236 301.38 132.121 301.586C132.009 301.792 131.953 302.03 131.953 302.301V306H130.785ZM142.253 306.133C141.873 306.133 141.529 306.063 141.222 305.922C140.914 305.779 140.671 305.572 140.491 305.301C140.314 305.03 140.226 304.698 140.226 304.305C140.226 303.966 140.291 303.688 140.421 303.469C140.551 303.25 140.727 303.077 140.948 302.949C141.17 302.822 141.417 302.725 141.69 302.66C141.964 302.595 142.243 302.546 142.526 302.512C142.886 302.47 143.177 302.436 143.401 302.41C143.625 302.382 143.788 302.336 143.89 302.273C143.991 302.211 144.042 302.109 144.042 301.969V301.941C144.042 301.6 143.946 301.336 143.753 301.148C143.563 300.961 143.279 300.867 142.901 300.867C142.508 300.867 142.198 300.954 141.972 301.129C141.748 301.301 141.593 301.492 141.507 301.703L140.409 301.453C140.539 301.089 140.73 300.794 140.98 300.57C141.232 300.344 141.522 300.18 141.851 300.078C142.179 299.974 142.524 299.922 142.886 299.922C143.125 299.922 143.379 299.951 143.647 300.008C143.918 300.063 144.171 300.164 144.405 300.313C144.642 300.461 144.836 300.673 144.987 300.949C145.138 301.223 145.214 301.578 145.214 302.016V306H144.073V305.18H144.026C143.951 305.331 143.838 305.479 143.687 305.625C143.535 305.771 143.341 305.892 143.105 305.988C142.868 306.085 142.584 306.133 142.253 306.133ZM142.507 305.195C142.83 305.195 143.106 305.132 143.335 305.004C143.567 304.876 143.743 304.71 143.862 304.504C143.985 304.296 144.046 304.073 144.046 303.836V303.063C144.004 303.104 143.924 303.143 143.804 303.18C143.687 303.214 143.552 303.243 143.401 303.27C143.25 303.293 143.103 303.315 142.96 303.336C142.817 303.354 142.697 303.37 142.601 303.383C142.374 303.411 142.167 303.46 141.98 303.527C141.795 303.595 141.646 303.693 141.534 303.82C141.425 303.945 141.37 304.112 141.37 304.32C141.37 304.609 141.477 304.828 141.69 304.977C141.904 305.122 142.176 305.195 142.507 305.195ZM151.266 301.465L150.207 301.652C150.163 301.517 150.092 301.388 149.996 301.266C149.902 301.143 149.775 301.043 149.613 300.965C149.452 300.887 149.25 300.848 149.008 300.848C148.677 300.848 148.401 300.922 148.18 301.07C147.958 301.216 147.848 301.405 147.848 301.637C147.848 301.837 147.922 301.999 148.07 302.121C148.219 302.243 148.458 302.344 148.789 302.422L149.742 302.641C150.294 302.768 150.706 302.965 150.977 303.23C151.247 303.496 151.383 303.841 151.383 304.266C151.383 304.625 151.279 304.945 151.07 305.227C150.865 305.505 150.577 305.724 150.207 305.883C149.84 306.042 149.414 306.121 148.93 306.121C148.258 306.121 147.71 305.978 147.285 305.691C146.861 305.402 146.6 304.992 146.504 304.461L147.633 304.289C147.703 304.583 147.848 304.806 148.066 304.957C148.285 305.105 148.57 305.18 148.922 305.18C149.305 305.18 149.611 305.1 149.84 304.941C150.069 304.78 150.184 304.583 150.184 304.352C150.184 304.164 150.113 304.007 149.973 303.879C149.835 303.751 149.622 303.655 149.336 303.59L148.32 303.367C147.76 303.24 147.346 303.036 147.078 302.758C146.813 302.479 146.68 302.126 146.68 301.699C146.68 301.345 146.779 301.035 146.977 300.77C147.174 300.504 147.448 300.297 147.797 300.148C148.146 299.997 148.546 299.922 148.996 299.922C149.645 299.922 150.155 300.063 150.527 300.344C150.9 300.622 151.146 300.996 151.266 301.465ZM155.468 300V300.938H152.19V300H155.468ZM153.069 298.563H154.237V304.238C154.237 304.465 154.271 304.635 154.339 304.75C154.407 304.862 154.494 304.939 154.601 304.98C154.71 305.02 154.828 305.039 154.956 305.039C155.05 305.039 155.132 305.033 155.202 305.02C155.272 305.007 155.327 304.996 155.366 304.988L155.577 305.953C155.509 305.979 155.413 306.005 155.288 306.031C155.163 306.06 155.007 306.076 154.819 306.078C154.512 306.083 154.226 306.029 153.96 305.914C153.694 305.799 153.48 305.622 153.315 305.383C153.151 305.143 153.069 304.842 153.069 304.48V298.563ZM159.281 306.121C158.69 306.121 158.181 305.995 157.754 305.742C157.329 305.487 157.001 305.129 156.77 304.668C156.54 304.204 156.426 303.661 156.426 303.039C156.426 302.424 156.54 301.883 156.77 301.414C157.001 300.945 157.324 300.579 157.738 300.316C158.155 300.053 158.642 299.922 159.199 299.922C159.538 299.922 159.866 299.978 160.184 300.09C160.501 300.202 160.786 300.378 161.039 300.617C161.292 300.857 161.491 301.168 161.637 301.551C161.783 301.931 161.855 302.393 161.855 302.938V303.352H157.086V302.477H160.711C160.711 302.169 160.648 301.897 160.523 301.66C160.398 301.421 160.223 301.232 159.996 301.094C159.772 300.956 159.509 300.887 159.207 300.887C158.879 300.887 158.592 300.967 158.348 301.129C158.105 301.288 157.918 301.496 157.785 301.754C157.655 302.009 157.59 302.286 157.59 302.586V303.27C157.59 303.671 157.66 304.012 157.801 304.293C157.944 304.574 158.143 304.789 158.398 304.938C158.654 305.083 158.952 305.156 159.293 305.156C159.514 305.156 159.716 305.125 159.898 305.063C160.081 304.997 160.238 304.901 160.371 304.773C160.504 304.646 160.605 304.488 160.676 304.301L161.781 304.5C161.693 304.826 161.534 305.111 161.305 305.355C161.078 305.598 160.793 305.786 160.449 305.922C160.108 306.055 159.719 306.121 159.281 306.121ZM163.151 306V300H164.28V300.953H164.343C164.452 300.63 164.645 300.376 164.921 300.191C165.2 300.004 165.515 299.91 165.866 299.91C165.939 299.91 166.025 299.913 166.124 299.918C166.226 299.923 166.305 299.93 166.362 299.938V301.055C166.315 301.042 166.232 301.027 166.112 301.012C165.993 300.993 165.873 300.984 165.753 300.984C165.477 300.984 165.231 301.043 165.015 301.16C164.801 301.275 164.632 301.435 164.507 301.641C164.382 301.844 164.319 302.076 164.319 302.336V306H163.151ZM169.686 306.121C169.105 306.121 168.605 305.99 168.186 305.727C167.769 305.461 167.449 305.095 167.225 304.629C167.001 304.163 166.889 303.629 166.889 303.027C166.889 302.418 167.003 301.88 167.232 301.414C167.462 300.945 167.785 300.579 168.201 300.316C168.618 300.053 169.109 299.922 169.674 299.922C170.13 299.922 170.536 300.007 170.893 300.176C171.249 300.342 171.537 300.577 171.756 300.879C171.977 301.181 172.109 301.534 172.15 301.938H171.014C170.951 301.656 170.808 301.414 170.584 301.211C170.363 301.008 170.066 300.906 169.693 300.906C169.368 300.906 169.083 300.992 168.838 301.164C168.596 301.333 168.407 301.576 168.271 301.891C168.136 302.203 168.068 302.573 168.068 303C168.068 303.438 168.135 303.815 168.268 304.133C168.4 304.451 168.588 304.697 168.83 304.871C169.075 305.046 169.363 305.133 169.693 305.133C169.915 305.133 170.115 305.092 170.295 305.012C170.477 304.928 170.63 304.81 170.752 304.656C170.877 304.503 170.964 304.318 171.014 304.102H172.15C172.109 304.49 171.982 304.836 171.771 305.141C171.561 305.445 171.278 305.685 170.924 305.859C170.572 306.034 170.16 306.121 169.686 306.121ZM175.146 306.133C174.765 306.133 174.422 306.063 174.114 305.922C173.807 305.779 173.563 305.572 173.384 305.301C173.207 305.03 173.118 304.698 173.118 304.305C173.118 303.966 173.183 303.688 173.313 303.469C173.444 303.25 173.619 303.077 173.841 302.949C174.062 302.822 174.31 302.725 174.583 302.66C174.856 302.595 175.135 302.546 175.419 302.512C175.778 302.47 176.07 302.436 176.294 302.41C176.518 302.382 176.681 302.336 176.782 302.273C176.884 302.211 176.935 302.109 176.935 301.969V301.941C176.935 301.6 176.838 301.336 176.646 301.148C176.455 300.961 176.172 300.867 175.794 300.867C175.401 300.867 175.091 300.954 174.864 301.129C174.64 301.301 174.485 301.492 174.399 301.703L173.302 301.453C173.432 301.089 173.622 300.794 173.872 300.57C174.125 300.344 174.415 300.18 174.743 300.078C175.071 299.974 175.416 299.922 175.778 299.922C176.018 299.922 176.272 299.951 176.54 300.008C176.811 300.063 177.063 300.164 177.298 300.313C177.535 300.461 177.729 300.673 177.88 300.949C178.031 301.223 178.106 301.578 178.106 302.016V306H176.966V305.18H176.919C176.843 305.331 176.73 305.479 176.579 305.625C176.428 305.771 176.234 305.892 175.997 305.988C175.76 306.085 175.476 306.133 175.146 306.133ZM175.399 305.195C175.722 305.195 175.998 305.132 176.228 305.004C176.459 304.876 176.635 304.71 176.755 304.504C176.877 304.296 176.938 304.073 176.938 303.836V303.063C176.897 303.104 176.816 303.143 176.696 303.18C176.579 303.214 176.445 303.243 176.294 303.27C176.143 303.293 175.996 303.315 175.853 303.336C175.709 303.354 175.59 303.37 175.493 303.383C175.267 303.411 175.06 303.46 174.872 303.527C174.687 303.595 174.539 303.693 174.427 303.82C174.317 303.945 174.263 304.112 174.263 304.32C174.263 304.609 174.369 304.828 174.583 304.977C174.797 305.122 175.069 305.195 175.399 305.195ZM179.662 306V300H180.791V300.953H180.854C180.963 300.63 181.156 300.376 181.432 300.191C181.71 300.004 182.025 299.91 182.377 299.91C182.45 299.91 182.536 299.913 182.635 299.918C182.736 299.923 182.816 299.93 182.873 299.938V301.055C182.826 301.042 182.743 301.027 182.623 301.012C182.503 300.993 182.383 300.984 182.264 300.984C181.988 300.984 181.742 301.043 181.525 301.16C181.312 301.275 181.143 301.435 181.018 301.641C180.893 301.844 180.83 302.076 180.83 302.336V306H179.662ZM185.915 306.117C185.431 306.117 184.998 305.993 184.618 305.746C184.241 305.496 183.944 305.141 183.728 304.68C183.514 304.216 183.407 303.66 183.407 303.012C183.407 302.363 183.515 301.809 183.731 301.348C183.95 300.887 184.25 300.534 184.63 300.289C185.01 300.044 185.441 299.922 185.923 299.922C186.295 299.922 186.595 299.984 186.821 300.109C187.05 300.232 187.228 300.375 187.353 300.539C187.48 300.703 187.579 300.848 187.649 300.973H187.72V298H188.888V306H187.747V305.066H187.649C187.579 305.194 187.478 305.34 187.345 305.504C187.215 305.668 187.035 305.811 186.806 305.934C186.577 306.056 186.28 306.117 185.915 306.117ZM186.173 305.121C186.509 305.121 186.793 305.033 187.024 304.855C187.259 304.676 187.436 304.427 187.556 304.109C187.678 303.792 187.739 303.422 187.739 303C187.739 302.583 187.679 302.219 187.56 301.906C187.44 301.594 187.264 301.35 187.032 301.176C186.8 301.001 186.514 300.914 186.173 300.914C185.821 300.914 185.528 301.005 185.294 301.188C185.06 301.37 184.883 301.618 184.763 301.934C184.646 302.249 184.587 302.604 184.587 303C184.587 303.401 184.647 303.762 184.767 304.082C184.886 304.402 185.063 304.656 185.298 304.844C185.535 305.029 185.827 305.121 186.173 305.121Z" fill="#262626"/>
</g>
<g clip-path="url(#clip2_1_316)">
<rect x="69.7621" y="293" width="40" height="30.4762" rx="4.66667" transform="rotate(-90 69.7621 293)" fill="#E9DCA5"/>
<path d="M79.1371 292.375V281.583C79.1371 280.295 80.1818 279.25 81.4704 279.25H86.4808M99.6371 279.25H93.8246M93.8246 279.25H86.4808M93.8246 279.25V292.375M86.4808 279.25V292.375" stroke="#262626" stroke-width="0.583333"/>
<path d="M79.1371 253.625V266.125M79.1371 266.125H86.4808M79.1371 266.125H70.3871M99.6371 266.125H93.8246M93.8246 266.125H86.4808M93.8246 266.125V253.625M86.4808 266.125V253.625" stroke="#262626" stroke-width="0.583333"/>
</g>
<path d="M12.1477 31V19.3636H16.5114C17.4053 19.3636 18.1553 19.5303 18.7614 19.8636C19.3712 20.197 19.8315 20.6553 20.1421 21.2386C20.4565 21.8182 20.6137 22.4773 20.6137 23.2159C20.6137 23.9621 20.4565 24.625 20.1421 25.2046C19.8277 25.7841 19.3637 26.2405 18.75 26.5739C18.1364 26.9034 17.3807 27.0682 16.483 27.0682H13.5909V25.3352H16.1989C16.7216 25.3352 17.1496 25.2443 17.483 25.0625C17.8163 24.8807 18.0625 24.6307 18.2216 24.3125C18.3845 23.9943 18.4659 23.6288 18.4659 23.2159C18.4659 22.803 18.3845 22.4394 18.2216 22.125C18.0625 21.8106 17.8144 21.5663 17.4773 21.3921C17.144 21.214 16.714 21.125 16.1875 21.125H14.2557V31H12.1477ZM22.3221 31H20.0721L24.1687 19.3636H26.7709L30.8732 31H28.6232L25.5152 21.75H25.4243L22.3221 31ZM22.3959 26.4375H28.5323V28.1307H22.3959V26.4375ZM30.1029 19.3636H32.4836L35.3302 24.5114H35.4438L38.2904 19.3636H40.6711L36.4381 26.6591V31H34.3359V26.6591L30.1029 19.3636ZM43.4008 19.3636L46.4292 28.5227H46.5485L49.5713 19.3636H51.8894L47.7872 31H45.1849L41.0883 19.3636H43.4008ZM62.8748 25.1818C62.8748 26.4356 62.64 27.5095 62.1703 28.4034C61.7044 29.2936 61.068 29.9754 60.2612 30.4489C59.4582 30.9224 58.5472 31.1591 57.5283 31.1591C56.5093 31.1591 55.5964 30.9224 54.7896 30.4489C53.9866 29.9716 53.3502 29.2879 52.8805 28.3977C52.4146 27.5038 52.1817 26.4318 52.1817 25.1818C52.1817 23.928 52.4146 22.8561 52.8805 21.9659C53.3502 21.072 53.9866 20.3883 54.7896 19.9148C55.5964 19.4413 56.5093 19.2046 57.5283 19.2046C58.5472 19.2046 59.4582 19.4413 60.2612 19.9148C61.068 20.3883 61.7044 21.072 62.1703 21.9659C62.64 22.8561 62.8748 23.928 62.8748 25.1818ZM60.7555 25.1818C60.7555 24.2993 60.6173 23.5549 60.3408 22.9489C60.068 22.339 59.6892 21.8788 59.2044 21.5682C58.7195 21.2538 58.1608 21.0966 57.5283 21.0966C56.8957 21.0966 56.337 21.2538 55.8521 21.5682C55.3673 21.8788 54.9866 22.339 54.7101 22.9489C54.4373 23.5549 54.301 24.2993 54.301 25.1818C54.301 26.0644 54.4373 26.8106 54.7101 27.4205C54.9866 28.0265 55.3673 28.4868 55.8521 28.8011C56.337 29.1118 56.8957 29.2671 57.5283 29.2671C58.1608 29.2671 58.7195 29.1118 59.2044 28.8011C59.6892 28.4868 60.068 28.0265 60.3408 27.4205C60.6173 26.8106 60.7555 26.0644 60.7555 25.1818ZM64.5477 31V19.3636H68.9114C69.8053 19.3636 70.5553 19.5189 71.1614 19.8296C71.7712 20.1402 72.2315 20.5758 72.5421 21.1364C72.8565 21.6932 73.0137 22.3428 73.0137 23.0852C73.0137 23.8314 72.8546 24.4792 72.5364 25.0284C72.222 25.5739 71.758 25.9962 71.1443 26.2955C70.5307 26.5909 69.7769 26.7386 68.883 26.7386H65.775V24.9886H68.5989C69.1216 24.9886 69.5496 24.9167 69.883 24.7727C70.2163 24.625 70.4625 24.411 70.6216 24.1307C70.7845 23.8466 70.8659 23.4981 70.8659 23.0852C70.8659 22.6724 70.7845 22.3201 70.6216 22.0284C70.4587 21.733 70.2106 21.5095 69.8773 21.358C69.544 21.2027 69.114 21.125 68.5875 21.125H66.6557V31H64.5477ZM70.5591 25.7273L73.4398 31H71.0875L68.258 25.7273H70.5591ZM76.1283 31H73.8783L77.9749 19.3636H80.5772L84.6794 31H82.4294L79.3215 21.75H79.2306L76.1283 31ZM76.2022 26.4375H82.3385V28.1307H76.2022V26.4375Z" fill="#424242"/>
<path d="M179.184 174.839C183.006 179.788 183.006 186.223 179.184 191.172M183.19 171.49C188.577 178.465 188.577 187.535 183.19 194.51M174.983 177.003C177.791 180.629 177.791 185.36 174.983 188.985M170.77 180.007C172.174 181.826 172.174 184.185 170.77 186.004" stroke="#424242" stroke-width="2" stroke-linecap="round" stroke-linejoin="round"/>
</g>
<defs>
<clipPath id="clip0_1_316">
<rect x="1.45122e-05" y="332" width="332" height="210" rx="12" transform="rotate(-90 1.45122e-05 332)" fill="white"/>
</clipPath>
<clipPath id="clip1_1_316">
<rect width="51" height="60" fill="white" transform="translate(130 308) rotate(-90)"/>
</clipPath>
<clipPath id="clip2_1_316">
<rect width="40" height="30.4762" fill="white" transform="matrix(0 -1 1 0 69.7621 293)"/>
</clipPath>
</defs>
</svg>