<svg xmlns="http://www.w3.org/2000/svg" xmlns:xlink="http://www.w3.org/1999/xlink" width="393" height="852" viewBox="0 0 393 852" fill="none">
<g clip-path="url(#clip0_5_526)">
<rect width="393" height="852" rx="20" fill="white"/>
<rect width="393" height="484" fill="white"/>
<rect x="69" y="659" width="263.052" height="37.902" rx="3.15033" fill="black"/>
<path d="M191.067 681.122V682.451H186.563V681.122H191.067ZM187.073 673.492V682.451H185.381V673.492H187.073ZM191.787 679.19V679.061C191.787 678.573 191.856 678.123 191.996 677.713C192.135 677.299 192.338 676.94 192.605 676.636C192.872 676.333 193.198 676.097 193.583 675.929C193.969 675.757 194.408 675.67 194.9 675.67C195.4 675.67 195.844 675.757 196.229 675.929C196.619 676.097 196.947 676.333 197.214 676.636C197.48 676.94 197.683 677.299 197.823 677.713C197.962 678.123 198.032 678.573 198.032 679.061V679.19C198.032 679.674 197.962 680.123 197.823 680.537C197.683 680.948 197.48 681.307 197.214 681.614C196.947 681.918 196.621 682.154 196.235 682.322C195.85 682.49 195.409 682.574 194.912 682.574C194.42 682.574 193.979 682.49 193.589 682.322C193.2 682.154 192.872 681.918 192.605 681.614C192.338 681.307 192.135 680.948 191.996 680.537C191.856 680.123 191.787 679.674 191.787 679.19ZM193.411 679.061V679.19C193.411 679.481 193.44 679.754 193.497 680.008C193.555 680.263 193.643 680.486 193.762 680.679C193.881 680.872 194.035 681.023 194.223 681.134C194.416 681.241 194.646 681.294 194.912 681.294C195.175 681.294 195.4 681.241 195.589 681.134C195.778 681.023 195.932 680.872 196.051 680.679C196.174 680.486 196.264 680.263 196.321 680.008C196.379 679.754 196.408 679.481 196.408 679.19V679.061C196.408 678.774 196.379 678.505 196.321 678.255C196.264 678 196.174 677.777 196.051 677.584C195.932 677.387 195.776 677.233 195.583 677.123C195.394 677.008 195.167 676.95 194.9 676.95C194.638 676.95 194.412 677.008 194.223 677.123C194.035 677.233 193.881 677.387 193.762 677.584C193.643 677.777 193.555 678 193.497 678.255C193.44 678.505 193.411 678.774 193.411 679.061ZM203.447 675.793H204.923V682.248C204.923 682.851 204.792 683.362 204.529 683.78C204.271 684.203 203.908 684.522 203.44 684.74C202.973 684.961 202.429 685.072 201.81 685.072C201.543 685.072 201.254 685.035 200.942 684.961C200.635 684.888 200.337 684.771 200.05 684.611C199.767 684.455 199.531 684.252 199.343 684.002L200.075 683.042C200.296 683.3 200.546 683.495 200.825 683.626C201.104 683.762 201.406 683.829 201.73 683.829C202.058 683.829 202.337 683.768 202.567 683.645C202.8 683.526 202.979 683.349 203.102 683.116C203.229 682.886 203.293 682.603 203.293 682.266V677.313L203.447 675.793ZM198.949 679.202V679.073C198.949 678.564 199.01 678.103 199.133 677.689C199.256 677.27 199.433 676.911 199.662 676.612C199.896 676.312 200.177 676.081 200.505 675.917C200.838 675.752 201.211 675.67 201.625 675.67C202.064 675.67 202.433 675.75 202.733 675.91C203.036 676.07 203.287 676.298 203.483 676.593C203.684 676.889 203.84 677.239 203.951 677.646C204.066 678.048 204.154 678.491 204.216 678.975V679.325C204.158 679.797 204.066 680.23 203.939 680.624C203.816 681.017 203.652 681.362 203.447 681.657C203.241 681.948 202.987 682.174 202.684 682.334C202.38 682.494 202.023 682.574 201.613 682.574C201.203 682.574 200.834 682.49 200.505 682.322C200.177 682.154 199.896 681.918 199.662 681.614C199.433 681.311 199.256 680.954 199.133 680.544C199.01 680.133 198.949 679.686 198.949 679.202ZM200.573 679.073V679.202C200.573 679.489 200.602 679.758 200.659 680.008C200.717 680.258 200.805 680.48 200.924 680.673C201.043 680.861 201.193 681.009 201.373 681.116C201.553 681.222 201.769 681.276 202.019 681.276C202.355 681.276 202.63 681.206 202.844 681.067C203.061 680.923 203.225 680.728 203.336 680.482C203.451 680.232 203.524 679.951 203.557 679.639V678.673C203.537 678.427 203.492 678.199 203.422 677.99C203.356 677.781 203.264 677.6 203.145 677.449C203.026 677.297 202.874 677.178 202.69 677.092C202.505 677.006 202.286 676.963 202.031 676.963C201.785 676.963 201.57 677.018 201.385 677.129C201.201 677.235 201.049 677.385 200.93 677.578C200.811 677.771 200.721 677.994 200.659 678.249C200.602 678.503 200.573 678.778 200.573 679.073ZM208.111 675.793V682.451H206.48V675.793H208.111ZM206.369 674.052C206.369 673.81 206.451 673.609 206.615 673.449C206.784 673.289 207.009 673.209 207.292 673.209C207.575 673.209 207.799 673.289 207.963 673.449C208.131 673.609 208.215 673.81 208.215 674.052C208.215 674.29 208.131 674.489 207.963 674.649C207.799 674.809 207.575 674.889 207.292 674.889C207.009 674.889 206.784 674.809 206.615 674.649C206.451 674.489 206.369 674.29 206.369 674.052ZM211.255 677.215V682.451H209.63V675.793H211.156L211.255 677.215ZM210.996 678.882H210.516C210.52 678.398 210.586 677.959 210.713 677.566C210.84 677.172 211.019 676.833 211.249 676.55C211.482 676.267 211.759 676.05 212.079 675.898C212.399 675.746 212.756 675.67 213.15 675.67C213.47 675.67 213.759 675.716 214.017 675.806C214.276 675.896 214.497 676.04 214.682 676.236C214.871 676.433 215.014 676.692 215.113 677.012C215.215 677.328 215.266 677.717 215.266 678.181V682.451H213.63V678.169C213.63 677.865 213.585 677.625 213.494 677.449C213.408 677.272 213.281 677.147 213.113 677.073C212.949 676.999 212.746 676.963 212.504 676.963C212.254 676.963 212.034 677.014 211.845 677.116C211.661 677.215 211.505 677.352 211.378 677.529C211.255 677.705 211.16 677.908 211.095 678.138C211.029 678.367 210.996 678.616 210.996 678.882Z" fill="#F8F8F8"/>
<rect x="69.3938" y="703.596" width="263.052" height="37.1144" rx="2.75654" stroke="black" stroke-width="0.787582"/>
<path d="M184.464 724.328C184.464 724.156 184.437 724.002 184.384 723.866C184.335 723.727 184.242 723.602 184.107 723.491C183.976 723.376 183.789 723.265 183.547 723.159C183.309 723.048 183.001 722.933 182.624 722.814C182.206 722.683 181.816 722.535 181.455 722.371C181.094 722.207 180.776 722.016 180.501 721.799C180.231 721.582 180.019 721.331 179.867 721.048C179.716 720.761 179.64 720.429 179.64 720.051C179.64 719.682 179.718 719.346 179.874 719.042C180.034 718.739 180.259 718.478 180.55 718.261C180.842 718.039 181.184 717.869 181.578 717.75C181.976 717.631 182.415 717.572 182.895 717.572C183.559 717.572 184.134 717.693 184.618 717.935C185.106 718.177 185.483 718.505 185.75 718.919C186.016 719.334 186.15 719.799 186.15 720.316H184.464C184.464 720.037 184.404 719.791 184.285 719.578C184.17 719.364 183.994 719.196 183.756 719.073C183.522 718.95 183.227 718.889 182.87 718.889C182.526 718.889 182.238 718.94 182.009 719.042C181.783 719.145 181.613 719.284 181.498 719.461C181.387 719.637 181.332 719.834 181.332 720.051C181.332 720.216 181.371 720.363 181.449 720.494C181.527 720.622 181.644 720.743 181.8 720.858C181.955 720.968 182.148 721.073 182.378 721.171C182.612 721.266 182.882 721.36 183.19 721.454C183.682 721.602 184.113 721.766 184.482 721.947C184.855 722.127 185.165 722.332 185.411 722.562C185.662 722.792 185.848 723.05 185.971 723.337C186.098 723.624 186.162 723.95 186.162 724.315C186.162 724.701 186.086 725.046 185.934 725.349C185.783 725.653 185.565 725.911 185.282 726.124C184.999 726.338 184.659 726.5 184.261 726.611C183.867 726.721 183.426 726.777 182.938 726.777C182.503 726.777 182.072 726.719 181.646 726.604C181.223 726.485 180.84 726.309 180.495 726.075C180.151 725.837 179.876 725.538 179.671 725.177C179.465 724.812 179.363 724.385 179.363 723.897H181.061C181.061 724.18 181.106 724.422 181.197 724.623C181.291 724.82 181.422 724.982 181.59 725.109C181.763 725.232 181.964 725.323 182.193 725.38C182.423 725.437 182.671 725.466 182.938 725.466C183.282 725.466 183.565 725.419 183.787 725.325C184.013 725.226 184.181 725.091 184.291 724.918C184.406 724.746 184.464 724.549 184.464 724.328ZM189.066 719.996V726.654H187.436V719.996H189.066ZM187.325 718.255C187.325 718.013 187.407 717.812 187.571 717.652C187.739 717.492 187.965 717.412 188.248 717.412C188.531 717.412 188.754 717.492 188.919 717.652C189.087 717.812 189.171 718.013 189.171 718.255C189.171 718.493 189.087 718.692 188.919 718.852C188.754 719.012 188.531 719.092 188.248 719.092C187.965 719.092 187.739 719.012 187.571 718.852C187.407 718.692 187.325 718.493 187.325 718.255ZM194.85 719.996H196.327V726.451C196.327 727.054 196.195 727.564 195.933 727.983C195.674 728.405 195.311 728.725 194.844 728.943C194.376 729.164 193.833 729.275 193.213 729.275C192.947 729.275 192.657 729.238 192.346 729.164C192.038 729.09 191.741 728.973 191.454 728.813C191.171 728.657 190.935 728.454 190.746 728.204L191.478 727.244C191.7 727.503 191.95 727.698 192.229 727.829C192.508 727.964 192.809 728.032 193.133 728.032C193.461 728.032 193.74 727.97 193.97 727.847C194.204 727.728 194.382 727.552 194.505 727.318C194.633 727.088 194.696 726.805 194.696 726.469V721.516L194.85 719.996ZM190.352 723.405V723.276C190.352 722.767 190.414 722.306 190.537 721.891C190.66 721.473 190.836 721.114 191.066 720.814C191.3 720.515 191.581 720.283 191.909 720.119C192.241 719.955 192.614 719.873 193.029 719.873C193.468 719.873 193.837 719.953 194.136 720.113C194.44 720.273 194.69 720.501 194.887 720.796C195.088 721.091 195.244 721.442 195.355 721.848C195.469 722.25 195.558 722.693 195.619 723.177V723.528C195.562 724 195.469 724.432 195.342 724.826C195.219 725.22 195.055 725.565 194.85 725.86C194.645 726.151 194.391 726.377 194.087 726.537C193.783 726.697 193.427 726.777 193.016 726.777C192.606 726.777 192.237 726.693 191.909 726.524C191.581 726.356 191.3 726.12 191.066 725.817C190.836 725.513 190.66 725.156 190.537 724.746C190.414 724.336 190.352 723.889 190.352 723.405ZM191.977 723.276V723.405C191.977 723.692 192.005 723.961 192.063 724.211C192.12 724.461 192.208 724.683 192.327 724.875C192.446 725.064 192.596 725.212 192.776 725.318C192.957 725.425 193.172 725.478 193.423 725.478C193.759 725.478 194.034 725.409 194.247 725.269C194.464 725.126 194.628 724.931 194.739 724.685C194.854 724.434 194.928 724.153 194.961 723.842V722.876C194.94 722.63 194.895 722.402 194.825 722.193C194.76 721.984 194.667 721.803 194.548 721.651C194.43 721.499 194.278 721.381 194.093 721.294C193.909 721.208 193.689 721.165 193.435 721.165C193.189 721.165 192.973 721.221 192.789 721.331C192.604 721.438 192.452 721.588 192.333 721.78C192.214 721.973 192.124 722.197 192.063 722.451C192.005 722.705 191.977 722.98 191.977 723.276ZM199.385 721.417V726.654H197.76V719.996H199.286L199.385 721.417ZM199.126 723.085H198.646C198.65 722.601 198.716 722.162 198.843 721.768C198.97 721.374 199.149 721.036 199.379 720.753C199.612 720.47 199.889 720.252 200.209 720.101C200.529 719.949 200.886 719.873 201.28 719.873C201.6 719.873 201.889 719.918 202.147 720.008C202.406 720.099 202.627 720.242 202.812 720.439C203.001 720.636 203.144 720.894 203.243 721.214C203.345 721.53 203.396 721.92 203.396 722.383V726.654H201.76V722.371C201.76 722.068 201.715 721.828 201.624 721.651C201.538 721.475 201.411 721.35 201.243 721.276C201.079 721.202 200.876 721.165 200.634 721.165C200.384 721.165 200.164 721.216 199.975 721.319C199.791 721.417 199.635 721.555 199.508 721.731C199.385 721.908 199.29 722.111 199.225 722.34C199.159 722.57 199.126 722.818 199.126 723.085ZM213.075 717.695H214.767V723.645C214.767 724.33 214.62 724.906 214.324 725.374C214.029 725.837 213.627 726.188 213.118 726.426C212.61 726.66 212.031 726.777 211.383 726.777C210.727 726.777 210.142 726.66 209.629 726.426C209.117 726.188 208.715 725.837 208.423 725.374C208.132 724.906 207.987 724.33 207.987 723.645V717.695H209.679V723.645C209.679 724.063 209.748 724.406 209.888 724.672C210.027 724.935 210.224 725.13 210.479 725.257C210.733 725.384 211.034 725.448 211.383 725.448C211.736 725.448 212.037 725.384 212.288 725.257C212.542 725.13 212.737 724.935 212.872 724.672C213.007 724.406 213.075 724.063 213.075 723.645V717.695ZM217.874 721.276V729.213H216.244V719.996H217.751L217.874 721.276ZM222.151 723.257V723.386C222.151 723.87 222.093 724.32 221.979 724.734C221.868 725.144 221.704 725.503 221.486 725.811C221.269 726.114 220.998 726.352 220.674 726.524C220.354 726.693 219.985 726.777 219.567 726.777C219.156 726.777 218.799 726.699 218.496 726.543C218.192 726.383 217.936 726.157 217.727 725.866C217.518 725.575 217.349 725.236 217.222 724.851C217.099 724.461 217.007 724.037 216.945 723.577V723.165C217.007 722.677 217.099 722.234 217.222 721.836C217.349 721.434 217.518 721.087 217.727 720.796C217.936 720.501 218.19 720.273 218.49 720.113C218.793 719.953 219.148 719.873 219.554 719.873C219.977 719.873 220.348 719.953 220.668 720.113C220.992 720.273 221.265 720.503 221.486 720.802C221.708 721.102 221.874 721.458 221.985 721.873C222.095 722.287 222.151 722.749 222.151 723.257ZM220.52 723.386V723.257C220.52 722.962 220.494 722.689 220.44 722.439C220.387 722.185 220.305 721.963 220.194 721.774C220.083 721.582 219.94 721.432 219.763 721.325C219.587 721.218 219.374 721.165 219.124 721.165C218.873 721.165 218.658 721.206 218.477 721.288C218.297 721.37 218.149 721.487 218.034 721.639C217.92 721.791 217.829 721.971 217.764 722.18C217.702 722.386 217.661 722.613 217.641 722.863V723.885C217.678 724.188 217.749 724.461 217.856 724.703C217.963 724.945 218.119 725.138 218.324 725.282C218.533 725.425 218.804 725.497 219.136 725.497C219.386 725.497 219.599 725.441 219.776 725.331C219.952 725.22 220.096 725.068 220.206 724.875C220.317 724.679 220.397 724.453 220.446 724.199C220.496 723.944 220.52 723.674 220.52 723.386Z" fill="black"/>
<path d="M67.4727 584L61.6257 566.358H65.0281L70.245 582.311H68.5564L73.975 566.358H76.9993L82.2667 582.311H80.6285L85.9714 566.358H89.0966L83.2496 584H79.7716L74.9579 569.609H75.8652L70.9759 584H67.4727ZM91.5863 584V570.542H94.7366V584H91.5863ZM93.1741 568.324C92.586 568.324 92.0988 568.139 91.7123 567.77C91.3427 567.4 91.1579 566.955 91.1579 566.434C91.1579 565.896 91.3427 565.451 91.7123 565.098C92.0988 564.728 92.586 564.544 93.1741 564.544C93.7621 564.544 94.241 564.72 94.6106 565.073C94.9971 565.409 95.1903 565.837 95.1903 566.358C95.1903 566.913 95.0055 567.383 94.6358 567.77C94.2662 568.139 93.7789 568.324 93.1741 568.324ZM103.937 584.176C102.459 584.176 101.316 583.798 100.51 583.042C99.7031 582.269 99.2999 581.135 99.2999 579.64V567.568H102.45V579.564C102.45 580.203 102.61 580.698 102.929 581.051C103.265 581.404 103.727 581.581 104.315 581.581C105.021 581.581 105.609 581.396 106.079 581.026L106.961 583.269C106.592 583.572 106.138 583.798 105.601 583.95C105.063 584.101 104.508 584.176 103.937 584.176ZM97.0821 573.062V570.542H106.054V573.062H97.0821ZM109.553 584V565.3H112.703V574.171L112.023 573.062C112.493 572.205 113.174 571.55 114.064 571.096C114.972 570.626 116.013 570.391 117.189 570.391C118.265 570.391 119.222 570.601 120.063 571.021C120.919 571.441 121.591 572.088 122.079 572.961C122.566 573.818 122.81 574.927 122.81 576.288V584H119.659V576.691C119.659 575.498 119.374 574.608 118.802 574.02C118.248 573.432 117.467 573.138 116.459 573.138C115.719 573.138 115.064 573.289 114.493 573.591C113.921 573.894 113.476 574.347 113.157 574.952C112.855 575.54 112.703 576.288 112.703 577.195V584H109.553ZM132.526 584.176C131.233 584.176 130.065 583.891 129.023 583.32C127.998 582.731 127.192 581.925 126.604 580.9C126.016 579.875 125.722 578.665 125.722 577.271C125.722 575.876 126.016 574.667 126.604 573.642C127.192 572.617 127.998 571.819 129.023 571.247C130.065 570.676 131.233 570.391 132.526 570.391C133.652 570.391 134.66 570.643 135.551 571.147C136.441 571.634 137.147 572.382 137.668 573.39C138.189 574.398 138.449 575.692 138.449 577.271C138.449 578.833 138.197 580.127 137.693 581.152C137.189 582.16 136.492 582.916 135.601 583.42C134.711 583.924 133.686 584.176 132.526 584.176ZM132.904 581.48C133.661 581.48 134.333 581.312 134.921 580.976C135.525 580.64 136.004 580.152 136.357 579.514C136.727 578.875 136.912 578.128 136.912 577.271C136.912 576.397 136.727 575.65 136.357 575.028C136.004 574.389 135.525 573.902 134.921 573.566C134.333 573.23 133.661 573.062 132.904 573.062C132.148 573.062 131.468 573.23 130.863 573.566C130.275 573.902 129.796 574.389 129.426 575.028C129.074 575.65 128.897 576.397 128.897 577.271C128.897 578.128 129.074 578.875 129.426 579.514C129.796 580.152 130.275 580.64 130.863 580.976C131.468 581.312 132.148 581.48 132.904 581.48ZM136.987 584V580.824L137.113 577.246L136.861 573.667V565.3H139.986V584H136.987ZM144.133 584V570.542H147.132V574.247L146.779 573.163C147.182 572.256 147.812 571.567 148.669 571.096C149.543 570.626 150.627 570.391 151.92 570.391V573.39C151.786 573.356 151.66 573.339 151.542 573.339C151.425 573.322 151.307 573.314 151.19 573.314C149.997 573.314 149.047 573.667 148.342 574.373C147.636 575.061 147.283 576.095 147.283 577.473V584H144.133ZM161.925 584V581.278L161.748 580.698V575.935C161.748 575.011 161.471 574.297 160.917 573.793C160.362 573.272 159.522 573.012 158.396 573.012C157.64 573.012 156.893 573.129 156.153 573.364C155.431 573.6 154.818 573.927 154.313 574.347L153.079 572.054C153.801 571.499 154.658 571.088 155.649 570.819C156.657 570.533 157.699 570.391 158.774 570.391C160.723 570.391 162.227 570.861 163.286 571.802C164.361 572.726 164.899 574.163 164.899 576.112V584H161.925ZM157.691 584.176C156.683 584.176 155.8 584.008 155.044 583.672C154.288 583.32 153.7 582.841 153.28 582.236C152.877 581.614 152.675 580.917 152.675 580.144C152.675 579.388 152.852 578.707 153.205 578.103C153.574 577.498 154.171 577.019 154.994 576.666C155.817 576.313 156.909 576.137 158.27 576.137H162.177V578.229H158.497C157.422 578.229 156.699 578.405 156.33 578.758C155.96 579.094 155.775 579.514 155.775 580.018C155.775 580.589 156.002 581.043 156.456 581.379C156.909 581.715 157.539 581.883 158.346 581.883C159.119 581.883 159.808 581.707 160.412 581.354C161.034 581.001 161.479 580.48 161.748 579.791L162.277 581.681C161.975 582.471 161.429 583.084 160.639 583.521C159.866 583.958 158.884 584.176 157.691 584.176ZM171.669 584L166.73 570.542H169.704L173.938 582.412H172.526L176.962 570.542H179.608L183.918 582.412H182.532L186.892 570.542H189.689L184.724 584H181.7L177.768 573.491H178.701L174.694 584H171.669ZM198.82 584V565.3H201.971V584H198.82ZM206.106 584V570.542H209.256V584H206.106ZM207.693 568.324C207.105 568.324 206.618 568.139 206.232 567.77C205.862 567.4 205.677 566.955 205.677 566.434C205.677 565.896 205.862 565.451 206.232 565.098C206.618 564.728 207.105 564.544 207.693 564.544C208.281 564.544 208.76 564.72 209.13 565.073C209.516 565.409 209.71 565.837 209.71 566.358C209.71 566.913 209.525 567.383 209.155 567.77C208.786 568.139 208.298 568.324 207.693 568.324ZM215.961 581.001L216.037 577.044L223.069 570.542H226.849L220.876 576.54L219.213 577.926L215.961 581.001ZM213.391 584V565.3H216.541V584H213.391ZM223.547 584L218.633 577.926L220.624 575.406L227.378 584H223.547ZM235.173 584.176C233.678 584.176 232.367 583.882 231.241 583.294C230.132 582.689 229.267 581.866 228.645 580.824C228.041 579.783 227.738 578.598 227.738 577.271C227.738 575.927 228.032 574.742 228.62 573.717C229.225 572.676 230.048 571.861 231.09 571.273C232.149 570.685 233.35 570.391 234.694 570.391C236.005 570.391 237.172 570.676 238.197 571.247C239.222 571.819 240.029 572.625 240.617 573.667C241.205 574.709 241.499 575.935 241.499 577.347C241.499 577.481 241.49 577.632 241.474 577.8C241.474 577.968 241.465 578.128 241.448 578.279H230.233V576.187H239.785L238.55 576.842C238.567 576.07 238.407 575.389 238.071 574.801C237.735 574.213 237.273 573.751 236.685 573.415C236.114 573.079 235.45 572.911 234.694 572.911C233.921 572.911 233.241 573.079 232.653 573.415C232.081 573.751 231.628 574.221 231.292 574.826C230.972 575.414 230.813 576.112 230.813 576.918V577.422C230.813 578.229 230.998 578.943 231.367 579.564C231.737 580.186 232.258 580.665 232.93 581.001C233.602 581.337 234.375 581.505 235.249 581.505C236.005 581.505 236.685 581.387 237.29 581.152C237.895 580.917 238.432 580.547 238.903 580.043L240.591 581.984C239.987 582.689 239.222 583.236 238.298 583.622C237.391 583.992 236.349 584.176 235.173 584.176ZM259.782 584V581.278L259.605 580.698V575.935C259.605 575.011 259.328 574.297 258.774 573.793C258.219 573.272 257.379 573.012 256.253 573.012C255.497 573.012 254.75 573.129 254.01 573.364C253.288 573.6 252.675 573.927 252.171 574.347L250.936 572.054C251.658 571.499 252.515 571.088 253.506 570.819C254.514 570.533 255.556 570.391 256.631 570.391C258.58 570.391 260.084 570.861 261.143 571.802C262.218 572.726 262.756 574.163 262.756 576.112V584H259.782ZM255.548 584.176C254.54 584.176 253.657 584.008 252.901 583.672C252.145 583.32 251.557 582.841 251.137 582.236C250.734 581.614 250.532 580.917 250.532 580.144C250.532 579.388 250.709 578.707 251.062 578.103C251.431 577.498 252.028 577.019 252.851 576.666C253.674 576.313 254.766 576.137 256.127 576.137H260.034V578.229H256.354C255.279 578.229 254.556 578.405 254.187 578.758C253.817 579.094 253.632 579.514 253.632 580.018C253.632 580.589 253.859 581.043 254.313 581.379C254.766 581.715 255.396 581.883 256.203 581.883C256.976 581.883 257.665 581.707 258.27 581.354C258.891 581.001 259.336 580.48 259.605 579.791L260.135 581.681C259.832 582.471 259.286 583.084 258.496 583.521C257.723 583.958 256.741 584.176 255.548 584.176ZM274.066 584V566.358H282.333C284.45 566.358 286.063 566.778 287.172 567.618C288.281 568.442 288.835 569.55 288.835 570.945C288.835 571.886 288.617 572.692 288.18 573.364C287.743 574.02 287.155 574.532 286.416 574.902C285.693 575.255 284.903 575.431 284.047 575.431L284.5 574.524C285.491 574.524 286.382 574.709 287.172 575.078C287.961 575.431 288.583 575.952 289.037 576.641C289.507 577.33 289.742 578.187 289.742 579.212C289.742 580.724 289.163 581.9 288.003 582.74C286.844 583.58 285.122 584 282.837 584H274.066ZM277.343 581.429H282.635C283.862 581.429 284.803 581.228 285.458 580.824C286.113 580.421 286.441 579.774 286.441 578.884C286.441 578.01 286.113 577.372 285.458 576.968C284.803 576.548 283.862 576.338 282.635 576.338H277.091V573.793H281.98C283.122 573.793 283.996 573.591 284.601 573.188C285.223 572.785 285.533 572.18 285.533 571.373C285.533 570.55 285.223 569.937 284.601 569.534C283.996 569.13 283.122 568.929 281.98 568.929H277.343V581.429ZM298.985 584.176C297.607 584.176 296.381 583.882 295.306 583.294C294.23 582.689 293.382 581.866 292.76 580.824C292.138 579.783 291.828 578.598 291.828 577.271C291.828 575.927 292.138 574.742 292.76 573.717C293.382 572.676 294.23 571.861 295.306 571.273C296.381 570.685 297.607 570.391 298.985 570.391C300.38 570.391 301.615 570.685 302.69 571.273C303.782 571.861 304.631 572.667 305.235 573.692C305.857 574.717 306.168 575.91 306.168 577.271C306.168 578.598 305.857 579.783 305.235 580.824C304.631 581.866 303.782 582.689 302.69 583.294C301.615 583.882 300.38 584.176 298.985 584.176ZM298.985 581.48C299.758 581.48 300.447 581.312 301.052 580.976C301.657 580.64 302.127 580.152 302.463 579.514C302.816 578.875 302.992 578.128 302.992 577.271C302.992 576.397 302.816 575.65 302.463 575.028C302.127 574.389 301.657 573.902 301.052 573.566C300.447 573.23 299.766 573.062 299.01 573.062C298.237 573.062 297.549 573.23 296.944 573.566C296.356 573.902 295.885 574.389 295.532 575.028C295.18 575.65 295.003 576.397 295.003 577.271C295.003 578.128 295.18 578.875 295.532 579.514C295.885 580.152 296.356 580.64 296.944 580.976C297.549 581.312 298.229 581.48 298.985 581.48ZM313.339 584.176C312.213 584.176 311.129 584.034 310.088 583.748C309.063 583.446 308.248 583.084 307.643 582.664L308.853 580.27C309.458 580.656 310.18 580.976 311.02 581.228C311.86 581.48 312.7 581.606 313.54 581.606C314.532 581.606 315.246 581.471 315.683 581.203C316.136 580.934 316.363 580.572 316.363 580.119C316.363 579.749 316.212 579.472 315.909 579.287C315.607 579.085 315.212 578.934 314.725 578.833C314.238 578.733 313.692 578.64 313.087 578.556C312.499 578.472 311.902 578.363 311.297 578.229C310.709 578.077 310.172 577.867 309.684 577.599C309.197 577.313 308.802 576.935 308.5 576.464C308.197 575.994 308.046 575.372 308.046 574.599C308.046 573.743 308.29 573.003 308.777 572.382C309.264 571.743 309.945 571.256 310.819 570.92C311.709 570.567 312.759 570.391 313.969 570.391C314.876 570.391 315.792 570.491 316.716 570.693C317.64 570.895 318.405 571.18 319.009 571.55L317.8 573.944C317.161 573.558 316.514 573.297 315.859 573.163C315.221 573.012 314.582 572.936 313.944 572.936C312.986 572.936 312.272 573.079 311.801 573.364C311.348 573.65 311.121 574.011 311.121 574.448C311.121 574.851 311.272 575.154 311.575 575.356C311.877 575.557 312.272 575.717 312.759 575.834C313.246 575.952 313.784 576.053 314.372 576.137C314.977 576.204 315.573 576.313 316.162 576.464C316.75 576.616 317.287 576.826 317.774 577.094C318.279 577.347 318.682 577.708 318.984 578.178C319.287 578.649 319.438 579.262 319.438 580.018C319.438 580.858 319.186 581.589 318.682 582.211C318.195 582.832 317.497 583.32 316.59 583.672C315.683 584.008 314.599 584.176 313.339 584.176ZM326.309 584.176C325.184 584.176 324.1 584.034 323.058 583.748C322.033 583.446 321.218 583.084 320.614 582.664L321.823 580.27C322.428 580.656 323.151 580.976 323.991 581.228C324.831 581.48 325.671 581.606 326.511 581.606C327.502 581.606 328.216 581.471 328.653 581.203C329.107 580.934 329.334 580.572 329.334 580.119C329.334 579.749 329.182 579.472 328.88 579.287C328.578 579.085 328.183 578.934 327.695 578.833C327.208 578.733 326.662 578.64 326.057 578.556C325.469 578.472 324.873 578.363 324.268 578.229C323.68 578.077 323.142 577.867 322.655 577.599C322.168 577.313 321.773 576.935 321.47 576.464C321.168 575.994 321.017 575.372 321.017 574.599C321.017 573.743 321.26 573.003 321.748 572.382C322.235 571.743 322.915 571.256 323.789 570.92C324.68 570.567 325.73 570.391 326.939 570.391C327.847 570.391 328.762 570.491 329.686 570.693C330.611 570.895 331.375 571.18 331.98 571.55L330.77 573.944C330.132 573.558 329.485 573.297 328.83 573.163C328.191 573.012 327.553 572.936 326.914 572.936C325.957 572.936 325.242 573.079 324.772 573.364C324.318 573.65 324.092 574.011 324.092 574.448C324.092 574.851 324.243 575.154 324.545 575.356C324.848 575.557 325.242 575.717 325.73 575.834C326.217 575.952 326.755 576.053 327.343 576.137C327.948 576.204 328.544 576.313 329.132 576.464C329.72 576.616 330.258 576.826 330.745 577.094C331.249 577.347 331.652 577.708 331.955 578.178C332.257 578.649 332.408 579.262 332.408 580.018C332.408 580.858 332.156 581.589 331.652 582.211C331.165 582.832 330.468 583.32 329.56 583.672C328.653 584.008 327.569 584.176 326.309 584.176Z" fill="#0B0A0A"/>
<path d="M125.25 607.033H123.287L123.275 606.172H125.029C125.324 606.172 125.578 606.133 125.792 606.055C126.005 605.973 126.169 605.856 126.284 605.704C126.399 605.549 126.456 605.36 126.456 605.138C126.456 604.892 126.399 604.691 126.284 604.535C126.169 604.375 125.999 604.258 125.773 604.185C125.552 604.111 125.277 604.074 124.949 604.074H123.589V610.301H122.45V603.132H124.949C125.355 603.132 125.72 603.171 126.044 603.249C126.368 603.327 126.645 603.446 126.874 603.606C127.108 603.766 127.287 603.969 127.41 604.215C127.533 604.461 127.594 604.753 127.594 605.089C127.594 605.38 127.516 605.647 127.361 605.889C127.205 606.127 126.981 606.322 126.69 606.474C126.399 606.621 126.046 606.709 125.632 606.738L125.25 607.033ZM125.195 610.301H122.881L123.466 609.365H125.195C125.511 609.365 125.775 609.32 125.988 609.23C126.206 609.14 126.37 609.011 126.481 608.842C126.596 608.674 126.653 608.473 126.653 608.239C126.653 607.997 126.604 607.786 126.505 607.606C126.411 607.425 126.259 607.286 126.05 607.187C125.845 607.085 125.578 607.033 125.25 607.033H123.78L123.786 606.172H125.761L126.007 606.498C126.401 606.51 126.729 606.601 126.991 606.769C127.258 606.933 127.459 607.146 127.594 607.409C127.73 607.667 127.797 607.946 127.797 608.246C127.797 608.586 127.736 608.885 127.613 609.144C127.494 609.398 127.32 609.612 127.09 609.784C126.864 609.956 126.591 610.085 126.271 610.171C125.952 610.258 125.593 610.301 125.195 610.301ZM133.624 603.132H134.769V607.932C134.769 608.473 134.64 608.929 134.381 609.298C134.127 609.663 133.784 609.938 133.354 610.122C132.927 610.307 132.455 610.399 131.938 610.399C131.401 610.399 130.919 610.307 130.492 610.122C130.07 609.938 129.736 609.663 129.489 609.298C129.243 608.929 129.12 608.473 129.12 607.932V603.132H130.246V607.932C130.246 608.285 130.316 608.576 130.455 608.805C130.599 609.031 130.798 609.199 131.052 609.31C131.307 609.417 131.602 609.47 131.938 609.47C132.279 609.47 132.574 609.417 132.824 609.31C133.079 609.199 133.276 609.031 133.415 608.805C133.555 608.576 133.624 608.285 133.624 607.932V603.132ZM138.411 607.316L140.669 603.132H141.949L139.273 607.858H138.577L138.411 607.316ZM136.842 603.132L139.113 607.347L138.928 607.858H138.245L135.562 603.132H136.842ZM139.303 606.96V610.301H138.171V606.96H139.303ZM148.108 607.316L150.367 603.132H151.646L148.97 607.858H148.275L148.108 607.316ZM146.539 603.132L148.81 607.347L148.625 607.858H147.942L145.26 603.132H146.539ZM149.001 606.96V610.301H147.868V606.96H149.001ZM158.605 606.517V606.923C158.605 607.464 158.532 607.95 158.384 608.381C158.236 608.808 158.025 609.173 157.75 609.476C157.475 609.776 157.145 610.005 156.759 610.165C156.378 610.321 155.951 610.399 155.48 610.399C155.016 610.399 154.592 610.321 154.206 610.165C153.825 610.005 153.492 609.776 153.209 609.476C152.93 609.173 152.715 608.808 152.563 608.381C152.411 607.95 152.335 607.464 152.335 606.923V606.517C152.335 605.975 152.411 605.491 152.563 605.064C152.715 604.634 152.928 604.267 153.203 603.963C153.482 603.66 153.812 603.43 154.194 603.274C154.579 603.114 155.004 603.034 155.467 603.034C155.943 603.034 156.372 603.114 156.753 603.274C157.139 603.43 157.469 603.66 157.744 603.963C158.023 604.267 158.236 604.634 158.384 605.064C158.532 605.491 158.605 605.975 158.605 606.517ZM157.479 606.923V606.504C157.479 606.098 157.434 605.739 157.344 605.427C157.254 605.116 157.123 604.853 156.95 604.64C156.778 604.427 156.567 604.265 156.316 604.154C156.066 604.043 155.783 603.988 155.467 603.988C155.164 603.988 154.889 604.043 154.643 604.154C154.397 604.265 154.185 604.427 154.009 604.64C153.837 604.853 153.704 605.116 153.609 605.427C153.515 605.739 153.468 606.098 153.468 606.504V606.923C153.468 607.329 153.515 607.69 153.609 608.006C153.704 608.317 153.839 608.582 154.015 608.799C154.192 609.013 154.403 609.175 154.649 609.285C154.899 609.396 155.176 609.452 155.48 609.452C155.8 609.452 156.083 609.396 156.329 609.285C156.575 609.175 156.784 609.013 156.956 608.799C157.129 608.582 157.258 608.317 157.344 608.006C157.434 607.69 157.479 607.329 157.479 606.923ZM164.426 603.132H165.571V607.932C165.571 608.473 165.441 608.929 165.183 609.298C164.929 609.663 164.586 609.938 164.155 610.122C163.729 610.307 163.257 610.399 162.74 610.399C162.203 610.399 161.721 610.307 161.294 610.122C160.872 609.938 160.537 609.663 160.291 609.298C160.045 608.929 159.922 608.473 159.922 607.932V603.132H161.048V607.932C161.048 608.285 161.118 608.576 161.257 608.805C161.401 609.031 161.6 609.199 161.854 609.31C162.108 609.417 162.404 609.47 162.74 609.47C163.081 609.47 163.376 609.417 163.626 609.31C163.881 609.199 164.077 609.031 164.217 608.805C164.356 608.576 164.426 608.285 164.426 607.932V603.132ZM167.127 603.132H169.748C170.183 603.132 170.571 603.182 170.911 603.28C171.252 603.374 171.539 603.514 171.773 603.699C172.007 603.883 172.183 604.111 172.302 604.381C172.425 604.652 172.487 604.964 172.487 605.317C172.487 605.67 172.415 605.983 172.271 606.258C172.132 606.529 171.929 606.759 171.662 606.947C171.399 607.132 171.086 607.273 170.721 607.372L170.382 607.538H167.958L167.946 606.603H169.779C170.128 606.603 170.417 606.549 170.647 606.443C170.876 606.332 171.049 606.184 171.164 606C171.283 605.811 171.342 605.6 171.342 605.366C171.342 605.108 171.287 604.882 171.176 604.689C171.065 604.496 170.891 604.347 170.653 604.24C170.419 604.129 170.118 604.074 169.748 604.074H168.272V610.301H167.127V603.132ZM171.588 610.301L169.742 607.107L170.942 607.101L172.813 610.239V610.301H171.588ZM182.793 606.658V609.378C182.69 609.509 182.53 609.655 182.313 609.815C182.1 609.975 181.806 610.112 181.433 610.227C181.064 610.342 180.592 610.399 180.018 610.399C179.542 610.399 179.105 610.323 178.707 610.171C178.313 610.016 177.971 609.792 177.68 609.501C177.392 609.205 177.169 608.847 177.009 608.424C176.853 607.997 176.775 607.513 176.775 606.972V606.455C176.775 605.918 176.845 605.438 176.984 605.015C177.124 604.593 177.327 604.234 177.593 603.938C177.864 603.643 178.192 603.42 178.578 603.268C178.968 603.112 179.409 603.034 179.901 603.034C180.508 603.034 181.013 603.132 181.414 603.329C181.821 603.522 182.134 603.789 182.356 604.129C182.582 604.47 182.725 604.859 182.787 605.298H181.661C181.615 605.048 181.527 604.822 181.396 604.621C181.265 604.42 181.078 604.263 180.836 604.148C180.598 604.029 180.291 603.969 179.913 603.969C179.577 603.969 179.284 604.025 179.033 604.135C178.783 604.246 178.574 604.408 178.406 604.621C178.242 604.835 178.119 605.095 178.037 605.403C177.959 605.706 177.92 606.053 177.92 606.443V606.972C177.92 607.37 177.969 607.725 178.067 608.036C178.166 608.344 178.307 608.604 178.492 608.818C178.681 609.031 178.904 609.193 179.163 609.304C179.425 609.415 179.718 609.47 180.042 609.47C180.551 609.47 180.922 609.417 181.156 609.31C181.39 609.199 181.556 609.099 181.654 609.009V607.544H179.925V606.658H182.793ZM185.592 603.132V610.301H184.454V603.132H185.592ZM188.527 603.132V610.301H187.389V603.132H188.527ZM191.727 606.289V607.224H188.257V606.289H191.727ZM192.213 603.132V604.074H188.257V603.132H192.213ZM196.342 603.132V610.301H195.209V603.132H196.342ZM198.797 603.132V604.074H192.767V603.132H198.797ZM207.645 607.981H208.789C208.74 608.445 208.598 608.859 208.365 609.224C208.135 609.589 207.809 609.876 207.386 610.085C206.968 610.295 206.449 610.399 205.83 610.399C205.366 610.399 204.948 610.321 204.574 610.165C204.201 610.005 203.881 609.78 203.614 609.488C203.348 609.193 203.143 608.838 202.999 608.424C202.856 608.01 202.784 607.546 202.784 607.033V606.406C202.784 605.893 202.856 605.43 202.999 605.015C203.143 604.601 203.35 604.246 203.621 603.951C203.891 603.655 204.217 603.43 204.599 603.274C204.985 603.114 205.415 603.034 205.891 603.034C206.49 603.034 206.994 603.139 207.405 603.348C207.815 603.553 208.135 603.84 208.365 604.209C208.598 604.578 208.74 605.003 208.789 605.483H207.645C207.604 605.167 207.52 604.896 207.392 604.671C207.265 604.445 207.081 604.273 206.839 604.154C206.597 604.031 206.281 603.969 205.891 603.969C205.567 603.969 205.282 604.025 205.036 604.135C204.79 604.242 204.583 604.402 204.414 604.615C204.25 604.825 204.125 605.079 204.039 605.378C203.957 605.678 203.916 606.018 203.916 606.4V607.033C203.916 607.394 203.953 607.725 204.027 608.024C204.105 608.319 204.222 608.576 204.377 608.793C204.533 609.011 204.732 609.179 204.974 609.298C205.216 609.413 205.501 609.47 205.83 609.47C206.24 609.47 206.568 609.413 206.814 609.298C207.06 609.183 207.247 609.015 207.374 608.793C207.505 608.568 207.595 608.297 207.645 607.981ZM212.979 604.135L210.537 610.301H209.374L212.321 603.132H213.065L212.979 604.135ZM215.09 610.301L212.666 604.111L212.586 603.132H213.336L216.247 610.301H215.09ZM214.924 607.649V608.584H210.666V607.649H214.924ZM217.225 603.132H219.846C220.281 603.132 220.668 603.182 221.009 603.28C221.349 603.374 221.637 603.514 221.87 603.699C222.104 603.883 222.281 604.111 222.4 604.381C222.523 604.652 222.584 604.964 222.584 605.317C222.584 605.67 222.512 605.983 222.369 606.258C222.229 606.529 222.026 606.759 221.76 606.947C221.497 607.132 221.183 607.273 220.818 607.372L220.48 607.538H218.056L218.043 606.603H219.877C220.225 606.603 220.515 606.549 220.744 606.443C220.974 606.332 221.146 606.184 221.261 606C221.38 605.811 221.44 605.6 221.44 605.366C221.44 605.108 221.384 604.882 221.274 604.689C221.163 604.496 220.988 604.347 220.751 604.24C220.517 604.129 220.215 604.074 219.846 604.074H218.369V610.301H217.225V603.132ZM221.686 610.301L219.84 607.107L221.04 607.101L222.91 610.239V610.301H221.686ZM226.128 610.301H224.504L224.51 609.365H226.128C226.657 609.365 227.096 609.267 227.445 609.07C227.798 608.873 228.06 608.592 228.233 608.227C228.405 607.858 228.491 607.421 228.491 606.917V606.51C228.491 606.121 228.442 605.774 228.343 605.471C228.245 605.167 228.099 604.913 227.906 604.708C227.714 604.498 227.474 604.34 227.187 604.234C226.904 604.127 226.575 604.074 226.202 604.074H224.467V603.132H226.202C226.711 603.132 227.174 603.212 227.593 603.372C228.015 603.528 228.378 603.756 228.682 604.055C228.985 604.351 229.219 604.708 229.383 605.126C229.547 605.54 229.629 606.006 229.629 606.523V606.917C229.629 607.602 229.484 608.198 229.192 608.707C228.905 609.216 228.499 609.609 227.974 609.888C227.453 610.163 226.838 610.301 226.128 610.301ZM225.125 603.132V610.301H223.987V603.132H225.125ZM240.206 606.517V606.923C240.206 607.464 240.132 607.95 239.985 608.381C239.837 608.808 239.626 609.173 239.351 609.476C239.076 609.776 238.746 610.005 238.36 610.165C237.979 610.321 237.552 610.399 237.081 610.399C236.617 610.399 236.192 610.321 235.807 610.165C235.425 610.005 235.093 609.776 234.81 609.476C234.531 609.173 234.316 608.808 234.164 608.381C234.012 607.95 233.936 607.464 233.936 606.923V606.517C233.936 605.975 234.012 605.491 234.164 605.064C234.316 604.634 234.529 604.267 234.804 603.963C235.083 603.66 235.413 603.43 235.795 603.274C236.18 603.114 236.605 603.034 237.068 603.034C237.544 603.034 237.973 603.114 238.354 603.274C238.74 603.43 239.07 603.66 239.345 603.963C239.624 604.267 239.837 604.634 239.985 605.064C240.132 605.491 240.206 605.975 240.206 606.517ZM239.08 606.923V606.504C239.08 606.098 239.035 605.739 238.945 605.427C238.855 605.116 238.723 604.853 238.551 604.64C238.379 604.427 238.168 604.265 237.917 604.154C237.667 604.043 237.384 603.988 237.068 603.988C236.765 603.988 236.49 604.043 236.244 604.154C235.998 604.265 235.786 604.427 235.61 604.64C235.438 604.853 235.304 605.116 235.21 605.427C235.116 605.739 235.069 606.098 235.069 606.504V606.923C235.069 607.329 235.116 607.69 235.21 608.006C235.304 608.317 235.44 608.582 235.616 608.799C235.793 609.013 236.004 609.175 236.25 609.285C236.5 609.396 236.777 609.452 237.081 609.452C237.4 609.452 237.684 609.396 237.93 609.285C238.176 609.175 238.385 609.013 238.557 608.799C238.73 608.582 238.859 608.317 238.945 608.006C239.035 607.69 239.08 607.329 239.08 606.923ZM247.651 603.132V610.301H246.513L242.797 604.911V610.301H241.658V603.132H242.797L246.513 608.522V603.132H247.651ZM255.361 604.135L252.918 610.301H251.755L254.703 603.132H255.447L255.361 604.135ZM257.472 610.301L255.047 604.111L254.967 603.132H255.718L258.628 610.301H257.472ZM257.305 607.649V608.584H253.048V607.649H257.305ZM264.867 609.365V610.301H259.588V609.365H264.867ZM264.714 603.871L259.939 610.301H259.201V609.538L263.988 603.132H264.714V603.871ZM264.264 603.132V604.068H259.256V603.132H264.264ZM269.008 604.135L266.566 610.301H265.403L268.35 603.132H269.095L269.008 604.135ZM271.119 610.301L268.695 604.111L268.615 603.132H269.365L272.276 610.301H271.119ZM270.953 607.649V608.584H266.695V607.649H270.953Z" fill="#616263"/>
<rect x="174.293" y="517.113" width="9.96224" height="9.96224" rx="2.36275" fill="#D0D3D8" stroke="#0B0A0A" stroke-width="1.57516"/>
<rect x="191.855" y="517.9" width="8.38707" height="8.38707" rx="1.57516" fill="#D0D3D8"/>
<rect x="208.629" y="517.9" width="8.38707" height="8.38707" rx="1.57516" fill="#D0D3D8"/>
<rect opacity="0.35" x="363.283" y="14.046" width="16.5392" height="8.13835" rx="1.70643" stroke="#121208" stroke-opacity="0.6" stroke-width="0.787582"/>
<path opacity="0.4" d="M381.004 16.5406V19.691C381.638 19.4241 382.05 18.8035 382.05 18.1158C382.05 17.4281 381.638 16.8074 381.004 16.5406Z" fill="#121208" fill-opacity="0.6"/>
<rect x="364.465" y="15.2279" width="14.1765" height="5.7756" rx="1.05011" fill="#0B0B0B"/>
<path fill-rule="evenodd" clip-rule="evenodd" d="M352.915 15.4474C354.667 15.4475 356.352 16.1202 357.622 17.3265C357.717 17.4196 357.87 17.4184 357.964 17.3238L358.879 16.4021C358.926 16.3541 358.953 16.2891 358.952 16.2215C358.952 16.1539 358.925 16.0892 358.876 16.0418C355.543 12.8504 350.285 12.8504 346.952 16.0418C346.904 16.0892 346.877 16.1538 346.876 16.2215C346.876 16.2891 346.902 16.3541 346.95 16.4021L347.864 17.3238C347.958 17.4185 348.111 17.4197 348.207 17.3265C349.477 16.1201 351.162 15.4474 352.915 15.4474ZM352.915 18.4461C353.877 18.446 354.806 18.8035 355.519 19.4492C355.616 19.5408 355.768 19.5388 355.862 19.4447L356.775 18.5229C356.823 18.4746 356.85 18.409 356.849 18.3409C356.848 18.2727 356.82 18.2077 356.771 18.1603C354.598 16.1406 351.233 16.1406 349.06 18.1603C349.011 18.2077 348.983 18.2727 348.982 18.3409C348.982 18.4091 349.008 18.4747 349.057 18.5229L349.969 19.4447C350.063 19.5388 350.215 19.5408 350.312 19.4492C351.025 18.8039 351.953 18.4464 352.915 18.4461ZM354.744 20.4638C354.745 20.5322 354.718 20.5981 354.669 20.646L353.09 22.2385C353.044 22.2853 352.98 22.3116 352.915 22.3116C352.849 22.3116 352.786 22.2853 352.739 22.2385L351.16 20.646C351.111 20.598 351.084 20.5321 351.086 20.4638C351.087 20.3954 351.117 20.3307 351.167 20.2849C352.176 19.4325 353.653 19.4325 354.662 20.2849C354.713 20.3308 354.742 20.3955 354.744 20.4638Z" fill="#0B0B0B"/>
<path fill-rule="evenodd" clip-rule="evenodd" d="M342.15 13.9128H341.363C340.928 13.9128 340.575 14.2654 340.575 14.7003V21.5261C340.575 21.961 340.928 22.3136 341.363 22.3136H342.15C342.585 22.3136 342.938 21.961 342.938 21.5261V14.7003C342.938 14.2654 342.585 13.9128 342.15 13.9128ZM337.688 15.7504H338.475C338.91 15.7504 339.263 16.1031 339.263 16.538V21.526C339.263 21.961 338.91 22.3136 338.475 22.3136H337.688C337.253 22.3136 336.9 21.961 336.9 21.526V16.538C336.9 16.1031 337.253 15.7504 337.688 15.7504ZM334.799 17.589H334.011C333.576 17.589 333.224 17.9416 333.224 18.3766V21.5269C333.224 21.9619 333.576 22.3145 334.011 22.3145H334.799C335.234 22.3145 335.586 21.9619 335.586 21.5269V18.3766C335.586 17.9416 335.234 17.589 334.799 17.589ZM331.124 19.1638H330.336C329.901 19.1638 329.549 19.5164 329.549 19.9514V21.5265C329.549 21.9615 329.901 22.3141 330.336 22.3141H331.124C331.559 22.3141 331.912 21.9615 331.912 21.5265V19.9514C331.912 19.5164 331.559 19.1638 331.124 19.1638Z" fill="#0B0B0B"/>
<path d="M30.842 15.0518C31.3529 15.0518 31.8141 15.1749 32.2258 15.4212C32.6374 15.6638 32.9645 15.9982 33.2071 16.4246C33.4497 16.8509 33.571 17.3379 33.571 17.8855V20.4105C33.571 20.9912 33.4497 21.5003 33.2071 21.9376C32.9682 22.3713 32.6337 22.7095 32.2037 22.952C31.7774 23.1946 31.2849 23.3159 30.7262 23.3159C30.3072 23.3159 29.914 23.2369 29.5464 23.0788C29.1789 22.9208 28.8591 22.6856 28.5871 22.3732L29.4362 21.5848C29.5868 21.7796 29.7761 21.9358 30.004 22.0534C30.2319 22.171 30.4726 22.2298 30.7262 22.2298C31.0533 22.2298 31.3418 22.1508 31.5918 21.9928C31.8454 21.8347 32.042 21.6289 32.1817 21.3753C32.3213 21.1217 32.3912 20.8497 32.3912 20.5594V19.1039L32.6227 19.3575C32.3948 19.6552 32.1118 19.8904 31.7737 20.0632C31.4356 20.2359 31.0735 20.3223 30.6876 20.3223C30.1914 20.3223 29.7504 20.2084 29.3645 19.9805C28.9786 19.7526 28.6735 19.4421 28.4493 19.0488C28.2251 18.6555 28.113 18.2108 28.113 17.7146C28.113 17.2184 28.238 16.77 28.4879 16.3694C28.7378 15.9688 29.0686 15.6491 29.4803 15.4102C29.8919 15.1713 30.3458 15.0518 30.842 15.0518ZM30.842 16.1654C30.5553 16.1654 30.2925 16.2353 30.0536 16.3749C29.8184 16.5109 29.631 16.6965 29.4913 16.9318C29.3516 17.167 29.2818 17.4279 29.2818 17.7146C29.2818 18.0013 29.3516 18.2641 29.4913 18.503C29.631 18.7382 29.8184 18.9257 30.0536 19.0653C30.2888 19.205 30.5498 19.2748 30.8365 19.2748C31.1232 19.2748 31.3841 19.205 31.6193 19.0653C31.8546 18.9257 32.042 18.7382 32.1817 18.503C32.3213 18.2641 32.3912 18.0013 32.3912 17.7146C32.3912 17.4316 32.3213 17.1725 32.1817 16.9373C32.0457 16.7021 31.8601 16.5146 31.6248 16.3749C31.3896 16.2353 31.1287 16.1654 30.842 16.1654ZM35.3307 22.3787V21.1603H36.5491V22.3787H35.3307ZM35.3362 19.1866V17.9682H36.5546V19.1866H35.3362ZM41.65 23.1505V21.7667H38.0665V20.6751L40.6466 15.2117H41.9643L39.3842 20.6751H41.65V18.525H42.8188V20.6751H43.6072V21.7667H42.8188V23.1505H41.65ZM46.094 23.1505V16.4797L44.5999 17.3894V16.1048L46.094 15.2117H47.2683V23.1505H46.094Z" fill="#0B0B0B"/>
<rect x="150" y="51" width="87" height="19" fill="url(#pattern0_5_526)"/>
<rect x="38" y="92" width="334" height="334" fill="url(#pattern1_5_526)"/>
<rect x="166" y="156" width="66" height="19" fill="white"/>
<rect x="166" y="205" width="66" height="19" fill="white"/>
<path d="M171.347 162.7H172.958L170.681 169H169.088L166.64 164.482L164.201 169H162.599L160.214 162.7H161.825L163.499 167.11L165.884 162.7H167.405L169.772 167.083L171.347 162.7ZM175.362 169.009H173.85V162.709H175.362V169.009ZM183.886 162.709V164.221H180.718V169.009H179.206V164.221H176.317V162.709H183.886ZM191.532 162.709H193.044V169.009H191.532V166.624H186.348V169.009H184.836V162.709H186.348V165.112H191.532V162.709ZM197.087 162.646C199.58 162.646 201.533 164.041 201.533 165.823C201.533 167.605 199.58 169.009 197.087 169.009H194.495V162.646H197.087ZM197.087 167.488C198.815 167.488 200.021 166.615 200.021 165.823C200.021 165.031 198.815 164.158 197.087 164.158H196.007V167.488H197.087ZM210.878 169.009V169H208.736L207.197 167.542C207.116 167.542 207.044 167.551 206.963 167.551H204.137V169.009H202.625V162.709H206.963C208.826 162.709 210.284 163.771 210.284 165.13C210.284 165.958 209.744 166.678 208.889 167.11L210.878 169.009ZM204.137 164.167V166.093H206.963C207.998 166.093 208.772 165.58 208.772 165.13C208.772 164.671 207.998 164.167 206.963 164.167H204.137ZM216.562 162.664L220.63 169.009H218.83L217.921 167.578H213.889L212.971 169.009H211.18L215.239 162.664H216.562ZM214.861 166.066H216.949L215.905 164.437L214.861 166.066ZM231.156 162.7H232.767L230.49 169.009H228.897L226.458 164.482L224.01 169.009H222.408L220.023 162.7H221.634L223.308 167.119L225.693 162.7H227.214L229.581 167.083L231.156 162.7Z" fill="#263238"/>
<path d="M175.47 218V216.201H174.924V215.753H175.47V215.179H174.924V214.731H175.47V213.002H176.198L176.863 214.731H177.689V213.002H178.242V214.731H178.788V215.179H178.242V215.753H178.788V216.201H178.242V218H177.507L176.842 216.201H176.016V218H175.47ZM176.016 215.753H176.674L176.464 215.179H176.002L176.016 215.753ZM177.689 217.013H177.717L177.696 216.201H177.402L177.689 217.013ZM176.002 214.731H176.296L176.002 213.863H175.974L176.002 214.731ZM177.234 215.753H177.703L177.689 215.179H177.024L177.234 215.753ZM181.793 216.852H182.976V218.007H179.343V217.132L181.527 215.627C181.737 215.403 181.828 215.193 181.772 215.074C181.709 214.948 181.464 214.829 181.184 214.857C180.939 214.885 180.631 215.032 180.512 215.55L179.364 215.291C179.567 214.402 180.197 213.814 181.044 213.716C181.8 213.625 182.535 213.982 182.829 214.57C182.969 214.85 183.2 215.599 182.332 216.467L182.29 216.509L181.793 216.852ZM186.58 213.758C188.169 213.758 189.408 214.703 189.408 215.907C189.408 217.111 188.169 218.056 186.58 218.056C184.998 218.056 183.759 217.111 183.759 215.907C183.759 214.703 184.998 213.758 186.58 213.758ZM186.58 216.88C187.553 216.88 188.232 216.369 188.232 215.907C188.232 215.445 187.553 214.934 186.58 214.934C185.607 214.934 184.935 215.445 184.935 215.907C184.935 216.369 185.607 216.88 186.58 216.88ZM193.176 213.758C194.765 213.758 196.004 214.703 196.004 215.907C196.004 217.111 194.765 218.056 193.176 218.056C191.594 218.056 190.355 217.111 190.355 215.907C190.355 214.703 191.594 213.758 193.176 213.758ZM193.176 216.88C194.149 216.88 194.828 216.369 194.828 215.907C194.828 215.445 194.149 214.934 193.176 214.934C192.203 214.934 191.531 215.445 191.531 215.907C191.531 216.369 192.203 216.88 193.176 216.88ZM197.827 217.265C197.785 217.428 197.731 217.606 197.666 217.797C197.601 217.988 197.528 218.177 197.449 218.364C197.374 218.555 197.3 218.735 197.225 218.903H196.77C196.817 218.726 196.861 218.534 196.903 218.329C196.95 218.128 196.992 217.93 197.029 217.734C197.066 217.533 197.097 217.351 197.12 217.188H197.778L197.827 217.265ZM201.646 213.758C203.235 213.758 204.474 214.703 204.474 215.907C204.474 217.111 203.235 218.056 201.646 218.056C200.064 218.056 198.825 217.111 198.825 215.907C198.825 214.703 200.064 213.758 201.646 213.758ZM201.646 216.88C202.619 216.88 203.298 216.369 203.298 215.907C203.298 215.445 202.619 214.934 201.646 214.934C200.673 214.934 200.001 215.445 200.001 215.907C200.001 216.369 200.673 216.88 201.646 216.88ZM208.243 213.758C209.832 213.758 211.071 214.703 211.071 215.907C211.071 217.111 209.832 218.056 208.243 218.056C206.661 218.056 205.422 217.111 205.422 215.907C205.422 214.703 206.661 213.758 208.243 213.758ZM208.243 216.88C209.216 216.88 209.895 216.369 209.895 215.907C209.895 215.445 209.216 214.934 208.243 214.934C207.27 214.934 206.598 215.445 206.598 215.907C206.598 216.369 207.27 216.88 208.243 216.88ZM214.839 213.758C216.428 213.758 217.667 214.703 217.667 215.907C217.667 217.111 216.428 218.056 214.839 218.056C213.257 218.056 212.018 217.111 212.018 215.907C212.018 214.703 213.257 213.758 214.839 213.758ZM214.839 216.88C215.812 216.88 216.491 216.369 216.491 215.907C216.491 215.445 215.812 214.934 214.839 214.934C213.866 214.934 213.194 215.445 213.194 215.907C213.194 216.369 213.866 216.88 214.839 216.88Z" fill="#263238"/>
</g>
<defs>


<clipPath id="clip0_5_526">
<rect width="393" height="852" rx="20" fill="white"/>
</clipPath>


</defs>
</svg>