<svg xmlns="http://www.w3.org/2000/svg" width="210" height="332" viewBox="0 0 210 332" fill="none">
<g clip-path="url(#clip0_1_329)">
<rect x="1.45122e-05" y="332" width="332" height="210" rx="12" transform="rotate(-90 1.45122e-05 332)" fill="url(#paint0_linear_1_329)"/>
<g clip-path="url(#clip1_1_329)">
<circle cx="50.5" cy="42" r="13.625" fill="#8282B0" stroke="#C1C1D7" stroke-width="0.75"/>
<circle cx="33" cy="42" r="13.625" fill="#28283E" stroke="#C1C1D7" stroke-width="0.75"/>
<g opacity="0.2">
<mask id="path-4-inside-1_1_329" fill="white">
<path fill-rule="evenodd" clip-rule="evenodd" d="M41.75 52.9294C44.9506 50.3637 47 46.4212 47 42C47 37.5788 44.9506 33.6363 41.75 31.0706C38.5494 33.6363 36.5 37.5788 36.5 42C36.5 46.4212 38.5494 50.3637 41.75 52.9294Z"/>
</mask>
<path fill-rule="evenodd" clip-rule="evenodd" d="M41.75 52.9294C44.9506 50.3637 47 46.4212 47 42C47 37.5788 44.9506 33.6363 41.75 31.0706C38.5494 33.6363 36.5 37.5788 36.5 42C36.5 46.4212 38.5494 50.3637 41.75 52.9294Z" fill="#8282B0"/>
<path d="M41.75 52.9294L41.1245 53.7096L41.75 54.211L42.3755 53.7096L41.75 52.9294ZM41.75 31.0706L42.3755 30.2903L41.75 29.7889L41.1245 30.2903L41.75 31.0706ZM46 42C46 46.1049 44.0986 49.7651 41.1245 52.1491L42.3755 53.7096C45.8027 50.9623 48 46.7374 48 42L46 42ZM41.1245 31.8508C44.0986 34.2349 46 37.8951 46 42L48 42C48 37.2626 45.8027 33.0377 42.3755 30.2903L41.1245 31.8508ZM37.5 42C37.5 37.8951 39.4014 34.2349 42.3755 31.8508L41.1245 30.2903C37.6974 33.0377 35.5 37.2626 35.5 42L37.5 42ZM42.3755 52.1491C39.4014 49.7651 37.5 46.1049 37.5 42L35.5 42C35.5 46.7374 37.6974 50.9623 41.1245 53.7096L42.3755 52.1491Z" fill="#C1C1D7" mask="url(#path-4-inside-1_1_329)"/>
</g>
<path d="M17.6424 67V62.0909H18.5597V62.8899H18.6204C18.7227 62.6193 18.8899 62.4084 19.1222 62.2571C19.3544 62.1037 19.6325 62.027 19.9563 62.027C20.2845 62.027 20.5593 62.1037 20.7809 62.2571C21.0046 62.4105 21.1698 62.6215 21.2763 62.8899H21.3274C21.4446 62.6278 21.6311 62.419 21.8867 62.2635C22.1424 62.1058 22.4471 62.027 22.8008 62.027C23.2461 62.027 23.6094 62.1666 23.8906 62.4457C24.174 62.7248 24.3157 63.1456 24.3157 63.7081V67H23.3601V63.7976C23.3601 63.4652 23.2695 63.2244 23.0884 63.0753C22.9073 62.9261 22.6911 62.8516 22.4396 62.8516C22.1286 62.8516 21.8867 62.9475 21.7141 63.1392C21.5416 63.3288 21.4553 63.5728 21.4553 63.8711V67H20.5029V63.7369C20.5029 63.4705 20.4198 63.2564 20.2536 63.0945C20.0874 62.9325 19.8711 62.8516 19.6048 62.8516C19.4237 62.8516 19.2564 62.8995 19.103 62.9954C18.9517 63.0891 18.8292 63.2202 18.7355 63.3885C18.6438 63.5568 18.598 63.7518 18.598 63.9734V67H17.6424ZM27.0251 67.1087C26.7141 67.1087 26.4328 67.0511 26.1814 66.9361C25.93 66.8189 25.7307 66.6495 25.5837 66.4279C25.4388 66.2063 25.3664 65.9347 25.3664 65.6129C25.3664 65.3359 25.4197 65.108 25.5262 64.929C25.6327 64.75 25.7766 64.6083 25.9577 64.5039C26.1388 64.3995 26.3412 64.3207 26.5649 64.2674C26.7886 64.2141 27.0166 64.1737 27.2489 64.146C27.5429 64.1119 27.7815 64.0842 27.9648 64.0629C28.148 64.0394 28.2812 64.0021 28.3643 63.951C28.4474 63.8999 28.4889 63.8168 28.4889 63.7017V63.6793C28.4889 63.4002 28.4101 63.184 28.2524 63.0305C28.0969 62.8771 27.8646 62.8004 27.5557 62.8004C27.2339 62.8004 26.9804 62.8718 26.795 63.0146C26.6118 63.1552 26.485 63.3118 26.4147 63.4844L25.5166 63.2798C25.6232 62.9815 25.7787 62.7408 25.9832 62.5575C26.1899 62.3722 26.4275 62.2379 26.6959 62.1548C26.9644 62.0696 27.2467 62.027 27.5429 62.027C27.7389 62.027 27.9467 62.0504 28.1661 62.0973C28.3877 62.1421 28.5944 62.2252 28.7861 62.3466C28.98 62.468 29.1388 62.6417 29.2624 62.8676C29.3859 63.0913 29.4477 63.3821 29.4477 63.7401V67H28.5145V66.3288H28.4761C28.4143 66.4524 28.3217 66.5739 28.1981 66.6932C28.0745 66.8125 27.9158 66.9116 27.7219 66.9904C27.528 67.0693 27.2957 67.1087 27.0251 67.1087ZM27.2329 66.3416C27.4971 66.3416 27.7229 66.2894 27.9104 66.185C28.1001 66.0806 28.2439 65.9443 28.3419 65.7759C28.442 65.6055 28.4921 65.4233 28.4921 65.2294V64.5966C28.458 64.6307 28.392 64.6627 28.294 64.6925C28.1981 64.7202 28.0883 64.7447 27.9648 64.766C27.8412 64.7852 27.7208 64.8033 27.6036 64.8203C27.4864 64.8352 27.3884 64.848 27.3096 64.8587C27.1242 64.8821 26.9548 64.9215 26.8014 64.9769C26.6501 65.0323 26.5287 65.1122 26.4371 65.2166C26.3476 65.3189 26.3028 65.4553 26.3028 65.6257C26.3028 65.8622 26.3902 66.0412 26.5649 66.1627C26.7396 66.282 26.9623 66.3416 27.2329 66.3416ZM34.3992 63.2894L33.533 63.4428C33.4968 63.332 33.4393 63.2266 33.3605 63.1264C33.2838 63.0263 33.1793 62.9443 33.0472 62.8803C32.9151 62.8164 32.75 62.7845 32.5519 62.7845C32.2813 62.7845 32.0554 62.8452 31.8743 62.9666C31.6932 63.0859 31.6026 63.2404 31.6026 63.4301C31.6026 63.5941 31.6634 63.7262 31.7848 63.8264C31.9063 63.9265 32.1023 64.0085 32.3729 64.0725L33.1527 64.2514C33.6044 64.3558 33.9411 64.5167 34.1627 64.734C34.3842 64.9514 34.495 65.2337 34.495 65.581C34.495 65.875 34.4098 66.1371 34.2394 66.3672C34.071 66.5952 33.8356 66.7742 33.533 66.9041C33.2326 67.0341 32.8842 67.0991 32.4879 67.0991C31.9382 67.0991 31.4897 66.9819 31.1424 66.7475C30.7951 66.511 30.582 66.1754 30.5032 65.7408L31.4269 65.6002C31.4844 65.8409 31.6026 66.0231 31.7816 66.1467C31.9606 66.2681 32.1939 66.3288 32.4815 66.3288C32.7948 66.3288 33.0451 66.2639 33.2326 66.1339C33.4201 66.0018 33.5139 65.8409 33.5139 65.6513C33.5139 65.4979 33.4563 65.369 33.3413 65.2646C33.2284 65.1602 33.0547 65.0813 32.8203 65.0281L31.9894 64.8459C31.5313 64.7415 31.1925 64.5753 30.973 64.3473C30.7557 64.1193 30.647 63.8306 30.647 63.4812C30.647 63.1914 30.728 62.9379 30.8899 62.7205C31.0519 62.5032 31.2756 62.3338 31.5611 62.2124C31.8466 62.0888 32.1737 62.027 32.5423 62.027C33.0728 62.027 33.4904 62.1421 33.7951 62.3722C34.0998 62.6002 34.3012 62.9059 34.3992 63.2894ZM37.8373 62.0909V62.858H35.1558V62.0909H37.8373ZM35.8749 60.9148H36.8305V65.5586C36.8305 65.744 36.8582 65.8835 36.9136 65.9773C36.969 66.0689 37.0404 66.1318 37.1278 66.1658C37.2173 66.1978 37.3142 66.2138 37.4186 66.2138C37.4953 66.2138 37.5624 66.2085 37.62 66.1978C37.6775 66.1872 37.7222 66.1786 37.7542 66.1722L37.9268 66.9617C37.8714 66.983 37.7925 67.0043 37.6903 67.0256C37.588 67.049 37.4602 67.0618 37.3067 67.0639C37.0553 67.0682 36.8209 67.0234 36.6036 66.9297C36.3863 66.8359 36.2105 66.6911 36.0763 66.495C35.942 66.299 35.8749 66.0529 35.8749 65.7568V60.9148ZM40.9574 67.0991C40.4737 67.0991 40.0572 66.9957 39.7078 66.7891C39.3605 66.5803 39.092 66.2873 38.9024 65.9102C38.7149 65.5309 38.6211 65.0867 38.6211 64.5774C38.6211 64.0746 38.7149 63.6314 38.9024 63.2479C39.092 62.8644 39.3562 62.565 39.695 62.3498C40.0359 62.1346 40.4343 62.027 40.8903 62.027C41.1673 62.027 41.4357 62.0728 41.6957 62.1644C41.9556 62.256 42.1889 62.3999 42.3956 62.5959C42.6023 62.7919 42.7653 63.0465 42.8846 63.3597C43.0039 63.6708 43.0636 64.049 43.0636 64.4943V64.8331H39.1612V64.1172H42.1271C42.1271 63.8658 42.076 63.6431 41.9737 63.4492C41.8715 63.2532 41.7276 63.0987 41.5423 62.9858C41.359 62.8729 41.1438 62.8164 40.8967 62.8164C40.6282 62.8164 40.3938 62.8825 40.1936 63.0146C39.9954 63.1445 39.842 63.315 39.7333 63.5259C39.6268 63.7347 39.5735 63.9617 39.5735 64.2067V64.766C39.5735 65.0941 39.6311 65.3732 39.7461 65.6033C39.8633 65.8335 40.0263 66.0092 40.2351 66.1307C40.4439 66.25 40.6879 66.3097 40.967 66.3097C41.1481 66.3097 41.3132 66.2841 41.4624 66.233C41.6115 66.1797 41.7404 66.1009 41.8491 65.9965C41.9578 65.8921 42.0409 65.7631 42.0984 65.6097L43.0029 65.7727C42.9304 66.0391 42.8004 66.2724 42.6129 66.4727C42.4276 66.6708 42.1943 66.8253 41.913 66.9361C41.6339 67.0448 41.3154 67.0991 40.9574 67.0991ZM44.1239 67V62.0909H45.0475V62.8707H45.0986C45.1881 62.6065 45.3458 62.3988 45.5717 62.2475C45.7996 62.0941 46.0575 62.0174 46.3451 62.0174C46.4048 62.0174 46.4751 62.0195 46.556 62.0238C46.6391 62.0281 46.7041 62.0334 46.751 62.0398V62.9538C46.7126 62.9432 46.6445 62.9315 46.5464 62.9187C46.4484 62.9038 46.3504 62.8963 46.2524 62.8963C46.0266 62.8963 45.8252 62.9443 45.6484 63.0401C45.4736 63.1339 45.3352 63.2649 45.2329 63.4332C45.1306 63.5994 45.0795 63.7891 45.0795 64.0021V67H44.1239ZM49.47 67.0991C48.9949 67.0991 48.5858 66.9915 48.2427 66.7763C47.9018 66.559 47.6398 66.2596 47.4565 65.8782C47.2733 65.4968 47.1817 65.06 47.1817 64.5678C47.1817 64.0693 47.2754 63.6293 47.4629 63.2479C47.6504 62.8644 47.9146 62.565 48.2555 62.3498C48.5964 62.1346 48.9981 62.027 49.4604 62.027C49.8333 62.027 50.1657 62.0962 50.4576 62.2347C50.7495 62.3711 50.9849 62.5629 51.1639 62.81C51.345 63.0572 51.4526 63.3459 51.4867 63.6761H50.5567C50.5055 63.446 50.3883 63.2479 50.2051 63.0817C50.024 62.9155 49.7811 62.8324 49.4764 62.8324C49.2101 62.8324 48.9768 62.9027 48.7765 63.0433C48.5783 63.1818 48.4238 63.38 48.313 63.6378C48.2023 63.8935 48.1469 64.196 48.1469 64.5455C48.1469 64.9034 48.2012 65.2124 48.3099 65.4723C48.4185 65.7323 48.5719 65.9336 48.7701 66.0764C48.9704 66.2191 49.2058 66.2905 49.4764 66.2905C49.6575 66.2905 49.8216 66.2575 49.9686 66.1914C50.1177 66.1232 50.2424 66.0263 50.3425 65.9006C50.4448 65.7749 50.5162 65.6236 50.5567 65.4467H51.4867C51.4526 65.7642 51.3493 66.0476 51.1767 66.2969C51.0041 66.5462 50.7729 66.7422 50.4831 66.885C50.1955 67.0277 49.8578 67.0991 49.47 67.0991ZM53.9372 67.1087C53.6262 67.1087 53.3449 67.0511 53.0935 66.9361C52.8421 66.8189 52.6429 66.6495 52.4958 66.4279C52.351 66.2063 52.2785 65.9347 52.2785 65.6129C52.2785 65.3359 52.3318 65.108 52.4383 64.929C52.5448 64.75 52.6887 64.6083 52.8698 64.5039C53.0509 64.3995 53.2533 64.3207 53.477 64.2674C53.7007 64.2141 53.9287 64.1737 54.161 64.146C54.455 64.1119 54.6936 64.0842 54.8769 64.0629C55.0601 64.0394 55.1933 64.0021 55.2764 63.951C55.3595 63.8999 55.401 63.8168 55.401 63.7017V63.6793C55.401 63.4002 55.3222 63.184 55.1645 63.0305C55.009 62.8771 54.7767 62.8004 54.4678 62.8004C54.1461 62.8004 53.8925 62.8718 53.7071 63.0146C53.5239 63.1552 53.3971 63.3118 53.3268 63.4844L52.4287 63.2798C52.5353 62.9815 52.6908 62.7408 52.8953 62.5575C53.102 62.3722 53.3396 62.2379 53.6081 62.1548C53.8765 62.0696 54.1588 62.027 54.455 62.027C54.651 62.027 54.8588 62.0504 55.0782 62.0973C55.2998 62.1421 55.5065 62.2252 55.6983 62.3466C55.8921 62.468 56.0509 62.6417 56.1745 62.8676C56.298 63.0913 56.3598 63.3821 56.3598 63.7401V67H55.4266V66.3288H55.3882C55.3265 66.4524 55.2338 66.5739 55.1102 66.6932C54.9866 66.8125 54.8279 66.9116 54.634 66.9904C54.4401 67.0693 54.2078 67.1087 53.9372 67.1087ZM54.145 66.3416C54.4092 66.3416 54.635 66.2894 54.8225 66.185C55.0122 66.0806 55.156 65.9443 55.254 65.7759C55.3542 65.6055 55.4042 65.4233 55.4042 65.2294V64.5966C55.3701 64.6307 55.3041 64.6627 55.2061 64.6925C55.1102 64.7202 55.0005 64.7447 54.8769 64.766C54.7533 64.7852 54.6329 64.8033 54.5157 64.8203C54.3985 64.8352 54.3005 64.848 54.2217 64.8587C54.0363 64.8821 53.8669 64.9215 53.7135 64.9769C53.5622 65.0323 53.4408 65.1122 53.3492 65.2166C53.2597 65.3189 53.2149 65.4553 53.2149 65.6257C53.2149 65.8622 53.3023 66.0412 53.477 66.1627C53.6517 66.282 53.8744 66.3416 54.145 66.3416ZM57.6326 67V62.0909H58.5563V62.8707H58.6074C58.6969 62.6065 58.8546 62.3988 59.0804 62.2475C59.3084 62.0941 59.5662 62.0174 59.8539 62.0174C59.9135 62.0174 59.9839 62.0195 60.0648 62.0238C60.1479 62.0281 60.2129 62.0334 60.2598 62.0398V62.9538C60.2214 62.9432 60.1532 62.9315 60.0552 62.9187C59.9572 62.9038 59.8592 62.8963 59.7612 62.8963C59.5353 62.8963 59.334 62.9443 59.1572 63.0401C58.9824 63.1339 58.8439 63.2649 58.7417 63.4332C58.6394 63.5994 58.5883 63.7891 58.5883 64.0021V67H57.6326ZM62.7487 67.0959C62.3524 67.0959 61.9987 66.9947 61.6876 66.7923C61.3787 66.5877 61.1358 66.2969 60.9589 65.9198C60.7842 65.5405 60.6968 65.0856 60.6968 64.5551C60.6968 64.0245 60.7853 63.5707 60.9621 63.1935C61.1411 62.8164 61.3861 62.5277 61.6972 62.3274C62.0083 62.1271 62.3609 62.027 62.7551 62.027C63.0598 62.027 63.3048 62.0781 63.4902 62.1804C63.6777 62.2805 63.8225 62.3977 63.9248 62.532C64.0292 62.6662 64.1102 62.7845 64.1677 62.8867H64.2252V60.4546H65.1809V67H64.2476V66.2362H64.1677C64.1102 66.3406 64.0271 66.4599 63.9184 66.5941C63.8119 66.7283 63.6649 66.8455 63.4774 66.9457C63.2899 67.0458 63.047 67.0959 62.7487 67.0959ZM62.9596 66.2809C63.2345 66.2809 63.4667 66.2085 63.6564 66.0636C63.8481 65.9166 63.993 65.7131 64.091 65.4531C64.1912 65.1932 64.2412 64.8906 64.2412 64.5455C64.2412 64.2046 64.1922 63.9063 64.0942 63.6506C63.9962 63.3949 63.8524 63.1957 63.6627 63.0529C63.4731 62.9102 63.2387 62.8388 62.9596 62.8388C62.672 62.8388 62.4323 62.9134 62.2405 63.0625C62.0488 63.2117 61.9039 63.4151 61.8059 63.6729C61.71 63.9308 61.662 64.2216 61.662 64.5455C61.662 64.8736 61.711 65.1687 61.8091 65.4308C61.9071 65.6928 62.0519 65.9006 62.2437 66.054C62.4376 66.2053 62.6762 66.2809 62.9596 66.2809Z" fill="white"/>
</g>
<g clip-path="url(#clip2_1_329)">
<rect x="108.81" y="65" width="32" height="24.381" rx="4.66667" transform="rotate(-90 108.81 65)" fill="url(#paint1_linear_1_329)"/>
<path d="M116.31 64.5V56.3333C116.31 55.0447 117.354 54 118.643 54H122.185M132.71 54H128.06M128.06 54H122.185M128.06 54V64.5M122.185 54V64.5" stroke="#262626" stroke-width="0.583333"/>
<path d="M116.31 33.5V43.5M116.31 43.5H122.185M116.31 43.5H109.31M132.71 43.5H128.06M128.06 43.5H122.185M128.06 43.5V33.5M122.185 43.5V33.5" stroke="#262626" stroke-width="0.583333"/>
</g>
<path d="M178.173 41.319C181.77 45.9774 181.77 52.0332 178.173 56.6915M181.943 38.1667C187.013 44.7317 187.013 53.2684 181.943 59.8334M174.219 43.3558C176.863 46.7683 176.863 51.2208 174.219 54.6333M170.254 46.1832C171.576 47.8948 171.576 50.1157 170.254 51.8274" stroke="white" stroke-width="2" stroke-linecap="round" stroke-linejoin="round"/>
<path d="M64.1477 314V302.364H68.5113C69.4053 302.364 70.1553 302.53 70.7613 302.864C71.3712 303.197 71.8314 303.655 72.142 304.239C72.4564 304.818 72.6136 305.477 72.6136 306.216C72.6136 306.962 72.4564 307.625 72.142 308.205C71.8276 308.784 71.3636 309.241 70.75 309.574C70.1363 309.903 69.3807 310.068 68.4829 310.068H65.5909V308.335H68.1988C68.7216 308.335 69.1496 308.244 69.4829 308.063C69.8163 307.881 70.0625 307.631 70.2216 307.313C70.3845 306.994 70.4659 306.629 70.4659 306.216C70.4659 305.803 70.3845 305.439 70.2216 305.125C70.0625 304.811 69.8144 304.566 69.4773 304.392C69.1439 304.214 68.714 304.125 68.1875 304.125H66.2557V314H64.1477ZM74.322 314H72.072L76.1686 302.364H78.7709L82.8732 314H80.6232L77.5152 304.75H77.4243L74.322 314ZM74.3959 309.438H80.5323V311.131H74.3959V309.438ZM82.1029 302.364H84.4836L87.3302 307.511H87.4438L90.2904 302.364H92.6711L88.4381 309.659V314H86.3358V309.659L82.1029 302.364ZM95.4008 302.364L98.4292 311.523H98.5485L101.571 302.364H103.889L99.7871 314H97.1849L93.0883 302.364H95.4008ZM114.875 308.182C114.875 309.436 114.64 310.509 114.17 311.403C113.704 312.294 113.068 312.975 112.261 313.449C111.458 313.922 110.547 314.159 109.528 314.159C108.509 314.159 107.596 313.922 106.79 313.449C105.987 312.972 105.35 312.288 104.88 311.398C104.415 310.504 104.182 309.432 104.182 308.182C104.182 306.928 104.415 305.856 104.88 304.966C105.35 304.072 105.987 303.388 106.79 302.915C107.596 302.441 108.509 302.205 109.528 302.205C110.547 302.205 111.458 302.441 112.261 302.915C113.068 303.388 113.704 304.072 114.17 304.966C114.64 305.856 114.875 306.928 114.875 308.182ZM112.755 308.182C112.755 307.299 112.617 306.555 112.341 305.949C112.068 305.339 111.689 304.879 111.204 304.568C110.72 304.254 110.161 304.097 109.528 304.097C108.896 304.097 108.337 304.254 107.852 304.568C107.367 304.879 106.987 305.339 106.71 305.949C106.437 306.555 106.301 307.299 106.301 308.182C106.301 309.064 106.437 309.811 106.71 310.42C106.987 311.027 107.367 311.487 107.852 311.801C108.337 312.112 108.896 312.267 109.528 312.267C110.161 312.267 110.72 312.112 111.204 311.801C111.689 311.487 112.068 311.027 112.341 310.42C112.617 309.811 112.755 309.064 112.755 308.182ZM116.548 314V302.364H120.911C121.805 302.364 122.555 302.519 123.161 302.83C123.771 303.14 124.231 303.576 124.542 304.136C124.856 304.693 125.014 305.343 125.014 306.085C125.014 306.831 124.855 307.479 124.536 308.028C124.222 308.574 123.758 308.996 123.144 309.295C122.531 309.591 121.777 309.739 120.883 309.739H117.775V307.989H120.599C121.122 307.989 121.55 307.917 121.883 307.773C122.216 307.625 122.462 307.411 122.622 307.131C122.784 306.847 122.866 306.498 122.866 306.085C122.866 305.672 122.784 305.32 122.622 305.028C122.459 304.733 122.211 304.509 121.877 304.358C121.544 304.203 121.114 304.125 120.587 304.125H118.656V314H116.548ZM122.559 308.727L125.44 314H123.087L120.258 308.727H122.559ZM128.128 314H125.878L129.975 302.364H132.577L136.679 314H134.429L131.321 304.75H131.231L128.128 314ZM128.202 309.438H134.339V311.131H128.202V309.438Z" fill="white"/>
<path d="M240.002 213L240.002 232.245L175.002 253L175.002 233.755L240.002 213Z" fill="white"/>
<path d="M240.002 173L240.002 192.245L175.002 213L175.002 193.755L240.002 173Z" fill="white"/>
<path d="M240.002 133L240.002 152.245L175.002 173L175.002 153.755L240.002 133Z" fill="white"/>
<path d="M240.002 92.9999L240.002 112.245L175.002 133L175.002 113.755L240.002 92.9999Z" fill="white"/>
</g>
<defs>
<linearGradient id="paint0_linear_1_329" x1="166" y1="332" x2="223.059" y2="525.144" gradientUnits="userSpaceOnUse">
<stop stop-color="#779FBD"/>
<stop offset="0.515625" stop-color="#92BADA"/>
<stop offset="1" stop-color="#ADCED0"/>
</linearGradient>
<linearGradient id="paint1_linear_1_329" x1="105.61" y1="77.1906" x2="143.21" y2="77.1906" gradientUnits="userSpaceOnUse">
<stop offset="0.120245" stop-color="#D5B688"/>
<stop offset="0.469278" stop-color="#FCF7B7"/>
<stop offset="1" stop-color="#E8DFA5"/>
</linearGradient>
<clipPath id="clip0_1_329">
<rect x="1.45122e-05" y="332" width="332" height="210" rx="12" transform="rotate(-90 1.45122e-05 332)" fill="white"/>
</clipPath>
<clipPath id="clip1_1_329">
<rect width="41" height="49" fill="white" transform="translate(17 69) rotate(-90)"/>
</clipPath>
<clipPath id="clip2_1_329">
<rect width="32" height="24.381" fill="white" transform="matrix(0 -1 1 0 108.81 65)"/>
</clipPath>
</defs>
</svg>