<svg xmlns="http://www.w3.org/2000/svg" xmlns:xlink="http://www.w3.org/1999/xlink" width="393" height="852" viewBox="0 0 393 852" fill="none">
<g clip-path="url(#clip0_70_1180)">
<rect width="393" height="852" rx="20" fill="white"/>
<rect opacity="0.35" x="360.283" y="24.0459" width="16.5392" height="8.13835" rx="1.70643" stroke="#121208" stroke-opacity="0.6" stroke-width="0.787582"/>
<path opacity="0.4" d="M378.004 26.5405V29.6909C378.638 29.424 379.05 28.8034 379.05 28.1157C379.05 27.428 378.638 26.8073 378.004 26.5405Z" fill="#121208" fill-opacity="0.6"/>
<rect x="361.465" y="25.2278" width="14.1765" height="5.7756" rx="1.05011" fill="#0B0B0B"/>
<path fill-rule="evenodd" clip-rule="evenodd" d="M349.915 25.4474C351.667 25.4475 353.352 26.1202 354.622 27.3264C354.717 27.4195 354.87 27.4184 354.964 27.3238L355.879 26.4021C355.926 26.3541 355.953 26.2891 355.952 26.2215C355.952 26.1539 355.925 26.0892 355.876 26.0418C352.543 22.8503 347.285 22.8503 343.952 26.0418C343.904 26.0892 343.877 26.1538 343.876 26.2214C343.876 26.289 343.902 26.354 343.95 26.4021L344.864 27.3238C344.958 27.4185 345.111 27.4197 345.207 27.3264C346.477 26.1201 348.162 25.4474 349.915 25.4474ZM349.915 28.446C350.877 28.446 351.806 28.8035 352.519 29.4491C352.616 29.5408 352.768 29.5388 352.862 29.4446L353.775 28.5229C353.823 28.4746 353.85 28.409 353.849 28.3408C353.848 28.2727 353.82 28.2076 353.771 28.1603C351.598 26.1406 348.233 26.1406 346.06 28.1603C346.011 28.2076 345.983 28.2727 345.982 28.3409C345.982 28.4091 346.008 28.4746 346.057 28.5229L346.969 29.4446C347.063 29.5388 347.215 29.5408 347.312 29.4491C348.025 28.8039 348.953 28.4464 349.915 28.446ZM351.744 30.4638C351.745 30.5322 351.718 30.5981 351.669 30.6459L350.09 32.2384C350.044 32.2852 349.98 32.3116 349.915 32.3116C349.849 32.3116 349.786 32.2852 349.739 32.2384L348.16 30.6459C348.111 30.598 348.084 30.5321 348.086 30.4638C348.087 30.3954 348.117 30.3307 348.167 30.2849C349.176 29.4325 350.653 29.4325 351.662 30.2849C351.713 30.3307 351.742 30.3955 351.744 30.4638Z" fill="#0B0B0B"/>
<path fill-rule="evenodd" clip-rule="evenodd" d="M339.15 23.9128H338.363C337.928 23.9128 337.575 24.2655 337.575 24.7004V31.5261C337.575 31.9611 337.928 32.3137 338.363 32.3137H339.15C339.585 32.3137 339.938 31.9611 339.938 31.5261V24.7004C339.938 24.2655 339.585 23.9128 339.15 23.9128ZM334.688 25.7505H335.475C335.91 25.7505 336.263 26.1031 336.263 26.5381V31.5261C336.263 31.9611 335.91 32.3137 335.475 32.3137H334.688C334.253 32.3137 333.9 31.9611 333.9 31.5261V26.5381C333.9 26.1031 334.253 25.7505 334.688 25.7505ZM331.799 27.5891H331.011C330.576 27.5891 330.224 27.9417 330.224 28.3767V31.527C330.224 31.962 330.576 32.3146 331.011 32.3146H331.799C332.234 32.3146 332.586 31.962 332.586 31.527V28.3767C332.586 27.9417 332.234 27.5891 331.799 27.5891ZM328.124 29.1639H327.336C326.901 29.1639 326.549 29.5165 326.549 29.9514V31.5266C326.549 31.9616 326.901 32.3142 327.336 32.3142H328.124C328.559 32.3142 328.912 31.9616 328.912 31.5266V29.9514C328.912 29.5165 328.559 29.1639 328.124 29.1639Z" fill="#0B0B0B"/>
<path d="M27.842 25.0519C28.3529 25.0519 28.8141 25.1751 29.2258 25.4213C29.6374 25.6639 29.9645 25.9983 30.2071 26.4247C30.4497 26.851 30.571 27.338 30.571 27.8856V30.4106C30.571 30.9913 30.4497 31.5004 30.2071 31.9378C29.9682 32.3715 29.6337 32.7096 29.2037 32.9522C28.7774 33.1947 28.2849 33.316 27.7262 33.316C27.3072 33.316 26.914 33.237 26.5464 33.079C26.1789 32.9209 25.8591 32.6857 25.5871 32.3733L26.4362 31.5849C26.5868 31.7797 26.7761 31.9359 27.004 32.0535C27.2319 32.1711 27.4726 32.23 27.7262 32.23C28.0533 32.23 28.3418 32.1509 28.5918 31.9929C28.8454 31.8348 29.042 31.629 29.1817 31.3754C29.3213 31.1218 29.3912 30.8498 29.3912 30.5595V29.104L29.6227 29.3576C29.3948 29.6553 29.1118 29.8906 28.7737 30.0633C28.4356 30.2361 28.0735 30.3224 27.6876 30.3224C27.1914 30.3224 26.7504 30.2085 26.3645 29.9806C25.9786 29.7527 25.6735 29.4422 25.4493 29.0489C25.2251 28.6556 25.113 28.2109 25.113 27.7147C25.113 27.2186 25.238 26.7702 25.4879 26.3696C25.7378 25.9689 26.0686 25.6492 26.4803 25.4103C26.8919 25.1714 27.3458 25.0519 27.842 25.0519ZM27.842 26.1656C27.5553 26.1656 27.2925 26.2354 27.0536 26.3751C26.8184 26.5111 26.631 26.6967 26.4913 26.9319C26.3516 27.1671 26.2818 27.4281 26.2818 27.7147C26.2818 28.0014 26.3516 28.2642 26.4913 28.5031C26.631 28.7383 26.8184 28.9258 27.0536 29.0654C27.2888 29.2051 27.5498 29.2749 27.8365 29.2749C28.1232 29.2749 28.3841 29.2051 28.6193 29.0654C28.8546 28.9258 29.042 28.7383 29.1817 28.5031C29.3213 28.2642 29.3912 28.0014 29.3912 27.7147C29.3912 27.4317 29.3213 27.1726 29.1817 26.9374C29.0457 26.7022 28.8601 26.5147 28.6248 26.3751C28.3896 26.2354 28.1287 26.1656 27.842 26.1656ZM32.3307 32.3788V31.1604H33.5491V32.3788H32.3307ZM32.3362 29.1867V27.9683H33.5546V29.1867H32.3362ZM38.65 33.1506V31.7669H35.0665V30.6753L37.6466 25.2118H38.9643L36.3842 30.6753H38.65V28.5252H39.8188V30.6753H40.6072V31.7669H39.8188V33.1506H38.65ZM43.094 33.1506V26.4798L41.5999 27.3895V26.1049L43.094 25.2118H44.2683V33.1506H43.094Z" fill="#0B0B0B"/>
<rect x="151" y="57" width="87" height="19" fill="url(#pattern0_70_1180)"/>
<rect x="166" y="156" width="66" height="19" fill="white"/>
<path d="M39.36 222.39C38.2 222.39 37.085 222.21 36.015 221.85C34.955 221.48 34.025 220.955 33.225 220.275C32.425 219.585 31.85 218.76 31.5 217.8L34.935 216.54C35.075 216.94 35.36 217.305 35.79 217.635C36.22 217.965 36.745 218.23 37.365 218.43C37.985 218.63 38.65 218.73 39.36 218.73C40.09 218.73 40.77 218.62 41.4 218.4C42.04 218.17 42.555 217.855 42.945 217.455C43.335 217.045 43.53 216.57 43.53 216.03C43.53 215.48 43.325 215.03 42.915 214.68C42.505 214.32 41.98 214.035 41.34 213.825C40.7 213.615 40.04 213.455 39.36 213.345C37.87 213.115 36.535 212.76 35.355 212.28C34.175 211.8 33.24 211.135 32.55 210.285C31.87 209.435 31.53 208.335 31.53 206.985C31.53 205.715 31.895 204.605 32.625 203.655C33.355 202.705 34.315 201.965 35.505 201.435C36.695 200.905 37.98 200.64 39.36 200.64C40.51 200.64 41.62 200.82 42.69 201.18C43.76 201.54 44.695 202.065 45.495 202.755C46.305 203.445 46.885 204.275 47.235 205.245L43.785 206.49C43.645 206.09 43.36 205.725 42.93 205.395C42.5 205.065 41.975 204.805 41.355 204.615C40.735 204.415 40.07 204.315 39.36 204.315C38.65 204.305 37.975 204.42 37.335 204.66C36.705 204.89 36.19 205.205 35.79 205.605C35.39 206.005 35.19 206.465 35.19 206.985C35.19 207.655 35.375 208.16 35.745 208.5C36.125 208.84 36.63 209.09 37.26 209.25C37.89 209.4 38.59 209.54 39.36 209.67C40.76 209.89 42.055 210.26 43.245 210.78C44.435 211.3 45.39 211.995 46.11 212.865C46.83 213.725 47.19 214.78 47.19 216.03C47.19 217.3 46.83 218.415 46.11 219.375C45.39 220.325 44.435 221.065 43.245 221.595C42.055 222.125 40.76 222.39 39.36 222.39ZM56.352 222.39C54.972 222.39 53.712 222.035 52.572 221.325C51.442 220.615 50.537 219.66 49.857 218.46C49.187 217.26 48.852 215.935 48.852 214.485C48.852 213.395 49.047 212.375 49.437 211.425C49.827 210.465 50.362 209.625 51.042 208.905C51.732 208.175 52.532 207.605 53.442 207.195C54.352 206.785 55.322 206.58 56.352 206.58C57.522 206.58 58.592 206.83 59.562 207.33C60.542 207.82 61.372 208.495 62.052 209.355C62.732 210.215 63.227 211.195 63.537 212.295C63.847 213.395 63.917 214.545 63.747 215.745H52.782C52.922 216.305 53.152 216.81 53.472 217.26C53.792 217.7 54.197 218.055 54.687 218.325C55.177 218.585 55.732 218.72 56.352 218.73C56.992 218.74 57.572 218.59 58.092 218.28C58.622 217.96 59.062 217.53 59.412 216.99L63.147 217.86C62.537 219.19 61.627 220.28 60.417 221.13C59.207 221.97 57.852 222.39 56.352 222.39ZM52.662 213H60.042C59.932 212.4 59.697 211.86 59.337 211.38C58.987 210.89 58.552 210.5 58.032 210.21C57.512 209.92 56.952 209.775 56.352 209.775C55.752 209.775 55.197 209.92 54.687 210.21C54.177 210.49 53.742 210.875 53.382 211.365C53.032 211.845 52.792 212.39 52.662 213ZM73.9275 210.66H71.0175V222H67.3575V210.66H65.1375V207H67.3575V202.29H71.0175V207H73.9275V210.66ZM86.9065 229.5H83.2465V207H86.9065V208.905C87.3965 208.225 87.9965 207.675 88.7065 207.255C89.4265 206.825 90.2665 206.61 91.2265 206.61C92.3265 206.61 93.3515 206.815 94.3015 207.225C95.2515 207.635 96.0865 208.205 96.8065 208.935C97.5365 209.655 98.1015 210.49 98.5015 211.44C98.9115 212.39 99.1165 213.41 99.1165 214.5C99.1165 215.59 98.9115 216.615 98.5015 217.575C98.1015 218.535 97.5365 219.38 96.8065 220.11C96.0865 220.83 95.2515 221.395 94.3015 221.805C93.3515 222.215 92.3265 222.42 91.2265 222.42C90.2665 222.42 89.4265 222.21 88.7065 221.79C87.9965 221.36 87.3965 220.805 86.9065 220.125V229.5ZM91.1815 210.135C90.4215 210.135 89.7415 210.335 89.1415 210.735C88.5415 211.125 88.0715 211.65 87.7315 212.31C87.3915 212.97 87.2215 213.7 87.2215 214.5C87.2215 215.3 87.3915 216.035 87.7315 216.705C88.0715 217.365 88.5415 217.895 89.1415 218.295C89.7415 218.685 90.4215 218.88 91.1815 218.88C91.9515 218.88 92.6565 218.685 93.2965 218.295C93.9365 217.905 94.4465 217.38 94.8265 216.72C95.2065 216.05 95.3965 215.31 95.3965 214.5C95.3965 213.7 95.2065 212.97 94.8265 212.31C94.4465 211.65 93.9365 211.125 93.2965 210.735C92.6665 210.335 91.9615 210.135 91.1815 210.135ZM100.847 207H104.507V222H100.847V207ZM102.707 205.065C102.167 205.065 101.712 204.89 101.342 204.54C100.972 204.18 100.787 203.73 100.787 203.19C100.787 202.66 100.972 202.215 101.342 201.855C101.712 201.495 102.162 201.315 102.692 201.315C103.222 201.315 103.667 201.495 104.027 201.855C104.397 202.215 104.582 202.66 104.582 203.19C104.582 203.73 104.402 204.18 104.042 204.54C103.682 204.89 103.237 205.065 102.707 205.065ZM121.435 212.52V222H117.775V213.48C117.775 212.89 117.63 212.355 117.34 211.875C117.05 211.385 116.66 211 116.17 210.72C115.69 210.43 115.155 210.285 114.565 210.285C113.975 210.285 113.435 210.43 112.945 210.72C112.465 211 112.08 211.385 111.79 211.875C111.51 212.355 111.37 212.89 111.37 213.48V222H107.71L107.695 207H111.355L111.37 208.335C111.88 207.795 112.49 207.37 113.2 207.06C113.91 206.74 114.675 206.58 115.495 206.58C116.585 206.58 117.58 206.85 118.48 207.39C119.38 207.92 120.095 208.635 120.625 209.535C121.165 210.425 121.435 211.42 121.435 212.52ZM140.751 222.39C139.331 222.39 137.996 222.11 136.746 221.55C135.496 220.98 134.396 220.195 133.446 219.195C132.506 218.195 131.766 217.04 131.226 215.73C130.696 214.41 130.431 213 130.431 211.5C130.431 209.99 130.696 208.58 131.226 207.27C131.766 205.95 132.506 204.795 133.446 203.805C134.396 202.805 135.496 202.025 136.746 201.465C137.996 200.895 139.331 200.61 140.751 200.61C142.451 200.61 144.016 201.005 145.446 201.795C146.876 202.575 148.061 203.62 149.001 204.93L145.731 206.685C145.141 205.955 144.406 205.37 143.526 204.93C142.656 204.49 141.731 204.27 140.751 204.27C139.831 204.27 138.966 204.46 138.156 204.84C137.346 205.21 136.636 205.73 136.026 206.4C135.416 207.06 134.941 207.83 134.601 208.71C134.261 209.58 134.091 210.51 134.091 211.5C134.091 212.5 134.261 213.435 134.601 214.305C134.951 215.175 135.431 215.945 136.041 216.615C136.651 217.275 137.356 217.795 138.156 218.175C138.966 218.545 139.831 218.73 140.751 218.73C141.751 218.73 142.681 218.51 143.541 218.07C144.411 217.62 145.141 217.03 145.731 216.3L149.001 218.07C148.061 219.37 146.876 220.415 145.446 221.205C144.016 221.995 142.451 222.39 140.751 222.39ZM157.341 222.39C155.961 222.39 154.701 222.035 153.561 221.325C152.431 220.615 151.526 219.665 150.846 218.475C150.176 217.275 149.841 215.95 149.841 214.5C149.841 213.4 150.036 212.375 150.426 211.425C150.816 210.465 151.351 209.625 152.031 208.905C152.721 208.175 153.521 207.605 154.431 207.195C155.341 206.785 156.311 206.58 157.341 206.58C158.721 206.58 159.976 206.935 161.106 207.645C162.246 208.355 163.151 209.31 163.821 210.51C164.501 211.71 164.841 213.04 164.841 214.5C164.841 215.59 164.646 216.61 164.256 217.56C163.866 218.51 163.326 219.35 162.636 220.08C161.956 220.8 161.161 221.365 160.251 221.775C159.351 222.185 158.381 222.39 157.341 222.39ZM157.341 218.73C158.071 218.73 158.726 218.535 159.306 218.145C159.886 217.755 160.341 217.24 160.671 216.6C161.011 215.96 161.181 215.26 161.181 214.5C161.181 213.72 161.006 213.01 160.656 212.37C160.316 211.72 159.851 211.205 159.261 210.825C158.681 210.435 158.041 210.24 157.341 210.24C156.621 210.24 155.971 210.435 155.391 210.825C154.811 211.215 154.351 211.735 154.011 212.385C153.671 213.035 153.501 213.74 153.501 214.5C153.501 215.29 153.676 216.005 154.026 216.645C154.376 217.285 154.841 217.795 155.421 218.175C156.011 218.545 156.651 218.73 157.341 218.73ZM178.275 199.5H181.935V222H178.275V220.125C177.795 220.795 177.19 221.34 176.46 221.76C175.73 222.18 174.885 222.39 173.925 222.39C172.835 222.39 171.815 222.185 170.865 221.775C169.915 221.365 169.075 220.8 168.345 220.08C167.625 219.35 167.06 218.51 166.65 217.56C166.24 216.61 166.035 215.59 166.035 214.5C166.035 213.41 166.24 212.39 166.65 211.44C167.06 210.49 167.625 209.655 168.345 208.935C169.075 208.205 169.915 207.635 170.865 207.225C171.815 206.815 172.835 206.61 173.925 206.61C174.885 206.61 175.73 206.82 176.46 207.24C177.19 207.65 177.795 208.195 178.275 208.875V199.5ZM173.97 218.865C174.75 218.865 175.44 218.67 176.04 218.28C176.64 217.89 177.11 217.365 177.45 216.705C177.79 216.035 177.96 215.3 177.96 214.5C177.96 213.69 177.79 212.955 177.45 212.295C177.11 211.625 176.635 211.095 176.025 210.705C175.425 210.315 174.74 210.12 173.97 210.12C173.2 210.12 172.495 210.32 171.855 210.72C171.225 211.11 170.72 211.635 170.34 212.295C169.97 212.955 169.785 213.69 169.785 214.5C169.785 215.31 169.975 216.045 170.355 216.705C170.735 217.365 171.24 217.89 171.87 218.28C172.51 218.67 173.21 218.865 173.97 218.865ZM191.604 222.39C190.224 222.39 188.964 222.035 187.824 221.325C186.694 220.615 185.789 219.66 185.109 218.46C184.439 217.26 184.104 215.935 184.104 214.485C184.104 213.395 184.299 212.375 184.689 211.425C185.079 210.465 185.614 209.625 186.294 208.905C186.984 208.175 187.784 207.605 188.694 207.195C189.604 206.785 190.574 206.58 191.604 206.58C192.774 206.58 193.844 206.83 194.814 207.33C195.794 207.82 196.624 208.495 197.304 209.355C197.984 210.215 198.479 211.195 198.789 212.295C199.099 213.395 199.169 214.545 198.999 215.745H188.034C188.174 216.305 188.404 216.81 188.724 217.26C189.044 217.7 189.449 218.055 189.939 218.325C190.429 218.585 190.984 218.72 191.604 218.73C192.244 218.74 192.824 218.59 193.344 218.28C193.874 217.96 194.314 217.53 194.664 216.99L198.399 217.86C197.789 219.19 196.879 220.28 195.669 221.13C194.459 221.97 193.104 222.39 191.604 222.39ZM187.914 213H195.294C195.184 212.4 194.949 211.86 194.589 211.38C194.239 210.89 193.804 210.5 193.284 210.21C192.764 209.92 192.204 209.775 191.604 209.775C191.004 209.775 190.449 209.92 189.939 210.21C189.429 210.49 188.994 210.875 188.634 211.365C188.284 211.845 188.044 212.39 187.914 213Z" fill="#1E232C"/>
<path d="M39.432 247.8V249.144H35.704V259H34.36V249.144H30.64V247.8H39.432ZM45.0494 251H46.4734L42.0974 263H40.6734L42.1214 259L39.2494 251H40.7214L42.7934 257.152L45.0494 251ZM49.1634 263H47.8194V251H49.1634V252.368C49.4354 251.899 49.798 251.52 50.2514 251.232C50.7047 250.939 51.2434 250.792 51.8674 250.792C52.4487 250.792 52.9927 250.901 53.4994 251.12C54.0114 251.339 54.4594 251.643 54.8434 252.032C55.2274 252.416 55.5287 252.861 55.7474 253.368C55.966 253.875 56.0754 254.419 56.0754 255C56.0754 255.581 55.966 256.128 55.7474 256.64C55.5287 257.152 55.2274 257.603 54.8434 257.992C54.4594 258.376 54.0114 258.677 53.4994 258.896C52.9927 259.115 52.4487 259.224 51.8674 259.224C51.2434 259.224 50.7047 259.08 50.2514 258.792C49.798 258.499 49.4354 258.117 49.1634 257.648V263ZM51.8514 252.096C51.334 252.096 50.8807 252.227 50.4914 252.488C50.102 252.749 49.8007 253.099 49.5874 253.536C49.3794 253.973 49.2754 254.461 49.2754 255C49.2754 255.533 49.3794 256.021 49.5874 256.464C49.8007 256.907 50.0994 257.259 50.4834 257.52C50.8727 257.781 51.3287 257.912 51.8514 257.912C52.3687 257.912 52.8434 257.784 53.2754 257.528C53.7074 257.267 54.054 256.917 54.3154 256.48C54.5767 256.037 54.7074 255.544 54.7074 255C54.7074 254.467 54.5794 253.981 54.3234 253.544C54.0674 253.101 53.7234 252.749 53.2914 252.488C52.8594 252.227 52.3794 252.096 51.8514 252.096ZM60.8863 259.208C60.1503 259.208 59.4783 259.019 58.8703 258.64C58.2676 258.261 57.7849 257.755 57.4223 257.12C57.0649 256.48 56.8863 255.773 56.8863 255C56.8863 254.413 56.9903 253.867 57.1983 253.36C57.4063 252.848 57.6916 252.4 58.0543 252.016C58.4223 251.627 58.8489 251.323 59.3343 251.104C59.8196 250.885 60.3369 250.776 60.8863 250.776C61.4889 250.776 62.0409 250.899 62.5423 251.144C63.0489 251.384 63.4809 251.72 63.8383 252.152C64.2009 252.584 64.4703 253.085 64.6463 253.656C64.8276 254.227 64.8943 254.837 64.8463 255.488H58.3183C58.3823 255.941 58.5316 256.347 58.7663 256.704C59.0009 257.056 59.2996 257.336 59.6623 257.544C60.0303 257.752 60.4383 257.859 60.8863 257.864C61.3663 257.864 61.8009 257.741 62.1903 257.496C62.5796 257.245 62.8943 256.904 63.1343 256.472L64.5023 256.792C64.1823 257.501 63.6996 258.083 63.0543 258.536C62.4089 258.984 61.6863 259.208 60.8863 259.208ZM58.2783 254.432H63.4943C63.4516 253.984 63.3076 253.576 63.0623 253.208C62.8169 252.835 62.5049 252.536 62.1263 252.312C61.7476 252.088 61.3343 251.976 60.8863 251.976C60.4383 251.976 60.0276 252.085 59.6543 252.304C59.2809 252.523 58.9716 252.819 58.7263 253.192C58.4863 253.56 58.3369 253.973 58.2783 254.432ZM75.6275 251H77.0515L72.6755 263H71.2515L72.6995 259L69.8275 251H71.2995L73.3715 257.152L75.6275 251ZM81.605 259.208C80.869 259.208 80.197 259.019 79.589 258.64C78.9863 258.261 78.5037 257.755 78.141 257.12C77.7837 256.48 77.605 255.773 77.605 255C77.605 254.413 77.709 253.867 77.917 253.36C78.125 252.848 78.4103 252.4 78.773 252.016C79.141 251.627 79.5677 251.323 80.053 251.104C80.5383 250.885 81.0557 250.776 81.605 250.776C82.341 250.776 83.0103 250.965 83.613 251.344C84.221 251.723 84.7037 252.232 85.061 252.872C85.4237 253.512 85.605 254.221 85.605 255C85.605 255.581 85.501 256.125 85.293 256.632C85.085 257.139 84.797 257.587 84.429 257.976C84.0663 258.36 83.6423 258.661 83.157 258.88C82.677 259.099 82.1597 259.208 81.605 259.208ZM81.605 257.864C82.1063 257.864 82.557 257.733 82.957 257.472C83.3623 257.205 83.6797 256.856 83.909 256.424C84.1437 255.987 84.261 255.512 84.261 255C84.261 254.477 84.141 253.997 83.901 253.56C83.6663 253.123 83.349 252.773 82.949 252.512C82.549 252.251 82.101 252.12 81.605 252.12C81.1037 252.12 80.653 252.253 80.253 252.52C79.853 252.781 79.5357 253.131 79.301 253.568C79.0663 254.005 78.949 254.483 78.949 255C78.949 255.533 79.069 256.019 79.309 256.456C79.549 256.888 79.8717 257.232 80.277 257.488C80.6823 257.739 81.125 257.864 81.605 257.864ZM86.4994 255.96V251H87.8434V255.664C87.8434 256.069 87.942 256.437 88.1394 256.768C88.3367 257.099 88.6007 257.363 88.9314 257.56C89.2674 257.752 89.6354 257.848 90.0354 257.848C90.4407 257.848 90.806 257.752 91.1314 257.56C91.462 257.363 91.726 257.099 91.9234 256.768C92.1207 256.437 92.2194 256.069 92.2194 255.664V251H93.5634L93.5714 259H92.2274L92.2194 257.984C91.9367 258.357 91.5794 258.656 91.1474 258.88C90.7154 259.099 90.2487 259.208 89.7474 259.208C89.15 259.208 88.6034 259.064 88.1074 258.776C87.6167 258.483 87.2247 258.091 86.9314 257.6C86.6434 257.109 86.4994 256.563 86.4994 255.96ZM95.1788 259V251H96.5228V252C96.8054 251.627 97.1628 251.331 97.5948 251.112C98.0268 250.888 98.4961 250.776 99.0028 250.776C99.3121 250.776 99.6108 250.816 99.8988 250.896L99.3548 252.24C99.1361 252.171 98.9228 252.136 98.7148 252.136C98.3148 252.136 97.9468 252.235 97.6108 252.432C97.2801 252.624 97.0161 252.885 96.8188 253.216C96.6214 253.547 96.5228 253.915 96.5228 254.32V259H95.1788ZM106.682 249.024V251H109.026V252.344H106.682V259H105.338V252.344H104.306V251H105.338V249.024C105.338 248.613 105.437 248.243 105.634 247.912C105.837 247.576 106.106 247.309 106.442 247.112C106.784 246.909 107.157 246.808 107.562 246.808C107.861 246.808 108.152 246.869 108.434 246.992C108.717 247.109 108.968 247.285 109.186 247.52L108.226 248.472C108.152 248.371 108.053 248.293 107.93 248.24C107.813 248.181 107.69 248.152 107.562 248.152C107.322 248.152 107.114 248.237 106.938 248.408C106.768 248.579 106.682 248.784 106.682 249.024ZM113.652 259.208C112.916 259.208 112.244 259.019 111.636 258.64C111.033 258.261 110.551 257.755 110.188 257.12C109.831 256.48 109.652 255.773 109.652 255C109.652 254.413 109.756 253.867 109.964 253.36C110.172 252.848 110.457 252.4 110.82 252.016C111.188 251.627 111.615 251.323 112.1 251.104C112.585 250.885 113.103 250.776 113.652 250.776C114.388 250.776 115.057 250.965 115.66 251.344C116.268 251.723 116.751 252.232 117.108 252.872C117.471 253.512 117.652 254.221 117.652 255C117.652 255.581 117.548 256.125 117.34 256.632C117.132 257.139 116.844 257.587 116.476 257.976C116.113 258.36 115.689 258.661 115.204 258.88C114.724 259.099 114.207 259.208 113.652 259.208ZM113.652 257.864C114.153 257.864 114.604 257.733 115.004 257.472C115.409 257.205 115.727 256.856 115.956 256.424C116.191 255.987 116.308 255.512 116.308 255C116.308 254.477 116.188 253.997 115.948 253.56C115.713 253.123 115.396 252.773 114.996 252.512C114.596 252.251 114.148 252.12 113.652 252.12C113.151 252.12 112.7 252.253 112.3 252.52C111.9 252.781 111.583 253.131 111.348 253.568C111.113 254.005 110.996 254.483 110.996 255C110.996 255.533 111.116 256.019 111.356 256.456C111.596 256.888 111.919 257.232 112.324 257.488C112.729 257.739 113.172 257.864 113.652 257.864ZM118.546 255.96V251H119.89V255.664C119.89 256.069 119.989 256.437 120.186 256.768C120.384 257.099 120.648 257.363 120.978 257.56C121.314 257.752 121.682 257.848 122.082 257.848C122.488 257.848 122.853 257.752 123.178 257.56C123.509 257.363 123.773 257.099 123.97 256.768C124.168 256.437 124.266 256.069 124.266 255.664V251H125.61L125.618 259H124.274L124.266 257.984C123.984 258.357 123.626 258.656 123.194 258.88C122.762 259.099 122.296 259.208 121.794 259.208C121.197 259.208 120.65 259.064 120.154 258.776C119.664 258.483 119.272 258.091 118.978 257.6C118.69 257.109 118.546 256.563 118.546 255.96ZM127.226 259V251H128.57V252C128.852 251.627 129.21 251.331 129.642 251.112C130.074 250.888 130.543 250.776 131.05 250.776C131.359 250.776 131.658 250.816 131.946 250.896L131.402 252.24C131.183 252.171 130.97 252.136 130.762 252.136C130.362 252.136 129.994 252.235 129.658 252.432C129.327 252.624 129.063 252.885 128.866 253.216C128.668 253.547 128.57 253.915 128.57 254.32V259H127.226ZM143.353 247H144.697V259H143.353V257.64C143.081 258.109 142.716 258.488 142.257 258.776C141.798 259.064 141.26 259.208 140.641 259.208C140.06 259.208 139.516 259.099 139.009 258.88C138.502 258.661 138.054 258.36 137.665 257.976C137.281 257.587 136.98 257.139 136.761 256.632C136.542 256.125 136.433 255.581 136.433 255C136.433 254.419 136.542 253.875 136.761 253.368C136.98 252.856 137.281 252.408 137.665 252.024C138.054 251.635 138.502 251.331 139.009 251.112C139.516 250.893 140.06 250.784 140.641 250.784C141.26 250.784 141.798 250.928 142.257 251.216C142.716 251.504 143.081 251.883 143.353 252.352V247ZM140.657 257.904C141.185 257.904 141.641 257.776 142.025 257.52C142.414 257.259 142.713 256.907 142.921 256.464C143.134 256.021 143.241 255.533 143.241 255C143.241 254.456 143.134 253.965 142.921 253.528C142.708 253.085 142.406 252.736 142.017 252.48C141.633 252.219 141.18 252.088 140.657 252.088C140.129 252.088 139.649 252.219 139.217 252.48C138.79 252.741 138.449 253.093 138.193 253.536C137.937 253.973 137.809 254.461 137.809 255C137.809 255.539 137.94 256.029 138.201 256.472C138.462 256.909 138.809 257.259 139.241 257.52C139.673 257.776 140.145 257.904 140.657 257.904ZM146.616 251H147.96V259H146.616V251ZM147.304 249.696C147.091 249.696 146.912 249.627 146.768 249.488C146.624 249.349 146.552 249.176 146.552 248.968C146.552 248.76 146.624 248.587 146.768 248.448C146.912 248.309 147.088 248.24 147.296 248.24C147.504 248.24 147.68 248.309 147.824 248.448C147.968 248.587 148.04 248.76 148.04 248.968C148.04 249.176 147.968 249.349 147.824 249.488C147.686 249.627 147.512 249.696 147.304 249.696ZM156.021 251H157.365V259.256C157.365 259.784 157.25 260.275 157.021 260.728C156.797 261.187 156.493 261.584 156.109 261.92C155.725 262.261 155.287 262.525 154.797 262.712C154.306 262.904 153.794 263 153.261 263C152.706 263 152.17 262.875 151.653 262.624C151.135 262.379 150.682 262.048 150.293 261.632C149.909 261.221 149.631 260.76 149.461 260.248L150.693 259.688C150.794 260.056 150.975 260.387 151.237 260.68C151.503 260.979 151.813 261.213 152.165 261.384C152.522 261.56 152.887 261.648 153.261 261.648C153.613 261.648 153.951 261.587 154.277 261.464C154.607 261.341 154.903 261.171 155.165 260.952C155.431 260.739 155.639 260.485 155.789 260.192C155.943 259.904 156.021 259.592 156.021 259.256V257.664C155.749 258.123 155.389 258.496 154.941 258.784C154.498 259.067 153.981 259.208 153.389 259.208C152.823 259.208 152.293 259.099 151.797 258.88C151.301 258.661 150.866 258.36 150.493 257.976C150.119 257.587 149.826 257.139 149.613 256.632C149.399 256.125 149.293 255.581 149.293 255C149.293 254.419 149.399 253.875 149.613 253.368C149.826 252.856 150.119 252.408 150.493 252.024C150.866 251.635 151.301 251.331 151.797 251.112C152.293 250.893 152.823 250.784 153.389 250.784C153.981 250.784 154.498 250.925 154.941 251.208C155.389 251.491 155.749 251.864 156.021 252.328V251ZM153.397 257.904C153.914 257.904 154.362 257.771 154.741 257.504C155.125 257.237 155.421 256.883 155.629 256.44C155.837 255.997 155.941 255.517 155.941 255C155.941 254.467 155.834 253.981 155.621 253.544C155.413 253.101 155.117 252.749 154.733 252.488C154.354 252.221 153.909 252.088 153.397 252.088C152.895 252.088 152.437 252.219 152.021 252.48C151.605 252.741 151.274 253.093 151.029 253.536C150.789 253.973 150.669 254.461 150.669 255C150.669 255.539 150.791 256.029 151.037 256.472C151.287 256.909 151.618 257.259 152.029 257.52C152.445 257.776 152.901 257.904 153.397 257.904ZM159.179 251H160.523V259H159.179V251ZM159.867 249.696C159.653 249.696 159.475 249.627 159.331 249.488C159.187 249.349 159.115 249.176 159.115 248.968C159.115 248.76 159.187 248.587 159.331 248.448C159.475 248.309 159.651 248.24 159.859 248.24C160.067 248.24 160.243 248.309 160.387 248.448C160.531 248.587 160.603 248.76 160.603 248.968C160.603 249.176 160.531 249.349 160.387 249.488C160.248 249.627 160.075 249.696 159.867 249.696ZM166.588 252.344H164.772L164.764 259H163.42L163.428 252.344H162.052V251H163.428L163.42 248.488H164.764L164.772 251H166.588V252.344ZM176.01 252.344H174.194L174.186 259H172.842L172.85 252.344H171.474V251H172.85L172.842 248.488H174.186L174.194 251H176.01V252.344ZM177.444 259V251H178.788V252C179.071 251.627 179.428 251.331 179.86 251.112C180.292 250.888 180.762 250.776 181.268 250.776C181.578 250.776 181.876 250.816 182.164 250.896L181.62 252.24C181.402 252.171 181.188 252.136 180.98 252.136C180.58 252.136 180.212 252.235 179.876 252.432C179.546 252.624 179.282 252.885 179.084 253.216C178.887 253.547 178.788 253.915 178.788 254.32V259H177.444ZM189.173 251H190.517V259H189.173L189.117 257.648C188.867 258.112 188.52 258.488 188.077 258.776C187.64 259.064 187.117 259.208 186.509 259.208C185.923 259.208 185.373 259.099 184.861 258.88C184.349 258.656 183.896 258.349 183.501 257.96C183.112 257.565 182.808 257.112 182.589 256.6C182.371 256.088 182.261 255.536 182.261 254.944C182.261 254.373 182.368 253.835 182.581 253.328C182.795 252.821 183.091 252.379 183.469 252C183.853 251.616 184.296 251.317 184.797 251.104C185.299 250.885 185.837 250.776 186.413 250.776C187.043 250.776 187.595 250.925 188.069 251.224C188.544 251.517 188.928 251.899 189.221 252.368L189.173 251ZM186.485 257.904C187.013 257.904 187.469 257.776 187.853 257.52C188.243 257.259 188.541 256.907 188.749 256.464C188.963 256.021 189.069 255.533 189.069 255C189.069 254.456 188.963 253.965 188.749 253.528C188.536 253.085 188.235 252.736 187.845 252.48C187.461 252.219 187.008 252.088 186.485 252.088C185.957 252.088 185.477 252.219 185.045 252.48C184.613 252.741 184.269 253.093 184.013 253.536C183.763 253.973 183.637 254.461 183.637 255C183.637 255.539 183.768 256.029 184.029 256.472C184.291 256.909 184.637 257.259 185.069 257.52C185.501 257.776 185.973 257.904 186.485 257.904ZM199.188 254.024V259H197.844V254.32C197.844 253.915 197.746 253.547 197.548 253.216C197.351 252.885 197.087 252.624 196.756 252.432C196.426 252.235 196.058 252.136 195.652 252.136C195.252 252.136 194.884 252.235 194.548 252.432C194.218 252.624 193.954 252.885 193.756 253.216C193.559 253.547 193.46 253.915 193.46 254.32V259H192.116V251H193.46V252C193.743 251.627 194.1 251.331 194.532 251.112C194.964 250.888 195.434 250.776 195.94 250.776C196.538 250.776 197.082 250.923 197.572 251.216C198.068 251.504 198.46 251.893 198.748 252.384C199.042 252.875 199.188 253.421 199.188 254.024ZM203.228 259.152C202.796 259.136 202.375 259.056 201.964 258.912C201.559 258.763 201.201 258.563 200.892 258.312C200.588 258.056 200.367 257.763 200.228 257.432L201.38 256.936C201.46 257.117 201.604 257.288 201.812 257.448C202.02 257.608 202.26 257.736 202.532 257.832C202.804 257.928 203.079 257.976 203.356 257.976C203.649 257.976 203.924 257.931 204.18 257.84C204.436 257.749 204.644 257.616 204.804 257.44C204.969 257.259 205.052 257.043 205.052 256.792C205.052 256.525 204.961 256.317 204.78 256.168C204.604 256.013 204.38 255.893 204.108 255.808C203.841 255.717 203.569 255.632 203.292 255.552C202.743 255.413 202.252 255.248 201.82 255.056C201.388 254.859 201.047 254.611 200.796 254.312C200.551 254.008 200.428 253.621 200.428 253.152C200.428 252.656 200.564 252.227 200.836 251.864C201.113 251.501 201.476 251.221 201.924 251.024C202.372 250.827 202.852 250.728 203.364 250.728C204.009 250.728 204.599 250.867 205.132 251.144C205.665 251.421 206.063 251.797 206.324 252.272L205.244 252.904C205.153 252.712 205.015 252.544 204.828 252.4C204.641 252.251 204.428 252.133 204.188 252.048C203.948 251.963 203.703 251.917 203.452 251.912C203.143 251.901 202.852 251.941 202.58 252.032C202.313 252.123 202.097 252.261 201.932 252.448C201.772 252.629 201.692 252.856 201.692 253.128C201.692 253.395 201.777 253.597 201.948 253.736C202.124 253.875 202.351 253.987 202.628 254.072C202.911 254.152 203.217 254.245 203.548 254.352C204.033 254.507 204.487 254.685 204.908 254.888C205.329 255.091 205.668 255.344 205.924 255.648C206.185 255.952 206.313 256.328 206.308 256.776C206.308 257.267 206.161 257.696 205.868 258.064C205.575 258.427 205.193 258.704 204.724 258.896C204.26 259.088 203.761 259.173 203.228 259.152ZM214.033 251H215.377V259H214.033L213.977 257.648C213.726 258.112 213.379 258.488 212.937 258.776C212.499 259.064 211.977 259.208 211.369 259.208C210.782 259.208 210.233 259.099 209.721 258.88C209.209 258.656 208.755 258.349 208.361 257.96C207.971 257.565 207.667 257.112 207.449 256.6C207.23 256.088 207.121 255.536 207.121 254.944C207.121 254.373 207.227 253.835 207.441 253.328C207.654 252.821 207.95 252.379 208.329 252C208.713 251.616 209.155 251.317 209.657 251.104C210.158 250.885 210.697 250.776 211.273 250.776C211.902 250.776 212.454 250.925 212.929 251.224C213.403 251.517 213.787 251.899 214.081 252.368L214.033 251ZM211.345 257.904C211.873 257.904 212.329 257.776 212.713 257.52C213.102 257.259 213.401 256.907 213.609 256.464C213.822 256.021 213.929 255.533 213.929 255C213.929 254.456 213.822 253.965 213.609 253.528C213.395 253.085 213.094 252.736 212.705 252.48C212.321 252.219 211.867 252.088 211.345 252.088C210.817 252.088 210.337 252.219 209.905 252.48C209.473 252.741 209.129 253.093 208.873 253.536C208.622 253.973 208.497 254.461 208.497 255C208.497 255.539 208.627 256.029 208.889 256.472C209.15 256.909 209.497 257.259 209.929 257.52C210.361 257.776 210.833 257.904 211.345 257.904ZM222.331 256.888L223.531 257.536C223.169 258.043 222.707 258.448 222.147 258.752C221.593 259.056 220.99 259.208 220.339 259.208C219.603 259.208 218.931 259.019 218.323 258.64C217.721 258.261 217.238 257.755 216.875 257.12C216.518 256.48 216.339 255.773 216.339 255C216.339 254.413 216.443 253.867 216.651 253.36C216.859 252.848 217.145 252.4 217.507 252.016C217.875 251.627 218.302 251.323 218.787 251.104C219.273 250.885 219.79 250.776 220.339 250.776C220.99 250.776 221.593 250.928 222.147 251.232C222.707 251.536 223.169 251.944 223.531 252.456L222.331 253.104C222.075 252.789 221.771 252.547 221.419 252.376C221.067 252.205 220.707 252.12 220.339 252.12C219.843 252.12 219.393 252.253 218.987 252.52C218.587 252.781 218.27 253.131 218.035 253.568C217.801 254.005 217.683 254.483 217.683 255C217.683 255.517 217.801 255.995 218.035 256.432C218.275 256.864 218.595 257.211 218.995 257.472C219.401 257.733 219.849 257.864 220.339 257.864C220.734 257.864 221.105 257.773 221.451 257.592C221.798 257.411 222.091 257.176 222.331 256.888ZM229.12 252.344H227.304L227.296 259H225.952L225.96 252.344H224.584V251H225.96L225.952 248.488H227.296L227.304 251H229.12V252.344ZM230.476 251H231.82V259H230.476V251ZM231.164 249.696C230.95 249.696 230.772 249.627 230.628 249.488C230.484 249.349 230.412 249.176 230.412 248.968C230.412 248.76 230.484 248.587 230.628 248.448C230.772 248.309 230.948 248.24 231.156 248.24C231.364 248.24 231.54 248.309 231.684 248.448C231.828 248.587 231.9 248.76 231.9 248.968C231.9 249.176 231.828 249.349 231.684 249.488C231.545 249.627 231.372 249.696 231.164 249.696ZM237.152 259.208C236.416 259.208 235.744 259.019 235.136 258.64C234.533 258.261 234.051 257.755 233.688 257.12C233.331 256.48 233.152 255.773 233.152 255C233.152 254.413 233.256 253.867 233.464 253.36C233.672 252.848 233.957 252.4 234.32 252.016C234.688 251.627 235.115 251.323 235.6 251.104C236.085 250.885 236.603 250.776 237.152 250.776C237.888 250.776 238.557 250.965 239.16 251.344C239.768 251.723 240.251 252.232 240.608 252.872C240.971 253.512 241.152 254.221 241.152 255C241.152 255.581 241.048 256.125 240.84 256.632C240.632 257.139 240.344 257.587 239.976 257.976C239.613 258.36 239.189 258.661 238.704 258.88C238.224 259.099 237.707 259.208 237.152 259.208ZM237.152 257.864C237.653 257.864 238.104 257.733 238.504 257.472C238.909 257.205 239.227 256.856 239.456 256.424C239.691 255.987 239.808 255.512 239.808 255C239.808 254.477 239.688 253.997 239.448 253.56C239.213 253.123 238.896 252.773 238.496 252.512C238.096 252.251 237.648 252.12 237.152 252.12C236.651 252.12 236.2 252.253 235.8 252.52C235.4 252.781 235.083 253.131 234.848 253.568C234.613 254.005 234.496 254.483 234.496 255C234.496 255.533 234.616 256.019 234.856 256.456C235.096 256.888 235.419 257.232 235.824 257.488C236.229 257.739 236.672 257.864 237.152 257.864ZM249.548 254.024V259H248.204V254.32C248.204 253.915 248.105 253.547 247.908 253.216C247.71 252.885 247.446 252.624 247.116 252.432C246.785 252.235 246.417 252.136 246.012 252.136C245.612 252.136 245.244 252.235 244.908 252.432C244.577 252.624 244.313 252.885 244.116 253.216C243.918 253.547 243.82 253.915 243.82 254.32V259H242.476V251H243.82V252C244.102 251.627 244.46 251.331 244.892 251.112C245.324 250.888 245.793 250.776 246.3 250.776C246.897 250.776 247.441 250.923 247.932 251.216C248.428 251.504 248.82 251.893 249.108 252.384C249.401 252.875 249.548 253.421 249.548 254.024ZM256.335 263H254.991V251H256.335V252.368C256.607 251.899 256.97 251.52 257.423 251.232C257.877 250.939 258.415 250.792 259.039 250.792C259.621 250.792 260.165 250.901 260.671 251.12C261.183 251.339 261.631 251.643 262.015 252.032C262.399 252.416 262.701 252.861 262.919 253.368C263.138 253.875 263.247 254.419 263.247 255C263.247 255.581 263.138 256.128 262.919 256.64C262.701 257.152 262.399 257.603 262.015 257.992C261.631 258.376 261.183 258.677 260.671 258.896C260.165 259.115 259.621 259.224 259.039 259.224C258.415 259.224 257.877 259.08 257.423 258.792C256.97 258.499 256.607 258.117 256.335 257.648V263ZM259.023 252.096C258.506 252.096 258.053 252.227 257.663 252.488C257.274 252.749 256.973 253.099 256.759 253.536C256.551 253.973 256.447 254.461 256.447 255C256.447 255.533 256.551 256.021 256.759 256.464C256.973 256.907 257.271 257.259 257.655 257.52C258.045 257.781 258.501 257.912 259.023 257.912C259.541 257.912 260.015 257.784 260.447 257.528C260.879 257.267 261.226 256.917 261.487 256.48C261.749 256.037 261.879 255.544 261.879 255C261.879 254.467 261.751 253.981 261.495 253.544C261.239 253.101 260.895 252.749 260.463 252.488C260.031 252.227 259.551 252.096 259.023 252.096ZM264.476 251H265.82V259H264.476V251ZM265.164 249.696C264.95 249.696 264.772 249.627 264.628 249.488C264.484 249.349 264.412 249.176 264.412 248.968C264.412 248.76 264.484 248.587 264.628 248.448C264.772 248.309 264.948 248.24 265.156 248.24C265.364 248.24 265.54 248.309 265.684 248.448C265.828 248.587 265.9 248.76 265.9 248.968C265.9 249.176 265.828 249.349 265.684 249.488C265.545 249.627 265.372 249.696 265.164 249.696ZM274.766 254.024V259H273.422V254.32C273.422 253.915 273.324 253.547 273.126 253.216C272.929 252.885 272.665 252.624 272.334 252.432C272.004 252.235 271.636 252.136 271.23 252.136C270.83 252.136 270.462 252.235 270.126 252.432C269.796 252.624 269.532 252.885 269.334 253.216C269.137 253.547 269.038 253.915 269.038 254.32V259H267.694V251H269.038V252C269.321 251.627 269.678 251.331 270.11 251.112C270.542 250.888 271.012 250.776 271.518 250.776C272.116 250.776 272.66 250.923 273.15 251.216C273.646 251.504 274.038 251.893 274.326 252.384C274.62 252.875 274.766 253.421 274.766 254.024Z" fill="#838BA1"/>
<g clip-path="url(#clip1_70_1180)">
<rect x="31.5" y="125.5" width="40" height="40" rx="11.5" fill="white" stroke="#E8ECF4"/>
<path d="M54.1576 138.367C54.0656 138.275 53.9564 138.202 53.8362 138.152C53.716 138.102 53.5871 138.076 53.4569 138.076C53.3268 138.076 53.1979 138.102 53.0777 138.152C52.9574 138.202 52.8482 138.275 52.7563 138.367L46.1776 144.946C46.1042 145.019 46.0459 145.106 46.0062 145.202C45.9665 145.298 45.946 145.4 45.946 145.504C45.946 145.608 45.9665 145.71 46.0062 145.806C46.0459 145.902 46.1042 145.989 46.1776 146.062L52.7563 152.641C53.1442 153.029 53.7696 153.029 54.1576 152.641C54.5455 152.253 54.5455 151.628 54.1576 151.24L48.4259 145.5L54.1655 139.76C54.5455 139.38 54.5455 138.747 54.1576 138.367Z" fill="#1E232C" stroke="#1E232C" stroke-width="0.2"/>
</g>
<path d="M301.872 346.5H355C359.142 346.5 362.5 349.858 362.5 354V398C362.5 402.142 359.142 405.5 355 405.5H301.872C297.73 405.5 294.372 402.142 294.372 398V354C294.372 349.858 297.73 346.5 301.872 346.5Z" fill="#F7F8F9" stroke="#E8ECF4"/>
<rect x="207.415" y="346.5" width="68.1278" height="59" rx="7.5" fill="white" stroke="#35C2C1"/>
<path d="M242.208 384.286C241.314 384.286 240.5 384.081 239.766 383.67C239.033 383.252 238.399 382.676 237.863 381.943C237.335 381.21 236.928 380.363 236.642 379.402C236.356 378.434 236.213 377.4 236.213 376.3C236.213 375.2 236.356 374.17 236.642 373.209C236.928 372.241 237.335 371.39 237.863 370.657C238.399 369.924 239.033 369.352 239.766 368.941C240.5 368.523 241.314 368.314 242.208 368.314C243.103 368.314 243.917 368.523 244.65 368.941C245.384 369.352 246.011 369.924 246.531 370.657C247.059 371.39 247.466 372.241 247.752 373.209C248.046 374.17 248.192 375.2 248.192 376.3C248.192 377.4 248.046 378.434 247.752 379.402C247.466 380.363 247.059 381.21 246.531 381.943C246.011 382.676 245.384 383.252 244.65 383.67C243.917 384.081 243.103 384.286 242.208 384.286ZM242.208 381.602C242.993 381.602 243.642 381.353 244.155 380.854C244.669 380.355 245.05 379.703 245.299 378.896C245.549 378.089 245.673 377.224 245.673 376.3C245.673 375.325 245.541 374.437 245.277 373.638C245.013 372.831 244.625 372.19 244.111 371.713C243.598 371.236 242.964 370.998 242.208 370.998C241.614 370.998 241.097 371.145 240.657 371.438C240.225 371.724 239.865 372.116 239.579 372.615C239.293 373.114 239.081 373.682 238.941 374.32C238.802 374.951 238.732 375.611 238.732 376.3C238.732 377.217 238.857 378.082 239.106 378.896C239.363 379.703 239.748 380.355 240.261 380.854C240.782 381.353 241.431 381.602 242.208 381.602Z" fill="#1E232C"/>
<rect x="33.6" y="346.6" width="67.9278" height="58.8" rx="7.4" fill="white" stroke="#35C2C1" stroke-width="1.2"/>
<path d="M62.5187 384V381.602C62.9953 381.243 63.56 380.799 64.2127 380.271C64.8653 379.736 65.5363 379.16 66.2257 378.544C66.915 377.921 67.553 377.297 68.1397 376.674C68.7263 376.051 69.203 375.457 69.5697 374.892C69.9437 374.327 70.1307 373.843 70.1307 373.44C70.1307 372.993 70.0207 372.586 69.8007 372.219C69.5807 371.845 69.2873 371.548 68.9207 371.328C68.5613 371.108 68.158 370.998 67.7107 370.998C67.2633 370.998 66.8563 371.108 66.4897 371.328C66.123 371.548 65.8297 371.845 65.6097 372.219C65.3897 372.586 65.2797 372.993 65.2797 373.44H62.5957C62.5957 372.472 62.8303 371.603 63.2997 370.833C63.769 370.056 64.3887 369.443 65.1587 368.996C65.936 368.541 66.7867 368.314 67.7107 368.314C68.6493 368.314 69.5037 368.545 70.2737 369.007C71.0437 369.462 71.6597 370.078 72.1217 370.855C72.5837 371.632 72.8147 372.494 72.8147 373.44C72.8147 373.939 72.723 374.441 72.5397 374.947C72.3563 375.453 72.0997 375.963 71.7697 376.476C71.4397 376.989 71.051 377.51 70.6037 378.038C70.1563 378.559 69.6613 379.094 69.1187 379.644C68.5833 380.187 68.0187 380.744 67.4247 381.316H72.8917V384H62.5187Z" fill="#1E232C"/>
<rect x="120.767" y="346.6" width="67.9278" height="58.8" rx="7.4" fill="white" stroke="#35C2C1" stroke-width="1.2"/>
<path d="M153.597 384V371.284H151.661L152.387 368.6H156.281V384H153.597Z" fill="#1E232C"/>
<rect x="33" y="436" width="330" height="56" rx="8" fill="#1E232C"/>
<path d="M177.314 469.195C176.604 469.195 175.937 469.055 175.312 468.775C174.687 468.49 174.137 468.1 173.662 467.605C173.192 467.105 172.822 466.525 172.552 465.865C172.287 465.205 172.154 464.5 172.154 463.75C172.154 463 172.287 462.295 172.552 461.635C172.822 460.975 173.192 460.397 173.662 459.902C174.137 459.402 174.687 459.012 175.312 458.732C175.937 458.447 176.604 458.305 177.314 458.305C178.164 458.305 178.947 458.502 179.662 458.897C180.377 459.292 180.969 459.817 181.439 460.472L180.052 461.215C179.727 460.805 179.324 460.477 178.844 460.232C178.364 459.987 177.854 459.865 177.314 459.865C176.814 459.865 176.347 459.967 175.912 460.172C175.477 460.377 175.094 460.657 174.764 461.012C174.434 461.367 174.177 461.78 173.992 462.25C173.807 462.72 173.714 463.22 173.714 463.75C173.714 464.285 173.807 464.787 173.992 465.257C174.177 465.722 174.434 466.135 174.764 466.495C175.099 466.85 175.484 467.13 175.919 467.335C176.354 467.535 176.819 467.635 177.314 467.635C177.864 467.635 178.377 467.512 178.852 467.267C179.332 467.017 179.732 466.687 180.052 466.277L181.439 467.035C180.969 467.69 180.377 468.215 179.662 468.61C178.947 469 178.164 469.195 177.314 469.195ZM185.803 469.195C185.113 469.195 184.483 469.017 183.913 468.662C183.348 468.307 182.896 467.832 182.556 467.237C182.221 466.637 182.053 465.975 182.053 465.25C182.053 464.7 182.151 464.187 182.346 463.712C182.541 463.232 182.808 462.812 183.148 462.452C183.493 462.087 183.893 461.802 184.348 461.597C184.803 461.392 185.288 461.29 185.803 461.29C186.493 461.29 187.121 461.467 187.686 461.822C188.256 462.177 188.708 462.655 189.043 463.255C189.383 463.855 189.553 464.52 189.553 465.25C189.553 465.795 189.456 466.305 189.261 466.78C189.066 467.255 188.796 467.675 188.451 468.04C188.111 468.4 187.713 468.682 187.258 468.887C186.808 469.093 186.323 469.195 185.803 469.195ZM185.803 467.635C186.218 467.635 186.591 467.525 186.921 467.305C187.251 467.085 187.511 466.795 187.701 466.435C187.896 466.07 187.993 465.675 187.993 465.25C187.993 464.815 187.893 464.415 187.693 464.05C187.498 463.685 187.236 463.395 186.906 463.18C186.576 462.96 186.208 462.85 185.803 462.85C185.393 462.85 185.021 462.96 184.686 463.18C184.356 463.4 184.093 463.692 183.898 464.057C183.708 464.422 183.613 464.82 183.613 465.25C183.613 465.695 183.713 466.097 183.913 466.457C184.113 466.817 184.378 467.105 184.708 467.32C185.043 467.53 185.408 467.635 185.803 467.635ZM197.515 464.297V469H195.955V464.68C195.955 464.345 195.872 464.04 195.707 463.765C195.547 463.49 195.33 463.272 195.055 463.112C194.785 462.947 194.48 462.865 194.14 462.865C193.81 462.865 193.507 462.947 193.232 463.112C192.957 463.272 192.737 463.49 192.572 463.765C192.407 464.04 192.325 464.345 192.325 464.68V469H190.765V461.5H192.325V462.295C192.585 461.985 192.905 461.74 193.285 461.56C193.665 461.38 194.075 461.29 194.515 461.29C195.07 461.29 195.575 461.425 196.03 461.695C196.485 461.965 196.845 462.327 197.11 462.782C197.38 463.237 197.515 463.742 197.515 464.297ZM200.939 459.797V461.5H203.054V463.06H200.939V469H199.379V463.06H198.487V461.5H199.379V459.797C199.379 459.387 199.479 459.015 199.679 458.68C199.879 458.34 200.147 458.07 200.482 457.87C200.822 457.67 201.199 457.57 201.614 457.57C201.914 457.57 202.207 457.63 202.492 457.75C202.777 457.87 203.032 458.055 203.257 458.305L202.139 459.407C202.084 459.317 202.007 459.25 201.907 459.205C201.812 459.155 201.714 459.13 201.614 459.13C201.429 459.13 201.269 459.195 201.134 459.325C201.004 459.455 200.939 459.612 200.939 459.797ZM204.212 461.5H205.772V469H204.212V461.5ZM205.007 460.412C204.767 460.412 204.567 460.335 204.407 460.18C204.247 460.025 204.167 459.83 204.167 459.595C204.167 459.365 204.247 459.172 204.407 459.017C204.567 458.857 204.765 458.777 205 458.777C205.23 458.777 205.425 458.857 205.585 459.017C205.745 459.172 205.825 459.365 205.825 459.595C205.825 459.83 205.745 460.025 205.585 460.18C205.43 460.335 205.237 460.412 205.007 460.412ZM207.508 469V461.5H209.068V462.295C209.328 461.985 209.648 461.74 210.028 461.56C210.408 461.38 210.818 461.29 211.258 461.29C211.538 461.29 211.815 461.327 212.09 461.402L211.468 462.977C211.273 462.902 211.078 462.865 210.883 462.865C210.553 462.865 210.25 462.947 209.975 463.112C209.7 463.272 209.48 463.49 209.315 463.765C209.15 464.04 209.068 464.345 209.068 464.68V469H207.508ZM213.016 469V461.5H214.576V462.295C214.836 461.985 215.153 461.74 215.528 461.56C215.908 461.38 216.318 461.29 216.758 461.29C217.293 461.29 217.786 461.42 218.236 461.68C218.686 461.935 219.043 462.275 219.308 462.7C219.573 462.275 219.926 461.935 220.366 461.68C220.811 461.42 221.301 461.29 221.836 461.29C222.391 461.29 222.896 461.425 223.351 461.695C223.806 461.965 224.168 462.327 224.438 462.782C224.708 463.237 224.843 463.742 224.843 464.297V469H223.283V464.695C223.283 464.365 223.203 464.062 223.043 463.787C222.883 463.512 222.668 463.29 222.398 463.12C222.128 462.95 221.828 462.865 221.498 462.865C221.168 462.865 220.868 462.945 220.598 463.105C220.328 463.265 220.113 463.482 219.953 463.757C219.793 464.032 219.713 464.345 219.713 464.695V469H218.153V464.695C218.153 464.345 218.073 464.032 217.913 463.757C217.753 463.482 217.536 463.265 217.261 463.105C216.991 462.945 216.691 462.865 216.361 462.865C216.036 462.865 215.736 462.95 215.461 463.12C215.191 463.29 214.976 463.512 214.816 463.787C214.656 464.062 214.576 464.365 214.576 464.695V469H213.016Z" fill="white"/>
<path d="M99.2212 831V820.5H102.694C103.419 820.5 104.099 820.637 104.734 820.912C105.369 821.182 105.926 821.56 106.406 822.045C106.886 822.525 107.261 823.082 107.531 823.717C107.806 824.347 107.944 825.025 107.944 825.75C107.944 826.475 107.806 827.155 107.531 827.79C107.261 828.42 106.886 828.977 106.406 829.462C105.926 829.942 105.369 830.32 104.734 830.595C104.099 830.865 103.419 831 102.694 831H99.2212ZM100.481 829.74H102.694C103.244 829.74 103.759 829.637 104.239 829.432C104.724 829.222 105.149 828.935 105.514 828.57C105.879 828.205 106.164 827.782 106.369 827.302C106.579 826.817 106.684 826.3 106.684 825.75C106.684 825.2 106.579 824.685 106.369 824.205C106.164 823.72 105.876 823.295 105.506 822.93C105.141 822.565 104.719 822.28 104.239 822.075C103.759 821.865 103.244 821.76 102.694 821.76H100.481V829.74ZM109.376 823.5H110.636V831H109.376V823.5ZM110.021 822.277C109.821 822.277 109.654 822.212 109.519 822.082C109.384 821.952 109.316 821.79 109.316 821.595C109.316 821.4 109.384 821.237 109.519 821.107C109.654 820.977 109.819 820.912 110.014 820.912C110.209 820.912 110.374 820.977 110.509 821.107C110.644 821.237 110.711 821.4 110.711 821.595C110.711 821.79 110.644 821.952 110.509 822.082C110.379 822.212 110.216 822.277 110.021 822.277ZM118.523 819.75H119.783V831H118.523V829.725C118.268 830.165 117.925 830.52 117.495 830.79C117.065 831.06 116.56 831.195 115.98 831.195C115.435 831.195 114.925 831.093 114.45 830.887C113.975 830.682 113.555 830.4 113.19 830.04C112.83 829.675 112.548 829.255 112.343 828.78C112.138 828.305 112.035 827.795 112.035 827.25C112.035 826.705 112.138 826.195 112.343 825.72C112.548 825.24 112.83 824.82 113.19 824.46C113.555 824.095 113.975 823.81 114.45 823.605C114.925 823.4 115.435 823.297 115.98 823.297C116.56 823.297 117.065 823.432 117.495 823.702C117.925 823.972 118.268 824.327 118.523 824.767V819.75ZM115.995 829.972C116.49 829.972 116.918 829.852 117.278 829.612C117.643 829.367 117.923 829.037 118.118 828.622C118.318 828.207 118.418 827.75 118.418 827.25C118.418 826.74 118.318 826.28 118.118 825.87C117.918 825.455 117.635 825.127 117.27 824.887C116.91 824.642 116.485 824.52 115.995 824.52C115.5 824.52 115.05 824.642 114.645 824.887C114.245 825.132 113.925 825.462 113.685 825.877C113.445 826.287 113.325 826.745 113.325 827.25C113.325 827.755 113.448 828.215 113.693 828.63C113.938 829.04 114.263 829.367 114.668 829.612C115.073 829.852 115.515 829.972 115.995 829.972ZM128.362 826.335V831H127.102V826.612C127.102 826.232 127.009 825.887 126.824 825.577C126.639 825.267 126.392 825.022 126.082 824.842C125.772 824.657 125.427 824.565 125.047 824.565C124.672 824.565 124.327 824.657 124.012 824.842C123.702 825.022 123.454 825.267 123.269 825.577C123.084 825.887 122.992 826.232 122.992 826.612V831H121.732V823.5H122.992V824.437C123.257 824.087 123.592 823.81 123.997 823.605C124.402 823.395 124.842 823.29 125.317 823.29C125.877 823.29 126.387 823.427 126.847 823.702C127.312 823.972 127.679 824.337 127.949 824.797C128.224 825.257 128.362 825.77 128.362 826.335ZM129.529 824.415L129.994 820.5H131.254L130.369 824.415H129.529ZM136.639 824.76H134.937L134.929 831H133.669L133.677 824.76H132.387V823.5H133.677L133.669 821.145H134.929L134.937 823.5H136.639V824.76ZM141.887 831V823.5H143.147V824.437C143.412 824.087 143.747 823.81 144.152 823.605C144.557 823.395 144.997 823.29 145.472 823.29C145.762 823.29 146.042 823.327 146.312 823.402L145.802 824.662C145.597 824.597 145.397 824.565 145.202 824.565C144.827 824.565 144.482 824.657 144.167 824.842C143.857 825.022 143.61 825.267 143.425 825.577C143.24 825.887 143.147 826.232 143.147 826.612V831H141.887ZM150.303 831.195C149.613 831.195 148.983 831.017 148.413 830.662C147.848 830.307 147.396 829.832 147.056 829.237C146.721 828.637 146.553 827.975 146.553 827.25C146.553 826.7 146.651 826.187 146.846 825.712C147.041 825.232 147.308 824.812 147.648 824.452C147.993 824.087 148.393 823.802 148.848 823.597C149.303 823.392 149.788 823.29 150.303 823.29C150.868 823.29 151.386 823.405 151.856 823.635C152.331 823.86 152.736 824.175 153.071 824.58C153.411 824.985 153.663 825.455 153.828 825.99C153.998 826.525 154.061 827.097 154.016 827.707H147.896C147.956 828.132 148.096 828.512 148.316 828.847C148.536 829.177 148.816 829.44 149.156 829.635C149.501 829.83 149.883 829.93 150.303 829.935C150.753 829.935 151.161 829.82 151.526 829.59C151.891 829.355 152.186 829.035 152.411 828.63L153.693 828.93C153.393 829.595 152.941 830.14 152.336 830.565C151.731 830.985 151.053 831.195 150.303 831.195ZM147.858 826.717H152.748C152.708 826.297 152.573 825.915 152.343 825.57C152.113 825.22 151.821 824.94 151.466 824.73C151.111 824.52 150.723 824.415 150.303 824.415C149.883 824.415 149.498 824.517 149.148 824.722C148.798 824.927 148.508 825.205 148.278 825.555C148.053 825.9 147.913 826.287 147.858 826.717ZM160.553 829.02L161.678 829.627C161.338 830.102 160.906 830.482 160.381 830.767C159.861 831.052 159.296 831.195 158.686 831.195C157.996 831.195 157.366 831.017 156.796 830.662C156.231 830.307 155.778 829.832 155.438 829.237C155.103 828.637 154.936 827.975 154.936 827.25C154.936 826.7 155.033 826.187 155.228 825.712C155.423 825.232 155.691 824.812 156.031 824.452C156.376 824.087 156.776 823.802 157.231 823.597C157.686 823.392 158.171 823.29 158.686 823.29C159.296 823.29 159.861 823.432 160.381 823.717C160.906 824.002 161.338 824.385 161.678 824.865L160.553 825.472C160.313 825.177 160.028 824.95 159.698 824.79C159.368 824.63 159.031 824.55 158.686 824.55C158.221 824.55 157.798 824.675 157.418 824.925C157.043 825.17 156.746 825.497 156.526 825.907C156.306 826.317 156.196 826.765 156.196 827.25C156.196 827.735 156.306 828.182 156.526 828.592C156.751 828.997 157.051 829.322 157.426 829.567C157.806 829.812 158.226 829.935 158.686 829.935C159.056 829.935 159.403 829.85 159.728 829.68C160.053 829.51 160.328 829.29 160.553 829.02ZM166.35 831.195C165.66 831.195 165.03 831.017 164.46 830.662C163.895 830.307 163.443 829.832 163.103 829.237C162.768 828.637 162.6 827.975 162.6 827.25C162.6 826.7 162.698 826.187 162.893 825.712C163.088 825.232 163.355 824.812 163.695 824.452C164.04 824.087 164.44 823.802 164.895 823.597C165.35 823.392 165.835 823.29 166.35 823.29C166.915 823.29 167.433 823.405 167.903 823.635C168.378 823.86 168.783 824.175 169.118 824.58C169.458 824.985 169.71 825.455 169.875 825.99C170.045 826.525 170.108 827.097 170.063 827.707H163.943C164.003 828.132 164.143 828.512 164.363 828.847C164.583 829.177 164.863 829.44 165.203 829.635C165.548 829.83 165.93 829.93 166.35 829.935C166.8 829.935 167.208 829.82 167.573 829.59C167.938 829.355 168.233 829.035 168.458 828.63L169.74 828.93C169.44 829.595 168.988 830.14 168.383 830.565C167.778 830.985 167.1 831.195 166.35 831.195ZM163.905 826.717H168.795C168.755 826.297 168.62 825.915 168.39 825.57C168.16 825.22 167.868 824.94 167.513 824.73C167.158 824.52 166.77 824.415 166.35 824.415C165.93 824.415 165.545 824.517 165.195 824.722C164.845 824.927 164.555 825.205 164.325 825.555C164.1 825.9 163.96 826.287 163.905 826.717ZM171.374 823.5H172.634V831H171.374V823.5ZM172.019 822.277C171.819 822.277 171.652 822.212 171.517 822.082C171.382 821.952 171.314 821.79 171.314 821.595C171.314 821.4 171.382 821.237 171.517 821.107C171.652 820.977 171.817 820.912 172.012 820.912C172.207 820.912 172.372 820.977 172.507 821.107C172.642 821.237 172.709 821.4 172.709 821.595C172.709 821.79 172.642 821.952 172.507 822.082C172.377 822.212 172.214 822.277 172.019 822.277ZM178.354 831H176.741L174.004 823.485H175.346L177.544 829.537L179.741 823.485H181.084L178.354 831ZM185.462 831.195C184.772 831.195 184.142 831.017 183.572 830.662C183.007 830.307 182.555 829.832 182.215 829.237C181.88 828.637 181.712 827.975 181.712 827.25C181.712 826.7 181.81 826.187 182.005 825.712C182.2 825.232 182.467 824.812 182.807 824.452C183.152 824.087 183.552 823.802 184.007 823.597C184.462 823.392 184.947 823.29 185.462 823.29C186.027 823.29 186.545 823.405 187.015 823.635C187.49 823.86 187.895 824.175 188.23 824.58C188.57 824.985 188.822 825.455 188.987 825.99C189.157 826.525 189.22 827.097 189.175 827.707H183.055C183.115 828.132 183.255 828.512 183.475 828.847C183.695 829.177 183.975 829.44 184.315 829.635C184.66 829.83 185.042 829.93 185.462 829.935C185.912 829.935 186.32 829.82 186.685 829.59C187.05 829.355 187.345 829.035 187.57 828.63L188.852 828.93C188.552 829.595 188.1 830.14 187.495 830.565C186.89 830.985 186.212 831.195 185.462 831.195ZM183.017 826.717H187.907C187.867 826.297 187.732 825.915 187.502 825.57C187.272 825.22 186.98 824.94 186.625 824.73C186.27 824.52 185.882 824.415 185.462 824.415C185.042 824.415 184.657 824.517 184.307 824.722C183.957 824.927 183.667 825.205 183.437 825.555C183.212 825.9 183.072 826.287 183.017 826.717ZM196.582 819.75H197.842V831H196.582V829.725C196.327 830.165 195.985 830.52 195.555 830.79C195.125 831.06 194.62 831.195 194.04 831.195C193.495 831.195 192.985 831.093 192.51 830.887C192.035 830.682 191.615 830.4 191.25 830.04C190.89 829.675 190.607 829.255 190.402 828.78C190.197 828.305 190.095 827.795 190.095 827.25C190.095 826.705 190.197 826.195 190.402 825.72C190.607 825.24 190.89 824.82 191.25 824.46C191.615 824.095 192.035 823.81 192.51 823.605C192.985 823.4 193.495 823.297 194.04 823.297C194.62 823.297 195.125 823.432 195.555 823.702C195.985 823.972 196.327 824.327 196.582 824.767V819.75ZM194.055 829.972C194.55 829.972 194.977 829.852 195.337 829.612C195.702 829.367 195.982 829.037 196.177 828.622C196.377 828.207 196.477 827.75 196.477 827.25C196.477 826.74 196.377 826.28 196.177 825.87C195.977 825.455 195.695 825.127 195.33 824.887C194.97 824.642 194.545 824.52 194.055 824.52C193.56 824.52 193.11 824.642 192.705 824.887C192.305 825.132 191.985 825.462 191.745 825.877C191.505 826.287 191.385 826.745 191.385 827.25C191.385 827.755 191.507 828.215 191.752 828.63C191.997 829.04 192.322 829.367 192.727 829.612C193.132 829.852 193.575 829.972 194.055 829.972ZM208.713 829.02L209.838 829.627C209.498 830.102 209.065 830.482 208.54 830.767C208.02 831.052 207.455 831.195 206.845 831.195C206.155 831.195 205.525 831.017 204.955 830.662C204.39 830.307 203.938 829.832 203.598 829.237C203.263 828.637 203.095 827.975 203.095 827.25C203.095 826.7 203.193 826.187 203.388 825.712C203.583 825.232 203.85 824.812 204.19 824.452C204.535 824.087 204.935 823.802 205.39 823.597C205.845 823.392 206.33 823.29 206.845 823.29C207.455 823.29 208.02 823.432 208.54 823.717C209.065 824.002 209.498 824.385 209.838 824.865L208.713 825.472C208.473 825.177 208.188 824.95 207.858 824.79C207.528 824.63 207.19 824.55 206.845 824.55C206.38 824.55 205.958 824.675 205.578 824.925C205.203 825.17 204.905 825.497 204.685 825.907C204.465 826.317 204.355 826.765 204.355 827.25C204.355 827.735 204.465 828.182 204.685 828.592C204.91 828.997 205.21 829.322 205.585 829.567C205.965 829.812 206.385 829.935 206.845 829.935C207.215 829.935 207.563 829.85 207.888 829.68C208.213 829.51 208.488 829.29 208.713 829.02ZM214.51 831.195C213.82 831.195 213.19 831.017 212.62 830.662C212.055 830.307 211.602 829.832 211.262 829.237C210.927 828.637 210.76 827.975 210.76 827.25C210.76 826.7 210.857 826.187 211.052 825.712C211.247 825.232 211.515 824.812 211.855 824.452C212.2 824.087 212.6 823.802 213.055 823.597C213.51 823.392 213.995 823.29 214.51 823.29C215.2 823.29 215.827 823.467 216.392 823.822C216.962 824.177 217.415 824.655 217.75 825.255C218.09 825.855 218.26 826.52 218.26 827.25C218.26 827.795 218.162 828.305 217.967 828.78C217.772 829.255 217.502 829.675 217.157 830.04C216.817 830.4 216.42 830.682 215.965 830.887C215.515 831.093 215.03 831.195 214.51 831.195ZM214.51 829.935C214.98 829.935 215.402 829.812 215.777 829.567C216.157 829.317 216.455 828.99 216.67 828.585C216.89 828.175 217 827.73 217 827.25C217 826.76 216.887 826.31 216.662 825.9C216.442 825.49 216.145 825.162 215.77 824.917C215.395 824.672 214.975 824.55 214.51 824.55C214.04 824.55 213.617 824.675 213.242 824.925C212.867 825.17 212.57 825.497 212.35 825.907C212.13 826.317 212.02 826.765 212.02 827.25C212.02 827.75 212.132 828.205 212.357 828.615C212.582 829.02 212.885 829.342 213.265 829.582C213.645 829.817 214.06 829.935 214.51 829.935ZM225.644 819.75H226.904V831H225.644V829.725C225.389 830.165 225.047 830.52 224.617 830.79C224.187 831.06 223.682 831.195 223.102 831.195C222.557 831.195 222.047 831.093 221.572 830.887C221.097 830.682 220.677 830.4 220.312 830.04C219.952 829.675 219.669 829.255 219.464 828.78C219.259 828.305 219.157 827.795 219.157 827.25C219.157 826.705 219.259 826.195 219.464 825.72C219.669 825.24 219.952 824.82 220.312 824.46C220.677 824.095 221.097 823.81 221.572 823.605C222.047 823.4 222.557 823.297 223.102 823.297C223.682 823.297 224.187 823.432 224.617 823.702C225.047 823.972 225.389 824.327 225.644 824.767V819.75ZM223.117 829.972C223.612 829.972 224.039 829.852 224.399 829.612C224.764 829.367 225.044 829.037 225.239 828.622C225.439 828.207 225.539 827.75 225.539 827.25C225.539 826.74 225.439 826.28 225.239 825.87C225.039 825.455 224.757 825.127 224.392 824.887C224.032 824.642 223.607 824.52 223.117 824.52C222.622 824.52 222.172 824.642 221.767 824.887C221.367 825.132 221.047 825.462 220.807 825.877C220.567 826.287 220.447 826.745 220.447 827.25C220.447 827.755 220.569 828.215 220.814 828.63C221.059 829.04 221.384 829.367 221.789 829.612C222.194 829.852 222.637 829.972 223.117 829.972ZM232.08 831.195C231.39 831.195 230.76 831.017 230.19 830.662C229.625 830.307 229.173 829.832 228.833 829.237C228.498 828.637 228.33 827.975 228.33 827.25C228.33 826.7 228.428 826.187 228.623 825.712C228.818 825.232 229.085 824.812 229.425 824.452C229.77 824.087 230.17 823.802 230.625 823.597C231.08 823.392 231.565 823.29 232.08 823.29C232.645 823.29 233.163 823.405 233.633 823.635C234.108 823.86 234.513 824.175 234.848 824.58C235.188 824.985 235.44 825.455 235.605 825.99C235.775 826.525 235.838 827.097 235.793 827.707H229.673C229.733 828.132 229.873 828.512 230.093 828.847C230.313 829.177 230.593 829.44 230.933 829.635C231.278 829.83 231.66 829.93 232.08 829.935C232.53 829.935 232.938 829.82 233.303 829.59C233.668 829.355 233.963 829.035 234.188 828.63L235.47 828.93C235.17 829.595 234.718 830.14 234.113 830.565C233.508 830.985 232.83 831.195 232.08 831.195ZM229.635 826.717H234.525C234.485 826.297 234.35 825.915 234.12 825.57C233.89 825.22 233.598 824.94 233.243 824.73C232.888 824.52 232.5 824.415 232.08 824.415C231.66 824.415 231.275 824.517 230.925 824.722C230.575 824.927 230.285 825.205 230.055 825.555C229.83 825.9 229.69 826.287 229.635 826.717ZM239.597 827.497C239.597 826.982 239.724 826.51 239.979 826.08C240.239 825.65 240.597 825.31 241.052 825.06C241.342 824.91 241.569 824.687 241.734 824.392C241.899 824.092 241.982 823.765 241.982 823.41C241.982 823.065 241.897 822.752 241.727 822.472C241.562 822.192 241.337 821.97 241.052 821.805C240.772 821.64 240.462 821.557 240.122 821.557C239.782 821.557 239.469 821.64 239.184 821.805C238.904 821.97 238.682 822.192 238.517 822.472C238.352 822.752 238.269 823.065 238.269 823.41H237.009C237.009 822.835 237.149 822.312 237.429 821.842C237.709 821.372 238.084 820.997 238.554 820.717C239.029 820.437 239.552 820.297 240.122 820.297C240.697 820.297 241.219 820.437 241.689 820.717C242.164 820.997 242.542 821.372 242.822 821.842C243.102 822.312 243.242 822.835 243.242 823.41C243.242 823.995 243.099 824.535 242.814 825.03C242.529 825.525 242.139 825.907 241.644 826.177C241.399 826.307 241.207 826.49 241.067 826.725C240.927 826.955 240.857 827.212 240.857 827.497H239.597ZM240.227 831.195C240.032 831.195 239.867 831.128 239.732 830.992C239.597 830.852 239.529 830.687 239.529 830.497C239.529 830.307 239.597 830.147 239.732 830.017C239.867 829.882 240.032 829.815 240.227 829.815C240.417 829.815 240.579 829.882 240.714 830.017C240.849 830.147 240.917 830.307 240.917 830.497C240.917 830.687 240.849 830.852 240.714 830.992C240.579 831.128 240.417 831.195 240.227 831.195Z" fill="#1E232C"/>
<path d="M248.947 831V820.5H252.974C253.544 820.5 254.059 820.642 254.519 820.927C254.979 821.212 255.344 821.595 255.614 822.075C255.884 822.55 256.019 823.077 256.019 823.657C256.019 824.132 255.932 824.57 255.757 824.97C255.587 825.365 255.347 825.707 255.037 825.997C254.732 826.287 254.379 826.507 253.979 826.657L256.492 831H254.384L251.954 826.822H250.777V831H248.947ZM250.777 824.992H252.764C253.024 824.992 253.262 824.927 253.477 824.797C253.692 824.667 253.864 824.492 253.994 824.272C254.124 824.052 254.189 823.807 254.189 823.537C254.189 823.262 254.124 823.015 253.994 822.795C253.864 822.575 253.692 822.4 253.477 822.27C253.262 822.14 253.024 822.075 252.764 822.075H250.777V824.992ZM260.864 831.195C260.174 831.195 259.544 831.017 258.974 830.662C258.409 830.307 257.956 829.83 257.616 829.23C257.281 828.63 257.114 827.967 257.114 827.242C257.114 826.697 257.211 826.187 257.406 825.712C257.601 825.232 257.869 824.812 258.209 824.452C258.554 824.087 258.954 823.802 259.409 823.597C259.864 823.392 260.349 823.29 260.864 823.29C261.449 823.29 261.984 823.415 262.469 823.665C262.959 823.91 263.374 824.247 263.714 824.677C264.054 825.107 264.301 825.597 264.456 826.147C264.611 826.697 264.646 827.272 264.561 827.872H259.079C259.149 828.152 259.264 828.405 259.424 828.63C259.584 828.85 259.786 829.027 260.031 829.162C260.276 829.292 260.554 829.36 260.864 829.365C261.184 829.37 261.474 829.295 261.734 829.14C261.999 828.98 262.219 828.765 262.394 828.495L264.261 828.93C263.956 829.595 263.501 830.14 262.896 830.565C262.291 830.985 261.614 831.195 260.864 831.195ZM259.019 826.5H262.709C262.654 826.2 262.536 825.93 262.356 825.69C262.181 825.445 261.964 825.25 261.704 825.105C261.444 824.96 261.164 824.887 260.864 824.887C260.564 824.887 260.286 824.96 260.031 825.105C259.776 825.245 259.559 825.437 259.379 825.682C259.204 825.922 259.084 826.195 259.019 826.5ZM268.203 831.135C267.813 831.11 267.435 831.033 267.07 830.902C266.71 830.767 266.39 830.585 266.11 830.355C265.83 830.125 265.615 829.85 265.465 829.53L267.01 828.87C267.07 828.97 267.168 829.077 267.303 829.192C267.438 829.302 267.598 829.395 267.783 829.47C267.973 829.545 268.18 829.582 268.405 829.582C268.595 829.582 268.775 829.557 268.945 829.507C269.12 829.452 269.26 829.37 269.365 829.26C269.475 829.15 269.53 829.007 269.53 828.832C269.53 828.647 269.465 828.505 269.335 828.405C269.21 828.3 269.05 828.222 268.855 828.172C268.665 828.117 268.48 828.067 268.3 828.022C267.825 827.927 267.383 827.78 266.973 827.58C266.568 827.38 266.24 827.122 265.99 826.807C265.745 826.487 265.623 826.102 265.623 825.652C265.623 825.157 265.753 824.73 266.013 824.37C266.278 824.01 266.62 823.732 267.04 823.537C267.465 823.342 267.923 823.245 268.413 823.245C269.008 823.245 269.553 823.37 270.048 823.62C270.548 823.865 270.943 824.212 271.233 824.662L269.785 825.517C269.715 825.397 269.618 825.287 269.493 825.187C269.368 825.082 269.225 824.997 269.065 824.932C268.905 824.862 268.738 824.822 268.563 824.812C268.338 824.802 268.133 824.822 267.948 824.872C267.763 824.922 267.613 825.007 267.498 825.127C267.388 825.247 267.333 825.407 267.333 825.607C267.333 825.797 267.408 825.94 267.558 826.035C267.708 826.125 267.888 826.195 268.098 826.245C268.313 826.295 268.518 826.35 268.713 826.41C269.153 826.555 269.565 826.732 269.95 826.942C270.34 827.152 270.653 827.41 270.888 827.715C271.123 828.02 271.235 828.385 271.225 828.81C271.225 829.295 271.08 829.72 270.79 830.085C270.5 830.445 270.125 830.72 269.665 830.91C269.21 831.1 268.723 831.175 268.203 831.135ZM275.842 831.195C275.152 831.195 274.522 831.017 273.952 830.662C273.387 830.307 272.934 829.83 272.594 829.23C272.259 828.63 272.092 827.967 272.092 827.242C272.092 826.697 272.189 826.187 272.384 825.712C272.579 825.232 272.847 824.812 273.187 824.452C273.532 824.087 273.932 823.802 274.387 823.597C274.842 823.392 275.327 823.29 275.842 823.29C276.427 823.29 276.962 823.415 277.447 823.665C277.937 823.91 278.352 824.247 278.692 824.677C279.032 825.107 279.279 825.597 279.434 826.147C279.589 826.697 279.624 827.272 279.539 827.872H274.057C274.127 828.152 274.242 828.405 274.402 828.63C274.562 828.85 274.764 829.027 275.009 829.162C275.254 829.292 275.532 829.36 275.842 829.365C276.162 829.37 276.452 829.295 276.712 829.14C276.977 828.98 277.197 828.765 277.372 828.495L279.239 828.93C278.934 829.595 278.479 830.14 277.874 830.565C277.269 830.985 276.592 831.195 275.842 831.195ZM273.997 826.5H277.687C277.632 826.2 277.514 825.93 277.334 825.69C277.159 825.445 276.942 825.25 276.682 825.105C276.422 824.96 276.142 824.887 275.842 824.887C275.542 824.887 275.264 824.96 275.009 825.105C274.754 825.245 274.537 825.437 274.357 825.682C274.182 825.922 274.062 826.195 273.997 826.5ZM287.779 826.26V831H285.949V826.74C285.949 826.445 285.877 826.177 285.732 825.937C285.587 825.692 285.392 825.5 285.147 825.36C284.907 825.215 284.639 825.142 284.344 825.142C284.049 825.142 283.779 825.215 283.534 825.36C283.294 825.5 283.102 825.692 282.957 825.937C282.817 826.177 282.747 826.445 282.747 826.74V831H280.917L280.909 823.5H282.739L282.747 824.167C283.002 823.897 283.307 823.685 283.662 823.53C284.017 823.37 284.399 823.29 284.809 823.29C285.354 823.29 285.852 823.425 286.302 823.695C286.752 823.96 287.109 824.317 287.374 824.767C287.644 825.212 287.779 825.71 287.779 826.26ZM294.947 819.75H296.777V831H294.947V830.062C294.707 830.397 294.405 830.67 294.04 830.88C293.675 831.09 293.252 831.195 292.772 831.195C292.227 831.195 291.717 831.093 291.242 830.887C290.767 830.682 290.347 830.4 289.982 830.04C289.622 829.675 289.34 829.255 289.135 828.78C288.93 828.305 288.827 827.795 288.827 827.25C288.827 826.705 288.93 826.195 289.135 825.72C289.34 825.245 289.622 824.827 289.982 824.467C290.347 824.102 290.767 823.817 291.242 823.612C291.717 823.407 292.227 823.305 292.772 823.305C293.252 823.305 293.675 823.41 294.04 823.62C294.405 823.825 294.707 824.097 294.947 824.437V819.75ZM292.795 829.432C293.185 829.432 293.53 829.335 293.83 829.14C294.13 828.945 294.365 828.682 294.535 828.352C294.705 828.017 294.79 827.65 294.79 827.25C294.79 826.845 294.705 826.477 294.535 826.147C294.365 825.812 294.127 825.547 293.822 825.352C293.522 825.157 293.18 825.06 292.795 825.06C292.41 825.06 292.057 825.16 291.737 825.36C291.422 825.555 291.17 825.817 290.98 826.147C290.795 826.477 290.702 826.845 290.702 827.25C290.702 827.655 290.797 828.022 290.987 828.352C291.177 828.682 291.43 828.945 291.745 829.14C292.065 829.335 292.415 829.432 292.795 829.432Z" fill="#35C2C1"/>
</g>
<defs>

<clipPath id="clip0_70_1180">
<rect width="393" height="852" rx="20" fill="white"/>
</clipPath>
<clipPath id="clip1_70_1180">
<rect width="72" height="72" fill="white" transform="translate(30 109)"/>
</clipPath>

</defs>
</svg>