<svg xmlns="http://www.w3.org/2000/svg" width="100" height="100" viewBox="0 0 100 100" fill="none">
<path d="M96.4793 49.9979C98.0236 48.1995 99.1059 46.0514 99.6321 43.74C100.158 41.4286 100.113 39.0237 99.4991 36.734C98.8856 34.4442 97.7225 32.3388 96.111 30.6003C94.4995 28.8617 92.4882 27.5426 90.2515 26.7574C90.6898 24.4277 90.5529 22.0262 89.8529 19.7612C89.1529 17.4963 87.9108 15.4364 86.2344 13.7602C84.558 12.0841 82.4979 10.8422 80.2329 10.1425C77.9679 9.44275 75.5664 9.30623 73.2367 9.74479C72.4521 7.50756 71.1332 5.49566 69.3947 3.88376C67.6561 2.27186 65.5504 1.10869 63.2603 0.495228C60.9703 -0.118234 58.5651 -0.16344 56.2535 0.363534C53.942 0.890508 51.7941 1.97374 49.9962 3.51917C48.1978 1.9748 46.0497 0.892548 43.7383 0.366302C41.4269 -0.159944 39.022 -0.114292 36.7323 0.499295C34.4425 1.11288 32.3371 2.27588 30.5986 3.88738C28.86 5.49889 27.541 7.51024 26.7558 9.74695C24.4261 9.3091 22.0249 9.44623 19.7603 10.1464C17.4956 10.8467 15.4361 12.0888 13.7601 13.7651C12.0842 15.4415 10.8426 17.5014 10.143 19.7662C9.44334 22.031 9.30683 24.4323 9.74527 26.7618C7.50856 27.547 5.4972 28.8661 3.88569 30.6046C2.27418 32.3431 1.11119 34.4486 0.497598 36.7383C-0.11599 39.0281 -0.161649 41.4329 0.364597 43.7443C0.890843 46.0557 1.97311 48.2038 3.51748 50.0022C1.97264 51.8006 0.890041 53.9488 0.363645 56.2605C-0.162751 58.5721 -0.117053 60.9772 0.496804 63.2672C1.11066 65.5571 2.27411 67.6627 3.88617 69.4011C5.49823 71.1394 7.51021 72.4581 9.74744 73.2427C9.30862 75.5722 9.44497 77.9737 10.1447 80.2386C10.8444 82.5035 12.0864 84.5634 13.7627 86.2396C15.439 87.9157 17.4991 89.1573 19.7641 89.8568C22.0291 90.5562 24.4306 90.6923 26.7601 90.2532C27.5453 92.4899 28.8644 94.5012 30.6029 96.1127C32.3414 97.7242 34.4469 98.8872 36.7366 99.5008C39.0264 100.114 41.4312 100.16 43.7426 99.6338C46.054 99.1076 48.2021 98.0253 50.0005 96.4809C51.7989 98.0258 53.9472 99.1084 56.2588 99.6348C58.5704 100.161 60.9756 100.115 63.2655 99.5016C65.5555 98.8877 67.661 97.7243 69.3994 96.1122C71.1378 94.5002 72.4565 92.4882 73.241 90.251C75.5706 90.6897 77.9721 90.5532 80.2371 89.8535C82.502 89.1538 84.562 87.9119 86.2383 86.2356C87.9145 84.5594 89.1564 82.4994 89.8562 80.2344C90.5559 77.9695 90.6923 75.568 90.2536 73.2383C92.4905 72.4533 94.5021 71.1343 96.1136 69.3957C97.7252 67.6571 98.8882 65.5515 99.5016 63.2616C100.115 60.9717 100.16 58.5667 99.6336 56.2553C99.107 53.9439 98.0242 51.796 96.4793 49.9979Z" fill="black"/>
<path d="M41.0231 69.0842L27.1287 55.1984C26.6014 54.6703 26.3052 53.9544 26.3052 53.2081C26.3052 52.4618 26.6014 51.7459 27.1287 51.2178L28.8167 49.5276C29.3449 49.0002 30.0607 48.7041 30.8071 48.7041C31.5534 48.7041 32.2692 49.0002 32.7974 49.5276L42.8975 59.6212L66.684 34.3438C67.1959 33.8007 67.9023 33.4829 68.6482 33.4602C69.3941 33.4374 70.1186 33.7116 70.6625 34.2224L72.3961 35.8585C72.9398 36.3704 73.258 37.0773 73.2808 37.8237C73.3035 38.5701 73.029 39.2951 72.5174 39.8392L45.071 69.0214C44.8125 69.2968 44.5014 69.5174 44.156 69.6702C43.8106 69.8229 43.438 69.9047 43.0604 69.9105C42.6827 69.9164 42.3078 69.8462 41.9578 69.7043C41.6078 69.5623 41.29 69.3515 41.0231 69.0842Z" fill="white"/>
</svg>