<svg xmlns="http://www.w3.org/2000/svg" xmlns:xlink="http://www.w3.org/1999/xlink" width="393" height="852" viewBox="0 0 393 852" fill="none">
<rect width="393" height="852" rx="20" fill="white"/>
<rect opacity="0.35" x="363.283" y="14.0459" width="16.5392" height="8.13835" rx="1.70643" stroke="#121208" stroke-opacity="0.6" stroke-width="0.787582"/>
<path opacity="0.4" d="M381.004 16.5405V19.6909C381.638 19.424 382.05 18.8034 382.05 18.1157C382.05 17.428 381.638 16.8073 381.004 16.5405Z" fill="#121208" fill-opacity="0.6"/>
<rect x="364.465" y="15.2278" width="14.1765" height="5.7756" rx="1.05011" fill="#0B0B0B"/>
<path fill-rule="evenodd" clip-rule="evenodd" d="M352.915 15.4474C354.667 15.4475 356.352 16.1202 357.622 17.3264C357.717 17.4195 357.87 17.4184 357.964 17.3238L358.879 16.4021C358.926 16.3541 358.953 16.2891 358.952 16.2215C358.952 16.1539 358.925 16.0892 358.876 16.0418C355.543 12.8503 350.285 12.8503 346.952 16.0418C346.904 16.0892 346.877 16.1538 346.876 16.2214C346.876 16.289 346.902 16.354 346.95 16.4021L347.864 17.3238C347.958 17.4185 348.111 17.4197 348.207 17.3264C349.477 16.1201 351.162 15.4474 352.915 15.4474ZM352.915 18.446C353.877 18.446 354.806 18.8035 355.519 19.4491C355.616 19.5408 355.768 19.5388 355.862 19.4446L356.775 18.5229C356.823 18.4746 356.85 18.409 356.849 18.3408C356.848 18.2727 356.82 18.2076 356.771 18.1603C354.598 16.1406 351.233 16.1406 349.06 18.1603C349.011 18.2076 348.983 18.2727 348.982 18.3409C348.982 18.4091 349.008 18.4746 349.057 18.5229L349.969 19.4446C350.063 19.5388 350.215 19.5408 350.312 19.4491C351.025 18.8039 351.953 18.4464 352.915 18.446ZM354.744 20.4638C354.745 20.5322 354.718 20.5981 354.669 20.6459L353.09 22.2384C353.044 22.2852 352.98 22.3116 352.915 22.3116C352.849 22.3116 352.786 22.2852 352.739 22.2384L351.16 20.6459C351.111 20.598 351.084 20.5321 351.086 20.4638C351.087 20.3954 351.117 20.3307 351.167 20.2849C352.176 19.4325 353.653 19.4325 354.662 20.2849C354.713 20.3307 354.742 20.3955 354.744 20.4638Z" fill="#0B0B0B"/>
<path fill-rule="evenodd" clip-rule="evenodd" d="M342.15 13.9128H341.363C340.928 13.9128 340.575 14.2655 340.575 14.7004V21.5261C340.575 21.9611 340.928 22.3137 341.363 22.3137H342.15C342.585 22.3137 342.938 21.9611 342.938 21.5261V14.7004C342.938 14.2655 342.585 13.9128 342.15 13.9128ZM337.688 15.7505H338.475C338.91 15.7505 339.263 16.1031 339.263 16.5381V21.5261C339.263 21.9611 338.91 22.3137 338.475 22.3137H337.688C337.253 22.3137 336.9 21.9611 336.9 21.5261V16.5381C336.9 16.1031 337.253 15.7505 337.688 15.7505ZM334.799 17.5891H334.011C333.576 17.5891 333.224 17.9417 333.224 18.3767V21.527C333.224 21.962 333.576 22.3146 334.011 22.3146H334.799C335.234 22.3146 335.586 21.962 335.586 21.527V18.3767C335.586 17.9417 335.234 17.5891 334.799 17.5891ZM331.124 19.1639H330.336C329.901 19.1639 329.549 19.5165 329.549 19.9514V21.5266C329.549 21.9616 329.901 22.3142 330.336 22.3142H331.124C331.559 22.3142 331.912 21.9616 331.912 21.5266V19.9514C331.912 19.5165 331.559 19.1639 331.124 19.1639Z" fill="#0B0B0B"/>
<path d="M30.842 15.0519C31.3529 15.0519 31.8141 15.1751 32.2258 15.4213C32.6374 15.6639 32.9645 15.9983 33.2071 16.4247C33.4497 16.851 33.571 17.338 33.571 17.8856V20.4106C33.571 20.9913 33.4497 21.5004 33.2071 21.9378C32.9682 22.3715 32.6337 22.7096 32.2037 22.9522C31.7774 23.1947 31.2849 23.316 30.7262 23.316C30.3072 23.316 29.914 23.237 29.5464 23.079C29.1789 22.9209 28.8591 22.6857 28.5871 22.3733L29.4362 21.5849C29.5868 21.7797 29.7761 21.9359 30.004 22.0535C30.2319 22.1711 30.4726 22.23 30.7262 22.23C31.0533 22.23 31.3418 22.1509 31.5918 21.9929C31.8454 21.8348 32.042 21.629 32.1817 21.3754C32.3213 21.1218 32.3912 20.8498 32.3912 20.5595V19.104L32.6227 19.3576C32.3948 19.6553 32.1118 19.8906 31.7737 20.0633C31.4356 20.2361 31.0735 20.3224 30.6876 20.3224C30.1914 20.3224 29.7504 20.2085 29.3645 19.9806C28.9786 19.7527 28.6735 19.4422 28.4493 19.0489C28.2251 18.6556 28.113 18.2109 28.113 17.7147C28.113 17.2186 28.238 16.7702 28.4879 16.3696C28.7378 15.9689 29.0686 15.6492 29.4803 15.4103C29.8919 15.1714 30.3458 15.0519 30.842 15.0519ZM30.842 16.1656C30.5553 16.1656 30.2925 16.2354 30.0536 16.3751C29.8184 16.5111 29.631 16.6967 29.4913 16.9319C29.3516 17.1671 29.2818 17.4281 29.2818 17.7147C29.2818 18.0014 29.3516 18.2642 29.4913 18.5031C29.631 18.7383 29.8184 18.9258 30.0536 19.0654C30.2888 19.2051 30.5498 19.2749 30.8365 19.2749C31.1232 19.2749 31.3841 19.2051 31.6193 19.0654C31.8546 18.9258 32.042 18.7383 32.1817 18.5031C32.3213 18.2642 32.3912 18.0014 32.3912 17.7147C32.3912 17.4317 32.3213 17.1726 32.1817 16.9374C32.0457 16.7022 31.8601 16.5147 31.6248 16.3751C31.3896 16.2354 31.1287 16.1656 30.842 16.1656ZM35.3307 22.3788V21.1604H36.5491V22.3788H35.3307ZM35.3362 19.1867V17.9683H36.5546V19.1867H35.3362ZM41.65 23.1506V21.7669H38.0665V20.6753L40.6466 15.2118H41.9643L39.3842 20.6753H41.65V18.5252H42.8188V20.6753H43.6072V21.7669H42.8188V23.1506H41.65ZM46.094 23.1506V16.4798L44.5999 17.3895V16.1049L46.094 15.2118H47.2683V23.1506H46.094Z" fill="#0B0B0B"/>
<rect x="167" y="145" width="66" height="19" fill="white"/>
<path d="M120.397 411.8V414.972H114.833V430H111.661V414.972H106.097V411.8H120.397ZM121.305 430L121.292 417H124.464L124.477 418.157C124.919 417.689 125.448 417.321 126.063 417.052C126.679 416.775 127.342 416.636 128.052 416.636C128.529 416.636 129.006 416.705 129.482 416.844L128.234 420.042C127.905 419.912 127.576 419.847 127.246 419.847C126.735 419.847 126.267 419.973 125.842 420.224C125.426 420.467 125.093 420.8 124.841 421.225C124.599 421.641 124.477 422.105 124.477 422.616V430H121.305ZM140.133 417H143.305V430H140.133L139.99 428.388C139.635 428.969 139.163 429.441 138.573 429.805C137.993 430.16 137.304 430.338 136.506 430.338C135.544 430.338 134.643 430.156 133.802 429.792C132.962 429.428 132.221 428.925 131.579 428.284C130.947 427.643 130.448 426.902 130.084 426.061C129.729 425.22 129.551 424.319 129.551 423.357C129.551 422.43 129.72 421.559 130.058 420.744C130.405 419.929 130.886 419.214 131.501 418.599C132.117 417.984 132.827 417.503 133.633 417.156C134.439 416.809 135.306 416.636 136.233 416.636C137.091 416.636 137.858 416.827 138.534 417.208C139.219 417.589 139.8 418.075 140.276 418.664L140.133 417ZM136.428 427.283C137.104 427.283 137.702 427.114 138.222 426.776C138.742 426.438 139.15 425.983 139.444 425.411C139.739 424.83 139.886 424.193 139.886 423.5C139.886 422.798 139.739 422.161 139.444 421.589C139.15 421.008 138.738 420.549 138.209 420.211C137.689 419.873 137.096 419.704 136.428 419.704C135.761 419.704 135.15 419.877 134.595 420.224C134.049 420.562 133.612 421.017 133.282 421.589C132.962 422.161 132.801 422.798 132.801 423.5C132.801 424.202 132.966 424.839 133.295 425.411C133.625 425.983 134.062 426.438 134.608 426.776C135.163 427.114 135.77 427.283 136.428 427.283ZM155.47 410.5H158.642V430H155.47V428.375C155.054 428.956 154.53 429.428 153.897 429.792C153.264 430.156 152.532 430.338 151.7 430.338C150.755 430.338 149.871 430.16 149.048 429.805C148.225 429.45 147.497 428.96 146.864 428.336C146.24 427.703 145.75 426.975 145.395 426.152C145.04 425.329 144.862 424.445 144.862 423.5C144.862 422.555 145.04 421.671 145.395 420.848C145.75 420.025 146.24 419.301 146.864 418.677C147.497 418.044 148.225 417.55 149.048 417.195C149.871 416.84 150.755 416.662 151.7 416.662C152.532 416.662 153.264 416.844 153.897 417.208C154.53 417.563 155.054 418.036 155.47 418.625V410.5ZM151.739 427.283C152.415 427.283 153.013 427.114 153.533 426.776C154.053 426.438 154.46 425.983 154.755 425.411C155.05 424.83 155.197 424.193 155.197 423.5C155.197 422.798 155.05 422.161 154.755 421.589C154.46 421.008 154.049 420.549 153.52 420.211C153 419.873 152.406 419.704 151.739 419.704C151.072 419.704 150.461 419.877 149.906 420.224C149.36 420.562 148.922 421.017 148.593 421.589C148.272 422.161 148.112 422.798 148.112 423.5C148.112 424.202 148.277 424.839 148.606 425.411C148.935 425.983 149.373 426.438 149.919 426.776C150.474 427.114 151.08 427.283 151.739 427.283ZM167.282 430.338C166.086 430.338 164.994 430.03 164.006 429.415C163.027 428.8 162.242 427.972 161.653 426.932C161.072 425.892 160.782 424.744 160.782 423.487C160.782 422.542 160.951 421.658 161.289 420.835C161.627 420.003 162.091 419.275 162.68 418.651C163.278 418.018 163.971 417.524 164.76 417.169C165.549 416.814 166.389 416.636 167.282 416.636C168.296 416.636 169.223 416.853 170.064 417.286C170.913 417.711 171.633 418.296 172.222 419.041C172.811 419.786 173.24 420.636 173.509 421.589C173.778 422.542 173.838 423.539 173.691 424.579H164.188C164.309 425.064 164.509 425.502 164.786 425.892C165.063 426.273 165.414 426.581 165.839 426.815C166.264 427.04 166.745 427.157 167.282 427.166C167.837 427.175 168.339 427.045 168.79 426.776C169.249 426.499 169.631 426.126 169.934 425.658L173.171 426.412C172.642 427.565 171.854 428.509 170.805 429.246C169.756 429.974 168.582 430.338 167.282 430.338ZM164.084 422.2H170.48C170.385 421.68 170.181 421.212 169.869 420.796C169.566 420.371 169.189 420.033 168.738 419.782C168.287 419.531 167.802 419.405 167.282 419.405C166.762 419.405 166.281 419.531 165.839 419.782C165.397 420.025 165.02 420.358 164.708 420.783C164.405 421.199 164.197 421.671 164.084 422.2ZM182.357 430V411.8H189.338C190.326 411.8 191.219 412.047 192.016 412.541C192.813 413.035 193.446 413.698 193.914 414.53C194.382 415.353 194.616 416.268 194.616 417.273C194.616 418.096 194.464 418.855 194.161 419.548C193.866 420.233 193.45 420.826 192.913 421.329C192.384 421.832 191.773 422.213 191.08 422.473L195.435 430H191.782L187.57 422.759H185.529V430H182.357ZM185.529 419.587H188.974C189.425 419.587 189.836 419.474 190.209 419.249C190.582 419.024 190.881 418.72 191.106 418.339C191.331 417.958 191.444 417.533 191.444 417.065C191.444 416.588 191.331 416.159 191.106 415.778C190.881 415.397 190.582 415.093 190.209 414.868C189.836 414.643 189.425 414.53 188.974 414.53H185.529V419.587ZM202.753 430.338C201.557 430.338 200.465 430.03 199.477 429.415C198.497 428.8 197.713 427.972 197.124 426.932C196.543 425.892 196.253 424.744 196.253 423.487C196.253 422.542 196.422 421.658 196.76 420.835C197.098 420.003 197.561 419.275 198.151 418.651C198.749 418.018 199.442 417.524 200.231 417.169C201.019 416.814 201.86 416.636 202.753 416.636C203.767 416.636 204.694 416.853 205.535 417.286C206.384 417.711 207.103 418.296 207.693 419.041C208.282 419.786 208.711 420.636 208.98 421.589C209.248 422.542 209.309 423.539 209.162 424.579H199.659C199.78 425.064 199.979 425.502 200.257 425.892C200.534 426.273 200.885 426.581 201.31 426.815C201.734 427.04 202.215 427.157 202.753 427.166C203.307 427.175 203.81 427.045 204.261 426.776C204.72 426.499 205.101 426.126 205.405 425.658L208.642 426.412C208.113 427.565 207.324 428.509 206.276 429.246C205.227 429.974 204.053 430.338 202.753 430.338ZM199.555 422.2H205.951C205.855 421.68 205.652 421.212 205.34 420.796C205.036 420.371 204.659 420.033 204.209 419.782C203.758 419.531 203.273 419.405 202.753 419.405C202.233 419.405 201.752 419.531 201.31 419.782C200.868 420.025 200.491 420.358 200.179 420.783C199.875 421.199 199.667 421.671 199.555 422.2ZM208.905 436.5V433.328C209.399 433.328 209.846 433.211 210.244 432.977C210.643 432.752 210.959 432.44 211.193 432.041C211.427 431.651 211.544 431.213 211.544 430.728V417H214.716V430.728C214.716 431.785 214.456 432.752 213.936 433.627C213.425 434.502 212.727 435.2 211.843 435.72C210.968 436.24 209.989 436.5 208.905 436.5ZM213.156 415.323C212.688 415.323 212.294 415.171 211.973 414.868C211.653 414.556 211.492 414.166 211.492 413.698C211.492 413.239 211.653 412.853 211.973 412.541C212.294 412.229 212.684 412.073 213.143 412.073C213.603 412.073 213.988 412.229 214.3 412.541C214.621 412.853 214.781 413.239 214.781 413.698C214.781 414.166 214.625 414.556 214.313 414.868C214.001 415.171 213.616 415.323 213.156 415.323ZM223.243 430.338C222.047 430.338 220.955 430.03 219.967 429.415C218.988 428.8 218.203 427.972 217.614 426.932C217.033 425.892 216.743 424.744 216.743 423.487C216.743 422.542 216.912 421.658 217.25 420.835C217.588 420.003 218.052 419.275 218.641 418.651C219.239 418.018 219.932 417.524 220.721 417.169C221.51 416.814 222.35 416.636 223.243 416.636C224.257 416.636 225.184 416.853 226.025 417.286C226.874 417.711 227.594 418.296 228.183 419.041C228.772 419.786 229.201 420.636 229.47 421.589C229.739 422.542 229.799 423.539 229.652 424.579H220.149C220.27 425.064 220.47 425.502 220.747 425.892C221.024 426.273 221.375 426.581 221.8 426.815C222.225 427.04 222.706 427.157 223.243 427.166C223.798 427.175 224.3 427.045 224.751 426.776C225.21 426.499 225.592 426.126 225.895 425.658L229.132 426.412C228.603 427.565 227.815 428.509 226.766 429.246C225.717 429.974 224.543 430.338 223.243 430.338ZM220.045 422.2H226.441C226.346 421.68 226.142 421.212 225.83 420.796C225.527 420.371 225.15 420.033 224.699 419.782C224.248 419.531 223.763 419.405 223.243 419.405C222.723 419.405 222.242 419.531 221.8 419.782C221.358 420.025 220.981 420.358 220.669 420.783C220.366 421.199 220.158 421.671 220.045 422.2ZM239.878 426.087L242.738 427.634C242.14 428.449 241.39 429.103 240.489 429.597C239.587 430.091 238.604 430.338 237.538 430.338C236.342 430.338 235.25 430.03 234.262 429.415C233.282 428.8 232.498 427.976 231.909 426.945C231.328 425.905 231.038 424.757 231.038 423.5C231.038 422.547 231.207 421.658 231.545 420.835C231.883 420.003 232.346 419.275 232.936 418.651C233.534 418.018 234.227 417.524 235.016 417.169C235.804 416.814 236.645 416.636 237.538 416.636C238.604 416.636 239.587 416.883 240.489 417.377C241.39 417.871 242.14 418.534 242.738 419.366L239.878 420.9C239.574 420.553 239.215 420.285 238.799 420.094C238.391 419.903 237.971 419.808 237.538 419.808C236.914 419.808 236.35 419.981 235.848 420.328C235.345 420.666 234.946 421.117 234.652 421.68C234.357 422.235 234.21 422.841 234.21 423.5C234.21 424.15 234.357 424.757 234.652 425.32C234.946 425.875 235.345 426.321 235.848 426.659C236.35 426.997 236.914 427.166 237.538 427.166C237.988 427.166 238.417 427.071 238.825 426.88C239.232 426.681 239.583 426.416 239.878 426.087ZM252.04 420.172H249.518V430H246.346V420.172H244.422V417H246.346V412.918H249.518V417H252.04V420.172ZM259.805 430.338C258.609 430.338 257.517 430.03 256.529 429.415C255.55 428.8 254.766 427.972 254.176 426.932C253.596 425.892 253.305 424.744 253.305 423.487C253.305 422.542 253.474 421.658 253.812 420.835C254.15 420.003 254.614 419.275 255.203 418.651C255.801 418.018 256.495 417.524 257.283 417.169C258.072 416.814 258.913 416.636 259.805 416.636C260.819 416.636 261.747 416.853 262.587 417.286C263.437 417.711 264.156 418.296 264.745 419.041C265.335 419.786 265.764 420.636 266.032 421.589C266.301 422.542 266.362 423.539 266.214 424.579H256.711C256.833 425.064 257.032 425.502 257.309 425.892C257.587 426.273 257.938 426.581 258.362 426.815C258.787 427.04 259.268 427.157 259.805 427.166C260.36 427.175 260.863 427.045 261.313 426.776C261.773 426.499 262.154 426.126 262.457 425.658L265.694 426.412C265.166 427.565 264.377 428.509 263.328 429.246C262.28 429.974 261.105 430.338 259.805 430.338ZM256.607 422.2H263.003C262.908 421.68 262.704 421.212 262.392 420.796C262.089 420.371 261.712 420.033 261.261 419.782C260.811 419.531 260.325 419.405 259.805 419.405C259.285 419.405 258.804 419.531 258.362 419.782C257.92 420.025 257.543 420.358 257.231 420.783C256.928 421.199 256.72 421.671 256.607 422.2ZM278.208 410.5H281.38V430H278.208V428.375C277.792 428.956 277.268 429.428 276.635 429.792C276.003 430.156 275.27 430.338 274.438 430.338C273.494 430.338 272.61 430.16 271.786 429.805C270.963 429.45 270.235 428.96 269.602 428.336C268.978 427.703 268.489 426.975 268.133 426.152C267.778 425.329 267.6 424.445 267.6 423.5C267.6 422.555 267.778 421.671 268.133 420.848C268.489 420.025 268.978 419.301 269.602 418.677C270.235 418.044 270.963 417.55 271.786 417.195C272.61 416.84 273.494 416.662 274.438 416.662C275.27 416.662 276.003 416.844 276.635 417.208C277.268 417.563 277.792 418.036 278.208 418.625V410.5ZM274.477 427.283C275.153 427.283 275.751 427.114 276.271 426.776C276.791 426.438 277.199 425.983 277.493 425.411C277.788 424.83 277.935 424.193 277.935 423.5C277.935 422.798 277.788 422.161 277.493 421.589C277.199 421.008 276.787 420.549 276.258 420.211C275.738 419.873 275.145 419.704 274.477 419.704C273.81 419.704 273.199 419.877 272.644 420.224C272.098 420.562 271.661 421.017 271.331 421.589C271.011 422.161 270.85 422.798 270.85 423.5C270.85 424.202 271.015 424.839 271.344 425.411C271.674 425.983 272.111 426.438 272.657 426.776C273.212 427.114 273.819 427.283 274.477 427.283Z" fill="#1E232C"/>
<rect x="29" y="520" width="330" height="56" rx="8" fill="#1E232C"/>
<path d="M155.941 553.195C155.231 553.195 154.564 553.055 153.939 552.775C153.314 552.49 152.764 552.1 152.289 551.605C151.819 551.105 151.449 550.525 151.179 549.865C150.914 549.205 150.781 548.5 150.781 547.75C150.781 547 150.914 546.295 151.179 545.635C151.449 544.975 151.819 544.397 152.289 543.902C152.764 543.402 153.314 543.012 153.939 542.732C154.564 542.447 155.231 542.305 155.941 542.305C156.791 542.305 157.574 542.502 158.289 542.897C159.004 543.292 159.596 543.817 160.066 544.472L158.679 545.215C158.354 544.805 157.951 544.477 157.471 544.232C156.991 543.987 156.481 543.865 155.941 543.865C155.441 543.865 154.974 543.967 154.539 544.172C154.104 544.377 153.721 544.657 153.391 545.012C153.061 545.367 152.804 545.78 152.619 546.25C152.434 546.72 152.341 547.22 152.341 547.75C152.341 548.285 152.434 548.787 152.619 549.257C152.804 549.722 153.061 550.135 153.391 550.495C153.726 550.85 154.111 551.13 154.546 551.335C154.981 551.535 155.446 551.635 155.941 551.635C156.491 551.635 157.004 551.512 157.479 551.267C157.959 551.017 158.359 550.687 158.679 550.277L160.066 551.035C159.596 551.69 159.004 552.215 158.289 552.61C157.574 553 156.791 553.195 155.941 553.195ZM168.275 548.297V553H166.715V548.68C166.715 548.345 166.633 548.04 166.468 547.765C166.308 547.49 166.09 547.272 165.815 547.112C165.545 546.947 165.24 546.865 164.9 546.865C164.57 546.865 164.268 546.947 163.993 547.112C163.718 547.272 163.498 547.49 163.333 547.765C163.168 548.04 163.085 548.345 163.085 548.68V553H161.525V541.75H163.085V546.295C163.345 545.985 163.665 545.74 164.045 545.56C164.425 545.38 164.835 545.29 165.275 545.29C165.83 545.29 166.335 545.425 166.79 545.695C167.245 545.965 167.605 546.327 167.87 546.782C168.14 547.237 168.275 547.742 168.275 548.297ZM172.926 553.195C172.236 553.195 171.606 553.017 171.036 552.662C170.471 552.307 170.019 551.832 169.679 551.237C169.344 550.637 169.176 549.975 169.176 549.25C169.176 548.7 169.274 548.187 169.469 547.712C169.664 547.232 169.931 546.812 170.271 546.452C170.616 546.087 171.016 545.802 171.471 545.597C171.926 545.392 172.411 545.29 172.926 545.29C173.501 545.29 174.029 545.41 174.509 545.65C174.989 545.885 175.399 546.212 175.739 546.632C176.079 547.047 176.329 547.527 176.489 548.072C176.649 548.612 176.696 549.187 176.631 549.797H170.849C170.914 550.142 171.039 550.455 171.224 550.735C171.414 551.01 171.654 551.227 171.944 551.387C172.239 551.547 172.566 551.63 172.926 551.635C173.306 551.635 173.651 551.54 173.961 551.35C174.276 551.16 174.534 550.897 174.734 550.562L176.316 550.93C176.016 551.595 175.564 552.14 174.959 552.565C174.354 552.985 173.676 553.195 172.926 553.195ZM170.796 548.605H175.056C175.006 548.245 174.879 547.92 174.674 547.63C174.474 547.335 174.221 547.102 173.916 546.932C173.616 546.757 173.286 546.67 172.926 546.67C172.571 546.67 172.241 546.755 171.936 546.925C171.636 547.095 171.386 547.327 171.186 547.622C170.991 547.912 170.861 548.24 170.796 548.605ZM182.756 550.87L184.151 551.627C183.811 552.102 183.378 552.482 182.853 552.767C182.333 553.052 181.768 553.195 181.158 553.195C180.468 553.195 179.838 553.017 179.268 552.662C178.703 552.307 178.251 551.832 177.911 551.237C177.576 550.637 177.408 549.975 177.408 549.25C177.408 548.7 177.506 548.187 177.701 547.712C177.896 547.232 178.163 546.812 178.503 546.452C178.848 546.087 179.248 545.802 179.703 545.597C180.158 545.392 180.643 545.29 181.158 545.29C181.768 545.29 182.333 545.432 182.853 545.717C183.378 546.002 183.811 546.385 184.151 546.865L182.756 547.622C182.546 547.372 182.301 547.182 182.021 547.052C181.741 546.917 181.453 546.85 181.158 546.85C180.748 546.85 180.376 546.962 180.041 547.187C179.711 547.407 179.448 547.7 179.253 548.065C179.063 548.425 178.968 548.82 178.968 549.25C178.968 549.675 179.066 550.07 179.261 550.435C179.456 550.795 179.718 551.085 180.048 551.305C180.383 551.525 180.753 551.635 181.158 551.635C181.468 551.635 181.763 551.565 182.043 551.425C182.323 551.285 182.561 551.1 182.756 550.87ZM191.727 553H189.927L188.082 549.82L186.875 551.26V553H185.315V541.75H186.875V548.837L189.665 545.5H191.705L189.147 548.552L191.727 553ZM200.671 547.06H199.096L199.089 553H197.529L197.536 547.06H196.344V545.5H197.536L197.529 543.145H199.089L199.096 545.5H200.671V547.06ZM202.014 553V545.5H203.574V546.295C203.834 545.985 204.154 545.74 204.534 545.56C204.914 545.38 205.324 545.29 205.764 545.29C206.044 545.29 206.321 545.327 206.596 545.402L205.974 546.977C205.779 546.902 205.584 546.865 205.389 546.865C205.059 546.865 204.756 546.947 204.481 547.112C204.206 547.272 203.986 547.49 203.821 547.765C203.656 548.04 203.574 548.345 203.574 548.68V553H202.014ZM212.946 545.5H214.506V553H212.939L212.879 551.912C212.659 552.297 212.361 552.607 211.986 552.842C211.611 553.077 211.169 553.195 210.659 553.195C210.109 553.195 209.591 553.093 209.106 552.887C208.621 552.677 208.194 552.387 207.824 552.017C207.459 551.647 207.174 551.222 206.969 550.742C206.764 550.257 206.661 549.737 206.661 549.182C206.661 548.647 206.761 548.145 206.961 547.675C207.161 547.2 207.439 546.785 207.794 546.43C208.149 546.075 208.559 545.797 209.024 545.597C209.494 545.392 209.996 545.29 210.531 545.29C211.076 545.29 211.556 545.415 211.971 545.665C212.391 545.91 212.739 546.225 213.014 546.61L212.946 545.5ZM210.621 551.687C211.061 551.687 211.446 551.58 211.776 551.365C212.106 551.145 212.361 550.85 212.541 550.48C212.726 550.11 212.819 549.7 212.819 549.25C212.819 548.795 212.726 548.382 212.541 548.012C212.356 547.642 212.099 547.35 211.769 547.135C211.444 546.915 211.061 546.805 210.621 546.805C210.186 546.805 209.789 546.915 209.429 547.135C209.069 547.355 208.784 547.65 208.574 548.02C208.364 548.39 208.259 548.8 208.259 549.25C208.259 549.705 208.366 550.117 208.581 550.487C208.801 550.852 209.089 551.145 209.444 551.365C209.804 551.58 210.196 551.687 210.621 551.687ZM221.699 541.75H223.259V553H221.699V551.898C221.454 552.287 221.134 552.602 220.739 552.842C220.344 553.077 219.882 553.195 219.352 553.195C218.807 553.195 218.297 553.093 217.822 552.887C217.347 552.682 216.927 552.4 216.562 552.04C216.202 551.675 215.919 551.255 215.714 550.78C215.509 550.305 215.407 549.795 215.407 549.25C215.407 548.705 215.509 548.195 215.714 547.72C215.919 547.24 216.202 546.82 216.562 546.46C216.927 546.095 217.347 545.81 217.822 545.605C218.297 545.4 218.807 545.297 219.352 545.297C219.882 545.297 220.344 545.417 220.739 545.657C221.134 545.892 221.454 546.202 221.699 546.587V541.75ZM219.367 551.687C219.807 551.687 220.192 551.58 220.522 551.365C220.852 551.145 221.107 550.85 221.287 550.48C221.472 550.11 221.564 549.7 221.564 549.25C221.564 548.795 221.472 548.382 221.287 548.012C221.102 547.642 220.844 547.35 220.514 547.135C220.189 546.915 219.807 546.805 219.367 546.805C218.932 546.805 218.534 546.915 218.174 547.135C217.819 547.355 217.534 547.65 217.319 548.02C217.109 548.39 217.004 548.8 217.004 549.25C217.004 549.705 217.112 550.117 217.327 550.487C217.547 550.852 217.834 551.145 218.189 551.365C218.549 551.58 218.942 551.687 219.367 551.687ZM228.253 553.195C227.563 553.195 226.933 553.017 226.363 552.662C225.798 552.307 225.346 551.832 225.006 551.237C224.671 550.637 224.503 549.975 224.503 549.25C224.503 548.7 224.601 548.187 224.796 547.712C224.991 547.232 225.258 546.812 225.598 546.452C225.943 546.087 226.343 545.802 226.798 545.597C227.253 545.392 227.738 545.29 228.253 545.29C228.828 545.29 229.356 545.41 229.836 545.65C230.316 545.885 230.726 546.212 231.066 546.632C231.406 547.047 231.656 547.527 231.816 548.072C231.976 548.612 232.023 549.187 231.958 549.797H226.176C226.241 550.142 226.366 550.455 226.551 550.735C226.741 551.01 226.981 551.227 227.271 551.387C227.566 551.547 227.893 551.63 228.253 551.635C228.633 551.635 228.978 551.54 229.288 551.35C229.603 551.16 229.861 550.897 230.061 550.562L231.643 550.93C231.343 551.595 230.891 552.14 230.286 552.565C229.681 552.985 229.003 553.195 228.253 553.195ZM226.123 548.605H230.383C230.333 548.245 230.206 547.92 230.001 547.63C229.801 547.335 229.548 547.102 229.243 546.932C228.943 546.757 228.613 546.67 228.253 546.67C227.898 546.67 227.568 546.755 227.263 546.925C226.963 547.095 226.713 547.327 226.513 547.622C226.318 547.912 226.188 548.24 226.123 548.605ZM235.48 553.143C235.085 553.118 234.7 553.038 234.325 552.902C233.95 552.767 233.62 552.585 233.335 552.355C233.055 552.12 232.845 551.845 232.705 551.53L234.032 550.96C234.097 551.095 234.21 551.227 234.37 551.357C234.535 551.487 234.727 551.595 234.947 551.68C235.167 551.76 235.397 551.8 235.637 551.8C235.872 551.8 236.09 551.767 236.29 551.702C236.495 551.632 236.662 551.527 236.792 551.387C236.922 551.247 236.987 551.08 236.987 550.885C236.987 550.665 236.912 550.495 236.762 550.375C236.617 550.25 236.435 550.155 236.215 550.09C235.995 550.025 235.775 549.962 235.555 549.902C235.065 549.792 234.615 549.642 234.205 549.452C233.8 549.257 233.477 549.01 233.237 548.71C232.997 548.405 232.877 548.032 232.877 547.592C232.877 547.112 233.007 546.697 233.267 546.347C233.527 545.992 233.867 545.72 234.287 545.53C234.712 545.34 235.165 545.245 235.645 545.245C236.245 545.245 236.795 545.372 237.295 545.627C237.795 545.882 238.177 546.232 238.442 546.677L237.205 547.412C237.13 547.262 237.017 547.127 236.867 547.007C236.717 546.887 236.547 546.792 236.357 546.722C236.167 546.647 235.97 546.605 235.765 546.595C235.51 546.585 235.272 546.615 235.052 546.685C234.837 546.75 234.665 546.855 234.535 547C234.405 547.145 234.34 547.33 234.34 547.555C234.34 547.775 234.417 547.94 234.572 548.05C234.727 548.155 234.922 548.24 235.157 548.305C235.397 548.37 235.642 548.442 235.892 548.522C236.337 548.662 236.755 548.835 237.145 549.04C237.535 549.24 237.85 549.487 238.09 549.782C238.33 550.077 238.445 550.437 238.435 550.862C238.435 551.332 238.292 551.745 238.007 552.1C237.727 552.455 237.362 552.725 236.912 552.91C236.462 553.095 235.985 553.173 235.48 553.143Z" fill="white"/>
<rect x="25" y="36" width="339" height="339" fill="url(#pattern0_75_1534)"/>
<path d="M240.481 324.998C242.025 323.2 243.107 321.051 243.634 318.74C244.16 316.429 244.114 314.024 243.501 311.734C242.887 309.444 241.724 307.339 240.113 305.6C238.501 303.862 236.49 302.543 234.253 301.758C234.691 299.428 234.554 297.026 233.854 294.761C233.154 292.496 231.912 290.437 230.236 288.76C228.559 287.084 226.499 285.842 224.234 285.143C221.969 284.443 219.568 284.306 217.238 284.745C216.454 282.508 215.135 280.496 213.396 278.884C211.658 277.272 209.552 276.109 207.262 275.495C204.972 274.882 202.567 274.837 200.255 275.364C197.944 275.891 195.796 276.974 193.998 278.519C192.199 276.975 190.051 275.893 187.74 275.366C185.428 274.84 183.023 274.886 180.734 275.499C178.444 276.113 176.339 277.276 174.6 278.888C172.862 280.499 171.542 282.51 170.757 284.747C168.428 284.309 166.026 284.446 163.762 285.147C161.497 285.847 159.438 287.089 157.762 288.765C156.086 290.442 154.844 292.502 154.144 294.766C153.445 297.031 153.308 299.432 153.747 301.762C151.51 302.547 149.499 303.866 147.887 305.605C146.276 307.343 145.113 309.449 144.499 311.738C143.885 314.028 143.84 316.433 144.366 318.744C144.892 321.056 145.975 323.204 147.519 325.002C145.974 326.801 144.892 328.949 144.365 331.261C143.839 333.572 143.884 335.977 144.498 338.267C145.112 340.557 146.276 342.663 147.888 344.401C149.5 346.14 151.512 347.458 153.749 348.243C153.31 350.572 153.446 352.974 154.146 355.239C154.846 357.504 156.088 359.564 157.764 361.24C159.44 362.916 161.501 364.157 163.766 364.857C166.031 365.556 168.432 365.692 170.762 365.253C171.547 367.49 172.866 369.501 174.604 371.113C176.343 372.724 178.448 373.887 180.738 374.501C183.028 375.115 185.433 375.16 187.744 374.634C190.055 374.108 192.204 373.025 194.002 371.481C195.8 373.026 197.949 374.108 200.26 374.635C202.572 375.161 204.977 375.116 207.267 374.502C209.557 373.888 211.662 372.724 213.401 371.112C215.139 369.5 216.458 367.488 217.242 365.251C219.572 365.69 221.974 365.553 224.239 364.854C226.504 364.154 228.563 362.912 230.24 361.236C231.916 359.56 233.158 357.5 233.858 355.235C234.557 352.97 234.694 350.568 234.255 348.238C236.492 347.453 238.504 346.134 240.115 344.396C241.727 342.657 242.89 340.552 243.503 338.262C244.116 335.972 244.162 333.567 243.635 331.255C243.108 328.944 242.026 326.796 240.481 324.998Z" fill="#FF3D00"/>
<path d="M208.032 303.606L192.744 320.376L175.974 305.089C174.657 303.888 172.596 303.983 171.395 305.301C170.193 306.618 170.289 308.679 171.606 309.88L188.377 325.168L173.089 341.938C171.888 343.256 171.983 345.317 173.301 346.518C174.618 347.719 176.679 347.624 177.88 346.306L193.168 329.536L209.938 344.823C211.256 346.025 213.317 345.929 214.518 344.612C215.719 343.294 215.624 341.233 214.306 340.032L197.536 324.744L212.823 307.974C214.025 306.656 213.929 304.596 212.612 303.394C211.294 302.193 209.233 302.289 208.032 303.606Z" fill="white"/>
<path d="M208.032 303.606L192.744 320.376L175.974 305.089C174.657 303.888 172.596 303.983 171.395 305.301C170.193 306.618 170.289 308.679 171.606 309.88L188.377 325.168L173.089 341.938C171.888 343.256 171.983 345.317 173.301 346.518C174.618 347.719 176.679 347.624 177.88 346.306L193.168 329.536L209.938 344.823C211.256 346.025 213.317 345.929 214.518 344.612C215.719 343.294 215.624 341.233 214.306 340.032L197.536 324.744L212.823 307.974C214.025 306.656 213.929 304.596 212.612 303.394C211.294 302.193 209.233 302.289 208.032 303.606Z" fill="white"/>
<path d="M109.992 442.5H111.477L107.922 448.252V453H106.662V448.252L103.107 442.5H104.592L107.292 446.872L109.992 442.5ZM114.825 453.195C114.135 453.195 113.505 453.017 112.935 452.662C112.37 452.307 111.918 451.832 111.578 451.237C111.243 450.637 111.075 449.975 111.075 449.25C111.075 448.7 111.173 448.187 111.368 447.712C111.563 447.232 111.83 446.812 112.17 446.452C112.515 446.087 112.915 445.802 113.37 445.597C113.825 445.392 114.31 445.29 114.825 445.29C115.515 445.29 116.143 445.467 116.708 445.822C117.278 446.177 117.73 446.655 118.065 447.255C118.405 447.855 118.575 448.52 118.575 449.25C118.575 449.795 118.478 450.305 118.283 450.78C118.088 451.255 117.818 451.675 117.473 452.04C117.133 452.4 116.735 452.682 116.28 452.887C115.83 453.093 115.345 453.195 114.825 453.195ZM114.825 451.935C115.295 451.935 115.718 451.812 116.093 451.567C116.473 451.317 116.77 450.99 116.985 450.585C117.205 450.175 117.315 449.73 117.315 449.25C117.315 448.76 117.203 448.31 116.978 447.9C116.758 447.49 116.46 447.162 116.085 446.917C115.71 446.672 115.29 446.55 114.825 446.55C114.355 446.55 113.933 446.675 113.558 446.925C113.183 447.17 112.885 447.497 112.665 447.907C112.445 448.317 112.335 448.765 112.335 449.25C112.335 449.75 112.448 450.205 112.673 450.615C112.898 451.02 113.2 451.342 113.58 451.582C113.96 451.817 114.375 451.935 114.825 451.935ZM119.414 450.15V445.5H120.674V449.872C120.674 450.252 120.766 450.597 120.951 450.907C121.136 451.217 121.384 451.465 121.694 451.65C122.009 451.83 122.354 451.92 122.729 451.92C123.109 451.92 123.451 451.83 123.756 451.65C124.066 451.465 124.314 451.217 124.499 450.907C124.684 450.597 124.776 450.252 124.776 449.872V445.5H126.036L126.044 453H124.784L124.776 452.047C124.511 452.397 124.176 452.677 123.771 452.887C123.366 453.093 122.929 453.195 122.459 453.195C121.899 453.195 121.386 453.06 120.921 452.79C120.461 452.515 120.094 452.147 119.819 451.687C119.549 451.227 119.414 450.715 119.414 450.15ZM127.551 453V445.5H128.811V446.437C129.076 446.087 129.411 445.81 129.816 445.605C130.221 445.395 130.661 445.29 131.136 445.29C131.426 445.29 131.706 445.327 131.976 445.402L131.466 446.662C131.261 446.597 131.061 446.565 130.866 446.565C130.491 446.565 130.146 446.657 129.831 446.842C129.521 447.022 129.273 447.267 129.088 447.577C128.903 447.887 128.811 448.232 128.811 448.612V453H127.551ZM140.518 446.76H138.815L138.808 453H137.548L137.555 446.76H136.265V445.5H137.555L137.548 443.145H138.808L138.815 445.5H140.518V446.76ZM141.862 453V445.5H143.122V446.437C143.387 446.087 143.722 445.81 144.127 445.605C144.532 445.395 144.972 445.29 145.447 445.29C145.737 445.29 146.017 445.327 146.287 445.402L145.777 446.662C145.572 446.597 145.372 446.565 145.177 446.565C144.802 446.565 144.457 446.657 144.142 446.842C143.832 447.022 143.585 447.267 143.4 447.577C143.215 447.887 143.122 448.232 143.122 448.612V453H141.862ZM152.858 445.5H154.118V453H152.858L152.806 451.732C152.571 452.167 152.246 452.52 151.831 452.79C151.421 453.06 150.931 453.195 150.361 453.195C149.811 453.195 149.296 453.093 148.816 452.887C148.336 452.677 147.911 452.39 147.541 452.025C147.176 451.655 146.891 451.23 146.686 450.75C146.481 450.27 146.378 449.752 146.378 449.197C146.378 448.662 146.478 448.157 146.678 447.682C146.878 447.207 147.156 446.792 147.511 446.437C147.871 446.077 148.286 445.797 148.756 445.597C149.226 445.392 149.731 445.29 150.271 445.29C150.861 445.29 151.378 445.43 151.823 445.71C152.268 445.985 152.628 446.342 152.903 446.782L152.858 445.5ZM150.338 451.972C150.833 451.972 151.261 451.852 151.621 451.612C151.986 451.367 152.266 451.037 152.461 450.622C152.661 450.207 152.761 449.75 152.761 449.25C152.761 448.74 152.661 448.28 152.461 447.87C152.261 447.455 151.978 447.127 151.613 446.887C151.253 446.642 150.828 446.52 150.338 446.52C149.843 446.52 149.393 446.642 148.988 446.887C148.583 447.132 148.261 447.462 148.021 447.877C147.786 448.287 147.668 448.745 147.668 449.25C147.668 449.755 147.791 450.215 148.036 450.63C148.281 451.04 148.606 451.367 149.011 451.612C149.416 451.852 149.858 451.972 150.338 451.972ZM161.508 441.75H162.768V453H161.508V451.725C161.253 452.165 160.911 452.52 160.481 452.79C160.051 453.06 159.546 453.195 158.966 453.195C158.421 453.195 157.911 453.093 157.436 452.887C156.961 452.682 156.541 452.4 156.176 452.04C155.816 451.675 155.533 451.255 155.328 450.78C155.123 450.305 155.021 449.795 155.021 449.25C155.021 448.705 155.123 448.195 155.328 447.72C155.533 447.24 155.816 446.82 156.176 446.46C156.541 446.095 156.961 445.81 157.436 445.605C157.911 445.4 158.421 445.297 158.966 445.297C159.546 445.297 160.051 445.432 160.481 445.702C160.911 445.972 161.253 446.327 161.508 446.767V441.75ZM158.981 451.972C159.476 451.972 159.903 451.852 160.263 451.612C160.628 451.367 160.908 451.037 161.103 450.622C161.303 450.207 161.403 449.75 161.403 449.25C161.403 448.74 161.303 448.28 161.103 447.87C160.903 447.455 160.621 447.127 160.256 446.887C159.896 446.642 159.471 446.52 158.981 446.52C158.486 446.52 158.036 446.642 157.631 446.887C157.231 447.132 156.911 447.462 156.671 447.877C156.431 448.287 156.311 448.745 156.311 449.25C156.311 449.755 156.433 450.215 156.678 450.63C156.923 451.04 157.248 451.367 157.653 451.612C158.058 451.852 158.501 451.972 158.981 451.972ZM167.794 453.195C167.104 453.195 166.474 453.017 165.904 452.662C165.339 452.307 164.887 451.832 164.547 451.237C164.212 450.637 164.044 449.975 164.044 449.25C164.044 448.7 164.142 448.187 164.337 447.712C164.532 447.232 164.799 446.812 165.139 446.452C165.484 446.087 165.884 445.802 166.339 445.597C166.794 445.392 167.279 445.29 167.794 445.29C168.359 445.29 168.877 445.405 169.347 445.635C169.822 445.86 170.227 446.175 170.562 446.58C170.902 446.985 171.154 447.455 171.319 447.99C171.489 448.525 171.552 449.097 171.507 449.707H165.387C165.447 450.132 165.587 450.512 165.807 450.847C166.027 451.177 166.307 451.44 166.647 451.635C166.992 451.83 167.374 451.93 167.794 451.935C168.244 451.935 168.652 451.82 169.017 451.59C169.382 451.355 169.677 451.035 169.902 450.63L171.184 450.93C170.884 451.595 170.432 452.14 169.827 452.565C169.222 452.985 168.544 453.195 167.794 453.195ZM165.349 448.717H170.239C170.199 448.297 170.064 447.915 169.834 447.57C169.604 447.22 169.312 446.94 168.957 446.73C168.602 446.52 168.214 446.415 167.794 446.415C167.374 446.415 166.989 446.517 166.639 446.722C166.289 446.927 165.999 447.205 165.769 447.555C165.544 447.9 165.404 448.287 165.349 448.717ZM183.107 448.335V453H181.847V448.612C181.847 448.232 181.754 447.887 181.569 447.577C181.384 447.267 181.137 447.022 180.827 446.842C180.517 446.657 180.172 446.565 179.792 446.565C179.417 446.565 179.072 446.657 178.757 446.842C178.447 447.022 178.199 447.267 178.014 447.577C177.829 447.887 177.737 448.232 177.737 448.612V453H176.477V441.75H177.737V446.437C178.002 446.087 178.337 445.81 178.742 445.605C179.147 445.395 179.587 445.29 180.062 445.29C180.622 445.29 181.132 445.427 181.592 445.702C182.057 445.972 182.424 446.337 182.694 446.797C182.969 447.257 183.107 447.77 183.107 448.335ZM190.49 445.5H191.75V453H190.49L190.438 451.732C190.203 452.167 189.878 452.52 189.463 452.79C189.053 453.06 188.563 453.195 187.993 453.195C187.443 453.195 186.928 453.093 186.448 452.887C185.968 452.677 185.543 452.39 185.173 452.025C184.808 451.655 184.523 451.23 184.318 450.75C184.113 450.27 184.01 449.752 184.01 449.197C184.01 448.662 184.11 448.157 184.31 447.682C184.51 447.207 184.788 446.792 185.143 446.437C185.503 446.077 185.918 445.797 186.388 445.597C186.858 445.392 187.363 445.29 187.903 445.29C188.493 445.29 189.01 445.43 189.455 445.71C189.9 445.985 190.26 446.342 190.535 446.782L190.49 445.5ZM187.97 451.972C188.465 451.972 188.893 451.852 189.253 451.612C189.618 451.367 189.898 451.037 190.093 450.622C190.293 450.207 190.393 449.75 190.393 449.25C190.393 448.74 190.293 448.28 190.093 447.87C189.893 447.455 189.61 447.127 189.245 446.887C188.885 446.642 188.46 446.52 187.97 446.52C187.475 446.52 187.025 446.642 186.62 446.887C186.215 447.132 185.893 447.462 185.653 447.877C185.418 448.287 185.3 448.745 185.3 449.25C185.3 449.755 185.423 450.215 185.668 450.63C185.913 451.04 186.238 451.367 186.643 451.612C187.048 451.852 187.49 451.972 187.97 451.972ZM195.537 453.143C195.132 453.128 194.737 453.053 194.352 452.917C193.972 452.777 193.637 452.59 193.347 452.355C193.062 452.115 192.854 451.84 192.724 451.53L193.804 451.065C193.879 451.235 194.014 451.395 194.209 451.545C194.404 451.695 194.629 451.815 194.884 451.905C195.139 451.995 195.397 452.04 195.657 452.04C195.932 452.04 196.189 451.997 196.429 451.912C196.669 451.827 196.864 451.702 197.014 451.537C197.169 451.367 197.247 451.165 197.247 450.93C197.247 450.68 197.162 450.485 196.992 450.345C196.827 450.2 196.617 450.087 196.362 450.007C196.112 449.922 195.857 449.842 195.597 449.767C195.082 449.637 194.622 449.482 194.217 449.302C193.812 449.117 193.492 448.885 193.257 448.605C193.027 448.32 192.912 447.957 192.912 447.517C192.912 447.052 193.039 446.65 193.294 446.31C193.554 445.97 193.894 445.707 194.314 445.522C194.734 445.337 195.184 445.245 195.664 445.245C196.269 445.245 196.822 445.375 197.322 445.635C197.822 445.895 198.194 446.247 198.439 446.692L197.427 447.285C197.342 447.105 197.212 446.947 197.037 446.812C196.862 446.672 196.662 446.562 196.437 446.482C196.212 446.402 195.982 446.36 195.747 446.355C195.457 446.345 195.184 446.382 194.929 446.467C194.679 446.552 194.477 446.682 194.322 446.857C194.172 447.027 194.097 447.24 194.097 447.495C194.097 447.745 194.177 447.935 194.337 448.065C194.502 448.195 194.714 448.3 194.974 448.38C195.239 448.455 195.527 448.542 195.837 448.642C196.292 448.787 196.717 448.955 197.112 449.145C197.507 449.335 197.824 449.572 198.064 449.857C198.309 450.142 198.429 450.495 198.424 450.915C198.424 451.375 198.287 451.777 198.012 452.122C197.737 452.462 197.379 452.722 196.939 452.902C196.504 453.083 196.037 453.163 195.537 453.143ZM207.108 445.29C207.838 445.29 208.5 445.467 209.095 445.822C209.695 446.177 210.173 446.655 210.528 447.255C210.883 447.85 211.06 448.512 211.06 449.242C211.06 449.787 210.958 450.3 210.753 450.78C210.548 451.255 210.263 451.675 209.898 452.04C209.538 452.4 209.118 452.682 208.638 452.887C208.163 453.093 207.653 453.195 207.108 453.195C206.528 453.195 206.023 453.06 205.593 452.79C205.168 452.515 204.828 452.157 204.573 451.717V453H203.313V441.75H204.573V446.767C204.828 446.327 205.168 445.972 205.593 445.702C206.023 445.427 206.528 445.29 207.108 445.29ZM207.093 451.965C207.588 451.965 208.038 451.842 208.443 451.597C208.848 451.352 209.17 451.025 209.41 450.615C209.65 450.2 209.77 449.742 209.77 449.242C209.77 448.732 209.648 448.272 209.403 447.862C209.158 447.447 208.833 447.12 208.428 446.88C208.023 446.635 207.578 446.512 207.093 446.512C206.603 446.512 206.175 446.635 205.81 446.88C205.45 447.125 205.17 447.455 204.97 447.87C204.775 448.285 204.678 448.742 204.678 449.242C204.678 449.747 204.775 450.207 204.97 450.622C205.17 451.032 205.453 451.36 205.818 451.605C206.183 451.845 206.608 451.965 207.093 451.965ZM215.563 453.195C214.873 453.195 214.243 453.017 213.673 452.662C213.108 452.307 212.655 451.832 212.315 451.237C211.98 450.637 211.813 449.975 211.813 449.25C211.813 448.7 211.91 448.187 212.105 447.712C212.3 447.232 212.568 446.812 212.908 446.452C213.253 446.087 213.653 445.802 214.108 445.597C214.563 445.392 215.048 445.29 215.563 445.29C216.128 445.29 216.645 445.405 217.115 445.635C217.59 445.86 217.995 446.175 218.33 446.58C218.67 446.985 218.923 447.455 219.088 447.99C219.258 448.525 219.32 449.097 219.275 449.707H213.155C213.215 450.132 213.355 450.512 213.575 450.847C213.795 451.177 214.075 451.44 214.415 451.635C214.76 451.83 215.143 451.93 215.563 451.935C216.013 451.935 216.42 451.82 216.785 451.59C217.15 451.355 217.445 451.035 217.67 450.63L218.953 450.93C218.653 451.595 218.2 452.14 217.595 452.565C216.99 452.985 216.313 453.195 215.563 453.195ZM213.118 448.717H218.008C217.968 448.297 217.833 447.915 217.603 447.57C217.373 447.22 217.08 446.94 216.725 446.73C216.37 446.52 215.983 446.415 215.563 446.415C215.143 446.415 214.758 446.517 214.408 446.722C214.058 446.927 213.768 447.205 213.538 447.555C213.313 447.9 213.173 448.287 213.118 448.717ZM223.795 453.195C223.105 453.195 222.475 453.017 221.905 452.662C221.34 452.307 220.888 451.832 220.548 451.237C220.213 450.637 220.045 449.975 220.045 449.25C220.045 448.7 220.143 448.187 220.338 447.712C220.533 447.232 220.8 446.812 221.14 446.452C221.485 446.087 221.885 445.802 222.34 445.597C222.795 445.392 223.28 445.29 223.795 445.29C224.36 445.29 224.878 445.405 225.348 445.635C225.823 445.86 226.228 446.175 226.563 446.58C226.903 446.985 227.155 447.455 227.32 447.99C227.49 448.525 227.553 449.097 227.508 449.707H221.388C221.448 450.132 221.588 450.512 221.808 450.847C222.028 451.177 222.308 451.44 222.648 451.635C222.993 451.83 223.375 451.93 223.795 451.935C224.245 451.935 224.653 451.82 225.018 451.59C225.383 451.355 225.678 451.035 225.903 450.63L227.185 450.93C226.885 451.595 226.433 452.14 225.828 452.565C225.223 452.985 224.545 453.195 223.795 453.195ZM221.35 448.717H226.24C226.2 448.297 226.065 447.915 225.835 447.57C225.605 447.22 225.313 446.94 224.958 446.73C224.603 446.52 224.215 446.415 223.795 446.415C223.375 446.415 222.99 446.517 222.64 446.722C222.29 446.927 222 447.205 221.77 447.555C221.545 447.9 221.405 448.287 221.35 448.717ZM235.402 448.335V453H234.142V448.612C234.142 448.232 234.049 447.887 233.864 447.577C233.679 447.267 233.432 447.022 233.122 446.842C232.812 446.657 232.467 446.565 232.087 446.565C231.712 446.565 231.367 446.657 231.052 446.842C230.742 447.022 230.494 447.267 230.309 447.577C230.124 447.887 230.032 448.232 230.032 448.612V453H228.772V445.5H230.032V446.437C230.297 446.087 230.632 445.81 231.037 445.605C231.442 445.395 231.882 445.29 232.357 445.29C232.917 445.29 233.427 445.427 233.887 445.702C234.352 445.972 234.719 446.337 234.989 446.797C235.264 447.257 235.402 447.77 235.402 448.335ZM240.505 453V442.5H243.977C244.702 442.5 245.382 442.637 246.017 442.912C246.652 443.182 247.21 443.56 247.69 444.045C248.17 444.525 248.545 445.082 248.815 445.717C249.09 446.347 249.227 447.025 249.227 447.75C249.227 448.475 249.09 449.155 248.815 449.79C248.545 450.42 248.17 450.977 247.69 451.462C247.21 451.942 246.652 452.32 246.017 452.595C245.382 452.865 244.702 453 243.977 453H240.505ZM241.765 451.74H243.977C244.527 451.74 245.042 451.637 245.522 451.432C246.007 451.222 246.432 450.935 246.797 450.57C247.162 450.205 247.447 449.782 247.652 449.302C247.862 448.817 247.967 448.3 247.967 447.75C247.967 447.2 247.862 446.685 247.652 446.205C247.447 445.72 247.16 445.295 246.79 444.93C246.425 444.565 246.002 444.28 245.522 444.075C245.042 443.865 244.527 443.76 243.977 443.76H241.765V451.74ZM253.751 453.195C253.061 453.195 252.431 453.017 251.861 452.662C251.296 452.307 250.844 451.832 250.504 451.237C250.169 450.637 250.001 449.975 250.001 449.25C250.001 448.7 250.099 448.187 250.294 447.712C250.489 447.232 250.756 446.812 251.096 446.452C251.441 446.087 251.841 445.802 252.296 445.597C252.751 445.392 253.236 445.29 253.751 445.29C254.316 445.29 254.834 445.405 255.304 445.635C255.779 445.86 256.184 446.175 256.519 446.58C256.859 446.985 257.111 447.455 257.276 447.99C257.446 448.525 257.509 449.097 257.464 449.707H251.344C251.404 450.132 251.544 450.512 251.764 450.847C251.984 451.177 252.264 451.44 252.604 451.635C252.949 451.83 253.331 451.93 253.751 451.935C254.201 451.935 254.609 451.82 254.974 451.59C255.339 451.355 255.634 451.035 255.859 450.63L257.141 450.93C256.841 451.595 256.389 452.14 255.784 452.565C255.179 452.985 254.501 453.195 253.751 453.195ZM251.306 448.717H256.196C256.156 448.297 256.021 447.915 255.791 447.57C255.561 447.22 255.269 446.94 254.914 446.73C254.559 446.52 254.171 446.415 253.751 446.415C253.331 446.415 252.946 446.517 252.596 446.722C252.246 446.927 251.956 447.205 251.726 447.555C251.501 447.9 251.361 448.287 251.306 448.717ZM263.851 451.02L264.976 451.627C264.636 452.102 264.204 452.482 263.679 452.767C263.159 453.052 262.594 453.195 261.984 453.195C261.294 453.195 260.664 453.017 260.094 452.662C259.529 452.307 259.076 451.832 258.736 451.237C258.401 450.637 258.234 449.975 258.234 449.25C258.234 448.7 258.331 448.187 258.526 447.712C258.721 447.232 258.989 446.812 259.329 446.452C259.674 446.087 260.074 445.802 260.529 445.597C260.984 445.392 261.469 445.29 261.984 445.29C262.594 445.29 263.159 445.432 263.679 445.717C264.204 446.002 264.636 446.385 264.976 446.865L263.851 447.472C263.611 447.177 263.326 446.95 262.996 446.79C262.666 446.63 262.329 446.55 261.984 446.55C261.519 446.55 261.096 446.675 260.716 446.925C260.341 447.17 260.044 447.497 259.824 447.907C259.604 448.317 259.494 448.765 259.494 449.25C259.494 449.735 259.604 450.182 259.824 450.592C260.049 450.997 260.349 451.322 260.724 451.567C261.104 451.812 261.524 451.935 261.984 451.935C262.354 451.935 262.701 451.85 263.026 451.68C263.351 451.51 263.626 451.29 263.851 451.02ZM266.198 453V441.75H267.458V453H266.198ZM269.26 445.5H270.52V453H269.26V445.5ZM269.905 444.277C269.705 444.277 269.537 444.212 269.402 444.082C269.267 443.952 269.2 443.79 269.2 443.595C269.2 443.4 269.267 443.237 269.402 443.107C269.537 442.977 269.702 442.912 269.897 442.912C270.092 442.912 270.257 442.977 270.392 443.107C270.527 443.237 270.595 443.4 270.595 443.595C270.595 443.79 270.527 443.952 270.392 444.082C270.262 444.212 270.1 444.277 269.905 444.277ZM278.907 448.335V453H277.647V448.612C277.647 448.232 277.555 447.887 277.37 447.577C277.185 447.267 276.937 447.022 276.627 446.842C276.317 446.657 275.972 446.565 275.592 446.565C275.217 446.565 274.872 446.657 274.557 446.842C274.247 447.022 274 447.267 273.815 447.577C273.63 447.887 273.537 448.232 273.537 448.612V453H272.277V445.5H273.537V446.437C273.802 446.087 274.137 445.81 274.542 445.605C274.947 445.395 275.387 445.29 275.862 445.29C276.422 445.29 276.932 445.427 277.392 445.702C277.857 445.972 278.225 446.337 278.495 446.797C278.77 447.257 278.907 447.77 278.907 448.335ZM283.561 453.195C282.871 453.195 282.241 453.017 281.671 452.662C281.106 452.307 280.653 451.832 280.313 451.237C279.978 450.637 279.811 449.975 279.811 449.25C279.811 448.7 279.908 448.187 280.103 447.712C280.298 447.232 280.566 446.812 280.906 446.452C281.251 446.087 281.651 445.802 282.106 445.597C282.561 445.392 283.046 445.29 283.561 445.29C284.126 445.29 284.643 445.405 285.113 445.635C285.588 445.86 285.993 446.175 286.328 446.58C286.668 446.985 286.921 447.455 287.086 447.99C287.256 448.525 287.318 449.097 287.273 449.707H281.153C281.213 450.132 281.353 450.512 281.573 450.847C281.793 451.177 282.073 451.44 282.413 451.635C282.758 451.83 283.141 451.93 283.561 451.935C284.011 451.935 284.418 451.82 284.783 451.59C285.148 451.355 285.443 451.035 285.668 450.63L286.951 450.93C286.651 451.595 286.198 452.14 285.593 452.565C284.988 452.985 284.311 453.195 283.561 453.195ZM281.116 448.717H286.006C285.966 448.297 285.831 447.915 285.601 447.57C285.371 447.22 285.078 446.94 284.723 446.73C284.368 446.52 283.981 446.415 283.561 446.415C283.141 446.415 282.756 446.517 282.406 446.722C282.056 446.927 281.766 447.205 281.536 447.555C281.311 447.9 281.171 448.287 281.116 448.717ZM143.17 474.02L144.295 474.627C143.955 475.102 143.523 475.482 142.998 475.767C142.478 476.052 141.913 476.195 141.303 476.195C140.613 476.195 139.983 476.017 139.413 475.662C138.848 475.307 138.395 474.832 138.055 474.237C137.72 473.637 137.553 472.975 137.553 472.25C137.553 471.7 137.65 471.187 137.845 470.712C138.04 470.232 138.308 469.812 138.648 469.452C138.993 469.087 139.393 468.802 139.848 468.597C140.303 468.392 140.788 468.29 141.303 468.29C141.913 468.29 142.478 468.432 142.998 468.717C143.523 469.002 143.955 469.385 144.295 469.865L143.17 470.472C142.93 470.177 142.645 469.95 142.315 469.79C141.985 469.63 141.648 469.55 141.303 469.55C140.838 469.55 140.415 469.675 140.035 469.925C139.66 470.17 139.363 470.497 139.143 470.907C138.923 471.317 138.813 471.765 138.813 472.25C138.813 472.735 138.923 473.182 139.143 473.592C139.368 473.997 139.668 474.322 140.043 474.567C140.423 474.812 140.843 474.935 141.303 474.935C141.673 474.935 142.02 474.85 142.345 474.68C142.67 474.51 142.945 474.29 143.17 474.02ZM151.547 468.5H152.807V476H151.547L151.495 474.732C151.26 475.167 150.935 475.52 150.52 475.79C150.11 476.06 149.62 476.195 149.05 476.195C148.5 476.195 147.985 476.093 147.505 475.887C147.025 475.677 146.6 475.39 146.23 475.025C145.865 474.655 145.58 474.23 145.375 473.75C145.17 473.27 145.067 472.752 145.067 472.197C145.067 471.662 145.167 471.157 145.367 470.682C145.567 470.207 145.845 469.792 146.2 469.437C146.56 469.077 146.975 468.797 147.445 468.597C147.915 468.392 148.42 468.29 148.96 468.29C149.55 468.29 150.067 468.43 150.512 468.71C150.957 468.985 151.317 469.342 151.592 469.782L151.547 468.5ZM149.027 474.972C149.522 474.972 149.95 474.852 150.31 474.612C150.675 474.367 150.955 474.037 151.15 473.622C151.35 473.207 151.45 472.75 151.45 472.25C151.45 471.74 151.35 471.28 151.15 470.87C150.95 470.455 150.667 470.127 150.302 469.887C149.942 469.642 149.517 469.52 149.027 469.52C148.532 469.52 148.082 469.642 147.677 469.887C147.272 470.132 146.95 470.462 146.71 470.877C146.475 471.287 146.357 471.745 146.357 472.25C146.357 472.755 146.48 473.215 146.725 473.63C146.97 474.04 147.295 474.367 147.7 474.612C148.105 474.852 148.547 474.972 149.027 474.972ZM154.306 476V468.5H155.566V469.437C155.831 469.087 156.166 468.81 156.571 468.605C156.976 468.395 157.416 468.29 157.891 468.29C158.181 468.29 158.461 468.327 158.731 468.402L158.221 469.662C158.016 469.597 157.816 469.565 157.621 469.565C157.246 469.565 156.901 469.657 156.586 469.842C156.276 470.022 156.029 470.267 155.844 470.577C155.659 470.887 155.566 471.232 155.566 471.612V476H154.306ZM165.31 464.75H166.57V476H165.31V474.725C165.055 475.165 164.712 475.52 164.282 475.79C163.852 476.06 163.347 476.195 162.767 476.195C162.222 476.195 161.712 476.093 161.237 475.887C160.762 475.682 160.342 475.4 159.977 475.04C159.617 474.675 159.335 474.255 159.13 473.78C158.925 473.305 158.822 472.795 158.822 472.25C158.822 471.705 158.925 471.195 159.13 470.72C159.335 470.24 159.617 469.82 159.977 469.46C160.342 469.095 160.762 468.81 161.237 468.605C161.712 468.4 162.222 468.297 162.767 468.297C163.347 468.297 163.852 468.432 164.282 468.702C164.712 468.972 165.055 469.327 165.31 469.767V464.75ZM162.782 474.972C163.277 474.972 163.705 474.852 164.065 474.612C164.43 474.367 164.71 474.037 164.905 473.622C165.105 473.207 165.205 472.75 165.205 472.25C165.205 471.74 165.105 471.28 164.905 470.87C164.705 470.455 164.422 470.127 164.057 469.887C163.697 469.642 163.272 469.52 162.782 469.52C162.287 469.52 161.837 469.642 161.432 469.887C161.032 470.132 160.712 470.462 160.472 470.877C160.232 471.287 160.112 471.745 160.112 472.25C160.112 472.755 160.235 473.215 160.48 473.63C160.725 474.04 161.05 474.367 161.455 474.612C161.86 474.852 162.302 474.972 162.782 474.972ZM178.602 471.335V476H177.342V471.612C177.342 471.232 177.25 470.887 177.065 470.577C176.88 470.267 176.632 470.022 176.322 469.842C176.012 469.657 175.667 469.565 175.287 469.565C174.912 469.565 174.567 469.657 174.252 469.842C173.942 470.022 173.695 470.267 173.51 470.577C173.325 470.887 173.232 471.232 173.232 471.612V476H171.972V468.5H173.232V469.437C173.497 469.087 173.832 468.81 174.237 468.605C174.642 468.395 175.082 468.29 175.557 468.29C176.117 468.29 176.627 468.427 177.087 468.702C177.552 468.972 177.92 469.337 178.19 469.797C178.465 470.257 178.602 470.77 178.602 471.335ZM183.256 476.195C182.566 476.195 181.936 476.017 181.366 475.662C180.801 475.307 180.348 474.832 180.008 474.237C179.673 473.637 179.506 472.975 179.506 472.25C179.506 471.7 179.603 471.187 179.798 470.712C179.993 470.232 180.261 469.812 180.601 469.452C180.946 469.087 181.346 468.802 181.801 468.597C182.256 468.392 182.741 468.29 183.256 468.29C183.946 468.29 184.573 468.467 185.138 468.822C185.708 469.177 186.161 469.655 186.496 470.255C186.836 470.855 187.006 471.52 187.006 472.25C187.006 472.795 186.908 473.305 186.713 473.78C186.518 474.255 186.248 474.675 185.903 475.04C185.563 475.4 185.166 475.682 184.711 475.887C184.261 476.093 183.776 476.195 183.256 476.195ZM183.256 474.935C183.726 474.935 184.148 474.812 184.523 474.567C184.903 474.317 185.201 473.99 185.416 473.585C185.636 473.175 185.746 472.73 185.746 472.25C185.746 471.76 185.633 471.31 185.408 470.9C185.188 470.49 184.891 470.162 184.516 469.917C184.141 469.672 183.721 469.55 183.256 469.55C182.786 469.55 182.363 469.675 181.988 469.925C181.613 470.17 181.316 470.497 181.096 470.907C180.876 471.317 180.766 471.765 180.766 472.25C180.766 472.75 180.878 473.205 181.103 473.615C181.328 474.02 181.631 474.342 182.011 474.582C182.391 474.817 182.806 474.935 183.256 474.935ZM192.044 469.76H190.341L190.334 476H189.074L189.081 469.76H187.791V468.5H189.081L189.074 466.145H190.334L190.341 468.5H192.044V469.76ZM200.509 465.5H202.032L205.849 476H204.514L203.734 473.855H198.807L198.034 476H196.692L200.509 465.5ZM199.272 472.595H203.269L201.267 467.112L199.272 472.595ZM210.091 476H208.479L205.741 468.485H207.084L209.281 474.537L211.479 468.485H212.821L210.091 476ZM219.78 468.5H221.04V476H219.78L219.727 474.732C219.492 475.167 219.167 475.52 218.752 475.79C218.342 476.06 217.852 476.195 217.282 476.195C216.732 476.195 216.217 476.093 215.737 475.887C215.257 475.677 214.832 475.39 214.462 475.025C214.097 474.655 213.812 474.23 213.607 473.75C213.402 473.27 213.3 472.752 213.3 472.197C213.3 471.662 213.4 471.157 213.6 470.682C213.8 470.207 214.077 469.792 214.432 469.437C214.792 469.077 215.207 468.797 215.677 468.597C216.147 468.392 216.652 468.29 217.192 468.29C217.782 468.29 218.3 468.43 218.745 468.71C219.19 468.985 219.55 469.342 219.825 469.782L219.78 468.5ZM217.26 474.972C217.755 474.972 218.182 474.852 218.542 474.612C218.907 474.367 219.187 474.037 219.382 473.622C219.582 473.207 219.682 472.75 219.682 472.25C219.682 471.74 219.582 471.28 219.382 470.87C219.182 470.455 218.9 470.127 218.535 469.887C218.175 469.642 217.75 469.52 217.26 469.52C216.765 469.52 216.315 469.642 215.91 469.887C215.505 470.132 215.182 470.462 214.942 470.877C214.707 471.287 214.59 471.745 214.59 472.25C214.59 472.755 214.712 473.215 214.957 473.63C215.202 474.04 215.527 474.367 215.932 474.612C216.337 474.852 216.78 474.972 217.26 474.972ZM222.539 468.5H223.799V476H222.539V468.5ZM223.184 467.277C222.984 467.277 222.816 467.212 222.681 467.082C222.546 466.952 222.479 466.79 222.479 466.595C222.479 466.4 222.546 466.237 222.681 466.107C222.816 465.977 222.981 465.912 223.176 465.912C223.371 465.912 223.536 465.977 223.671 466.107C223.806 466.237 223.874 466.4 223.874 466.595C223.874 466.79 223.806 466.952 223.671 467.082C223.541 467.212 223.379 467.277 223.184 467.277ZM225.644 476V464.75H226.904V476H225.644ZM234.662 468.5H235.922V476H234.662L234.61 474.732C234.375 475.167 234.05 475.52 233.635 475.79C233.225 476.06 232.735 476.195 232.165 476.195C231.615 476.195 231.1 476.093 230.62 475.887C230.14 475.677 229.715 475.39 229.345 475.025C228.98 474.655 228.695 474.23 228.49 473.75C228.285 473.27 228.182 472.752 228.182 472.197C228.182 471.662 228.282 471.157 228.482 470.682C228.682 470.207 228.96 469.792 229.315 469.437C229.675 469.077 230.09 468.797 230.56 468.597C231.03 468.392 231.535 468.29 232.075 468.29C232.665 468.29 233.182 468.43 233.627 468.71C234.072 468.985 234.432 469.342 234.707 469.782L234.662 468.5ZM232.142 474.972C232.637 474.972 233.065 474.852 233.425 474.612C233.79 474.367 234.07 474.037 234.265 473.622C234.465 473.207 234.565 472.75 234.565 472.25C234.565 471.74 234.465 471.28 234.265 470.87C234.065 470.455 233.782 470.127 233.417 469.887C233.057 469.642 232.632 469.52 232.142 469.52C231.647 469.52 231.197 469.642 230.792 469.887C230.387 470.132 230.065 470.462 229.825 470.877C229.59 471.287 229.472 471.745 229.472 472.25C229.472 472.755 229.595 473.215 229.84 473.63C230.085 474.04 230.41 474.367 230.815 474.612C231.22 474.852 231.662 474.972 232.142 474.972ZM241.304 468.29C242.034 468.29 242.697 468.467 243.292 468.822C243.892 469.177 244.369 469.655 244.724 470.255C245.079 470.85 245.257 471.512 245.257 472.242C245.257 472.787 245.154 473.3 244.949 473.78C244.744 474.255 244.459 474.675 244.094 475.04C243.734 475.4 243.314 475.682 242.834 475.887C242.359 476.093 241.849 476.195 241.304 476.195C240.724 476.195 240.219 476.06 239.789 475.79C239.364 475.515 239.024 475.157 238.769 474.717V476H237.509V464.75H238.769V469.767C239.024 469.327 239.364 468.972 239.789 468.702C240.219 468.427 240.724 468.29 241.304 468.29ZM241.289 474.965C241.784 474.965 242.234 474.842 242.639 474.597C243.044 474.352 243.367 474.025 243.607 473.615C243.847 473.2 243.967 472.742 243.967 472.242C243.967 471.732 243.844 471.272 243.599 470.862C243.354 470.447 243.029 470.12 242.624 469.88C242.219 469.635 241.774 469.512 241.289 469.512C240.799 469.512 240.372 469.635 240.007 469.88C239.647 470.125 239.367 470.455 239.167 470.87C238.972 471.285 238.874 471.742 238.874 472.242C238.874 472.747 238.972 473.207 239.167 473.622C239.367 474.032 239.649 474.36 240.014 474.605C240.379 474.845 240.804 474.965 241.289 474.965ZM246.43 476V464.75H247.69V476H246.43ZM252.719 476.195C252.029 476.195 251.399 476.017 250.829 475.662C250.264 475.307 249.811 474.832 249.471 474.237C249.136 473.637 248.969 472.975 248.969 472.25C248.969 471.7 249.066 471.187 249.261 470.712C249.456 470.232 249.724 469.812 250.064 469.452C250.409 469.087 250.809 468.802 251.264 468.597C251.719 468.392 252.204 468.29 252.719 468.29C253.284 468.29 253.801 468.405 254.271 468.635C254.746 468.86 255.151 469.175 255.486 469.58C255.826 469.985 256.079 470.455 256.244 470.99C256.414 471.525 256.476 472.097 256.431 472.707H250.311C250.371 473.132 250.511 473.512 250.731 473.847C250.951 474.177 251.231 474.44 251.571 474.635C251.916 474.83 252.299 474.93 252.719 474.935C253.169 474.935 253.576 474.82 253.941 474.59C254.306 474.355 254.601 474.035 254.826 473.63L256.109 473.93C255.809 474.595 255.356 475.14 254.751 475.565C254.146 475.985 253.469 476.195 252.719 476.195ZM250.274 471.717H255.164C255.124 471.297 254.989 470.915 254.759 470.57C254.529 470.22 254.236 469.94 253.881 469.73C253.526 469.52 253.139 469.415 252.719 469.415C252.299 469.415 251.914 469.517 251.564 469.722C251.214 469.927 250.924 470.205 250.694 470.555C250.469 470.9 250.329 471.287 250.274 471.717Z" fill="#8391A1"/>
<defs>


</defs>
</svg>