<svg xmlns="http://www.w3.org/2000/svg" width="106" height="112" viewBox="0 0 106 112" fill="none">
<path d="M104.599 24.2755C103.794 23.3466 103.051 22.4177 102.184 21.5507C89.179 7.67898 71.7154 0 52.9514 0C33.2585 0 14.4946 8.73175 1.48983 23.9659C-0.73955 26.5668 -0.430004 30.4682 2.17094 32.6976C4.77189 34.927 8.67333 34.6174 10.9027 32.0164C21.4923 19.569 36.8503 12.3855 52.8894 12.3855C68.9286 12.3855 82.4908 18.6401 93.0804 30.0347C93.7616 30.7779 94.3807 31.4591 95.0619 32.2641C96.3005 33.7504 98.0345 34.4935 99.8304 34.4935C101.255 34.4935 102.679 33.9981 103.794 33.0072C106.395 30.7779 106.766 26.8764 104.537 24.2755H104.599Z" fill="black"/>
<path d="M52.7651 22.4796C25.8887 22.4796 4.15215 43.8445 2.2324 72.1453C1.92277 76.8518 1.61307 93.2625 11.4595 108.435C12.6361 110.231 14.618 111.283 16.6616 111.283C17.8382 111.283 19.0147 110.974 20.0055 110.293C22.8542 108.435 23.7212 104.595 21.8015 101.747C15.6707 92.2717 13.9985 80.6913 14.5559 73.0123C16.0421 51.2758 32.4529 34.927 52.7031 34.927C72.9534 34.927 90.8504 51.8332 90.8504 72.6408C90.8504 76.0468 93.6371 78.8335 97.0431 78.8335C100.449 78.8335 103.236 76.0468 103.236 72.6408C103.236 45.0212 80.5704 22.5416 52.7031 22.5416L52.7651 22.4796Z" fill="black"/>
<path d="M52.6414 44.8354C37.4692 44.8354 25.4553 56.7255 24.031 73.1362C23.4737 79.7624 22.2969 93.5103 40.3177 109.921C41.4943 110.974 42.9807 111.531 44.4669 111.531C46.139 111.531 47.8109 110.85 49.0495 109.488C51.3408 106.949 51.155 103.047 48.616 100.756C35.1158 88.4323 35.859 79.8243 36.2925 74.127C37.0356 65.7049 42.8568 57.159 52.5794 57.159C61.5589 57.159 68.8043 64.5283 68.8043 73.6316C68.8043 77.0376 71.5911 79.8243 74.9971 79.8243C78.4031 79.8243 81.1898 77.0376 81.1898 73.6316C81.1898 57.7163 68.3709 44.7735 52.5794 44.7735L52.6414 44.8354Z" fill="black"/>
<path d="M74.9971 88.2465C66.3273 88.2465 59.2675 81.063 59.2675 72.2693C59.2675 68.8633 56.4808 66.0766 53.0748 66.0766C49.6688 66.0766 46.8821 68.8633 46.8821 72.2693C46.8821 87.9369 59.5153 100.632 74.9971 100.632C78.4031 100.632 81.1899 97.8453 81.1899 94.4393C81.1899 91.0333 78.4031 88.2465 74.9971 88.2465Z" fill="black"/>
</svg>