<svg xmlns="http://www.w3.org/2000/svg" xmlns:xlink="http://www.w3.org/1999/xlink" width="393" height="852" viewBox="0 0 393 852" fill="none">
<g clip-path="url(#clip0_75_1226)">
<rect width="393" height="852" rx="20" fill="white"/>
<rect opacity="0.35" x="350.284" y="25.043" width="16.5392" height="8.13835" rx="1.70643" stroke="#121208" stroke-opacity="0.6" stroke-width="0.787582"/>
<path opacity="0.4" d="M368.004 27.5364V30.6867C368.638 30.4199 369.05 29.7992 369.05 29.1115C369.05 28.4239 368.638 27.8032 368.004 27.5364Z" fill="#121208" fill-opacity="0.6"/>
<rect x="351.465" y="26.2246" width="14.1765" height="5.7756" rx="1.05011" fill="#0B0B0B"/>
<path fill-rule="evenodd" clip-rule="evenodd" d="M339.914 26.4467C341.667 26.4468 343.352 27.1194 344.622 28.3257C344.717 28.4188 344.87 28.4176 344.964 28.3231L345.878 27.4013C345.926 27.3533 345.953 27.2884 345.952 27.2208C345.952 27.1531 345.924 27.0885 345.876 27.0411C342.543 23.8496 337.285 23.8496 333.952 27.0411C333.904 27.0884 333.876 27.1531 333.876 27.2207C333.876 27.2883 333.902 27.3533 333.95 27.4013L334.864 28.3231C334.958 28.4178 335.111 28.419 335.207 28.3257C336.477 27.1194 338.162 26.4467 339.914 26.4467ZM339.914 29.4463C340.877 29.4462 341.805 29.8037 342.519 30.4494C342.615 30.541 342.767 30.539 342.861 30.4449L343.775 29.5232C343.823 29.4748 343.849 29.4092 343.849 29.3411C343.848 29.2729 343.82 29.2079 343.771 29.1605C341.598 27.1408 338.232 27.1408 336.059 29.1605C336.01 29.2079 335.982 29.273 335.982 29.3411C335.981 29.4093 336.008 29.4749 336.056 29.5232L336.969 30.4449C337.063 30.539 337.215 30.541 337.311 30.4494C338.025 29.8042 338.952 29.4467 339.914 29.4463ZM341.744 31.4632C341.745 31.5315 341.718 31.5974 341.67 31.6453L340.09 33.2378C340.044 33.2846 339.981 33.3109 339.915 33.3109C339.849 33.3109 339.786 33.2846 339.74 33.2378L338.16 31.6453C338.111 31.5974 338.084 31.5315 338.086 31.4631C338.087 31.3948 338.117 31.3301 338.168 31.2842C339.176 30.4319 340.654 30.4319 341.662 31.2842C341.713 31.3301 341.742 31.3948 341.744 31.4632Z" fill="#0B0B0B"/>
<path fill-rule="evenodd" clip-rule="evenodd" d="M329.15 24.9121H328.363C327.928 24.9121 327.575 25.2647 327.575 25.6997V32.5254C327.575 32.9604 327.928 33.313 328.363 33.313H329.15C329.585 33.313 329.938 32.9604 329.938 32.5254V25.6997C329.938 25.2647 329.585 24.9121 329.15 24.9121ZM324.687 26.7507H325.475C325.91 26.7507 326.262 27.1033 326.262 27.5382V32.5263C326.262 32.9612 325.91 33.3139 325.475 33.3139H324.687C324.252 33.3139 323.9 32.9612 323.9 32.5263V27.5382C323.9 27.1033 324.252 26.7507 324.687 26.7507ZM321.799 28.5875H321.011C320.576 28.5875 320.223 28.9401 320.223 29.375V32.5254C320.223 32.9603 320.576 33.313 321.011 33.313H321.799C322.234 33.313 322.586 32.9603 322.586 32.5254V29.375C322.586 28.9401 322.234 28.5875 321.799 28.5875ZM318.124 30.1622H317.336C316.901 30.1622 316.548 30.5149 316.548 30.9498V32.525C316.548 32.96 316.901 33.3126 317.336 33.3126H318.124C318.559 33.3126 318.911 32.96 318.911 32.525V30.9498C318.911 30.5149 318.559 30.1622 318.124 30.1622Z" fill="#0B0B0B"/>
<path d="M22.8415 26.0519C23.3524 26.0519 23.8136 26.1751 24.2253 26.4213C24.6369 26.6639 24.964 26.9983 25.2066 27.4247C25.4492 27.851 25.5705 28.338 25.5705 28.8856V31.4106C25.5705 31.9913 25.4492 32.5004 25.2066 32.9378C24.9677 33.3715 24.6333 33.7096 24.2032 33.9522C23.7769 34.1947 23.2844 34.316 22.7257 34.316C22.3067 34.316 21.9135 34.237 21.5459 34.079C21.1784 33.9209 20.8586 33.6857 20.5867 33.3733L21.4357 32.5849C21.5864 32.7797 21.7756 32.9359 22.0035 33.0535C22.2314 33.1711 22.4721 33.23 22.7257 33.23C23.0528 33.23 23.3414 33.1509 23.5913 32.9929C23.8449 32.8348 24.0415 32.629 24.1812 32.3754C24.3208 32.1218 24.3907 31.8498 24.3907 31.5595V30.104L24.6222 30.3576C24.3944 30.6553 24.1113 30.8906 23.7732 31.0633C23.4351 31.2361 23.0731 31.3224 22.6871 31.3224C22.191 31.3224 21.7499 31.2085 21.364 30.9806C20.9781 30.7527 20.673 30.4422 20.4488 30.0489C20.2246 29.6556 20.1125 29.2109 20.1125 28.7147C20.1125 28.2186 20.2375 27.7702 20.4874 27.3696C20.7373 26.9689 21.0681 26.6492 21.4798 26.4103C21.8914 26.1714 22.3453 26.0519 22.8415 26.0519ZM22.8415 27.1656C22.5548 27.1656 22.292 27.2354 22.0531 27.3751C21.8179 27.5111 21.6305 27.6967 21.4908 27.9319C21.3511 28.1671 21.2813 28.4281 21.2813 28.7147C21.2813 29.0014 21.3511 29.2642 21.4908 29.5031C21.6305 29.7383 21.8179 29.9258 22.0531 30.0654C22.2884 30.2051 22.5493 30.2749 22.836 30.2749C23.1227 30.2749 23.3836 30.2051 23.6188 30.0654C23.8541 29.9258 24.0415 29.7383 24.1812 29.5031C24.3208 29.2642 24.3907 29.0014 24.3907 28.7147C24.3907 28.4317 24.3208 28.1726 24.1812 27.9374C24.0452 27.7022 23.8596 27.5147 23.6244 27.3751C23.3891 27.2354 23.1282 27.1656 22.8415 27.1656ZM27.3302 33.3788V32.1604H28.5486V33.3788H27.3302ZM27.3357 30.1867V28.9683H28.5541V30.1867H27.3357ZM33.6495 34.1506V32.7669H30.066V31.6753L32.6462 26.2118H33.9638L31.3837 31.6753H33.6495V29.5252H34.8183V31.6753H35.6067V32.7669H34.8183V34.1506H33.6495ZM38.0935 34.1506V27.4798L36.5995 28.3895V27.1049L38.0935 26.2118H39.2678V34.1506H38.0935Z" fill="#0B0B0B"/>
<rect x="22" y="137" width="351" height="69" rx="10" fill="#010101"/>
<rect x="21" y="247" width="351" height="69" rx="10" fill="#010101"/>
<rect x="21" y="467" width="351" height="69" rx="10" fill="#010101"/>
<rect x="21" y="357" width="351" height="69" rx="10" fill="#010101"/>
<rect x="21" y="577" width="351" height="69" rx="10" fill="#010101"/>
<circle cx="65.5" cy="171.5" r="24" fill="#D9D9D9" stroke="black" stroke-dasharray="2 2"/>
<circle cx="67.5" cy="281.5" r="24" fill="#D9D9D9" stroke="black" stroke-dasharray="2 2"/>
<circle cx="65.5" cy="391.5" r="24" fill="#D9D9D9" stroke="black" stroke-dasharray="2 2"/>
<circle cx="65.5" cy="501.5" r="24" fill="#D9D9D9" stroke="black" stroke-dasharray="2 2"/>
<circle cx="65.5" cy="611.5" r="24" fill="#D9D9D9" stroke="black" stroke-dasharray="2 2"/>
<path d="M184.733 86V78.291H181.782V76.64H189.452V78.291H186.501V86H184.733ZM189.849 86V78.98H191.409V80.696L191.24 80.475C191.331 80.2323 191.453 80.0113 191.604 79.812C191.756 79.6127 191.942 79.448 192.163 79.318C192.332 79.214 192.516 79.1338 192.716 79.0775C192.915 79.0168 193.121 78.98 193.333 78.967C193.546 78.9497 193.758 78.954 193.97 78.98V80.631C193.775 80.5703 193.548 80.5508 193.288 80.5725C193.032 80.5898 192.8 80.6483 192.592 80.748C192.384 80.8433 192.209 80.9712 192.066 81.1315C191.923 81.2875 191.814 81.4738 191.741 81.6905C191.667 81.9028 191.63 82.1433 191.63 82.412V86H189.849ZM197.017 86.195C196.514 86.195 196.087 86.0997 195.736 85.909C195.39 85.714 195.125 85.4562 194.943 85.1355C194.766 84.8105 194.677 84.453 194.677 84.063C194.677 83.738 194.727 83.4412 194.826 83.1725C194.926 82.9038 195.086 82.6677 195.307 82.464C195.533 82.256 195.834 82.0827 196.211 81.944C196.471 81.8487 196.781 81.7642 197.14 81.6905C197.5 81.6168 197.907 81.5475 198.362 81.4825C198.817 81.4132 199.318 81.3373 199.864 81.255L199.227 81.606C199.227 81.19 199.127 80.8845 198.928 80.6895C198.729 80.4945 198.395 80.397 197.927 80.397C197.667 80.397 197.396 80.4598 197.114 80.5855C196.833 80.7112 196.636 80.9343 196.523 81.255L194.924 80.748C195.102 80.1673 195.435 79.695 195.925 79.331C196.415 78.967 197.082 78.785 197.927 78.785C198.547 78.785 199.097 78.8803 199.578 79.071C200.059 79.2617 200.423 79.591 200.67 80.059C200.809 80.319 200.891 80.579 200.917 80.839C200.943 81.099 200.956 81.3893 200.956 81.71V86H199.409V84.557L199.63 84.856C199.288 85.3283 198.917 85.6707 198.518 85.883C198.124 86.091 197.624 86.195 197.017 86.195ZM197.394 84.804C197.719 84.804 197.992 84.7477 198.213 84.635C198.438 84.518 198.616 84.3858 198.746 84.2385C198.88 84.0912 198.971 83.9677 199.019 83.868C199.11 83.6773 199.162 83.4563 199.175 83.205C199.192 82.9493 199.201 82.737 199.201 82.568L199.721 82.698C199.197 82.7847 198.772 82.8583 198.447 82.919C198.122 82.9753 197.86 83.0273 197.66 83.075C197.461 83.1227 197.286 83.1747 197.134 83.231C196.961 83.3003 196.82 83.3762 196.711 83.4585C196.607 83.5365 196.529 83.6232 196.477 83.7185C196.43 83.8138 196.406 83.92 196.406 84.037C196.406 84.1973 196.445 84.336 196.523 84.453C196.605 84.5657 196.72 84.6523 196.867 84.713C197.015 84.7737 197.19 84.804 197.394 84.804ZM205.493 86.195C204.847 86.195 204.282 86.0325 203.797 85.7075C203.311 85.3825 202.932 84.9405 202.659 84.3815C202.39 83.8225 202.256 83.192 202.256 82.49C202.256 81.775 202.393 81.1402 202.666 80.5855C202.943 80.0265 203.331 79.5867 203.829 79.266C204.327 78.9453 204.912 78.785 205.584 78.785C206.251 78.785 206.813 78.9475 207.268 79.2725C207.723 79.5975 208.067 80.0395 208.301 80.5985C208.535 81.1575 208.652 81.788 208.652 82.49C208.652 83.192 208.533 83.8225 208.295 84.3815C208.061 84.9405 207.71 85.3825 207.242 85.7075C206.774 86.0325 206.191 86.195 205.493 86.195ZM205.779 84.622C206.173 84.622 206.488 84.5332 206.722 84.3555C206.96 84.1778 207.131 83.9287 207.235 83.608C207.339 83.2873 207.391 82.9147 207.391 82.49C207.391 82.0653 207.339 81.6927 207.235 81.372C207.131 81.0513 206.964 80.8022 206.735 80.6245C206.509 80.4468 206.212 80.358 205.844 80.358C205.45 80.358 205.125 80.4555 204.869 80.6505C204.618 80.8412 204.431 81.099 204.31 81.424C204.189 81.7447 204.128 82.1 204.128 82.49C204.128 82.8843 204.187 83.244 204.304 83.569C204.421 83.8897 204.6 84.1453 204.843 84.336C205.086 84.5267 205.398 84.622 205.779 84.622ZM207.391 86V81.19H207.17V76.64H208.951V86H207.391ZM214.034 86.195C213.315 86.195 212.68 86.0412 212.13 85.7335C211.584 85.4215 211.155 84.9947 210.843 84.453C210.535 83.907 210.381 83.283 210.381 82.581C210.381 81.814 210.533 81.1467 210.836 80.579C211.139 80.0113 211.558 79.5715 212.091 79.2595C212.624 78.9432 213.237 78.785 213.93 78.785C214.667 78.785 215.293 78.9583 215.809 79.305C216.324 79.6517 216.706 80.1392 216.953 80.7675C217.2 81.3958 217.286 82.1347 217.213 82.984H215.464V82.334C215.464 81.619 215.349 81.1055 215.12 80.7935C214.894 80.4772 214.524 80.319 214.008 80.319C213.406 80.319 212.962 80.5032 212.676 80.8715C212.394 81.2355 212.253 81.775 212.253 82.49C212.253 83.1443 212.394 83.6513 212.676 84.011C212.962 84.3663 213.38 84.544 213.93 84.544C214.277 84.544 214.574 84.4682 214.821 84.3165C215.068 84.1648 215.256 83.946 215.386 83.66L217.154 84.167C216.89 84.8083 216.472 85.3067 215.9 85.662C215.332 86.0173 214.71 86.195 214.034 86.195ZM211.707 82.984V81.671H216.361V82.984H211.707Z" fill="black"/>
<path d="M34.1012 71.4883C33.9657 71.3524 33.8048 71.2447 33.6276 71.1712C33.4504 71.0977 33.2605 71.0598 33.0687 71.0598C32.8769 71.0598 32.6869 71.0977 32.5098 71.1712C32.3326 71.2447 32.1717 71.3524 32.0362 71.4883L22.3412 81.1833C22.233 81.2912 22.1472 81.4194 22.0887 81.5605C22.0301 81.7017 22 81.853 22 82.0058C22 82.1586 22.0301 82.3098 22.0887 82.451C22.1472 82.5921 22.233 82.7203 22.3412 82.8283L32.0362 92.5233C32.6079 93.0949 33.5295 93.0949 34.1012 92.5233C34.6729 91.9516 34.6729 91.0299 34.1012 90.4583L25.6545 81.9999L34.1129 73.5416C34.6729 72.9816 34.6729 72.0483 34.1012 71.4883Z" fill="#1E232C" stroke="#1E232C" stroke-width="0.2"/>
<mask id="mask0_75_1226" maskUnits="userSpaceOnUse" x="43" y="149" width="45" height="45">
<circle cx="65.5" cy="171.5" r="22.5" fill="#BBBBBB"/>
</mask>
<g mask="url(#mask0_75_1226)">
<rect x="37" y="152" width="56.2308" height="51" fill="url(#pattern0_75_1226)"/>
</g>
<mask id="mask1_75_1226" maskUnits="userSpaceOnUse" x="45" y="259" width="45" height="45">
<circle cx="67.5" cy="281.5" r="22.5" fill="#BBBBBB"/>
</mask>
<g mask="url(#mask1_75_1226)">
<rect x="41" y="257" width="54.4359" height="49.3721" fill="url(#pattern1_75_1226)"/>
</g>
<mask id="mask2_75_1226" maskUnits="userSpaceOnUse" x="43" y="369" width="45" height="45">
<circle cx="65.5" cy="391.5" r="22.5" fill="#BBBBBB"/>
</mask>
<g mask="url(#mask2_75_1226)">
<rect x="41" y="367.349" width="51.4359" height="46.6511" fill="url(#pattern2_75_1226)"/>
</g>
<mask id="mask3_75_1226" maskUnits="userSpaceOnUse" x="43" y="479" width="45" height="45">
<circle cx="65.5" cy="501.5" r="22.5" fill="#BBBBBB"/>
</mask>
<g mask="url(#mask3_75_1226)">
<rect x="41" y="465" width="51" height="78" fill="url(#pattern3_75_1226)"/>
</g>
<mask id="mask4_75_1226" maskUnits="userSpaceOnUse" x="43" y="589" width="45" height="45">
<circle cx="65.5" cy="611.5" r="22.5" fill="#BBBBBB"/>
</mask>
<g mask="url(#mask4_75_1226)">
<rect x="40" y="585" width="52" height="48.9767" fill="url(#pattern4_75_1226)"/>
</g>
<path d="M116.12 178V166.48H120.568C120.68 166.48 120.805 166.485 120.944 166.496C121.088 166.501 121.232 166.517 121.376 166.544C121.979 166.635 122.488 166.845 122.904 167.176C123.325 167.501 123.643 167.912 123.856 168.408C124.075 168.904 124.184 169.453 124.184 170.056C124.184 170.653 124.075 171.2 123.856 171.696C123.637 172.192 123.317 172.605 122.896 172.936C122.48 173.261 121.973 173.469 121.376 173.56C121.232 173.581 121.088 173.597 120.944 173.608C120.805 173.619 120.68 173.624 120.568 173.624H117.296V178H116.12ZM117.296 172.504H120.536C120.632 172.504 120.744 172.499 120.872 172.488C121 172.477 121.125 172.459 121.248 172.432C121.643 172.347 121.965 172.184 122.216 171.944C122.472 171.704 122.661 171.419 122.784 171.088C122.912 170.757 122.976 170.413 122.976 170.056C122.976 169.699 122.912 169.355 122.784 169.024C122.661 168.688 122.472 168.4 122.216 168.16C121.965 167.92 121.643 167.757 121.248 167.672C121.125 167.645 121 167.629 120.872 167.624C120.744 167.613 120.632 167.608 120.536 167.608H117.296V172.504ZM128.673 178.24C128.023 178.24 127.476 178.123 127.033 177.888C126.596 177.653 126.268 177.341 126.049 176.952C125.831 176.563 125.721 176.139 125.721 175.68C125.721 175.211 125.815 174.811 126.001 174.48C126.193 174.144 126.452 173.869 126.777 173.656C127.108 173.443 127.489 173.28 127.921 173.168C128.359 173.061 128.841 172.968 129.369 172.888C129.903 172.803 130.423 172.731 130.929 172.672C131.441 172.608 131.889 172.547 132.273 172.488L131.857 172.744C131.873 171.891 131.708 171.259 131.361 170.848C131.015 170.437 130.412 170.232 129.553 170.232C128.961 170.232 128.46 170.365 128.049 170.632C127.644 170.899 127.359 171.32 127.193 171.896L126.049 171.56C126.247 170.787 126.644 170.187 127.241 169.76C127.839 169.333 128.615 169.12 129.569 169.12C130.359 169.12 131.028 169.269 131.577 169.568C132.132 169.861 132.524 170.288 132.753 170.848C132.86 171.099 132.929 171.379 132.961 171.688C132.993 171.997 133.009 172.312 133.009 172.632V178H131.961V175.832L132.265 175.96C131.972 176.701 131.516 177.267 130.897 177.656C130.279 178.045 129.537 178.24 128.673 178.24ZM128.809 177.224C129.359 177.224 129.839 177.125 130.249 176.928C130.66 176.731 130.991 176.461 131.241 176.12C131.492 175.773 131.655 175.384 131.729 174.952C131.793 174.675 131.828 174.371 131.833 174.04C131.839 173.704 131.841 173.453 131.841 173.288L132.289 173.52C131.889 173.573 131.455 173.627 130.985 173.68C130.521 173.733 130.063 173.795 129.609 173.864C129.161 173.933 128.756 174.016 128.393 174.112C128.148 174.181 127.911 174.28 127.681 174.408C127.452 174.531 127.263 174.696 127.113 174.904C126.969 175.112 126.897 175.371 126.897 175.68C126.897 175.931 126.959 176.173 127.081 176.408C127.209 176.643 127.412 176.837 127.689 176.992C127.972 177.147 128.345 177.224 128.809 177.224ZM136.64 181.84L138.312 177.304L138.336 178.648L134.552 169.36H135.8L138.904 177.128H138.392L141.256 169.36H142.456L137.816 181.84H136.64ZM148.525 178.24C147.73 178.24 147.058 178.04 146.509 177.64C145.96 177.235 145.544 176.688 145.261 176C144.978 175.307 144.837 174.531 144.837 173.672C144.837 172.797 144.978 172.019 145.261 171.336C145.549 170.648 145.97 170.107 146.525 169.712C147.08 169.317 147.762 169.12 148.573 169.12C149.362 169.12 150.04 169.32 150.605 169.72C151.17 170.12 151.602 170.664 151.901 171.352C152.205 172.04 152.357 172.813 152.357 173.672C152.357 174.536 152.205 175.312 151.901 176C151.597 176.688 151.16 177.235 150.589 177.64C150.018 178.04 149.33 178.24 148.525 178.24ZM144.637 181.84V169.36H145.693V175.864H145.821V181.84H144.637ZM148.405 177.144C149.008 177.144 149.509 176.992 149.909 176.688C150.309 176.384 150.608 175.971 150.805 175.448C151.008 174.92 151.109 174.328 151.109 173.672C151.109 173.021 151.01 172.435 150.813 171.912C150.616 171.389 150.314 170.976 149.909 170.672C149.509 170.368 149 170.216 148.381 170.216C147.778 170.216 147.277 170.363 146.877 170.656C146.482 170.949 146.186 171.357 145.989 171.88C145.792 172.397 145.693 172.995 145.693 173.672C145.693 174.339 145.792 174.936 145.989 175.464C146.186 175.987 146.485 176.397 146.885 176.696C147.285 176.995 147.792 177.144 148.405 177.144ZM157.386 178.24C156.735 178.24 156.188 178.123 155.746 177.888C155.308 177.653 154.98 177.341 154.762 176.952C154.543 176.563 154.434 176.139 154.434 175.68C154.434 175.211 154.527 174.811 154.714 174.48C154.906 174.144 155.164 173.869 155.49 173.656C155.82 173.443 156.202 173.28 156.634 173.168C157.071 173.061 157.554 172.968 158.082 172.888C158.615 172.803 159.135 172.731 159.642 172.672C160.154 172.608 160.602 172.547 160.986 172.488L160.57 172.744C160.586 171.891 160.42 171.259 160.074 170.848C159.727 170.437 159.124 170.232 158.266 170.232C157.674 170.232 157.172 170.365 156.762 170.632C156.356 170.899 156.071 171.32 155.906 171.896L154.762 171.56C154.959 170.787 155.356 170.187 155.954 169.76C156.551 169.333 157.327 169.12 158.282 169.12C159.071 169.12 159.74 169.269 160.29 169.568C160.844 169.861 161.236 170.288 161.466 170.848C161.572 171.099 161.642 171.379 161.674 171.688C161.706 171.997 161.722 172.312 161.722 172.632V178H160.674V175.832L160.978 175.96C160.684 176.701 160.228 177.267 159.61 177.656C158.991 178.045 158.25 178.24 157.386 178.24ZM157.522 177.224C158.071 177.224 158.551 177.125 158.962 176.928C159.372 176.731 159.703 176.461 159.954 176.12C160.204 175.773 160.367 175.384 160.442 174.952C160.506 174.675 160.54 174.371 160.546 174.04C160.551 173.704 160.554 173.453 160.554 173.288L161.002 173.52C160.602 173.573 160.167 173.627 159.698 173.68C159.234 173.733 158.775 173.795 158.322 173.864C157.874 173.933 157.468 174.016 157.106 174.112C156.86 174.181 156.623 174.28 156.394 174.408C156.164 174.531 155.975 174.696 155.826 174.904C155.682 175.112 155.61 175.371 155.61 175.68C155.61 175.931 155.671 176.173 155.794 176.408C155.922 176.643 156.124 176.837 156.402 176.992C156.684 177.147 157.058 177.224 157.522 177.224ZM164.764 178V166.24H165.94V178H164.764Z" fill="white"/>
<path d="M120.12 288.24C119.315 288.24 118.589 288.107 117.944 287.84C117.304 287.568 116.773 287.184 116.352 286.688C115.936 286.192 115.664 285.603 115.536 284.92L116.736 284.72C116.928 285.467 117.333 286.053 117.952 286.48C118.571 286.901 119.309 287.112 120.168 287.112C120.733 287.112 121.24 287.024 121.688 286.848C122.136 286.667 122.488 286.411 122.744 286.08C123 285.749 123.128 285.357 123.128 284.904C123.128 284.605 123.075 284.352 122.968 284.144C122.861 283.931 122.72 283.755 122.544 283.616C122.368 283.477 122.176 283.363 121.968 283.272C121.76 283.176 121.557 283.099 121.36 283.04L118.44 282.168C118.088 282.067 117.763 281.939 117.464 281.784C117.165 281.624 116.904 281.435 116.68 281.216C116.461 280.992 116.291 280.731 116.168 280.432C116.045 280.133 115.984 279.792 115.984 279.408C115.984 278.757 116.155 278.195 116.496 277.72C116.837 277.245 117.304 276.88 117.896 276.624C118.488 276.368 119.163 276.243 119.92 276.248C120.688 276.248 121.373 276.384 121.976 276.656C122.584 276.928 123.085 277.317 123.48 277.824C123.875 278.325 124.136 278.92 124.264 279.608L123.032 279.832C122.952 279.331 122.768 278.896 122.48 278.528C122.192 278.16 121.824 277.877 121.376 277.68C120.933 277.477 120.445 277.373 119.912 277.368C119.395 277.368 118.933 277.456 118.528 277.632C118.128 277.803 117.811 278.037 117.576 278.336C117.341 278.635 117.224 278.976 117.224 279.36C117.224 279.749 117.331 280.061 117.544 280.296C117.763 280.531 118.029 280.715 118.344 280.848C118.664 280.981 118.973 281.091 119.272 281.176L121.528 281.84C121.763 281.904 122.037 281.997 122.352 282.12C122.672 282.237 122.981 282.408 123.28 282.632C123.584 282.851 123.835 283.139 124.032 283.496C124.229 283.853 124.328 284.307 124.328 284.856C124.328 285.389 124.221 285.867 124.008 286.288C123.8 286.709 123.504 287.064 123.12 287.352C122.741 287.64 122.296 287.859 121.784 288.008C121.277 288.163 120.723 288.24 120.12 288.24ZM126.771 288L126.779 276.48H127.963V283.52L131.819 279.36H133.387L129.339 283.68L133.915 288H132.203L127.963 283.84V288H126.771ZM135.517 288V279.36H136.573V281.44L136.365 281.168C136.461 280.912 136.586 280.677 136.741 280.464C136.896 280.245 137.064 280.067 137.245 279.928C137.469 279.731 137.73 279.581 138.029 279.48C138.328 279.373 138.629 279.312 138.933 279.296C139.237 279.275 139.514 279.296 139.765 279.36V280.464C139.45 280.384 139.106 280.365 138.733 280.408C138.36 280.451 138.016 280.6 137.701 280.856C137.413 281.08 137.197 281.349 137.053 281.664C136.909 281.973 136.813 282.304 136.765 282.656C136.717 283.003 136.693 283.347 136.693 283.688V288H135.517ZM142.242 277.72V276.4H143.418V277.72H142.242ZM142.242 288V279.36H143.418V288H142.242ZM146.777 288V276.24H147.953V288H146.777ZM151.311 288V276.24H152.487V288H151.311Z" fill="white"/>
<path d="M120.784 397.24C119.637 397.24 118.669 396.987 117.88 396.48C117.091 395.968 116.493 395.261 116.088 394.36C115.683 393.459 115.48 392.419 115.48 391.24C115.48 390.061 115.683 389.021 116.088 388.12C116.493 387.219 117.091 386.515 117.88 386.008C118.669 385.496 119.637 385.24 120.784 385.24C122.123 385.24 123.216 385.584 124.064 386.272C124.912 386.955 125.493 387.872 125.808 389.024L124.608 389.336C124.363 388.424 123.923 387.701 123.288 387.168C122.653 386.635 121.819 386.368 120.784 386.368C119.883 386.368 119.133 386.573 118.536 386.984C117.939 387.395 117.488 387.968 117.184 388.704C116.885 389.435 116.731 390.28 116.72 391.24C116.715 392.2 116.861 393.045 117.16 393.776C117.464 394.507 117.917 395.08 118.52 395.496C119.128 395.907 119.883 396.112 120.784 396.112C121.819 396.112 122.653 395.845 123.288 395.312C123.923 394.773 124.363 394.051 124.608 393.144L125.808 393.456C125.493 394.608 124.912 395.528 124.064 396.216C123.216 396.899 122.123 397.24 120.784 397.24ZM130.845 397.24C130.194 397.24 129.648 397.123 129.205 396.888C128.768 396.653 128.44 396.341 128.221 395.952C128.002 395.563 127.893 395.139 127.893 394.68C127.893 394.211 127.986 393.811 128.173 393.48C128.365 393.144 128.624 392.869 128.949 392.656C129.28 392.443 129.661 392.28 130.093 392.168C130.53 392.061 131.013 391.968 131.541 391.888C132.074 391.803 132.594 391.731 133.101 391.672C133.613 391.608 134.061 391.547 134.445 391.488L134.029 391.744C134.045 390.891 133.88 390.259 133.533 389.848C133.186 389.437 132.584 389.232 131.725 389.232C131.133 389.232 130.632 389.365 130.221 389.632C129.816 389.899 129.53 390.32 129.365 390.896L128.221 390.56C128.418 389.787 128.816 389.187 129.413 388.76C130.01 388.333 130.786 388.12 131.741 388.12C132.53 388.12 133.2 388.269 133.749 388.568C134.304 388.861 134.696 389.288 134.925 389.848C135.032 390.099 135.101 390.379 135.133 390.688C135.165 390.997 135.181 391.312 135.181 391.632V397H134.133V394.832L134.437 394.96C134.144 395.701 133.688 396.267 133.069 396.656C132.45 397.045 131.709 397.24 130.845 397.24ZM130.981 396.224C131.53 396.224 132.01 396.125 132.421 395.928C132.832 395.731 133.162 395.461 133.413 395.12C133.664 394.773 133.826 394.384 133.901 393.952C133.965 393.675 134 393.371 134.005 393.04C134.01 392.704 134.013 392.453 134.013 392.288L134.461 392.52C134.061 392.573 133.626 392.627 133.157 392.68C132.693 392.733 132.234 392.795 131.781 392.864C131.333 392.933 130.928 393.016 130.565 393.112C130.32 393.181 130.082 393.28 129.853 393.408C129.624 393.531 129.434 393.696 129.285 393.904C129.141 394.112 129.069 394.371 129.069 394.68C129.069 394.931 129.13 395.173 129.253 395.408C129.381 395.643 129.584 395.837 129.861 395.992C130.144 396.147 130.517 396.224 130.981 396.224ZM141.288 397.232C140.274 397.232 139.44 397.013 138.784 396.576C138.133 396.139 137.733 395.531 137.584 394.752L138.784 394.552C138.912 395.043 139.202 395.435 139.656 395.728C140.114 396.016 140.68 396.16 141.352 396.16C142.008 396.16 142.525 396.024 142.904 395.752C143.282 395.475 143.472 395.099 143.472 394.624C143.472 394.357 143.41 394.141 143.288 393.976C143.17 393.805 142.928 393.648 142.56 393.504C142.192 393.36 141.642 393.189 140.912 392.992C140.128 392.779 139.514 392.565 139.072 392.352C138.629 392.139 138.314 391.893 138.128 391.616C137.941 391.333 137.848 390.989 137.848 390.584C137.848 390.093 137.986 389.664 138.264 389.296C138.541 388.923 138.925 388.635 139.416 388.432C139.906 388.224 140.477 388.12 141.128 388.12C141.778 388.12 142.36 388.227 142.872 388.44C143.389 388.648 143.805 388.941 144.12 389.32C144.434 389.699 144.621 390.139 144.68 390.64L143.48 390.856C143.4 390.349 143.146 389.949 142.72 389.656C142.298 389.357 141.762 389.203 141.112 389.192C140.498 389.176 140 389.293 139.616 389.544C139.232 389.789 139.04 390.117 139.04 390.528C139.04 390.757 139.109 390.955 139.248 391.12C139.386 391.28 139.637 391.432 140 391.576C140.368 391.72 140.89 391.877 141.568 392.048C142.362 392.251 142.986 392.464 143.44 392.688C143.893 392.912 144.216 393.176 144.408 393.48C144.6 393.784 144.696 394.16 144.696 394.608C144.696 395.424 144.392 396.067 143.784 396.536C143.181 397 142.349 397.232 141.288 397.232ZM153.51 397V392.592C153.51 392.112 153.465 391.672 153.374 391.272C153.283 390.867 153.137 390.515 152.934 390.216C152.737 389.912 152.478 389.677 152.158 389.512C151.843 389.347 151.459 389.264 151.006 389.264C150.59 389.264 150.222 389.336 149.902 389.48C149.587 389.624 149.321 389.832 149.102 390.104C148.889 390.371 148.726 390.696 148.614 391.08C148.502 391.464 148.446 391.901 148.446 392.392L147.614 392.208C147.614 391.323 147.769 390.579 148.078 389.976C148.387 389.373 148.814 388.917 149.358 388.608C149.902 388.299 150.526 388.144 151.23 388.144C151.747 388.144 152.198 388.224 152.582 388.384C152.971 388.544 153.299 388.76 153.566 389.032C153.838 389.304 154.057 389.616 154.222 389.968C154.387 390.315 154.507 390.685 154.582 391.08C154.657 391.469 154.694 391.859 154.694 392.248V397H153.51ZM147.262 397V385.48H148.326V391.984H148.446V397H147.262ZM160.042 397.24C159.391 397.24 158.845 397.123 158.402 396.888C157.965 396.653 157.637 396.341 157.418 395.952C157.199 395.563 157.09 395.139 157.09 394.68C157.09 394.211 157.183 393.811 157.37 393.48C157.562 393.144 157.821 392.869 158.146 392.656C158.477 392.443 158.858 392.28 159.29 392.168C159.727 392.061 160.21 391.968 160.738 391.888C161.271 391.803 161.791 391.731 162.298 391.672C162.81 391.608 163.258 391.547 163.642 391.488L163.226 391.744C163.242 390.891 163.077 390.259 162.73 389.848C162.383 389.437 161.781 389.232 160.922 389.232C160.33 389.232 159.829 389.365 159.418 389.632C159.013 389.899 158.727 390.32 158.562 390.896L157.418 390.56C157.615 389.787 158.013 389.187 158.61 388.76C159.207 388.333 159.983 388.12 160.938 388.12C161.727 388.12 162.397 388.269 162.946 388.568C163.501 388.861 163.893 389.288 164.122 389.848C164.229 390.099 164.298 390.379 164.33 390.688C164.362 390.997 164.378 391.312 164.378 391.632V397H163.33V394.832L163.634 394.96C163.341 395.701 162.885 396.267 162.266 396.656C161.647 397.045 160.906 397.24 160.042 397.24ZM160.178 396.224C160.727 396.224 161.207 396.125 161.618 395.928C162.029 395.731 162.359 395.461 162.61 395.12C162.861 394.773 163.023 394.384 163.098 393.952C163.162 393.675 163.197 393.371 163.202 393.04C163.207 392.704 163.21 392.453 163.21 392.288L163.658 392.52C163.258 392.573 162.823 392.627 162.354 392.68C161.89 392.733 161.431 392.795 160.978 392.864C160.53 392.933 160.125 393.016 159.762 393.112C159.517 393.181 159.279 393.28 159.05 393.408C158.821 393.531 158.631 393.696 158.482 393.904C158.338 394.112 158.266 394.371 158.266 394.68C158.266 394.931 158.327 395.173 158.45 395.408C158.578 395.643 158.781 395.837 159.058 395.992C159.341 396.147 159.714 396.224 160.178 396.224ZM171.141 397.24C170.346 397.24 169.674 397.04 169.125 396.64C168.575 396.235 168.159 395.688 167.877 395C167.594 394.307 167.453 393.531 167.453 392.672C167.453 391.797 167.594 391.019 167.877 390.336C168.165 389.648 168.586 389.107 169.141 388.712C169.695 388.317 170.378 388.12 171.189 388.12C171.978 388.12 172.655 388.32 173.221 388.72C173.786 389.12 174.218 389.664 174.517 390.352C174.821 391.04 174.973 391.813 174.973 392.672C174.973 393.536 174.821 394.312 174.517 395C174.213 395.688 173.775 396.235 173.205 396.64C172.634 397.04 171.946 397.24 171.141 397.24ZM167.253 400.84V388.36H168.309V394.864H168.437V400.84H167.253ZM171.021 396.144C171.623 396.144 172.125 395.992 172.525 395.688C172.925 395.384 173.223 394.971 173.421 394.448C173.623 393.92 173.725 393.328 173.725 392.672C173.725 392.021 173.626 391.435 173.429 390.912C173.231 390.389 172.93 389.976 172.525 389.672C172.125 389.368 171.615 389.216 170.997 389.216C170.394 389.216 169.893 389.363 169.493 389.656C169.098 389.949 168.802 390.357 168.605 390.88C168.407 391.397 168.309 391.995 168.309 392.672C168.309 393.339 168.407 393.936 168.605 394.464C168.802 394.987 169.101 395.397 169.501 395.696C169.901 395.995 170.407 396.144 171.021 396.144ZM181.409 397.24C180.615 397.24 179.943 397.04 179.393 396.64C178.844 396.235 178.428 395.688 178.145 395C177.863 394.307 177.721 393.531 177.721 392.672C177.721 391.797 177.863 391.019 178.145 390.336C178.433 389.648 178.855 389.107 179.409 388.712C179.964 388.317 180.647 388.12 181.457 388.12C182.247 388.12 182.924 388.32 183.489 388.72C184.055 389.12 184.487 389.664 184.785 390.352C185.089 391.04 185.241 391.813 185.241 392.672C185.241 393.536 185.089 394.312 184.785 395C184.481 395.688 184.044 396.235 183.473 396.64C182.903 397.04 182.215 397.24 181.409 397.24ZM177.521 400.84V388.36H178.577V394.864H178.705V400.84H177.521ZM181.289 396.144C181.892 396.144 182.393 395.992 182.793 395.688C183.193 395.384 183.492 394.971 183.689 394.448C183.892 393.92 183.993 393.328 183.993 392.672C183.993 392.021 183.895 391.435 183.697 390.912C183.5 390.389 183.199 389.976 182.793 389.672C182.393 389.368 181.884 389.216 181.265 389.216C180.663 389.216 180.161 389.363 179.761 389.656C179.367 389.949 179.071 390.357 178.873 390.88C178.676 391.397 178.577 391.995 178.577 392.672C178.577 393.339 178.676 393.936 178.873 394.464C179.071 394.987 179.369 395.397 179.769 395.696C180.169 395.995 180.676 396.144 181.289 396.144Z" fill="white"/>
<path d="M120.12 507.24C119.315 507.24 118.589 507.107 117.944 506.84C117.304 506.568 116.773 506.184 116.352 505.688C115.936 505.192 115.664 504.603 115.536 503.92L116.736 503.72C116.928 504.467 117.333 505.053 117.952 505.48C118.571 505.901 119.309 506.112 120.168 506.112C120.733 506.112 121.24 506.024 121.688 505.848C122.136 505.667 122.488 505.411 122.744 505.08C123 504.749 123.128 504.357 123.128 503.904C123.128 503.605 123.075 503.352 122.968 503.144C122.861 502.931 122.72 502.755 122.544 502.616C122.368 502.477 122.176 502.363 121.968 502.272C121.76 502.176 121.557 502.099 121.36 502.04L118.44 501.168C118.088 501.067 117.763 500.939 117.464 500.784C117.165 500.624 116.904 500.435 116.68 500.216C116.461 499.992 116.291 499.731 116.168 499.432C116.045 499.133 115.984 498.792 115.984 498.408C115.984 497.757 116.155 497.195 116.496 496.72C116.837 496.245 117.304 495.88 117.896 495.624C118.488 495.368 119.163 495.243 119.92 495.248C120.688 495.248 121.373 495.384 121.976 495.656C122.584 495.928 123.085 496.317 123.48 496.824C123.875 497.325 124.136 497.92 124.264 498.608L123.032 498.832C122.952 498.331 122.768 497.896 122.48 497.528C122.192 497.16 121.824 496.877 121.376 496.68C120.933 496.477 120.445 496.373 119.912 496.368C119.395 496.368 118.933 496.456 118.528 496.632C118.128 496.803 117.811 497.037 117.576 497.336C117.341 497.635 117.224 497.976 117.224 498.36C117.224 498.749 117.331 499.061 117.544 499.296C117.763 499.531 118.029 499.715 118.344 499.848C118.664 499.981 118.973 500.091 119.272 500.176L121.528 500.84C121.763 500.904 122.037 500.997 122.352 501.12C122.672 501.237 122.981 501.408 123.28 501.632C123.584 501.851 123.835 502.139 124.032 502.496C124.229 502.853 124.328 503.307 124.328 503.856C124.328 504.389 124.221 504.867 124.008 505.288C123.8 505.709 123.504 506.064 123.12 506.352C122.741 506.64 122.296 506.859 121.784 507.008C121.277 507.163 120.723 507.24 120.12 507.24ZM130.435 507.24C129.593 507.24 128.862 507.053 128.243 506.68C127.63 506.307 127.153 505.781 126.811 505.104C126.47 504.427 126.299 503.632 126.299 502.72C126.299 501.776 126.467 500.96 126.803 500.272C127.139 499.584 127.611 499.053 128.219 498.68C128.833 498.307 129.555 498.12 130.387 498.12C131.241 498.12 131.969 498.317 132.571 498.712C133.174 499.101 133.63 499.661 133.939 500.392C134.249 501.123 134.39 501.995 134.363 503.008H133.163V502.592C133.142 501.472 132.899 500.627 132.435 500.056C131.977 499.485 131.305 499.2 130.419 499.2C129.491 499.2 128.779 499.501 128.283 500.104C127.793 500.707 127.547 501.565 127.547 502.68C127.547 503.768 127.793 504.613 128.283 505.216C128.779 505.813 129.481 506.112 130.387 506.112C131.006 506.112 131.545 505.971 132.003 505.688C132.467 505.4 132.833 504.987 133.099 504.448L134.195 504.872C133.854 505.624 133.35 506.208 132.683 506.624C132.022 507.035 131.273 507.24 130.435 507.24ZM127.131 503.008V502.024H133.731V503.008H127.131ZM140.584 507.24C139.79 507.24 139.118 507.04 138.568 506.64C138.019 506.235 137.603 505.688 137.32 505C137.038 504.307 136.896 503.531 136.896 502.672C136.896 501.797 137.038 501.019 137.32 500.336C137.608 499.648 138.03 499.107 138.584 498.712C139.139 498.317 139.822 498.12 140.632 498.12C141.422 498.12 142.099 498.32 142.664 498.72C143.23 499.12 143.662 499.664 143.96 500.352C144.264 501.04 144.416 501.813 144.416 502.672C144.416 503.536 144.264 504.312 143.96 505C143.656 505.688 143.219 506.235 142.648 506.64C142.078 507.04 141.39 507.24 140.584 507.24ZM136.696 510.84V498.36H137.752V504.864H137.88V510.84H136.696ZM140.464 506.144C141.067 506.144 141.568 505.992 141.968 505.688C142.368 505.384 142.667 504.971 142.864 504.448C143.067 503.92 143.168 503.328 143.168 502.672C143.168 502.021 143.07 501.435 142.872 500.912C142.675 500.389 142.374 499.976 141.968 499.672C141.568 499.368 141.059 499.216 140.44 499.216C139.838 499.216 139.336 499.363 138.936 499.656C138.542 499.949 138.246 500.357 138.048 500.88C137.851 501.397 137.752 501.995 137.752 502.672C137.752 503.339 137.851 503.936 138.048 504.464C138.246 504.987 138.544 505.397 138.944 505.696C139.344 505.995 139.851 506.144 140.464 506.144ZM149.445 507.24C148.794 507.24 148.248 507.123 147.805 506.888C147.368 506.653 147.04 506.341 146.821 505.952C146.602 505.563 146.493 505.139 146.493 504.68C146.493 504.211 146.586 503.811 146.773 503.48C146.965 503.144 147.224 502.869 147.549 502.656C147.88 502.443 148.261 502.28 148.693 502.168C149.13 502.061 149.613 501.968 150.141 501.888C150.674 501.803 151.194 501.731 151.701 501.672C152.213 501.608 152.661 501.547 153.045 501.488L152.629 501.744C152.645 500.891 152.48 500.259 152.133 499.848C151.786 499.437 151.184 499.232 150.325 499.232C149.733 499.232 149.232 499.365 148.821 499.632C148.416 499.899 148.13 500.32 147.965 500.896L146.821 500.56C147.018 499.787 147.416 499.187 148.013 498.76C148.61 498.333 149.386 498.12 150.341 498.12C151.13 498.12 151.8 498.269 152.349 498.568C152.904 498.861 153.296 499.288 153.525 499.848C153.632 500.099 153.701 500.379 153.733 500.688C153.765 500.997 153.781 501.312 153.781 501.632V507H152.733V504.832L153.037 504.96C152.744 505.701 152.288 506.267 151.669 506.656C151.05 507.045 150.309 507.24 149.445 507.24ZM149.581 506.224C150.13 506.224 150.61 506.125 151.021 505.928C151.432 505.731 151.762 505.461 152.013 505.12C152.264 504.773 152.426 504.384 152.501 503.952C152.565 503.675 152.6 503.371 152.605 503.04C152.61 502.704 152.613 502.453 152.613 502.288L153.061 502.52C152.661 502.573 152.226 502.627 151.757 502.68C151.293 502.733 150.834 502.795 150.381 502.864C149.933 502.933 149.528 503.016 149.165 503.112C148.92 503.181 148.682 503.28 148.453 503.408C148.224 503.531 148.034 503.696 147.885 503.904C147.741 504.112 147.669 504.371 147.669 504.68C147.669 504.931 147.73 505.173 147.853 505.408C147.981 505.643 148.184 505.837 148.461 505.992C148.744 506.147 149.117 506.224 149.581 506.224Z" fill="white"/>
<path d="M120.736 617.24C119.925 617.24 119.195 617.099 118.544 616.816C117.893 616.533 117.339 616.131 116.88 615.608C116.427 615.085 116.08 614.456 115.84 613.72C115.6 612.979 115.48 612.152 115.48 611.24C115.48 610.035 115.688 608.984 116.104 608.088C116.525 607.187 117.128 606.488 117.912 605.992C118.696 605.496 119.637 605.248 120.736 605.248C121.963 605.248 122.96 605.536 123.728 606.112C124.501 606.683 125.04 607.451 125.344 608.416L124.16 608.704C123.909 608 123.496 607.437 122.92 607.016C122.349 606.595 121.637 606.384 120.784 606.384C119.883 606.379 119.133 606.581 118.536 606.992C117.939 607.397 117.488 607.968 117.184 608.704C116.885 609.435 116.733 610.28 116.728 611.24C116.723 612.2 116.869 613.045 117.168 613.776C117.472 614.501 117.925 615.072 118.528 615.488C119.131 615.899 119.883 616.107 120.784 616.112C121.611 616.112 122.293 615.952 122.832 615.632C123.371 615.312 123.779 614.853 124.056 614.256C124.339 613.659 124.499 612.952 124.536 612.136H121.88V611.128H125.768C125.784 611.251 125.792 611.381 125.792 611.52C125.797 611.653 125.8 611.749 125.8 611.808C125.8 612.848 125.613 613.779 125.24 614.6C124.867 615.416 124.304 616.061 123.552 616.536C122.805 617.005 121.867 617.24 120.736 617.24ZM128.361 606.72V605.4H129.537V606.72H128.361ZM128.361 617V608.36H129.537V617H128.361ZM133.592 617V607.72C133.592 607.496 133.602 607.275 133.624 607.056C133.65 606.837 133.701 606.629 133.776 606.432C133.85 606.229 133.968 606.043 134.128 605.872C134.304 605.68 134.496 605.541 134.704 605.456C134.912 605.365 135.128 605.307 135.352 605.28C135.581 605.253 135.805 605.24 136.024 605.24H137.128V606.232H136.104C135.656 606.232 135.32 606.341 135.096 606.56C134.877 606.779 134.768 607.123 134.768 607.592V617H133.592ZM132.096 609.368V608.36H137.128V609.368H132.096ZM143.911 617C143.426 617.101 142.946 617.141 142.471 617.12C142.002 617.099 141.581 616.997 141.207 616.816C140.839 616.635 140.559 616.352 140.367 615.968C140.213 615.648 140.127 615.325 140.111 615C140.101 614.669 140.095 614.293 140.095 613.872V605.96H141.263V613.824C141.263 614.187 141.266 614.491 141.271 614.736C141.282 614.976 141.338 615.189 141.439 615.376C141.631 615.733 141.935 615.947 142.352 616.016C142.773 616.085 143.293 616.069 143.911 615.968V617ZM138.247 609.368V608.36H143.911V609.368H138.247ZM155.081 617.24C153.934 617.24 152.966 616.987 152.177 616.48C151.388 615.968 150.79 615.261 150.385 614.36C149.98 613.459 149.777 612.419 149.777 611.24C149.777 610.061 149.98 609.021 150.385 608.12C150.79 607.219 151.388 606.515 152.177 606.008C152.966 605.496 153.934 605.24 155.081 605.24C156.42 605.24 157.513 605.584 158.361 606.272C159.209 606.955 159.79 607.872 160.105 609.024L158.905 609.336C158.66 608.424 158.22 607.701 157.585 607.168C156.95 606.635 156.116 606.368 155.081 606.368C154.18 606.368 153.43 606.573 152.833 606.984C152.236 607.395 151.785 607.968 151.481 608.704C151.182 609.435 151.028 610.28 151.017 611.24C151.012 612.2 151.158 613.045 151.457 613.776C151.761 614.507 152.214 615.08 152.817 615.496C153.425 615.907 154.18 616.112 155.081 616.112C156.116 616.112 156.95 615.845 157.585 615.312C158.22 614.773 158.66 614.051 158.905 613.144L160.105 613.456C159.79 614.608 159.209 615.528 158.361 616.216C157.513 616.899 156.42 617.24 155.081 617.24ZM165.142 617.24C164.491 617.24 163.945 617.123 163.502 616.888C163.065 616.653 162.737 616.341 162.518 615.952C162.299 615.563 162.19 615.139 162.19 614.68C162.19 614.211 162.283 613.811 162.47 613.48C162.662 613.144 162.921 612.869 163.246 612.656C163.577 612.443 163.958 612.28 164.39 612.168C164.827 612.061 165.31 611.968 165.838 611.888C166.371 611.803 166.891 611.731 167.398 611.672C167.91 611.608 168.358 611.547 168.742 611.488L168.326 611.744C168.342 610.891 168.177 610.259 167.83 609.848C167.483 609.437 166.881 609.232 166.022 609.232C165.43 609.232 164.929 609.365 164.518 609.632C164.113 609.899 163.827 610.32 163.662 610.896L162.518 610.56C162.715 609.787 163.113 609.187 163.71 608.76C164.307 608.333 165.083 608.12 166.038 608.12C166.827 608.12 167.497 608.269 168.046 608.568C168.601 608.861 168.993 609.288 169.222 609.848C169.329 610.099 169.398 610.379 169.43 610.688C169.462 610.997 169.478 611.312 169.478 611.632V617H168.43V614.832L168.734 614.96C168.441 615.701 167.985 616.267 167.366 616.656C166.747 617.045 166.006 617.24 165.142 617.24ZM165.278 616.224C165.827 616.224 166.307 616.125 166.718 615.928C167.129 615.731 167.459 615.461 167.71 615.12C167.961 614.773 168.123 614.384 168.198 613.952C168.262 613.675 168.297 613.371 168.302 613.04C168.307 612.704 168.31 612.453 168.31 612.288L168.758 612.52C168.358 612.573 167.923 612.627 167.454 612.68C166.99 612.733 166.531 612.795 166.078 612.864C165.63 612.933 165.225 613.016 164.862 613.112C164.617 613.181 164.379 613.28 164.15 613.408C163.921 613.531 163.731 613.696 163.582 613.904C163.438 614.112 163.366 614.371 163.366 614.68C163.366 614.931 163.427 615.173 163.55 615.408C163.678 615.643 163.881 615.837 164.158 615.992C164.441 616.147 164.814 616.224 165.278 616.224ZM172.361 617V608.36H173.417V610.44L173.209 610.168C173.305 609.912 173.43 609.677 173.585 609.464C173.739 609.245 173.907 609.067 174.089 608.928C174.313 608.731 174.574 608.581 174.873 608.48C175.171 608.373 175.473 608.312 175.777 608.296C176.081 608.275 176.358 608.296 176.609 608.36V609.464C176.294 609.384 175.95 609.365 175.577 609.408C175.203 609.451 174.859 609.6 174.545 609.856C174.257 610.08 174.041 610.349 173.897 610.664C173.753 610.973 173.657 611.304 173.609 611.656C173.561 612.003 173.537 612.347 173.537 612.688V617H172.361ZM182.122 617.24C181.317 617.24 180.629 617.04 180.058 616.64C179.487 616.235 179.05 615.688 178.746 615C178.442 614.312 178.29 613.536 178.29 612.672C178.29 611.813 178.439 611.04 178.738 610.352C179.042 609.664 179.477 609.12 180.042 608.72C180.607 608.32 181.285 608.12 182.074 608.12C182.885 608.12 183.567 608.317 184.122 608.712C184.677 609.107 185.095 609.648 185.378 610.336C185.666 611.019 185.81 611.797 185.81 612.672C185.81 613.531 185.669 614.307 185.386 615C185.103 615.688 184.687 616.235 184.138 616.64C183.589 617.04 182.917 617.24 182.122 617.24ZM182.242 616.144C182.855 616.144 183.362 615.995 183.762 615.696C184.162 615.397 184.461 614.987 184.658 614.464C184.855 613.936 184.954 613.339 184.954 612.672C184.954 611.995 184.855 611.397 184.658 610.88C184.461 610.357 184.162 609.949 183.762 609.656C183.367 609.363 182.869 609.216 182.266 609.216C181.647 609.216 181.135 609.368 180.73 609.672C180.325 609.976 180.023 610.389 179.826 610.912C179.634 611.435 179.538 612.021 179.538 612.672C179.538 613.328 179.637 613.92 179.834 614.448C180.037 614.971 180.338 615.384 180.738 615.688C181.138 615.992 181.639 616.144 182.242 616.144ZM184.954 617V610.496H184.826V605.48H186.01V617H184.954ZM192.278 617.232C191.265 617.232 190.43 617.013 189.774 616.576C189.124 616.139 188.724 615.531 188.574 614.752L189.774 614.552C189.902 615.043 190.193 615.435 190.646 615.728C191.105 616.016 191.67 616.16 192.342 616.16C192.998 616.16 193.516 616.024 193.894 615.752C194.273 615.475 194.462 615.099 194.462 614.624C194.462 614.357 194.401 614.141 194.278 613.976C194.161 613.805 193.918 613.648 193.55 613.504C193.182 613.36 192.633 613.189 191.902 612.992C191.118 612.779 190.505 612.565 190.062 612.352C189.62 612.139 189.305 611.893 189.118 611.616C188.932 611.333 188.838 610.989 188.838 610.584C188.838 610.093 188.977 609.664 189.254 609.296C189.532 608.923 189.916 608.635 190.406 608.432C190.897 608.224 191.468 608.12 192.118 608.12C192.769 608.12 193.35 608.227 193.862 608.44C194.38 608.648 194.796 608.941 195.11 609.32C195.425 609.699 195.612 610.139 195.67 610.64L194.47 610.856C194.39 610.349 194.137 609.949 193.71 609.656C193.289 609.357 192.753 609.203 192.102 609.192C191.489 609.176 190.99 609.293 190.606 609.544C190.222 609.789 190.03 610.117 190.03 610.528C190.03 610.757 190.1 610.955 190.238 611.12C190.377 611.28 190.628 611.432 190.99 611.576C191.358 611.72 191.881 611.877 192.558 612.048C193.353 612.251 193.977 612.464 194.43 612.688C194.884 612.912 195.206 613.176 195.398 613.48C195.59 613.784 195.686 614.16 195.686 614.608C195.686 615.424 195.382 616.067 194.774 616.536C194.172 617 193.34 617.232 192.278 617.232Z" fill="white"/>
</g>
<defs>





<clipPath id="clip0_75_1226">
<rect width="393" height="852" rx="20" fill="white"/>
</clipPath>





</defs>
</svg>