<svg xmlns="http://www.w3.org/2000/svg" width="296" height="233" viewBox="0 0 296 233" fill="none">
<path d="M117.124 99.3475C116.984 99.4023 116.834 99.4255 116.684 99.4154C116.337 99.3493 116.002 99.2265 115.694 99.052C114.891 97.3306 114.09 95.6092 113.29 93.8879C109.763 86.2395 106.24 78.5912 102.798 70.9029L97.6413 59.3684C95.9639 55.5063 94.2465 51.6602 92.6011 47.7781C94.4942 51.5444 96.3154 55.3426 98.1766 59.1209L103.636 70.5155C107.275 78.1119 110.825 85.7482 114.38 93.3846C114.983 94.6947 115.586 96.0047 116.189 97.3147C115.886 97.3226 115.686 97.3826 115.658 97.4744C115.614 97.6142 116.025 97.766 116.816 98.6806C116.92 98.9043 117.02 99.1238 117.124 99.3475Z" fill="black"/>
<path d="M135.069 139.494C133.179 135.732 131.354 131.933 129.497 128.155L124.037 116.76C122.336 113.21 120.653 109.653 118.989 106.089C119.464 106.165 119.912 106.228 120.299 106.28C120.303 106.276 120.303 106.276 120.303 106.28C121.837 109.639 123.358 113.003 124.868 116.373L130.024 127.907C131.706 131.77 133.423 135.616 135.069 139.494Z" fill="black"/>
<path d="M135.512 97.1324L140.813 97.9374C142.569 98.1992 144.305 98.4831 146.043 98.7574L145.82 98.8974L146.21 97.5003C146.224 97.4521 146.254 97.4103 146.295 97.3822C146.337 97.3542 146.387 97.3416 146.437 97.3469L146.441 97.3474L147.879 97.5007C148.385 97.529 148.883 97.6449 149.35 97.8432C150.302 98.2609 151.056 99.0312 151.453 99.9926C151.551 100.23 151.627 100.476 151.68 100.728C151.707 100.853 151.727 100.98 151.742 101.108C151.759 101.228 151.768 101.336 151.792 101.448C151.865 101.888 152.031 102.307 152.281 102.676C152.551 103.028 152.897 103.315 153.292 103.515C153.688 103.716 154.123 103.826 154.566 103.837L154.341 103.918C155.661 102.727 157.107 101.684 158.652 100.805C160.175 99.9142 161.757 99.1271 163.386 98.4493C164.206 98.125 165.02 97.7895 165.856 97.5128C166.683 97.208 167.527 96.9587 168.369 96.7049C169.208 96.4415 170.068 96.2531 170.916 96.0238C171.772 95.823 172.634 95.6556 173.491 95.463L173.406 95.5248C173.615 95.1354 173.783 94.7251 173.907 94.3009C174.039 93.8816 174.099 93.443 174.085 93.0037C174.074 92.5731 173.93 92.1565 173.674 91.8105C173.391 91.4823 173.024 91.2365 172.613 91.0989L172.604 91.0951C172.594 91.0905 172.584 91.084 172.575 91.0758C171.358 89.8885 170.118 88.7248 168.886 87.5519C167.654 86.3803 166.414 85.2162 165.167 84.0597L161.414 80.6054C160.156 79.4713 158.898 78.2998 157.592 77.2641L157.588 77.2608C157.539 77.2218 157.507 77.1649 157.5 77.1026C157.493 77.0402 157.51 76.9776 157.549 76.9285C157.561 76.9137 157.575 76.9004 157.59 76.8887L160.76 74.4231L160.662 74.7072L157.882 64.3917L158.38 64.577C157 65.5314 155.633 66.5109 154.268 67.4877C152.901 68.4647 151.546 69.4561 150.202 70.462C148.861 71.4713 147.533 72.4972 146.244 73.5643C145.6 74.0986 144.969 74.6469 144.36 75.2112C144.057 75.4934 143.759 75.7825 143.486 76.0839C143.215 76.3567 142.986 76.6687 142.808 77.0094L142.828 76.9094C142.791 77.6335 142.709 78.3546 142.584 79.0687C142.463 79.7846 142.286 80.49 142.056 81.1784C141.829 81.8823 141.495 82.5473 141.067 83.1503C140.623 83.7868 139.967 84.2444 139.216 84.4414L139.277 84.4181C138.817 84.726 138.413 85.109 138.08 85.5511C137.901 85.7695 137.746 86.0089 137.586 86.2433C137.447 86.4918 137.285 86.7277 137.163 86.9868C136.642 88.0134 136.259 89.1047 136.026 90.232C135.878 90.7908 135.813 91.3671 135.711 91.9368C135.639 92.5108 135.588 93.089 135.537 93.6667C135.52 94.2452 135.488 94.8295 135.482 95.4051L135.512 97.1324ZM135.464 97.1756L135.357 95.4123C135.343 94.8239 135.354 94.2437 135.352 93.658C135.383 93.075 135.414 92.4902 135.467 91.9074C135.551 91.3283 135.591 90.7408 135.73 90.1689C135.943 89.0072 136.309 87.8788 136.818 86.8135C136.938 86.5424 137.101 86.2914 137.24 86.0292C137.402 85.7793 137.559 85.5249 137.743 85.2888C138.1 84.7892 138.542 84.3558 139.048 84.0084C139.061 83.9998 139.075 83.9934 139.09 83.9895L139.108 83.9849C139.742 83.7994 140.291 83.3979 140.66 82.8501C141.047 82.2846 141.346 81.6634 141.546 81.0079C141.758 80.3436 141.917 79.664 142.023 78.975C142.134 78.2859 142.202 77.5908 142.228 76.8934L142.229 76.8819C142.23 76.8514 142.237 76.8214 142.248 76.7932C142.445 76.3798 142.708 76.0009 143.025 75.6713C143.312 75.3455 143.615 75.0437 143.922 74.749C144.536 74.1585 145.18 73.6083 145.827 73.0641C147.126 71.9822 148.457 70.9474 149.8 69.9295C152.49 67.8969 155.227 65.934 158.013 64.0406L158.015 64.0392C158.086 63.9909 158.173 63.9728 158.258 63.9889C158.342 64.0049 158.416 64.0538 158.465 64.1248C158.486 64.1557 158.501 64.1898 158.51 64.2258L161.185 74.569L161.186 74.5727C161.2 74.6239 161.197 74.678 161.18 74.7279C161.162 74.7779 161.13 74.8215 161.088 74.8533L157.875 77.2621L157.872 76.8868C159.213 77.9887 160.424 79.1631 161.672 80.3272L165.363 83.853L172.716 90.9296L172.679 90.9066C173.129 91.0531 173.531 91.319 173.843 91.6761C174.131 92.0558 174.295 92.5154 174.313 92.9919C174.333 93.4568 174.274 93.9217 174.138 94.3669C174.013 94.8112 173.842 95.241 173.627 95.6494C173.619 95.6644 173.608 95.6775 173.595 95.6879C173.581 95.6982 173.566 95.7056 173.549 95.7096L173.542 95.7114C172.69 95.9117 171.838 96.1067 170.992 96.3237C170.154 96.5717 169.304 96.7786 168.477 97.0598C167.647 97.3317 166.816 97.5977 166.004 97.9184C165.182 98.2111 164.383 98.5619 163.58 98.9008C161.988 99.6057 160.437 100.401 158.936 101.283C158.192 101.732 157.457 102.198 156.756 102.708C156.051 103.201 155.378 103.739 154.74 104.317L154.73 104.325C154.702 104.352 154.668 104.373 154.63 104.385C154.593 104.398 154.554 104.402 154.515 104.398C154 104.353 153.498 104.219 153.029 104.001C152.55 103.772 152.139 103.42 151.838 102.982C151.549 102.548 151.357 102.056 151.276 101.541C151.251 101.417 151.24 101.284 151.224 101.166C151.211 101.054 151.195 100.943 151.172 100.832C151.128 100.611 151.063 100.395 150.979 100.186C150.639 99.341 149.984 98.6604 149.153 98.2874C148.732 98.104 148.283 97.9926 147.825 97.9576L146.391 97.7729L146.622 97.6202L146.2 99.0084L146.199 99.0129C146.185 99.0589 146.155 99.0981 146.114 99.1231C146.073 99.1481 146.024 99.1571 145.977 99.1484C144.208 98.8232 142.436 98.5074 140.685 98.1695L135.464 97.1756Z" fill="black"/>
<path d="M157.732 77.0753C157.221 76.804 156.728 76.5091 156.235 76.2136C155.741 75.9211 155.258 75.6118 154.771 75.31L153.32 74.3904C153.08 74.2346 152.835 74.0885 152.587 73.9462C152.349 73.7886 152.088 73.6695 151.813 73.5935C152.389 73.6773 152.943 73.8749 153.442 74.1747C153.959 74.4355 154.454 74.7323 154.943 75.0374C155.428 75.3478 155.908 75.6653 156.372 76.0078C156.837 76.3471 157.297 76.6944 157.732 77.0753Z" fill="black"/>
<path d="M160.806 74.2822C160.828 74.2532 160.858 74.2312 160.892 74.2191C160.926 74.207 160.963 74.2053 160.998 74.2142C161.059 74.2233 161.119 74.2383 161.176 74.2592C161.288 74.2998 161.397 74.3476 161.502 74.4024C161.712 74.5093 161.912 74.6318 162.11 74.756C162.505 75.0064 162.889 75.2724 163.269 75.543C164.027 76.087 164.757 76.6655 165.487 77.2431C166.951 78.3953 168.351 79.62 169.757 80.8416C169.788 80.8689 169.813 80.9031 169.829 80.9415C169.845 80.98 169.852 81.0216 169.849 81.0631L169.849 81.0716C169.803 81.7063 169.775 82.341 169.761 82.9706C169.734 83.5853 169.787 84.2009 169.918 84.802C170.001 85.0864 170.127 85.3562 170.293 85.6017L170.411 85.8068C170.429 85.8378 170.457 85.8626 170.489 85.8781C170.604 85.9328 170.728 85.9637 170.855 85.969C171.471 85.983 172.086 85.9051 172.679 85.7379L172.684 85.7368C172.724 85.7272 172.766 85.7302 172.804 85.7454C172.843 85.7607 172.876 85.7873 172.898 85.8218L173.046 86.0477C173.099 86.1179 173.157 86.1801 173.213 86.2452C173.259 86.2978 173.315 86.3396 173.379 86.3678C173.443 86.396 173.513 86.4099 173.582 86.4084C173.731 86.3681 173.859 86.2739 173.941 86.1443C174.048 86.0005 174.135 85.8431 174.199 85.6763L174.201 85.6731C174.211 85.6473 174.229 85.6252 174.252 85.6096C174.274 85.594 174.302 85.5857 174.329 85.5856C174.357 85.5855 174.384 85.5937 174.407 85.6092C174.43 85.6247 174.448 85.6467 174.458 85.6724L174.559 85.9213C174.598 85.998 174.641 86.0726 174.688 86.1447C174.724 86.2071 174.776 86.2588 174.838 86.2941C174.901 86.3294 174.972 86.3472 175.043 86.3454C175.2 86.3036 175.338 86.211 175.436 86.0821C175.553 85.9473 175.655 85.7997 175.74 85.6419C175.746 85.629 175.756 85.6174 175.767 85.608C175.778 85.5987 175.791 85.5916 175.805 85.5872C175.819 85.5829 175.834 85.5813 175.849 85.5827C175.863 85.584 175.878 85.5882 175.891 85.5951C175.908 85.6046 175.923 85.6184 175.933 85.6351C176.02 85.7825 176.121 85.9217 176.233 86.051C176.28 86.109 176.338 86.1568 176.404 86.1917C176.47 86.2265 176.543 86.2477 176.617 86.2538C176.691 86.2402 176.762 86.2104 176.823 86.1665C176.884 86.1227 176.935 86.0659 176.972 86.0002C177.066 85.8596 177.14 85.7064 177.192 85.5451C177.198 85.5273 177.208 85.5114 177.223 85.4992C177.237 85.487 177.254 85.4789 177.273 85.4758C177.291 85.4728 177.31 85.4748 177.328 85.4818C177.345 85.4888 177.36 85.5005 177.372 85.5155C177.495 85.7174 177.687 85.8683 177.913 85.941C178.117 85.977 178.311 85.8087 178.446 85.608C178.58 85.4028 178.665 85.1689 178.693 84.925C178.721 84.6811 178.712 84.4098 178.72 84.1541C178.723 83.6421 178.663 83.1317 178.541 82.6344C178.485 82.3996 178.384 82.1782 178.242 81.9829C178.189 81.9015 178.117 81.8339 178.032 81.7856C177.948 81.7373 177.853 81.7097 177.756 81.7051L177.735 81.7078C177.726 81.7087 177.718 81.7085 177.709 81.7071C177.63 81.695 177.555 81.6597 177.496 81.6057C177.459 81.5753 177.425 81.5427 177.392 81.508C177.33 81.4436 177.277 81.3799 177.226 81.3155C177.123 81.1868 177.027 81.057 176.935 80.9259C176.75 80.6639 176.576 80.3982 176.404 80.1311C176.063 79.5953 175.74 79.0512 175.421 78.5049C175.114 77.947 174.771 77.4387 174.429 76.9042L173.414 75.3161C172.726 74.2606 172.042 73.2031 171.339 72.1592C170.648 71.1076 169.955 70.0568 169.237 69.0255C168.531 67.9844 167.779 66.9798 167.038 65.9688C166.307 64.9627 165.487 64.0241 164.588 63.1641C164.163 62.7472 163.65 62.4299 163.087 62.2349C162.811 62.1929 162.529 62.2254 162.269 62.3289C161.981 62.43 161.701 62.5544 161.432 62.7007C160.339 63.3156 159.308 64.0353 158.354 64.8499C158.351 64.8527 158.347 64.8549 158.343 64.8563C158.339 64.8576 158.335 64.8582 158.331 64.858C158.327 64.8577 158.323 64.8567 158.319 64.8548C158.315 64.853 158.312 64.8504 158.309 64.8472C158.303 64.8409 158.301 64.8328 158.301 64.8245C158.301 64.8162 158.305 64.8083 158.311 64.8024C159.212 63.9063 160.205 63.108 161.274 62.421C161.552 62.2516 161.843 62.1051 162.144 61.9829C162.468 61.838 162.825 61.7853 163.177 61.8304C163.823 62.0074 164.418 62.3351 164.913 62.7866C165.865 63.6417 166.738 64.5808 167.521 65.5923C168.313 66.5837 169.059 67.6092 169.781 68.6469C170.146 69.1631 170.505 69.6837 170.856 70.2088C171.211 70.7316 171.568 71.2532 171.908 71.7854C172.596 72.8451 173.264 73.9166 173.934 74.986L174.93 76.6021C175.258 77.136 175.598 77.6877 175.884 78.2436C176.184 78.7955 176.492 79.3424 176.808 79.8841C176.965 80.1547 177.125 80.4238 177.292 80.6848C177.376 80.8153 177.462 80.9434 177.55 81.0652C177.595 81.1256 177.64 81.1852 177.685 81.2365C177.706 81.2606 177.727 81.2833 177.75 81.3047C177.767 81.3253 177.793 81.3246 177.739 81.3192L177.693 81.3212C177.859 81.3169 178.023 81.3563 178.17 81.4353C178.316 81.5143 178.438 81.6303 178.526 81.7716C178.686 82.0076 178.797 82.273 178.854 82.5523C178.963 83.0799 179.006 83.6189 178.982 84.157C178.964 84.4251 178.96 84.6802 178.928 84.9577C178.892 85.237 178.79 85.5038 178.632 85.7368C178.55 85.857 178.448 85.9617 178.33 86.0461C178.199 86.1389 178.037 86.1773 177.878 86.1532C177.598 86.0703 177.358 85.8855 177.207 85.6351L177.386 85.6055C177.326 85.7861 177.24 85.9572 177.132 86.1134C177.077 86.2025 177.005 86.279 176.919 86.3377C176.832 86.3964 176.735 86.4359 176.632 86.4536C176.527 86.4519 176.425 86.4283 176.33 86.3843C176.235 86.3403 176.151 86.2768 176.082 86.198C175.955 86.0589 175.842 85.9081 175.743 85.7477L175.937 85.7408C175.848 85.9175 175.738 86.0832 175.61 86.2348C175.48 86.4088 175.293 86.5325 175.082 86.585C174.966 86.5958 174.849 86.5747 174.744 86.524C174.639 86.4733 174.55 86.395 174.486 86.2975C174.428 86.2128 174.374 86.1251 174.325 86.0377L174.201 85.7684L174.46 85.7645C174.394 85.9617 174.303 86.1491 174.187 86.3215C174.065 86.5234 173.87 86.6709 173.643 86.7335C173.521 86.7497 173.397 86.7379 173.281 86.6991C173.164 86.6603 173.058 86.5954 172.97 86.5094C172.895 86.4332 172.818 86.3563 172.751 86.2754L172.569 86.0252L172.788 86.1091C172.155 86.3205 171.493 86.4338 170.825 86.445C170.63 86.4436 170.438 86.4018 170.261 86.3222C170.148 86.2691 170.051 86.1865 169.981 86.0831L169.85 85.8775C169.649 85.5959 169.496 85.2827 169.397 84.9509C169.241 84.3015 169.171 83.6343 169.19 82.9667C169.186 82.3144 169.238 81.669 169.294 81.0263L169.385 81.2561C168.7 80.6326 168.009 80.0138 167.312 79.3997L165.222 77.5614C164.524 76.9503 163.816 76.3512 163.099 75.7641C162.742 75.4694 162.38 75.1794 162.009 74.9052C161.823 74.7682 161.633 74.637 161.439 74.5149C161.343 74.4532 161.243 74.3978 161.14 74.3491C161.046 74.3064 160.911 74.2554 160.862 74.3138L160.858 74.3189C160.853 74.325 160.846 74.329 160.838 74.3301C160.83 74.3311 160.822 74.3291 160.815 74.3245C160.809 74.3199 160.804 74.313 160.802 74.3052C160.801 74.2973 160.802 74.2891 160.806 74.2822V74.2822Z" fill="black"/>
<path d="M160.797 74.1564C161.247 73.6493 161.74 73.1818 162.27 72.7589C162.534 72.5481 162.798 72.3396 163.074 72.144C163.346 71.9434 163.633 71.7636 163.922 71.5808C163.495 72.11 163.009 72.5889 162.474 73.0086C161.952 73.4425 161.39 73.8268 160.797 74.1564Z" fill="black"/>
<path d="M177.724 81.5143C177.53 81.4907 177.476 81.7073 177.44 81.8595C177.408 82.0296 177.387 82.2017 177.377 82.3746C177.353 82.7228 177.354 83.0773 177.351 83.4307L177.344 84.4978C177.335 84.855 177.328 85.2139 177.288 85.5764C177.113 84.8741 177.026 84.1527 177.029 83.4288C177.028 83.0637 177.062 82.6994 177.128 82.3404C177.163 82.1572 177.218 81.9783 177.292 81.807C177.336 81.7204 177.391 81.6402 177.457 81.5687C177.488 81.5296 177.531 81.5027 177.58 81.4928C177.629 81.4828 177.68 81.4904 177.724 81.5143Z" fill="black"/>
<path d="M175.692 81.9897C175.83 82.5957 175.908 83.2137 175.926 83.8348C175.958 84.4555 175.928 85.0777 175.837 85.6925C175.699 85.0867 175.621 84.4687 175.604 83.8475C175.573 83.2268 175.603 82.6046 175.692 81.9897Z" fill="black"/>
<path d="M172.655 84.673C172.699 84.665 172.755 84.657 172.811 84.645C172.795 85.0684 172.779 85.4958 172.755 85.9232C172.754 85.9289 172.752 85.9342 172.747 85.938C172.743 85.9417 172.737 85.9435 172.731 85.943C172.726 85.9425 172.722 85.9401 172.719 85.9363C172.716 85.9326 172.715 85.9279 172.715 85.9232C172.691 85.5078 172.671 85.0924 172.655 84.673Z" fill="black"/>
<path d="M177.337 81.9765C177.338 81.9791 177.338 81.982 177.338 81.9848C177.338 81.9877 177.338 81.9905 177.337 81.9932C177.336 81.9958 177.334 81.9982 177.332 82.0001C177.33 82.0021 177.327 82.0036 177.325 82.0045C177.321 82.006 177.318 82.0064 177.314 82.0057C177.31 82.005 177.307 82.0032 177.305 82.0005C177.184 81.8789 177.051 81.7693 176.909 81.673C176.792 81.5923 176.652 81.5529 176.51 81.5611C176.378 81.5871 176.257 81.6526 176.162 81.7488C176.053 81.8501 175.958 81.9657 175.879 82.0924L175.867 82.1083C175.853 82.1313 175.835 82.1514 175.813 82.1673C175.792 82.1831 175.767 82.1946 175.741 82.2009C175.715 82.2072 175.688 82.2083 175.662 82.204C175.635 82.1998 175.61 82.1904 175.587 82.1762C175.561 82.1616 175.54 82.1411 175.523 82.1162C175.452 81.9866 175.355 81.8729 175.239 81.7822C175.122 81.6916 174.988 81.6258 174.844 81.5891C174.687 81.5868 174.532 81.6282 174.397 81.7085C174.261 81.7889 174.151 81.9051 174.078 82.0444C174.07 82.0567 174.059 82.0665 174.046 82.0723C174.04 82.076 174.033 82.0774 174.026 82.0764C174.023 82.0759 174.02 82.0745 174.018 82.0723C174.011 82.0734 174.004 82.072 173.998 82.0684C173.988 82.0625 173.98 82.0543 173.974 82.0444C173.874 81.8366 173.708 81.668 173.502 81.5651C173.421 81.5367 173.332 81.5357 173.25 81.5624C173.168 81.5891 173.096 81.642 173.047 81.7129C172.986 81.784 172.939 81.8669 172.911 81.9565C172.897 82.0036 172.887 82.0517 172.879 82.1003V82.28L172.863 82.955C172.807 82.959 172.756 82.963 172.704 82.963C172.668 82.963 172.632 82.967 172.596 82.967L172.576 82.28L172.572 82.0963C172.571 82.0241 172.576 81.952 172.588 81.8807C172.617 81.733 172.681 81.5946 172.776 81.4773C172.878 81.3559 173.019 81.2728 173.175 81.2416C173.254 81.2287 173.335 81.2323 173.413 81.2523C173.49 81.2722 173.563 81.308 173.626 81.3574C173.795 81.5098 173.93 81.6946 174.026 81.9006C174.106 81.7716 174.201 81.6523 174.309 81.5451C174.45 81.3937 174.642 81.2999 174.848 81.2816C175.061 81.2715 175.272 81.335 175.443 81.4613C175.523 81.5213 175.599 81.5851 175.671 81.649C175.739 81.5679 175.815 81.4943 175.899 81.4294C176.069 81.2882 176.285 81.2143 176.506 81.2217C176.611 81.2292 176.714 81.2578 176.808 81.3058C176.902 81.3538 176.985 81.4203 177.053 81.5012C177.178 81.6391 177.275 81.8007 177.337 81.9765Z" fill="black"/>
<path d="M174.257 82.9201C174.157 82.916 174.057 82.9121 173.949 82.9121C173.952 82.6312 173.974 82.3509 174.017 82.0733C174.018 82.0531 174.02 82.0331 174.025 82.0134C174.033 82.0333 174.037 82.0533 174.045 82.0733C174.135 82.3504 174.205 82.6333 174.257 82.9201Z" fill="black"/>
<path d="M174.329 85.7185C174.177 85.2623 174.075 84.7909 174.025 84.3127C174.153 84.2648 174.277 84.2129 174.393 84.157C174.431 84.6782 174.41 85.2022 174.329 85.7185Z" fill="black"/>
<path d="M154.81 105.393L154.539 104.115C154.539 104.115 159.004 99.0144 172.735 95.7075L173.518 95.5876C174.06 95.9373 174.582 96.3159 175.084 96.7219C174.169 96.8737 173.25 97.0494 172.336 97.2132C171.429 97.4248 170.514 97.6245 169.612 97.8522L168.266 98.2316L167.591 98.4233L166.928 98.643L166.121 98.9106C166.08 98.8925 166.033 98.8882 165.989 98.8985C165.962 98.9054 165.937 98.9178 165.915 98.935C165.893 98.9522 165.875 98.9738 165.862 98.9984L165.598 99.0863C165.159 99.242 164.727 99.4137 164.288 99.5776C163.15 100.037 162.023 100.536 160.925 101.087C160.813 100.736 160.713 100.38 160.634 100.017C160.661 100.398 160.714 100.777 160.793 101.151C160.27 101.419 159.747 101.698 159.24 101.998L158.049 102.737C157.67 103.008 157.271 103.252 156.903 103.54C156.146 104.087 155.446 104.708 154.81 105.393Z" fill="black"/>
<path d="M214.256 128.102C214.256 128.102 214.101 125.163 188.1 136.306C188.1 136.306 181.474 130.075 181.139 114.359C181.115 113.257 181.151 112.154 181.207 111.056C181.28 109.391 181.135 107.723 180.775 106.096C180.672 106.203 180.568 106.319 180.456 106.427C180.341 106.529 180.221 106.625 180.096 106.715C179.845 106.899 179.571 107.049 179.282 107.162C178.981 107.265 178.668 107.324 178.351 107.338C178.026 107.352 177.701 107.308 177.392 107.206C177.369 107.197 177.349 107.183 177.333 107.164C177.317 107.145 177.306 107.122 177.301 107.098L177.297 107.082C177.18 106.48 177.028 105.885 176.841 105.301C176.666 104.714 176.462 104.131 176.262 103.548L175.627 101.802L174.972 100.069L174.968 100.057C174.957 100.027 174.958 99.9944 174.971 99.9653C174.983 99.9363 175.007 99.9133 175.036 99.9012H175.04C175.439 99.7573 175.839 99.6135 176.242 99.4858C176.646 99.3499 177.049 99.2141 177.456 99.0903C176.75 98.221 175.954 97.4273 175.084 96.7219L172.368 97.365C171.474 97.6086 170.571 97.8322 169.676 98.0918C168.534 98.4393 167.392 98.7907 166.265 99.1822C166.301 99.33 166.369 99.5936 166.465 99.961C166.477 100.012 166.469 100.066 166.442 100.112C166.415 100.157 166.372 100.19 166.321 100.205C166.304 100.209 166.287 100.212 166.269 100.213C166.225 100.213 166.182 100.198 166.147 100.17C166.112 100.143 166.088 100.104 166.078 100.061C165.99 99.7174 165.926 99.4658 165.886 99.314C165.391 99.4897 164.896 99.6775 164.408 99.8772C163.258 100.324 162.126 100.818 161.013 101.359C161.033 101.415 161.049 101.475 161.069 101.531C161.239 102.023 161.441 102.504 161.676 102.968C162.137 103.894 162.739 104.742 163.462 105.481C163.823 105.846 164.214 106.18 164.632 106.479C165.062 106.763 165.515 107.012 165.986 107.222C166.944 107.638 167.954 107.92 168.989 108.061C168.869 108.057 168.746 108.049 168.626 108.041C168.643 108.064 168.656 108.089 168.666 108.117L168.921 109.019C168.929 109.044 168.932 109.07 168.929 109.096C168.926 109.122 168.918 109.147 168.906 109.17C168.893 109.193 168.876 109.213 168.855 109.229C168.834 109.245 168.811 109.256 168.786 109.263C168.768 109.269 168.749 109.272 168.73 109.271C168.687 109.27 168.645 109.256 168.61 109.23C168.576 109.204 168.551 109.168 168.538 109.127L168.282 108.224C168.272 108.189 168.272 108.152 168.282 108.117C168.292 108.081 168.311 108.05 168.338 108.025C168.294 108.021 168.246 108.021 168.199 108.017C167.933 108.013 167.668 107.985 167.408 107.933C166.881 107.842 166.364 107.699 165.866 107.505C165.361 107.319 164.878 107.079 164.424 106.791C163.077 105.882 162.025 104.597 161.401 103.096C161.173 102.56 160.99 102.005 160.854 101.439C160.35 101.686 159.855 101.942 159.364 102.214L158.162 102.912C157.774 103.164 157.371 103.396 156.996 103.671C156.218 104.179 155.486 104.755 154.811 105.393C155.594 106.899 156.337 108.42 157.071 109.95C157.802 111.479 158.505 113.021 159.212 114.563C159.344 114.858 159.476 115.154 159.608 115.449C159.64 115.453 160.762 118.053 161.257 119.22C161.92 120.777 162.571 122.343 163.186 123.925C163.186 123.925 172.935 151.471 186.862 152.09C186.862 152.09 194.291 151.471 214.256 143.579C214.256 143.579 216.577 129.959 214.256 128.102ZM166.549 101.886C166.461 101.555 166.381 101.251 166.309 100.975C166.298 100.924 166.306 100.87 166.333 100.825C166.359 100.78 166.403 100.746 166.453 100.732C166.479 100.725 166.505 100.723 166.531 100.727C166.557 100.731 166.582 100.739 166.605 100.753C166.628 100.766 166.647 100.784 166.663 100.805C166.679 100.826 166.69 100.85 166.697 100.876C166.769 101.151 166.849 101.455 166.936 101.782C166.943 101.808 166.945 101.834 166.941 101.86C166.938 101.886 166.929 101.911 166.915 101.934C166.902 101.957 166.884 101.977 166.863 101.992C166.842 102.008 166.818 102.019 166.793 102.026C166.776 102.03 166.758 102.033 166.741 102.034C166.697 102.034 166.655 102.019 166.62 101.992C166.585 101.965 166.56 101.928 166.549 101.886ZM167.032 103.703L166.789 102.793C166.776 102.741 166.783 102.687 166.81 102.641C166.837 102.596 166.881 102.562 166.933 102.549C166.984 102.536 167.038 102.544 167.084 102.571C167.13 102.598 167.163 102.641 167.176 102.693L167.416 103.596C167.423 103.621 167.426 103.648 167.423 103.674C167.42 103.7 167.411 103.726 167.398 103.749C167.385 103.772 167.368 103.792 167.347 103.808C167.326 103.825 167.302 103.836 167.276 103.843C167.259 103.847 167.241 103.848 167.224 103.847C167.181 103.848 167.138 103.834 167.104 103.808C167.069 103.782 167.044 103.745 167.032 103.703ZM167.276 104.606C167.263 104.555 167.27 104.501 167.296 104.456C167.322 104.41 167.365 104.377 167.416 104.362C167.467 104.349 167.521 104.356 167.568 104.383C167.614 104.409 167.648 104.451 167.663 104.502L167.907 105.393L167.524 105.513L167.276 104.606ZM168.274 107.462C168.256 107.466 168.237 107.469 168.219 107.47C168.175 107.469 168.132 107.455 168.098 107.428C168.063 107.401 168.038 107.364 168.027 107.322L167.775 106.419C167.768 106.394 167.766 106.367 167.769 106.341C167.772 106.314 167.78 106.289 167.793 106.266C167.806 106.243 167.824 106.223 167.845 106.207C167.865 106.19 167.889 106.178 167.915 106.172C167.94 106.164 167.966 106.162 167.992 106.166C168.018 106.169 168.043 106.177 168.066 106.19C168.089 106.203 168.109 106.221 168.125 106.241C168.14 106.262 168.152 106.286 168.159 106.311L168.41 107.214C168.425 107.265 168.419 107.319 168.393 107.366C168.368 107.412 168.325 107.447 168.274 107.462ZM169.253 111.072C169.21 111.073 169.167 111.059 169.133 111.033C169.098 111.007 169.073 110.97 169.061 110.928L168.798 110.03C168.784 109.979 168.79 109.925 168.815 109.878C168.841 109.832 168.883 109.798 168.933 109.782C168.959 109.774 168.985 109.771 169.011 109.774C169.038 109.776 169.063 109.784 169.086 109.797C169.109 109.81 169.13 109.827 169.146 109.848C169.162 109.868 169.174 109.892 169.181 109.918L169.445 110.816C169.452 110.842 169.455 110.868 169.452 110.894C169.449 110.92 169.441 110.946 169.429 110.969C169.416 110.992 169.399 111.012 169.378 111.028C169.358 111.045 169.334 111.057 169.309 111.064C169.291 111.07 169.272 111.073 169.253 111.072ZM169.784 112.869C169.742 112.869 169.7 112.855 169.666 112.83C169.632 112.805 169.606 112.77 169.592 112.73L169.325 111.831C169.317 111.806 169.314 111.779 169.317 111.753C169.319 111.727 169.327 111.701 169.339 111.678C169.352 111.654 169.369 111.634 169.389 111.617C169.409 111.6 169.433 111.588 169.458 111.58C169.483 111.572 169.51 111.57 169.536 111.572C169.563 111.575 169.588 111.583 169.611 111.595C169.635 111.608 169.655 111.625 169.672 111.646C169.688 111.666 169.701 111.69 169.708 111.715L169.976 112.614C169.991 112.664 169.985 112.718 169.961 112.765C169.936 112.811 169.894 112.846 169.844 112.861C169.825 112.868 169.804 112.871 169.784 112.869ZM170.327 114.663C170.285 114.663 170.244 114.65 170.21 114.625C170.176 114.599 170.151 114.564 170.14 114.523L169.864 113.628C169.856 113.603 169.853 113.576 169.855 113.55C169.858 113.524 169.865 113.498 169.877 113.475C169.889 113.451 169.906 113.43 169.927 113.413C169.947 113.396 169.97 113.384 169.995 113.376C170.021 113.368 170.047 113.365 170.074 113.367C170.1 113.37 170.126 113.377 170.149 113.39C170.172 113.402 170.193 113.419 170.21 113.439C170.227 113.46 170.24 113.483 170.247 113.508L170.519 114.407C170.534 114.457 170.529 114.511 170.504 114.558C170.479 114.604 170.437 114.639 170.387 114.655C170.368 114.661 170.348 114.664 170.327 114.663ZM170.882 116.456C170.84 116.456 170.799 116.442 170.765 116.417C170.732 116.392 170.707 116.356 170.695 116.316L170.415 115.421C170.407 115.396 170.403 115.37 170.405 115.343C170.407 115.317 170.415 115.291 170.427 115.267C170.439 115.244 170.456 115.223 170.477 115.206C170.498 115.19 170.521 115.177 170.547 115.17C170.597 115.155 170.651 115.16 170.698 115.185C170.744 115.21 170.779 115.251 170.795 115.302L171.074 116.196C171.082 116.221 171.085 116.247 171.082 116.273C171.08 116.299 171.073 116.325 171.06 116.348C171.048 116.371 171.031 116.391 171.011 116.408C170.991 116.424 170.967 116.437 170.942 116.444C170.923 116.452 170.903 116.456 170.882 116.456ZM171.454 118.241C171.411 118.241 171.369 118.228 171.335 118.202C171.3 118.177 171.275 118.142 171.262 118.101C171.166 117.806 171.07 117.506 170.974 117.211C170.966 117.186 170.963 117.159 170.965 117.133C170.968 117.106 170.975 117.081 170.987 117.057C171 117.034 171.016 117.013 171.037 116.996C171.057 116.979 171.081 116.967 171.106 116.959C171.156 116.944 171.211 116.948 171.258 116.972C171.305 116.996 171.34 117.037 171.358 117.087C171.45 117.386 171.545 117.682 171.641 117.977C171.65 118.002 171.653 118.029 171.651 118.055C171.65 118.081 171.642 118.107 171.631 118.13C171.619 118.154 171.602 118.175 171.582 118.192C171.562 118.209 171.539 118.221 171.513 118.229C171.494 118.237 171.474 118.241 171.454 118.241ZM172.033 120.018C171.991 120.019 171.949 120.006 171.915 119.981C171.881 119.957 171.855 119.922 171.841 119.883L171.549 118.992C171.533 118.942 171.538 118.887 171.562 118.84C171.586 118.793 171.627 118.758 171.677 118.741C171.728 118.725 171.782 118.729 171.829 118.753C171.876 118.777 171.912 118.818 171.929 118.868L172.22 119.755C172.229 119.78 172.233 119.806 172.231 119.832C172.229 119.859 172.222 119.884 172.21 119.908C172.198 119.931 172.182 119.952 172.161 119.969C172.141 119.986 172.118 119.999 172.093 120.006C172.074 120.014 172.053 120.018 172.033 120.018ZM172.632 121.8C172.59 121.8 172.548 121.787 172.514 121.763C172.48 121.738 172.454 121.704 172.44 121.664C172.34 121.368 172.24 121.069 172.14 120.773C172.132 120.748 172.128 120.722 172.129 120.696C172.13 120.669 172.137 120.644 172.148 120.62C172.16 120.596 172.176 120.575 172.195 120.557C172.215 120.54 172.238 120.526 172.263 120.518C172.288 120.51 172.314 120.506 172.341 120.508C172.367 120.51 172.393 120.517 172.416 120.529C172.44 120.541 172.461 120.557 172.478 120.577C172.495 120.597 172.508 120.62 172.516 120.645C172.616 120.941 172.72 121.237 172.819 121.536C172.829 121.566 172.831 121.598 172.827 121.629C172.822 121.66 172.81 121.689 172.792 121.715C172.773 121.74 172.749 121.761 172.722 121.776C172.694 121.791 172.663 121.799 172.632 121.8ZM173.243 123.569C173.202 123.569 173.162 123.556 173.128 123.532C173.095 123.509 173.069 123.476 173.055 123.437C172.951 123.142 172.847 122.846 172.748 122.551C172.738 122.526 172.734 122.5 172.735 122.473C172.737 122.447 172.743 122.421 172.754 122.397C172.765 122.373 172.781 122.352 172.801 122.334C172.821 122.316 172.843 122.303 172.868 122.294C172.893 122.285 172.92 122.282 172.946 122.283C172.972 122.285 172.998 122.291 173.022 122.303C173.045 122.315 173.067 122.331 173.084 122.351C173.101 122.371 173.115 122.394 173.123 122.419C173.227 122.714 173.327 123.01 173.431 123.301C173.44 123.326 173.444 123.352 173.443 123.379C173.442 123.405 173.436 123.431 173.425 123.455C173.413 123.478 173.398 123.5 173.378 123.517C173.359 123.535 173.336 123.548 173.311 123.557C173.289 123.565 173.266 123.569 173.243 123.569ZM173.874 125.334C173.833 125.333 173.793 125.32 173.76 125.297C173.727 125.273 173.701 125.241 173.686 125.203C173.582 124.911 173.474 124.615 173.371 124.32C173.362 124.295 173.357 124.269 173.359 124.243C173.36 124.217 173.366 124.191 173.377 124.167C173.388 124.143 173.404 124.122 173.423 124.104C173.443 124.087 173.466 124.073 173.49 124.064C173.54 124.048 173.595 124.051 173.642 124.073C173.69 124.095 173.727 124.135 173.746 124.184C173.85 124.48 173.958 124.775 174.062 125.067C174.071 125.091 174.075 125.118 174.074 125.144C174.073 125.17 174.066 125.196 174.055 125.22C174.044 125.243 174.028 125.265 174.009 125.282C173.989 125.3 173.967 125.314 173.942 125.322C173.92 125.331 173.897 125.335 173.874 125.334ZM174.529 127.092C174.488 127.092 174.449 127.079 174.415 127.057C174.382 127.034 174.356 127.001 174.341 126.964C174.233 126.672 174.121 126.377 174.014 126.085C174.004 126.061 174 126.034 174 126.008C174.001 125.981 174.007 125.955 174.018 125.931C174.028 125.907 174.044 125.885 174.063 125.867C174.082 125.849 174.105 125.835 174.129 125.826C174.154 125.816 174.18 125.812 174.207 125.813C174.233 125.814 174.259 125.82 174.283 125.831C174.306 125.843 174.328 125.858 174.345 125.878C174.363 125.898 174.377 125.921 174.385 125.945C174.497 126.237 174.605 126.529 174.717 126.82C174.734 126.87 174.732 126.925 174.71 126.973C174.689 127.021 174.649 127.059 174.601 127.08C174.578 127.087 174.553 127.092 174.529 127.092ZM175.28 128.825C175.257 128.833 175.232 128.837 175.208 128.837C175.168 128.838 175.128 128.826 175.095 128.804C175.061 128.782 175.035 128.75 175.02 128.713C174.904 128.426 174.792 128.134 174.677 127.839C174.667 127.814 174.663 127.788 174.663 127.761C174.664 127.735 174.67 127.709 174.68 127.684C174.691 127.66 174.707 127.638 174.726 127.62C174.745 127.602 174.768 127.588 174.792 127.578C174.817 127.569 174.843 127.564 174.87 127.565C174.896 127.566 174.922 127.572 174.946 127.583C174.97 127.593 174.992 127.609 175.01 127.628C175.029 127.647 175.043 127.67 175.052 127.695C175.164 127.986 175.276 128.278 175.392 128.565C175.401 128.59 175.406 128.616 175.406 128.642C175.406 128.668 175.4 128.694 175.39 128.719C175.379 128.743 175.364 128.765 175.345 128.783C175.327 128.801 175.304 128.815 175.28 128.825ZM175.991 130.558C175.965 130.569 175.938 130.575 175.911 130.574C175.871 130.574 175.833 130.563 175.8 130.541C175.767 130.519 175.742 130.487 175.727 130.45C175.607 130.167 175.487 129.875 175.372 129.584C175.352 129.535 175.352 129.481 175.372 129.432C175.392 129.384 175.431 129.345 175.48 129.325C175.528 129.305 175.583 129.305 175.632 129.325C175.68 129.345 175.719 129.384 175.739 129.432C175.859 129.724 175.979 130.011 176.098 130.299C176.118 130.348 176.117 130.402 176.097 130.45C176.077 130.499 176.039 130.538 175.991 130.558ZM176.733 132.28C176.708 132.291 176.681 132.296 176.654 132.296C176.615 132.296 176.577 132.285 176.545 132.265C176.512 132.244 176.486 132.215 176.47 132.18C176.346 131.896 176.218 131.609 176.094 131.317C176.073 131.269 176.073 131.213 176.092 131.164C176.112 131.115 176.15 131.075 176.198 131.054C176.247 131.033 176.302 131.032 176.352 131.051C176.401 131.071 176.441 131.109 176.462 131.157C176.586 131.449 176.71 131.733 176.833 132.016C176.844 132.04 176.851 132.066 176.852 132.092C176.852 132.118 176.848 132.144 176.839 132.169C176.83 132.193 176.815 132.216 176.797 132.235C176.779 132.254 176.758 132.269 176.733 132.28ZM177.52 133.981C177.493 133.994 177.463 134.001 177.432 134.001C177.395 134 177.358 133.989 177.326 133.968C177.295 133.948 177.269 133.919 177.253 133.885C177.121 133.61 176.989 133.322 176.857 133.035C176.846 133.011 176.839 132.986 176.838 132.959C176.837 132.933 176.841 132.907 176.85 132.883C176.858 132.858 176.872 132.835 176.89 132.816C176.908 132.797 176.929 132.782 176.953 132.771C176.977 132.76 177.003 132.753 177.03 132.752C177.056 132.751 177.083 132.755 177.108 132.765C177.133 132.774 177.156 132.788 177.175 132.806C177.194 132.825 177.21 132.846 177.221 132.871C177.349 133.154 177.48 133.438 177.616 133.714C177.639 133.762 177.641 133.817 177.624 133.867C177.606 133.917 177.568 133.958 177.52 133.981ZM178.363 135.659C178.333 135.671 178.3 135.678 178.267 135.679C178.231 135.679 178.195 135.669 178.164 135.65C178.133 135.631 178.108 135.603 178.091 135.571C177.948 135.299 177.808 135.02 177.664 134.732C177.653 134.708 177.646 134.683 177.644 134.657C177.643 134.63 177.646 134.604 177.655 134.579C177.663 134.554 177.676 134.531 177.694 134.512C177.711 134.492 177.732 134.476 177.756 134.464C177.78 134.453 177.805 134.446 177.831 134.445C177.858 134.443 177.884 134.446 177.909 134.455C177.934 134.463 177.957 134.477 177.976 134.494C177.996 134.512 178.012 134.533 178.024 134.556C178.163 134.84 178.307 135.115 178.447 135.387C178.471 135.434 178.476 135.489 178.461 135.54C178.445 135.591 178.41 135.633 178.363 135.659ZM179.274 137.296C179.243 137.312 179.208 137.32 179.174 137.32C179.139 137.321 179.105 137.312 179.075 137.296C179.045 137.279 179.02 137.254 179.002 137.224C178.846 136.957 178.691 136.685 178.535 136.401C178.509 136.355 178.504 136.3 178.519 136.249C178.534 136.199 178.568 136.156 178.615 136.13C178.661 136.105 178.716 136.099 178.767 136.114C178.818 136.129 178.861 136.163 178.886 136.21C179.038 136.489 179.194 136.761 179.346 137.021C179.372 137.067 179.38 137.122 179.367 137.173C179.353 137.225 179.32 137.269 179.274 137.296ZM180.288 138.87C180.255 138.892 180.216 138.905 180.176 138.906C180.144 138.906 180.112 138.898 180.083 138.882C180.055 138.867 180.03 138.845 180.012 138.818C179.837 138.57 179.665 138.307 179.489 138.031C179.461 137.986 179.452 137.932 179.464 137.88C179.475 137.828 179.507 137.783 179.552 137.754C179.597 137.726 179.651 137.716 179.703 137.728C179.755 137.739 179.8 137.771 179.829 137.815C179.997 138.087 180.168 138.346 180.34 138.594C180.369 138.638 180.38 138.691 180.371 138.743C180.361 138.794 180.331 138.84 180.288 138.87ZM181.462 140.327C181.423 140.363 181.371 140.381 181.318 140.379C181.265 140.377 181.215 140.354 181.179 140.316C180.979 140.092 180.771 139.848 180.572 139.585C180.555 139.564 180.543 139.54 180.536 139.515C180.529 139.489 180.527 139.463 180.53 139.437C180.533 139.41 180.542 139.385 180.555 139.362C180.568 139.339 180.585 139.319 180.606 139.303C180.627 139.287 180.651 139.275 180.676 139.268C180.702 139.261 180.728 139.26 180.755 139.263C180.781 139.267 180.806 139.276 180.829 139.289C180.851 139.302 180.871 139.32 180.887 139.341C181.083 139.593 181.283 139.832 181.474 140.048C181.492 140.067 181.506 140.089 181.515 140.114C181.524 140.138 181.528 140.164 181.527 140.19C181.526 140.216 181.519 140.242 181.508 140.265C181.497 140.289 181.482 140.31 181.462 140.327ZM182.904 141.498C182.876 141.543 182.832 141.575 182.78 141.588C182.729 141.6 182.674 141.592 182.629 141.566C182.354 141.397 182.096 141.203 181.858 140.986C181.838 140.97 181.822 140.949 181.81 140.926C181.798 140.902 181.791 140.877 181.789 140.851C181.787 140.825 181.791 140.799 181.799 140.774C181.807 140.749 181.821 140.727 181.838 140.707C181.873 140.667 181.922 140.642 181.975 140.639C182.029 140.635 182.081 140.652 182.121 140.687C182.343 140.886 182.582 141.066 182.836 141.222C182.859 141.236 182.878 141.254 182.894 141.275C182.91 141.296 182.921 141.32 182.927 141.346C182.934 141.371 182.935 141.398 182.931 141.424C182.927 141.45 182.918 141.475 182.904 141.498ZM184.494 142.201C184.482 142.201 184.47 142.197 184.458 142.197C184.141 142.139 183.829 142.06 183.523 141.961C183.473 141.944 183.431 141.909 183.407 141.862C183.383 141.814 183.379 141.76 183.395 141.709C183.413 141.66 183.448 141.619 183.495 141.595C183.542 141.571 183.597 141.566 183.647 141.582C183.936 141.675 184.231 141.748 184.53 141.801C184.579 141.811 184.622 141.838 184.652 141.878C184.682 141.918 184.697 141.967 184.692 142.017C184.688 142.067 184.665 142.113 184.628 142.147C184.592 142.181 184.544 142.2 184.494 142.201ZM186.355 142.368H186.351C186.019 142.364 185.704 142.348 185.404 142.32C185.378 142.319 185.352 142.312 185.329 142.3C185.305 142.288 185.284 142.271 185.267 142.251C185.25 142.231 185.237 142.208 185.229 142.183C185.221 142.158 185.218 142.131 185.221 142.105C185.222 142.079 185.23 142.053 185.242 142.03C185.254 142.007 185.27 141.986 185.29 141.969C185.31 141.952 185.334 141.94 185.359 141.932C185.384 141.925 185.41 141.922 185.436 141.925C185.728 141.949 186.035 141.965 186.359 141.969C186.411 141.972 186.461 141.994 186.497 142.032C186.534 142.07 186.554 142.12 186.555 142.173C186.554 142.225 186.532 142.275 186.495 142.311C186.457 142.348 186.407 142.368 186.355 142.368ZM188.244 142.304C187.92 142.328 187.605 142.348 187.297 142.36H187.289C187.237 142.36 187.187 142.34 187.15 142.303C187.112 142.267 187.091 142.217 187.09 142.165C187.089 142.112 187.108 142.062 187.144 142.024C187.18 141.986 187.229 141.963 187.281 141.961C187.585 141.949 187.892 141.929 188.212 141.905C188.264 141.902 188.316 141.919 188.355 141.954C188.395 141.988 188.419 142.037 188.424 142.089C188.428 142.141 188.411 142.193 188.378 142.233C188.344 142.274 188.296 142.299 188.244 142.304ZM190.117 142.089C189.802 142.137 189.49 142.177 189.183 142.213H189.159C189.11 142.212 189.062 142.195 189.026 142.162C188.989 142.13 188.965 142.085 188.959 142.037C188.953 141.984 188.969 141.931 189.001 141.889C189.034 141.848 189.082 141.82 189.135 141.813C189.438 141.781 189.746 141.741 190.057 141.693C190.11 141.687 190.163 141.701 190.206 141.733C190.248 141.765 190.277 141.812 190.285 141.865C190.292 141.917 190.279 141.97 190.247 142.012C190.216 142.054 190.169 142.081 190.117 142.089ZM191.974 141.773C191.663 141.833 191.351 141.889 191.048 141.941C191.036 141.944 191.024 141.946 191.012 141.945C190.965 141.945 190.92 141.928 190.884 141.898C190.849 141.868 190.825 141.827 190.816 141.781C190.808 141.729 190.82 141.675 190.851 141.632C190.881 141.589 190.928 141.559 190.98 141.55C191.283 141.498 191.591 141.442 191.898 141.382C191.951 141.373 192.004 141.384 192.048 141.414C192.092 141.444 192.123 141.49 192.134 141.542C192.144 141.593 192.132 141.647 192.102 141.69C192.072 141.734 192.026 141.764 191.974 141.773ZM193.815 141.386C193.508 141.454 193.2 141.522 192.897 141.586C192.882 141.589 192.868 141.59 192.853 141.59C192.804 141.59 192.756 141.572 192.719 141.54C192.682 141.507 192.659 141.461 192.654 141.412C192.649 141.363 192.662 141.314 192.692 141.274C192.721 141.235 192.765 141.207 192.813 141.198C193.117 141.134 193.42 141.066 193.724 140.994C193.775 140.983 193.829 140.992 193.874 141.021C193.919 141.049 193.951 141.093 193.963 141.145C193.975 141.196 193.966 141.25 193.939 141.296C193.911 141.341 193.867 141.373 193.815 141.386ZM195.641 140.934C195.333 141.014 195.03 141.09 194.73 141.166C194.714 141.171 194.698 141.173 194.682 141.174C194.633 141.174 194.586 141.156 194.549 141.124C194.512 141.091 194.489 141.046 194.483 140.998C194.477 140.949 194.489 140.9 194.517 140.859C194.545 140.819 194.587 140.79 194.634 140.779C194.934 140.703 195.237 140.627 195.541 140.551C195.566 140.544 195.592 140.542 195.618 140.545C195.644 140.548 195.669 140.557 195.692 140.57C195.715 140.583 195.735 140.6 195.75 140.621C195.766 140.642 195.778 140.666 195.784 140.691C195.791 140.716 195.793 140.743 195.789 140.769C195.786 140.795 195.777 140.82 195.763 140.843C195.75 140.865 195.732 140.885 195.711 140.901C195.69 140.917 195.666 140.928 195.641 140.934ZM197.45 140.439C197.15 140.527 196.847 140.611 196.547 140.695C196.53 140.698 196.513 140.7 196.495 140.699C196.447 140.699 196.4 140.682 196.364 140.65C196.328 140.618 196.304 140.574 196.298 140.526C196.291 140.478 196.303 140.429 196.329 140.389C196.356 140.349 196.397 140.32 196.444 140.307C196.743 140.228 197.043 140.144 197.342 140.056C197.367 140.049 197.394 140.046 197.42 140.049C197.446 140.052 197.471 140.06 197.494 140.073C197.517 140.086 197.537 140.103 197.554 140.124C197.57 140.144 197.582 140.168 197.589 140.193C197.596 140.219 197.598 140.245 197.595 140.271C197.592 140.297 197.584 140.322 197.571 140.345C197.558 140.368 197.541 140.388 197.52 140.404C197.499 140.421 197.475 140.432 197.45 140.439ZM199.251 139.908C198.952 140 198.652 140.092 198.353 140.18C198.334 140.184 198.315 140.187 198.297 140.188C198.253 140.188 198.211 140.174 198.176 140.148C198.142 140.122 198.117 140.086 198.105 140.044C198.097 140.019 198.095 139.992 198.098 139.966C198.101 139.94 198.109 139.915 198.121 139.892C198.134 139.869 198.151 139.848 198.171 139.832C198.192 139.816 198.215 139.803 198.241 139.796C198.54 139.708 198.836 139.617 199.135 139.529C199.186 139.513 199.24 139.519 199.287 139.543C199.333 139.568 199.368 139.61 199.383 139.66C199.398 139.711 199.393 139.765 199.368 139.812C199.344 139.858 199.302 139.893 199.251 139.908ZM201.044 139.341C200.749 139.437 200.449 139.533 200.154 139.628C200.135 139.635 200.114 139.638 200.094 139.636C200.046 139.637 200 139.62 199.964 139.59C199.928 139.559 199.904 139.517 199.896 139.47C199.888 139.423 199.897 139.375 199.922 139.335C199.947 139.294 199.985 139.264 200.03 139.249C200.33 139.153 200.625 139.057 200.925 138.961C200.975 138.946 201.029 138.951 201.076 138.975C201.123 138.998 201.159 139.04 201.176 139.089C201.184 139.114 201.187 139.141 201.185 139.167C201.183 139.194 201.175 139.219 201.163 139.243C201.151 139.266 201.134 139.287 201.114 139.304C201.093 139.321 201.07 139.333 201.044 139.341ZM202.826 138.75L201.939 139.049C201.918 139.056 201.897 139.058 201.875 139.057C201.828 139.058 201.781 139.042 201.745 139.011C201.708 138.981 201.684 138.938 201.676 138.891C201.668 138.844 201.678 138.796 201.702 138.755C201.727 138.715 201.766 138.684 201.811 138.67L202.698 138.37C202.748 138.353 202.803 138.357 202.851 138.38C202.899 138.403 202.936 138.444 202.954 138.494C202.969 138.545 202.964 138.6 202.941 138.648C202.917 138.695 202.876 138.732 202.826 138.75ZM204.599 138.131C204.307 138.235 204.012 138.339 203.712 138.442C203.692 138.45 203.67 138.454 203.648 138.454C203.607 138.454 203.566 138.441 203.532 138.417C203.499 138.393 203.474 138.358 203.461 138.319C203.452 138.294 203.448 138.268 203.449 138.241C203.45 138.215 203.456 138.189 203.467 138.166C203.478 138.142 203.494 138.121 203.514 138.103C203.533 138.085 203.556 138.072 203.581 138.063C203.88 137.963 204.172 137.855 204.463 137.751C204.513 137.734 204.568 137.737 204.616 137.76C204.664 137.783 204.701 137.824 204.718 137.874C204.736 137.924 204.734 137.979 204.711 138.027C204.689 138.075 204.649 138.112 204.599 138.131ZM206.364 137.488C206.073 137.596 205.781 137.703 205.482 137.811C205.46 137.819 205.437 137.823 205.414 137.823C205.373 137.824 205.332 137.811 205.299 137.788C205.265 137.764 205.24 137.73 205.226 137.691C205.209 137.642 205.211 137.587 205.234 137.539C205.256 137.491 205.296 137.454 205.346 137.436C205.641 137.328 205.937 137.22 206.225 137.112C206.274 137.094 206.329 137.097 206.377 137.119C206.425 137.142 206.462 137.182 206.48 137.232C206.49 137.256 206.495 137.282 206.494 137.309C206.493 137.335 206.487 137.361 206.477 137.385C206.466 137.408 206.45 137.43 206.431 137.448C206.412 137.465 206.389 137.479 206.364 137.488ZM208.118 136.825C207.834 136.937 207.539 137.048 207.243 137.16C207.22 137.168 207.196 137.172 207.171 137.172C207.131 137.172 207.091 137.16 207.058 137.137C207.024 137.114 206.998 137.082 206.983 137.044C206.966 136.995 206.968 136.94 206.99 136.892C207.011 136.843 207.051 136.805 207.099 136.785C207.399 136.673 207.69 136.561 207.978 136.453C208.002 136.444 208.028 136.44 208.054 136.441C208.08 136.442 208.106 136.448 208.13 136.458C208.153 136.469 208.175 136.484 208.193 136.503C208.21 136.522 208.224 136.545 208.233 136.569C208.243 136.594 208.247 136.62 208.246 136.646C208.245 136.672 208.239 136.697 208.229 136.721C208.218 136.745 208.202 136.766 208.183 136.784C208.164 136.802 208.142 136.816 208.118 136.825ZM209.867 136.142C209.583 136.254 209.296 136.369 208.996 136.485C208.973 136.497 208.947 136.502 208.92 136.501C208.881 136.501 208.842 136.489 208.809 136.466C208.776 136.443 208.751 136.411 208.737 136.373C208.718 136.324 208.719 136.269 208.74 136.221C208.761 136.172 208.8 136.134 208.849 136.114C209.148 135.998 209.44 135.882 209.723 135.77C209.772 135.752 209.826 135.753 209.874 135.774C209.922 135.795 209.959 135.834 209.979 135.882C209.989 135.907 209.994 135.933 209.994 135.959C209.994 135.986 209.989 136.012 209.978 136.036C209.968 136.06 209.953 136.082 209.934 136.1C209.914 136.118 209.892 136.133 209.867 136.142ZM211.612 135.443C211.333 135.555 211.041 135.675 210.742 135.794C210.718 135.805 210.692 135.81 210.666 135.81C210.62 135.81 210.575 135.794 210.54 135.765C210.504 135.735 210.48 135.695 210.471 135.65C210.462 135.605 210.469 135.558 210.491 135.517C210.512 135.476 210.547 135.445 210.59 135.427C210.893 135.303 211.181 135.187 211.461 135.071C211.51 135.052 211.564 135.053 211.612 135.074C211.661 135.095 211.699 135.134 211.719 135.183C211.739 135.231 211.739 135.286 211.719 135.334C211.699 135.383 211.661 135.422 211.612 135.443ZM213.346 134.72C213.082 134.832 212.791 134.956 212.479 135.083C212.455 135.094 212.429 135.1 212.403 135.099C212.364 135.099 212.325 135.087 212.292 135.065C212.26 135.043 212.234 135.012 212.219 134.976C212.209 134.951 212.204 134.926 212.204 134.899C212.203 134.873 212.209 134.847 212.219 134.823C212.229 134.799 212.243 134.777 212.262 134.759C212.281 134.74 212.303 134.726 212.327 134.716C212.639 134.588 212.926 134.464 213.19 134.353C213.239 134.332 213.295 134.332 213.344 134.352C213.393 134.373 213.433 134.411 213.454 134.46C213.464 134.484 213.47 134.51 213.47 134.537C213.47 134.563 213.465 134.589 213.455 134.613C213.445 134.637 213.43 134.659 213.411 134.678C213.392 134.696 213.37 134.71 213.346 134.72ZM215.075 133.977C214.903 134.053 214.608 134.181 214.212 134.353C214.187 134.364 214.16 134.369 214.132 134.368C214.086 134.369 214.041 134.353 214.005 134.324C213.97 134.294 213.945 134.254 213.936 134.208C213.927 134.163 213.934 134.116 213.956 134.075C213.978 134.034 214.014 134.002 214.057 133.985C214.448 133.817 214.744 133.69 214.915 133.614C214.939 133.603 214.965 133.597 214.991 133.596C215.018 133.595 215.044 133.6 215.068 133.609C215.093 133.618 215.115 133.633 215.134 133.651C215.153 133.669 215.169 133.69 215.179 133.715C215.19 133.739 215.195 133.765 215.196 133.791C215.196 133.817 215.192 133.843 215.182 133.868C215.172 133.892 215.158 133.914 215.139 133.933C215.121 133.952 215.099 133.967 215.075 133.977ZM177.456 99.0903C177.073 99.2781 176.686 99.4498 176.298 99.6255C175.951 99.7853 175.603 99.933 175.252 100.081C175.495 100.608 175.739 101.135 175.955 101.674C176.198 102.25 176.422 102.829 176.63 103.416C176.845 103.999 177.037 104.594 177.213 105.193C177.38 105.763 177.509 106.343 177.6 106.93C177.841 107.017 178.095 107.066 178.351 107.074C178.644 107.08 178.936 107.044 179.218 106.966C179.504 106.885 179.778 106.77 180.036 106.623C180.297 106.469 180.545 106.292 180.775 106.096C180.232 103.533 179.095 101.134 177.456 99.0903ZM161.029 119.32L159.452 115.861C159.436 115.853 158.921 114.695 158.921 114.695L156.844 110.054C156.161 108.504 155.474 106.954 154.811 105.393C154.811 105.393 125.12 139.864 109.025 166.791C109.025 166.791 112.635 169.523 116.381 172.071V172.067L116.901 171.288C116.916 171.266 116.935 171.248 116.957 171.233C116.979 171.219 117.004 171.209 117.03 171.204C117.056 171.199 117.082 171.2 117.108 171.205C117.134 171.211 117.159 171.221 117.18 171.236C117.202 171.251 117.221 171.269 117.235 171.291C117.25 171.313 117.26 171.337 117.265 171.363C117.27 171.389 117.269 171.415 117.264 171.441C117.258 171.466 117.247 171.491 117.232 171.512L116.713 172.291L116.709 172.295C119.88 174.436 123.071 176.385 124.19 176.385C124.19 176.385 140.441 149.921 143.225 145.899C146.012 141.873 161.485 127.327 163.186 123.925C162.451 122.399 161.74 120.857 161.029 119.32ZM118.275 169.958L117.755 170.733C117.737 170.761 117.712 170.784 117.683 170.8C117.654 170.816 117.621 170.825 117.588 170.825C117.549 170.825 117.511 170.812 117.48 170.789C117.458 170.775 117.439 170.756 117.424 170.735C117.409 170.713 117.399 170.689 117.393 170.663C117.388 170.637 117.388 170.611 117.393 170.585C117.399 170.559 117.409 170.535 117.424 170.513L117.943 169.735C117.973 169.691 118.019 169.66 118.072 169.65C118.124 169.64 118.178 169.65 118.223 169.679C118.245 169.694 118.263 169.713 118.278 169.735C118.292 169.757 118.302 169.782 118.307 169.808C118.312 169.834 118.311 169.86 118.306 169.886C118.3 169.912 118.29 169.937 118.275 169.958ZM119.321 168.405L118.798 169.18C118.78 169.207 118.756 169.229 118.727 169.245C118.699 169.26 118.667 169.268 118.634 169.267C118.594 169.269 118.555 169.258 118.522 169.235C118.478 169.206 118.448 169.161 118.437 169.109C118.427 169.058 118.437 169.004 118.466 168.96L118.99 168.181C119.019 168.137 119.064 168.107 119.116 168.096C119.167 168.086 119.221 168.096 119.265 168.125C119.309 168.155 119.339 168.201 119.35 168.254C119.36 168.306 119.35 168.36 119.321 168.405ZM120.363 166.851L119.84 167.626C119.822 167.653 119.798 167.675 119.769 167.69C119.741 167.706 119.709 167.714 119.676 167.714C119.637 167.716 119.597 167.704 119.565 167.682C119.521 167.652 119.49 167.606 119.48 167.553C119.47 167.501 119.48 167.447 119.509 167.402L120.032 166.627C120.061 166.584 120.107 166.553 120.158 166.543C120.21 166.532 120.263 166.543 120.307 166.572C120.351 166.602 120.382 166.648 120.392 166.7C120.403 166.752 120.392 166.806 120.363 166.851ZM121.406 165.293L120.883 166.072C120.865 166.099 120.84 166.122 120.812 166.137C120.783 166.152 120.751 166.16 120.719 166.16C120.679 166.16 120.641 166.149 120.607 166.128C120.563 166.098 120.533 166.052 120.522 166C120.512 165.948 120.522 165.893 120.551 165.849L121.074 165.074C121.089 165.052 121.107 165.033 121.129 165.018C121.151 165.003 121.175 164.993 121.201 164.988C121.226 164.982 121.253 164.982 121.279 164.987C121.304 164.992 121.329 165.002 121.351 165.017C121.373 165.031 121.391 165.05 121.406 165.072C121.421 165.093 121.431 165.118 121.436 165.144C121.441 165.169 121.441 165.196 121.436 165.222C121.431 165.247 121.42 165.272 121.406 165.293ZM122.448 163.74L121.925 164.519C121.911 164.54 121.892 164.559 121.87 164.574C121.848 164.588 121.824 164.598 121.798 164.603C121.773 164.608 121.746 164.608 121.721 164.602C121.695 164.596 121.671 164.586 121.649 164.571C121.606 164.541 121.575 164.496 121.565 164.444C121.554 164.393 121.564 164.339 121.594 164.295L122.117 163.52C122.131 163.498 122.149 163.479 122.171 163.464C122.193 163.45 122.217 163.439 122.243 163.434C122.268 163.429 122.295 163.429 122.321 163.434C122.346 163.439 122.371 163.45 122.392 163.464C122.436 163.493 122.467 163.539 122.477 163.59C122.488 163.642 122.477 163.696 122.448 163.74ZM123.491 162.186L122.971 162.965C122.952 162.992 122.927 163.014 122.898 163.029C122.869 163.044 122.837 163.053 122.804 163.053C122.768 163.052 122.732 163.042 122.702 163.023C122.671 163.004 122.646 162.978 122.629 162.946C122.612 162.914 122.605 162.878 122.606 162.842C122.608 162.806 122.62 162.771 122.64 162.741L123.159 161.963C123.189 161.919 123.235 161.89 123.287 161.88C123.338 161.87 123.392 161.881 123.435 161.911C123.479 161.94 123.509 161.986 123.519 162.037C123.53 162.089 123.519 162.142 123.491 162.186ZM124.533 160.632L124.014 161.407C123.996 161.435 123.971 161.458 123.942 161.474C123.912 161.49 123.879 161.499 123.846 161.499C123.806 161.498 123.767 161.486 123.734 161.463C123.712 161.449 123.694 161.43 123.679 161.408C123.665 161.387 123.655 161.362 123.65 161.337C123.645 161.311 123.645 161.284 123.651 161.259C123.657 161.233 123.667 161.209 123.682 161.188L124.202 160.409C124.232 160.365 124.278 160.335 124.33 160.324C124.382 160.314 124.436 160.324 124.481 160.353C124.503 160.368 124.522 160.387 124.536 160.409C124.551 160.431 124.561 160.456 124.565 160.482C124.57 160.508 124.57 160.535 124.564 160.56C124.559 160.586 124.548 160.611 124.533 160.632ZM125.575 159.079L125.056 159.854C125.042 159.876 125.024 159.895 125.002 159.91C124.98 159.925 124.956 159.935 124.93 159.941C124.904 159.946 124.878 159.946 124.852 159.941C124.826 159.937 124.801 159.926 124.779 159.912C124.757 159.897 124.738 159.879 124.724 159.857C124.709 159.835 124.699 159.81 124.694 159.784C124.689 159.759 124.689 159.732 124.694 159.706C124.7 159.68 124.71 159.656 124.725 159.634L125.244 158.855C125.274 158.811 125.32 158.781 125.372 158.771C125.425 158.76 125.479 158.77 125.524 158.799C125.545 158.814 125.564 158.833 125.579 158.855C125.593 158.877 125.603 158.902 125.608 158.928C125.613 158.954 125.612 158.981 125.607 159.007C125.601 159.033 125.591 159.057 125.575 159.079ZM126.622 157.521L126.099 158.3C126.08 158.327 126.055 158.349 126.025 158.364C125.996 158.379 125.964 158.388 125.931 158.388C125.892 158.389 125.855 158.378 125.823 158.356C125.779 158.326 125.749 158.28 125.738 158.228C125.728 158.175 125.738 158.121 125.767 158.076L126.29 157.302C126.319 157.258 126.365 157.227 126.417 157.216C126.468 157.206 126.522 157.217 126.566 157.246C126.61 157.275 126.641 157.32 126.651 157.372C126.662 157.424 126.651 157.477 126.622 157.521ZM127.664 155.968L127.141 156.746C127.123 156.773 127.098 156.795 127.07 156.81C127.041 156.826 127.01 156.834 126.977 156.834C126.938 156.834 126.899 156.823 126.865 156.802C126.822 156.772 126.791 156.726 126.781 156.674C126.77 156.622 126.781 156.568 126.81 156.523L127.333 155.748C127.362 155.704 127.407 155.674 127.459 155.663C127.511 155.653 127.564 155.663 127.608 155.692C127.652 155.722 127.683 155.767 127.693 155.818C127.704 155.87 127.693 155.924 127.664 155.968ZM128.707 154.414L128.184 155.193C128.166 155.22 128.141 155.242 128.113 155.257C128.084 155.273 128.052 155.281 128.02 155.281C127.98 155.281 127.94 155.268 127.908 155.245C127.864 155.216 127.833 155.17 127.823 155.118C127.812 155.067 127.823 155.013 127.852 154.969L128.375 154.19C128.405 154.147 128.451 154.118 128.503 154.108C128.554 154.098 128.608 154.109 128.651 154.139C128.695 154.168 128.725 154.213 128.735 154.265C128.746 154.316 128.735 154.37 128.707 154.414ZM129.749 152.86L129.226 153.639C129.212 153.661 129.193 153.68 129.171 153.694C129.149 153.709 129.125 153.719 129.099 153.724C129.073 153.729 129.047 153.728 129.021 153.723C128.996 153.717 128.972 153.706 128.95 153.691C128.906 153.662 128.876 153.616 128.865 153.565C128.855 153.513 128.865 153.459 128.894 153.415L129.418 152.637C129.432 152.615 129.451 152.596 129.473 152.582C129.494 152.567 129.519 152.557 129.544 152.553C129.57 152.548 129.597 152.548 129.622 152.554C129.648 152.559 129.672 152.57 129.693 152.585C129.737 152.614 129.768 152.659 129.778 152.711C129.789 152.763 129.778 152.816 129.749 152.86ZM130.791 151.307L130.272 152.082C130.254 152.109 130.229 152.133 130.2 152.149C130.171 152.165 130.138 152.173 130.105 152.173C130.064 152.173 130.025 152.161 129.993 152.137C129.949 152.108 129.918 152.063 129.908 152.011C129.897 151.96 129.908 151.906 129.937 151.862L130.46 151.083C130.489 151.039 130.535 151.009 130.586 150.999C130.638 150.988 130.692 150.998 130.736 151.027C130.78 151.057 130.81 151.103 130.82 151.156C130.831 151.208 130.82 151.262 130.791 151.307ZM131.834 149.753L131.315 150.528C131.296 150.555 131.271 150.578 131.242 150.593C131.213 150.609 131.18 150.616 131.147 150.616C131.107 150.617 131.068 150.606 131.035 150.584C131.013 150.569 130.995 150.551 130.98 150.529C130.966 150.507 130.956 150.483 130.951 150.457C130.946 150.431 130.946 150.405 130.952 150.379C130.958 150.354 130.968 150.33 130.983 150.308L131.502 149.529C131.517 149.507 131.536 149.488 131.558 149.473C131.58 149.458 131.604 149.448 131.63 149.443C131.656 149.438 131.683 149.438 131.709 149.443C131.735 149.448 131.76 149.458 131.782 149.473C131.804 149.488 131.822 149.507 131.837 149.529C131.851 149.551 131.861 149.576 131.866 149.602C131.871 149.628 131.871 149.655 131.865 149.681C131.86 149.707 131.849 149.731 131.834 149.753ZM132.876 148.195L132.357 148.974C132.338 149.001 132.313 149.023 132.284 149.038C132.255 149.054 132.222 149.062 132.189 149.062C132.15 149.061 132.112 149.05 132.078 149.03C132.056 149.015 132.037 148.996 132.022 148.974C132.008 148.952 131.998 148.927 131.993 148.901C131.988 148.875 131.989 148.848 131.994 148.823C132 148.797 132.011 148.772 132.026 148.751L132.545 147.976C132.575 147.932 132.621 147.902 132.673 147.891C132.726 147.881 132.78 147.891 132.824 147.92C132.846 147.934 132.865 147.953 132.88 147.975C132.894 147.996 132.904 148.021 132.909 148.047C132.914 148.072 132.913 148.099 132.908 148.124C132.902 148.15 132.892 148.174 132.876 148.195ZM133.919 146.642L133.4 147.421C133.381 147.447 133.355 147.469 133.326 147.485C133.297 147.5 133.265 147.508 133.232 147.508C133.194 147.508 133.156 147.497 133.124 147.477C133.102 147.462 133.083 147.443 133.068 147.421C133.053 147.399 133.043 147.374 133.038 147.348C133.033 147.322 133.033 147.296 133.038 147.27C133.043 147.244 133.053 147.219 133.068 147.197L133.587 146.422C133.617 146.378 133.663 146.348 133.716 146.337C133.768 146.327 133.822 146.337 133.867 146.366C133.889 146.381 133.908 146.399 133.922 146.421C133.937 146.443 133.947 146.467 133.951 146.493C133.956 146.519 133.956 146.545 133.95 146.571C133.945 146.596 133.934 146.62 133.919 146.642ZM134.965 145.088L134.442 145.867C134.424 145.894 134.399 145.916 134.371 145.931C134.342 145.946 134.311 145.954 134.278 145.955C134.238 145.955 134.199 145.943 134.166 145.919C134.122 145.89 134.092 145.844 134.081 145.793C134.071 145.741 134.081 145.687 134.11 145.643L134.634 144.864C134.664 144.821 134.709 144.792 134.761 144.782C134.813 144.773 134.866 144.784 134.91 144.813C134.953 144.842 134.983 144.888 134.994 144.939C135.004 144.991 134.994 145.044 134.965 145.088ZM136.008 143.535L135.484 144.313C135.466 144.34 135.442 144.362 135.413 144.377C135.385 144.393 135.353 144.401 135.321 144.401C135.28 144.402 135.241 144.389 135.209 144.365C135.165 144.336 135.134 144.291 135.124 144.239C135.113 144.187 135.124 144.134 135.153 144.09L135.676 143.311C135.69 143.289 135.709 143.27 135.731 143.256C135.753 143.241 135.777 143.231 135.803 143.227C135.829 143.222 135.855 143.222 135.881 143.228C135.906 143.233 135.93 143.244 135.952 143.259C135.996 143.288 136.026 143.334 136.037 143.385C136.047 143.437 136.037 143.491 136.008 143.535ZM137.05 141.981L136.527 142.756C136.51 142.783 136.485 142.806 136.457 142.821C136.428 142.837 136.396 142.845 136.363 142.844C136.323 142.845 136.284 142.834 136.251 142.812C136.207 142.782 136.177 142.737 136.167 142.685C136.156 142.634 136.166 142.58 136.195 142.536L136.719 141.757C136.748 141.713 136.793 141.683 136.845 141.673C136.896 141.662 136.95 141.672 136.994 141.701C137.038 141.731 137.068 141.778 137.079 141.83C137.089 141.882 137.079 141.936 137.05 141.981ZM138.232 140.563L137.617 141.27C137.6 141.292 137.577 141.31 137.551 141.322C137.526 141.333 137.498 141.339 137.469 141.338C137.431 141.338 137.394 141.328 137.361 141.308C137.329 141.287 137.303 141.258 137.287 141.223C137.271 141.189 137.266 141.15 137.271 141.112C137.276 141.075 137.293 141.039 137.318 141.01L137.929 140.303C137.963 140.263 138.012 140.239 138.065 140.234C138.118 140.23 138.17 140.247 138.21 140.282C138.25 140.316 138.275 140.365 138.279 140.418C138.283 140.471 138.266 140.523 138.232 140.563ZM139.458 139.149L138.843 139.856C138.825 139.878 138.802 139.895 138.777 139.907C138.751 139.918 138.724 139.924 138.695 139.924C138.647 139.925 138.6 139.908 138.564 139.876C138.524 139.841 138.499 139.792 138.495 139.738C138.491 139.685 138.509 139.633 138.544 139.593L139.155 138.886C139.19 138.846 139.24 138.822 139.293 138.819C139.345 138.815 139.398 138.832 139.438 138.866C139.478 138.901 139.503 138.95 139.507 139.003C139.511 139.057 139.493 139.109 139.458 139.149ZM140.684 137.735L140.069 138.442C140.051 138.464 140.029 138.481 140.003 138.493C139.978 138.504 139.95 138.51 139.922 138.51C139.873 138.511 139.826 138.494 139.79 138.462C139.75 138.427 139.725 138.378 139.721 138.325C139.718 138.271 139.735 138.219 139.77 138.179L140.381 137.472C140.416 137.431 140.465 137.407 140.519 137.403C140.572 137.399 140.624 137.417 140.664 137.452C140.705 137.487 140.729 137.536 140.733 137.589C140.737 137.643 140.719 137.695 140.684 137.735ZM141.911 136.321L141.296 137.028C141.277 137.05 141.255 137.067 141.229 137.079C141.204 137.091 141.176 137.096 141.148 137.096C141.099 137.097 141.053 137.08 141.016 137.048C140.976 137.013 140.951 136.964 140.948 136.911C140.944 136.858 140.961 136.805 140.996 136.765L141.607 136.058C141.642 136.018 141.692 135.993 141.745 135.989C141.798 135.985 141.85 136.003 141.891 136.038C141.931 136.073 141.956 136.122 141.959 136.176C141.963 136.229 141.946 136.281 141.911 136.321ZM143.137 134.908L142.522 135.615C142.504 135.636 142.481 135.653 142.455 135.665C142.43 135.677 142.402 135.683 142.374 135.682C142.326 135.683 142.279 135.666 142.242 135.634C142.202 135.599 142.177 135.55 142.174 135.497C142.17 135.444 142.187 135.391 142.222 135.351L142.833 134.644C142.868 134.604 142.918 134.579 142.971 134.575C143.024 134.572 143.077 134.589 143.117 134.624C143.157 134.659 143.182 134.709 143.186 134.762C143.189 134.815 143.172 134.867 143.137 134.908ZM144.363 133.49L143.748 134.197C143.731 134.217 143.711 134.234 143.688 134.247C143.664 134.259 143.639 134.266 143.612 134.268C143.586 134.27 143.56 134.266 143.535 134.258C143.51 134.249 143.487 134.235 143.468 134.217C143.448 134.2 143.432 134.179 143.42 134.156C143.409 134.132 143.402 134.107 143.4 134.081C143.398 134.055 143.401 134.029 143.41 134.004C143.418 133.979 143.431 133.957 143.448 133.937L144.059 133.23C144.094 133.19 144.144 133.165 144.197 133.162C144.25 133.158 144.303 133.175 144.343 133.21C144.363 133.227 144.379 133.248 144.391 133.271C144.402 133.294 144.409 133.32 144.411 133.346C144.413 133.372 144.41 133.398 144.401 133.423C144.393 133.447 144.38 133.47 144.363 133.49ZM145.589 132.076L144.974 132.783C144.958 132.803 144.937 132.82 144.914 132.833C144.89 132.845 144.865 132.852 144.839 132.854C144.812 132.856 144.786 132.852 144.761 132.844C144.736 132.835 144.714 132.821 144.694 132.803C144.675 132.786 144.658 132.765 144.647 132.742C144.635 132.719 144.628 132.693 144.626 132.667C144.624 132.641 144.627 132.615 144.636 132.59C144.644 132.566 144.657 132.543 144.674 132.523L145.285 131.816C145.321 131.776 145.37 131.752 145.423 131.748C145.476 131.744 145.529 131.762 145.569 131.796C145.589 131.813 145.605 131.834 145.617 131.857C145.629 131.881 145.636 131.906 145.637 131.932C145.639 131.958 145.636 131.984 145.628 132.009C145.619 132.034 145.606 132.056 145.589 132.076ZM146.815 130.662L146.2 131.369C146.183 131.391 146.16 131.409 146.134 131.421C146.109 131.432 146.081 131.438 146.052 131.437C146.014 131.437 145.977 131.427 145.944 131.407C145.912 131.386 145.886 131.357 145.87 131.322C145.854 131.288 145.848 131.249 145.854 131.211C145.859 131.174 145.875 131.138 145.901 131.109L146.512 130.402C146.547 130.362 146.596 130.338 146.649 130.334C146.702 130.33 146.755 130.348 146.795 130.382C146.815 130.399 146.831 130.42 146.843 130.443C146.855 130.467 146.862 130.492 146.864 130.518C146.865 130.544 146.862 130.57 146.854 130.595C146.846 130.62 146.832 130.643 146.815 130.662ZM148.041 129.248L147.426 129.955C147.409 129.977 147.386 129.995 147.36 130.007C147.335 130.019 147.307 130.024 147.278 130.023C147.24 130.024 147.203 130.013 147.17 129.993C147.138 129.972 147.112 129.943 147.096 129.908C147.08 129.874 147.075 129.835 147.08 129.798C147.085 129.76 147.102 129.724 147.127 129.696L147.738 128.989C147.755 128.969 147.776 128.952 147.799 128.94C147.822 128.928 147.848 128.921 147.874 128.919C147.9 128.917 147.926 128.92 147.951 128.929C147.976 128.937 147.999 128.95 148.019 128.967C148.039 128.984 148.056 129.005 148.067 129.028C148.079 129.051 148.087 129.077 148.089 129.103C148.091 129.129 148.087 129.155 148.079 129.18C148.071 129.205 148.058 129.228 148.041 129.248ZM149.267 127.834L148.652 128.541C148.618 128.581 148.569 128.605 148.517 128.609C148.464 128.612 148.413 128.595 148.373 128.561C148.333 128.526 148.308 128.477 148.304 128.424C148.301 128.37 148.318 128.318 148.353 128.278L148.964 127.571C148.999 127.53 149.048 127.506 149.101 127.502C149.155 127.498 149.207 127.516 149.247 127.551C149.288 127.586 149.312 127.635 149.316 127.688C149.32 127.742 149.302 127.794 149.267 127.834ZM150.494 126.421L149.878 127.127C149.86 127.149 149.838 127.166 149.812 127.178C149.787 127.19 149.759 127.195 149.731 127.195C149.682 127.196 149.635 127.179 149.599 127.147C149.559 127.112 149.534 127.063 149.53 127.01C149.527 126.957 149.544 126.904 149.579 126.864L150.19 126.157C150.225 126.117 150.274 126.092 150.328 126.088C150.381 126.084 150.433 126.102 150.474 126.137C150.514 126.172 150.539 126.221 150.542 126.275C150.546 126.328 150.528 126.38 150.494 126.421ZM151.72 125.007L151.105 125.714C151.086 125.734 151.063 125.751 151.038 125.763C151.012 125.774 150.985 125.781 150.957 125.781C150.909 125.782 150.862 125.765 150.825 125.734C150.785 125.698 150.76 125.649 150.757 125.596C150.753 125.543 150.77 125.49 150.805 125.45L151.416 124.743C151.451 124.703 151.501 124.679 151.554 124.675C151.607 124.671 151.659 124.689 151.699 124.724C151.739 124.759 151.764 124.808 151.768 124.861C151.772 124.914 151.754 124.966 151.72 125.007ZM152.946 123.593L152.331 124.3C152.296 124.339 152.247 124.363 152.195 124.367C152.143 124.371 152.091 124.354 152.051 124.32C152.011 124.285 151.986 124.235 151.983 124.182C151.979 124.129 151.996 124.076 152.031 124.036L152.642 123.329C152.66 123.309 152.681 123.293 152.704 123.281C152.728 123.269 152.754 123.262 152.78 123.26C152.806 123.258 152.833 123.261 152.858 123.27C152.883 123.278 152.906 123.291 152.926 123.309C152.946 123.326 152.963 123.347 152.974 123.371C152.986 123.394 152.993 123.42 152.995 123.447C152.997 123.473 152.993 123.5 152.985 123.525C152.977 123.55 152.963 123.573 152.946 123.593ZM154.172 122.175L153.557 122.886C153.538 122.907 153.514 122.924 153.488 122.936C153.462 122.947 153.434 122.954 153.405 122.954C153.358 122.954 153.313 122.937 153.277 122.906C153.237 122.871 153.213 122.821 153.209 122.768C153.205 122.715 153.223 122.663 153.257 122.622L153.868 121.915C153.903 121.875 153.953 121.851 154.006 121.847C154.059 121.843 154.112 121.861 154.152 121.895C154.172 121.912 154.188 121.933 154.2 121.956C154.211 121.98 154.218 122.005 154.22 122.031C154.222 122.057 154.219 122.083 154.211 122.108C154.202 122.133 154.189 122.155 154.172 122.175ZM155.398 120.761L154.783 121.468C154.765 121.49 154.743 121.508 154.717 121.52C154.691 121.533 154.664 121.539 154.635 121.54C154.611 121.54 154.587 121.536 154.564 121.527C154.541 121.518 154.521 121.505 154.503 121.488C154.484 121.471 154.467 121.45 154.456 121.427C154.444 121.404 154.437 121.378 154.435 121.352C154.433 121.326 154.436 121.3 154.445 121.276C154.453 121.251 154.466 121.228 154.483 121.208L155.094 120.501C155.13 120.461 155.179 120.437 155.232 120.433C155.285 120.429 155.338 120.447 155.378 120.481C155.398 120.498 155.414 120.519 155.426 120.542C155.438 120.566 155.445 120.591 155.447 120.617C155.448 120.643 155.445 120.669 155.437 120.694C155.428 120.719 155.415 120.742 155.398 120.761ZM156.624 119.347L156.009 120.054C155.991 120.076 155.968 120.093 155.943 120.105C155.917 120.116 155.889 120.122 155.861 120.122C155.823 120.123 155.786 120.112 155.753 120.092C155.721 120.071 155.695 120.042 155.679 120.007C155.663 119.973 155.658 119.934 155.663 119.897C155.668 119.859 155.685 119.823 155.71 119.795L156.321 119.088C156.356 119.048 156.405 119.023 156.458 119.019C156.511 119.015 156.564 119.033 156.604 119.068C156.624 119.085 156.64 119.105 156.652 119.129C156.664 119.152 156.671 119.177 156.673 119.203C156.675 119.229 156.671 119.256 156.663 119.28C156.655 119.305 156.641 119.328 156.624 119.347ZM157.85 117.933L157.235 118.64C157.217 118.662 157.193 118.68 157.167 118.691C157.141 118.703 157.112 118.709 157.083 118.708C157.046 118.708 157.009 118.697 156.977 118.676C156.945 118.656 156.92 118.626 156.905 118.592C156.889 118.557 156.884 118.519 156.889 118.482C156.895 118.444 156.911 118.409 156.936 118.381L157.547 117.674C157.582 117.634 157.631 117.609 157.684 117.605C157.738 117.602 157.79 117.619 157.83 117.654C157.85 117.671 157.866 117.691 157.878 117.715C157.89 117.738 157.897 117.764 157.899 117.79C157.901 117.816 157.897 117.842 157.889 117.866C157.881 117.891 157.868 117.914 157.85 117.933ZM159.076 116.519L158.461 117.226C158.442 117.248 158.419 117.265 158.393 117.276C158.366 117.288 158.338 117.294 158.31 117.294C158.272 117.294 158.235 117.283 158.203 117.262C158.171 117.242 158.146 117.212 158.131 117.178C158.115 117.144 158.11 117.105 158.115 117.068C158.121 117.03 158.137 116.995 158.162 116.967L158.773 116.256C158.808 116.217 158.858 116.193 158.911 116.189C158.963 116.185 159.016 116.202 159.056 116.236C159.097 116.271 159.121 116.321 159.125 116.374C159.129 116.427 159.111 116.479 159.076 116.519Z" fill="black"/>
<path d="M144.075 84.6293C144.045 84.6294 144.016 84.621 143.99 84.6052C143.357 84.1867 142.63 83.9317 141.874 83.8629C141.118 83.7941 140.357 83.9136 139.659 84.2108C139.621 84.2304 139.577 84.2342 139.536 84.2213C139.495 84.2085 139.462 84.1801 139.442 84.1423C139.422 84.1046 139.418 84.0606 139.431 84.0199C139.444 83.9792 139.472 83.9452 139.509 83.9253C140.256 83.5944 141.074 83.458 141.887 83.529C142.701 83.6 143.483 83.8761 144.161 84.3314C144.191 84.3499 144.214 84.3776 144.226 84.4103C144.239 84.443 144.24 84.4789 144.231 84.5126C144.221 84.5463 144.201 84.5759 144.173 84.597C144.145 84.618 144.111 84.6294 144.075 84.6293Z" fill="black"/>
<path d="M146.417 97.5606C146.486 96.7202 146.588 95.8994 146.672 95.074C146.767 94.2494 146.831 93.427 146.939 92.5894C147.074 93.4224 147.092 94.2702 146.992 95.1083C146.912 95.948 146.719 96.773 146.417 97.5606Z" fill="black"/>
<path d="M147.591 89.1012C147.577 89.1011 147.564 89.0996 147.551 89.0965C147.51 89.086 147.474 89.0594 147.452 89.0227C147.43 88.986 147.424 88.9421 147.434 88.9007C147.952 86.8565 145.877 85.1147 145.856 85.0975C145.823 85.0703 145.803 85.0311 145.799 84.9886C145.795 84.946 145.808 84.9036 145.835 84.8707C145.862 84.8377 145.901 84.8169 145.944 84.8128C145.986 84.8086 146.028 84.8215 146.061 84.8487C146.154 84.9251 148.314 86.7399 147.747 88.9795C147.738 89.0142 147.718 89.0451 147.69 89.0671C147.661 89.0892 147.627 89.1011 147.591 89.1012Z" fill="black"/>
<path d="M125.547 70.1435C125.727 69.9949 125.955 69.9161 126.188 69.9215C126.422 69.9269 126.646 70.0161 126.819 70.1729C126.819 70.1729 127.54 68.4654 132.239 68.789C132.239 68.789 131.897 70.0316 131.48 70.1221C131.063 70.2126 132.689 71.8683 133.796 71.5406C133.796 71.5406 136.321 73.9182 135.45 76.9454C134.591 79.929 133.742 81.0018 131.939 79.5786C131.883 79.5344 131.824 79.4955 131.761 79.4627C131.277 79.2133 129.155 78.2006 128.739 79.3894C128.653 79.6522 128.674 79.9386 128.798 80.1859C129.359 81.353 131.717 85.588 135.304 82.9151C135.304 82.9151 139.565 80.1691 137.577 76.2858C137.369 75.8921 137.112 75.5263 136.812 75.1973C136.518 74.8584 136.297 74.4631 136.161 74.0355C136.025 73.608 135.978 73.1572 136.023 72.7109C136.061 72.08 136.328 71.4848 136.774 71.0362C137.208 70.6138 137.84 70.3299 138.532 71.0974C138.819 71.4169 139.018 71.8054 139.109 72.2249C139.174 72.4179 139.194 72.6231 139.167 72.8249C139.141 73.0267 139.069 73.2199 138.957 73.3898L139.507 74.0565C139.624 73.5827 139.807 73.1276 140.05 72.7043C140.468 72.0454 140.66 71.2681 140.597 70.4903C140.478 69.2603 139.919 67.5068 138.037 65.7301C138.037 65.7301 135.286 62.3101 131.718 63.1717C128.15 64.0333 125.273 65.662 125.547 70.1435Z" fill="black"/>
<path d="M132.637 73.8443C132.008 74.0144 131.381 74.1534 130.766 74.3284C130.457 74.4095 130.156 74.5104 129.857 74.6186C129.555 74.7218 129.271 74.8731 129.017 75.0667C129.216 74.8005 129.48 74.5892 129.783 74.4522C130.076 74.3033 130.385 74.1853 130.703 74.1002C131.017 74.013 131.338 73.9478 131.662 73.9052C131.985 73.8585 132.311 73.8382 132.637 73.8443Z" fill="black"/>
<path d="M126.619 75.0866C126.872 75.0612 127.127 75.0966 127.364 75.1898C127.489 75.24 127.601 75.3166 127.693 75.4143C127.786 75.512 127.856 75.6285 127.899 75.7558C127.96 76.0111 127.964 76.2765 127.912 76.5336L127.797 77.2681C127.697 77.7403 127.667 78.2245 127.706 78.7055C127.716 78.8186 127.751 78.928 127.808 79.0258C127.866 79.1235 127.945 79.2071 128.039 79.2703C128.255 79.3782 128.499 79.4192 128.739 79.3882C128.493 79.4667 128.228 79.4615 127.985 79.3734C127.867 79.3092 127.764 79.2193 127.685 79.1101C127.606 79.001 127.552 78.8754 127.528 78.7428C127.446 78.2408 127.458 77.7279 127.563 77.2303L127.691 76.5007C127.745 76.2738 127.757 76.0388 127.725 75.8075C127.627 75.3534 127.097 75.1326 126.619 75.0866Z" fill="black"/>
<path d="M125.547 70.1433L126.126 72.982C126.235 73.4507 126.341 73.9196 126.466 74.3821C126.534 74.6111 126.602 74.8408 126.689 75.0611C126.764 75.2821 126.866 75.493 126.993 75.6889L126.979 75.676C127.158 75.8161 127.323 75.9718 127.474 76.1413C127.55 76.2263 127.618 76.3173 127.679 76.4133C127.746 76.507 127.777 76.6216 127.767 76.7364C127.758 76.6264 127.713 76.5226 127.639 76.4413C127.569 76.3563 127.493 76.277 127.41 76.2041C127.245 76.0588 127.072 75.9229 126.891 75.7971C126.886 75.7934 126.881 75.7891 126.877 75.7841C126.59 75.379 126.38 74.9247 126.256 74.4437C126.114 73.9782 125.999 73.5052 125.91 73.0268C125.721 72.0754 125.599 71.1118 125.547 70.1433Z" fill="black"/>
<path d="M129.822 77.7727C129.922 77.823 130.007 77.8975 130.071 77.9895C130.134 78.0815 130.174 78.1879 130.185 78.2991C130.189 78.4155 130.153 78.5297 130.083 78.6229C130.049 78.6667 130.012 78.707 129.97 78.7432C129.925 78.7743 129.877 78.8011 129.833 78.8288C129.975 78.6901 130.058 78.5027 130.067 78.3046C130.063 78.2088 130.036 78.1154 129.989 78.0316C129.942 77.9401 129.886 77.8534 129.822 77.7727Z" fill="black"/>
<path d="M138.957 73.3887C138.946 73.6237 138.928 73.8526 138.928 74.0773C138.928 74.187 138.935 74.2967 138.949 74.4056C138.955 74.457 138.965 74.5078 138.978 74.5576C139.001 74.6269 139.01 74.7001 139.003 74.7728C138.989 74.8441 138.961 74.9119 138.92 74.9723C138.879 75.0326 138.827 75.0843 138.767 75.1244C138.665 75.1969 138.552 75.253 138.432 75.2904C138.206 75.3723 137.963 75.3958 137.725 75.3588C137.946 75.3064 138.16 75.227 138.362 75.1224C138.547 75.0223 138.754 74.8826 138.768 74.7413C138.784 74.6983 138.728 74.5502 138.726 74.4267C138.719 74.3051 138.726 74.1831 138.747 74.0632C138.783 73.829 138.853 73.6016 138.957 73.3887Z" fill="black"/>
<path d="M139.506 74.0569C139.747 74.3194 139.99 74.5743 140.242 74.8176C140.49 75.0609 140.753 75.289 141.029 75.5007C141.3 75.7131 141.594 75.8952 141.904 76.0437C142.221 76.1881 142.561 76.2755 142.908 76.3021C142.549 76.366 142.18 76.3354 141.837 76.2132C141.494 76.0913 141.172 75.9143 140.886 75.6891C140.599 75.4699 140.339 75.2191 140.109 74.9415C139.875 74.6704 139.673 74.3736 139.506 74.0569Z" fill="black"/>
<path d="M138.568 84.4763C138.264 84.5083 137.957 84.4734 137.667 84.3741C137.376 84.2815 137.098 84.1525 136.84 83.9901C136.582 83.8302 136.34 83.6449 136.119 83.437L135.802 83.1145C135.709 82.9952 135.61 82.8821 135.523 82.759L136.236 83.2967C136.479 83.464 136.712 83.641 136.964 83.7884C137.211 83.9432 137.467 84.082 137.731 84.2042C137.998 84.3278 138.28 84.4192 138.568 84.4763Z" fill="black"/>
<path d="M130.649 75.9001C130.742 75.8969 130.83 75.8579 130.894 75.7912C130.958 75.7246 130.994 75.6356 130.994 75.5429C130.994 75.4503 130.958 75.3613 130.894 75.2946C130.83 75.228 130.742 75.189 130.649 75.1858C130.557 75.189 130.469 75.228 130.405 75.2946C130.34 75.3613 130.304 75.4503 130.304 75.5429C130.304 75.6356 130.34 75.7246 130.405 75.7912C130.469 75.8579 130.557 75.8969 130.649 75.9001Z" fill="black"/>
<path d="M119.576 179.936C118.754 178.77 116.98 179.11 115.77 179.529C115.173 179.748 114.534 179.832 113.9 179.774C113.266 179.717 112.653 179.52 112.104 179.197C109.747 177.744 109.879 175.148 110.079 173.989C110.183 173.439 110.104 172.87 109.855 172.368C108.621 170.035 105.67 172.911 105.67 172.911C106.122 173.157 106.524 173.488 106.852 173.885C107.192 174.281 107.459 174.734 107.639 175.223C107.824 175.712 107.923 176.23 107.93 176.753C107.947 177.271 107.847 177.785 107.639 178.259C107.588 177.297 107.393 176.347 107.059 175.443C106.895 175 106.693 174.571 106.456 174.161C106.229 173.742 105.941 173.35 105.67 172.911C105.67 172.911 104.22 172.627 102.187 172.22C102.53 172.589 102.824 173.002 103.062 173.446C103.306 173.888 103.506 174.354 103.657 174.836C103.814 175.33 103.889 175.847 103.876 176.366C103.871 176.632 103.821 176.895 103.728 177.145C103.636 177.395 103.469 177.611 103.249 177.764C103.444 177.332 103.495 176.849 103.397 176.386C103.316 175.922 103.206 175.465 103.066 175.016C102.79 174.101 102.446 173.199 102.187 172.22C101.093 172 99.8265 171.745 98.5284 171.481C98.9205 171.819 99.255 172.218 99.5189 172.663C99.7916 173.106 100.005 173.583 100.154 174.081C100.3 174.591 100.356 175.122 100.318 175.651C100.274 176.179 100.081 176.685 99.7625 177.109C99.8445 176.626 99.87 176.135 99.8384 175.647C99.785 175.175 99.6915 174.709 99.5589 174.253C99.4251 173.786 99.2678 173.326 99.0876 172.875L98.5285 171.481C96.3558 171.034 94.0912 170.567 92.3818 170.187C87.7609 169.169 87.4174 171.214 87.4174 171.214C87.5968 171.018 87.8125 170.859 88.0524 170.746C88.3011 170.62 88.5889 170.596 88.8552 170.678C89.1185 170.774 89.3449 170.95 89.5022 171.182C89.6757 171.396 89.8047 171.643 89.8817 171.909C89.9596 172.174 89.996 172.45 89.9895 172.727C89.9717 172.994 89.9357 173.26 89.8817 173.522C89.8169 174.023 89.8426 174.532 89.9575 175.024C90.227 176.004 90.757 176.893 91.4912 177.596C92.2282 178.299 93.0524 178.904 93.9434 179.397L93.9594 179.405C95.6808 180.164 97.3662 180.987 99.0357 181.857C99.8704 182.305 100.693 182.768 101.504 183.267L102.103 183.651L102.69 184.066C102.882 184.21 103.07 184.369 103.257 184.521C103.433 184.685 103.629 184.881 103.78 185.041C104.431 185.691 105.142 186.277 105.905 186.79C106.673 187.32 107.468 187.811 108.286 188.26C109.104 188.709 109.947 189.113 110.81 189.47C111.241 189.646 111.684 189.792 112.136 189.905C112.585 190.035 113.055 190.083 113.522 190.045C112.578 190.139 111.625 190.008 110.742 189.661C109.843 189.363 108.967 188.998 108.122 188.571C107.274 188.149 106.448 187.682 105.65 187.173C104.828 186.674 104.065 186.083 103.377 185.412C102.723 184.771 101.987 184.219 101.188 183.77C100.394 183.291 99.5749 182.84 98.7481 182.401C97.0947 181.53 95.4052 180.707 93.7078 179.92L93.6998 179.916L93.6838 179.908C92.7478 179.374 91.8903 178.713 91.1357 177.943C90.3704 177.156 89.8358 176.174 89.5901 175.104C89.4837 174.565 89.4769 174.011 89.5701 173.47C89.6321 173.22 89.6815 172.967 89.7179 172.711C89.7406 172.461 89.7231 172.209 89.666 171.964C89.6091 171.72 89.5061 171.488 89.3624 171.281C89.2343 171.067 89.0433 170.897 88.8153 170.794C88.5661 170.732 88.3049 170.739 88.059 170.812C87.813 170.886 87.5915 171.025 87.4175 171.214C84.0665 176.022 92.254 181.007 99.0877 183.782C105.921 186.554 107.471 189.262 107.471 189.262C109.907 192.933 112.132 192.697 113.681 191.674C114.273 191.258 114.761 190.711 115.108 190.076C115.454 189.441 115.649 188.735 115.678 188.012C115.802 186.179 117.512 184.33 117.512 184.33C117.512 184.33 120.894 181.805 119.576 179.936ZM113.022 184.645C112.695 185.512 111.489 184.925 109.448 185.092C107.691 185.24 106.728 183.267 107.051 182.401C107.379 181.53 108.981 181.33 110.63 181.949C112.276 182.568 113.35 183.775 113.022 184.645V184.645Z" fill="black"/>
<path d="M110.078 173.988C110.129 174.006 110.184 174.011 110.238 174.004C110.291 173.996 110.343 173.977 110.388 173.947C110.485 173.896 110.576 173.835 110.66 173.764C110.833 173.626 110.998 173.478 111.154 173.322C111.464 173.002 111.769 172.677 112.062 172.337C112.659 171.668 113.232 170.974 113.878 170.327C113.434 171.123 112.906 171.868 112.303 172.551C112.001 172.895 111.673 173.216 111.32 173.509C111.141 173.656 110.948 173.786 110.744 173.897C110.64 173.952 110.53 173.995 110.417 174.027C110.361 174.05 110.301 174.058 110.242 174.051C110.183 174.045 110.126 174.023 110.078 173.988Z" fill="black"/>
<path d="M117.809 179.138C118.292 178.396 118.813 177.68 119.368 176.991C119.918 176.301 120.476 175.626 121.065 174.957C120.67 175.754 120.185 176.504 119.621 177.191C119.074 177.891 118.468 178.542 117.809 179.138Z" fill="black"/>
<path d="M237.021 137.847C233.742 131.241 234.373 128.186 234.373 128.186C234.98 123.825 233.159 122.527 231.322 122.267C230.603 122.186 229.875 122.271 229.195 122.517C228.514 122.763 227.9 123.163 227.4 123.685C226.093 124.975 223.585 125.231 223.585 125.231C223.585 125.231 219.38 124.875 219.128 127.152C218.972 128.573 220.522 129.488 221.708 129.979C222.301 130.211 222.835 130.571 223.272 131.034C223.709 131.497 224.038 132.05 224.236 132.655C225.039 135.307 223.218 137.164 222.303 137.899C221.86 138.241 221.541 138.72 221.397 139.261C220.774 141.829 224.887 141.625 224.887 141.625C224.714 141.142 224.632 140.63 224.648 140.116C224.657 139.594 224.759 139.077 224.947 138.59C225.131 138.101 225.4 137.647 225.742 137.252C226.072 136.853 226.489 136.533 226.96 136.318C226.358 137.071 225.873 137.911 225.522 138.81C225.356 139.252 225.223 139.706 225.127 140.168C225.019 140.639 224.975 141.118 224.887 141.625C224.887 141.625 225.786 142.8 227.04 144.449C227.027 143.946 227.081 143.444 227.2 142.955C227.305 142.46 227.464 141.978 227.675 141.518C227.884 141.044 228.17 140.608 228.522 140.228C228.702 140.031 228.914 139.866 229.149 139.74C229.385 139.615 229.654 139.565 229.92 139.597C229.488 139.791 229.13 140.119 228.897 140.531C228.649 140.931 228.427 141.348 228.234 141.777C227.835 142.644 227.495 143.547 227.04 144.449V144.453C227.715 145.344 228.49 146.37 229.289 147.425C229.221 146.914 229.236 146.397 229.332 145.891C229.42 145.377 229.576 144.878 229.796 144.405C230.024 143.927 230.334 143.492 230.71 143.119C231.096 142.753 231.576 142.503 232.096 142.396C231.713 142.702 231.368 143.054 231.07 143.443C230.796 143.831 230.556 144.243 230.355 144.673C230.139 145.1 229.976 145.556 229.796 146.015L229.289 147.425V147.429C230.623 149.202 232.008 151.055 233.039 152.469C235.823 156.299 237.436 154.989 237.436 154.989C243.131 153.611 240.3 144.453 237.021 137.847ZM230.139 133.606C229.321 134.037 227.987 133.131 227.164 131.573C226.341 130.015 226.337 128.402 227.156 127.966C227.975 127.535 228.49 128.773 230.131 129.999C231.541 131.054 230.958 133.17 230.139 133.606ZM238.387 150.64C238.109 151.114 237.748 151.533 237.32 151.878C237.105 152.022 236.9 152.179 236.705 152.349C236.523 152.521 236.369 152.72 236.25 152.94C236.129 153.16 236.051 153.402 236.022 153.651C235.976 153.897 236.007 154.151 236.11 154.378C236.251 154.586 236.445 154.752 236.672 154.86C236.899 154.967 237.15 155.012 237.4 154.989C237.148 155.019 236.892 154.995 236.649 154.921C236.379 154.851 236.147 154.677 236.002 154.438C235.872 154.192 235.819 153.912 235.851 153.635C235.867 153.36 235.935 153.091 236.05 152.84C236.167 152.589 236.323 152.359 236.514 152.157C236.701 151.967 236.903 151.791 237.117 151.63C237.499 151.3 237.817 150.902 238.055 150.456C238.508 149.545 238.7 148.526 238.61 147.513C238.527 146.488 238.308 145.48 237.959 144.513C237.177 142.808 236.452 141.077 235.787 139.321C235.459 138.434 235.148 137.54 234.872 136.633L234.676 135.946L234.513 135.247C234.461 135.012 234.429 134.768 234.389 134.528C234.365 134.289 234.349 134.013 234.341 133.793C234.285 132.876 234.139 131.967 233.906 131.078C233.686 130.171 233.417 129.278 233.099 128.402C232.784 127.523 232.421 126.661 232.012 125.822C231.806 125.402 231.57 124.998 231.306 124.611C231.053 124.218 230.732 123.871 230.359 123.589C231.129 124.146 231.755 124.876 232.188 125.722C232.664 126.541 233.079 127.394 233.43 128.274C233.786 129.151 234.094 130.047 234.353 130.958C234.639 131.877 234.819 132.825 234.888 133.785C234.954 134.698 235.139 135.597 235.439 136.461C235.719 137.348 236.03 138.231 236.362 139.105C237.025 140.855 237.744 142.588 238.495 144.301V144.309L238.503 144.329C238.849 145.35 239.053 146.413 239.11 147.489C239.161 148.585 238.911 149.675 238.387 150.64Z" fill="black"/>
<path d="M222.771 138.474C222.087 138.411 221.401 138.382 220.714 138.389C220.031 138.393 219.348 138.417 218.667 138.46C217.984 138.495 217.304 138.563 216.621 138.624C215.938 138.693 215.255 138.767 214.563 138.828C214.892 138.718 215.227 138.631 215.561 138.535C215.898 138.458 216.236 138.375 216.577 138.316C217.26 138.19 217.95 138.105 218.643 138.061C219.337 138.019 220.033 138.025 220.727 138.079C221.422 138.125 222.108 138.258 222.771 138.474Z" fill="black"/>
<path d="M219.922 128.921C219.076 129.182 218.213 129.387 217.339 129.534C216.47 129.685 215.606 129.814 214.714 129.895C215.118 129.703 215.538 129.549 215.971 129.435C216.399 129.312 216.834 129.222 217.269 129.141C218.144 128.977 219.033 128.903 219.922 128.921Z" fill="black"/>
<path d="M170.342 81.1378C170.539 81.1202 170.736 81.1453 170.922 81.2112C171.108 81.2771 171.277 81.3823 171.418 81.5196C171.559 81.6688 171.656 81.8551 171.695 82.0568C171.736 82.254 171.747 82.4563 171.728 82.6568L171.723 82.6068C171.799 82.6873 171.897 82.7434 172.005 82.7679C172.134 82.8025 172.268 82.8212 172.401 82.8236C172.674 82.84 172.958 82.801 173.251 82.7937C173.543 82.7841 173.829 82.7526 174.127 82.761C174.28 82.7597 174.433 82.7734 174.584 82.8019C174.755 82.8269 174.916 82.8981 175.05 83.0077C175.123 83.0741 175.178 83.1582 175.21 83.2519C175.241 83.3456 175.248 83.4458 175.23 83.543C175.189 83.7196 175.088 83.8761 174.943 83.9852C174.701 84.1714 174.43 84.3169 174.141 84.4158C173.866 84.5219 173.583 84.6046 173.294 84.663C173.151 84.6939 173.006 84.7214 172.862 84.7428C172.789 84.7528 172.719 84.7658 172.639 84.7737L172.527 84.7801L172.466 84.7803L172.43 84.7774L172.403 84.7721C172.39 84.7628 172.375 84.7775 172.333 84.718L172.339 84.7284C172.345 84.7563 172.409 84.7667 172.4 84.7636C172.404 84.7642 172.409 84.7636 172.413 84.7618L172.4 84.766C172.386 84.7719 172.373 84.7785 172.359 84.7859L172.27 84.8384L172.09 84.9568L171.731 85.2061L171.021 85.7228C171.23 85.5164 171.446 85.3185 171.665 85.1235L171.999 84.8348C172.055 84.7871 172.114 84.7418 172.175 84.6976L172.271 84.6326C172.289 84.6212 172.307 84.6107 172.326 84.6012L172.365 84.5859C172.378 84.5827 172.392 84.5809 172.405 84.5805C172.422 84.5812 172.438 84.5855 172.453 84.5931C172.468 84.6006 172.481 84.6112 172.491 84.6242L172.497 84.6348C172.46 84.5831 172.455 84.6002 172.451 84.5935C172.448 84.5936 172.448 84.5925 172.451 84.5935L172.468 84.5926L172.515 84.5894L172.618 84.5767L172.822 84.5345C172.962 84.5042 173.099 84.469 173.236 84.43C173.508 84.3522 173.775 84.2605 174.038 84.1552C174.294 84.0619 174.534 83.9282 174.748 83.759C174.836 83.6932 174.899 83.5994 174.927 83.4931C174.935 83.4478 174.932 83.4012 174.916 83.3577C174.901 83.3143 174.875 83.2756 174.84 83.2455C174.621 83.1193 174.37 83.0584 174.117 83.07C173.838 83.0559 173.547 83.0809 173.262 83.0843C172.979 83.0847 172.687 83.1194 172.382 83.0954C172.228 83.0833 172.075 83.0516 171.929 83.0011C171.842 82.9774 171.762 82.9368 171.691 82.8817C171.621 82.8266 171.562 82.7581 171.518 82.6802C171.512 82.6684 171.509 82.6549 171.511 82.6417L171.512 82.63C171.541 82.4518 171.543 82.2705 171.518 82.0918C171.493 81.9157 171.424 81.7487 171.317 81.6064C171.195 81.4663 171.045 81.3526 170.878 81.272C170.71 81.1914 170.528 81.1458 170.342 81.1378Z" fill="black"/>
<path d="M196.074 66.1478C198.813 65.2847 201.565 64.4708 204.33 63.7061C207.092 62.9307 209.865 62.2005 212.641 61.4792C215.42 60.7722 218.202 60.0751 220.996 59.4229C223.786 58.7598 226.59 58.1467 229.406 57.5837C226.667 58.4478 223.916 59.262 221.151 60.0266C218.389 60.8018 215.616 61.5319 212.84 62.2524C210.06 62.9583 207.278 63.6555 204.485 64.3075C201.694 64.9702 198.89 65.5837 196.074 66.1478Z" fill="black"/>
<path d="M184.6 77.1264C187.339 76.2632 190.091 75.4493 192.855 74.6846C195.617 73.9092 198.391 73.1791 201.166 72.4577C203.946 71.7508 206.728 71.0536 209.521 70.4014C212.312 69.7383 215.115 69.1252 217.932 68.5623C215.193 69.4263 212.441 70.2406 209.676 71.0052C206.914 71.7804 204.141 72.5105 201.365 73.2309C198.585 73.9369 195.803 74.6341 193.01 75.2861C190.219 75.9488 187.416 76.5622 184.6 77.1264Z" fill="black"/>
<path d="M205.588 78.0659C207.093 77.4572 208.619 76.9241 210.153 76.4177C211.686 75.9065 213.232 75.4401 214.78 74.9825C216.333 74.5392 217.888 74.1055 219.456 73.7165C221.023 73.3227 222.598 72.9561 224.195 72.6658C222.69 73.2754 221.164 73.8089 219.63 74.3151C218.097 74.8261 216.551 75.2924 215.003 75.7492C213.45 76.1916 211.895 76.6252 210.326 77.014C208.76 77.4076 207.185 77.7746 205.588 78.0659Z" fill="black"/>
<path d="M62.9312 65.5644C62.9312 65.5644 61.2978 53.9608 55.5706 46.1673C49.8433 38.3738 89.325 40.1966 89.325 40.1966L95.3895 53.8028C95.3895 53.8028 66.5817 54.9168 62.9312 65.5644Z" fill="black"/>
<path d="M134.87 103.288C134.983 102.802 135.104 102.319 135.227 101.836C135.35 101.353 135.465 100.868 135.596 100.388L136.365 97.5007L136.366 97.4983C136.378 97.4537 136.405 97.4145 136.442 97.387C136.479 97.3595 136.524 97.3454 136.57 97.347C137.324 97.3739 138.024 97.4577 138.746 97.5421C139.461 97.6322 140.174 97.7328 140.887 97.8376C141.597 97.9505 142.308 98.0632 143.016 98.1946C143.724 98.3181 144.429 98.4672 145.134 98.6049L145.144 98.6067C145.19 98.616 145.232 98.6425 145.259 98.6811C145.287 98.7196 145.299 98.7672 145.293 98.8142C145.099 100.275 144.837 101.718 144.57 103.161C144.3 104.603 144.022 106.045 143.652 107.468C143.473 108.181 143.273 108.89 143.032 109.588C142.8 110.298 142.497 110.982 142.128 111.63C141.934 111.964 141.697 112.271 141.424 112.544C141.124 112.835 140.743 113.026 140.331 113.093C139.57 113.135 138.806 113.061 138.068 112.874C135.207 112.17 132.405 111.242 129.69 110.099C128.332 109.541 126.981 108.967 125.638 108.377C124.302 107.771 122.966 107.167 121.651 106.515L121.677 106.522L120.3 106.307C120.296 106.307 120.292 106.305 120.289 106.303C120.286 106.301 120.283 106.299 120.281 106.296C120.279 106.293 120.277 106.29 120.276 106.286C120.276 106.282 120.275 106.279 120.276 106.275C120.277 106.268 120.281 106.262 120.287 106.257C120.292 106.253 120.299 106.251 120.307 106.251L121.693 106.356C121.7 106.356 121.707 106.358 121.713 106.36L121.719 106.363C123.08 106.905 124.436 107.46 125.801 107.988C127.16 108.532 128.525 109.061 129.895 109.574C131.262 110.094 132.634 110.595 134.012 111.077C135.392 111.55 136.776 112.019 138.184 112.351C138.865 112.534 139.567 112.621 140.272 112.61C140.588 112.567 140.884 112.427 141.118 112.211C141.37 111.971 141.591 111.702 141.777 111.408C142.514 110.159 143.074 108.814 143.441 107.41C143.834 106.002 144.15 104.572 144.387 103.129C144.622 101.685 144.783 100.227 144.91 98.7749L145.068 98.9841L142.937 98.6681L140.809 98.3402C140.101 98.2288 139.392 98.1181 138.683 98.02C137.979 97.9242 137.252 97.8158 136.57 97.7738L136.775 97.6202L135.871 100.468C135.723 100.944 135.559 101.414 135.404 101.888C135.247 102.361 135.089 102.833 134.924 103.304C134.922 103.31 134.917 103.316 134.91 103.32C134.904 103.323 134.896 103.324 134.889 103.322C134.882 103.32 134.876 103.315 134.873 103.309C134.869 103.302 134.868 103.295 134.87 103.288Z" fill="#020202"/>
<path d="M120.331 106.275L120.331 106.279L120.274 106.28C120.274 106.286 120.276 106.291 120.28 106.295C120.283 106.3 120.288 106.303 120.294 106.305C120.299 106.306 120.305 106.306 120.31 106.305C120.319 106.301 120.319 106.3 120.319 106.3L120.295 106.308C119.433 106.23 118.573 106.136 117.715 106.008C116.851 105.88 115.998 105.691 115.161 105.443C114.703 105.326 114.288 105.081 113.965 104.736C113.656 104.362 113.479 103.897 113.461 103.412C113.444 102.955 113.493 102.498 113.609 102.056C113.716 101.618 113.868 101.192 114.061 100.786L114.115 101.085C113.282 100.309 112.457 99.524 111.646 98.7233L111.67 98.7422C111.336 98.5077 111.068 98.1907 110.893 97.8221C110.844 97.7124 110.823 97.5925 110.832 97.4729C110.84 97.3532 110.878 97.2375 110.941 97.1357C111.005 97.0404 111.087 96.9592 111.183 96.8972C111.279 96.8351 111.387 96.7934 111.5 96.7748C111.717 96.7388 111.941 96.7806 112.13 96.8929L112.602 97.1903C112.913 97.3883 113.229 97.5781 113.545 97.7678C114.176 98.1475 114.819 98.5101 115.474 98.844C115.797 99.0117 116.132 99.1561 116.475 99.276C116.552 99.3041 116.634 99.3175 116.716 99.3157C116.802 99.3142 116.889 99.306 116.975 99.2913C117.01 99.2856 117.043 99.2745 117.075 99.2582C117.1 99.2394 117.09 99.2472 117.093 99.2378C117.072 99.1693 117.037 99.1059 116.99 99.0519C116.761 98.7693 116.514 98.5024 116.249 98.2531C116.117 98.128 115.981 98.0089 115.841 97.8923C115.77 97.8326 115.699 97.7782 115.622 97.7041C115.588 97.6771 115.561 97.6432 115.542 97.6047C115.523 97.5662 115.513 97.524 115.512 97.481C115.518 97.4326 115.536 97.3865 115.565 97.3476C115.594 97.3086 115.633 97.2782 115.678 97.2596C115.872 97.1831 116.08 97.1468 116.288 97.1526C116.48 97.1505 116.672 97.1608 116.863 97.1835C118.013 97.3142 119.093 97.8065 119.945 98.5897C120.527 99.0875 121.026 99.6741 121.425 100.328L121.283 100.213C122.781 100.709 124.289 101.179 125.793 101.655C127.297 102.116 128.805 102.614 130.315 102.976C130.494 103.019 130.676 103.052 130.86 103.073C131.036 103.072 131.211 103.05 131.381 103.008C131.782 102.935 132.187 102.892 132.594 102.881C133.414 102.849 134.231 102.986 134.995 103.285C135.742 103.592 136.438 104.01 137.06 104.525C137.678 105.028 138.255 105.564 138.875 106.053C138.878 106.055 138.88 106.058 138.882 106.061C138.884 106.064 138.885 106.068 138.886 106.071C138.886 106.075 138.886 106.079 138.885 106.082C138.884 106.086 138.882 106.089 138.88 106.092C138.876 106.098 138.869 106.102 138.862 106.103C138.855 106.104 138.848 106.103 138.842 106.099C138.174 105.67 137.561 105.164 136.916 104.717C136.29 104.258 135.601 103.893 134.87 103.633C134.142 103.395 133.376 103.299 132.613 103.349C132.23 103.372 131.85 103.425 131.475 103.506L131.193 103.564C131.138 103.577 131.082 103.587 131.026 103.594C130.96 103.603 130.894 103.604 130.828 103.599C130.618 103.582 130.409 103.553 130.203 103.509C129.41 103.354 128.65 103.133 127.885 102.92C127.122 102.704 126.365 102.469 125.611 102.229C124.101 101.752 122.607 101.234 121.112 100.716L121.109 100.715C121.05 100.694 121.001 100.654 120.97 100.601C120.606 99.9869 120.155 99.4298 119.629 98.9473C119.114 98.4549 118.508 98.0673 117.846 97.8062C117.512 97.6784 117.167 97.5843 116.815 97.5254C116.64 97.4959 116.464 97.4778 116.287 97.471C116.126 97.4588 115.964 97.4763 115.809 97.5227C115.78 97.5308 115.786 97.5537 115.8 97.4977C115.788 97.4399 115.796 97.4851 115.824 97.5072C115.878 97.5632 115.95 97.626 116.018 97.6878C116.156 97.8125 116.293 97.9425 116.423 98.077C116.683 98.3474 116.928 98.6316 117.157 98.9283C117.231 99.0148 117.279 99.1201 117.296 99.2324C117.296 99.2738 117.285 99.3144 117.263 99.3498C117.242 99.3851 117.211 99.4139 117.174 99.433C117.124 99.4597 117.069 99.4779 117.012 99.4868C116.916 99.5022 116.818 99.5101 116.721 99.5105C116.618 99.5114 116.515 99.4936 116.419 99.4579C116.067 99.3297 115.725 99.1762 115.395 98.9987C114.735 98.6621 114.091 98.2998 113.444 97.9429L112.477 97.4007L111.997 97.1319C111.862 97.0608 111.706 97.0396 111.557 97.0719C111.488 97.0867 111.423 97.1156 111.365 97.1568C111.307 97.1979 111.259 97.2506 111.222 97.3113C111.191 97.3691 111.176 97.4338 111.176 97.4994C111.177 97.565 111.194 97.6293 111.226 97.6865C111.391 97.9767 111.624 98.2218 111.906 98.4001L111.924 98.4145L111.93 98.4191C112.786 99.1707 113.627 99.9384 114.461 100.714C114.5 100.75 114.527 100.798 114.537 100.85C114.547 100.903 114.541 100.957 114.518 101.005L114.515 101.014C114.145 101.75 113.948 102.561 113.94 103.385C113.94 103.771 114.069 104.146 114.305 104.452C114.572 104.742 114.912 104.956 115.29 105.07C116.098 105.351 116.925 105.577 117.764 105.743C118.603 105.94 119.455 106.077 120.303 106.251L120.279 106.259C120.282 106.255 120.287 106.252 120.292 106.251C120.298 106.249 120.304 106.249 120.31 106.251C120.316 106.252 120.321 106.256 120.325 106.261C120.329 106.266 120.331 106.272 120.331 106.279C120.332 106.282 120.332 106.286 120.331 106.29C120.33 106.293 120.328 106.297 120.326 106.3C120.323 106.303 120.32 106.305 120.317 106.307C120.314 106.309 120.31 106.31 120.307 106.311C120.303 106.311 120.299 106.311 120.296 106.31C120.292 106.309 120.288 106.307 120.285 106.305C120.283 106.303 120.28 106.3 120.278 106.296C120.276 106.293 120.275 106.29 120.275 106.286L120.274 106.279L120.275 106.275C120.275 106.268 120.278 106.261 120.283 106.256C120.289 106.251 120.296 106.248 120.303 106.248C120.31 106.248 120.317 106.251 120.322 106.256C120.328 106.261 120.331 106.268 120.331 106.275L120.331 106.275Z" fill="#020202"/>
</svg>