<svg xmlns="http://www.w3.org/2000/svg" width="232" height="85" viewBox="0 0 232 85" fill="none">
<path d="M11.3916 45.5H12.8766L9.32164 51.2525V56H8.06164V51.2525L4.50664 45.5H5.99164L8.69164 49.8725L11.3916 45.5ZM16.2254 56.195C15.5354 56.195 14.9054 56.0175 14.3354 55.6625C13.7704 55.3075 13.3179 54.8325 12.9779 54.2375C12.6429 53.6375 12.4754 52.975 12.4754 52.25C12.4754 51.7 12.5729 51.1875 12.7679 50.7125C12.9629 50.2325 13.2304 49.8125 13.5704 49.4525C13.9154 49.0875 14.3154 48.8025 14.7704 48.5975C15.2254 48.3925 15.7104 48.29 16.2254 48.29C16.9154 48.29 17.5429 48.4675 18.1079 48.8225C18.6779 49.1775 19.1304 49.655 19.4654 50.255C19.8054 50.855 19.9754 51.52 19.9754 52.25C19.9754 52.795 19.8779 53.305 19.6829 53.78C19.4879 54.255 19.2179 54.675 18.8729 55.04C18.5329 55.4 18.1354 55.6825 17.6804 55.8875C17.2304 56.0925 16.7454 56.195 16.2254 56.195ZM16.2254 54.935C16.6954 54.935 17.1179 54.8125 17.4929 54.5675C17.8729 54.3175 18.1704 53.99 18.3854 53.585C18.6054 53.175 18.7154 52.73 18.7154 52.25C18.7154 51.76 18.6029 51.31 18.3779 50.9C18.1579 50.49 17.8604 50.1625 17.4854 49.9175C17.1104 49.6725 16.6904 49.55 16.2254 49.55C15.7554 49.55 15.3329 49.675 14.9579 49.925C14.5829 50.17 14.2854 50.4975 14.0654 50.9075C13.8454 51.3175 13.7354 51.765 13.7354 52.25C13.7354 52.75 13.8479 53.205 14.0729 53.615C14.2979 54.02 14.6004 54.3425 14.9804 54.5825C15.3604 54.8175 15.7754 54.935 16.2254 54.935ZM20.8139 53.15V48.5H22.0739V52.8725C22.0739 53.2525 22.1664 53.5975 22.3514 53.9075C22.5364 54.2175 22.7839 54.465 23.0939 54.65C23.4089 54.83 23.7539 54.92 24.1289 54.92C24.5089 54.92 24.8514 54.83 25.1564 54.65C25.4664 54.465 25.7139 54.2175 25.8989 53.9075C26.0839 53.5975 26.1764 53.2525 26.1764 52.8725V48.5H27.4364L27.4439 56H26.1839L26.1764 55.0475C25.9114 55.3975 25.5764 55.6775 25.1714 55.8875C24.7664 56.0925 24.3289 56.195 23.8589 56.195C23.2989 56.195 22.7864 56.06 22.3214 55.79C21.8614 55.515 21.4939 55.1475 21.2189 54.6875C20.9489 54.2275 20.8139 53.715 20.8139 53.15ZM28.9508 56V48.5H30.2108V49.4375C30.4758 49.0875 30.8108 48.81 31.2158 48.605C31.6208 48.395 32.0608 48.29 32.5358 48.29C32.8258 48.29 33.1058 48.3275 33.3758 48.4025L32.8658 49.6625C32.6608 49.5975 32.4608 49.565 32.2658 49.565C31.8908 49.565 31.5458 49.6575 31.2308 49.8425C30.9208 50.0225 30.6733 50.2675 30.4883 50.5775C30.3033 50.8875 30.2108 51.2325 30.2108 51.6125V56H28.9508ZM39.2928 59.75H38.0328V48.5H39.2928V49.7825C39.5478 49.3425 39.8878 48.9875 40.3128 48.7175C40.7378 48.4425 41.2428 48.305 41.8278 48.305C42.3728 48.305 42.8828 48.4075 43.3578 48.6125C43.8378 48.8175 44.2578 49.1025 44.6178 49.4675C44.9778 49.8275 45.2603 50.245 45.4653 50.72C45.6703 51.195 45.7728 51.705 45.7728 52.25C45.7728 52.795 45.6703 53.3075 45.4653 53.7875C45.2603 54.2675 44.9778 54.69 44.6178 55.055C44.2578 55.415 43.8378 55.6975 43.3578 55.9025C42.8828 56.1075 42.3728 56.21 41.8278 56.21C41.2428 56.21 40.7378 56.075 40.3128 55.805C39.8878 55.53 39.5478 55.1725 39.2928 54.7325V59.75ZM41.8128 49.5275C41.3278 49.5275 40.9028 49.65 40.5378 49.895C40.1728 50.14 39.8903 50.4675 39.6903 50.8775C39.4953 51.2875 39.3978 51.745 39.3978 52.25C39.3978 52.75 39.4953 53.2075 39.6903 53.6225C39.8903 54.0375 40.1703 54.3675 40.5303 54.6125C40.8953 54.8575 41.3228 54.98 41.8128 54.98C42.2978 54.98 42.7428 54.86 43.1478 54.62C43.5528 54.375 43.8778 54.0475 44.1228 53.6375C44.3678 53.2225 44.4903 52.76 44.4903 52.25C44.4903 51.75 44.3703 51.295 44.1303 50.885C43.8903 50.47 43.5678 50.14 43.1628 49.895C42.7578 49.65 42.3078 49.5275 41.8128 49.5275ZM53.013 48.5H54.273V56H53.013L52.9605 54.7325C52.7255 55.1675 52.4005 55.52 51.9855 55.79C51.5755 56.06 51.0855 56.195 50.5155 56.195C49.9655 56.195 49.4505 56.0925 48.9705 55.8875C48.4905 55.6775 48.0655 55.39 47.6955 55.025C47.3305 54.655 47.0455 54.23 46.8405 53.75C46.6355 53.27 46.533 52.7525 46.533 52.1975C46.533 51.6625 46.633 51.1575 46.833 50.6825C47.033 50.2075 47.3105 49.7925 47.6655 49.4375C48.0255 49.0775 48.4405 48.7975 48.9105 48.5975C49.3805 48.3925 49.8855 48.29 50.4255 48.29C51.0155 48.29 51.533 48.43 51.978 48.71C52.423 48.985 52.783 49.3425 53.058 49.7825L53.013 48.5ZM50.493 54.9725C50.988 54.9725 51.4155 54.8525 51.7755 54.6125C52.1405 54.3675 52.4205 54.0375 52.6155 53.6225C52.8155 53.2075 52.9155 52.75 52.9155 52.25C52.9155 51.74 52.8155 51.28 52.6155 50.87C52.4155 50.455 52.133 50.1275 51.768 49.8875C51.408 49.6425 50.983 49.52 50.493 49.52C49.998 49.52 49.548 49.6425 49.143 49.8875C48.738 50.1325 48.4155 50.4625 48.1755 50.8775C47.9405 51.2875 47.823 51.745 47.823 52.25C47.823 52.755 47.9455 53.215 48.1905 53.63C48.4355 54.04 48.7605 54.3675 49.1655 54.6125C49.5705 54.8525 50.013 54.9725 50.493 54.9725ZM58.0596 56.1425C57.6546 56.1275 57.2596 56.0525 56.8746 55.9175C56.4946 55.7775 56.1596 55.59 55.8696 55.355C55.5846 55.115 55.3771 54.84 55.2471 54.53L56.3271 54.065C56.4021 54.235 56.5371 54.395 56.7321 54.545C56.9271 54.695 57.1521 54.815 57.4071 54.905C57.6621 54.995 57.9196 55.04 58.1796 55.04C58.4546 55.04 58.7121 54.9975 58.9521 54.9125C59.1921 54.8275 59.3871 54.7025 59.5371 54.5375C59.6921 54.3675 59.7696 54.165 59.7696 53.93C59.7696 53.68 59.6846 53.485 59.5146 53.345C59.3496 53.2 59.1396 53.0875 58.8846 53.0075C58.6346 52.9225 58.3796 52.8425 58.1196 52.7675C57.6046 52.6375 57.1446 52.4825 56.7396 52.3025C56.3346 52.1175 56.0146 51.885 55.7796 51.605C55.5496 51.32 55.4346 50.9575 55.4346 50.5175C55.4346 50.0525 55.5621 49.65 55.8171 49.31C56.0771 48.97 56.4171 48.7075 56.8371 48.5225C57.2571 48.3375 57.7071 48.245 58.1871 48.245C58.7921 48.245 59.3446 48.375 59.8446 48.635C60.3446 48.895 60.7171 49.2475 60.9621 49.6925L59.9496 50.285C59.8646 50.105 59.7346 49.9475 59.5596 49.8125C59.3846 49.6725 59.1846 49.5625 58.9596 49.4825C58.7346 49.4025 58.5046 49.36 58.2696 49.355C57.9796 49.345 57.7071 49.3825 57.4521 49.4675C57.2021 49.5525 56.9996 49.6825 56.8446 49.8575C56.6946 50.0275 56.6196 50.24 56.6196 50.495C56.6196 50.745 56.6996 50.935 56.8596 51.065C57.0246 51.195 57.2371 51.3 57.4971 51.38C57.7621 51.455 58.0496 51.5425 58.3596 51.6425C58.8146 51.7875 59.2396 51.955 59.6346 52.145C60.0296 52.335 60.3471 52.5725 60.5871 52.8575C60.8321 53.1425 60.9521 53.495 60.9471 53.915C60.9471 54.375 60.8096 54.7775 60.5346 55.1225C60.2596 55.4625 59.9021 55.7225 59.4621 55.9025C59.0271 56.0825 58.5596 56.1625 58.0596 56.1425ZM64.5195 56.1425C64.1145 56.1275 63.7195 56.0525 63.3345 55.9175C62.9545 55.7775 62.6195 55.59 62.3295 55.355C62.0445 55.115 61.837 54.84 61.707 54.53L62.787 54.065C62.862 54.235 62.997 54.395 63.192 54.545C63.387 54.695 63.612 54.815 63.867 54.905C64.122 54.995 64.3795 55.04 64.6395 55.04C64.9145 55.04 65.172 54.9975 65.412 54.9125C65.652 54.8275 65.847 54.7025 65.997 54.5375C66.152 54.3675 66.2295 54.165 66.2295 53.93C66.2295 53.68 66.1445 53.485 65.9745 53.345C65.8095 53.2 65.5995 53.0875 65.3445 53.0075C65.0945 52.9225 64.8395 52.8425 64.5795 52.7675C64.0645 52.6375 63.6045 52.4825 63.1995 52.3025C62.7945 52.1175 62.4745 51.885 62.2395 51.605C62.0095 51.32 61.8945 50.9575 61.8945 50.5175C61.8945 50.0525 62.022 49.65 62.277 49.31C62.537 48.97 62.877 48.7075 63.297 48.5225C63.717 48.3375 64.167 48.245 64.647 48.245C65.252 48.245 65.8045 48.375 66.3045 48.635C66.8045 48.895 67.177 49.2475 67.422 49.6925L66.4095 50.285C66.3245 50.105 66.1945 49.9475 66.0195 49.8125C65.8445 49.6725 65.6445 49.5625 65.4195 49.4825C65.1945 49.4025 64.9645 49.36 64.7295 49.355C64.4395 49.345 64.167 49.3825 63.912 49.4675C63.662 49.5525 63.4595 49.6825 63.3045 49.8575C63.1545 50.0275 63.0795 50.24 63.0795 50.495C63.0795 50.745 63.1595 50.935 63.3195 51.065C63.4845 51.195 63.697 51.3 63.957 51.38C64.222 51.455 64.5095 51.5425 64.8195 51.6425C65.2745 51.7875 65.6995 51.955 66.0945 52.145C66.4895 52.335 66.807 52.5725 67.047 52.8575C67.292 53.1425 67.412 53.495 67.407 53.915C67.407 54.375 67.2695 54.7775 66.9945 55.1225C66.7195 55.4625 66.362 55.7225 65.922 55.9025C65.487 56.0825 65.0195 56.1625 64.5195 56.1425ZM71.8537 56H70.5787L68.0662 48.5H69.2962L71.2312 54.2225L73.1437 48.5H74.4412L76.3612 54.2225L78.2737 48.5H79.5187L77.0062 56H75.7237L73.7812 50.225L71.8537 56ZM83.74 56.195C83.05 56.195 82.42 56.0175 81.85 55.6625C81.285 55.3075 80.8325 54.8325 80.4925 54.2375C80.1575 53.6375 79.99 52.975 79.99 52.25C79.99 51.7 80.0875 51.1875 80.2825 50.7125C80.4775 50.2325 80.745 49.8125 81.085 49.4525C81.43 49.0875 81.83 48.8025 82.285 48.5975C82.74 48.3925 83.225 48.29 83.74 48.29C84.43 48.29 85.0575 48.4675 85.6225 48.8225C86.1925 49.1775 86.645 49.655 86.98 50.255C87.32 50.855 87.49 51.52 87.49 52.25C87.49 52.795 87.3925 53.305 87.1975 53.78C87.0025 54.255 86.7325 54.675 86.3875 55.04C86.0475 55.4 85.65 55.6825 85.195 55.8875C84.745 56.0925 84.26 56.195 83.74 56.195ZM83.74 54.935C84.21 54.935 84.6325 54.8125 85.0075 54.5675C85.3875 54.3175 85.685 53.99 85.9 53.585C86.12 53.175 86.23 52.73 86.23 52.25C86.23 51.76 86.1175 51.31 85.8925 50.9C85.6725 50.49 85.375 50.1625 85 49.9175C84.625 49.6725 84.205 49.55 83.74 49.55C83.27 49.55 82.8475 49.675 82.4725 49.925C82.0975 50.17 81.8 50.4975 81.58 50.9075C81.36 51.3175 81.25 51.765 81.25 52.25C81.25 52.75 81.3625 53.205 81.5875 53.615C81.8125 54.02 82.115 54.3425 82.495 54.5825C82.875 54.8175 83.29 54.935 83.74 54.935ZM88.7311 56V48.5H89.9911V49.4375C90.2561 49.0875 90.5911 48.81 90.9961 48.605C91.4011 48.395 91.8411 48.29 92.3161 48.29C92.6061 48.29 92.8861 48.3275 93.1561 48.4025L92.6461 49.6625C92.4411 49.5975 92.2411 49.565 92.0461 49.565C91.6711 49.565 91.3261 49.6575 91.0111 49.8425C90.7011 50.0225 90.4536 50.2675 90.2686 50.5775C90.0836 50.8875 89.9911 51.2325 89.9911 51.6125V56H88.7311ZM99.7344 44.75H100.994V56H99.7344V54.725C99.4794 55.165 99.1369 55.52 98.7069 55.79C98.2769 56.06 97.7719 56.195 97.1919 56.195C96.6469 56.195 96.1369 56.0925 95.6619 55.8875C95.1869 55.6825 94.7669 55.4 94.4019 55.04C94.0419 54.675 93.7594 54.255 93.5544 53.78C93.3494 53.305 93.2469 52.795 93.2469 52.25C93.2469 51.705 93.3494 51.195 93.5544 50.72C93.7594 50.24 94.0419 49.82 94.4019 49.46C94.7669 49.095 95.1869 48.81 95.6619 48.605C96.1369 48.4 96.6469 48.2975 97.1919 48.2975C97.7719 48.2975 98.2769 48.4325 98.7069 48.7025C99.1369 48.9725 99.4794 49.3275 99.7344 49.7675V44.75ZM97.2069 54.9725C97.7019 54.9725 98.1294 54.8525 98.4894 54.6125C98.8544 54.3675 99.1344 54.0375 99.3294 53.6225C99.5294 53.2075 99.6294 52.75 99.6294 52.25C99.6294 51.74 99.5294 51.28 99.3294 50.87C99.1294 50.455 98.8469 50.1275 98.4819 49.8875C98.1219 49.6425 97.6969 49.52 97.2069 49.52C96.7119 49.52 96.2619 49.6425 95.8569 49.8875C95.4569 50.1325 95.1369 50.4625 94.8969 50.8775C94.6569 51.2875 94.5369 51.745 94.5369 52.25C94.5369 52.755 94.6594 53.215 94.9044 53.63C95.1494 54.04 95.4744 54.3675 95.8794 54.6125C96.2844 54.8525 96.7269 54.9725 97.2069 54.9725ZM113.027 51.335V56H111.767V51.6125C111.767 51.2325 111.675 50.8875 111.49 50.5775C111.305 50.2675 111.057 50.0225 110.747 49.8425C110.437 49.6575 110.092 49.565 109.712 49.565C109.337 49.565 108.992 49.6575 108.677 49.8425C108.367 50.0225 108.12 50.2675 107.935 50.5775C107.75 50.8875 107.657 51.2325 107.657 51.6125V56H106.397V44.75H107.657V49.4375C107.922 49.0875 108.257 48.81 108.662 48.605C109.067 48.395 109.507 48.29 109.982 48.29C110.542 48.29 111.052 48.4275 111.512 48.7025C111.977 48.9725 112.345 49.3375 112.615 49.7975C112.89 50.2575 113.027 50.77 113.027 51.335ZM120.41 48.5H121.67V56H120.41L120.358 54.7325C120.123 55.1675 119.798 55.52 119.383 55.79C118.973 56.06 118.483 56.195 117.913 56.195C117.363 56.195 116.848 56.0925 116.368 55.8875C115.888 55.6775 115.463 55.39 115.093 55.025C114.728 54.655 114.443 54.23 114.238 53.75C114.033 53.27 113.93 52.7525 113.93 52.1975C113.93 51.6625 114.03 51.1575 114.23 50.6825C114.43 50.2075 114.708 49.7925 115.063 49.4375C115.423 49.0775 115.838 48.7975 116.308 48.5975C116.778 48.3925 117.283 48.29 117.823 48.29C118.413 48.29 118.93 48.43 119.375 48.71C119.82 48.985 120.18 49.3425 120.455 49.7825L120.41 48.5ZM117.89 54.9725C118.385 54.9725 118.813 54.8525 119.173 54.6125C119.538 54.3675 119.818 54.0375 120.013 53.6225C120.213 53.2075 120.313 52.75 120.313 52.25C120.313 51.74 120.213 51.28 120.013 50.87C119.813 50.455 119.53 50.1275 119.165 49.8875C118.805 49.6425 118.38 49.52 117.89 49.52C117.395 49.52 116.945 49.6425 116.54 49.8875C116.135 50.1325 115.813 50.4625 115.573 50.8775C115.338 51.2875 115.22 51.745 115.22 52.25C115.22 52.755 115.343 53.215 115.588 53.63C115.833 54.04 116.158 54.3675 116.563 54.6125C116.968 54.8525 117.41 54.9725 117.89 54.9725ZM125.457 56.1425C125.052 56.1275 124.657 56.0525 124.272 55.9175C123.892 55.7775 123.557 55.59 123.267 55.355C122.982 55.115 122.775 54.84 122.645 54.53L123.725 54.065C123.8 54.235 123.935 54.395 124.13 54.545C124.325 54.695 124.55 54.815 124.805 54.905C125.06 54.995 125.317 55.04 125.577 55.04C125.852 55.04 126.11 54.9975 126.35 54.9125C126.59 54.8275 126.785 54.7025 126.935 54.5375C127.09 54.3675 127.167 54.165 127.167 53.93C127.167 53.68 127.082 53.485 126.912 53.345C126.747 53.2 126.537 53.0875 126.282 53.0075C126.032 52.9225 125.777 52.8425 125.517 52.7675C125.002 52.6375 124.542 52.4825 124.137 52.3025C123.732 52.1175 123.412 51.885 123.177 51.605C122.947 51.32 122.832 50.9575 122.832 50.5175C122.832 50.0525 122.96 49.65 123.215 49.31C123.475 48.97 123.815 48.7075 124.235 48.5225C124.655 48.3375 125.105 48.245 125.585 48.245C126.19 48.245 126.742 48.375 127.242 48.635C127.742 48.895 128.115 49.2475 128.36 49.6925L127.347 50.285C127.262 50.105 127.132 49.9475 126.957 49.8125C126.782 49.6725 126.582 49.5625 126.357 49.4825C126.132 49.4025 125.902 49.36 125.667 49.355C125.377 49.345 125.105 49.3825 124.85 49.4675C124.6 49.5525 124.397 49.6825 124.242 49.8575C124.092 50.0275 124.017 50.24 124.017 50.495C124.017 50.745 124.097 50.935 124.257 51.065C124.422 51.195 124.635 51.3 124.895 51.38C125.16 51.455 125.447 51.5425 125.757 51.6425C126.212 51.7875 126.637 51.955 127.032 52.145C127.427 52.335 127.745 52.5725 127.985 52.8575C128.23 53.1425 128.35 53.495 128.345 53.915C128.345 54.375 128.207 54.7775 127.932 55.1225C127.657 55.4625 127.3 55.7225 126.86 55.9025C126.425 56.0825 125.957 56.1625 125.457 56.1425ZM137.028 48.29C137.758 48.29 138.421 48.4675 139.016 48.8225C139.616 49.1775 140.093 49.655 140.448 50.255C140.803 50.85 140.981 51.5125 140.981 52.2425C140.981 52.7875 140.878 53.3 140.673 53.78C140.468 54.255 140.183 54.675 139.818 55.04C139.458 55.4 139.038 55.6825 138.558 55.8875C138.083 56.0925 137.573 56.195 137.028 56.195C136.448 56.195 135.943 56.06 135.513 55.79C135.088 55.515 134.748 55.1575 134.493 54.7175V56H133.233V44.75H134.493V49.7675C134.748 49.3275 135.088 48.9725 135.513 48.7025C135.943 48.4275 136.448 48.29 137.028 48.29ZM137.013 54.965C137.508 54.965 137.958 54.8425 138.363 54.5975C138.768 54.3525 139.091 54.025 139.331 53.615C139.571 53.2 139.691 52.7425 139.691 52.2425C139.691 51.7325 139.568 51.2725 139.323 50.8625C139.078 50.4475 138.753 50.12 138.348 49.88C137.943 49.635 137.498 49.5125 137.013 49.5125C136.523 49.5125 136.096 49.635 135.731 49.88C135.371 50.125 135.091 50.455 134.891 50.87C134.696 51.285 134.598 51.7425 134.598 52.2425C134.598 52.7475 134.696 53.2075 134.891 53.6225C135.091 54.0325 135.373 54.36 135.738 54.605C136.103 54.845 136.528 54.965 137.013 54.965ZM145.483 56.195C144.793 56.195 144.163 56.0175 143.593 55.6625C143.028 55.3075 142.576 54.8325 142.236 54.2375C141.901 53.6375 141.733 52.975 141.733 52.25C141.733 51.7 141.831 51.1875 142.026 50.7125C142.221 50.2325 142.488 49.8125 142.828 49.4525C143.173 49.0875 143.573 48.8025 144.028 48.5975C144.483 48.3925 144.968 48.29 145.483 48.29C146.048 48.29 146.566 48.405 147.036 48.635C147.511 48.86 147.916 49.175 148.251 49.58C148.591 49.985 148.843 50.455 149.008 50.99C149.178 51.525 149.241 52.0975 149.196 52.7075H143.076C143.136 53.1325 143.276 53.5125 143.496 53.8475C143.716 54.1775 143.996 54.44 144.336 54.635C144.681 54.83 145.063 54.93 145.483 54.935C145.933 54.935 146.341 54.82 146.706 54.59C147.071 54.355 147.366 54.035 147.591 53.63L148.873 53.93C148.573 54.595 148.121 55.14 147.516 55.565C146.911 55.985 146.233 56.195 145.483 56.195ZM143.038 51.7175H147.928C147.888 51.2975 147.753 50.915 147.523 50.57C147.293 50.22 147.001 49.94 146.646 49.73C146.291 49.52 145.903 49.415 145.483 49.415C145.063 49.415 144.678 49.5175 144.328 49.7225C143.978 49.9275 143.688 50.205 143.458 50.555C143.233 50.9 143.093 51.2875 143.038 51.7175ZM153.716 56.195C153.026 56.195 152.396 56.0175 151.826 55.6625C151.261 55.3075 150.808 54.8325 150.468 54.2375C150.133 53.6375 149.966 52.975 149.966 52.25C149.966 51.7 150.063 51.1875 150.258 50.7125C150.453 50.2325 150.721 49.8125 151.061 49.4525C151.406 49.0875 151.806 48.8025 152.261 48.5975C152.716 48.3925 153.201 48.29 153.716 48.29C154.281 48.29 154.798 48.405 155.268 48.635C155.743 48.86 156.148 49.175 156.483 49.58C156.823 49.985 157.076 50.455 157.241 50.99C157.411 51.525 157.473 52.0975 157.428 52.7075H151.308C151.368 53.1325 151.508 53.5125 151.728 53.8475C151.948 54.1775 152.228 54.44 152.568 54.635C152.913 54.83 153.296 54.93 153.716 54.935C154.166 54.935 154.573 54.82 154.938 54.59C155.303 54.355 155.598 54.035 155.823 53.63L157.106 53.93C156.806 54.595 156.353 55.14 155.748 55.565C155.143 55.985 154.466 56.195 153.716 56.195ZM151.271 51.7175H156.161C156.121 51.2975 155.986 50.915 155.756 50.57C155.526 50.22 155.233 49.94 154.878 49.73C154.523 49.52 154.136 49.415 153.716 49.415C153.296 49.415 152.911 49.5175 152.561 49.7225C152.211 49.9275 151.921 50.205 151.691 50.555C151.466 50.9 151.326 51.2875 151.271 51.7175ZM165.322 51.335V56H164.062V51.6125C164.062 51.2325 163.969 50.8875 163.784 50.5775C163.599 50.2675 163.352 50.0225 163.042 49.8425C162.732 49.6575 162.387 49.565 162.007 49.565C161.632 49.565 161.287 49.6575 160.972 49.8425C160.662 50.0225 160.414 50.2675 160.229 50.5775C160.044 50.8875 159.952 51.2325 159.952 51.6125V56H158.692V48.5H159.952V49.4375C160.217 49.0875 160.552 48.81 160.957 48.605C161.362 48.395 161.802 48.29 162.277 48.29C162.837 48.29 163.347 48.4275 163.807 48.7025C164.272 48.9725 164.639 49.3375 164.909 49.7975C165.184 50.2575 165.322 50.77 165.322 51.335ZM175.593 54.02L176.718 54.6275C176.378 55.1025 175.945 55.4825 175.42 55.7675C174.9 56.0525 174.335 56.195 173.725 56.195C173.035 56.195 172.405 56.0175 171.835 55.6625C171.27 55.3075 170.818 54.8325 170.478 54.2375C170.143 53.6375 169.975 52.975 169.975 52.25C169.975 51.7 170.073 51.1875 170.268 50.7125C170.463 50.2325 170.73 49.8125 171.07 49.4525C171.415 49.0875 171.815 48.8025 172.27 48.5975C172.725 48.3925 173.21 48.29 173.725 48.29C174.335 48.29 174.9 48.4325 175.42 48.7175C175.945 49.0025 176.378 49.385 176.718 49.865L175.593 50.4725C175.353 50.1775 175.068 49.95 174.738 49.79C174.408 49.63 174.07 49.55 173.725 49.55C173.26 49.55 172.838 49.675 172.458 49.925C172.083 50.17 171.785 50.4975 171.565 50.9075C171.345 51.3175 171.235 51.765 171.235 52.25C171.235 52.735 171.345 53.1825 171.565 53.5925C171.79 53.9975 172.09 54.3225 172.465 54.5675C172.845 54.8125 173.265 54.935 173.725 54.935C174.095 54.935 174.443 54.85 174.768 54.68C175.093 54.51 175.368 54.29 175.593 54.02ZM184.57 51.335V56H183.31V51.6125C183.31 51.2325 183.218 50.8875 183.033 50.5775C182.848 50.2675 182.6 50.0225 182.29 49.8425C181.98 49.6575 181.635 49.565 181.255 49.565C180.88 49.565 180.535 49.6575 180.22 49.8425C179.91 50.0225 179.663 50.2675 179.478 50.5775C179.293 50.8875 179.2 51.2325 179.2 51.6125V56H177.94V44.75H179.2V49.4375C179.465 49.0875 179.8 48.81 180.205 48.605C180.61 48.395 181.05 48.29 181.525 48.29C182.085 48.29 182.595 48.4275 183.055 48.7025C183.52 48.9725 183.888 49.3375 184.158 49.7975C184.433 50.2575 184.57 50.77 184.57 51.335ZM191.953 48.5H193.213V56H191.953L191.901 54.7325C191.666 55.1675 191.341 55.52 190.926 55.79C190.516 56.06 190.026 56.195 189.456 56.195C188.906 56.195 188.391 56.0925 187.911 55.8875C187.431 55.6775 187.006 55.39 186.636 55.025C186.271 54.655 185.986 54.23 185.781 53.75C185.576 53.27 185.473 52.7525 185.473 52.1975C185.473 51.6625 185.573 51.1575 185.773 50.6825C185.973 50.2075 186.251 49.7925 186.606 49.4375C186.966 49.0775 187.381 48.7975 187.851 48.5975C188.321 48.3925 188.826 48.29 189.366 48.29C189.956 48.29 190.473 48.43 190.918 48.71C191.363 48.985 191.723 49.3425 191.998 49.7825L191.953 48.5ZM189.433 54.9725C189.928 54.9725 190.356 54.8525 190.716 54.6125C191.081 54.3675 191.361 54.0375 191.556 53.6225C191.756 53.2075 191.856 52.75 191.856 52.25C191.856 51.74 191.756 51.28 191.556 50.87C191.356 50.455 191.073 50.1275 190.708 49.8875C190.348 49.6425 189.923 49.52 189.433 49.52C188.938 49.52 188.488 49.6425 188.083 49.8875C187.678 50.1325 187.356 50.4625 187.116 50.8775C186.881 51.2875 186.763 51.745 186.763 52.25C186.763 52.755 186.886 53.215 187.131 53.63C187.376 54.04 187.701 54.3675 188.106 54.6125C188.511 54.8525 188.953 54.9725 189.433 54.9725ZM201.343 51.335V56H200.083V51.6125C200.083 51.2325 199.99 50.8875 199.805 50.5775C199.62 50.2675 199.373 50.0225 199.063 49.8425C198.753 49.6575 198.408 49.565 198.028 49.565C197.653 49.565 197.308 49.6575 196.993 49.8425C196.683 50.0225 196.435 50.2675 196.25 50.5775C196.065 50.8875 195.973 51.2325 195.973 51.6125V56H194.713V48.5H195.973V49.4375C196.238 49.0875 196.573 48.81 196.978 48.605C197.383 48.395 197.823 48.29 198.298 48.29C198.858 48.29 199.368 48.4275 199.828 48.7025C200.293 48.9725 200.66 49.3375 200.93 49.7975C201.205 50.2575 201.343 50.77 201.343 51.335ZM208.553 48.5H209.813V56.24C209.813 56.735 209.706 57.195 209.491 57.62C209.281 58.05 208.996 58.4225 208.636 58.7375C208.276 59.0575 207.866 59.305 207.406 59.48C206.946 59.66 206.466 59.75 205.966 59.75C205.446 59.75 204.943 59.6325 204.458 59.3975C203.973 59.1675 203.548 58.8575 203.183 58.4675C202.823 58.0825 202.563 57.65 202.403 57.17L203.558 56.645C203.653 56.99 203.823 57.3 204.068 57.575C204.318 57.855 204.608 58.075 204.938 58.235C205.273 58.4 205.616 58.4825 205.966 58.4825C206.296 58.4825 206.613 58.425 206.918 58.31C207.228 58.195 207.506 58.035 207.751 57.83C208.001 57.63 208.196 57.3925 208.336 57.1175C208.481 56.8475 208.553 56.555 208.553 56.24V54.7475C208.298 55.1775 207.961 55.5275 207.541 55.7975C207.126 56.0625 206.641 56.195 206.086 56.195C205.556 56.195 205.058 56.0925 204.593 55.8875C204.128 55.6825 203.721 55.4 203.371 55.04C203.021 54.675 202.746 54.255 202.546 53.78C202.346 53.305 202.246 52.795 202.246 52.25C202.246 51.705 202.346 51.195 202.546 50.72C202.746 50.24 203.021 49.82 203.371 49.46C203.721 49.095 204.128 48.81 204.593 48.605C205.058 48.4 205.556 48.2975 206.086 48.2975C206.641 48.2975 207.126 48.43 207.541 48.695C207.961 48.96 208.298 49.31 208.553 49.745V48.5ZM206.093 54.9725C206.578 54.9725 206.998 54.8475 207.353 54.5975C207.713 54.3475 207.991 54.015 208.186 53.6C208.381 53.185 208.478 52.735 208.478 52.25C208.478 51.75 208.378 51.295 208.178 50.885C207.983 50.47 207.706 50.14 207.346 49.895C206.991 49.645 206.573 49.52 206.093 49.52C205.623 49.52 205.193 49.6425 204.803 49.8875C204.413 50.1325 204.103 50.4625 203.873 50.8775C203.648 51.2875 203.536 51.745 203.536 52.25C203.536 52.755 203.651 53.215 203.881 53.63C204.116 54.04 204.426 54.3675 204.811 54.6125C205.201 54.8525 205.628 54.9725 206.093 54.9725ZM214.814 56.195C214.124 56.195 213.494 56.0175 212.924 55.6625C212.359 55.3075 211.907 54.8325 211.567 54.2375C211.232 53.6375 211.064 52.975 211.064 52.25C211.064 51.7 211.162 51.1875 211.357 50.7125C211.552 50.2325 211.819 49.8125 212.159 49.4525C212.504 49.0875 212.904 48.8025 213.359 48.5975C213.814 48.3925 214.299 48.29 214.814 48.29C215.379 48.29 215.897 48.405 216.367 48.635C216.842 48.86 217.247 49.175 217.582 49.58C217.922 49.985 218.174 50.455 218.339 50.99C218.509 51.525 218.572 52.0975 218.527 52.7075H212.407C212.467 53.1325 212.607 53.5125 212.827 53.8475C213.047 54.1775 213.327 54.44 213.667 54.635C214.012 54.83 214.394 54.93 214.814 54.935C215.264 54.935 215.672 54.82 216.037 54.59C216.402 54.355 216.697 54.035 216.922 53.63L218.204 53.93C217.904 54.595 217.452 55.14 216.847 55.565C216.242 55.985 215.564 56.195 214.814 56.195ZM212.369 51.7175H217.259C217.219 51.2975 217.084 50.915 216.854 50.57C216.624 50.22 216.332 49.94 215.977 49.73C215.622 49.52 215.234 49.415 214.814 49.415C214.394 49.415 214.009 49.5175 213.659 49.7225C213.309 49.9275 213.019 50.205 212.789 50.555C212.564 50.9 212.424 51.2875 212.369 51.7175ZM225.784 44.75H227.044V56H225.784V54.725C225.529 55.165 225.187 55.52 224.757 55.79C224.327 56.06 223.822 56.195 223.242 56.195C222.697 56.195 222.187 56.0925 221.712 55.8875C221.237 55.6825 220.817 55.4 220.452 55.04C220.092 54.675 219.809 54.255 219.604 53.78C219.399 53.305 219.297 52.795 219.297 52.25C219.297 51.705 219.399 51.195 219.604 50.72C219.809 50.24 220.092 49.82 220.452 49.46C220.817 49.095 221.237 48.81 221.712 48.605C222.187 48.4 222.697 48.2975 223.242 48.2975C223.822 48.2975 224.327 48.4325 224.757 48.7025C225.187 48.9725 225.529 49.3275 225.784 49.7675V44.75ZM223.257 54.9725C223.752 54.9725 224.179 54.8525 224.539 54.6125C224.904 54.3675 225.184 54.0375 225.379 53.6225C225.579 53.2075 225.679 52.75 225.679 52.25C225.679 51.74 225.579 51.28 225.379 50.87C225.179 50.455 224.897 50.1275 224.532 49.8875C224.172 49.6425 223.747 49.52 223.257 49.52C222.762 49.52 222.312 49.6425 221.907 49.8875C221.507 50.1325 221.187 50.4625 220.947 50.8775C220.707 51.2875 220.587 51.745 220.587 52.25C220.587 52.755 220.709 53.215 220.954 53.63C221.199 54.04 221.524 54.3675 221.929 54.6125C222.334 54.8525 222.777 54.9725 223.257 54.9725ZM79.2705 79.1425C78.8655 79.1275 78.4705 79.0525 78.0855 78.9175C77.7055 78.7775 77.3705 78.59 77.0805 78.355C76.7955 78.115 76.588 77.84 76.458 77.53L77.538 77.065C77.613 77.235 77.748 77.395 77.943 77.545C78.138 77.695 78.363 77.815 78.618 77.905C78.873 77.995 79.1305 78.04 79.3905 78.04C79.6655 78.04 79.923 77.9975 80.163 77.9125C80.403 77.8275 80.598 77.7025 80.748 77.5375C80.903 77.3675 80.9805 77.165 80.9805 76.93C80.9805 76.68 80.8955 76.485 80.7255 76.345C80.5605 76.2 80.3505 76.0875 80.0955 76.0075C79.8455 75.9225 79.5905 75.8425 79.3305 75.7675C78.8155 75.6375 78.3555 75.4825 77.9505 75.3025C77.5455 75.1175 77.2255 74.885 76.9905 74.605C76.7605 74.32 76.6455 73.9575 76.6455 73.5175C76.6455 73.0525 76.773 72.65 77.028 72.31C77.288 71.97 77.628 71.7075 78.048 71.5225C78.468 71.3375 78.918 71.245 79.398 71.245C80.003 71.245 80.5555 71.375 81.0555 71.635C81.5555 71.895 81.928 72.2475 82.173 72.6925L81.1605 73.285C81.0755 73.105 80.9455 72.9475 80.7705 72.8125C80.5955 72.6725 80.3955 72.5625 80.1705 72.4825C79.9455 72.4025 79.7155 72.36 79.4805 72.355C79.1905 72.345 78.918 72.3825 78.663 72.4675C78.413 72.5525 78.2105 72.6825 78.0555 72.8575C77.9055 73.0275 77.8305 73.24 77.8305 73.495C77.8305 73.745 77.9105 73.935 78.0705 74.065C78.2355 74.195 78.448 74.3 78.708 74.38C78.973 74.455 79.2605 74.5425 79.5705 74.6425C80.0255 74.7875 80.4505 74.955 80.8455 75.145C81.2405 75.335 81.558 75.5725 81.798 75.8575C82.043 76.1425 82.163 76.495 82.158 76.915C82.158 77.375 82.0205 77.7775 81.7455 78.1225C81.4705 78.4625 81.113 78.7225 80.673 78.9025C80.238 79.0825 79.7705 79.1625 79.2705 79.1425ZM83.143 76.15V71.5H84.403V75.8725C84.403 76.2525 84.4955 76.5975 84.6805 76.9075C84.8655 77.2175 85.113 77.465 85.423 77.65C85.738 77.83 86.083 77.92 86.458 77.92C86.838 77.92 87.1805 77.83 87.4855 77.65C87.7955 77.465 88.043 77.2175 88.228 76.9075C88.413 76.5975 88.5055 76.2525 88.5055 75.8725V71.5H89.7655L89.773 79H88.513L88.5055 78.0475C88.2405 78.3975 87.9055 78.6775 87.5005 78.8875C87.0955 79.0925 86.658 79.195 86.188 79.195C85.628 79.195 85.1155 79.06 84.6505 78.79C84.1905 78.515 83.823 78.1475 83.548 77.6875C83.278 77.2275 83.143 76.715 83.143 76.15ZM96.3741 77.02L97.4991 77.6275C97.1591 78.1025 96.7266 78.4825 96.2016 78.7675C95.6816 79.0525 95.1166 79.195 94.5066 79.195C93.8166 79.195 93.1866 79.0175 92.6166 78.6625C92.0516 78.3075 91.5991 77.8325 91.2591 77.2375C90.9241 76.6375 90.7566 75.975 90.7566 75.25C90.7566 74.7 90.8541 74.1875 91.0491 73.7125C91.2441 73.2325 91.5116 72.8125 91.8516 72.4525C92.1966 72.0875 92.5966 71.8025 93.0516 71.5975C93.5066 71.3925 93.9916 71.29 94.5066 71.29C95.1166 71.29 95.6816 71.4325 96.2016 71.7175C96.7266 72.0025 97.1591 72.385 97.4991 72.865L96.3741 73.4725C96.1341 73.1775 95.8491 72.95 95.5191 72.79C95.1891 72.63 94.8516 72.55 94.5066 72.55C94.0416 72.55 93.6191 72.675 93.2391 72.925C92.8641 73.17 92.5666 73.4975 92.3466 73.9075C92.1266 74.3175 92.0166 74.765 92.0166 75.25C92.0166 75.735 92.1266 76.1825 92.3466 76.5925C92.5716 76.9975 92.8716 77.3225 93.2466 77.5675C93.6266 77.8125 94.0466 77.935 94.5066 77.935C94.8766 77.935 95.2241 77.85 95.5491 77.68C95.8741 77.51 96.1491 77.29 96.3741 77.02ZM103.889 77.02L105.014 77.6275C104.674 78.1025 104.241 78.4825 103.716 78.7675C103.196 79.0525 102.631 79.195 102.021 79.195C101.331 79.195 100.701 79.0175 100.131 78.6625C99.5663 78.3075 99.1138 77.8325 98.7738 77.2375C98.4388 76.6375 98.2713 75.975 98.2713 75.25C98.2713 74.7 98.3688 74.1875 98.5638 73.7125C98.7588 73.2325 99.0263 72.8125 99.3663 72.4525C99.7113 72.0875 100.111 71.8025 100.566 71.5975C101.021 71.3925 101.506 71.29 102.021 71.29C102.631 71.29 103.196 71.4325 103.716 71.7175C104.241 72.0025 104.674 72.385 105.014 72.865L103.889 73.4725C103.649 73.1775 103.364 72.95 103.034 72.79C102.704 72.63 102.366 72.55 102.021 72.55C101.556 72.55 101.134 72.675 100.754 72.925C100.379 73.17 100.081 73.4975 99.8613 73.9075C99.6413 74.3175 99.5313 74.765 99.5313 75.25C99.5313 75.735 99.6413 76.1825 99.8613 76.5925C100.086 76.9975 100.386 77.3225 100.761 77.5675C101.141 77.8125 101.561 77.935 102.021 77.935C102.391 77.935 102.739 77.85 103.064 77.68C103.389 77.51 103.664 77.29 103.889 77.02ZM109.536 79.195C108.846 79.195 108.216 79.0175 107.646 78.6625C107.081 78.3075 106.628 77.8325 106.288 77.2375C105.953 76.6375 105.786 75.975 105.786 75.25C105.786 74.7 105.883 74.1875 106.078 73.7125C106.273 73.2325 106.541 72.8125 106.881 72.4525C107.226 72.0875 107.626 71.8025 108.081 71.5975C108.536 71.3925 109.021 71.29 109.536 71.29C110.101 71.29 110.618 71.405 111.088 71.635C111.563 71.86 111.968 72.175 112.303 72.58C112.643 72.985 112.896 73.455 113.061 73.99C113.231 74.525 113.293 75.0975 113.248 75.7075H107.128C107.188 76.1325 107.328 76.5125 107.548 76.8475C107.768 77.1775 108.048 77.44 108.388 77.635C108.733 77.83 109.116 77.93 109.536 77.935C109.986 77.935 110.393 77.82 110.758 77.59C111.123 77.355 111.418 77.035 111.643 76.63L112.926 76.93C112.626 77.595 112.173 78.14 111.568 78.565C110.963 78.985 110.286 79.195 109.536 79.195ZM107.091 74.7175H111.981C111.941 74.2975 111.806 73.915 111.576 73.57C111.346 73.22 111.053 72.94 110.698 72.73C110.343 72.52 109.956 72.415 109.536 72.415C109.116 72.415 108.731 72.5175 108.381 72.7225C108.031 72.9275 107.741 73.205 107.511 73.555C107.286 73.9 107.146 74.2875 107.091 74.7175ZM116.829 79.1425C116.424 79.1275 116.029 79.0525 115.644 78.9175C115.264 78.7775 114.929 78.59 114.639 78.355C114.354 78.115 114.147 77.84 114.017 77.53L115.097 77.065C115.172 77.235 115.307 77.395 115.502 77.545C115.697 77.695 115.922 77.815 116.177 77.905C116.432 77.995 116.689 78.04 116.949 78.04C117.224 78.04 117.482 77.9975 117.722 77.9125C117.962 77.8275 118.157 77.7025 118.307 77.5375C118.462 77.3675 118.539 77.165 118.539 76.93C118.539 76.68 118.454 76.485 118.284 76.345C118.119 76.2 117.909 76.0875 117.654 76.0075C117.404 75.9225 117.149 75.8425 116.889 75.7675C116.374 75.6375 115.914 75.4825 115.509 75.3025C115.104 75.1175 114.784 74.885 114.549 74.605C114.319 74.32 114.204 73.9575 114.204 73.5175C114.204 73.0525 114.332 72.65 114.587 72.31C114.847 71.97 115.187 71.7075 115.607 71.5225C116.027 71.3375 116.477 71.245 116.957 71.245C117.562 71.245 118.114 71.375 118.614 71.635C119.114 71.895 119.487 72.2475 119.732 72.6925L118.719 73.285C118.634 73.105 118.504 72.9475 118.329 72.8125C118.154 72.6725 117.954 72.5625 117.729 72.4825C117.504 72.4025 117.274 72.36 117.039 72.355C116.749 72.345 116.477 72.3825 116.222 72.4675C115.972 72.5525 115.769 72.6825 115.614 72.8575C115.464 73.0275 115.389 73.24 115.389 73.495C115.389 73.745 115.469 73.935 115.629 74.065C115.794 74.195 116.007 74.3 116.267 74.38C116.532 74.455 116.819 74.5425 117.129 74.6425C117.584 74.7875 118.009 74.955 118.404 75.145C118.799 75.335 119.117 75.5725 119.357 75.8575C119.602 76.1425 119.722 76.495 119.717 76.915C119.717 77.375 119.579 77.7775 119.304 78.1225C119.029 78.4625 118.672 78.7225 118.232 78.9025C117.797 79.0825 117.329 79.1625 116.829 79.1425ZM123.289 79.1425C122.884 79.1275 122.489 79.0525 122.104 78.9175C121.724 78.7775 121.389 78.59 121.099 78.355C120.814 78.115 120.607 77.84 120.477 77.53L121.557 77.065C121.632 77.235 121.767 77.395 121.962 77.545C122.157 77.695 122.382 77.815 122.637 77.905C122.892 77.995 123.149 78.04 123.409 78.04C123.684 78.04 123.942 77.9975 124.182 77.9125C124.422 77.8275 124.617 77.7025 124.767 77.5375C124.922 77.3675 124.999 77.165 124.999 76.93C124.999 76.68 124.914 76.485 124.744 76.345C124.579 76.2 124.369 76.0875 124.114 76.0075C123.864 75.9225 123.609 75.8425 123.349 75.7675C122.834 75.6375 122.374 75.4825 121.969 75.3025C121.564 75.1175 121.244 74.885 121.009 74.605C120.779 74.32 120.664 73.9575 120.664 73.5175C120.664 73.0525 120.792 72.65 121.047 72.31C121.307 71.97 121.647 71.7075 122.067 71.5225C122.487 71.3375 122.937 71.245 123.417 71.245C124.022 71.245 124.574 71.375 125.074 71.635C125.574 71.895 125.947 72.2475 126.192 72.6925L125.179 73.285C125.094 73.105 124.964 72.9475 124.789 72.8125C124.614 72.6725 124.414 72.5625 124.189 72.4825C123.964 72.4025 123.734 72.36 123.499 72.355C123.209 72.345 122.937 72.3825 122.682 72.4675C122.432 72.5525 122.229 72.6825 122.074 72.8575C121.924 73.0275 121.849 73.24 121.849 73.495C121.849 73.745 121.929 73.935 122.089 74.065C122.254 74.195 122.467 74.3 122.727 74.38C122.992 74.455 123.279 74.5425 123.589 74.6425C124.044 74.7875 124.469 74.955 124.864 75.145C125.259 75.335 125.577 75.5725 125.817 75.8575C126.062 76.1425 126.182 76.495 126.177 76.915C126.177 77.375 126.039 77.7775 125.764 78.1225C125.489 78.4625 125.132 78.7225 124.692 78.9025C124.257 79.0825 123.789 79.1625 123.289 79.1425ZM129.164 69.6475V71.5H131.362V72.76H129.164V79H127.904V72.76H126.937V71.5H127.904V69.6475C127.904 69.2625 127.997 68.915 128.182 68.605C128.372 68.29 128.624 68.04 128.939 67.855C129.259 67.665 129.609 67.57 129.989 67.57C130.269 67.57 130.542 67.6275 130.807 67.7425C131.072 67.8525 131.307 68.0175 131.512 68.2375L130.612 69.13C130.542 69.035 130.449 68.9625 130.334 68.9125C130.224 68.8575 130.109 68.83 129.989 68.83C129.764 68.83 129.569 68.91 129.404 69.07C129.244 69.23 129.164 69.4225 129.164 69.6475ZM132.464 76.15V71.5H133.724V75.8725C133.724 76.2525 133.817 76.5975 134.002 76.9075C134.187 77.2175 134.434 77.465 134.744 77.65C135.059 77.83 135.404 77.92 135.779 77.92C136.159 77.92 136.502 77.83 136.807 77.65C137.117 77.465 137.364 77.2175 137.549 76.9075C137.734 76.5975 137.827 76.2525 137.827 75.8725V71.5H139.087L139.094 79H137.834L137.827 78.0475C137.562 78.3975 137.227 78.6775 136.822 78.8875C136.417 79.0925 135.979 79.195 135.509 79.195C134.949 79.195 134.437 79.06 133.972 78.79C133.512 78.515 133.144 78.1475 132.869 77.6875C132.599 77.2275 132.464 76.715 132.464 76.15ZM140.689 79V67.75H141.949V79H140.689ZM143.751 79V67.75H145.011V79H143.751ZM151.657 71.5H152.992L148.889 82.75H147.554L148.912 79L146.219 71.5H147.599L149.542 77.2675L151.657 71.5ZM154.314 79.195C154.124 79.195 153.961 79.1275 153.826 78.9925C153.696 78.8575 153.631 78.6925 153.631 78.4975C153.631 78.3125 153.696 78.1525 153.826 78.0175C153.961 77.8825 154.124 77.815 154.314 77.815C154.509 77.815 154.674 77.8825 154.809 78.0175C154.944 78.1525 155.011 78.3125 155.011 78.4975C155.011 78.6925 154.944 78.8575 154.809 78.9925C154.674 79.1275 154.509 79.195 154.314 79.195Z" fill="#8391A1"/>
<path d="M1.6518 25V6.8H8.1518C9.1398 6.8 10.0325 7.047 10.8298 7.541C11.6358 8.035 12.2728 8.698 12.7408 9.53C13.2088 10.362 13.4428 11.2763 13.4428 12.273C13.4428 13.2957 13.2001 14.223 12.7148 15.055C12.2381 15.8783 11.5968 16.537 10.7908 17.031C9.9848 17.5163 9.10513 17.759 8.1518 17.759H4.8238V25H1.6518ZM4.8238 14.587H7.8138C8.26446 14.587 8.67613 14.4743 9.0488 14.249C9.42146 14.0237 9.71613 13.7203 9.9328 13.339C10.1581 12.9577 10.2708 12.533 10.2708 12.065C10.2708 11.5883 10.1581 11.1593 9.9328 10.778C9.71613 10.3967 9.42146 10.0933 9.0488 9.868C8.67613 9.64267 8.26446 9.53 7.8138 9.53H4.8238V14.587ZM24.7331 12H27.9051V25H24.7331L24.5901 23.388C24.2348 23.9687 23.7624 24.441 23.1731 24.805C22.5924 25.1603 21.9034 25.338 21.1061 25.338C20.1441 25.338 19.2428 25.156 18.4021 24.792C17.5614 24.428 16.8204 23.9253 16.1791 23.284C15.5464 22.6427 15.0481 21.9017 14.6841 21.061C14.3288 20.2203 14.1511 19.319 14.1511 18.357C14.1511 17.4297 14.3201 16.5587 14.6581 15.744C15.0048 14.9293 15.4858 14.2143 16.1011 13.599C16.7164 12.9837 17.4271 12.5027 18.2331 12.156C19.0391 11.8093 19.9058 11.636 20.8331 11.636C21.6911 11.636 22.4581 11.8267 23.1341 12.208C23.8188 12.5893 24.3994 13.0747 24.8761 13.664L24.7331 12ZM21.0281 22.283C21.7041 22.283 22.3021 22.114 22.8221 21.776C23.3421 21.438 23.7494 20.983 24.0441 20.411C24.3388 19.8303 24.4861 19.1933 24.4861 18.5C24.4861 17.798 24.3388 17.161 24.0441 16.589C23.7494 16.0083 23.3378 15.549 22.8091 15.211C22.2891 14.873 21.6954 14.704 21.0281 14.704C20.3608 14.704 19.7498 14.8773 19.1951 15.224C18.6491 15.562 18.2114 16.017 17.8821 16.589C17.5614 17.161 17.4011 17.798 17.4011 18.5C17.4011 19.202 17.5658 19.839 17.8951 20.411C18.2244 20.983 18.6621 21.438 19.2081 21.776C19.7628 22.114 20.3694 22.283 21.0281 22.283ZM34.3305 25.234C33.6545 25.1907 33.0002 25.0563 32.3675 24.831C31.7435 24.597 31.1889 24.2807 30.7035 23.882C30.2182 23.4833 29.8455 23.0067 29.5855 22.452L32.2635 21.308C32.3675 21.4813 32.5365 21.6677 32.7705 21.867C33.0045 22.0577 33.2819 22.218 33.6025 22.348C33.9319 22.478 34.2915 22.543 34.6815 22.543C35.0109 22.543 35.3229 22.4997 35.6175 22.413C35.9209 22.3177 36.1635 22.1747 36.3455 21.984C36.5362 21.7933 36.6315 21.5463 36.6315 21.243C36.6315 20.9223 36.5189 20.6753 36.2935 20.502C36.0769 20.32 35.7995 20.1857 35.4615 20.099C35.1322 20.0037 34.8115 19.917 34.4995 19.839C33.6762 19.6743 32.9092 19.4187 32.1985 19.072C31.4965 18.7253 30.9289 18.279 30.4955 17.733C30.0709 17.1783 29.8585 16.511 29.8585 15.731C29.8585 14.873 30.0839 14.132 30.5345 13.508C30.9939 12.884 31.5875 12.403 32.3155 12.065C33.0522 11.727 33.8452 11.558 34.6945 11.558C35.7259 11.558 36.6705 11.7747 37.5285 12.208C38.3952 12.6327 39.0799 13.235 39.5825 14.015L37.0735 15.497C36.9522 15.289 36.7832 15.0983 36.5665 14.925C36.3499 14.743 36.1029 14.5957 35.8255 14.483C35.5482 14.3617 35.2579 14.2923 34.9545 14.275C34.5645 14.2577 34.2092 14.2923 33.8885 14.379C33.5679 14.4657 33.3079 14.613 33.1085 14.821C32.9179 15.029 32.8225 15.3063 32.8225 15.653C32.8225 15.9823 32.9525 16.2293 33.2125 16.394C33.4725 16.55 33.7845 16.6713 34.1485 16.758C34.5212 16.8447 34.8765 16.94 35.2145 17.044C35.9772 17.2953 36.6922 17.603 37.3595 17.967C38.0355 18.331 38.5772 18.7773 38.9845 19.306C39.3919 19.8347 39.5869 20.4673 39.5695 21.204C39.5695 22.0447 39.3182 22.7813 38.8155 23.414C38.3129 24.038 37.6629 24.5147 36.8655 24.844C36.0769 25.1733 35.2319 25.3033 34.3305 25.234ZM45.6294 25.234C44.9534 25.1907 44.299 25.0563 43.6664 24.831C43.0424 24.597 42.4877 24.2807 42.0024 23.882C41.517 23.4833 41.1444 23.0067 40.8844 22.452L43.5624 21.308C43.6664 21.4813 43.8354 21.6677 44.0694 21.867C44.3034 22.0577 44.5807 22.218 44.9014 22.348C45.2307 22.478 45.5904 22.543 45.9804 22.543C46.3097 22.543 46.6217 22.4997 46.9164 22.413C47.2197 22.3177 47.4624 22.1747 47.6444 21.984C47.835 21.7933 47.9304 21.5463 47.9304 21.243C47.9304 20.9223 47.8177 20.6753 47.5924 20.502C47.3757 20.32 47.0984 20.1857 46.7604 20.099C46.431 20.0037 46.1104 19.917 45.7984 19.839C44.975 19.6743 44.208 19.4187 43.4974 19.072C42.7954 18.7253 42.2277 18.279 41.7944 17.733C41.3697 17.1783 41.1574 16.511 41.1574 15.731C41.1574 14.873 41.3827 14.132 41.8334 13.508C42.2927 12.884 42.8864 12.403 43.6144 12.065C44.351 11.727 45.144 11.558 45.9934 11.558C47.0247 11.558 47.9694 11.7747 48.8274 12.208C49.694 12.6327 50.3787 13.235 50.8814 14.015L48.3724 15.497C48.251 15.289 48.082 15.0983 47.8654 14.925C47.6487 14.743 47.4017 14.5957 47.1244 14.483C46.847 14.3617 46.5567 14.2923 46.2534 14.275C45.8634 14.2577 45.508 14.2923 45.1874 14.379C44.8667 14.4657 44.6067 14.613 44.4074 14.821C44.2167 15.029 44.1214 15.3063 44.1214 15.653C44.1214 15.9823 44.2514 16.2293 44.5114 16.394C44.7714 16.55 45.0834 16.6713 45.4474 16.758C45.82 16.8447 46.1754 16.94 46.5134 17.044C47.276 17.2953 47.991 17.603 48.6584 17.967C49.3344 18.331 49.876 18.7773 50.2834 19.306C50.6907 19.8347 50.8857 20.4673 50.8684 21.204C50.8684 22.0447 50.617 22.7813 50.1144 23.414C49.6117 24.038 48.9617 24.5147 48.1644 24.844C47.3757 25.1733 46.5307 25.3033 45.6294 25.234ZM59.2934 25H56.1474L51.8054 12H54.9124L57.7334 20.411L60.5414 12H63.6744L66.4824 20.411L69.3034 12H72.4104L68.0684 25H64.9224L62.1014 16.55L59.2934 25ZM79.5573 25.338C78.3613 25.338 77.2693 25.0303 76.2813 24.415C75.302 23.7997 74.5177 22.9763 73.9283 21.945C73.3477 20.905 73.0573 19.7567 73.0573 18.5C73.0573 17.5467 73.2263 16.6583 73.5643 15.835C73.9023 15.003 74.366 14.275 74.9553 13.651C75.5533 13.0183 76.2467 12.5243 77.0353 12.169C77.824 11.8137 78.6647 11.636 79.5573 11.636C80.7533 11.636 81.841 11.9437 82.8203 12.559C83.8083 13.1743 84.5927 14.002 85.1733 15.042C85.7627 16.082 86.0573 17.2347 86.0573 18.5C86.0573 19.4447 85.8883 20.3287 85.5503 21.152C85.2123 21.9753 84.7443 22.7033 84.1463 23.336C83.557 23.96 82.868 24.4497 82.0793 24.805C81.2993 25.1603 80.4587 25.338 79.5573 25.338ZM79.5573 22.166C80.19 22.166 80.7577 21.997 81.2603 21.659C81.763 21.321 82.1573 20.8747 82.4433 20.32C82.738 19.7653 82.8853 19.1587 82.8853 18.5C82.8853 17.824 82.7337 17.2087 82.4303 16.654C82.1357 16.0907 81.7327 15.6443 81.2213 15.315C80.7187 14.977 80.164 14.808 79.5573 14.808C78.9333 14.808 78.37 14.977 77.8673 15.315C77.3647 15.653 76.966 16.1037 76.6713 16.667C76.3767 17.2303 76.2293 17.8413 76.2293 18.5C76.2293 19.1847 76.381 19.8043 76.6843 20.359C76.9877 20.9137 77.3907 21.3557 77.8933 21.685C78.4047 22.0057 78.9593 22.166 79.5573 22.166ZM88.0945 25L88.0815 12H91.2535L91.2665 13.157C91.7085 12.689 92.2372 12.3207 92.8525 12.052C93.4678 11.7747 94.1308 11.636 94.8415 11.636C95.3182 11.636 95.7948 11.7053 96.2715 11.844L95.0235 15.042C94.6942 14.912 94.3648 14.847 94.0355 14.847C93.5242 14.847 93.0562 14.9727 92.6315 15.224C92.2155 15.4667 91.8818 15.8003 91.6305 16.225C91.3878 16.641 91.2665 17.1047 91.2665 17.616V25H88.0945ZM106.949 5.5H110.121V25H106.949V23.375C106.533 23.9557 106.008 24.428 105.376 24.792C104.743 25.156 104.011 25.338 103.179 25.338C102.234 25.338 101.35 25.1603 100.527 24.805C99.7032 24.4497 98.9752 23.96 98.3425 23.336C97.7185 22.7033 97.2289 21.9753 96.8735 21.152C96.5182 20.3287 96.3405 19.4447 96.3405 18.5C96.3405 17.5553 96.5182 16.6713 96.8735 15.848C97.2289 15.0247 97.7185 14.301 98.3425 13.677C98.9752 13.0443 99.7032 12.5503 100.527 12.195C101.35 11.8397 102.234 11.662 103.179 11.662C104.011 11.662 104.743 11.844 105.376 12.208C106.008 12.5633 106.533 13.0357 106.949 13.625V5.5ZM103.218 22.283C103.894 22.283 104.492 22.114 105.012 21.776C105.532 21.438 105.939 20.983 106.234 20.411C106.528 19.8303 106.676 19.1933 106.676 18.5C106.676 17.798 106.528 17.161 106.234 16.589C105.939 16.0083 105.527 15.549 104.999 15.211C104.479 14.873 103.885 14.704 103.218 14.704C102.55 14.704 101.939 14.8773 101.385 15.224C100.839 15.562 100.401 16.017 100.072 16.589C99.7509 17.161 99.5905 17.798 99.5905 18.5C99.5905 19.202 99.7552 19.839 100.085 20.411C100.414 20.983 100.852 21.438 101.398 21.776C101.952 22.114 102.559 22.283 103.218 22.283ZM127.914 25.338C126.683 25.338 125.526 25.0953 124.443 24.61C123.359 24.116 122.406 23.4357 121.583 22.569C120.768 21.7023 120.127 20.7013 119.659 19.566C119.199 18.422 118.97 17.2 118.97 15.9C118.97 14.5913 119.199 13.3693 119.659 12.234C120.127 11.09 120.768 10.089 121.583 9.231C122.406 8.36433 123.359 7.68833 124.443 7.203C125.526 6.709 126.683 6.462 127.914 6.462C129.387 6.462 130.743 6.80433 131.983 7.489C133.222 8.165 134.249 9.07067 135.064 10.206L132.23 11.727C131.718 11.0943 131.081 10.5873 130.319 10.206C129.565 9.82467 128.763 9.634 127.914 9.634C127.116 9.634 126.367 9.79867 125.665 10.128C124.963 10.4487 124.347 10.8993 123.819 11.48C123.29 12.052 122.878 12.7193 122.584 13.482C122.289 14.236 122.142 15.042 122.142 15.9C122.142 16.7667 122.289 17.577 122.584 18.331C122.887 19.085 123.303 19.7523 123.832 20.333C124.36 20.905 124.971 21.3557 125.665 21.685C126.367 22.0057 127.116 22.166 127.914 22.166C128.78 22.166 129.586 21.9753 130.332 21.594C131.086 21.204 131.718 20.6927 132.23 20.06L135.064 21.594C134.249 22.7207 133.222 23.6263 131.983 24.311C130.743 24.9957 129.387 25.338 127.914 25.338ZM149.425 16.784V25H146.253V17.616C146.253 17.1047 146.127 16.641 145.876 16.225C145.625 15.8003 145.287 15.4667 144.862 15.224C144.446 14.9727 143.982 14.847 143.471 14.847C142.96 14.847 142.492 14.9727 142.067 15.224C141.651 15.4667 141.317 15.8003 141.066 16.225C140.823 16.641 140.702 17.1047 140.702 17.616V25H137.53L137.517 5.5H140.689L140.702 13.157C141.144 12.689 141.673 12.3207 142.288 12.052C142.903 11.7747 143.566 11.636 144.277 11.636C145.222 11.636 146.084 11.87 146.864 12.338C147.644 12.7973 148.264 13.417 148.723 14.197C149.191 14.9683 149.425 15.8307 149.425 16.784ZM161.563 12H164.735V25H161.563L161.42 23.388C161.065 23.9687 160.593 24.441 160.003 24.805C159.423 25.1603 158.734 25.338 157.936 25.338C156.974 25.338 156.073 25.156 155.232 24.792C154.392 24.428 153.651 23.9253 153.009 23.284C152.377 22.6427 151.878 21.9017 151.514 21.061C151.159 20.2203 150.981 19.319 150.981 18.357C150.981 17.4297 151.15 16.5587 151.488 15.744C151.835 14.9293 152.316 14.2143 152.931 13.599C153.547 12.9837 154.257 12.5027 155.063 12.156C155.869 11.8093 156.736 11.636 157.663 11.636C158.521 11.636 159.288 11.8267 159.964 12.208C160.649 12.5893 161.23 13.0747 161.706 13.664L161.563 12ZM157.858 22.283C158.534 22.283 159.132 22.114 159.652 21.776C160.172 21.438 160.58 20.983 160.874 20.411C161.169 19.8303 161.316 19.1933 161.316 18.5C161.316 17.798 161.169 17.161 160.874 16.589C160.58 16.0083 160.168 15.549 159.639 15.211C159.119 14.873 158.526 14.704 157.858 14.704C157.191 14.704 156.58 14.8773 156.025 15.224C155.479 15.562 155.042 16.017 154.712 16.589C154.392 17.161 154.231 17.798 154.231 18.5C154.231 19.202 154.396 19.839 154.725 20.411C155.055 20.983 155.492 21.438 156.038 21.776C156.593 22.114 157.2 22.283 157.858 22.283ZM179.234 16.784V25H176.062V17.616C176.062 17.1047 175.936 16.641 175.685 16.225C175.433 15.8003 175.095 15.4667 174.671 15.224C174.255 14.9727 173.791 14.847 173.28 14.847C172.768 14.847 172.3 14.9727 171.876 15.224C171.46 15.4667 171.126 15.8003 170.875 16.225C170.632 16.641 170.511 17.1047 170.511 17.616V25H167.339L167.326 12H170.498L170.511 13.157C170.953 12.689 171.481 12.3207 172.097 12.052C172.712 11.7747 173.375 11.636 174.086 11.636C175.03 11.636 175.893 11.87 176.673 12.338C177.453 12.7973 178.072 13.417 178.532 14.197C179 14.9683 179.234 15.8307 179.234 16.784ZM191.216 12H194.388V25.247C194.388 26.183 194.197 27.0323 193.816 27.795C193.434 28.5663 192.914 29.225 192.256 29.771C191.597 30.3257 190.843 30.7503 189.994 31.045C189.144 31.3483 188.252 31.5 187.316 31.5C186.406 31.5 185.53 31.3137 184.69 30.941C183.849 30.5683 183.104 30.057 182.454 29.407C181.812 28.7657 181.323 28.0333 180.985 27.21L183.884 25.897C184.057 26.3737 184.317 26.7897 184.664 27.145C185.019 27.509 185.426 27.7907 185.886 27.99C186.345 28.198 186.822 28.302 187.316 28.302C187.818 28.302 188.299 28.2327 188.759 28.094C189.227 27.9553 189.647 27.7517 190.02 27.483C190.392 27.223 190.683 26.9023 190.891 26.521C191.107 26.1483 191.216 25.7237 191.216 25.247V23.414C190.808 23.986 190.297 24.4497 189.682 24.805C189.066 25.1603 188.356 25.338 187.55 25.338C186.614 25.338 185.738 25.1603 184.924 24.805C184.109 24.4497 183.39 23.96 182.766 23.336C182.15 22.7033 181.665 21.9753 181.31 21.152C180.963 20.3287 180.79 19.4447 180.79 18.5C180.79 17.5553 180.963 16.6713 181.31 15.848C181.665 15.0247 182.15 14.301 182.766 13.677C183.39 13.0443 184.109 12.5503 184.924 12.195C185.738 11.8397 186.614 11.662 187.55 11.662C188.356 11.662 189.066 11.8397 189.682 12.195C190.297 12.5417 190.808 13.001 191.216 13.573V12ZM187.589 22.283C188.256 22.283 188.845 22.114 189.357 21.776C189.877 21.4293 190.284 20.97 190.579 20.398C190.873 19.8173 191.021 19.1847 191.021 18.5C191.021 17.8067 190.869 17.174 190.566 16.602C190.271 16.03 189.864 15.5707 189.344 15.224C188.832 14.8773 188.247 14.704 187.589 14.704C186.939 14.704 186.345 14.8773 185.808 15.224C185.27 15.562 184.841 16.017 184.521 16.589C184.2 17.161 184.04 17.798 184.04 18.5C184.04 19.202 184.2 19.839 184.521 20.411C184.841 20.983 185.27 21.438 185.808 21.776C186.345 22.114 186.939 22.283 187.589 22.283ZM202.93 25.338C201.734 25.338 200.642 25.0303 199.654 24.415C198.675 23.7997 197.891 22.972 197.301 21.932C196.721 20.892 196.43 19.7437 196.43 18.487C196.43 17.5423 196.599 16.6583 196.937 15.835C197.275 15.003 197.739 14.275 198.328 13.651C198.926 13.0183 199.62 12.5243 200.408 12.169C201.197 11.8137 202.038 11.636 202.93 11.636C203.944 11.636 204.872 11.8527 205.712 12.286C206.562 12.7107 207.281 13.2957 207.87 14.041C208.46 14.7863 208.889 15.6357 209.157 16.589C209.426 17.5423 209.487 18.539 209.339 19.579H199.836C199.958 20.0643 200.157 20.502 200.434 20.892C200.712 21.2733 201.063 21.581 201.487 21.815C201.912 22.0403 202.393 22.1573 202.93 22.166C203.485 22.1747 203.988 22.0447 204.438 21.776C204.898 21.4987 205.279 21.126 205.582 20.658L208.819 21.412C208.291 22.5647 207.502 23.5093 206.453 24.246C205.405 24.974 204.23 25.338 202.93 25.338ZM199.732 17.2H206.128C206.033 16.68 205.829 16.212 205.517 15.796C205.214 15.3713 204.837 15.0333 204.386 14.782C203.936 14.5307 203.45 14.405 202.93 14.405C202.41 14.405 201.929 14.5307 201.487 14.782C201.045 15.0247 200.668 15.3583 200.356 15.783C200.053 16.199 199.845 16.6713 199.732 17.2ZM221.333 5.5H224.505V25H221.333V23.375C220.917 23.9557 220.393 24.428 219.76 24.792C219.128 25.156 218.395 25.338 217.563 25.338C216.619 25.338 215.735 25.1603 214.911 24.805C214.088 24.4497 213.36 23.96 212.727 23.336C212.103 22.7033 211.614 21.9753 211.258 21.152C210.903 20.3287 210.725 19.4447 210.725 18.5C210.725 17.5553 210.903 16.6713 211.258 15.848C211.614 15.0247 212.103 14.301 212.727 13.677C213.36 13.0443 214.088 12.5503 214.911 12.195C215.735 11.8397 216.619 11.662 217.563 11.662C218.395 11.662 219.128 11.844 219.76 12.208C220.393 12.5633 220.917 13.0357 221.333 13.625V5.5ZM217.602 22.283C218.278 22.283 218.876 22.114 219.396 21.776C219.916 21.438 220.324 20.983 220.618 20.411C220.913 19.8303 221.06 19.1933 221.06 18.5C221.06 17.798 220.913 17.161 220.618 16.589C220.324 16.0083 219.912 15.549 219.383 15.211C218.863 14.873 218.27 14.704 217.602 14.704C216.935 14.704 216.324 14.8773 215.769 15.224C215.223 15.562 214.786 16.017 214.456 16.589C214.136 17.161 213.975 17.798 213.975 18.5C213.975 19.202 214.14 19.839 214.469 20.411C214.799 20.983 215.236 21.438 215.782 21.776C216.337 22.114 216.944 22.283 217.602 22.283ZM227.394 19.54V6.8H230.072V19.54H227.394ZM228.746 25.338C228.287 25.338 227.897 25.1777 227.576 24.857C227.264 24.5363 227.108 24.1463 227.108 23.687C227.108 23.2363 227.264 22.855 227.576 22.543C227.897 22.231 228.287 22.075 228.746 22.075C229.188 22.075 229.565 22.231 229.877 22.543C230.189 22.855 230.345 23.2363 230.345 23.687C230.345 24.1463 230.189 24.5363 229.877 24.857C229.565 25.1777 229.188 25.338 228.746 25.338Z" fill="#1E232C"/>
</svg>