<svg xmlns="http://www.w3.org/2000/svg" width="126" height="40" viewBox="0 0 126 40" fill="none">
<path d="M8.46804 8.36247V10.1622H2.62271V8.36247H8.46804ZM3.30723 3.80157V15H0.99986V3.80157H3.30723ZM10.114 3.80157V15H7.81429V3.80157H10.114ZM14.3211 6.67809V15H12.0983V6.67809H14.3211ZM11.9599 4.50916C11.9599 4.18613 12.0727 3.9195 12.2983 3.70927C12.5239 3.49905 12.8264 3.39393 13.2058 3.39393C13.5801 3.39393 13.8801 3.49905 14.1057 3.70927C14.3365 3.9195 14.4518 4.18613 14.4518 4.50916C14.4518 4.83219 14.3365 5.09882 14.1057 5.30905C13.8801 5.51928 13.5801 5.62439 13.2058 5.62439C12.8264 5.62439 12.5239 5.51928 12.2983 5.30905C12.0727 5.09882 11.9599 4.83219 11.9599 4.50916ZM18.2513 13.131L18.2436 14.6154C18.2436 15.1846 18.1 15.7589 17.8129 16.3383C17.5309 16.9177 17.172 17.392 16.7361 17.7612L15.5824 17.1689C15.7106 16.9331 15.8362 16.6972 15.9593 16.4613C16.0824 16.2255 16.1849 15.9665 16.267 15.6845C16.349 15.4025 16.39 15.082 16.39 14.7231V13.131H18.2513ZM27.5269 15H25.0888L25.1042 13.2003H27.5269C28.132 13.2003 28.6421 13.0644 29.0575 12.7926C29.4728 12.5157 29.7856 12.1132 29.9958 11.5851C30.2111 11.057 30.3188 10.4186 30.3188 9.66998V9.1239C30.3188 8.54962 30.2573 8.04456 30.1342 7.60873C30.0163 7.17289 29.8394 6.80628 29.6035 6.50888C29.3677 6.21149 29.078 5.98844 28.7344 5.83975C28.3909 5.68592 27.9961 5.60901 27.55 5.60901H25.0426V3.80157H27.55C28.2986 3.80157 28.9831 3.92976 29.6035 4.18613C30.2291 4.43738 30.77 4.79887 31.2264 5.27059C31.6827 5.74232 32.034 6.30635 32.2801 6.96266C32.5313 7.61386 32.657 8.3394 32.657 9.13928V9.66998C32.657 10.4647 32.5313 11.1903 32.2801 11.8466C32.034 12.5029 31.6827 13.0669 31.2264 13.5387C30.7752 14.0053 30.2342 14.3668 29.6035 14.6231C28.978 14.8744 28.2858 15 27.5269 15ZM26.3963 3.80157V15H24.0889V3.80157H26.3963ZM33.8414 10.9236V10.7621C33.8414 10.152 33.9286 9.5905 34.1029 9.07775C34.2772 8.55988 34.5311 8.11122 34.8643 7.73179C35.1976 7.35235 35.6078 7.05752 36.0949 6.8473C36.5821 6.63194 37.1409 6.52426 37.7716 6.52426C38.4023 6.52426 38.9638 6.63194 39.456 6.8473C39.9482 7.05752 40.361 7.35235 40.6943 7.73179C41.0327 8.11122 41.2891 8.55988 41.4634 9.07775C41.6378 9.5905 41.7249 10.152 41.7249 10.7621V10.9236C41.7249 11.5287 41.6378 12.0902 41.4634 12.608C41.2891 13.1208 41.0327 13.5694 40.6943 13.954C40.361 14.3334 39.9508 14.6283 39.4637 14.8385C38.9766 15.0487 38.4177 15.1538 37.787 15.1538C37.1563 15.1538 36.5949 15.0487 36.1026 14.8385C35.6155 14.6283 35.2028 14.3334 34.8643 13.954C34.5311 13.5694 34.2772 13.1208 34.1029 12.608C33.9286 12.0902 33.8414 11.5287 33.8414 10.9236ZM36.0565 10.7621V10.9236C36.0565 11.2723 36.0873 11.5979 36.1488 11.9004C36.2103 12.203 36.3077 12.4696 36.441 12.7003C36.5795 12.9259 36.759 13.1028 36.9794 13.231C37.1999 13.3592 37.4691 13.4233 37.787 13.4233C38.0947 13.4233 38.3587 13.3592 38.5792 13.231C38.7997 13.1028 38.9766 12.9259 39.1099 12.7003C39.2432 12.4696 39.3406 12.203 39.4022 11.9004C39.4688 11.5979 39.5022 11.2723 39.5022 10.9236V10.7621C39.5022 10.4237 39.4688 10.1058 39.4022 9.80842C39.3406 9.5059 39.2407 9.23927 39.1022 9.00853C38.9689 8.77267 38.792 8.58808 38.5715 8.45476C38.351 8.32145 38.0844 8.25479 37.7716 8.25479C37.4589 8.25479 37.1922 8.32145 36.9717 8.45476C36.7564 8.58808 36.5795 8.77267 36.441 9.00853C36.3077 9.23927 36.2103 9.5059 36.1488 9.80842C36.0873 10.1058 36.0565 10.4237 36.0565 10.7621ZM45.7936 13.3848L47.6395 6.67809H49.9545L47.1472 15H45.7474L45.7936 13.3848ZM44.5245 6.67809L46.3781 13.3925L46.4166 15H45.0091L42.2018 6.67809H44.5245ZM54.6693 15.1538C54.0232 15.1538 53.4438 15.0513 52.931 14.8462C52.4183 14.6359 51.9825 14.3462 51.6235 13.9771C51.2697 13.6079 50.998 13.1797 50.8083 12.6926C50.6185 12.2004 50.5237 11.6774 50.5237 11.1236V10.816C50.5237 10.1853 50.6134 9.60845 50.7929 9.08544C50.9723 8.56244 51.2287 8.10866 51.562 7.7241C51.9004 7.33954 52.3106 7.0447 52.7926 6.83961C53.2746 6.62938 53.8181 6.52426 54.4231 6.52426C55.0128 6.52426 55.5358 6.62169 55.9921 6.81653C56.4485 7.01138 56.8305 7.28826 57.1381 7.64718C57.4509 8.00611 57.6868 8.43682 57.8457 8.93931C58.0047 9.43668 58.0842 9.99045 58.0842 10.6006V11.5236H51.4697V10.0468H55.9075V9.87764C55.9075 9.56999 55.8511 9.29567 55.7383 9.05468C55.6307 8.80856 55.4666 8.61372 55.2461 8.47015C55.0256 8.32658 54.7436 8.25479 54.4001 8.25479C54.1078 8.25479 53.8566 8.31889 53.6463 8.44707C53.4361 8.57526 53.2643 8.75472 53.131 8.98546C53.0028 9.2162 52.9054 9.48795 52.8387 9.80073C52.7772 10.1084 52.7465 10.4468 52.7465 10.816V11.1236C52.7465 11.4569 52.7926 11.7646 52.8849 12.0466C52.9823 12.3286 53.1182 12.5721 53.2925 12.7772C53.472 12.9823 53.6873 13.1413 53.9386 13.2541C54.195 13.3669 54.4847 13.4233 54.8077 13.4233C55.2076 13.4233 55.5794 13.3464 55.9229 13.1926C56.2716 13.0336 56.5716 12.7952 56.8228 12.4773L57.8996 13.6463C57.7252 13.8976 57.4868 14.1386 57.1843 14.3693C56.8869 14.6001 56.528 14.7898 56.1075 14.9385C55.6871 15.082 55.2076 15.1538 54.6693 15.1538Z" fill="#1C1C1C"/>
<path d="M1.4521 25.6165L3.77793 30.1143L6.10991 25.6165H7.45742L4.36862 31.228V34.5752H3.18109V31.228L0.0922947 25.6165H1.4521ZM7.72815 31.3203V31.1787C7.72815 30.6988 7.79788 30.2538 7.93735 29.8436C8.07682 29.4293 8.27781 29.0703 8.54034 28.7668C8.80287 28.4591 9.12077 28.2212 9.49405 28.053C9.86733 27.8807 10.2857 27.7946 10.7493 27.7946C11.2169 27.7946 11.6373 27.8807 12.0106 28.053C12.388 28.2212 12.708 28.4591 12.9705 28.7668C13.2371 29.0703 13.4402 29.4293 13.5796 29.8436C13.7191 30.2538 13.7888 30.6988 13.7888 31.1787V31.3203C13.7888 31.8002 13.7191 32.2453 13.5796 32.6555C13.4402 33.0657 13.2371 33.4246 12.9705 33.7322C12.708 34.0358 12.3901 34.2737 12.0168 34.446C11.6476 34.6142 11.2292 34.6983 10.7616 34.6983C10.2939 34.6983 9.87349 34.6142 9.50021 34.446C9.12693 34.2737 8.80697 34.0358 8.54034 33.7322C8.27781 33.4246 8.07682 33.0657 7.93735 32.6555C7.79788 32.2453 7.72815 31.8002 7.72815 31.3203ZM8.86645 31.1787V31.3203C8.86645 31.6525 8.90542 31.9663 8.98336 32.2617C9.06129 32.5529 9.1782 32.8113 9.33408 33.0369C9.49405 33.2626 9.693 33.441 9.93092 33.5723C10.1688 33.6994 10.4457 33.763 10.7616 33.763C11.0733 33.763 11.3461 33.6994 11.5799 33.5723C11.8178 33.441 12.0147 33.2626 12.1706 33.0369C12.3265 32.8113 12.4434 32.5529 12.5213 32.2617C12.6034 31.9663 12.6444 31.6525 12.6444 31.3203V31.1787C12.6444 30.8506 12.6034 30.5409 12.5213 30.2496C12.4434 29.9543 12.3244 29.6938 12.1644 29.4682C12.0086 29.2385 11.8117 29.058 11.5738 28.9268C11.3399 28.7955 11.0651 28.7299 10.7493 28.7299C10.4375 28.7299 10.1627 28.7955 9.92476 28.9268C9.69095 29.058 9.49405 29.2385 9.33408 29.4682C9.1782 29.6938 9.06129 29.9543 8.98336 30.2496C8.90542 30.5409 8.86645 30.8506 8.86645 31.1787ZM19.2896 33.0369V27.9177H20.4341V34.5752H19.345L19.2896 33.0369ZM19.505 31.6341L19.9787 31.6218C19.9787 32.0648 19.9316 32.475 19.8372 32.8524C19.747 33.2256 19.5993 33.5497 19.3942 33.8245C19.1891 34.0994 18.9204 34.3147 18.5882 34.4706C18.2559 34.6224 17.8519 34.6983 17.376 34.6983C17.052 34.6983 16.7546 34.6511 16.4838 34.5567C16.2172 34.4624 15.9875 34.3168 15.7947 34.1199C15.6019 33.923 15.4522 33.6666 15.3455 33.3508C15.243 33.0349 15.1917 32.6555 15.1917 32.2124V27.9177H16.33V32.2248C16.33 32.5242 16.3628 32.7724 16.4285 32.9693C16.4982 33.1621 16.5905 33.3159 16.7053 33.4307C16.8243 33.5415 16.9556 33.6194 17.0991 33.6646C17.2468 33.7097 17.3986 33.7322 17.5545 33.7322C18.0385 33.7322 18.422 33.6399 18.7051 33.4554C18.9881 33.2667 19.1912 33.0144 19.3142 32.6985C19.4414 32.3786 19.505 32.0238 19.505 31.6341ZM23.3075 28.9637V34.5752H22.1692V27.9177H23.2767L23.3075 28.9637ZM25.3872 27.8807L25.3811 28.9391C25.2867 28.9186 25.1965 28.9062 25.1103 28.9021C25.0283 28.8939 24.9339 28.8898 24.8273 28.8898C24.5648 28.8898 24.333 28.9309 24.132 29.0129C23.931 29.0949 23.7608 29.2098 23.6213 29.3575C23.4818 29.5051 23.3711 29.6815 23.289 29.8866C23.2111 30.0876 23.1598 30.3091 23.1352 30.5511L22.8153 30.7357C22.8153 30.3337 22.8542 29.9564 22.9322 29.6036C23.0142 29.2508 23.1393 28.9391 23.3075 28.6683C23.4757 28.3935 23.689 28.1802 23.9474 28.0284C24.2099 27.8725 24.5217 27.7946 24.8827 27.7946C24.9647 27.7946 25.059 27.8049 25.1657 27.8254C25.2724 27.8418 25.3462 27.8602 25.3872 27.8807ZM33.4907 33.4369V30.0097C33.4907 29.7472 33.4374 29.5195 33.3307 29.3267C33.2282 29.1298 33.0723 28.978 32.8631 28.8714C32.6539 28.7647 32.3955 28.7114 32.0878 28.7114C31.8007 28.7114 31.5484 28.7606 31.331 28.8591C31.1177 28.9575 30.9495 29.0867 30.8264 29.2467C30.7075 29.4067 30.648 29.579 30.648 29.7636H29.5097C29.5097 29.5256 29.5712 29.2898 29.6943 29.056C29.8174 28.8222 29.9937 28.6109 30.2235 28.4222C30.4573 28.2294 30.7362 28.0776 31.0603 27.9669C31.3884 27.852 31.7535 27.7946 32.1555 27.7946C32.6395 27.7946 33.0661 27.8766 33.4353 28.0407C33.8086 28.2048 34.0998 28.453 34.309 28.7852C34.5223 29.1134 34.629 29.5256 34.629 30.022V33.1231C34.629 33.3446 34.6474 33.5805 34.6844 33.8307C34.7254 34.0809 34.7849 34.2963 34.8628 34.4767V34.5752H33.6753C33.6178 34.4439 33.5727 34.2696 33.5399 34.0522C33.5071 33.8307 33.4907 33.6256 33.4907 33.4369ZM33.6876 30.5388L33.6999 31.3387H32.5493C32.2252 31.3387 31.936 31.3654 31.6817 31.4187C31.4274 31.4679 31.2141 31.5438 31.0418 31.6464C30.8695 31.7489 30.7383 31.8781 30.648 32.034C30.5578 32.1858 30.5126 32.3642 30.5126 32.5693C30.5126 32.7785 30.5598 32.9693 30.6542 33.1416C30.7485 33.3138 30.89 33.4513 31.0787 33.5538C31.2715 33.6522 31.5074 33.7015 31.7863 33.7015C32.135 33.7015 32.4426 33.6276 32.7093 33.48C32.9759 33.3323 33.1871 33.1518 33.343 32.9385C33.503 32.7252 33.5891 32.518 33.6014 32.3171L34.0875 32.8647C34.0588 33.0369 33.9809 33.2277 33.8537 33.4369C33.7266 33.6461 33.5563 33.8471 33.343 34.0399C33.1338 34.2286 32.8836 34.3865 32.5924 34.5137C32.3052 34.6367 31.9812 34.6983 31.6202 34.6983C31.169 34.6983 30.7731 34.6101 30.4327 34.4337C30.0963 34.2573 29.8338 34.0214 29.6451 33.7261C29.4605 33.4266 29.3682 33.0923 29.3682 32.7231C29.3682 32.3663 29.4379 32.0525 29.5774 31.7817C29.7169 31.5069 29.9179 31.2792 30.1804 31.0988C30.4429 30.9142 30.7588 30.7747 31.1279 30.6804C31.4971 30.586 31.9094 30.5388 32.3647 30.5388H33.6876ZM38.3454 33.5476L40.1667 27.9177H41.3296L38.9361 34.5752H38.1731L38.3454 33.5476ZM36.8256 27.9177L38.7023 33.5784L38.8315 34.5752H38.0685L35.6565 27.9177H36.8256ZM46.252 33.4369V30.0097C46.252 29.7472 46.1986 29.5195 46.092 29.3267C45.9894 29.1298 45.8336 28.978 45.6244 28.8714C45.4152 28.7647 45.1567 28.7114 44.8491 28.7114C44.562 28.7114 44.3097 28.7606 44.0923 28.8591C43.879 28.9575 43.7108 29.0867 43.5877 29.2467C43.4688 29.4067 43.4093 29.579 43.4093 29.7636H42.271C42.271 29.5256 42.3325 29.2898 42.4556 29.056C42.5786 28.8222 42.755 28.6109 42.9847 28.4222C43.2186 28.2294 43.4975 28.0776 43.8215 27.9669C44.1497 27.852 44.5148 27.7946 44.9168 27.7946C45.4008 27.7946 45.8274 27.8766 46.1966 28.0407C46.5699 28.2048 46.8611 28.453 47.0703 28.7852C47.2836 29.1134 47.3903 29.5256 47.3903 30.022V33.1231C47.3903 33.3446 47.4087 33.5805 47.4457 33.8307C47.4867 34.0809 47.5462 34.2963 47.6241 34.4767V34.5752H46.4366C46.3791 34.4439 46.334 34.2696 46.3012 34.0522C46.2684 33.8307 46.252 33.6256 46.252 33.4369ZM46.4489 30.5388L46.4612 31.3387H45.3106C44.9865 31.3387 44.6973 31.3654 44.443 31.4187C44.1887 31.4679 43.9754 31.5438 43.8031 31.6464C43.6308 31.7489 43.4995 31.8781 43.4093 32.034C43.3191 32.1858 43.2739 32.3642 43.2739 32.5693C43.2739 32.7785 43.3211 32.9693 43.4154 33.1416C43.5098 33.3138 43.6513 33.4513 43.84 33.5538C44.0328 33.6522 44.2687 33.7015 44.5476 33.7015C44.8963 33.7015 45.2039 33.6276 45.4705 33.48C45.7372 33.3323 45.9484 33.1518 46.1043 32.9385C46.2643 32.7252 46.3504 32.518 46.3627 32.3171L46.8488 32.8647C46.8201 33.0369 46.7422 33.2277 46.615 33.4369C46.4878 33.6461 46.3176 33.8471 46.1043 34.0399C45.8951 34.2286 45.6449 34.3865 45.3536 34.5137C45.0665 34.6367 44.7424 34.6983 44.3815 34.6983C43.9302 34.6983 43.5344 34.6101 43.1939 34.4337C42.8576 34.2573 42.5951 34.0214 42.4064 33.7261C42.2218 33.4266 42.1295 33.0923 42.1295 32.7231C42.1295 32.3663 42.1992 32.0525 42.3387 31.7817C42.4781 31.5069 42.6791 31.2792 42.9417 31.0988C43.2042 30.9142 43.5201 30.7747 43.8892 30.6804C44.2584 30.586 44.6707 30.5388 45.126 30.5388H46.4489ZM50.4175 27.9177V34.5752H49.2731V27.9177H50.4175ZM49.1869 26.1518C49.1869 25.9672 49.2423 25.8113 49.3531 25.6841C49.4679 25.557 49.6361 25.4934 49.8576 25.4934C50.075 25.4934 50.2412 25.557 50.356 25.6841C50.475 25.8113 50.5345 25.9672 50.5345 26.1518C50.5345 26.3281 50.475 26.4799 50.356 26.6071C50.2412 26.7301 50.075 26.7917 49.8576 26.7917C49.6361 26.7917 49.4679 26.7301 49.3531 26.6071C49.2423 26.4799 49.1869 26.3281 49.1869 26.1518ZM53.4817 25.1242V34.5752H52.3373V25.1242H53.4817ZM59.2348 33.4369V30.0097C59.2348 29.7472 59.1814 29.5195 59.0748 29.3267C58.9722 29.1298 58.8164 28.978 58.6072 28.8714C58.398 28.7647 58.1395 28.7114 57.8319 28.7114C57.5448 28.7114 57.2925 28.7606 57.0751 28.8591C56.8618 28.9575 56.6936 29.0867 56.5705 29.2467C56.4516 29.4067 56.3921 29.579 56.3921 29.7636H55.2538C55.2538 29.5256 55.3153 29.2898 55.4384 29.056C55.5614 28.8222 55.7378 28.6109 55.9675 28.4222C56.2014 28.2294 56.4803 28.0776 56.8043 27.9669C57.1325 27.852 57.4976 27.7946 57.8996 27.7946C58.3836 27.7946 58.8102 27.8766 59.1794 28.0407C59.5527 28.2048 59.8439 28.453 60.0531 28.7852C60.2664 29.1134 60.3731 29.5256 60.3731 30.022V33.1231C60.3731 33.3446 60.3915 33.5805 60.4284 33.8307C60.4695 34.0809 60.5289 34.2963 60.6069 34.4767V34.5752H59.4194C59.3619 34.4439 59.3168 34.2696 59.284 34.0522C59.2512 33.8307 59.2348 33.6256 59.2348 33.4369ZM59.4317 30.5388L59.444 31.3387H58.2934C57.9693 31.3387 57.6801 31.3654 57.4258 31.4187C57.1715 31.4679 56.9582 31.5438 56.7859 31.6464C56.6136 31.7489 56.4823 31.8781 56.3921 32.034C56.3018 32.1858 56.2567 32.3642 56.2567 32.5693C56.2567 32.7785 56.3039 32.9693 56.3982 33.1416C56.4926 33.3138 56.6341 33.4513 56.8228 33.5538C57.0156 33.6522 57.2515 33.7015 57.5304 33.7015C57.8791 33.7015 58.1867 33.6276 58.4533 33.48C58.72 33.3323 58.9312 33.1518 59.0871 32.9385C59.2471 32.7252 59.3332 32.518 59.3455 32.3171L59.8316 32.8647C59.8029 33.0369 59.725 33.2277 59.5978 33.4369C59.4706 33.6461 59.3004 33.8471 59.0871 34.0399C58.8779 34.2286 58.6277 34.3865 58.3364 34.5137C58.0493 34.6367 57.7252 34.6983 57.3643 34.6983C56.913 34.6983 56.5172 34.6101 56.1767 34.4337C55.8404 34.2573 55.5778 34.0214 55.3892 33.7261C55.2046 33.4266 55.1123 33.0923 55.1123 32.7231C55.1123 32.3663 55.182 32.0525 55.3215 31.7817C55.4609 31.5069 55.6619 31.2792 55.9245 31.0988C56.187 30.9142 56.5028 30.7747 56.872 30.6804C57.2412 30.586 57.6535 30.5388 58.1088 30.5388H59.4317ZM62.1574 25.1242H63.3019V33.2831L63.2034 34.5752H62.1574V25.1242ZM67.7997 31.1911V31.3203C67.7997 31.8043 67.7423 32.2535 67.6274 32.6678C67.5126 33.078 67.3444 33.4348 67.1229 33.7384C66.9014 34.0419 66.6307 34.2778 66.3107 34.446C65.9907 34.6142 65.6236 34.6983 65.2093 34.6983C64.7868 34.6983 64.4156 34.6265 64.0956 34.4829C63.7798 34.3352 63.5131 34.124 63.2957 33.8491C63.0783 33.5743 62.904 33.242 62.7727 32.8524C62.6456 32.4627 62.5574 32.0238 62.5082 31.5356V30.9695C62.5574 30.4773 62.6456 30.0363 62.7727 29.6467C62.904 29.257 63.0783 28.9247 63.2957 28.6499C63.5131 28.3709 63.7798 28.1597 64.0956 28.0161C64.4115 27.8684 64.7786 27.7946 65.197 27.7946C65.6154 27.7946 65.9866 27.8766 66.3107 28.0407C66.6348 28.2007 66.9055 28.4304 67.1229 28.7299C67.3444 29.0293 67.5126 29.3882 67.6274 29.8066C67.7423 30.2209 67.7997 30.6824 67.7997 31.1911ZM66.6553 31.3203V31.1911C66.6553 30.8588 66.6245 30.547 66.563 30.2558C66.5014 29.9605 66.403 29.702 66.2676 29.4805C66.1323 29.2549 65.9538 29.0785 65.7323 28.9514C65.5108 28.8201 65.238 28.7545 64.914 28.7545C64.6268 28.7545 64.3766 28.8037 64.1633 28.9021C63.9541 29.0006 63.7757 29.1339 63.628 29.3021C63.4803 29.4662 63.3593 29.6549 63.265 29.8682C63.1747 30.0774 63.107 30.2948 63.0619 30.5204V32.0032C63.1276 32.2904 63.2342 32.5673 63.3819 32.8339C63.5337 33.0964 63.7347 33.3118 63.9849 33.48C64.2392 33.6481 64.553 33.7322 64.9263 33.7322C65.2339 33.7322 65.4965 33.6707 65.7139 33.5476C65.9354 33.4205 66.1138 33.2462 66.2492 33.0246C66.3886 32.8031 66.4912 32.5468 66.5568 32.2555C66.6225 31.9643 66.6553 31.6525 66.6553 31.3203ZM70.4763 25.1242V34.5752H69.3318V25.1242H70.4763ZM75.0664 34.6983C74.6029 34.6983 74.1824 34.6203 73.805 34.4644C73.4318 34.3045 73.1097 34.0809 72.839 33.7938C72.5724 33.5066 72.3673 33.1662 72.2237 32.7724C72.0801 32.3786 72.0084 31.9479 72.0084 31.4802V31.2218C72.0084 30.6804 72.0884 30.1984 72.2483 29.7759C72.4083 29.3493 72.6257 28.9883 72.9005 28.6929C73.1754 28.3976 73.4871 28.174 73.8358 28.0223C74.1845 27.8705 74.5454 27.7946 74.9187 27.7946C75.3946 27.7946 75.8048 27.8766 76.1493 28.0407C76.498 28.2048 76.7831 28.4345 77.0046 28.7299C77.2261 29.0211 77.3902 29.3657 77.4968 29.7636C77.6035 30.1574 77.6568 30.5881 77.6568 31.0557V31.5664H72.6852V30.6373H76.5185V30.5511C76.5021 30.2558 76.4406 29.9687 76.3339 29.6897C76.2314 29.4108 76.0673 29.1811 75.8417 29.0006C75.6161 28.8201 75.3084 28.7299 74.9187 28.7299C74.6603 28.7299 74.4224 28.7852 74.205 28.896C73.9876 29.0026 73.8009 29.1626 73.6451 29.3759C73.4892 29.5892 73.3682 29.8497 73.282 30.1574C73.1959 30.465 73.1528 30.8198 73.1528 31.2218V31.4802C73.1528 31.7961 73.1959 32.0935 73.282 32.3724C73.3723 32.6473 73.5015 32.8893 73.6697 33.0985C73.842 33.3077 74.0491 33.4718 74.2911 33.5907C74.5372 33.7097 74.8162 33.7692 75.1279 33.7692C75.5299 33.7692 75.8704 33.6871 76.1493 33.523C76.4283 33.359 76.6723 33.1395 76.8815 32.8647L77.5707 33.4123C77.4271 33.6297 77.2446 33.8368 77.023 34.0337C76.8015 34.2306 76.5288 34.3906 76.2047 34.5137C75.8847 34.6367 75.5053 34.6983 75.0664 34.6983ZM82.1054 25.1242H83.2499V33.2831L83.1514 34.5752H82.1054V25.1242ZM87.7477 31.1911V31.3203C87.7477 31.8043 87.6903 32.2535 87.5754 32.6678C87.4606 33.078 87.2924 33.4348 87.0709 33.7384C86.8494 34.0419 86.5786 34.2778 86.2587 34.446C85.9387 34.6142 85.5716 34.6983 85.1573 34.6983C84.7348 34.6983 84.3636 34.6265 84.0436 34.4829C83.7277 34.3352 83.4611 34.124 83.2437 33.8491C83.0263 33.5743 82.852 33.242 82.7207 32.8524C82.5935 32.4627 82.5053 32.0238 82.4561 31.5356V30.9695C82.5053 30.4773 82.5935 30.0363 82.7207 29.6467C82.852 29.257 83.0263 28.9247 83.2437 28.6499C83.4611 28.3709 83.7277 28.1597 84.0436 28.0161C84.3594 27.8684 84.7266 27.7946 85.145 27.7946C85.5634 27.7946 85.9346 27.8766 86.2587 28.0407C86.5827 28.2007 86.8535 28.4304 87.0709 28.7299C87.2924 29.0293 87.4606 29.3882 87.5754 29.8066C87.6903 30.2209 87.7477 30.6824 87.7477 31.1911ZM86.6032 31.3203V31.1911C86.6032 30.8588 86.5725 30.547 86.5109 30.2558C86.4494 29.9605 86.351 29.702 86.2156 29.4805C86.0802 29.2549 85.9018 29.0785 85.6803 28.9514C85.4588 28.8201 85.186 28.7545 84.8619 28.7545C84.5748 28.7545 84.3246 28.8037 84.1113 28.9021C83.9021 29.0006 83.7236 29.1339 83.576 29.3021C83.4283 29.4662 83.3073 29.6549 83.2129 29.8682C83.1227 30.0774 83.055 30.2948 83.0099 30.5204V32.0032C83.0755 32.2904 83.1822 32.5673 83.3298 32.8339C83.4816 33.0964 83.6826 33.3118 83.9328 33.48C84.1872 33.6481 84.501 33.7322 84.8742 33.7322C85.1819 33.7322 85.4444 33.6707 85.6618 33.5476C85.8833 33.4205 86.0618 33.2462 86.1971 33.0246C86.3366 32.8031 86.4392 32.5468 86.5048 32.2555C86.5704 31.9643 86.6032 31.6525 86.6032 31.3203ZM93.1131 33.4369V30.0097C93.1131 29.7472 93.0598 29.5195 92.9531 29.3267C92.8506 29.1298 92.6947 28.978 92.4855 28.8714C92.2763 28.7647 92.0179 28.7114 91.7102 28.7114C91.4231 28.7114 91.1708 28.7606 90.9534 28.8591C90.7401 28.9575 90.5719 29.0867 90.4489 29.2467C90.3299 29.4067 90.2704 29.579 90.2704 29.7636H89.1321C89.1321 29.5256 89.1936 29.2898 89.3167 29.056C89.4398 28.8222 89.6162 28.6109 89.8459 28.4222C90.0797 28.2294 90.3586 28.0776 90.6827 27.9669C91.0108 27.852 91.3759 27.7946 91.7779 27.7946C92.2619 27.7946 92.6885 27.8766 93.0577 28.0407C93.431 28.2048 93.7222 28.453 93.9314 28.7852C94.1447 29.1134 94.2514 29.5256 94.2514 30.022V33.1231C94.2514 33.3446 94.2699 33.5805 94.3068 33.8307C94.3478 34.0809 94.4073 34.2963 94.4852 34.4767V34.5752H93.2977C93.2403 34.4439 93.1951 34.2696 93.1623 34.0522C93.1295 33.8307 93.1131 33.6256 93.1131 33.4369ZM93.31 30.5388L93.3223 31.3387H92.1717C91.8476 31.3387 91.5584 31.3654 91.3041 31.4187C91.0498 31.4679 90.8365 31.5438 90.6642 31.6464C90.4919 31.7489 90.3607 31.8781 90.2704 32.034C90.1802 32.1858 90.1351 32.3642 90.1351 32.5693C90.1351 32.7785 90.1822 32.9693 90.2766 33.1416C90.3709 33.3138 90.5124 33.4513 90.7011 33.5538C90.8939 33.6522 91.1298 33.7015 91.4087 33.7015C91.7574 33.7015 92.065 33.6276 92.3317 33.48C92.5983 33.3323 92.8096 33.1518 92.9654 32.9385C93.1254 32.7252 93.2115 32.518 93.2239 32.3171L93.7099 32.8647C93.6812 33.0369 93.6033 33.2277 93.4761 33.4369C93.349 33.6461 93.1787 33.8471 92.9654 34.0399C92.7562 34.2286 92.506 34.3865 92.2148 34.5137C91.9276 34.6367 91.6036 34.6983 91.2426 34.6983C90.7914 34.6983 90.3955 34.6101 90.0551 34.4337C89.7187 34.2573 89.4562 34.0214 89.2675 33.7261C89.0829 33.4266 88.9906 33.0923 88.9906 32.7231C88.9906 32.3663 89.0603 32.0525 89.1998 31.7817C89.3393 31.5069 89.5403 31.2792 89.8028 31.0988C90.0653 30.9142 90.3812 30.7747 90.7504 30.6804C91.1195 30.586 91.5318 30.5388 91.9871 30.5388H93.31ZM97.2787 25.1242V34.5752H96.1342V25.1242H97.2787ZM103.032 33.4369V30.0097C103.032 29.7472 102.978 29.5195 102.872 29.3267C102.769 29.1298 102.613 28.978 102.404 28.8714C102.195 28.7647 101.936 28.7114 101.629 28.7114C101.342 28.7114 101.089 28.7606 100.872 28.8591C100.659 28.9575 100.491 29.0867 100.367 29.2467C100.249 29.4067 100.189 29.579 100.189 29.7636H99.0507C99.0507 29.5256 99.1123 29.2898 99.2353 29.056C99.3584 28.8222 99.5348 28.6109 99.7645 28.4222C99.9983 28.2294 100.277 28.0776 100.601 27.9669C100.929 27.852 101.295 27.7946 101.697 27.7946C102.181 27.7946 102.607 27.8766 102.976 28.0407C103.35 28.2048 103.641 28.453 103.85 28.7852C104.063 29.1134 104.17 29.5256 104.17 30.022V33.1231C104.17 33.3446 104.188 33.5805 104.225 33.8307C104.266 34.0809 104.326 34.2963 104.404 34.4767V34.5752H103.216C103.159 34.4439 103.114 34.2696 103.081 34.0522C103.048 33.8307 103.032 33.6256 103.032 33.4369ZM103.229 30.5388L103.241 31.3387H102.09C101.766 31.3387 101.477 31.3654 101.223 31.4187C100.968 31.4679 100.755 31.5438 100.583 31.6464C100.411 31.7489 100.279 31.8781 100.189 32.034C100.099 32.1858 100.054 32.3642 100.054 32.5693C100.054 32.7785 100.101 32.9693 100.195 33.1416C100.29 33.3138 100.431 33.4513 100.62 33.5538C100.813 33.6522 101.048 33.7015 101.327 33.7015C101.676 33.7015 101.984 33.6276 102.25 33.48C102.517 33.3323 102.728 33.1518 102.884 32.9385C103.044 32.7252 103.13 32.518 103.142 32.3171L103.629 32.8647C103.6 33.0369 103.522 33.2277 103.395 33.4369C103.268 33.6461 103.097 33.8471 102.884 34.0399C102.675 34.2286 102.425 34.3865 102.133 34.5137C101.846 34.6367 101.522 34.6983 101.161 34.6983C100.71 34.6983 100.314 34.6101 99.9737 34.4337C99.6373 34.2573 99.3748 34.0214 99.1861 33.7261C99.0015 33.4266 98.9092 33.0923 98.9092 32.7231C98.9092 32.3663 98.9789 32.0525 99.1184 31.7817C99.2579 31.5069 99.4589 31.2792 99.7214 31.0988C99.9839 30.9142 100.3 30.7747 100.669 30.6804C101.038 30.586 101.45 30.5388 101.906 30.5388H103.229ZM107.099 29.339V34.5752H105.961V27.9177H107.037L107.099 29.339ZM106.828 30.9942L106.354 30.9757C106.358 30.5204 106.426 30.0999 106.557 29.7143C106.689 29.3246 106.873 28.9862 107.111 28.6991C107.349 28.412 107.632 28.1904 107.96 28.0346C108.293 27.8746 108.66 27.7946 109.062 27.7946C109.39 27.7946 109.685 27.8397 109.948 27.93C110.21 28.0161 110.434 28.1556 110.618 28.3484C110.807 28.5412 110.951 28.7914 111.049 29.099C111.147 29.4026 111.197 29.7738 111.197 30.2127V34.5752H110.052V30.2004C110.052 29.8518 110.001 29.5728 109.898 29.3636C109.796 29.1503 109.646 28.9965 109.449 28.9021C109.252 28.8037 109.01 28.7545 108.723 28.7545C108.44 28.7545 108.182 28.814 107.948 28.9329C107.718 29.0519 107.519 29.2159 107.351 29.4251C107.187 29.6343 107.058 29.8743 106.963 30.145C106.873 30.4117 106.828 30.6947 106.828 30.9942ZM115.59 33.763C115.861 33.763 116.111 33.7076 116.341 33.5969C116.57 33.4861 116.759 33.3343 116.907 33.1416C117.054 32.9447 117.138 32.7211 117.159 32.4709H118.242C118.221 32.8647 118.088 33.2318 117.842 33.5723C117.6 33.9086 117.282 34.1814 116.888 34.3906C116.494 34.5957 116.062 34.6983 115.59 34.6983C115.089 34.6983 114.653 34.6101 114.279 34.4337C113.91 34.2573 113.603 34.0153 113.356 33.7076C113.114 33.4 112.932 33.0472 112.809 32.6493C112.69 32.2473 112.63 31.8228 112.63 31.3756V31.1172C112.63 30.6701 112.69 30.2476 112.809 29.8497C112.932 29.4477 113.114 29.0929 113.356 28.7852C113.603 28.4776 113.91 28.2356 114.279 28.0592C114.653 27.8828 115.089 27.7946 115.59 27.7946C116.111 27.7946 116.566 27.9013 116.956 28.1146C117.346 28.3238 117.651 28.6109 117.873 28.976C118.098 29.337 118.221 29.7472 118.242 30.2066H117.159C117.138 29.9317 117.061 29.6836 116.925 29.4621C116.794 29.2406 116.613 29.0642 116.384 28.9329C116.158 28.7975 115.893 28.7299 115.59 28.7299C115.241 28.7299 114.948 28.7996 114.71 28.9391C114.476 29.0744 114.29 29.259 114.15 29.4928C114.015 29.7225 113.916 29.9789 113.855 30.262C113.797 30.5409 113.769 30.826 113.769 31.1172V31.3756C113.769 31.6669 113.797 31.954 113.855 32.2371C113.912 32.5201 114.009 32.7765 114.144 33.0062C114.283 33.2359 114.47 33.4205 114.704 33.56C114.942 33.6953 115.237 33.763 115.59 33.763ZM122.284 34.6983C121.821 34.6983 121.4 34.6203 121.023 34.4644C120.65 34.3045 120.328 34.0809 120.057 33.7938C119.79 33.5066 119.585 33.1662 119.442 32.7724C119.298 32.3786 119.226 31.9479 119.226 31.4802V31.2218C119.226 30.6804 119.306 30.1984 119.466 29.7759C119.626 29.3493 119.844 28.9883 120.119 28.6929C120.393 28.3976 120.705 28.174 121.054 28.0223C121.402 27.8705 121.763 27.7946 122.137 27.7946C122.613 27.7946 123.023 27.8766 123.367 28.0407C123.716 28.2048 124.001 28.4345 124.223 28.7299C124.444 29.0211 124.608 29.3657 124.715 29.7636C124.821 30.1574 124.875 30.5881 124.875 31.0557V31.5664H119.903V30.6373H123.736V30.5511C123.72 30.2558 123.659 29.9687 123.552 29.6897C123.449 29.4108 123.285 29.1811 123.06 29.0006C122.834 28.8201 122.526 28.7299 122.137 28.7299C121.878 28.7299 121.64 28.7852 121.423 28.896C121.206 29.0026 121.019 29.1626 120.863 29.3759C120.707 29.5892 120.586 29.8497 120.5 30.1574C120.414 30.465 120.371 30.8198 120.371 31.2218V31.4802C120.371 31.7961 120.414 32.0935 120.5 32.3724C120.59 32.6473 120.719 32.8893 120.888 33.0985C121.06 33.3077 121.267 33.4718 121.509 33.5907C121.755 33.7097 122.034 33.7692 122.346 33.7692C122.748 33.7692 123.088 33.6871 123.367 33.523C123.646 33.359 123.89 33.1395 124.1 32.8647L124.789 33.4123C124.645 33.6297 124.463 33.8368 124.241 34.0337C124.02 34.2306 123.747 34.3906 123.423 34.5137C123.103 34.6367 122.723 34.6983 122.284 34.6983Z" fill="#595F67"/>
</svg>