<svg xmlns="http://www.w3.org/2000/svg" width="230" height="30" viewBox="0 0 230 30" fill="none">
<path d="M-4.87566e-05 22.5V1.5H12.405V5.16H3.65995V9.42H10.965V13.08H3.65995V22.5H-4.87566e-05ZM19.6886 22.89C18.3086 22.89 17.0486 22.535 15.9086 21.825C14.7786 21.115 13.8736 20.165 13.1936 18.975C12.5236 17.775 12.1886 16.45 12.1886 15C12.1886 13.9 12.3836 12.875 12.7736 11.925C13.1636 10.965 13.6986 10.125 14.3786 9.405C15.0686 8.675 15.8686 8.105 16.7786 7.695C17.6886 7.285 18.6586 7.08 19.6886 7.08C21.0686 7.08 22.3236 7.435 23.4536 8.145C24.5936 8.855 25.4986 9.81 26.1686 11.01C26.8486 12.21 27.1886 13.54 27.1886 15C27.1886 16.09 26.9936 17.11 26.6036 18.06C26.2136 19.01 25.6736 19.85 24.9836 20.58C24.3036 21.3 23.5086 21.865 22.5986 22.275C21.6986 22.685 20.7286 22.89 19.6886 22.89ZM19.6886 19.23C20.4186 19.23 21.0736 19.035 21.6536 18.645C22.2336 18.255 22.6886 17.74 23.0186 17.1C23.3586 16.46 23.5286 15.76 23.5286 15C23.5286 14.22 23.3536 13.51 23.0036 12.87C22.6636 12.22 22.1986 11.705 21.6086 11.325C21.0286 10.935 20.3886 10.74 19.6886 10.74C18.9686 10.74 18.3186 10.935 17.7386 11.325C17.1586 11.715 16.6986 12.235 16.3586 12.885C16.0186 13.535 15.8486 14.24 15.8486 15C15.8486 15.79 16.0236 16.505 16.3736 17.145C16.7236 17.785 17.1886 18.295 17.7686 18.675C18.3586 19.045 18.9986 19.23 19.6886 19.23ZM29.2392 22.5L29.2242 7.5H32.8842L32.8992 8.835C33.4092 8.295 34.0192 7.87 34.7292 7.56C35.4392 7.24 36.2042 7.08 37.0242 7.08C37.5742 7.08 38.1242 7.16 38.6742 7.32L37.2342 11.01C36.8542 10.86 36.4742 10.785 36.0942 10.785C35.5042 10.785 34.9642 10.93 34.4742 11.22C33.9942 11.5 33.6092 11.885 33.3192 12.375C33.0392 12.855 32.8992 13.39 32.8992 13.98V22.5H29.2392ZM50.4839 7.5H54.1439V22.785C54.1439 23.865 53.9239 24.845 53.4839 25.725C53.0439 26.615 52.4439 27.375 51.6839 28.005C50.9239 28.645 50.0539 29.135 49.0739 29.475C48.0939 29.825 47.0639 30 45.9839 30C44.9339 30 43.9239 29.785 42.9539 29.355C41.9839 28.925 41.1239 28.335 40.3739 27.585C39.6339 26.845 39.0689 26 38.6789 25.05L42.0239 23.535C42.2239 24.085 42.5239 24.565 42.9239 24.975C43.3339 25.395 43.8039 25.72 44.3339 25.95C44.8639 26.19 45.4139 26.31 45.9839 26.31C46.5639 26.31 47.1189 26.23 47.6489 26.07C48.1889 25.91 48.6739 25.675 49.1039 25.365C49.5339 25.065 49.8689 24.695 50.1089 24.255C50.3589 23.825 50.4839 23.335 50.4839 22.785V20.67C50.0139 21.33 49.4239 21.865 48.7139 22.275C48.0039 22.685 47.1839 22.89 46.2539 22.89C45.1739 22.89 44.1639 22.685 43.2239 22.275C42.2839 21.865 41.4539 21.3 40.7339 20.58C40.0239 19.85 39.4639 19.01 39.0539 18.06C38.6539 17.11 38.4539 16.09 38.4539 15C38.4539 13.91 38.6539 12.89 39.0539 11.94C39.4639 10.99 40.0239 10.155 40.7339 9.435C41.4539 8.705 42.2839 8.135 43.2239 7.725C44.1639 7.315 45.1739 7.11 46.2539 7.11C47.1839 7.11 48.0039 7.315 48.7139 7.725C49.4239 8.125 50.0139 8.655 50.4839 9.315V7.5ZM46.2989 19.365C47.0689 19.365 47.7489 19.17 48.3389 18.78C48.9389 18.38 49.4089 17.85 49.7489 17.19C50.0889 16.52 50.2589 15.79 50.2589 15C50.2589 14.2 50.0839 13.47 49.7339 12.81C49.3939 12.15 48.9239 11.62 48.3239 11.22C47.7339 10.82 47.0589 10.62 46.2989 10.62C45.5489 10.62 44.8639 10.82 44.2439 11.22C43.6239 11.61 43.1289 12.135 42.7589 12.795C42.3889 13.455 42.2039 14.19 42.2039 15C42.2039 15.81 42.3889 16.545 42.7589 17.205C43.1289 17.865 43.6239 18.39 44.2439 18.78C44.8639 19.17 45.5489 19.365 46.2989 19.365ZM63.7007 22.89C62.3207 22.89 61.0607 22.535 59.9207 21.825C58.7907 21.115 57.8857 20.165 57.2057 18.975C56.5357 17.775 56.2007 16.45 56.2007 15C56.2007 13.9 56.3957 12.875 56.7857 11.925C57.1757 10.965 57.7107 10.125 58.3907 9.405C59.0807 8.675 59.8807 8.105 60.7907 7.695C61.7007 7.285 62.6707 7.08 63.7007 7.08C65.0807 7.08 66.3357 7.435 67.4657 8.145C68.6057 8.855 69.5107 9.81 70.1807 11.01C70.8607 12.21 71.2007 13.54 71.2007 15C71.2007 16.09 71.0057 17.11 70.6157 18.06C70.2257 19.01 69.6857 19.85 68.9957 20.58C68.3157 21.3 67.5207 21.865 66.6107 22.275C65.7107 22.685 64.7407 22.89 63.7007 22.89ZM63.7007 19.23C64.4307 19.23 65.0857 19.035 65.6657 18.645C66.2457 18.255 66.7007 17.74 67.0307 17.1C67.3707 16.46 67.5407 15.76 67.5407 15C67.5407 14.22 67.3657 13.51 67.0157 12.87C66.6757 12.22 66.2107 11.705 65.6207 11.325C65.0407 10.935 64.4007 10.74 63.7007 10.74C62.9807 10.74 62.3307 10.935 61.7507 11.325C61.1707 11.715 60.7107 12.235 60.3707 12.885C60.0307 13.535 59.8607 14.24 59.8607 15C59.8607 15.79 60.0357 16.505 60.3857 17.145C60.7357 17.785 61.2007 18.295 61.7807 18.675C62.3707 19.045 63.0107 19.23 63.7007 19.23ZM81.2763 11.16H78.3663V22.5H74.7063V11.16H72.4863V7.5H74.7063V2.79H78.3663V7.5H81.2763V11.16ZM90.5953 22.5V1.5H98.0953C99.2353 1.5 100.265 1.785 101.185 2.355C102.115 2.925 102.85 3.69 103.39 4.65C103.93 5.61 104.2 6.665 104.2 7.815C104.2 8.995 103.92 10.065 103.36 11.025C102.81 11.975 102.07 12.735 101.14 13.305C100.21 13.865 99.1953 14.145 98.0953 14.145H94.2553V22.5H90.5953ZM94.2553 10.485H97.7053C98.2253 10.485 98.7003 10.355 99.1303 10.095C99.5603 9.835 99.9003 9.485 100.15 9.045C100.41 8.605 100.54 8.115 100.54 7.575C100.54 7.025 100.41 6.53 100.15 6.09C99.9003 5.65 99.5603 5.3 99.1303 5.04C98.7003 4.78 98.2253 4.65 97.7053 4.65H94.2553V10.485ZM116.928 7.5H120.588V22.5H116.928L116.763 20.64C116.353 21.31 115.808 21.855 115.128 22.275C114.458 22.685 113.663 22.89 112.743 22.89C111.633 22.89 110.593 22.68 109.623 22.26C108.653 21.84 107.798 21.26 107.058 20.52C106.328 19.78 105.753 18.925 105.333 17.955C104.923 16.985 104.718 15.945 104.718 14.835C104.718 13.765 104.913 12.76 105.303 11.82C105.703 10.88 106.258 10.055 106.968 9.345C107.678 8.635 108.498 8.08 109.428 7.68C110.358 7.28 111.358 7.08 112.428 7.08C113.418 7.08 114.303 7.3 115.083 7.74C115.873 8.18 116.543 8.74 117.093 9.42L116.928 7.5ZM112.653 19.365C113.433 19.365 114.123 19.17 114.723 18.78C115.323 18.39 115.793 17.865 116.133 17.205C116.473 16.535 116.643 15.8 116.643 15C116.643 14.19 116.473 13.455 116.133 12.795C115.793 12.125 115.318 11.595 114.708 11.205C114.108 10.815 113.423 10.62 112.653 10.62C111.883 10.62 111.178 10.82 110.538 11.22C109.908 11.61 109.403 12.135 109.023 12.795C108.653 13.455 108.468 14.19 108.468 15C108.468 15.81 108.658 16.545 109.038 17.205C109.418 17.865 109.923 18.39 110.553 18.78C111.193 19.17 111.893 19.365 112.653 19.365ZM127.702 22.77C126.922 22.72 126.167 22.565 125.437 22.305C124.717 22.035 124.077 21.67 123.517 21.21C122.957 20.75 122.527 20.2 122.227 19.56L125.317 18.24C125.437 18.44 125.632 18.655 125.902 18.885C126.172 19.105 126.492 19.29 126.862 19.44C127.242 19.59 127.657 19.665 128.107 19.665C128.487 19.665 128.847 19.615 129.187 19.515C129.537 19.405 129.817 19.24 130.027 19.02C130.247 18.8 130.357 18.515 130.357 18.165C130.357 17.795 130.227 17.51 129.967 17.31C129.717 17.1 129.397 16.945 129.007 16.845C128.627 16.735 128.257 16.635 127.897 16.545C126.947 16.355 126.062 16.06 125.242 15.66C124.432 15.26 123.777 14.745 123.277 14.115C122.787 13.475 122.542 12.705 122.542 11.805C122.542 10.815 122.802 9.96 123.322 9.24C123.852 8.52 124.537 7.965 125.377 7.575C126.227 7.185 127.142 6.99 128.122 6.99C129.312 6.99 130.402 7.24 131.392 7.74C132.392 8.23 133.182 8.925 133.762 9.825L130.867 11.535C130.727 11.295 130.532 11.075 130.282 10.875C130.032 10.665 129.747 10.495 129.427 10.365C129.107 10.225 128.772 10.145 128.422 10.125C127.972 10.105 127.562 10.145 127.192 10.245C126.822 10.345 126.522 10.515 126.292 10.755C126.072 10.995 125.962 11.315 125.962 11.715C125.962 12.095 126.112 12.38 126.412 12.57C126.712 12.75 127.072 12.89 127.492 12.99C127.922 13.09 128.332 13.2 128.722 13.32C129.602 13.61 130.427 13.965 131.197 14.385C131.977 14.805 132.602 15.32 133.072 15.93C133.542 16.54 133.767 17.27 133.747 18.12C133.747 19.09 133.457 19.94 132.877 20.67C132.297 21.39 131.547 21.94 130.627 22.32C129.717 22.7 128.742 22.85 127.702 22.77ZM140.439 22.77C139.659 22.72 138.904 22.565 138.174 22.305C137.454 22.035 136.814 21.67 136.254 21.21C135.694 20.75 135.264 20.2 134.964 19.56L138.054 18.24C138.174 18.44 138.369 18.655 138.639 18.885C138.909 19.105 139.229 19.29 139.599 19.44C139.979 19.59 140.394 19.665 140.844 19.665C141.224 19.665 141.584 19.615 141.924 19.515C142.274 19.405 142.554 19.24 142.764 19.02C142.984 18.8 143.094 18.515 143.094 18.165C143.094 17.795 142.964 17.51 142.704 17.31C142.454 17.1 142.134 16.945 141.744 16.845C141.364 16.735 140.994 16.635 140.634 16.545C139.684 16.355 138.799 16.06 137.979 15.66C137.169 15.26 136.514 14.745 136.014 14.115C135.524 13.475 135.279 12.705 135.279 11.805C135.279 10.815 135.539 9.96 136.059 9.24C136.589 8.52 137.274 7.965 138.114 7.575C138.964 7.185 139.879 6.99 140.859 6.99C142.049 6.99 143.139 7.24 144.129 7.74C145.129 8.23 145.919 8.925 146.499 9.825L143.604 11.535C143.464 11.295 143.269 11.075 143.019 10.875C142.769 10.665 142.484 10.495 142.164 10.365C141.844 10.225 141.509 10.145 141.159 10.125C140.709 10.105 140.299 10.145 139.929 10.245C139.559 10.345 139.259 10.515 139.029 10.755C138.809 10.995 138.699 11.315 138.699 11.715C138.699 12.095 138.849 12.38 139.149 12.57C139.449 12.75 139.809 12.89 140.229 12.99C140.659 13.09 141.069 13.2 141.459 13.32C142.339 13.61 143.164 13.965 143.934 14.385C144.714 14.805 145.339 15.32 145.809 15.93C146.279 16.54 146.504 17.27 146.484 18.12C146.484 19.09 146.194 19.94 145.614 20.67C145.034 21.39 144.284 21.94 143.364 22.32C142.454 22.7 141.479 22.85 140.439 22.77ZM155.905 22.5H152.275L147.265 7.5H150.85L154.105 17.205L157.345 7.5H160.96L164.2 17.205L167.455 7.5H171.04L166.03 22.5H162.4L159.145 12.75L155.905 22.5ZM178.986 22.89C177.606 22.89 176.346 22.535 175.206 21.825C174.076 21.115 173.171 20.165 172.491 18.975C171.821 17.775 171.486 16.45 171.486 15C171.486 13.9 171.681 12.875 172.071 11.925C172.461 10.965 172.996 10.125 173.676 9.405C174.366 8.675 175.166 8.105 176.076 7.695C176.986 7.285 177.956 7.08 178.986 7.08C180.366 7.08 181.621 7.435 182.751 8.145C183.891 8.855 184.796 9.81 185.466 11.01C186.146 12.21 186.486 13.54 186.486 15C186.486 16.09 186.291 17.11 185.901 18.06C185.511 19.01 184.971 19.85 184.281 20.58C183.601 21.3 182.806 21.865 181.896 22.275C180.996 22.685 180.026 22.89 178.986 22.89ZM178.986 19.23C179.716 19.23 180.371 19.035 180.951 18.645C181.531 18.255 181.986 17.74 182.316 17.1C182.656 16.46 182.826 15.76 182.826 15C182.826 14.22 182.651 13.51 182.301 12.87C181.961 12.22 181.496 11.705 180.906 11.325C180.326 10.935 179.686 10.74 178.986 10.74C178.266 10.74 177.616 10.935 177.036 11.325C176.456 11.715 175.996 12.235 175.656 12.885C175.316 13.535 175.146 14.24 175.146 15C175.146 15.79 175.321 16.505 175.671 17.145C176.021 17.785 176.486 18.295 177.066 18.675C177.656 19.045 178.296 19.23 178.986 19.23ZM188.537 22.5L188.522 7.5H192.182L192.197 8.835C192.707 8.295 193.317 7.87 194.027 7.56C194.737 7.24 195.502 7.08 196.322 7.08C196.872 7.08 197.422 7.16 197.972 7.32L196.532 11.01C196.152 10.86 195.772 10.785 195.392 10.785C194.802 10.785 194.262 10.93 193.772 11.22C193.292 11.5 192.907 11.885 192.617 12.375C192.337 12.855 192.197 13.39 192.197 13.98V22.5H188.537ZM209.992 -1.78814e-06H213.652V22.5H209.992V20.625C209.512 21.295 208.907 21.84 208.177 22.26C207.447 22.68 206.602 22.89 205.642 22.89C204.552 22.89 203.532 22.685 202.582 22.275C201.632 21.865 200.792 21.3 200.062 20.58C199.342 19.85 198.777 19.01 198.367 18.06C197.957 17.11 197.752 16.09 197.752 15C197.752 13.91 197.957 12.89 198.367 11.94C198.777 10.99 199.342 10.155 200.062 9.435C200.792 8.705 201.632 8.135 202.582 7.725C203.532 7.315 204.552 7.11 205.642 7.11C206.602 7.11 207.447 7.32 208.177 7.74C208.907 8.15 209.512 8.695 209.992 9.375V-1.78814e-06ZM205.687 19.365C206.467 19.365 207.157 19.17 207.757 18.78C208.357 18.39 208.827 17.865 209.167 17.205C209.507 16.535 209.677 15.8 209.677 15C209.677 14.19 209.507 13.455 209.167 12.795C208.827 12.125 208.352 11.595 207.742 11.205C207.142 10.815 206.457 10.62 205.687 10.62C204.917 10.62 204.212 10.82 203.572 11.22C202.942 11.61 202.437 12.135 202.057 12.795C201.687 13.455 201.502 14.19 201.502 15C201.502 15.81 201.692 16.545 202.072 17.205C202.452 17.865 202.957 18.39 203.587 18.78C204.227 19.17 204.927 19.365 205.687 19.365ZM221.545 16.08C221.545 14.94 221.83 13.895 222.4 12.945C222.97 11.995 223.75 11.25 224.74 10.71C225.23 10.45 225.615 10.07 225.895 9.57C226.175 9.06 226.315 8.5 226.315 7.89C226.315 7.31 226.17 6.785 225.88 6.315C225.6 5.835 225.22 5.46 224.74 5.19C224.26 4.91 223.735 4.77 223.165 4.77C222.585 4.77 222.055 4.91 221.575 5.19C221.095 5.46 220.715 5.835 220.435 6.315C220.155 6.785 220.015 7.31 220.015 7.89H216.355C216.355 6.64 216.66 5.505 217.27 4.485C217.88 3.455 218.7 2.635 219.73 2.025C220.77 1.415 221.915 1.11 223.165 1.11C224.415 1.11 225.555 1.415 226.585 2.025C227.615 2.635 228.435 3.455 229.045 4.485C229.665 5.505 229.975 6.64 229.975 7.89C229.975 9.17 229.66 10.35 229.03 11.43C228.41 12.51 227.555 13.345 226.465 13.935C226.075 14.145 225.765 14.44 225.535 14.82C225.315 15.2 225.205 15.62 225.205 16.08H221.545ZM223.51 22.89C222.98 22.89 222.53 22.705 222.16 22.335C221.8 21.965 221.62 21.515 221.62 20.985C221.62 20.465 221.8 20.025 222.16 19.665C222.53 19.305 222.98 19.125 223.51 19.125C224.03 19.125 224.47 19.305 224.83 19.665C225.19 20.025 225.37 20.465 225.37 20.985C225.37 21.515 225.19 21.965 224.83 22.335C224.47 22.705 224.03 22.89 223.51 22.89Z" fill="#1E232C"/>
</svg>