<svg xmlns="http://www.w3.org/2000/svg" width="223" height="38" viewBox="0 0 223 38" fill="none">
<path d="M6.88481 0.749999H8.3698L4.8148 6.5025V11.25H3.5548V6.5025L-0.000195295 0.749999H1.4848L4.1848 5.1225L6.88481 0.749999ZM11.7186 11.445C11.0286 11.445 10.3986 11.2675 9.82855 10.9125C9.26355 10.5575 8.81105 10.0825 8.47105 9.4875C8.13605 8.8875 7.96855 8.225 7.96855 7.5C7.96855 6.95 8.06605 6.4375 8.26105 5.9625C8.45605 5.4825 8.72355 5.0625 9.06355 4.7025C9.40855 4.3375 9.80855 4.0525 10.2636 3.8475C10.7186 3.6425 11.2036 3.54 11.7186 3.54C12.4086 3.54 13.0361 3.7175 13.6011 4.0725C14.1711 4.4275 14.6236 4.905 14.9586 5.505C15.2986 6.105 15.4686 6.77 15.4686 7.5C15.4686 8.045 15.3711 8.555 15.1761 9.03C14.9811 9.505 14.7111 9.925 14.3661 10.29C14.0261 10.65 13.6286 10.9325 13.1736 11.1375C12.7236 11.3425 12.2386 11.445 11.7186 11.445ZM11.7186 10.185C12.1886 10.185 12.6111 10.0625 12.9861 9.8175C13.3661 9.5675 13.6636 9.24 13.8786 8.835C14.0986 8.425 14.2086 7.98 14.2086 7.5C14.2086 7.01 14.0961 6.56 13.8711 6.15C13.6511 5.74 13.3536 5.4125 12.9786 5.1675C12.6036 4.9225 12.1836 4.8 11.7186 4.8C11.2486 4.8 10.8261 4.925 10.4511 5.175C10.0761 5.42 9.77855 5.7475 9.55855 6.1575C9.33855 6.5675 9.22855 7.015 9.22855 7.5C9.22855 8 9.34105 8.455 9.56605 8.865C9.79105 9.27 10.0936 9.5925 10.4736 9.8325C10.8536 10.0675 11.2686 10.185 11.7186 10.185ZM16.307 8.4V3.75H17.567V8.1225C17.567 8.5025 17.6595 8.8475 17.8445 9.1575C18.0295 9.4675 18.277 9.715 18.587 9.9C18.902 10.08 19.247 10.17 19.622 10.17C20.002 10.17 20.3445 10.08 20.6495 9.9C20.9595 9.715 21.207 9.4675 21.392 9.1575C21.577 8.8475 21.6695 8.5025 21.6695 8.1225V3.75H22.9295L22.937 11.25H21.677L21.6695 10.2975C21.4045 10.6475 21.0695 10.9275 20.6645 11.1375C20.2595 11.3425 19.822 11.445 19.352 11.445C18.792 11.445 18.2795 11.31 17.8145 11.04C17.3545 10.765 16.987 10.3975 16.712 9.9375C16.442 9.4775 16.307 8.965 16.307 8.4ZM24.4439 11.25V3.75H25.7039V4.6875C25.9689 4.3375 26.3039 4.06 26.7089 3.855C27.1139 3.645 27.5539 3.54 28.0289 3.54C28.3189 3.54 28.5989 3.5775 28.8689 3.6525L28.3589 4.9125C28.1539 4.8475 27.9539 4.815 27.7589 4.815C27.3839 4.815 27.0389 4.9075 26.7239 5.0925C26.4139 5.2725 26.1664 5.5175 25.9814 5.8275C25.7964 6.1375 25.7039 6.4825 25.7039 6.8625V11.25H24.4439ZM34.786 15H33.526V3.75H34.786V5.0325C35.041 4.5925 35.381 4.2375 35.806 3.9675C36.231 3.6925 36.736 3.555 37.321 3.555C37.866 3.555 38.376 3.6575 38.851 3.8625C39.331 4.0675 39.751 4.3525 40.111 4.7175C40.471 5.0775 40.7535 5.495 40.9585 5.97C41.1635 6.445 41.266 6.955 41.266 7.5C41.266 8.045 41.1635 8.5575 40.9585 9.0375C40.7535 9.5175 40.471 9.94 40.111 10.305C39.751 10.665 39.331 10.9475 38.851 11.1525C38.376 11.3575 37.866 11.46 37.321 11.46C36.736 11.46 36.231 11.325 35.806 11.055C35.381 10.78 35.041 10.4225 34.786 9.9825V15ZM37.306 4.7775C36.821 4.7775 36.396 4.9 36.031 5.145C35.666 5.39 35.3835 5.7175 35.1835 6.1275C34.9885 6.5375 34.891 6.995 34.891 7.5C34.891 8 34.9885 8.4575 35.1835 8.8725C35.3835 9.2875 35.6635 9.6175 36.0235 9.8625C36.3885 10.1075 36.816 10.23 37.306 10.23C37.791 10.23 38.236 10.11 38.641 9.87C39.046 9.625 39.371 9.2975 39.616 8.8875C39.861 8.4725 39.9835 8.01 39.9835 7.5C39.9835 7 39.8635 6.545 39.6235 6.135C39.3835 5.72 39.061 5.39 38.656 5.145C38.251 4.9 37.801 4.7775 37.306 4.7775ZM48.5062 3.75H49.7662V11.25H48.5062L48.4537 9.9825C48.2187 10.4175 47.8937 10.77 47.4787 11.04C47.0687 11.31 46.5787 11.445 46.0087 11.445C45.4587 11.445 44.9437 11.3425 44.4637 11.1375C43.9837 10.9275 43.5587 10.64 43.1887 10.275C42.8237 9.905 42.5387 9.48 42.3337 9C42.1287 8.52 42.0262 8.0025 42.0262 7.4475C42.0262 6.9125 42.1262 6.4075 42.3262 5.9325C42.5262 5.4575 42.8037 5.0425 43.1587 4.6875C43.5187 4.3275 43.9337 4.0475 44.4037 3.8475C44.8737 3.6425 45.3787 3.54 45.9187 3.54C46.5087 3.54 47.0262 3.68 47.4712 3.96C47.9162 4.235 48.2762 4.5925 48.5512 5.0325L48.5062 3.75ZM45.9862 10.2225C46.4812 10.2225 46.9087 10.1025 47.2687 9.8625C47.6337 9.6175 47.9137 9.2875 48.1087 8.8725C48.3087 8.4575 48.4087 8 48.4087 7.5C48.4087 6.99 48.3087 6.53 48.1087 6.12C47.9087 5.705 47.6262 5.3775 47.2612 5.1375C46.9012 4.8925 46.4762 4.77 45.9862 4.77C45.4912 4.77 45.0412 4.8925 44.6362 5.1375C44.2312 5.3825 43.9087 5.7125 43.6687 6.1275C43.4337 6.5375 43.3162 6.995 43.3162 7.5C43.3162 8.005 43.4387 8.465 43.6837 8.88C43.9287 9.29 44.2537 9.6175 44.6587 9.8625C45.0637 10.1025 45.5062 10.2225 45.9862 10.2225ZM53.5527 11.3925C53.1477 11.3775 52.7527 11.3025 52.3677 11.1675C51.9877 11.0275 51.6527 10.84 51.3627 10.605C51.0777 10.365 50.8702 10.09 50.7402 9.78L51.8202 9.315C51.8952 9.485 52.0302 9.645 52.2252 9.795C52.4202 9.945 52.6452 10.065 52.9002 10.155C53.1552 10.245 53.4127 10.29 53.6727 10.29C53.9477 10.29 54.2052 10.2475 54.4452 10.1625C54.6852 10.0775 54.8802 9.9525 55.0302 9.7875C55.1852 9.6175 55.2627 9.415 55.2627 9.18C55.2627 8.93 55.1777 8.735 55.0077 8.595C54.8427 8.45 54.6327 8.3375 54.3777 8.2575C54.1277 8.1725 53.8727 8.0925 53.6127 8.0175C53.0977 7.8875 52.6377 7.7325 52.2327 7.5525C51.8277 7.3675 51.5077 7.135 51.2727 6.855C51.0427 6.57 50.9277 6.2075 50.9277 5.7675C50.9277 5.3025 51.0552 4.9 51.3102 4.56C51.5702 4.22 51.9102 3.9575 52.3302 3.7725C52.7502 3.5875 53.2002 3.495 53.6802 3.495C54.2852 3.495 54.8377 3.625 55.3377 3.885C55.8377 4.145 56.2102 4.4975 56.4552 4.9425L55.4427 5.535C55.3577 5.355 55.2277 5.1975 55.0527 5.0625C54.8777 4.9225 54.6777 4.8125 54.4527 4.7325C54.2277 4.6525 53.9977 4.61 53.7627 4.605C53.4727 4.595 53.2002 4.6325 52.9452 4.7175C52.6952 4.8025 52.4927 4.9325 52.3377 5.1075C52.1877 5.2775 52.1127 5.49 52.1127 5.745C52.1127 5.995 52.1927 6.185 52.3527 6.315C52.5177 6.445 52.7302 6.55 52.9902 6.63C53.2552 6.705 53.5427 6.7925 53.8527 6.8925C54.3077 7.0375 54.7327 7.205 55.1277 7.395C55.5227 7.585 55.8402 7.8225 56.0802 8.1075C56.3252 8.3925 56.4452 8.745 56.4402 9.165C56.4402 9.625 56.3027 10.0275 56.0277 10.3725C55.7527 10.7125 55.3952 10.9725 54.9552 11.1525C54.5202 11.3325 54.0527 11.4125 53.5527 11.3925ZM60.0127 11.3925C59.6077 11.3775 59.2127 11.3025 58.8277 11.1675C58.4477 11.0275 58.1127 10.84 57.8227 10.605C57.5377 10.365 57.3302 10.09 57.2002 9.78L58.2802 9.315C58.3552 9.485 58.4902 9.645 58.6852 9.795C58.8802 9.945 59.1052 10.065 59.3602 10.155C59.6152 10.245 59.8727 10.29 60.1327 10.29C60.4077 10.29 60.6652 10.2475 60.9052 10.1625C61.1452 10.0775 61.3402 9.9525 61.4902 9.7875C61.6452 9.6175 61.7227 9.415 61.7227 9.18C61.7227 8.93 61.6377 8.735 61.4677 8.595C61.3027 8.45 61.0927 8.3375 60.8377 8.2575C60.5877 8.1725 60.3327 8.0925 60.0727 8.0175C59.5577 7.8875 59.0977 7.7325 58.6927 7.5525C58.2877 7.3675 57.9677 7.135 57.7327 6.855C57.5027 6.57 57.3877 6.2075 57.3877 5.7675C57.3877 5.3025 57.5152 4.9 57.7702 4.56C58.0302 4.22 58.3702 3.9575 58.7902 3.7725C59.2102 3.5875 59.6602 3.495 60.1402 3.495C60.7452 3.495 61.2977 3.625 61.7977 3.885C62.2977 4.145 62.6702 4.4975 62.9152 4.9425L61.9027 5.535C61.8177 5.355 61.6877 5.1975 61.5127 5.0625C61.3377 4.9225 61.1377 4.8125 60.9127 4.7325C60.6877 4.6525 60.4577 4.61 60.2227 4.605C59.9327 4.595 59.6602 4.6325 59.4052 4.7175C59.1552 4.8025 58.9527 4.9325 58.7977 5.1075C58.6477 5.2775 58.5727 5.49 58.5727 5.745C58.5727 5.995 58.6527 6.185 58.8127 6.315C58.9777 6.445 59.1902 6.55 59.4502 6.63C59.7152 6.705 60.0027 6.7925 60.3127 6.8925C60.7677 7.0375 61.1927 7.205 61.5877 7.395C61.9827 7.585 62.3002 7.8225 62.5402 8.1075C62.7852 8.3925 62.9052 8.745 62.9002 9.165C62.9002 9.625 62.7627 10.0275 62.4877 10.3725C62.2127 10.7125 61.8552 10.9725 61.4152 11.1525C60.9802 11.3325 60.5127 11.4125 60.0127 11.3925ZM67.3469 11.25H66.0719L63.5594 3.75H64.7894L66.7244 9.4725L68.6369 3.75H69.9344L71.8544 9.4725L73.7669 3.75H75.0119L72.4994 11.25H71.2169L69.2744 5.475L67.3469 11.25ZM79.2332 11.445C78.5432 11.445 77.9132 11.2675 77.3432 10.9125C76.7782 10.5575 76.3257 10.0825 75.9857 9.4875C75.6507 8.8875 75.4832 8.225 75.4832 7.5C75.4832 6.95 75.5807 6.4375 75.7757 5.9625C75.9707 5.4825 76.2382 5.0625 76.5782 4.7025C76.9232 4.3375 77.3232 4.0525 77.7782 3.8475C78.2332 3.6425 78.7182 3.54 79.2332 3.54C79.9232 3.54 80.5507 3.7175 81.1157 4.0725C81.6857 4.4275 82.1382 4.905 82.4732 5.505C82.8132 6.105 82.9832 6.77 82.9832 7.5C82.9832 8.045 82.8857 8.555 82.6907 9.03C82.4957 9.505 82.2257 9.925 81.8807 10.29C81.5407 10.65 81.1432 10.9325 80.6882 11.1375C80.2382 11.3425 79.7532 11.445 79.2332 11.445ZM79.2332 10.185C79.7032 10.185 80.1257 10.0625 80.5007 9.8175C80.8807 9.5675 81.1782 9.24 81.3932 8.835C81.6132 8.425 81.7232 7.98 81.7232 7.5C81.7232 7.01 81.6107 6.56 81.3857 6.15C81.1657 5.74 80.8682 5.4125 80.4932 5.1675C80.1182 4.9225 79.6982 4.8 79.2332 4.8C78.7632 4.8 78.3407 4.925 77.9657 5.175C77.5907 5.42 77.2932 5.7475 77.0732 6.1575C76.8532 6.5675 76.7432 7.015 76.7432 7.5C76.7432 8 76.8557 8.455 77.0807 8.865C77.3057 9.27 77.6082 9.5925 77.9882 9.8325C78.3682 10.0675 78.7832 10.185 79.2332 10.185ZM84.2242 11.25V3.75H85.4842V4.6875C85.7492 4.3375 86.0842 4.06 86.4892 3.855C86.8942 3.645 87.3342 3.54 87.8092 3.54C88.0992 3.54 88.3792 3.5775 88.6492 3.6525L88.1392 4.9125C87.9342 4.8475 87.7342 4.815 87.5392 4.815C87.1642 4.815 86.8192 4.9075 86.5042 5.0925C86.1942 5.2725 85.9467 5.5175 85.7617 5.8275C85.5767 6.1375 85.4842 6.4825 85.4842 6.8625V11.25H84.2242ZM95.2275 -8.9407e-07H96.4875V11.25H95.2275V9.975C94.9725 10.415 94.63 10.77 94.2 11.04C93.77 11.31 93.265 11.445 92.685 11.445C92.14 11.445 91.63 11.3425 91.155 11.1375C90.68 10.9325 90.26 10.65 89.895 10.29C89.535 9.925 89.2525 9.505 89.0475 9.03C88.8425 8.555 88.74 8.045 88.74 7.5C88.74 6.955 88.8425 6.445 89.0475 5.97C89.2525 5.49 89.535 5.07 89.895 4.71C90.26 4.345 90.68 4.06 91.155 3.855C91.63 3.65 92.14 3.5475 92.685 3.5475C93.265 3.5475 93.77 3.6825 94.2 3.9525C94.63 4.2225 94.9725 4.5775 95.2275 5.0175V-8.9407e-07ZM92.7 10.2225C93.195 10.2225 93.6225 10.1025 93.9825 9.8625C94.3475 9.6175 94.6275 9.2875 94.8225 8.8725C95.0225 8.4575 95.1225 8 95.1225 7.5C95.1225 6.99 95.0225 6.53 94.8225 6.12C94.6225 5.705 94.34 5.3775 93.975 5.1375C93.615 4.8925 93.19 4.77 92.7 4.77C92.205 4.77 91.755 4.8925 91.35 5.1375C90.95 5.3825 90.63 5.7125 90.39 6.1275C90.15 6.5375 90.03 6.995 90.03 7.5C90.03 8.005 90.1525 8.465 90.3975 8.88C90.6425 9.29 90.9675 9.6175 91.3725 9.8625C91.7775 10.1025 92.22 10.2225 92.7 10.2225ZM108.52 6.585V11.25H107.26V6.8625C107.26 6.4825 107.168 6.1375 106.983 5.8275C106.798 5.5175 106.55 5.2725 106.24 5.0925C105.93 4.9075 105.585 4.815 105.205 4.815C104.83 4.815 104.485 4.9075 104.17 5.0925C103.86 5.2725 103.613 5.5175 103.428 5.8275C103.243 6.1375 103.15 6.4825 103.15 6.8625V11.25H101.89V-8.9407e-07H103.15V4.6875C103.415 4.3375 103.75 4.06 104.155 3.855C104.56 3.645 105 3.54 105.475 3.54C106.035 3.54 106.545 3.6775 107.005 3.9525C107.47 4.2225 107.838 4.5875 108.108 5.0475C108.383 5.5075 108.52 6.02 108.52 6.585ZM115.904 3.75H117.164V11.25H115.904L115.851 9.9825C115.616 10.4175 115.291 10.77 114.876 11.04C114.466 11.31 113.976 11.445 113.406 11.445C112.856 11.445 112.341 11.3425 111.861 11.1375C111.381 10.9275 110.956 10.64 110.586 10.275C110.221 9.905 109.936 9.48 109.731 9C109.526 8.52 109.424 8.0025 109.424 7.4475C109.424 6.9125 109.524 6.4075 109.724 5.9325C109.924 5.4575 110.201 5.0425 110.556 4.6875C110.916 4.3275 111.331 4.0475 111.801 3.8475C112.271 3.6425 112.776 3.54 113.316 3.54C113.906 3.54 114.424 3.68 114.869 3.96C115.314 4.235 115.674 4.5925 115.949 5.0325L115.904 3.75ZM113.384 10.2225C113.879 10.2225 114.306 10.1025 114.666 9.8625C115.031 9.6175 115.311 9.2875 115.506 8.8725C115.706 8.4575 115.806 8 115.806 7.5C115.806 6.99 115.706 6.53 115.506 6.12C115.306 5.705 115.024 5.3775 114.659 5.1375C114.299 4.8925 113.874 4.77 113.384 4.77C112.889 4.77 112.439 4.8925 112.034 5.1375C111.629 5.3825 111.306 5.7125 111.066 6.1275C110.831 6.5375 110.714 6.995 110.714 7.5C110.714 8.005 110.836 8.465 111.081 8.88C111.326 9.29 111.651 9.6175 112.056 9.8625C112.461 10.1025 112.904 10.2225 113.384 10.2225ZM120.95 11.3925C120.545 11.3775 120.15 11.3025 119.765 11.1675C119.385 11.0275 119.05 10.84 118.76 10.605C118.475 10.365 118.268 10.09 118.138 9.78L119.218 9.315C119.293 9.485 119.428 9.645 119.623 9.795C119.818 9.945 120.043 10.065 120.298 10.155C120.553 10.245 120.81 10.29 121.07 10.29C121.345 10.29 121.603 10.2475 121.843 10.1625C122.083 10.0775 122.278 9.9525 122.428 9.7875C122.583 9.6175 122.66 9.415 122.66 9.18C122.66 8.93 122.575 8.735 122.405 8.595C122.24 8.45 122.03 8.3375 121.775 8.2575C121.525 8.1725 121.27 8.0925 121.01 8.0175C120.495 7.8875 120.035 7.7325 119.63 7.5525C119.225 7.3675 118.905 7.135 118.67 6.855C118.44 6.57 118.325 6.2075 118.325 5.7675C118.325 5.3025 118.453 4.9 118.708 4.56C118.968 4.22 119.308 3.9575 119.728 3.7725C120.148 3.5875 120.598 3.495 121.078 3.495C121.683 3.495 122.235 3.625 122.735 3.885C123.235 4.145 123.608 4.4975 123.853 4.9425L122.84 5.535C122.755 5.355 122.625 5.1975 122.45 5.0625C122.275 4.9225 122.075 4.8125 121.85 4.7325C121.625 4.6525 121.395 4.61 121.16 4.605C120.87 4.595 120.598 4.6325 120.343 4.7175C120.093 4.8025 119.89 4.9325 119.735 5.1075C119.585 5.2775 119.51 5.49 119.51 5.745C119.51 5.995 119.59 6.185 119.75 6.315C119.915 6.445 120.128 6.55 120.388 6.63C120.653 6.705 120.94 6.7925 121.25 6.8925C121.705 7.0375 122.13 7.205 122.525 7.395C122.92 7.585 123.238 7.8225 123.478 8.1075C123.723 8.3925 123.843 8.745 123.838 9.165C123.838 9.625 123.7 10.0275 123.425 10.3725C123.15 10.7125 122.793 10.9725 122.353 11.1525C121.918 11.3325 121.45 11.4125 120.95 11.3925ZM132.521 3.54C133.251 3.54 133.914 3.7175 134.509 4.0725C135.109 4.4275 135.586 4.905 135.941 5.505C136.296 6.1 136.474 6.7625 136.474 7.4925C136.474 8.0375 136.371 8.55 136.166 9.03C135.961 9.505 135.676 9.925 135.311 10.29C134.951 10.65 134.531 10.9325 134.051 11.1375C133.576 11.3425 133.066 11.445 132.521 11.445C131.941 11.445 131.436 11.31 131.006 11.04C130.581 10.765 130.241 10.4075 129.986 9.9675V11.25H128.726V-8.9407e-07H129.986V5.0175C130.241 4.5775 130.581 4.2225 131.006 3.9525C131.436 3.6775 131.941 3.54 132.521 3.54ZM132.506 10.215C133.001 10.215 133.451 10.0925 133.856 9.8475C134.261 9.6025 134.584 9.275 134.824 8.865C135.064 8.45 135.184 7.9925 135.184 7.4925C135.184 6.9825 135.061 6.5225 134.816 6.1125C134.571 5.6975 134.246 5.37 133.841 5.13C133.436 4.885 132.991 4.7625 132.506 4.7625C132.016 4.7625 131.589 4.885 131.224 5.13C130.864 5.375 130.584 5.705 130.384 6.12C130.189 6.535 130.091 6.9925 130.091 7.4925C130.091 7.9975 130.189 8.4575 130.384 8.8725C130.584 9.2825 130.866 9.61 131.231 9.855C131.596 10.095 132.021 10.215 132.506 10.215ZM140.976 11.445C140.286 11.445 139.656 11.2675 139.086 10.9125C138.521 10.5575 138.069 10.0825 137.729 9.4875C137.394 8.8875 137.226 8.225 137.226 7.5C137.226 6.95 137.324 6.4375 137.519 5.9625C137.714 5.4825 137.981 5.0625 138.321 4.7025C138.666 4.3375 139.066 4.0525 139.521 3.8475C139.976 3.6425 140.461 3.54 140.976 3.54C141.541 3.54 142.059 3.655 142.529 3.885C143.004 4.11 143.409 4.425 143.744 4.83C144.084 5.235 144.336 5.705 144.501 6.24C144.671 6.775 144.734 7.3475 144.689 7.9575H138.569C138.629 8.3825 138.769 8.7625 138.989 9.0975C139.209 9.4275 139.489 9.69 139.829 9.885C140.174 10.08 140.556 10.18 140.976 10.185C141.426 10.185 141.834 10.07 142.199 9.84C142.564 9.605 142.859 9.285 143.084 8.88L144.366 9.18C144.066 9.845 143.614 10.39 143.009 10.815C142.404 11.235 141.726 11.445 140.976 11.445ZM138.531 6.9675H143.421C143.381 6.5475 143.246 6.165 143.016 5.82C142.786 5.47 142.494 5.19 142.139 4.98C141.784 4.77 141.396 4.665 140.976 4.665C140.556 4.665 140.171 4.7675 139.821 4.9725C139.471 5.1775 139.181 5.455 138.951 5.805C138.726 6.15 138.586 6.5375 138.531 6.9675ZM149.209 11.445C148.519 11.445 147.889 11.2675 147.319 10.9125C146.754 10.5575 146.301 10.0825 145.961 9.4875C145.626 8.8875 145.459 8.225 145.459 7.5C145.459 6.95 145.556 6.4375 145.751 5.9625C145.946 5.4825 146.214 5.0625 146.554 4.7025C146.899 4.3375 147.299 4.0525 147.754 3.8475C148.209 3.6425 148.694 3.54 149.209 3.54C149.774 3.54 150.291 3.655 150.761 3.885C151.236 4.11 151.641 4.425 151.976 4.83C152.316 5.235 152.569 5.705 152.734 6.24C152.904 6.775 152.966 7.3475 152.921 7.9575H146.801C146.861 8.3825 147.001 8.7625 147.221 9.0975C147.441 9.4275 147.721 9.69 148.061 9.885C148.406 10.08 148.789 10.18 149.209 10.185C149.659 10.185 150.066 10.07 150.431 9.84C150.796 9.605 151.091 9.285 151.316 8.88L152.599 9.18C152.299 9.845 151.846 10.39 151.241 10.815C150.636 11.235 149.959 11.445 149.209 11.445ZM146.764 6.9675H151.654C151.614 6.5475 151.479 6.165 151.249 5.82C151.019 5.47 150.726 5.19 150.371 4.98C150.016 4.77 149.629 4.665 149.209 4.665C148.789 4.665 148.404 4.7675 148.054 4.9725C147.704 5.1775 147.414 5.455 147.184 5.805C146.959 6.15 146.819 6.5375 146.764 6.9675ZM160.815 6.585V11.25H159.555V6.8625C159.555 6.4825 159.463 6.1375 159.278 5.8275C159.093 5.5175 158.845 5.2725 158.535 5.0925C158.225 4.9075 157.88 4.815 157.5 4.815C157.125 4.815 156.78 4.9075 156.465 5.0925C156.155 5.2725 155.908 5.5175 155.723 5.8275C155.538 6.1375 155.445 6.4825 155.445 6.8625V11.25H154.185V3.75H155.445V4.6875C155.71 4.3375 156.045 4.06 156.45 3.855C156.855 3.645 157.295 3.54 157.77 3.54C158.33 3.54 158.84 3.6775 159.3 3.9525C159.765 4.2225 160.133 4.5875 160.403 5.0475C160.678 5.5075 160.815 6.02 160.815 6.585ZM171.086 9.27L172.211 9.8775C171.871 10.3525 171.439 10.7325 170.914 11.0175C170.394 11.3025 169.829 11.445 169.219 11.445C168.529 11.445 167.899 11.2675 167.329 10.9125C166.764 10.5575 166.311 10.0825 165.971 9.4875C165.636 8.8875 165.469 8.225 165.469 7.5C165.469 6.95 165.566 6.4375 165.761 5.9625C165.956 5.4825 166.224 5.0625 166.564 4.7025C166.909 4.3375 167.309 4.0525 167.764 3.8475C168.219 3.6425 168.704 3.54 169.219 3.54C169.829 3.54 170.394 3.6825 170.914 3.9675C171.439 4.2525 171.871 4.635 172.211 5.115L171.086 5.7225C170.846 5.4275 170.561 5.2 170.231 5.04C169.901 4.88 169.564 4.8 169.219 4.8C168.754 4.8 168.331 4.925 167.951 5.175C167.576 5.42 167.279 5.7475 167.059 6.1575C166.839 6.5675 166.729 7.015 166.729 7.5C166.729 7.985 166.839 8.4325 167.059 8.8425C167.284 9.2475 167.584 9.5725 167.959 9.8175C168.339 10.0625 168.759 10.185 169.219 10.185C169.589 10.185 169.936 10.1 170.261 9.93C170.586 9.76 170.861 9.54 171.086 9.27ZM180.063 6.585V11.25H178.803V6.8625C178.803 6.4825 178.711 6.1375 178.526 5.8275C178.341 5.5175 178.093 5.2725 177.783 5.0925C177.473 4.9075 177.128 4.815 176.748 4.815C176.373 4.815 176.028 4.9075 175.713 5.0925C175.403 5.2725 175.156 5.5175 174.971 5.8275C174.786 6.1375 174.693 6.4825 174.693 6.8625V11.25H173.433V-8.9407e-07H174.693V4.6875C174.958 4.3375 175.293 4.06 175.698 3.855C176.103 3.645 176.543 3.54 177.018 3.54C177.578 3.54 178.088 3.6775 178.548 3.9525C179.013 4.2225 179.381 4.5875 179.651 5.0475C179.926 5.5075 180.063 6.02 180.063 6.585ZM187.447 3.75H188.707V11.25H187.447L187.394 9.9825C187.159 10.4175 186.834 10.77 186.419 11.04C186.009 11.31 185.519 11.445 184.949 11.445C184.399 11.445 183.884 11.3425 183.404 11.1375C182.924 10.9275 182.499 10.64 182.129 10.275C181.764 9.905 181.479 9.48 181.274 9C181.069 8.52 180.967 8.0025 180.967 7.4475C180.967 6.9125 181.067 6.4075 181.267 5.9325C181.467 5.4575 181.744 5.0425 182.099 4.6875C182.459 4.3275 182.874 4.0475 183.344 3.8475C183.814 3.6425 184.319 3.54 184.859 3.54C185.449 3.54 185.967 3.68 186.412 3.96C186.857 4.235 187.217 4.5925 187.492 5.0325L187.447 3.75ZM184.927 10.2225C185.422 10.2225 185.849 10.1025 186.209 9.8625C186.574 9.6175 186.854 9.2875 187.049 8.8725C187.249 8.4575 187.349 8 187.349 7.5C187.349 6.99 187.249 6.53 187.049 6.12C186.849 5.705 186.567 5.3775 186.202 5.1375C185.842 4.8925 185.417 4.77 184.927 4.77C184.432 4.77 183.982 4.8925 183.577 5.1375C183.172 5.3825 182.849 5.7125 182.609 6.1275C182.374 6.5375 182.257 6.995 182.257 7.5C182.257 8.005 182.379 8.465 182.624 8.88C182.869 9.29 183.194 9.6175 183.599 9.8625C184.004 10.1025 184.447 10.2225 184.927 10.2225ZM196.836 6.585V11.25H195.576V6.8625C195.576 6.4825 195.483 6.1375 195.298 5.8275C195.113 5.5175 194.866 5.2725 194.556 5.0925C194.246 4.9075 193.901 4.815 193.521 4.815C193.146 4.815 192.801 4.9075 192.486 5.0925C192.176 5.2725 191.928 5.5175 191.743 5.8275C191.558 6.1375 191.466 6.4825 191.466 6.8625V11.25H190.206V3.75H191.466V4.6875C191.731 4.3375 192.066 4.06 192.471 3.855C192.876 3.645 193.316 3.54 193.791 3.54C194.351 3.54 194.861 3.6775 195.321 3.9525C195.786 4.2225 196.153 4.5875 196.423 5.0475C196.698 5.5075 196.836 6.02 196.836 6.585ZM204.047 3.75H205.307V11.49C205.307 11.985 205.199 12.445 204.984 12.87C204.774 13.3 204.489 13.6725 204.129 13.9875C203.769 14.3075 203.359 14.555 202.899 14.73C202.439 14.91 201.959 15 201.459 15C200.939 15 200.437 14.8825 199.952 14.6475C199.467 14.4175 199.042 14.1075 198.677 13.7175C198.317 13.3325 198.057 12.9 197.897 12.42L199.052 11.895C199.147 12.24 199.317 12.55 199.562 12.825C199.812 13.105 200.102 13.325 200.432 13.485C200.767 13.65 201.109 13.7325 201.459 13.7325C201.789 13.7325 202.107 13.675 202.412 13.56C202.722 13.445 202.999 13.285 203.244 13.08C203.494 12.88 203.689 12.6425 203.829 12.3675C203.974 12.0975 204.047 11.805 204.047 11.49V9.9975C203.792 10.4275 203.454 10.7775 203.034 11.0475C202.619 11.3125 202.134 11.445 201.579 11.445C201.049 11.445 200.552 11.3425 200.087 11.1375C199.622 10.9325 199.214 10.65 198.864 10.29C198.514 9.925 198.239 9.505 198.039 9.03C197.839 8.555 197.739 8.045 197.739 7.5C197.739 6.955 197.839 6.445 198.039 5.97C198.239 5.49 198.514 5.07 198.864 4.71C199.214 4.345 199.622 4.06 200.087 3.855C200.552 3.65 201.049 3.5475 201.579 3.5475C202.134 3.5475 202.619 3.68 203.034 3.945C203.454 4.21 203.792 4.56 204.047 4.995V3.75ZM201.587 10.2225C202.072 10.2225 202.492 10.0975 202.847 9.8475C203.207 9.5975 203.484 9.265 203.679 8.85C203.874 8.435 203.972 7.985 203.972 7.5C203.972 7 203.872 6.545 203.672 6.135C203.477 5.72 203.199 5.39 202.839 5.145C202.484 4.895 202.067 4.77 201.587 4.77C201.117 4.77 200.687 4.8925 200.297 5.1375C199.907 5.3825 199.597 5.7125 199.367 6.1275C199.142 6.5375 199.029 6.995 199.029 7.5C199.029 8.005 199.144 8.465 199.374 8.88C199.609 9.29 199.919 9.6175 200.304 9.8625C200.694 10.1025 201.122 10.2225 201.587 10.2225ZM210.307 11.445C209.617 11.445 208.987 11.2675 208.417 10.9125C207.852 10.5575 207.4 10.0825 207.06 9.4875C206.725 8.8875 206.557 8.225 206.557 7.5C206.557 6.95 206.655 6.4375 206.85 5.9625C207.045 5.4825 207.312 5.0625 207.652 4.7025C207.997 4.3375 208.397 4.0525 208.852 3.8475C209.307 3.6425 209.792 3.54 210.307 3.54C210.872 3.54 211.39 3.655 211.86 3.885C212.335 4.11 212.74 4.425 213.075 4.83C213.415 5.235 213.667 5.705 213.832 6.24C214.002 6.775 214.065 7.3475 214.02 7.9575H207.9C207.96 8.3825 208.1 8.7625 208.32 9.0975C208.54 9.4275 208.82 9.69 209.16 9.885C209.505 10.08 209.887 10.18 210.307 10.185C210.757 10.185 211.165 10.07 211.53 9.84C211.895 9.605 212.19 9.285 212.415 8.88L213.697 9.18C213.397 9.845 212.945 10.39 212.34 10.815C211.735 11.235 211.057 11.445 210.307 11.445ZM207.862 6.9675H212.752C212.712 6.5475 212.577 6.165 212.347 5.82C212.117 5.47 211.825 5.19 211.47 4.98C211.115 4.77 210.727 4.665 210.307 4.665C209.887 4.665 209.502 4.7675 209.152 4.9725C208.802 5.1775 208.512 5.455 208.282 5.805C208.057 6.15 207.917 6.5375 207.862 6.9675ZM221.277 -8.9407e-07H222.537V11.25H221.277V9.975C221.022 10.415 220.68 10.77 220.25 11.04C219.82 11.31 219.315 11.445 218.735 11.445C218.19 11.445 217.68 11.3425 217.205 11.1375C216.73 10.9325 216.31 10.65 215.945 10.29C215.585 9.925 215.302 9.505 215.097 9.03C214.892 8.555 214.79 8.045 214.79 7.5C214.79 6.955 214.892 6.445 215.097 5.97C215.302 5.49 215.585 5.07 215.945 4.71C216.31 4.345 216.73 4.06 217.205 3.855C217.68 3.65 218.19 3.5475 218.735 3.5475C219.315 3.5475 219.82 3.6825 220.25 3.9525C220.68 4.2225 221.022 4.5775 221.277 5.0175V-8.9407e-07ZM218.75 10.2225C219.245 10.2225 219.672 10.1025 220.032 9.8625C220.397 9.6175 220.677 9.2875 220.872 8.8725C221.072 8.4575 221.172 8 221.172 7.5C221.172 6.99 221.072 6.53 220.872 6.12C220.672 5.705 220.39 5.3775 220.025 5.1375C219.665 4.8925 219.24 4.77 218.75 4.77C218.255 4.77 217.805 4.8925 217.4 5.1375C217 5.3825 216.68 5.7125 216.44 6.1275C216.2 6.5375 216.08 6.995 216.08 7.5C216.08 8.005 216.202 8.465 216.447 8.88C216.692 9.29 217.017 9.6175 217.422 9.8625C217.827 10.1025 218.27 10.2225 218.75 10.2225ZM74.7637 34.3925C74.3587 34.3775 73.9637 34.3025 73.5787 34.1675C73.1987 34.0275 72.8637 33.84 72.5737 33.605C72.2887 33.365 72.0812 33.09 71.9512 32.78L73.0312 32.315C73.1062 32.485 73.2412 32.645 73.4362 32.795C73.6312 32.945 73.8562 33.065 74.1112 33.155C74.3662 33.245 74.6237 33.29 74.8837 33.29C75.1587 33.29 75.4162 33.2475 75.6562 33.1625C75.8962 33.0775 76.0912 32.9525 76.2412 32.7875C76.3962 32.6175 76.4737 32.415 76.4737 32.18C76.4737 31.93 76.3887 31.735 76.2187 31.595C76.0537 31.45 75.8437 31.3375 75.5887 31.2575C75.3387 31.1725 75.0837 31.0925 74.8237 31.0175C74.3087 30.8875 73.8487 30.7325 73.4437 30.5525C73.0387 30.3675 72.7187 30.135 72.4837 29.855C72.2537 29.57 72.1387 29.2075 72.1387 28.7675C72.1387 28.3025 72.2662 27.9 72.5212 27.56C72.7812 27.22 73.1212 26.9575 73.5412 26.7725C73.9612 26.5875 74.4112 26.495 74.8912 26.495C75.4962 26.495 76.0487 26.625 76.5487 26.885C77.0487 27.145 77.4212 27.4975 77.6662 27.9425L76.6537 28.535C76.5687 28.355 76.4387 28.1975 76.2637 28.0625C76.0887 27.9225 75.8887 27.8125 75.6637 27.7325C75.4387 27.6525 75.2087 27.61 74.9737 27.605C74.6837 27.595 74.4112 27.6325 74.1562 27.7175C73.9062 27.8025 73.7037 27.9325 73.5487 28.1075C73.3987 28.2775 73.3237 28.49 73.3237 28.745C73.3237 28.995 73.4037 29.185 73.5637 29.315C73.7287 29.445 73.9412 29.55 74.2012 29.63C74.4662 29.705 74.7537 29.7925 75.0637 29.8925C75.5187 30.0375 75.9437 30.205 76.3387 30.395C76.7337 30.585 77.0512 30.8225 77.2912 31.1075C77.5362 31.3925 77.6562 31.745 77.6512 32.165C77.6512 32.625 77.5137 33.0275 77.2387 33.3725C76.9637 33.7125 76.6062 33.9725 76.1662 34.1525C75.7312 34.3325 75.2637 34.4125 74.7637 34.3925ZM78.6361 31.4V26.75H79.8961V31.1225C79.8961 31.5025 79.9886 31.8475 80.1736 32.1575C80.3586 32.4675 80.6061 32.715 80.9161 32.9C81.2311 33.08 81.5761 33.17 81.9511 33.17C82.3311 33.17 82.6736 33.08 82.9786 32.9C83.2886 32.715 83.5361 32.4675 83.7211 32.1575C83.9061 31.8475 83.9986 31.5025 83.9986 31.1225V26.75H85.2586L85.2661 34.25H84.0061L83.9986 33.2975C83.7336 33.6475 83.3986 33.9275 82.9936 34.1375C82.5886 34.3425 82.1511 34.445 81.6811 34.445C81.1211 34.445 80.6086 34.31 80.1436 34.04C79.6836 33.765 79.3161 33.3975 79.0411 32.9375C78.7711 32.4775 78.6361 31.965 78.6361 31.4ZM91.8673 32.27L92.9923 32.8775C92.6523 33.3525 92.2198 33.7325 91.6948 34.0175C91.1748 34.3025 90.6098 34.445 89.9998 34.445C89.3098 34.445 88.6798 34.2675 88.1098 33.9125C87.5448 33.5575 87.0923 33.0825 86.7523 32.4875C86.4173 31.8875 86.2498 31.225 86.2498 30.5C86.2498 29.95 86.3473 29.4375 86.5423 28.9625C86.7373 28.4825 87.0048 28.0625 87.3448 27.7025C87.6898 27.3375 88.0898 27.0525 88.5448 26.8475C88.9998 26.6425 89.4848 26.54 89.9998 26.54C90.6098 26.54 91.1748 26.6825 91.6948 26.9675C92.2198 27.2525 92.6523 27.635 92.9923 28.115L91.8673 28.7225C91.6273 28.4275 91.3423 28.2 91.0123 28.04C90.6823 27.88 90.3448 27.8 89.9998 27.8C89.5348 27.8 89.1123 27.925 88.7323 28.175C88.3573 28.42 88.0598 28.7475 87.8398 29.1575C87.6198 29.5675 87.5098 30.015 87.5098 30.5C87.5098 30.985 87.6198 31.4325 87.8398 31.8425C88.0648 32.2475 88.3648 32.5725 88.7398 32.8175C89.1198 33.0625 89.5398 33.185 89.9998 33.185C90.3698 33.185 90.7173 33.1 91.0423 32.93C91.3673 32.76 91.6423 32.54 91.8673 32.27ZM99.382 32.27L100.507 32.8775C100.167 33.3525 99.7345 33.7325 99.2095 34.0175C98.6895 34.3025 98.1245 34.445 97.5145 34.445C96.8245 34.445 96.1945 34.2675 95.6245 33.9125C95.0595 33.5575 94.607 33.0825 94.267 32.4875C93.932 31.8875 93.7645 31.225 93.7645 30.5C93.7645 29.95 93.862 29.4375 94.057 28.9625C94.252 28.4825 94.5195 28.0625 94.8595 27.7025C95.2045 27.3375 95.6045 27.0525 96.0595 26.8475C96.5145 26.6425 96.9995 26.54 97.5145 26.54C98.1245 26.54 98.6895 26.6825 99.2095 26.9675C99.7345 27.2525 100.167 27.635 100.507 28.115L99.382 28.7225C99.142 28.4275 98.857 28.2 98.527 28.04C98.197 27.88 97.8595 27.8 97.5145 27.8C97.0495 27.8 96.627 27.925 96.247 28.175C95.872 28.42 95.5745 28.7475 95.3545 29.1575C95.1345 29.5675 95.0245 30.015 95.0245 30.5C95.0245 30.985 95.1345 31.4325 95.3545 31.8425C95.5795 32.2475 95.8795 32.5725 96.2545 32.8175C96.6345 33.0625 97.0545 33.185 97.5145 33.185C97.8845 33.185 98.232 33.1 98.557 32.93C98.882 32.76 99.157 32.54 99.382 32.27ZM105.029 34.445C104.339 34.445 103.709 34.2675 103.139 33.9125C102.574 33.5575 102.122 33.0825 101.782 32.4875C101.447 31.8875 101.279 31.225 101.279 30.5C101.279 29.95 101.377 29.4375 101.572 28.9625C101.767 28.4825 102.034 28.0625 102.374 27.7025C102.719 27.3375 103.119 27.0525 103.574 26.8475C104.029 26.6425 104.514 26.54 105.029 26.54C105.594 26.54 106.112 26.655 106.582 26.885C107.057 27.11 107.462 27.425 107.797 27.83C108.137 28.235 108.389 28.705 108.554 29.24C108.724 29.775 108.787 30.3475 108.742 30.9575H102.622C102.682 31.3825 102.822 31.7625 103.042 32.0975C103.262 32.4275 103.542 32.69 103.882 32.885C104.227 33.08 104.609 33.18 105.029 33.185C105.479 33.185 105.887 33.07 106.252 32.84C106.617 32.605 106.912 32.285 107.137 31.88L108.419 32.18C108.119 32.845 107.667 33.39 107.062 33.815C106.457 34.235 105.779 34.445 105.029 34.445ZM102.584 29.9675H107.474C107.434 29.5475 107.299 29.165 107.069 28.82C106.839 28.47 106.547 28.19 106.192 27.98C105.837 27.77 105.449 27.665 105.029 27.665C104.609 27.665 104.224 27.7675 103.874 27.9725C103.524 28.1775 103.234 28.455 103.004 28.805C102.779 29.15 102.639 29.5375 102.584 29.9675ZM112.322 34.3925C111.917 34.3775 111.522 34.3025 111.137 34.1675C110.757 34.0275 110.422 33.84 110.132 33.605C109.847 33.365 109.64 33.09 109.51 32.78L110.59 32.315C110.665 32.485 110.8 32.645 110.995 32.795C111.19 32.945 111.415 33.065 111.67 33.155C111.925 33.245 112.182 33.29 112.442 33.29C112.717 33.29 112.975 33.2475 113.215 33.1625C113.455 33.0775 113.65 32.9525 113.8 32.7875C113.955 32.6175 114.032 32.415 114.032 32.18C114.032 31.93 113.947 31.735 113.777 31.595C113.612 31.45 113.402 31.3375 113.147 31.2575C112.897 31.1725 112.642 31.0925 112.382 31.0175C111.867 30.8875 111.407 30.7325 111.002 30.5525C110.597 30.3675 110.277 30.135 110.042 29.855C109.812 29.57 109.697 29.2075 109.697 28.7675C109.697 28.3025 109.825 27.9 110.08 27.56C110.34 27.22 110.68 26.9575 111.1 26.7725C111.52 26.5875 111.97 26.495 112.45 26.495C113.055 26.495 113.607 26.625 114.107 26.885C114.607 27.145 114.98 27.4975 115.225 27.9425L114.212 28.535C114.127 28.355 113.997 28.1975 113.822 28.0625C113.647 27.9225 113.447 27.8125 113.222 27.7325C112.997 27.6525 112.767 27.61 112.532 27.605C112.242 27.595 111.97 27.6325 111.715 27.7175C111.465 27.8025 111.262 27.9325 111.107 28.1075C110.957 28.2775 110.882 28.49 110.882 28.745C110.882 28.995 110.962 29.185 111.122 29.315C111.287 29.445 111.5 29.55 111.76 29.63C112.025 29.705 112.312 29.7925 112.622 29.8925C113.077 30.0375 113.502 30.205 113.897 30.395C114.292 30.585 114.61 30.8225 114.85 31.1075C115.095 31.3925 115.215 31.745 115.21 32.165C115.21 32.625 115.072 33.0275 114.797 33.3725C114.522 33.7125 114.165 33.9725 113.725 34.1525C113.29 34.3325 112.822 34.4125 112.322 34.3925ZM118.782 34.3925C118.377 34.3775 117.982 34.3025 117.597 34.1675C117.217 34.0275 116.882 33.84 116.592 33.605C116.307 33.365 116.1 33.09 115.97 32.78L117.05 32.315C117.125 32.485 117.26 32.645 117.455 32.795C117.65 32.945 117.875 33.065 118.13 33.155C118.385 33.245 118.642 33.29 118.902 33.29C119.177 33.29 119.435 33.2475 119.675 33.1625C119.915 33.0775 120.11 32.9525 120.26 32.7875C120.415 32.6175 120.492 32.415 120.492 32.18C120.492 31.93 120.407 31.735 120.237 31.595C120.072 31.45 119.862 31.3375 119.607 31.2575C119.357 31.1725 119.102 31.0925 118.842 31.0175C118.327 30.8875 117.867 30.7325 117.462 30.5525C117.057 30.3675 116.737 30.135 116.502 29.855C116.272 29.57 116.157 29.2075 116.157 28.7675C116.157 28.3025 116.285 27.9 116.54 27.56C116.8 27.22 117.14 26.9575 117.56 26.7725C117.98 26.5875 118.43 26.495 118.91 26.495C119.515 26.495 120.067 26.625 120.567 26.885C121.067 27.145 121.44 27.4975 121.685 27.9425L120.672 28.535C120.587 28.355 120.457 28.1975 120.282 28.0625C120.107 27.9225 119.907 27.8125 119.682 27.7325C119.457 27.6525 119.227 27.61 118.992 27.605C118.702 27.595 118.43 27.6325 118.175 27.7175C117.925 27.8025 117.722 27.9325 117.567 28.1075C117.417 28.2775 117.342 28.49 117.342 28.745C117.342 28.995 117.422 29.185 117.582 29.315C117.747 29.445 117.96 29.55 118.22 29.63C118.485 29.705 118.772 29.7925 119.082 29.8925C119.537 30.0375 119.962 30.205 120.357 30.395C120.752 30.585 121.07 30.8225 121.31 31.1075C121.555 31.3925 121.675 31.745 121.67 32.165C121.67 32.625 121.532 33.0275 121.257 33.3725C120.982 33.7125 120.625 33.9725 120.185 34.1525C119.75 34.3325 119.282 34.4125 118.782 34.3925ZM124.657 24.8975V26.75H126.855V28.01H124.657V34.25H123.397V28.01H122.43V26.75H123.397V24.8975C123.397 24.5125 123.49 24.165 123.675 23.855C123.865 23.54 124.117 23.29 124.432 23.105C124.752 22.915 125.102 22.82 125.482 22.82C125.762 22.82 126.035 22.8775 126.3 22.9925C126.565 23.1025 126.8 23.2675 127.005 23.4875L126.105 24.38C126.035 24.285 125.942 24.2125 125.827 24.1625C125.717 24.1075 125.602 24.08 125.482 24.08C125.257 24.08 125.062 24.16 124.897 24.32C124.737 24.48 124.657 24.6725 124.657 24.8975ZM127.957 31.4V26.75H129.217V31.1225C129.217 31.5025 129.31 31.8475 129.495 32.1575C129.68 32.4675 129.927 32.715 130.237 32.9C130.552 33.08 130.897 33.17 131.272 33.17C131.652 33.17 131.995 33.08 132.3 32.9C132.61 32.715 132.857 32.4675 133.042 32.1575C133.227 31.8475 133.32 31.5025 133.32 31.1225V26.75H134.58L134.587 34.25H133.327L133.32 33.2975C133.055 33.6475 132.72 33.9275 132.315 34.1375C131.91 34.3425 131.472 34.445 131.002 34.445C130.442 34.445 129.93 34.31 129.465 34.04C129.005 33.765 128.637 33.3975 128.362 32.9375C128.092 32.4775 127.957 31.965 127.957 31.4ZM136.182 34.25V23H137.442V34.25H136.182ZM139.244 34.25V23H140.504V34.25H139.244ZM147.15 26.75H148.485L144.382 38H143.047L144.405 34.25L141.712 26.75H143.092L145.035 32.5175L147.15 26.75ZM149.807 34.445C149.617 34.445 149.454 34.3775 149.319 34.2425C149.189 34.1075 149.124 33.9425 149.124 33.7475C149.124 33.5625 149.189 33.4025 149.319 33.2675C149.454 33.1325 149.617 33.065 149.807 33.065C150.002 33.065 150.167 33.1325 150.302 33.2675C150.437 33.4025 150.504 33.5625 150.504 33.7475C150.504 33.9425 150.437 34.1075 150.302 34.2425C150.167 34.3775 150.002 34.445 149.807 34.445Z" fill="#8391A1"/>
</svg>