<svg xmlns="http://www.w3.org/2000/svg" width="116" height="17" viewBox="0 0 116 17" fill="none">
<path d="M9.09189 13.4204L6.78585 9.05406H3.85605V13.4204H1.62562V9.07296H4.8049e-05V7.50409H1.62562V6.06754H4.8049e-05V4.49868H1.62562V0.226838H4.47981L6.74805 4.49868H9.77237V0.226838H11.9839V4.49868H13.6095V6.06754H11.9839V7.50409H13.6095V9.07296H11.9839V13.4204H9.09189ZM3.85605 7.5797H6.04868L5.08468 5.68951L3.91276 3.40237H3.85605V5.68951V7.5797ZM7.50413 5.99194L8.54374 8.01445L9.71566 10.3016H9.77237V8.01445V5.99194H7.50413ZM24.2315 11.3223V13.4204H15.0829V11.1144L19.2225 7.48519C19.9281 6.88033 20.4448 6.32587 20.7724 5.82182C21.1001 5.31777 21.2639 4.77591 21.2639 4.19625V3.95052C21.2639 3.37086 21.0749 2.92982 20.6968 2.62739C20.3188 2.31235 19.8588 2.15484 19.317 2.15484C18.6491 2.15484 18.1324 2.35016 17.767 2.7408C17.4142 3.11884 17.1621 3.57879 17.0109 4.12064L14.8561 3.28896C15.0451 2.69669 15.335 2.15484 15.7256 1.66339C16.1162 1.17194 16.6266 0.774994 17.2567 0.472562C17.8867 0.15753 18.6428 1.35078e-05 19.5249 1.35078e-05C20.4574 1.35078e-05 21.245 0.170131 21.8876 0.510367C22.5429 0.850602 23.0407 1.31685 23.3809 1.90911C23.7211 2.48877 23.8912 3.16294 23.8912 3.93162C23.8912 4.6625 23.74 5.31777 23.4376 5.89743C23.1478 6.47709 22.7445 7.01894 22.2279 7.523C21.7238 8.02705 21.1694 8.5311 20.5645 9.03515L17.7859 11.3223H24.2315ZM30.9154 13.6472C29.7939 13.6472 28.8677 13.3763 28.1368 12.8344C27.4059 12.2926 26.8641 11.5176 26.5112 10.5095C26.171 9.4888 26.0009 8.26017 26.0009 6.82362C26.0009 5.38707 26.171 4.15845 26.5112 3.13774C26.8641 2.11703 27.4059 1.34205 28.1368 0.812798C28.8677 0.270942 29.7939 1.35078e-05 30.9154 1.35078e-05C32.0495 1.35078e-05 32.9757 0.270942 33.694 0.812798C34.4249 1.34205 34.9604 2.11703 35.3007 3.13774C35.6535 4.15845 35.8299 5.38707 35.8299 6.82362C35.8299 8.26017 35.6535 9.4888 35.3007 10.5095C34.9604 11.5176 34.4249 12.2926 33.694 12.8344C32.9757 13.3763 32.0495 13.6472 30.9154 13.6472ZM30.9154 11.5491C31.4699 11.5491 31.9109 11.4042 32.2385 11.1144C32.5662 10.8245 32.8056 10.415 32.9568 9.88574C33.108 9.35649 33.1836 8.73272 33.1836 8.01445V5.6328C33.1836 4.90192 33.108 4.27816 32.9568 3.7615C32.8056 3.23225 32.5662 2.82271 32.2385 2.53288C31.9109 2.24305 31.4699 2.09813 30.9154 2.09813C30.3609 2.09813 29.9199 2.24305 29.5923 2.53288C29.2646 2.82271 29.0252 3.23225 28.874 3.7615C28.7228 4.27816 28.6472 4.90192 28.6472 5.6328V8.01445C28.6472 8.73272 28.7228 9.35649 28.874 9.88574C29.0252 10.415 29.2646 10.8245 29.5923 11.1144C29.9199 11.4042 30.3609 11.5491 30.9154 11.5491ZM42.2492 13.6472C41.1277 13.6472 40.2015 13.3763 39.4706 12.8344C38.7397 12.2926 38.1979 11.5176 37.845 10.5095C37.5048 9.4888 37.3347 8.26017 37.3347 6.82362C37.3347 5.38707 37.5048 4.15845 37.845 3.13774C38.1979 2.11703 38.7397 1.34205 39.4706 0.812798C40.2015 0.270942 41.1277 1.35078e-05 42.2492 1.35078e-05C43.3833 1.35078e-05 44.3095 0.270942 45.0278 0.812798C45.7587 1.34205 46.2942 2.11703 46.6344 3.13774C46.9873 4.15845 47.1637 5.38707 47.1637 6.82362C47.1637 8.26017 46.9873 9.4888 46.6344 10.5095C46.2942 11.5176 45.7587 12.2926 45.0278 12.8344C44.3095 13.3763 43.3833 13.6472 42.2492 13.6472ZM42.2492 11.5491C42.8036 11.5491 43.2447 11.4042 43.5723 11.1144C43.9 10.8245 44.1394 10.415 44.2906 9.88574C44.4418 9.35649 44.5174 8.73272 44.5174 8.01445V5.6328C44.5174 4.90192 44.4418 4.27816 44.2906 3.7615C44.1394 3.23225 43.9 2.82271 43.5723 2.53288C43.2447 2.24305 42.8036 2.09813 42.2492 2.09813C41.6947 2.09813 41.2537 2.24305 40.9261 2.53288C40.5984 2.82271 40.359 3.23225 40.2078 3.7615C40.0566 4.27816 39.981 4.90192 39.981 5.6328V8.01445C39.981 8.73272 40.0566 9.35649 40.2078 9.88574C40.359 10.415 40.5984 10.8245 40.9261 11.1144C41.2537 11.4042 41.6947 11.5491 42.2492 11.5491ZM50.7288 10.5095C51.258 10.5095 51.6424 10.6418 51.8818 10.9064C52.1212 11.1711 52.2409 11.505 52.2409 11.9083V12.2485C52.2409 12.9416 52.0645 13.6409 51.7117 14.3466C51.3715 15.0649 50.9052 15.6571 50.3129 16.1234H48.6118C49.0276 15.7075 49.3805 15.3043 49.6703 14.9137C49.9727 14.523 50.1932 14.082 50.3319 13.5905C49.9538 13.5149 49.6703 13.3574 49.4813 13.118C49.3048 12.8786 49.2166 12.5887 49.2166 12.2485V11.9083C49.2166 11.505 49.3426 11.1711 49.5947 10.9064C49.8467 10.6418 50.2247 10.5095 50.7288 10.5095ZM63.2954 0.226838V2.38166H57.3601L57.0577 6.80472H57.19C57.379 6.42668 57.587 6.09905 57.8138 5.82182C58.0532 5.53199 58.343 5.30517 58.6833 5.14135C59.0361 4.97753 59.4709 4.89562 59.9875 4.89562C60.7436 4.89562 61.4241 5.06574 62.0289 5.40598C62.6338 5.73361 63.1126 6.20616 63.4655 6.82362C63.8309 7.44109 64.0136 8.19087 64.0136 9.07296C64.0136 9.95505 63.8246 10.7426 63.4466 11.4357C63.0685 12.1162 62.5141 12.658 61.7832 13.0613C61.0523 13.4519 60.1702 13.6472 59.1369 13.6472C58.3304 13.6472 57.6374 13.5338 57.0577 13.307C56.478 13.0802 55.9866 12.7777 55.5833 12.3997C55.1927 12.0217 54.8651 11.6184 54.6004 11.19L56.415 9.79123C56.7175 10.2953 57.0703 10.7237 57.4735 11.0766C57.8768 11.4294 58.4375 11.6058 59.1558 11.6058C59.8993 11.6058 60.4601 11.3979 60.8381 10.9821C61.2287 10.5662 61.4241 9.99915 61.4241 9.28088V9.12966C61.4241 8.44919 61.2287 7.91364 60.8381 7.523C60.4475 7.13236 59.9056 6.93704 59.2125 6.93704C58.6707 6.93704 58.2296 7.04415 57.8894 7.25837C57.5492 7.45999 57.2782 7.68051 57.0766 7.91994L55.0352 7.63641L55.5266 0.226838H63.2954ZM75.3096 5.17915C75.3096 6.12425 75.1647 7.01264 74.8749 7.84433C74.5976 8.67602 74.2259 9.4447 73.7597 10.1504C73.306 10.856 72.802 11.4861 72.2475 12.0406C71.693 12.595 71.1386 13.055 70.5841 13.4204H67.2196C68.2529 12.6769 69.1413 11.965 69.8847 11.2845C70.6408 10.604 71.252 9.89834 71.7182 9.16747C72.1971 8.43659 72.531 7.62381 72.72 6.72911L72.5688 6.69131C72.405 7.01894 72.1971 7.33398 71.9451 7.63641C71.693 7.93884 71.378 8.18457 71 8.37358C70.6219 8.55 70.1494 8.63821 69.5823 8.63821C68.8514 8.63821 68.1899 8.4744 67.5976 8.14676C67.018 7.80653 66.558 7.33398 66.2178 6.72911C65.8901 6.11165 65.7263 5.38707 65.7263 4.55539C65.7263 3.66069 65.9216 2.87311 66.3123 2.19264C66.7155 1.51217 67.2763 0.976616 67.9946 0.585975C68.7128 0.195334 69.5508 1.35078e-05 70.5085 1.35078e-05C71.5166 1.35078e-05 72.3735 0.214236 73.0792 0.64268C73.7975 1.05852 74.3456 1.65709 74.7237 2.43837C75.1143 3.21965 75.3096 4.13324 75.3096 5.17915ZM70.5085 6.71021C70.9748 6.71021 71.3717 6.6283 71.6993 6.46449C72.027 6.28807 72.279 6.03604 72.4554 5.70841C72.6444 5.36817 72.7389 4.95863 72.7389 4.47978V4.19625C72.7389 3.7174 72.6444 3.31416 72.4554 2.98652C72.279 2.65889 72.027 2.40686 71.6993 2.23045C71.3717 2.05403 70.9748 1.96582 70.5085 1.96582C70.0423 1.96582 69.6453 2.05403 69.3177 2.23045C68.9901 2.40686 68.7317 2.65889 68.5427 2.98652C68.3663 3.31416 68.2781 3.7174 68.2781 4.19625V4.47978C68.2781 4.95863 68.3663 5.36817 68.5427 5.70841C68.7317 6.03604 68.9901 6.28807 69.3177 6.46449C69.6453 6.6283 70.0423 6.71021 70.5085 6.71021ZM81.899 13.6472C80.7775 13.6472 79.8513 13.3763 79.1204 12.8344C78.3896 12.2926 77.8477 11.5176 77.4949 10.5095C77.1546 9.4888 76.9845 8.26017 76.9845 6.82362C76.9845 5.38707 77.1546 4.15845 77.4949 3.13774C77.8477 2.11703 78.3896 1.34205 79.1204 0.812798C79.8513 0.270942 80.7775 1.35078e-05 81.899 1.35078e-05C83.0331 1.35078e-05 83.9593 0.270942 84.6776 0.812798C85.4085 1.34205 85.944 2.11703 86.2843 3.13774C86.6371 4.15845 86.8135 5.38707 86.8135 6.82362C86.8135 8.26017 86.6371 9.4888 86.2843 10.5095C85.944 11.5176 85.4085 12.2926 84.6776 12.8344C83.9593 13.3763 83.0331 13.6472 81.899 13.6472ZM81.899 11.5491C82.4535 11.5491 82.8945 11.4042 83.2222 11.1144C83.5498 10.8245 83.7892 10.415 83.9404 9.88574C84.0916 9.35649 84.1673 8.73272 84.1673 8.01445V5.6328C84.1673 4.90192 84.0916 4.27816 83.9404 3.7615C83.7892 3.23225 83.5498 2.82271 83.2222 2.53288C82.8945 2.24305 82.4535 2.09813 81.899 2.09813C81.3446 2.09813 80.9035 2.24305 80.5759 2.53288C80.2482 2.82271 80.0088 3.23225 79.8576 3.7615C79.7064 4.27816 79.6308 4.90192 79.6308 5.6328V8.01445C79.6308 8.73272 79.7064 9.35649 79.8576 9.88574C80.0088 10.415 80.2482 10.8245 80.5759 11.1144C80.9035 11.4042 81.3446 11.5491 81.899 11.5491ZM90.3786 13.6283C89.8746 13.6283 89.4965 13.496 89.2445 13.2314C88.9925 12.9668 88.8665 12.6391 88.8665 12.2485V11.9083C88.8665 11.505 88.9925 11.1711 89.2445 10.9064C89.4965 10.6418 89.8746 10.5095 90.3786 10.5095C90.9079 10.5095 91.2922 10.6418 91.5316 10.9064C91.7711 11.1711 91.8908 11.505 91.8908 11.9083V12.2485C91.8908 12.6391 91.7711 12.9668 91.5316 13.2314C91.2922 13.496 90.9079 13.6283 90.3786 13.6283ZM98.8813 13.6472C97.7597 13.6472 96.8335 13.3763 96.1027 12.8344C95.3718 12.2926 94.8299 11.5176 94.4771 10.5095C94.1369 9.4888 93.9667 8.26017 93.9667 6.82362C93.9667 5.38707 94.1369 4.15845 94.4771 3.13774C94.8299 2.11703 95.3718 1.34205 96.1027 0.812798C96.8335 0.270942 97.7597 1.35078e-05 98.8813 1.35078e-05C100.015 1.35078e-05 100.942 0.270942 101.66 0.812798C102.391 1.34205 102.926 2.11703 103.267 3.13774C103.619 4.15845 103.796 5.38707 103.796 6.82362C103.796 8.26017 103.619 9.4888 103.267 10.5095C102.926 11.5176 102.391 12.2926 101.66 12.8344C100.942 13.3763 100.015 13.6472 98.8813 13.6472ZM98.8813 11.5491C99.4357 11.5491 99.8768 11.4042 100.204 11.1144C100.532 10.8245 100.771 10.415 100.923 9.88574C101.074 9.35649 101.149 8.73272 101.149 8.01445V5.6328C101.149 4.90192 101.074 4.27816 100.923 3.7615C100.771 3.23225 100.532 2.82271 100.204 2.53288C99.8768 2.24305 99.4357 2.09813 98.8813 2.09813C98.3268 2.09813 97.8857 2.24305 97.5581 2.53288C97.2305 2.82271 96.9911 3.23225 96.8398 3.7615C96.6886 4.27816 96.613 4.90192 96.613 5.6328V8.01445C96.613 8.73272 96.6886 9.35649 96.8398 9.88574C96.9911 10.415 97.2305 10.8245 97.5581 11.1144C97.8857 11.4042 98.3268 11.5491 98.8813 11.5491ZM110.215 13.6472C109.094 13.6472 108.167 13.3763 107.436 12.8344C106.706 12.2926 106.164 11.5176 105.811 10.5095C105.471 9.4888 105.301 8.26017 105.301 6.82362C105.301 5.38707 105.471 4.15845 105.811 3.13774C106.164 2.11703 106.706 1.34205 107.436 0.812798C108.167 0.270942 109.094 1.35078e-05 110.215 1.35078e-05C111.349 1.35078e-05 112.275 0.270942 112.994 0.812798C113.725 1.34205 114.26 2.11703 114.6 3.13774C114.953 4.15845 115.13 5.38707 115.13 6.82362C115.13 8.26017 114.953 9.4888 114.6 10.5095C114.26 11.5176 113.725 12.2926 112.994 12.8344C112.275 13.3763 111.349 13.6472 110.215 13.6472ZM110.215 11.5491C110.77 11.5491 111.211 11.4042 111.538 11.1144C111.866 10.8245 112.105 10.415 112.256 9.88574C112.408 9.35649 112.483 8.73272 112.483 8.01445V5.6328C112.483 4.90192 112.408 4.27816 112.256 3.7615C112.105 3.23225 111.866 2.82271 111.538 2.53288C111.211 2.24305 110.77 2.09813 110.215 2.09813C109.661 2.09813 109.22 2.24305 108.892 2.53288C108.564 2.82271 108.325 3.23225 108.174 3.7615C108.022 4.27816 107.947 4.90192 107.947 5.6328V8.01445C107.947 8.73272 108.022 9.35649 108.174 9.88574C108.325 10.415 108.564 10.8245 108.892 11.1144C109.22 11.4042 109.661 11.5491 110.215 11.5491Z" fill="#0B0A0A"/>
</svg>